%TF.GenerationSoftware,KiCad,Pcbnew,10.0.3*%
%TF.CreationDate,2026-07-03T15:49:38+02:00*%
%TF.ProjectId,Carrier_PCB,43617272-6965-4725-9f50-43422e6b6963,rev?*%
%TF.SameCoordinates,Original*%
%TF.FileFunction,Legend,Top*%
%TF.FilePolarity,Positive*%
%FSLAX46Y46*%
G04 Gerber Fmt 4.6, Leading zero omitted, Abs format (unit mm)*
G04 Created by KiCad (PCBNEW 10.0.3) date 2026-07-03 15:49:38*
%MOMM*%
%LPD*%
G01*
G04 APERTURE LIST*
%ADD10C,0.300000*%
%ADD11C,0.100000*%
%ADD12C,0.150000*%
%ADD13C,0.120000*%
G04 APERTURE END LIST*
D10*
X155629510Y-118725828D02*
X155629510Y-117225828D01*
X155629510Y-117225828D02*
X155986653Y-117225828D01*
X155986653Y-117225828D02*
X156200939Y-117297257D01*
X156200939Y-117297257D02*
X156343796Y-117440114D01*
X156343796Y-117440114D02*
X156415225Y-117582971D01*
X156415225Y-117582971D02*
X156486653Y-117868685D01*
X156486653Y-117868685D02*
X156486653Y-118082971D01*
X156486653Y-118082971D02*
X156415225Y-118368685D01*
X156415225Y-118368685D02*
X156343796Y-118511542D01*
X156343796Y-118511542D02*
X156200939Y-118654400D01*
X156200939Y-118654400D02*
X155986653Y-118725828D01*
X155986653Y-118725828D02*
X155629510Y-118725828D01*
X157986653Y-118725828D02*
X157486653Y-118011542D01*
X157129510Y-118725828D02*
X157129510Y-117225828D01*
X157129510Y-117225828D02*
X157700939Y-117225828D01*
X157700939Y-117225828D02*
X157843796Y-117297257D01*
X157843796Y-117297257D02*
X157915225Y-117368685D01*
X157915225Y-117368685D02*
X157986653Y-117511542D01*
X157986653Y-117511542D02*
X157986653Y-117725828D01*
X157986653Y-117725828D02*
X157915225Y-117868685D01*
X157915225Y-117868685D02*
X157843796Y-117940114D01*
X157843796Y-117940114D02*
X157700939Y-118011542D01*
X157700939Y-118011542D02*
X157129510Y-118011542D01*
X158915225Y-117225828D02*
X159200939Y-117225828D01*
X159200939Y-117225828D02*
X159343796Y-117297257D01*
X159343796Y-117297257D02*
X159486653Y-117440114D01*
X159486653Y-117440114D02*
X159558082Y-117725828D01*
X159558082Y-117725828D02*
X159558082Y-118225828D01*
X159558082Y-118225828D02*
X159486653Y-118511542D01*
X159486653Y-118511542D02*
X159343796Y-118654400D01*
X159343796Y-118654400D02*
X159200939Y-118725828D01*
X159200939Y-118725828D02*
X158915225Y-118725828D01*
X158915225Y-118725828D02*
X158772368Y-118654400D01*
X158772368Y-118654400D02*
X158629510Y-118511542D01*
X158629510Y-118511542D02*
X158558082Y-118225828D01*
X158558082Y-118225828D02*
X158558082Y-117725828D01*
X158558082Y-117725828D02*
X158629510Y-117440114D01*
X158629510Y-117440114D02*
X158772368Y-117297257D01*
X158772368Y-117297257D02*
X158915225Y-117225828D01*
X160200939Y-118725828D02*
X160200939Y-117225828D01*
X160200939Y-117225828D02*
X161058082Y-118725828D01*
X161058082Y-118725828D02*
X161058082Y-117225828D01*
X161772368Y-117940114D02*
X162272368Y-117940114D01*
X162486654Y-118725828D02*
X161772368Y-118725828D01*
X161772368Y-118725828D02*
X161772368Y-117225828D01*
X161772368Y-117225828D02*
X162486654Y-117225828D01*
X164272368Y-118725828D02*
X164272368Y-117225828D01*
X164272368Y-117225828D02*
X164843797Y-117225828D01*
X164843797Y-117225828D02*
X164986654Y-117297257D01*
X164986654Y-117297257D02*
X165058083Y-117368685D01*
X165058083Y-117368685D02*
X165129511Y-117511542D01*
X165129511Y-117511542D02*
X165129511Y-117725828D01*
X165129511Y-117725828D02*
X165058083Y-117868685D01*
X165058083Y-117868685D02*
X164986654Y-117940114D01*
X164986654Y-117940114D02*
X164843797Y-118011542D01*
X164843797Y-118011542D02*
X164272368Y-118011542D01*
X166629511Y-118725828D02*
X166129511Y-118011542D01*
X165772368Y-118725828D02*
X165772368Y-117225828D01*
X165772368Y-117225828D02*
X166343797Y-117225828D01*
X166343797Y-117225828D02*
X166486654Y-117297257D01*
X166486654Y-117297257D02*
X166558083Y-117368685D01*
X166558083Y-117368685D02*
X166629511Y-117511542D01*
X166629511Y-117511542D02*
X166629511Y-117725828D01*
X166629511Y-117725828D02*
X166558083Y-117868685D01*
X166558083Y-117868685D02*
X166486654Y-117940114D01*
X166486654Y-117940114D02*
X166343797Y-118011542D01*
X166343797Y-118011542D02*
X165772368Y-118011542D01*
X167558083Y-117225828D02*
X167843797Y-117225828D01*
X167843797Y-117225828D02*
X167986654Y-117297257D01*
X167986654Y-117297257D02*
X168129511Y-117440114D01*
X168129511Y-117440114D02*
X168200940Y-117725828D01*
X168200940Y-117725828D02*
X168200940Y-118225828D01*
X168200940Y-118225828D02*
X168129511Y-118511542D01*
X168129511Y-118511542D02*
X167986654Y-118654400D01*
X167986654Y-118654400D02*
X167843797Y-118725828D01*
X167843797Y-118725828D02*
X167558083Y-118725828D01*
X167558083Y-118725828D02*
X167415226Y-118654400D01*
X167415226Y-118654400D02*
X167272368Y-118511542D01*
X167272368Y-118511542D02*
X167200940Y-118225828D01*
X167200940Y-118225828D02*
X167200940Y-117725828D01*
X167200940Y-117725828D02*
X167272368Y-117440114D01*
X167272368Y-117440114D02*
X167415226Y-117297257D01*
X167415226Y-117297257D02*
X167558083Y-117225828D01*
X169272369Y-117225828D02*
X169272369Y-118297257D01*
X169272369Y-118297257D02*
X169200940Y-118511542D01*
X169200940Y-118511542D02*
X169058083Y-118654400D01*
X169058083Y-118654400D02*
X168843797Y-118725828D01*
X168843797Y-118725828D02*
X168700940Y-118725828D01*
X169986654Y-117940114D02*
X170486654Y-117940114D01*
X170700940Y-118725828D02*
X169986654Y-118725828D01*
X169986654Y-118725828D02*
X169986654Y-117225828D01*
X169986654Y-117225828D02*
X170700940Y-117225828D01*
X172200940Y-118582971D02*
X172129512Y-118654400D01*
X172129512Y-118654400D02*
X171915226Y-118725828D01*
X171915226Y-118725828D02*
X171772369Y-118725828D01*
X171772369Y-118725828D02*
X171558083Y-118654400D01*
X171558083Y-118654400D02*
X171415226Y-118511542D01*
X171415226Y-118511542D02*
X171343797Y-118368685D01*
X171343797Y-118368685D02*
X171272369Y-118082971D01*
X171272369Y-118082971D02*
X171272369Y-117868685D01*
X171272369Y-117868685D02*
X171343797Y-117582971D01*
X171343797Y-117582971D02*
X171415226Y-117440114D01*
X171415226Y-117440114D02*
X171558083Y-117297257D01*
X171558083Y-117297257D02*
X171772369Y-117225828D01*
X171772369Y-117225828D02*
X171915226Y-117225828D01*
X171915226Y-117225828D02*
X172129512Y-117297257D01*
X172129512Y-117297257D02*
X172200940Y-117368685D01*
X172629512Y-117225828D02*
X173486655Y-117225828D01*
X173058083Y-118725828D02*
X173058083Y-117225828D01*
D11*
X172127580Y-127497931D02*
X172127580Y-127021741D01*
X172127580Y-127021741D02*
X171651390Y-126974122D01*
X171651390Y-126974122D02*
X171699009Y-127021741D01*
X171699009Y-127021741D02*
X171746628Y-127116979D01*
X171746628Y-127116979D02*
X171746628Y-127355074D01*
X171746628Y-127355074D02*
X171699009Y-127450312D01*
X171699009Y-127450312D02*
X171651390Y-127497931D01*
X171651390Y-127497931D02*
X171556152Y-127545550D01*
X171556152Y-127545550D02*
X171318057Y-127545550D01*
X171318057Y-127545550D02*
X171222819Y-127497931D01*
X171222819Y-127497931D02*
X171175200Y-127450312D01*
X171175200Y-127450312D02*
X171127580Y-127355074D01*
X171127580Y-127355074D02*
X171127580Y-127116979D01*
X171127580Y-127116979D02*
X171175200Y-127021741D01*
X171175200Y-127021741D02*
X171222819Y-126974122D01*
X172127580Y-127831265D02*
X171127580Y-128164598D01*
X171127580Y-128164598D02*
X172127580Y-128497931D01*
X170854961Y-126307455D02*
X170902580Y-126212217D01*
X170902580Y-126212217D02*
X170902580Y-126069360D01*
X170902580Y-126069360D02*
X170854961Y-125926503D01*
X170854961Y-125926503D02*
X170759723Y-125831265D01*
X170759723Y-125831265D02*
X170664485Y-125783646D01*
X170664485Y-125783646D02*
X170474009Y-125736027D01*
X170474009Y-125736027D02*
X170331152Y-125736027D01*
X170331152Y-125736027D02*
X170140676Y-125783646D01*
X170140676Y-125783646D02*
X170045438Y-125831265D01*
X170045438Y-125831265D02*
X169950200Y-125926503D01*
X169950200Y-125926503D02*
X169902580Y-126069360D01*
X169902580Y-126069360D02*
X169902580Y-126164598D01*
X169902580Y-126164598D02*
X169950200Y-126307455D01*
X169950200Y-126307455D02*
X169997819Y-126355074D01*
X169997819Y-126355074D02*
X170331152Y-126355074D01*
X170331152Y-126355074D02*
X170331152Y-126164598D01*
X169902580Y-126783646D02*
X170902580Y-126783646D01*
X170902580Y-126783646D02*
X169902580Y-127355074D01*
X169902580Y-127355074D02*
X170902580Y-127355074D01*
X169902580Y-127831265D02*
X170902580Y-127831265D01*
X170902580Y-127831265D02*
X170902580Y-128069360D01*
X170902580Y-128069360D02*
X170854961Y-128212217D01*
X170854961Y-128212217D02*
X170759723Y-128307455D01*
X170759723Y-128307455D02*
X170664485Y-128355074D01*
X170664485Y-128355074D02*
X170474009Y-128402693D01*
X170474009Y-128402693D02*
X170331152Y-128402693D01*
X170331152Y-128402693D02*
X170140676Y-128355074D01*
X170140676Y-128355074D02*
X170045438Y-128307455D01*
X170045438Y-128307455D02*
X169950200Y-128212217D01*
X169950200Y-128212217D02*
X169902580Y-128069360D01*
X169902580Y-128069360D02*
X169902580Y-127831265D01*
X173750200Y-124831265D02*
X173702580Y-124974122D01*
X173702580Y-124974122D02*
X173702580Y-125212217D01*
X173702580Y-125212217D02*
X173750200Y-125307455D01*
X173750200Y-125307455D02*
X173797819Y-125355074D01*
X173797819Y-125355074D02*
X173893057Y-125402693D01*
X173893057Y-125402693D02*
X173988295Y-125402693D01*
X173988295Y-125402693D02*
X174083533Y-125355074D01*
X174083533Y-125355074D02*
X174131152Y-125307455D01*
X174131152Y-125307455D02*
X174178771Y-125212217D01*
X174178771Y-125212217D02*
X174226390Y-125021741D01*
X174226390Y-125021741D02*
X174274009Y-124926503D01*
X174274009Y-124926503D02*
X174321628Y-124878884D01*
X174321628Y-124878884D02*
X174416866Y-124831265D01*
X174416866Y-124831265D02*
X174512104Y-124831265D01*
X174512104Y-124831265D02*
X174607342Y-124878884D01*
X174607342Y-124878884D02*
X174654961Y-124926503D01*
X174654961Y-124926503D02*
X174702580Y-125021741D01*
X174702580Y-125021741D02*
X174702580Y-125259836D01*
X174702580Y-125259836D02*
X174654961Y-125402693D01*
X174226390Y-126164598D02*
X174178771Y-126307455D01*
X174178771Y-126307455D02*
X174131152Y-126355074D01*
X174131152Y-126355074D02*
X174035914Y-126402693D01*
X174035914Y-126402693D02*
X173893057Y-126402693D01*
X173893057Y-126402693D02*
X173797819Y-126355074D01*
X173797819Y-126355074D02*
X173750200Y-126307455D01*
X173750200Y-126307455D02*
X173702580Y-126212217D01*
X173702580Y-126212217D02*
X173702580Y-125831265D01*
X173702580Y-125831265D02*
X174702580Y-125831265D01*
X174702580Y-125831265D02*
X174702580Y-126164598D01*
X174702580Y-126164598D02*
X174654961Y-126259836D01*
X174654961Y-126259836D02*
X174607342Y-126307455D01*
X174607342Y-126307455D02*
X174512104Y-126355074D01*
X174512104Y-126355074D02*
X174416866Y-126355074D01*
X174416866Y-126355074D02*
X174321628Y-126307455D01*
X174321628Y-126307455D02*
X174274009Y-126259836D01*
X174274009Y-126259836D02*
X174226390Y-126164598D01*
X174226390Y-126164598D02*
X174226390Y-125831265D01*
X174702580Y-126831265D02*
X173893057Y-126831265D01*
X173893057Y-126831265D02*
X173797819Y-126878884D01*
X173797819Y-126878884D02*
X173750200Y-126926503D01*
X173750200Y-126926503D02*
X173702580Y-127021741D01*
X173702580Y-127021741D02*
X173702580Y-127212217D01*
X173702580Y-127212217D02*
X173750200Y-127307455D01*
X173750200Y-127307455D02*
X173797819Y-127355074D01*
X173797819Y-127355074D02*
X173893057Y-127402693D01*
X173893057Y-127402693D02*
X174702580Y-127402693D01*
X173750200Y-127831265D02*
X173702580Y-127974122D01*
X173702580Y-127974122D02*
X173702580Y-128212217D01*
X173702580Y-128212217D02*
X173750200Y-128307455D01*
X173750200Y-128307455D02*
X173797819Y-128355074D01*
X173797819Y-128355074D02*
X173893057Y-128402693D01*
X173893057Y-128402693D02*
X173988295Y-128402693D01*
X173988295Y-128402693D02*
X174083533Y-128355074D01*
X174083533Y-128355074D02*
X174131152Y-128307455D01*
X174131152Y-128307455D02*
X174178771Y-128212217D01*
X174178771Y-128212217D02*
X174226390Y-128021741D01*
X174226390Y-128021741D02*
X174274009Y-127926503D01*
X174274009Y-127926503D02*
X174321628Y-127878884D01*
X174321628Y-127878884D02*
X174416866Y-127831265D01*
X174416866Y-127831265D02*
X174512104Y-127831265D01*
X174512104Y-127831265D02*
X174607342Y-127878884D01*
X174607342Y-127878884D02*
X174654961Y-127926503D01*
X174654961Y-127926503D02*
X174702580Y-128021741D01*
X174702580Y-128021741D02*
X174702580Y-128259836D01*
X174702580Y-128259836D02*
X174654961Y-128402693D01*
X172400200Y-124631265D02*
X172352580Y-124774122D01*
X172352580Y-124774122D02*
X172352580Y-125012217D01*
X172352580Y-125012217D02*
X172400200Y-125107455D01*
X172400200Y-125107455D02*
X172447819Y-125155074D01*
X172447819Y-125155074D02*
X172543057Y-125202693D01*
X172543057Y-125202693D02*
X172638295Y-125202693D01*
X172638295Y-125202693D02*
X172733533Y-125155074D01*
X172733533Y-125155074D02*
X172781152Y-125107455D01*
X172781152Y-125107455D02*
X172828771Y-125012217D01*
X172828771Y-125012217D02*
X172876390Y-124821741D01*
X172876390Y-124821741D02*
X172924009Y-124726503D01*
X172924009Y-124726503D02*
X172971628Y-124678884D01*
X172971628Y-124678884D02*
X173066866Y-124631265D01*
X173066866Y-124631265D02*
X173162104Y-124631265D01*
X173162104Y-124631265D02*
X173257342Y-124678884D01*
X173257342Y-124678884D02*
X173304961Y-124726503D01*
X173304961Y-124726503D02*
X173352580Y-124821741D01*
X173352580Y-124821741D02*
X173352580Y-125059836D01*
X173352580Y-125059836D02*
X173304961Y-125202693D01*
X172352580Y-125631265D02*
X173352580Y-125631265D01*
X173352580Y-125631265D02*
X173352580Y-126012217D01*
X173352580Y-126012217D02*
X173304961Y-126107455D01*
X173304961Y-126107455D02*
X173257342Y-126155074D01*
X173257342Y-126155074D02*
X173162104Y-126202693D01*
X173162104Y-126202693D02*
X173019247Y-126202693D01*
X173019247Y-126202693D02*
X172924009Y-126155074D01*
X172924009Y-126155074D02*
X172876390Y-126107455D01*
X172876390Y-126107455D02*
X172828771Y-126012217D01*
X172828771Y-126012217D02*
X172828771Y-125631265D01*
X173352580Y-126821741D02*
X173352580Y-127012217D01*
X173352580Y-127012217D02*
X173304961Y-127107455D01*
X173304961Y-127107455D02*
X173209723Y-127202693D01*
X173209723Y-127202693D02*
X173019247Y-127250312D01*
X173019247Y-127250312D02*
X172685914Y-127250312D01*
X172685914Y-127250312D02*
X172495438Y-127202693D01*
X172495438Y-127202693D02*
X172400200Y-127107455D01*
X172400200Y-127107455D02*
X172352580Y-127012217D01*
X172352580Y-127012217D02*
X172352580Y-126821741D01*
X172352580Y-126821741D02*
X172400200Y-126726503D01*
X172400200Y-126726503D02*
X172495438Y-126631265D01*
X172495438Y-126631265D02*
X172685914Y-126583646D01*
X172685914Y-126583646D02*
X173019247Y-126583646D01*
X173019247Y-126583646D02*
X173209723Y-126631265D01*
X173209723Y-126631265D02*
X173304961Y-126726503D01*
X173304961Y-126726503D02*
X173352580Y-126821741D01*
X172352580Y-128250312D02*
X172828771Y-127916979D01*
X172352580Y-127678884D02*
X173352580Y-127678884D01*
X173352580Y-127678884D02*
X173352580Y-128059836D01*
X173352580Y-128059836D02*
X173304961Y-128155074D01*
X173304961Y-128155074D02*
X173257342Y-128202693D01*
X173257342Y-128202693D02*
X173162104Y-128250312D01*
X173162104Y-128250312D02*
X173019247Y-128250312D01*
X173019247Y-128250312D02*
X172924009Y-128202693D01*
X172924009Y-128202693D02*
X172876390Y-128155074D01*
X172876390Y-128155074D02*
X172828771Y-128059836D01*
X172828771Y-128059836D02*
X172828771Y-127678884D01*
X173352580Y-128536027D02*
X173352580Y-129107455D01*
X172352580Y-128821741D02*
X173352580Y-128821741D01*
X176125200Y-95681265D02*
X176077580Y-95824122D01*
X176077580Y-95824122D02*
X176077580Y-96062217D01*
X176077580Y-96062217D02*
X176125200Y-96157455D01*
X176125200Y-96157455D02*
X176172819Y-96205074D01*
X176172819Y-96205074D02*
X176268057Y-96252693D01*
X176268057Y-96252693D02*
X176363295Y-96252693D01*
X176363295Y-96252693D02*
X176458533Y-96205074D01*
X176458533Y-96205074D02*
X176506152Y-96157455D01*
X176506152Y-96157455D02*
X176553771Y-96062217D01*
X176553771Y-96062217D02*
X176601390Y-95871741D01*
X176601390Y-95871741D02*
X176649009Y-95776503D01*
X176649009Y-95776503D02*
X176696628Y-95728884D01*
X176696628Y-95728884D02*
X176791866Y-95681265D01*
X176791866Y-95681265D02*
X176887104Y-95681265D01*
X176887104Y-95681265D02*
X176982342Y-95728884D01*
X176982342Y-95728884D02*
X177029961Y-95776503D01*
X177029961Y-95776503D02*
X177077580Y-95871741D01*
X177077580Y-95871741D02*
X177077580Y-96109836D01*
X177077580Y-96109836D02*
X177029961Y-96252693D01*
X176601390Y-97014598D02*
X176553771Y-97157455D01*
X176553771Y-97157455D02*
X176506152Y-97205074D01*
X176506152Y-97205074D02*
X176410914Y-97252693D01*
X176410914Y-97252693D02*
X176268057Y-97252693D01*
X176268057Y-97252693D02*
X176172819Y-97205074D01*
X176172819Y-97205074D02*
X176125200Y-97157455D01*
X176125200Y-97157455D02*
X176077580Y-97062217D01*
X176077580Y-97062217D02*
X176077580Y-96681265D01*
X176077580Y-96681265D02*
X177077580Y-96681265D01*
X177077580Y-96681265D02*
X177077580Y-97014598D01*
X177077580Y-97014598D02*
X177029961Y-97109836D01*
X177029961Y-97109836D02*
X176982342Y-97157455D01*
X176982342Y-97157455D02*
X176887104Y-97205074D01*
X176887104Y-97205074D02*
X176791866Y-97205074D01*
X176791866Y-97205074D02*
X176696628Y-97157455D01*
X176696628Y-97157455D02*
X176649009Y-97109836D01*
X176649009Y-97109836D02*
X176601390Y-97014598D01*
X176601390Y-97014598D02*
X176601390Y-96681265D01*
X177077580Y-97681265D02*
X176268057Y-97681265D01*
X176268057Y-97681265D02*
X176172819Y-97728884D01*
X176172819Y-97728884D02*
X176125200Y-97776503D01*
X176125200Y-97776503D02*
X176077580Y-97871741D01*
X176077580Y-97871741D02*
X176077580Y-98062217D01*
X176077580Y-98062217D02*
X176125200Y-98157455D01*
X176125200Y-98157455D02*
X176172819Y-98205074D01*
X176172819Y-98205074D02*
X176268057Y-98252693D01*
X176268057Y-98252693D02*
X177077580Y-98252693D01*
X176125200Y-98681265D02*
X176077580Y-98824122D01*
X176077580Y-98824122D02*
X176077580Y-99062217D01*
X176077580Y-99062217D02*
X176125200Y-99157455D01*
X176125200Y-99157455D02*
X176172819Y-99205074D01*
X176172819Y-99205074D02*
X176268057Y-99252693D01*
X176268057Y-99252693D02*
X176363295Y-99252693D01*
X176363295Y-99252693D02*
X176458533Y-99205074D01*
X176458533Y-99205074D02*
X176506152Y-99157455D01*
X176506152Y-99157455D02*
X176553771Y-99062217D01*
X176553771Y-99062217D02*
X176601390Y-98871741D01*
X176601390Y-98871741D02*
X176649009Y-98776503D01*
X176649009Y-98776503D02*
X176696628Y-98728884D01*
X176696628Y-98728884D02*
X176791866Y-98681265D01*
X176791866Y-98681265D02*
X176887104Y-98681265D01*
X176887104Y-98681265D02*
X176982342Y-98728884D01*
X176982342Y-98728884D02*
X177029961Y-98776503D01*
X177029961Y-98776503D02*
X177077580Y-98871741D01*
X177077580Y-98871741D02*
X177077580Y-99109836D01*
X177077580Y-99109836D02*
X177029961Y-99252693D01*
X173575200Y-95681265D02*
X173527580Y-95824122D01*
X173527580Y-95824122D02*
X173527580Y-96062217D01*
X173527580Y-96062217D02*
X173575200Y-96157455D01*
X173575200Y-96157455D02*
X173622819Y-96205074D01*
X173622819Y-96205074D02*
X173718057Y-96252693D01*
X173718057Y-96252693D02*
X173813295Y-96252693D01*
X173813295Y-96252693D02*
X173908533Y-96205074D01*
X173908533Y-96205074D02*
X173956152Y-96157455D01*
X173956152Y-96157455D02*
X174003771Y-96062217D01*
X174003771Y-96062217D02*
X174051390Y-95871741D01*
X174051390Y-95871741D02*
X174099009Y-95776503D01*
X174099009Y-95776503D02*
X174146628Y-95728884D01*
X174146628Y-95728884D02*
X174241866Y-95681265D01*
X174241866Y-95681265D02*
X174337104Y-95681265D01*
X174337104Y-95681265D02*
X174432342Y-95728884D01*
X174432342Y-95728884D02*
X174479961Y-95776503D01*
X174479961Y-95776503D02*
X174527580Y-95871741D01*
X174527580Y-95871741D02*
X174527580Y-96109836D01*
X174527580Y-96109836D02*
X174479961Y-96252693D01*
X173527580Y-96681265D02*
X174527580Y-96681265D01*
X174527580Y-96681265D02*
X174527580Y-97062217D01*
X174527580Y-97062217D02*
X174479961Y-97157455D01*
X174479961Y-97157455D02*
X174432342Y-97205074D01*
X174432342Y-97205074D02*
X174337104Y-97252693D01*
X174337104Y-97252693D02*
X174194247Y-97252693D01*
X174194247Y-97252693D02*
X174099009Y-97205074D01*
X174099009Y-97205074D02*
X174051390Y-97157455D01*
X174051390Y-97157455D02*
X174003771Y-97062217D01*
X174003771Y-97062217D02*
X174003771Y-96681265D01*
X174527580Y-97871741D02*
X174527580Y-98062217D01*
X174527580Y-98062217D02*
X174479961Y-98157455D01*
X174479961Y-98157455D02*
X174384723Y-98252693D01*
X174384723Y-98252693D02*
X174194247Y-98300312D01*
X174194247Y-98300312D02*
X173860914Y-98300312D01*
X173860914Y-98300312D02*
X173670438Y-98252693D01*
X173670438Y-98252693D02*
X173575200Y-98157455D01*
X173575200Y-98157455D02*
X173527580Y-98062217D01*
X173527580Y-98062217D02*
X173527580Y-97871741D01*
X173527580Y-97871741D02*
X173575200Y-97776503D01*
X173575200Y-97776503D02*
X173670438Y-97681265D01*
X173670438Y-97681265D02*
X173860914Y-97633646D01*
X173860914Y-97633646D02*
X174194247Y-97633646D01*
X174194247Y-97633646D02*
X174384723Y-97681265D01*
X174384723Y-97681265D02*
X174479961Y-97776503D01*
X174479961Y-97776503D02*
X174527580Y-97871741D01*
X173527580Y-99300312D02*
X174003771Y-98966979D01*
X173527580Y-98728884D02*
X174527580Y-98728884D01*
X174527580Y-98728884D02*
X174527580Y-99109836D01*
X174527580Y-99109836D02*
X174479961Y-99205074D01*
X174479961Y-99205074D02*
X174432342Y-99252693D01*
X174432342Y-99252693D02*
X174337104Y-99300312D01*
X174337104Y-99300312D02*
X174194247Y-99300312D01*
X174194247Y-99300312D02*
X174099009Y-99252693D01*
X174099009Y-99252693D02*
X174051390Y-99205074D01*
X174051390Y-99205074D02*
X174003771Y-99109836D01*
X174003771Y-99109836D02*
X174003771Y-98728884D01*
X174527580Y-99586027D02*
X174527580Y-100157455D01*
X173527580Y-99871741D02*
X174527580Y-99871741D01*
X171977580Y-96205074D02*
X171977580Y-95728884D01*
X171977580Y-95728884D02*
X171501390Y-95681265D01*
X171501390Y-95681265D02*
X171549009Y-95728884D01*
X171549009Y-95728884D02*
X171596628Y-95824122D01*
X171596628Y-95824122D02*
X171596628Y-96062217D01*
X171596628Y-96062217D02*
X171549009Y-96157455D01*
X171549009Y-96157455D02*
X171501390Y-96205074D01*
X171501390Y-96205074D02*
X171406152Y-96252693D01*
X171406152Y-96252693D02*
X171168057Y-96252693D01*
X171168057Y-96252693D02*
X171072819Y-96205074D01*
X171072819Y-96205074D02*
X171025200Y-96157455D01*
X171025200Y-96157455D02*
X170977580Y-96062217D01*
X170977580Y-96062217D02*
X170977580Y-95824122D01*
X170977580Y-95824122D02*
X171025200Y-95728884D01*
X171025200Y-95728884D02*
X171072819Y-95681265D01*
X171977580Y-96538408D02*
X170977580Y-96871741D01*
X170977580Y-96871741D02*
X171977580Y-97205074D01*
X169429961Y-96252693D02*
X169477580Y-96157455D01*
X169477580Y-96157455D02*
X169477580Y-96014598D01*
X169477580Y-96014598D02*
X169429961Y-95871741D01*
X169429961Y-95871741D02*
X169334723Y-95776503D01*
X169334723Y-95776503D02*
X169239485Y-95728884D01*
X169239485Y-95728884D02*
X169049009Y-95681265D01*
X169049009Y-95681265D02*
X168906152Y-95681265D01*
X168906152Y-95681265D02*
X168715676Y-95728884D01*
X168715676Y-95728884D02*
X168620438Y-95776503D01*
X168620438Y-95776503D02*
X168525200Y-95871741D01*
X168525200Y-95871741D02*
X168477580Y-96014598D01*
X168477580Y-96014598D02*
X168477580Y-96109836D01*
X168477580Y-96109836D02*
X168525200Y-96252693D01*
X168525200Y-96252693D02*
X168572819Y-96300312D01*
X168572819Y-96300312D02*
X168906152Y-96300312D01*
X168906152Y-96300312D02*
X168906152Y-96109836D01*
X168477580Y-96728884D02*
X169477580Y-96728884D01*
X169477580Y-96728884D02*
X168477580Y-97300312D01*
X168477580Y-97300312D02*
X169477580Y-97300312D01*
X168477580Y-97776503D02*
X169477580Y-97776503D01*
X169477580Y-97776503D02*
X169477580Y-98014598D01*
X169477580Y-98014598D02*
X169429961Y-98157455D01*
X169429961Y-98157455D02*
X169334723Y-98252693D01*
X169334723Y-98252693D02*
X169239485Y-98300312D01*
X169239485Y-98300312D02*
X169049009Y-98347931D01*
X169049009Y-98347931D02*
X168906152Y-98347931D01*
X168906152Y-98347931D02*
X168715676Y-98300312D01*
X168715676Y-98300312D02*
X168620438Y-98252693D01*
X168620438Y-98252693D02*
X168525200Y-98157455D01*
X168525200Y-98157455D02*
X168477580Y-98014598D01*
X168477580Y-98014598D02*
X168477580Y-97776503D01*
X106902580Y-96028884D02*
X107902580Y-96028884D01*
X107902580Y-96028884D02*
X107188295Y-96362217D01*
X107188295Y-96362217D02*
X107902580Y-96695550D01*
X107902580Y-96695550D02*
X106902580Y-96695550D01*
X107569247Y-97600312D02*
X106902580Y-97600312D01*
X107950200Y-97362217D02*
X107235914Y-97124122D01*
X107235914Y-97124122D02*
X107235914Y-97743169D01*
X109452580Y-96028884D02*
X110452580Y-96028884D01*
X110452580Y-96028884D02*
X109738295Y-96362217D01*
X109738295Y-96362217D02*
X110452580Y-96695550D01*
X110452580Y-96695550D02*
X109452580Y-96695550D01*
X110452580Y-97076503D02*
X110452580Y-97695550D01*
X110452580Y-97695550D02*
X110071628Y-97362217D01*
X110071628Y-97362217D02*
X110071628Y-97505074D01*
X110071628Y-97505074D02*
X110024009Y-97600312D01*
X110024009Y-97600312D02*
X109976390Y-97647931D01*
X109976390Y-97647931D02*
X109881152Y-97695550D01*
X109881152Y-97695550D02*
X109643057Y-97695550D01*
X109643057Y-97695550D02*
X109547819Y-97647931D01*
X109547819Y-97647931D02*
X109500200Y-97600312D01*
X109500200Y-97600312D02*
X109452580Y-97505074D01*
X109452580Y-97505074D02*
X109452580Y-97219360D01*
X109452580Y-97219360D02*
X109500200Y-97124122D01*
X109500200Y-97124122D02*
X109547819Y-97076503D01*
X111977580Y-96028884D02*
X112977580Y-96028884D01*
X112977580Y-96028884D02*
X112263295Y-96362217D01*
X112263295Y-96362217D02*
X112977580Y-96695550D01*
X112977580Y-96695550D02*
X111977580Y-96695550D01*
X112882342Y-97124122D02*
X112929961Y-97171741D01*
X112929961Y-97171741D02*
X112977580Y-97266979D01*
X112977580Y-97266979D02*
X112977580Y-97505074D01*
X112977580Y-97505074D02*
X112929961Y-97600312D01*
X112929961Y-97600312D02*
X112882342Y-97647931D01*
X112882342Y-97647931D02*
X112787104Y-97695550D01*
X112787104Y-97695550D02*
X112691866Y-97695550D01*
X112691866Y-97695550D02*
X112549009Y-97647931D01*
X112549009Y-97647931D02*
X111977580Y-97076503D01*
X111977580Y-97076503D02*
X111977580Y-97695550D01*
X114527580Y-96028884D02*
X115527580Y-96028884D01*
X115527580Y-96028884D02*
X114813295Y-96362217D01*
X114813295Y-96362217D02*
X115527580Y-96695550D01*
X115527580Y-96695550D02*
X114527580Y-96695550D01*
X114527580Y-97695550D02*
X114527580Y-97124122D01*
X114527580Y-97409836D02*
X115527580Y-97409836D01*
X115527580Y-97409836D02*
X115384723Y-97314598D01*
X115384723Y-97314598D02*
X115289485Y-97219360D01*
X115289485Y-97219360D02*
X115241866Y-97124122D01*
X117172819Y-96600312D02*
X117125200Y-96552693D01*
X117125200Y-96552693D02*
X117077580Y-96409836D01*
X117077580Y-96409836D02*
X117077580Y-96314598D01*
X117077580Y-96314598D02*
X117125200Y-96171741D01*
X117125200Y-96171741D02*
X117220438Y-96076503D01*
X117220438Y-96076503D02*
X117315676Y-96028884D01*
X117315676Y-96028884D02*
X117506152Y-95981265D01*
X117506152Y-95981265D02*
X117649009Y-95981265D01*
X117649009Y-95981265D02*
X117839485Y-96028884D01*
X117839485Y-96028884D02*
X117934723Y-96076503D01*
X117934723Y-96076503D02*
X118029961Y-96171741D01*
X118029961Y-96171741D02*
X118077580Y-96314598D01*
X118077580Y-96314598D02*
X118077580Y-96409836D01*
X118077580Y-96409836D02*
X118029961Y-96552693D01*
X118029961Y-96552693D02*
X117982342Y-96600312D01*
X118077580Y-97028884D02*
X117268057Y-97028884D01*
X117268057Y-97028884D02*
X117172819Y-97076503D01*
X117172819Y-97076503D02*
X117125200Y-97124122D01*
X117125200Y-97124122D02*
X117077580Y-97219360D01*
X117077580Y-97219360D02*
X117077580Y-97409836D01*
X117077580Y-97409836D02*
X117125200Y-97505074D01*
X117125200Y-97505074D02*
X117172819Y-97552693D01*
X117172819Y-97552693D02*
X117268057Y-97600312D01*
X117268057Y-97600312D02*
X118077580Y-97600312D01*
X117077580Y-98647931D02*
X117553771Y-98314598D01*
X117077580Y-98076503D02*
X118077580Y-98076503D01*
X118077580Y-98076503D02*
X118077580Y-98457455D01*
X118077580Y-98457455D02*
X118029961Y-98552693D01*
X118029961Y-98552693D02*
X117982342Y-98600312D01*
X117982342Y-98600312D02*
X117887104Y-98647931D01*
X117887104Y-98647931D02*
X117744247Y-98647931D01*
X117744247Y-98647931D02*
X117649009Y-98600312D01*
X117649009Y-98600312D02*
X117601390Y-98552693D01*
X117601390Y-98552693D02*
X117553771Y-98457455D01*
X117553771Y-98457455D02*
X117553771Y-98076503D01*
X120554961Y-96552693D02*
X120602580Y-96457455D01*
X120602580Y-96457455D02*
X120602580Y-96314598D01*
X120602580Y-96314598D02*
X120554961Y-96171741D01*
X120554961Y-96171741D02*
X120459723Y-96076503D01*
X120459723Y-96076503D02*
X120364485Y-96028884D01*
X120364485Y-96028884D02*
X120174009Y-95981265D01*
X120174009Y-95981265D02*
X120031152Y-95981265D01*
X120031152Y-95981265D02*
X119840676Y-96028884D01*
X119840676Y-96028884D02*
X119745438Y-96076503D01*
X119745438Y-96076503D02*
X119650200Y-96171741D01*
X119650200Y-96171741D02*
X119602580Y-96314598D01*
X119602580Y-96314598D02*
X119602580Y-96409836D01*
X119602580Y-96409836D02*
X119650200Y-96552693D01*
X119650200Y-96552693D02*
X119697819Y-96600312D01*
X119697819Y-96600312D02*
X120031152Y-96600312D01*
X120031152Y-96600312D02*
X120031152Y-96409836D01*
X119602580Y-97028884D02*
X120602580Y-97028884D01*
X120602580Y-97028884D02*
X119602580Y-97600312D01*
X119602580Y-97600312D02*
X120602580Y-97600312D01*
X119602580Y-98076503D02*
X120602580Y-98076503D01*
X120602580Y-98076503D02*
X120602580Y-98314598D01*
X120602580Y-98314598D02*
X120554961Y-98457455D01*
X120554961Y-98457455D02*
X120459723Y-98552693D01*
X120459723Y-98552693D02*
X120364485Y-98600312D01*
X120364485Y-98600312D02*
X120174009Y-98647931D01*
X120174009Y-98647931D02*
X120031152Y-98647931D01*
X120031152Y-98647931D02*
X119840676Y-98600312D01*
X119840676Y-98600312D02*
X119745438Y-98552693D01*
X119745438Y-98552693D02*
X119650200Y-98457455D01*
X119650200Y-98457455D02*
X119602580Y-98314598D01*
X119602580Y-98314598D02*
X119602580Y-98076503D01*
X123152580Y-95886027D02*
X123152580Y-96457455D01*
X122152580Y-96171741D02*
X123152580Y-96171741D01*
X122152580Y-97266979D02*
X122152580Y-96790789D01*
X122152580Y-96790789D02*
X123152580Y-96790789D01*
X122152580Y-97600313D02*
X123152580Y-97600313D01*
X123152580Y-97600313D02*
X122438295Y-97933646D01*
X122438295Y-97933646D02*
X123152580Y-98266979D01*
X123152580Y-98266979D02*
X122152580Y-98266979D01*
X125702580Y-96505074D02*
X125702580Y-96028884D01*
X125702580Y-96028884D02*
X125226390Y-95981265D01*
X125226390Y-95981265D02*
X125274009Y-96028884D01*
X125274009Y-96028884D02*
X125321628Y-96124122D01*
X125321628Y-96124122D02*
X125321628Y-96362217D01*
X125321628Y-96362217D02*
X125274009Y-96457455D01*
X125274009Y-96457455D02*
X125226390Y-96505074D01*
X125226390Y-96505074D02*
X125131152Y-96552693D01*
X125131152Y-96552693D02*
X124893057Y-96552693D01*
X124893057Y-96552693D02*
X124797819Y-96505074D01*
X124797819Y-96505074D02*
X124750200Y-96457455D01*
X124750200Y-96457455D02*
X124702580Y-96362217D01*
X124702580Y-96362217D02*
X124702580Y-96124122D01*
X124702580Y-96124122D02*
X124750200Y-96028884D01*
X124750200Y-96028884D02*
X124797819Y-95981265D01*
X125702580Y-96838408D02*
X124702580Y-97171741D01*
X124702580Y-97171741D02*
X125702580Y-97505074D01*
X96878884Y-112047419D02*
X96878884Y-111047419D01*
X96878884Y-111047419D02*
X97212217Y-111761704D01*
X97212217Y-111761704D02*
X97545550Y-111047419D01*
X97545550Y-111047419D02*
X97545550Y-112047419D01*
X98450312Y-111380752D02*
X98450312Y-112047419D01*
X98212217Y-110999800D02*
X97974122Y-111714085D01*
X97974122Y-111714085D02*
X98593169Y-111714085D01*
D12*
X166554819Y-134192857D02*
X166078628Y-134526190D01*
X166554819Y-134764285D02*
X165554819Y-134764285D01*
X165554819Y-134764285D02*
X165554819Y-134383333D01*
X165554819Y-134383333D02*
X165602438Y-134288095D01*
X165602438Y-134288095D02*
X165650057Y-134240476D01*
X165650057Y-134240476D02*
X165745295Y-134192857D01*
X165745295Y-134192857D02*
X165888152Y-134192857D01*
X165888152Y-134192857D02*
X165983390Y-134240476D01*
X165983390Y-134240476D02*
X166031009Y-134288095D01*
X166031009Y-134288095D02*
X166078628Y-134383333D01*
X166078628Y-134383333D02*
X166078628Y-134764285D01*
X165554819Y-133859523D02*
X166554819Y-133192857D01*
X165554819Y-133192857D02*
X166554819Y-133859523D01*
X166507200Y-132859523D02*
X166554819Y-132716666D01*
X166554819Y-132716666D02*
X166554819Y-132478571D01*
X166554819Y-132478571D02*
X166507200Y-132383333D01*
X166507200Y-132383333D02*
X166459580Y-132335714D01*
X166459580Y-132335714D02*
X166364342Y-132288095D01*
X166364342Y-132288095D02*
X166269104Y-132288095D01*
X166269104Y-132288095D02*
X166173866Y-132335714D01*
X166173866Y-132335714D02*
X166126247Y-132383333D01*
X166126247Y-132383333D02*
X166078628Y-132478571D01*
X166078628Y-132478571D02*
X166031009Y-132669047D01*
X166031009Y-132669047D02*
X165983390Y-132764285D01*
X165983390Y-132764285D02*
X165935771Y-132811904D01*
X165935771Y-132811904D02*
X165840533Y-132859523D01*
X165840533Y-132859523D02*
X165745295Y-132859523D01*
X165745295Y-132859523D02*
X165650057Y-132811904D01*
X165650057Y-132811904D02*
X165602438Y-132764285D01*
X165602438Y-132764285D02*
X165554819Y-132669047D01*
X165554819Y-132669047D02*
X165554819Y-132430952D01*
X165554819Y-132430952D02*
X165602438Y-132288095D01*
X166554819Y-131288095D02*
X166078628Y-131621428D01*
X166554819Y-131859523D02*
X165554819Y-131859523D01*
X165554819Y-131859523D02*
X165554819Y-131478571D01*
X165554819Y-131478571D02*
X165602438Y-131383333D01*
X165602438Y-131383333D02*
X165650057Y-131335714D01*
X165650057Y-131335714D02*
X165745295Y-131288095D01*
X165745295Y-131288095D02*
X165888152Y-131288095D01*
X165888152Y-131288095D02*
X165983390Y-131335714D01*
X165983390Y-131335714D02*
X166031009Y-131383333D01*
X166031009Y-131383333D02*
X166078628Y-131478571D01*
X166078628Y-131478571D02*
X166078628Y-131859523D01*
X113104819Y-129994047D02*
X112104819Y-129994047D01*
X112104819Y-129994047D02*
X112819104Y-129660714D01*
X112819104Y-129660714D02*
X112104819Y-129327381D01*
X112104819Y-129327381D02*
X113104819Y-129327381D01*
X113104819Y-128327381D02*
X113104819Y-128898809D01*
X113104819Y-128613095D02*
X112104819Y-128613095D01*
X112104819Y-128613095D02*
X112247676Y-128708333D01*
X112247676Y-128708333D02*
X112342914Y-128803571D01*
X112342914Y-128803571D02*
X112390533Y-128898809D01*
X114979819Y-130136904D02*
X114979819Y-129565476D01*
X115979819Y-129851190D02*
X114979819Y-129851190D01*
X115979819Y-128755952D02*
X115979819Y-129232142D01*
X115979819Y-129232142D02*
X114979819Y-129232142D01*
X115979819Y-128422618D02*
X114979819Y-128422618D01*
X114979819Y-128422618D02*
X115694104Y-128089285D01*
X115694104Y-128089285D02*
X114979819Y-127755952D01*
X114979819Y-127755952D02*
X115979819Y-127755952D01*
X108279819Y-129994047D02*
X107279819Y-129994047D01*
X107279819Y-129994047D02*
X107994104Y-129660714D01*
X107994104Y-129660714D02*
X107279819Y-129327381D01*
X107279819Y-129327381D02*
X108279819Y-129327381D01*
X107279819Y-128946428D02*
X107279819Y-128327381D01*
X107279819Y-128327381D02*
X107660771Y-128660714D01*
X107660771Y-128660714D02*
X107660771Y-128517857D01*
X107660771Y-128517857D02*
X107708390Y-128422619D01*
X107708390Y-128422619D02*
X107756009Y-128375000D01*
X107756009Y-128375000D02*
X107851247Y-128327381D01*
X107851247Y-128327381D02*
X108089342Y-128327381D01*
X108089342Y-128327381D02*
X108184580Y-128375000D01*
X108184580Y-128375000D02*
X108232200Y-128422619D01*
X108232200Y-128422619D02*
X108279819Y-128517857D01*
X108279819Y-128517857D02*
X108279819Y-128803571D01*
X108279819Y-128803571D02*
X108232200Y-128898809D01*
X108232200Y-128898809D02*
X108184580Y-128946428D01*
X105879819Y-129994047D02*
X104879819Y-129994047D01*
X104879819Y-129994047D02*
X105594104Y-129660714D01*
X105594104Y-129660714D02*
X104879819Y-129327381D01*
X104879819Y-129327381D02*
X105879819Y-129327381D01*
X105213152Y-128422619D02*
X105879819Y-128422619D01*
X104832200Y-128660714D02*
X105546485Y-128898809D01*
X105546485Y-128898809D02*
X105546485Y-128279762D01*
X110654819Y-129994047D02*
X109654819Y-129994047D01*
X109654819Y-129994047D02*
X110369104Y-129660714D01*
X110369104Y-129660714D02*
X109654819Y-129327381D01*
X109654819Y-129327381D02*
X110654819Y-129327381D01*
X109750057Y-128898809D02*
X109702438Y-128851190D01*
X109702438Y-128851190D02*
X109654819Y-128755952D01*
X109654819Y-128755952D02*
X109654819Y-128517857D01*
X109654819Y-128517857D02*
X109702438Y-128422619D01*
X109702438Y-128422619D02*
X109750057Y-128375000D01*
X109750057Y-128375000D02*
X109845295Y-128327381D01*
X109845295Y-128327381D02*
X109940533Y-128327381D01*
X109940533Y-128327381D02*
X110083390Y-128375000D01*
X110083390Y-128375000D02*
X110654819Y-128946428D01*
X110654819Y-128946428D02*
X110654819Y-128327381D01*
X123514819Y-123203333D02*
X124229104Y-123203333D01*
X124229104Y-123203333D02*
X124371961Y-123250952D01*
X124371961Y-123250952D02*
X124467200Y-123346190D01*
X124467200Y-123346190D02*
X124514819Y-123489047D01*
X124514819Y-123489047D02*
X124514819Y-123584285D01*
X124514819Y-122203333D02*
X124514819Y-122774761D01*
X124514819Y-122489047D02*
X123514819Y-122489047D01*
X123514819Y-122489047D02*
X123657676Y-122584285D01*
X123657676Y-122584285D02*
X123752914Y-122679523D01*
X123752914Y-122679523D02*
X123800533Y-122774761D01*
X162202438Y-134186904D02*
X162154819Y-134282142D01*
X162154819Y-134282142D02*
X162154819Y-134424999D01*
X162154819Y-134424999D02*
X162202438Y-134567856D01*
X162202438Y-134567856D02*
X162297676Y-134663094D01*
X162297676Y-134663094D02*
X162392914Y-134710713D01*
X162392914Y-134710713D02*
X162583390Y-134758332D01*
X162583390Y-134758332D02*
X162726247Y-134758332D01*
X162726247Y-134758332D02*
X162916723Y-134710713D01*
X162916723Y-134710713D02*
X163011961Y-134663094D01*
X163011961Y-134663094D02*
X163107200Y-134567856D01*
X163107200Y-134567856D02*
X163154819Y-134424999D01*
X163154819Y-134424999D02*
X163154819Y-134329761D01*
X163154819Y-134329761D02*
X163107200Y-134186904D01*
X163107200Y-134186904D02*
X163059580Y-134139285D01*
X163059580Y-134139285D02*
X162726247Y-134139285D01*
X162726247Y-134139285D02*
X162726247Y-134329761D01*
X163154819Y-133710713D02*
X162154819Y-133710713D01*
X162154819Y-133710713D02*
X163154819Y-133139285D01*
X163154819Y-133139285D02*
X162154819Y-133139285D01*
X163154819Y-132663094D02*
X162154819Y-132663094D01*
X162154819Y-132663094D02*
X162154819Y-132424999D01*
X162154819Y-132424999D02*
X162202438Y-132282142D01*
X162202438Y-132282142D02*
X162297676Y-132186904D01*
X162297676Y-132186904D02*
X162392914Y-132139285D01*
X162392914Y-132139285D02*
X162583390Y-132091666D01*
X162583390Y-132091666D02*
X162726247Y-132091666D01*
X162726247Y-132091666D02*
X162916723Y-132139285D01*
X162916723Y-132139285D02*
X163011961Y-132186904D01*
X163011961Y-132186904D02*
X163107200Y-132282142D01*
X163107200Y-132282142D02*
X163154819Y-132424999D01*
X163154819Y-132424999D02*
X163154819Y-132663094D01*
X100189580Y-117766666D02*
X100237200Y-117814285D01*
X100237200Y-117814285D02*
X100284819Y-117957142D01*
X100284819Y-117957142D02*
X100284819Y-118052380D01*
X100284819Y-118052380D02*
X100237200Y-118195237D01*
X100237200Y-118195237D02*
X100141961Y-118290475D01*
X100141961Y-118290475D02*
X100046723Y-118338094D01*
X100046723Y-118338094D02*
X99856247Y-118385713D01*
X99856247Y-118385713D02*
X99713390Y-118385713D01*
X99713390Y-118385713D02*
X99522914Y-118338094D01*
X99522914Y-118338094D02*
X99427676Y-118290475D01*
X99427676Y-118290475D02*
X99332438Y-118195237D01*
X99332438Y-118195237D02*
X99284819Y-118052380D01*
X99284819Y-118052380D02*
X99284819Y-117957142D01*
X99284819Y-117957142D02*
X99332438Y-117814285D01*
X99332438Y-117814285D02*
X99380057Y-117766666D01*
X99284819Y-117433332D02*
X99284819Y-116814285D01*
X99284819Y-116814285D02*
X99665771Y-117147618D01*
X99665771Y-117147618D02*
X99665771Y-117004761D01*
X99665771Y-117004761D02*
X99713390Y-116909523D01*
X99713390Y-116909523D02*
X99761009Y-116861904D01*
X99761009Y-116861904D02*
X99856247Y-116814285D01*
X99856247Y-116814285D02*
X100094342Y-116814285D01*
X100094342Y-116814285D02*
X100189580Y-116861904D01*
X100189580Y-116861904D02*
X100237200Y-116909523D01*
X100237200Y-116909523D02*
X100284819Y-117004761D01*
X100284819Y-117004761D02*
X100284819Y-117290475D01*
X100284819Y-117290475D02*
X100237200Y-117385713D01*
X100237200Y-117385713D02*
X100189580Y-117433332D01*
X156979819Y-129986904D02*
X156979819Y-129367857D01*
X156979819Y-129367857D02*
X157360771Y-129701190D01*
X157360771Y-129701190D02*
X157360771Y-129558333D01*
X157360771Y-129558333D02*
X157408390Y-129463095D01*
X157408390Y-129463095D02*
X157456009Y-129415476D01*
X157456009Y-129415476D02*
X157551247Y-129367857D01*
X157551247Y-129367857D02*
X157789342Y-129367857D01*
X157789342Y-129367857D02*
X157884580Y-129415476D01*
X157884580Y-129415476D02*
X157932200Y-129463095D01*
X157932200Y-129463095D02*
X157979819Y-129558333D01*
X157979819Y-129558333D02*
X157979819Y-129844047D01*
X157979819Y-129844047D02*
X157932200Y-129939285D01*
X157932200Y-129939285D02*
X157884580Y-129986904D01*
X156979819Y-129082142D02*
X157979819Y-128748809D01*
X157979819Y-128748809D02*
X156979819Y-128415476D01*
X156979819Y-128177380D02*
X156979819Y-127558333D01*
X156979819Y-127558333D02*
X157360771Y-127891666D01*
X157360771Y-127891666D02*
X157360771Y-127748809D01*
X157360771Y-127748809D02*
X157408390Y-127653571D01*
X157408390Y-127653571D02*
X157456009Y-127605952D01*
X157456009Y-127605952D02*
X157551247Y-127558333D01*
X157551247Y-127558333D02*
X157789342Y-127558333D01*
X157789342Y-127558333D02*
X157884580Y-127605952D01*
X157884580Y-127605952D02*
X157932200Y-127653571D01*
X157932200Y-127653571D02*
X157979819Y-127748809D01*
X157979819Y-127748809D02*
X157979819Y-128034523D01*
X157979819Y-128034523D02*
X157932200Y-128129761D01*
X157932200Y-128129761D02*
X157884580Y-128177380D01*
X137111905Y-134954819D02*
X137111905Y-133954819D01*
X137111905Y-133954819D02*
X137350000Y-133954819D01*
X137350000Y-133954819D02*
X137492857Y-134002438D01*
X137492857Y-134002438D02*
X137588095Y-134097676D01*
X137588095Y-134097676D02*
X137635714Y-134192914D01*
X137635714Y-134192914D02*
X137683333Y-134383390D01*
X137683333Y-134383390D02*
X137683333Y-134526247D01*
X137683333Y-134526247D02*
X137635714Y-134716723D01*
X137635714Y-134716723D02*
X137588095Y-134811961D01*
X137588095Y-134811961D02*
X137492857Y-134907200D01*
X137492857Y-134907200D02*
X137350000Y-134954819D01*
X137350000Y-134954819D02*
X137111905Y-134954819D01*
X138635714Y-134954819D02*
X138064286Y-134954819D01*
X138350000Y-134954819D02*
X138350000Y-133954819D01*
X138350000Y-133954819D02*
X138254762Y-134097676D01*
X138254762Y-134097676D02*
X138159524Y-134192914D01*
X138159524Y-134192914D02*
X138064286Y-134240533D01*
X97304819Y-123232142D02*
X96304819Y-123232142D01*
X96304819Y-123232142D02*
X97019104Y-122898809D01*
X97019104Y-122898809D02*
X96304819Y-122565476D01*
X96304819Y-122565476D02*
X97304819Y-122565476D01*
X97304819Y-122089285D02*
X96304819Y-122089285D01*
X96304819Y-122089285D02*
X96304819Y-121708333D01*
X96304819Y-121708333D02*
X96352438Y-121613095D01*
X96352438Y-121613095D02*
X96400057Y-121565476D01*
X96400057Y-121565476D02*
X96495295Y-121517857D01*
X96495295Y-121517857D02*
X96638152Y-121517857D01*
X96638152Y-121517857D02*
X96733390Y-121565476D01*
X96733390Y-121565476D02*
X96781009Y-121613095D01*
X96781009Y-121613095D02*
X96828628Y-121708333D01*
X96828628Y-121708333D02*
X96828628Y-122089285D01*
X96304819Y-121089285D02*
X97114342Y-121089285D01*
X97114342Y-121089285D02*
X97209580Y-121041666D01*
X97209580Y-121041666D02*
X97257200Y-120994047D01*
X97257200Y-120994047D02*
X97304819Y-120898809D01*
X97304819Y-120898809D02*
X97304819Y-120708333D01*
X97304819Y-120708333D02*
X97257200Y-120613095D01*
X97257200Y-120613095D02*
X97209580Y-120565476D01*
X97209580Y-120565476D02*
X97114342Y-120517857D01*
X97114342Y-120517857D02*
X96304819Y-120517857D01*
X104806009Y-99216666D02*
X104806009Y-98883333D01*
X105329819Y-98740476D02*
X105329819Y-99216666D01*
X105329819Y-99216666D02*
X104329819Y-99216666D01*
X104329819Y-99216666D02*
X104329819Y-98740476D01*
X105282200Y-98359523D02*
X105329819Y-98216666D01*
X105329819Y-98216666D02*
X105329819Y-97978571D01*
X105329819Y-97978571D02*
X105282200Y-97883333D01*
X105282200Y-97883333D02*
X105234580Y-97835714D01*
X105234580Y-97835714D02*
X105139342Y-97788095D01*
X105139342Y-97788095D02*
X105044104Y-97788095D01*
X105044104Y-97788095D02*
X104948866Y-97835714D01*
X104948866Y-97835714D02*
X104901247Y-97883333D01*
X104901247Y-97883333D02*
X104853628Y-97978571D01*
X104853628Y-97978571D02*
X104806009Y-98169047D01*
X104806009Y-98169047D02*
X104758390Y-98264285D01*
X104758390Y-98264285D02*
X104710771Y-98311904D01*
X104710771Y-98311904D02*
X104615533Y-98359523D01*
X104615533Y-98359523D02*
X104520295Y-98359523D01*
X104520295Y-98359523D02*
X104425057Y-98311904D01*
X104425057Y-98311904D02*
X104377438Y-98264285D01*
X104377438Y-98264285D02*
X104329819Y-98169047D01*
X104329819Y-98169047D02*
X104329819Y-97930952D01*
X104329819Y-97930952D02*
X104377438Y-97788095D01*
X105234580Y-96788095D02*
X105282200Y-96835714D01*
X105282200Y-96835714D02*
X105329819Y-96978571D01*
X105329819Y-96978571D02*
X105329819Y-97073809D01*
X105329819Y-97073809D02*
X105282200Y-97216666D01*
X105282200Y-97216666D02*
X105186961Y-97311904D01*
X105186961Y-97311904D02*
X105091723Y-97359523D01*
X105091723Y-97359523D02*
X104901247Y-97407142D01*
X104901247Y-97407142D02*
X104758390Y-97407142D01*
X104758390Y-97407142D02*
X104567914Y-97359523D01*
X104567914Y-97359523D02*
X104472676Y-97311904D01*
X104472676Y-97311904D02*
X104377438Y-97216666D01*
X104377438Y-97216666D02*
X104329819Y-97073809D01*
X104329819Y-97073809D02*
X104329819Y-96978571D01*
X104329819Y-96978571D02*
X104377438Y-96835714D01*
X104377438Y-96835714D02*
X104425057Y-96788095D01*
X105329819Y-95835714D02*
X105329819Y-96407142D01*
X105329819Y-96121428D02*
X104329819Y-96121428D01*
X104329819Y-96121428D02*
X104472676Y-96216666D01*
X104472676Y-96216666D02*
X104567914Y-96311904D01*
X104567914Y-96311904D02*
X104615533Y-96407142D01*
X165754819Y-98842857D02*
X165278628Y-99176190D01*
X165754819Y-99414285D02*
X164754819Y-99414285D01*
X164754819Y-99414285D02*
X164754819Y-99033333D01*
X164754819Y-99033333D02*
X164802438Y-98938095D01*
X164802438Y-98938095D02*
X164850057Y-98890476D01*
X164850057Y-98890476D02*
X164945295Y-98842857D01*
X164945295Y-98842857D02*
X165088152Y-98842857D01*
X165088152Y-98842857D02*
X165183390Y-98890476D01*
X165183390Y-98890476D02*
X165231009Y-98938095D01*
X165231009Y-98938095D02*
X165278628Y-99033333D01*
X165278628Y-99033333D02*
X165278628Y-99414285D01*
X164754819Y-98509523D02*
X165754819Y-97842857D01*
X164754819Y-97842857D02*
X165754819Y-98509523D01*
X165707200Y-97509523D02*
X165754819Y-97366666D01*
X165754819Y-97366666D02*
X165754819Y-97128571D01*
X165754819Y-97128571D02*
X165707200Y-97033333D01*
X165707200Y-97033333D02*
X165659580Y-96985714D01*
X165659580Y-96985714D02*
X165564342Y-96938095D01*
X165564342Y-96938095D02*
X165469104Y-96938095D01*
X165469104Y-96938095D02*
X165373866Y-96985714D01*
X165373866Y-96985714D02*
X165326247Y-97033333D01*
X165326247Y-97033333D02*
X165278628Y-97128571D01*
X165278628Y-97128571D02*
X165231009Y-97319047D01*
X165231009Y-97319047D02*
X165183390Y-97414285D01*
X165183390Y-97414285D02*
X165135771Y-97461904D01*
X165135771Y-97461904D02*
X165040533Y-97509523D01*
X165040533Y-97509523D02*
X164945295Y-97509523D01*
X164945295Y-97509523D02*
X164850057Y-97461904D01*
X164850057Y-97461904D02*
X164802438Y-97414285D01*
X164802438Y-97414285D02*
X164754819Y-97319047D01*
X164754819Y-97319047D02*
X164754819Y-97080952D01*
X164754819Y-97080952D02*
X164802438Y-96938095D01*
X165754819Y-95938095D02*
X165278628Y-96271428D01*
X165754819Y-96509523D02*
X164754819Y-96509523D01*
X164754819Y-96509523D02*
X164754819Y-96128571D01*
X164754819Y-96128571D02*
X164802438Y-96033333D01*
X164802438Y-96033333D02*
X164850057Y-95985714D01*
X164850057Y-95985714D02*
X164945295Y-95938095D01*
X164945295Y-95938095D02*
X165088152Y-95938095D01*
X165088152Y-95938095D02*
X165183390Y-95985714D01*
X165183390Y-95985714D02*
X165231009Y-96033333D01*
X165231009Y-96033333D02*
X165278628Y-96128571D01*
X165278628Y-96128571D02*
X165278628Y-96509523D01*
X138954819Y-129254166D02*
X138478628Y-129587499D01*
X138954819Y-129825594D02*
X137954819Y-129825594D01*
X137954819Y-129825594D02*
X137954819Y-129444642D01*
X137954819Y-129444642D02*
X138002438Y-129349404D01*
X138002438Y-129349404D02*
X138050057Y-129301785D01*
X138050057Y-129301785D02*
X138145295Y-129254166D01*
X138145295Y-129254166D02*
X138288152Y-129254166D01*
X138288152Y-129254166D02*
X138383390Y-129301785D01*
X138383390Y-129301785D02*
X138431009Y-129349404D01*
X138431009Y-129349404D02*
X138478628Y-129444642D01*
X138478628Y-129444642D02*
X138478628Y-129825594D01*
X138954819Y-128301785D02*
X138954819Y-128873213D01*
X138954819Y-128587499D02*
X137954819Y-128587499D01*
X137954819Y-128587499D02*
X138097676Y-128682737D01*
X138097676Y-128682737D02*
X138192914Y-128777975D01*
X138192914Y-128777975D02*
X138240533Y-128873213D01*
X125204819Y-129804761D02*
X124204819Y-129804761D01*
X125204819Y-129328571D02*
X124204819Y-129328571D01*
X124204819Y-129328571D02*
X125204819Y-128757143D01*
X125204819Y-128757143D02*
X124204819Y-128757143D01*
X124204819Y-128423809D02*
X124204819Y-127852381D01*
X125204819Y-128138095D02*
X124204819Y-128138095D01*
X188534819Y-116501666D02*
X188058628Y-116834999D01*
X188534819Y-117073094D02*
X187534819Y-117073094D01*
X187534819Y-117073094D02*
X187534819Y-116692142D01*
X187534819Y-116692142D02*
X187582438Y-116596904D01*
X187582438Y-116596904D02*
X187630057Y-116549285D01*
X187630057Y-116549285D02*
X187725295Y-116501666D01*
X187725295Y-116501666D02*
X187868152Y-116501666D01*
X187868152Y-116501666D02*
X187963390Y-116549285D01*
X187963390Y-116549285D02*
X188011009Y-116596904D01*
X188011009Y-116596904D02*
X188058628Y-116692142D01*
X188058628Y-116692142D02*
X188058628Y-117073094D01*
X187630057Y-116120713D02*
X187582438Y-116073094D01*
X187582438Y-116073094D02*
X187534819Y-115977856D01*
X187534819Y-115977856D02*
X187534819Y-115739761D01*
X187534819Y-115739761D02*
X187582438Y-115644523D01*
X187582438Y-115644523D02*
X187630057Y-115596904D01*
X187630057Y-115596904D02*
X187725295Y-115549285D01*
X187725295Y-115549285D02*
X187820533Y-115549285D01*
X187820533Y-115549285D02*
X187963390Y-115596904D01*
X187963390Y-115596904D02*
X188534819Y-116168332D01*
X188534819Y-116168332D02*
X188534819Y-115549285D01*
X98666667Y-108134819D02*
X98666667Y-107134819D01*
X98666667Y-107134819D02*
X99000000Y-107849104D01*
X99000000Y-107849104D02*
X99333333Y-107134819D01*
X99333333Y-107134819D02*
X99333333Y-108134819D01*
X99809524Y-108134819D02*
X99809524Y-107134819D01*
X99809524Y-107134819D02*
X100190476Y-107134819D01*
X100190476Y-107134819D02*
X100285714Y-107182438D01*
X100285714Y-107182438D02*
X100333333Y-107230057D01*
X100333333Y-107230057D02*
X100380952Y-107325295D01*
X100380952Y-107325295D02*
X100380952Y-107468152D01*
X100380952Y-107468152D02*
X100333333Y-107563390D01*
X100333333Y-107563390D02*
X100285714Y-107611009D01*
X100285714Y-107611009D02*
X100190476Y-107658628D01*
X100190476Y-107658628D02*
X99809524Y-107658628D01*
X100809524Y-107134819D02*
X100809524Y-107944342D01*
X100809524Y-107944342D02*
X100857143Y-108039580D01*
X100857143Y-108039580D02*
X100904762Y-108087200D01*
X100904762Y-108087200D02*
X101000000Y-108134819D01*
X101000000Y-108134819D02*
X101190476Y-108134819D01*
X101190476Y-108134819D02*
X101285714Y-108087200D01*
X101285714Y-108087200D02*
X101333333Y-108039580D01*
X101333333Y-108039580D02*
X101380952Y-107944342D01*
X101380952Y-107944342D02*
X101380952Y-107134819D01*
X102380952Y-108134819D02*
X101809524Y-108134819D01*
X102095238Y-108134819D02*
X102095238Y-107134819D01*
X102095238Y-107134819D02*
X102000000Y-107277676D01*
X102000000Y-107277676D02*
X101904762Y-107372914D01*
X101904762Y-107372914D02*
X101809524Y-107420533D01*
X187229819Y-109333333D02*
X187944104Y-109333333D01*
X187944104Y-109333333D02*
X188086961Y-109380952D01*
X188086961Y-109380952D02*
X188182200Y-109476190D01*
X188182200Y-109476190D02*
X188229819Y-109619047D01*
X188229819Y-109619047D02*
X188229819Y-109714285D01*
X187325057Y-108904761D02*
X187277438Y-108857142D01*
X187277438Y-108857142D02*
X187229819Y-108761904D01*
X187229819Y-108761904D02*
X187229819Y-108523809D01*
X187229819Y-108523809D02*
X187277438Y-108428571D01*
X187277438Y-108428571D02*
X187325057Y-108380952D01*
X187325057Y-108380952D02*
X187420295Y-108333333D01*
X187420295Y-108333333D02*
X187515533Y-108333333D01*
X187515533Y-108333333D02*
X187658390Y-108380952D01*
X187658390Y-108380952D02*
X188229819Y-108952380D01*
X188229819Y-108952380D02*
X188229819Y-108333333D01*
X129713095Y-127879819D02*
X129713095Y-126879819D01*
X129713095Y-127356009D02*
X130284523Y-127356009D01*
X130284523Y-127879819D02*
X130284523Y-126879819D01*
X130713095Y-126975057D02*
X130760714Y-126927438D01*
X130760714Y-126927438D02*
X130855952Y-126879819D01*
X130855952Y-126879819D02*
X131094047Y-126879819D01*
X131094047Y-126879819D02*
X131189285Y-126927438D01*
X131189285Y-126927438D02*
X131236904Y-126975057D01*
X131236904Y-126975057D02*
X131284523Y-127070295D01*
X131284523Y-127070295D02*
X131284523Y-127165533D01*
X131284523Y-127165533D02*
X131236904Y-127308390D01*
X131236904Y-127308390D02*
X130665476Y-127879819D01*
X130665476Y-127879819D02*
X131284523Y-127879819D01*
X181738095Y-127929819D02*
X181738095Y-126929819D01*
X181738095Y-127406009D02*
X182309523Y-127406009D01*
X182309523Y-127929819D02*
X182309523Y-126929819D01*
X183261904Y-126929819D02*
X182785714Y-126929819D01*
X182785714Y-126929819D02*
X182738095Y-127406009D01*
X182738095Y-127406009D02*
X182785714Y-127358390D01*
X182785714Y-127358390D02*
X182880952Y-127310771D01*
X182880952Y-127310771D02*
X183119047Y-127310771D01*
X183119047Y-127310771D02*
X183214285Y-127358390D01*
X183214285Y-127358390D02*
X183261904Y-127406009D01*
X183261904Y-127406009D02*
X183309523Y-127501247D01*
X183309523Y-127501247D02*
X183309523Y-127739342D01*
X183309523Y-127739342D02*
X183261904Y-127834580D01*
X183261904Y-127834580D02*
X183214285Y-127882200D01*
X183214285Y-127882200D02*
X183119047Y-127929819D01*
X183119047Y-127929819D02*
X182880952Y-127929819D01*
X182880952Y-127929819D02*
X182785714Y-127882200D01*
X182785714Y-127882200D02*
X182738095Y-127834580D01*
X188504819Y-112836666D02*
X188028628Y-113169999D01*
X188504819Y-113408094D02*
X187504819Y-113408094D01*
X187504819Y-113408094D02*
X187504819Y-113027142D01*
X187504819Y-113027142D02*
X187552438Y-112931904D01*
X187552438Y-112931904D02*
X187600057Y-112884285D01*
X187600057Y-112884285D02*
X187695295Y-112836666D01*
X187695295Y-112836666D02*
X187838152Y-112836666D01*
X187838152Y-112836666D02*
X187933390Y-112884285D01*
X187933390Y-112884285D02*
X187981009Y-112931904D01*
X187981009Y-112931904D02*
X188028628Y-113027142D01*
X188028628Y-113027142D02*
X188028628Y-113408094D01*
X187504819Y-112503332D02*
X187504819Y-111884285D01*
X187504819Y-111884285D02*
X187885771Y-112217618D01*
X187885771Y-112217618D02*
X187885771Y-112074761D01*
X187885771Y-112074761D02*
X187933390Y-111979523D01*
X187933390Y-111979523D02*
X187981009Y-111931904D01*
X187981009Y-111931904D02*
X188076247Y-111884285D01*
X188076247Y-111884285D02*
X188314342Y-111884285D01*
X188314342Y-111884285D02*
X188409580Y-111931904D01*
X188409580Y-111931904D02*
X188457200Y-111979523D01*
X188457200Y-111979523D02*
X188504819Y-112074761D01*
X188504819Y-112074761D02*
X188504819Y-112360475D01*
X188504819Y-112360475D02*
X188457200Y-112455713D01*
X188457200Y-112455713D02*
X188409580Y-112503332D01*
X151288095Y-97454819D02*
X151288095Y-96454819D01*
X151288095Y-96931009D02*
X151859523Y-96931009D01*
X151859523Y-97454819D02*
X151859523Y-96454819D01*
X152478571Y-96883390D02*
X152383333Y-96835771D01*
X152383333Y-96835771D02*
X152335714Y-96788152D01*
X152335714Y-96788152D02*
X152288095Y-96692914D01*
X152288095Y-96692914D02*
X152288095Y-96645295D01*
X152288095Y-96645295D02*
X152335714Y-96550057D01*
X152335714Y-96550057D02*
X152383333Y-96502438D01*
X152383333Y-96502438D02*
X152478571Y-96454819D01*
X152478571Y-96454819D02*
X152669047Y-96454819D01*
X152669047Y-96454819D02*
X152764285Y-96502438D01*
X152764285Y-96502438D02*
X152811904Y-96550057D01*
X152811904Y-96550057D02*
X152859523Y-96645295D01*
X152859523Y-96645295D02*
X152859523Y-96692914D01*
X152859523Y-96692914D02*
X152811904Y-96788152D01*
X152811904Y-96788152D02*
X152764285Y-96835771D01*
X152764285Y-96835771D02*
X152669047Y-96883390D01*
X152669047Y-96883390D02*
X152478571Y-96883390D01*
X152478571Y-96883390D02*
X152383333Y-96931009D01*
X152383333Y-96931009D02*
X152335714Y-96978628D01*
X152335714Y-96978628D02*
X152288095Y-97073866D01*
X152288095Y-97073866D02*
X152288095Y-97264342D01*
X152288095Y-97264342D02*
X152335714Y-97359580D01*
X152335714Y-97359580D02*
X152383333Y-97407200D01*
X152383333Y-97407200D02*
X152478571Y-97454819D01*
X152478571Y-97454819D02*
X152669047Y-97454819D01*
X152669047Y-97454819D02*
X152764285Y-97407200D01*
X152764285Y-97407200D02*
X152811904Y-97359580D01*
X152811904Y-97359580D02*
X152859523Y-97264342D01*
X152859523Y-97264342D02*
X152859523Y-97073866D01*
X152859523Y-97073866D02*
X152811904Y-96978628D01*
X152811904Y-96978628D02*
X152764285Y-96931009D01*
X152764285Y-96931009D02*
X152669047Y-96883390D01*
X94133333Y-109131009D02*
X94466666Y-109131009D01*
X94609523Y-109654819D02*
X94133333Y-109654819D01*
X94133333Y-109654819D02*
X94133333Y-108654819D01*
X94133333Y-108654819D02*
X94609523Y-108654819D01*
X94990476Y-109607200D02*
X95133333Y-109654819D01*
X95133333Y-109654819D02*
X95371428Y-109654819D01*
X95371428Y-109654819D02*
X95466666Y-109607200D01*
X95466666Y-109607200D02*
X95514285Y-109559580D01*
X95514285Y-109559580D02*
X95561904Y-109464342D01*
X95561904Y-109464342D02*
X95561904Y-109369104D01*
X95561904Y-109369104D02*
X95514285Y-109273866D01*
X95514285Y-109273866D02*
X95466666Y-109226247D01*
X95466666Y-109226247D02*
X95371428Y-109178628D01*
X95371428Y-109178628D02*
X95180952Y-109131009D01*
X95180952Y-109131009D02*
X95085714Y-109083390D01*
X95085714Y-109083390D02*
X95038095Y-109035771D01*
X95038095Y-109035771D02*
X94990476Y-108940533D01*
X94990476Y-108940533D02*
X94990476Y-108845295D01*
X94990476Y-108845295D02*
X95038095Y-108750057D01*
X95038095Y-108750057D02*
X95085714Y-108702438D01*
X95085714Y-108702438D02*
X95180952Y-108654819D01*
X95180952Y-108654819D02*
X95419047Y-108654819D01*
X95419047Y-108654819D02*
X95561904Y-108702438D01*
X96561904Y-109559580D02*
X96514285Y-109607200D01*
X96514285Y-109607200D02*
X96371428Y-109654819D01*
X96371428Y-109654819D02*
X96276190Y-109654819D01*
X96276190Y-109654819D02*
X96133333Y-109607200D01*
X96133333Y-109607200D02*
X96038095Y-109511961D01*
X96038095Y-109511961D02*
X95990476Y-109416723D01*
X95990476Y-109416723D02*
X95942857Y-109226247D01*
X95942857Y-109226247D02*
X95942857Y-109083390D01*
X95942857Y-109083390D02*
X95990476Y-108892914D01*
X95990476Y-108892914D02*
X96038095Y-108797676D01*
X96038095Y-108797676D02*
X96133333Y-108702438D01*
X96133333Y-108702438D02*
X96276190Y-108654819D01*
X96276190Y-108654819D02*
X96371428Y-108654819D01*
X96371428Y-108654819D02*
X96514285Y-108702438D01*
X96514285Y-108702438D02*
X96561904Y-108750057D01*
X96942857Y-108750057D02*
X96990476Y-108702438D01*
X96990476Y-108702438D02*
X97085714Y-108654819D01*
X97085714Y-108654819D02*
X97323809Y-108654819D01*
X97323809Y-108654819D02*
X97419047Y-108702438D01*
X97419047Y-108702438D02*
X97466666Y-108750057D01*
X97466666Y-108750057D02*
X97514285Y-108845295D01*
X97514285Y-108845295D02*
X97514285Y-108940533D01*
X97514285Y-108940533D02*
X97466666Y-109083390D01*
X97466666Y-109083390D02*
X96895238Y-109654819D01*
X96895238Y-109654819D02*
X97514285Y-109654819D01*
X129638095Y-97529819D02*
X129638095Y-96529819D01*
X129638095Y-97006009D02*
X130209523Y-97006009D01*
X130209523Y-97529819D02*
X130209523Y-96529819D01*
X130590476Y-96529819D02*
X131257142Y-96529819D01*
X131257142Y-96529819D02*
X130828571Y-97529819D01*
X151263095Y-127804819D02*
X151263095Y-126804819D01*
X151263095Y-127281009D02*
X151834523Y-127281009D01*
X151834523Y-127804819D02*
X151834523Y-126804819D01*
X152739285Y-127138152D02*
X152739285Y-127804819D01*
X152501190Y-126757200D02*
X152263095Y-127471485D01*
X152263095Y-127471485D02*
X152882142Y-127471485D01*
X157932200Y-104665475D02*
X157979819Y-104522618D01*
X157979819Y-104522618D02*
X157979819Y-104284523D01*
X157979819Y-104284523D02*
X157932200Y-104189285D01*
X157932200Y-104189285D02*
X157884580Y-104141666D01*
X157884580Y-104141666D02*
X157789342Y-104094047D01*
X157789342Y-104094047D02*
X157694104Y-104094047D01*
X157694104Y-104094047D02*
X157598866Y-104141666D01*
X157598866Y-104141666D02*
X157551247Y-104189285D01*
X157551247Y-104189285D02*
X157503628Y-104284523D01*
X157503628Y-104284523D02*
X157456009Y-104474999D01*
X157456009Y-104474999D02*
X157408390Y-104570237D01*
X157408390Y-104570237D02*
X157360771Y-104617856D01*
X157360771Y-104617856D02*
X157265533Y-104665475D01*
X157265533Y-104665475D02*
X157170295Y-104665475D01*
X157170295Y-104665475D02*
X157075057Y-104617856D01*
X157075057Y-104617856D02*
X157027438Y-104570237D01*
X157027438Y-104570237D02*
X156979819Y-104474999D01*
X156979819Y-104474999D02*
X156979819Y-104236904D01*
X156979819Y-104236904D02*
X157027438Y-104094047D01*
X157979819Y-103665475D02*
X156979819Y-103665475D01*
X156979819Y-103665475D02*
X156979819Y-103284523D01*
X156979819Y-103284523D02*
X157027438Y-103189285D01*
X157027438Y-103189285D02*
X157075057Y-103141666D01*
X157075057Y-103141666D02*
X157170295Y-103094047D01*
X157170295Y-103094047D02*
X157313152Y-103094047D01*
X157313152Y-103094047D02*
X157408390Y-103141666D01*
X157408390Y-103141666D02*
X157456009Y-103189285D01*
X157456009Y-103189285D02*
X157503628Y-103284523D01*
X157503628Y-103284523D02*
X157503628Y-103665475D01*
X156979819Y-102474999D02*
X156979819Y-102284523D01*
X156979819Y-102284523D02*
X157027438Y-102189285D01*
X157027438Y-102189285D02*
X157122676Y-102094047D01*
X157122676Y-102094047D02*
X157313152Y-102046428D01*
X157313152Y-102046428D02*
X157646485Y-102046428D01*
X157646485Y-102046428D02*
X157836961Y-102094047D01*
X157836961Y-102094047D02*
X157932200Y-102189285D01*
X157932200Y-102189285D02*
X157979819Y-102284523D01*
X157979819Y-102284523D02*
X157979819Y-102474999D01*
X157979819Y-102474999D02*
X157932200Y-102570237D01*
X157932200Y-102570237D02*
X157836961Y-102665475D01*
X157836961Y-102665475D02*
X157646485Y-102713094D01*
X157646485Y-102713094D02*
X157313152Y-102713094D01*
X157313152Y-102713094D02*
X157122676Y-102665475D01*
X157122676Y-102665475D02*
X157027438Y-102570237D01*
X157027438Y-102570237D02*
X156979819Y-102474999D01*
X157979819Y-101046428D02*
X157503628Y-101379761D01*
X157979819Y-101617856D02*
X156979819Y-101617856D01*
X156979819Y-101617856D02*
X156979819Y-101236904D01*
X156979819Y-101236904D02*
X157027438Y-101141666D01*
X157027438Y-101141666D02*
X157075057Y-101094047D01*
X157075057Y-101094047D02*
X157170295Y-101046428D01*
X157170295Y-101046428D02*
X157313152Y-101046428D01*
X157313152Y-101046428D02*
X157408390Y-101094047D01*
X157408390Y-101094047D02*
X157456009Y-101141666D01*
X157456009Y-101141666D02*
X157503628Y-101236904D01*
X157503628Y-101236904D02*
X157503628Y-101617856D01*
X156979819Y-100760713D02*
X156979819Y-100189285D01*
X157979819Y-100474999D02*
X156979819Y-100474999D01*
X118716667Y-108124819D02*
X118716667Y-107124819D01*
X118716667Y-107124819D02*
X119050000Y-107839104D01*
X119050000Y-107839104D02*
X119383333Y-107124819D01*
X119383333Y-107124819D02*
X119383333Y-108124819D01*
X119859524Y-108124819D02*
X119859524Y-107124819D01*
X119859524Y-107124819D02*
X120240476Y-107124819D01*
X120240476Y-107124819D02*
X120335714Y-107172438D01*
X120335714Y-107172438D02*
X120383333Y-107220057D01*
X120383333Y-107220057D02*
X120430952Y-107315295D01*
X120430952Y-107315295D02*
X120430952Y-107458152D01*
X120430952Y-107458152D02*
X120383333Y-107553390D01*
X120383333Y-107553390D02*
X120335714Y-107601009D01*
X120335714Y-107601009D02*
X120240476Y-107648628D01*
X120240476Y-107648628D02*
X119859524Y-107648628D01*
X120859524Y-107124819D02*
X120859524Y-107934342D01*
X120859524Y-107934342D02*
X120907143Y-108029580D01*
X120907143Y-108029580D02*
X120954762Y-108077200D01*
X120954762Y-108077200D02*
X121050000Y-108124819D01*
X121050000Y-108124819D02*
X121240476Y-108124819D01*
X121240476Y-108124819D02*
X121335714Y-108077200D01*
X121335714Y-108077200D02*
X121383333Y-108029580D01*
X121383333Y-108029580D02*
X121430952Y-107934342D01*
X121430952Y-107934342D02*
X121430952Y-107124819D01*
X121859524Y-107220057D02*
X121907143Y-107172438D01*
X121907143Y-107172438D02*
X122002381Y-107124819D01*
X122002381Y-107124819D02*
X122240476Y-107124819D01*
X122240476Y-107124819D02*
X122335714Y-107172438D01*
X122335714Y-107172438D02*
X122383333Y-107220057D01*
X122383333Y-107220057D02*
X122430952Y-107315295D01*
X122430952Y-107315295D02*
X122430952Y-107410533D01*
X122430952Y-107410533D02*
X122383333Y-107553390D01*
X122383333Y-107553390D02*
X121811905Y-108124819D01*
X121811905Y-108124819D02*
X122430952Y-108124819D01*
X99313095Y-97404819D02*
X99313095Y-96404819D01*
X99313095Y-96881009D02*
X99884523Y-96881009D01*
X99884523Y-97404819D02*
X99884523Y-96404819D01*
X100789285Y-96404819D02*
X100598809Y-96404819D01*
X100598809Y-96404819D02*
X100503571Y-96452438D01*
X100503571Y-96452438D02*
X100455952Y-96500057D01*
X100455952Y-96500057D02*
X100360714Y-96642914D01*
X100360714Y-96642914D02*
X100313095Y-96833390D01*
X100313095Y-96833390D02*
X100313095Y-97214342D01*
X100313095Y-97214342D02*
X100360714Y-97309580D01*
X100360714Y-97309580D02*
X100408333Y-97357200D01*
X100408333Y-97357200D02*
X100503571Y-97404819D01*
X100503571Y-97404819D02*
X100694047Y-97404819D01*
X100694047Y-97404819D02*
X100789285Y-97357200D01*
X100789285Y-97357200D02*
X100836904Y-97309580D01*
X100836904Y-97309580D02*
X100884523Y-97214342D01*
X100884523Y-97214342D02*
X100884523Y-96976247D01*
X100884523Y-96976247D02*
X100836904Y-96881009D01*
X100836904Y-96881009D02*
X100789285Y-96833390D01*
X100789285Y-96833390D02*
X100694047Y-96785771D01*
X100694047Y-96785771D02*
X100503571Y-96785771D01*
X100503571Y-96785771D02*
X100408333Y-96833390D01*
X100408333Y-96833390D02*
X100360714Y-96881009D01*
X100360714Y-96881009D02*
X100313095Y-96976247D01*
X125643333Y-105769580D02*
X125595714Y-105817200D01*
X125595714Y-105817200D02*
X125452857Y-105864819D01*
X125452857Y-105864819D02*
X125357619Y-105864819D01*
X125357619Y-105864819D02*
X125214762Y-105817200D01*
X125214762Y-105817200D02*
X125119524Y-105721961D01*
X125119524Y-105721961D02*
X125071905Y-105626723D01*
X125071905Y-105626723D02*
X125024286Y-105436247D01*
X125024286Y-105436247D02*
X125024286Y-105293390D01*
X125024286Y-105293390D02*
X125071905Y-105102914D01*
X125071905Y-105102914D02*
X125119524Y-105007676D01*
X125119524Y-105007676D02*
X125214762Y-104912438D01*
X125214762Y-104912438D02*
X125357619Y-104864819D01*
X125357619Y-104864819D02*
X125452857Y-104864819D01*
X125452857Y-104864819D02*
X125595714Y-104912438D01*
X125595714Y-104912438D02*
X125643333Y-104960057D01*
X126024286Y-104960057D02*
X126071905Y-104912438D01*
X126071905Y-104912438D02*
X126167143Y-104864819D01*
X126167143Y-104864819D02*
X126405238Y-104864819D01*
X126405238Y-104864819D02*
X126500476Y-104912438D01*
X126500476Y-104912438D02*
X126548095Y-104960057D01*
X126548095Y-104960057D02*
X126595714Y-105055295D01*
X126595714Y-105055295D02*
X126595714Y-105150533D01*
X126595714Y-105150533D02*
X126548095Y-105293390D01*
X126548095Y-105293390D02*
X125976667Y-105864819D01*
X125976667Y-105864819D02*
X126595714Y-105864819D01*
X136482200Y-103815475D02*
X136529819Y-103672618D01*
X136529819Y-103672618D02*
X136529819Y-103434523D01*
X136529819Y-103434523D02*
X136482200Y-103339285D01*
X136482200Y-103339285D02*
X136434580Y-103291666D01*
X136434580Y-103291666D02*
X136339342Y-103244047D01*
X136339342Y-103244047D02*
X136244104Y-103244047D01*
X136244104Y-103244047D02*
X136148866Y-103291666D01*
X136148866Y-103291666D02*
X136101247Y-103339285D01*
X136101247Y-103339285D02*
X136053628Y-103434523D01*
X136053628Y-103434523D02*
X136006009Y-103624999D01*
X136006009Y-103624999D02*
X135958390Y-103720237D01*
X135958390Y-103720237D02*
X135910771Y-103767856D01*
X135910771Y-103767856D02*
X135815533Y-103815475D01*
X135815533Y-103815475D02*
X135720295Y-103815475D01*
X135720295Y-103815475D02*
X135625057Y-103767856D01*
X135625057Y-103767856D02*
X135577438Y-103720237D01*
X135577438Y-103720237D02*
X135529819Y-103624999D01*
X135529819Y-103624999D02*
X135529819Y-103386904D01*
X135529819Y-103386904D02*
X135577438Y-103244047D01*
X136434580Y-102244047D02*
X136482200Y-102291666D01*
X136482200Y-102291666D02*
X136529819Y-102434523D01*
X136529819Y-102434523D02*
X136529819Y-102529761D01*
X136529819Y-102529761D02*
X136482200Y-102672618D01*
X136482200Y-102672618D02*
X136386961Y-102767856D01*
X136386961Y-102767856D02*
X136291723Y-102815475D01*
X136291723Y-102815475D02*
X136101247Y-102863094D01*
X136101247Y-102863094D02*
X135958390Y-102863094D01*
X135958390Y-102863094D02*
X135767914Y-102815475D01*
X135767914Y-102815475D02*
X135672676Y-102767856D01*
X135672676Y-102767856D02*
X135577438Y-102672618D01*
X135577438Y-102672618D02*
X135529819Y-102529761D01*
X135529819Y-102529761D02*
X135529819Y-102434523D01*
X135529819Y-102434523D02*
X135577438Y-102291666D01*
X135577438Y-102291666D02*
X135625057Y-102244047D01*
X136529819Y-101339285D02*
X136529819Y-101815475D01*
X136529819Y-101815475D02*
X135529819Y-101815475D01*
X136529819Y-101005951D02*
X135529819Y-101005951D01*
X136529819Y-100434523D02*
X135958390Y-100863094D01*
X135529819Y-100434523D02*
X136101247Y-101005951D01*
X122732200Y-129886904D02*
X122779819Y-129744047D01*
X122779819Y-129744047D02*
X122779819Y-129505952D01*
X122779819Y-129505952D02*
X122732200Y-129410714D01*
X122732200Y-129410714D02*
X122684580Y-129363095D01*
X122684580Y-129363095D02*
X122589342Y-129315476D01*
X122589342Y-129315476D02*
X122494104Y-129315476D01*
X122494104Y-129315476D02*
X122398866Y-129363095D01*
X122398866Y-129363095D02*
X122351247Y-129410714D01*
X122351247Y-129410714D02*
X122303628Y-129505952D01*
X122303628Y-129505952D02*
X122256009Y-129696428D01*
X122256009Y-129696428D02*
X122208390Y-129791666D01*
X122208390Y-129791666D02*
X122160771Y-129839285D01*
X122160771Y-129839285D02*
X122065533Y-129886904D01*
X122065533Y-129886904D02*
X121970295Y-129886904D01*
X121970295Y-129886904D02*
X121875057Y-129839285D01*
X121875057Y-129839285D02*
X121827438Y-129791666D01*
X121827438Y-129791666D02*
X121779819Y-129696428D01*
X121779819Y-129696428D02*
X121779819Y-129458333D01*
X121779819Y-129458333D02*
X121827438Y-129315476D01*
X122779819Y-128886904D02*
X121779819Y-128886904D01*
X121779819Y-128886904D02*
X121779819Y-128648809D01*
X121779819Y-128648809D02*
X121827438Y-128505952D01*
X121827438Y-128505952D02*
X121922676Y-128410714D01*
X121922676Y-128410714D02*
X122017914Y-128363095D01*
X122017914Y-128363095D02*
X122208390Y-128315476D01*
X122208390Y-128315476D02*
X122351247Y-128315476D01*
X122351247Y-128315476D02*
X122541723Y-128363095D01*
X122541723Y-128363095D02*
X122636961Y-128410714D01*
X122636961Y-128410714D02*
X122732200Y-128505952D01*
X122732200Y-128505952D02*
X122779819Y-128648809D01*
X122779819Y-128648809D02*
X122779819Y-128886904D01*
X121779819Y-127696428D02*
X121779819Y-127601190D01*
X121779819Y-127601190D02*
X121827438Y-127505952D01*
X121827438Y-127505952D02*
X121875057Y-127458333D01*
X121875057Y-127458333D02*
X121970295Y-127410714D01*
X121970295Y-127410714D02*
X122160771Y-127363095D01*
X122160771Y-127363095D02*
X122398866Y-127363095D01*
X122398866Y-127363095D02*
X122589342Y-127410714D01*
X122589342Y-127410714D02*
X122684580Y-127458333D01*
X122684580Y-127458333D02*
X122732200Y-127505952D01*
X122732200Y-127505952D02*
X122779819Y-127601190D01*
X122779819Y-127601190D02*
X122779819Y-127696428D01*
X122779819Y-127696428D02*
X122732200Y-127791666D01*
X122732200Y-127791666D02*
X122684580Y-127839285D01*
X122684580Y-127839285D02*
X122589342Y-127886904D01*
X122589342Y-127886904D02*
X122398866Y-127934523D01*
X122398866Y-127934523D02*
X122160771Y-127934523D01*
X122160771Y-127934523D02*
X121970295Y-127886904D01*
X121970295Y-127886904D02*
X121875057Y-127839285D01*
X121875057Y-127839285D02*
X121827438Y-127791666D01*
X121827438Y-127791666D02*
X121779819Y-127696428D01*
X159704819Y-129415476D02*
X159704819Y-129891666D01*
X159704819Y-129891666D02*
X160181009Y-129939285D01*
X160181009Y-129939285D02*
X160133390Y-129891666D01*
X160133390Y-129891666D02*
X160085771Y-129796428D01*
X160085771Y-129796428D02*
X160085771Y-129558333D01*
X160085771Y-129558333D02*
X160133390Y-129463095D01*
X160133390Y-129463095D02*
X160181009Y-129415476D01*
X160181009Y-129415476D02*
X160276247Y-129367857D01*
X160276247Y-129367857D02*
X160514342Y-129367857D01*
X160514342Y-129367857D02*
X160609580Y-129415476D01*
X160609580Y-129415476D02*
X160657200Y-129463095D01*
X160657200Y-129463095D02*
X160704819Y-129558333D01*
X160704819Y-129558333D02*
X160704819Y-129796428D01*
X160704819Y-129796428D02*
X160657200Y-129891666D01*
X160657200Y-129891666D02*
X160609580Y-129939285D01*
X159704819Y-129082142D02*
X160704819Y-128748809D01*
X160704819Y-128748809D02*
X159704819Y-128415476D01*
X181713095Y-97329819D02*
X181713095Y-96329819D01*
X181713095Y-96806009D02*
X182284523Y-96806009D01*
X182284523Y-97329819D02*
X182284523Y-96329819D01*
X182665476Y-96329819D02*
X183284523Y-96329819D01*
X183284523Y-96329819D02*
X182951190Y-96710771D01*
X182951190Y-96710771D02*
X183094047Y-96710771D01*
X183094047Y-96710771D02*
X183189285Y-96758390D01*
X183189285Y-96758390D02*
X183236904Y-96806009D01*
X183236904Y-96806009D02*
X183284523Y-96901247D01*
X183284523Y-96901247D02*
X183284523Y-97139342D01*
X183284523Y-97139342D02*
X183236904Y-97234580D01*
X183236904Y-97234580D02*
X183189285Y-97282200D01*
X183189285Y-97282200D02*
X183094047Y-97329819D01*
X183094047Y-97329819D02*
X182808333Y-97329819D01*
X182808333Y-97329819D02*
X182713095Y-97282200D01*
X182713095Y-97282200D02*
X182665476Y-97234580D01*
X120307200Y-129873808D02*
X120354819Y-129730951D01*
X120354819Y-129730951D02*
X120354819Y-129492856D01*
X120354819Y-129492856D02*
X120307200Y-129397618D01*
X120307200Y-129397618D02*
X120259580Y-129349999D01*
X120259580Y-129349999D02*
X120164342Y-129302380D01*
X120164342Y-129302380D02*
X120069104Y-129302380D01*
X120069104Y-129302380D02*
X119973866Y-129349999D01*
X119973866Y-129349999D02*
X119926247Y-129397618D01*
X119926247Y-129397618D02*
X119878628Y-129492856D01*
X119878628Y-129492856D02*
X119831009Y-129683332D01*
X119831009Y-129683332D02*
X119783390Y-129778570D01*
X119783390Y-129778570D02*
X119735771Y-129826189D01*
X119735771Y-129826189D02*
X119640533Y-129873808D01*
X119640533Y-129873808D02*
X119545295Y-129873808D01*
X119545295Y-129873808D02*
X119450057Y-129826189D01*
X119450057Y-129826189D02*
X119402438Y-129778570D01*
X119402438Y-129778570D02*
X119354819Y-129683332D01*
X119354819Y-129683332D02*
X119354819Y-129445237D01*
X119354819Y-129445237D02*
X119402438Y-129302380D01*
X120354819Y-128873808D02*
X119354819Y-128873808D01*
X119354819Y-128873808D02*
X119354819Y-128635713D01*
X119354819Y-128635713D02*
X119402438Y-128492856D01*
X119402438Y-128492856D02*
X119497676Y-128397618D01*
X119497676Y-128397618D02*
X119592914Y-128349999D01*
X119592914Y-128349999D02*
X119783390Y-128302380D01*
X119783390Y-128302380D02*
X119926247Y-128302380D01*
X119926247Y-128302380D02*
X120116723Y-128349999D01*
X120116723Y-128349999D02*
X120211961Y-128397618D01*
X120211961Y-128397618D02*
X120307200Y-128492856D01*
X120307200Y-128492856D02*
X120354819Y-128635713D01*
X120354819Y-128635713D02*
X120354819Y-128873808D01*
X120354819Y-127873808D02*
X119354819Y-127873808D01*
X182483333Y-118134580D02*
X182435714Y-118182200D01*
X182435714Y-118182200D02*
X182292857Y-118229819D01*
X182292857Y-118229819D02*
X182197619Y-118229819D01*
X182197619Y-118229819D02*
X182054762Y-118182200D01*
X182054762Y-118182200D02*
X181959524Y-118086961D01*
X181959524Y-118086961D02*
X181911905Y-117991723D01*
X181911905Y-117991723D02*
X181864286Y-117801247D01*
X181864286Y-117801247D02*
X181864286Y-117658390D01*
X181864286Y-117658390D02*
X181911905Y-117467914D01*
X181911905Y-117467914D02*
X181959524Y-117372676D01*
X181959524Y-117372676D02*
X182054762Y-117277438D01*
X182054762Y-117277438D02*
X182197619Y-117229819D01*
X182197619Y-117229819D02*
X182292857Y-117229819D01*
X182292857Y-117229819D02*
X182435714Y-117277438D01*
X182435714Y-117277438D02*
X182483333Y-117325057D01*
X183435714Y-118229819D02*
X182864286Y-118229819D01*
X183150000Y-118229819D02*
X183150000Y-117229819D01*
X183150000Y-117229819D02*
X183054762Y-117372676D01*
X183054762Y-117372676D02*
X182959524Y-117467914D01*
X182959524Y-117467914D02*
X182864286Y-117515533D01*
X99188095Y-127929819D02*
X99188095Y-126929819D01*
X99188095Y-127406009D02*
X99759523Y-127406009D01*
X99759523Y-127929819D02*
X99759523Y-126929819D01*
X100759523Y-127929819D02*
X100188095Y-127929819D01*
X100473809Y-127929819D02*
X100473809Y-126929819D01*
X100473809Y-126929819D02*
X100378571Y-127072676D01*
X100378571Y-127072676D02*
X100283333Y-127167914D01*
X100283333Y-127167914D02*
X100188095Y-127215533D01*
X160932200Y-103835713D02*
X160979819Y-103692856D01*
X160979819Y-103692856D02*
X160979819Y-103454761D01*
X160979819Y-103454761D02*
X160932200Y-103359523D01*
X160932200Y-103359523D02*
X160884580Y-103311904D01*
X160884580Y-103311904D02*
X160789342Y-103264285D01*
X160789342Y-103264285D02*
X160694104Y-103264285D01*
X160694104Y-103264285D02*
X160598866Y-103311904D01*
X160598866Y-103311904D02*
X160551247Y-103359523D01*
X160551247Y-103359523D02*
X160503628Y-103454761D01*
X160503628Y-103454761D02*
X160456009Y-103645237D01*
X160456009Y-103645237D02*
X160408390Y-103740475D01*
X160408390Y-103740475D02*
X160360771Y-103788094D01*
X160360771Y-103788094D02*
X160265533Y-103835713D01*
X160265533Y-103835713D02*
X160170295Y-103835713D01*
X160170295Y-103835713D02*
X160075057Y-103788094D01*
X160075057Y-103788094D02*
X160027438Y-103740475D01*
X160027438Y-103740475D02*
X159979819Y-103645237D01*
X159979819Y-103645237D02*
X159979819Y-103407142D01*
X159979819Y-103407142D02*
X160027438Y-103264285D01*
X160456009Y-102502380D02*
X160503628Y-102359523D01*
X160503628Y-102359523D02*
X160551247Y-102311904D01*
X160551247Y-102311904D02*
X160646485Y-102264285D01*
X160646485Y-102264285D02*
X160789342Y-102264285D01*
X160789342Y-102264285D02*
X160884580Y-102311904D01*
X160884580Y-102311904D02*
X160932200Y-102359523D01*
X160932200Y-102359523D02*
X160979819Y-102454761D01*
X160979819Y-102454761D02*
X160979819Y-102835713D01*
X160979819Y-102835713D02*
X159979819Y-102835713D01*
X159979819Y-102835713D02*
X159979819Y-102502380D01*
X159979819Y-102502380D02*
X160027438Y-102407142D01*
X160027438Y-102407142D02*
X160075057Y-102359523D01*
X160075057Y-102359523D02*
X160170295Y-102311904D01*
X160170295Y-102311904D02*
X160265533Y-102311904D01*
X160265533Y-102311904D02*
X160360771Y-102359523D01*
X160360771Y-102359523D02*
X160408390Y-102407142D01*
X160408390Y-102407142D02*
X160456009Y-102502380D01*
X160456009Y-102502380D02*
X160456009Y-102835713D01*
X159979819Y-101835713D02*
X160789342Y-101835713D01*
X160789342Y-101835713D02*
X160884580Y-101788094D01*
X160884580Y-101788094D02*
X160932200Y-101740475D01*
X160932200Y-101740475D02*
X160979819Y-101645237D01*
X160979819Y-101645237D02*
X160979819Y-101454761D01*
X160979819Y-101454761D02*
X160932200Y-101359523D01*
X160932200Y-101359523D02*
X160884580Y-101311904D01*
X160884580Y-101311904D02*
X160789342Y-101264285D01*
X160789342Y-101264285D02*
X159979819Y-101264285D01*
X160932200Y-100835713D02*
X160979819Y-100692856D01*
X160979819Y-100692856D02*
X160979819Y-100454761D01*
X160979819Y-100454761D02*
X160932200Y-100359523D01*
X160932200Y-100359523D02*
X160884580Y-100311904D01*
X160884580Y-100311904D02*
X160789342Y-100264285D01*
X160789342Y-100264285D02*
X160694104Y-100264285D01*
X160694104Y-100264285D02*
X160598866Y-100311904D01*
X160598866Y-100311904D02*
X160551247Y-100359523D01*
X160551247Y-100359523D02*
X160503628Y-100454761D01*
X160503628Y-100454761D02*
X160456009Y-100645237D01*
X160456009Y-100645237D02*
X160408390Y-100740475D01*
X160408390Y-100740475D02*
X160360771Y-100788094D01*
X160360771Y-100788094D02*
X160265533Y-100835713D01*
X160265533Y-100835713D02*
X160170295Y-100835713D01*
X160170295Y-100835713D02*
X160075057Y-100788094D01*
X160075057Y-100788094D02*
X160027438Y-100740475D01*
X160027438Y-100740475D02*
X159979819Y-100645237D01*
X159979819Y-100645237D02*
X159979819Y-100407142D01*
X159979819Y-100407142D02*
X160027438Y-100264285D01*
X139004819Y-102886904D02*
X138004819Y-102886904D01*
X138004819Y-102886904D02*
X139004819Y-102315476D01*
X139004819Y-102315476D02*
X138004819Y-102315476D01*
X138909580Y-101267857D02*
X138957200Y-101315476D01*
X138957200Y-101315476D02*
X139004819Y-101458333D01*
X139004819Y-101458333D02*
X139004819Y-101553571D01*
X139004819Y-101553571D02*
X138957200Y-101696428D01*
X138957200Y-101696428D02*
X138861961Y-101791666D01*
X138861961Y-101791666D02*
X138766723Y-101839285D01*
X138766723Y-101839285D02*
X138576247Y-101886904D01*
X138576247Y-101886904D02*
X138433390Y-101886904D01*
X138433390Y-101886904D02*
X138242914Y-101839285D01*
X138242914Y-101839285D02*
X138147676Y-101791666D01*
X138147676Y-101791666D02*
X138052438Y-101696428D01*
X138052438Y-101696428D02*
X138004819Y-101553571D01*
X138004819Y-101553571D02*
X138004819Y-101458333D01*
X138004819Y-101458333D02*
X138052438Y-101315476D01*
X138052438Y-101315476D02*
X138100057Y-101267857D01*
X138957200Y-100886904D02*
X139004819Y-100744047D01*
X139004819Y-100744047D02*
X139004819Y-100505952D01*
X139004819Y-100505952D02*
X138957200Y-100410714D01*
X138957200Y-100410714D02*
X138909580Y-100363095D01*
X138909580Y-100363095D02*
X138814342Y-100315476D01*
X138814342Y-100315476D02*
X138719104Y-100315476D01*
X138719104Y-100315476D02*
X138623866Y-100363095D01*
X138623866Y-100363095D02*
X138576247Y-100410714D01*
X138576247Y-100410714D02*
X138528628Y-100505952D01*
X138528628Y-100505952D02*
X138481009Y-100696428D01*
X138481009Y-100696428D02*
X138433390Y-100791666D01*
X138433390Y-100791666D02*
X138385771Y-100839285D01*
X138385771Y-100839285D02*
X138290533Y-100886904D01*
X138290533Y-100886904D02*
X138195295Y-100886904D01*
X138195295Y-100886904D02*
X138100057Y-100839285D01*
X138100057Y-100839285D02*
X138052438Y-100791666D01*
X138052438Y-100791666D02*
X138004819Y-100696428D01*
X138004819Y-100696428D02*
X138004819Y-100458333D01*
X138004819Y-100458333D02*
X138052438Y-100315476D01*
%TO.C,RXSR*%
D13*
X175735000Y-134960000D02*
X175735000Y-134510000D01*
X175735000Y-130990000D02*
X175735000Y-130540000D01*
X175735000Y-130540000D02*
X174785000Y-130540000D01*
X169715000Y-130540000D02*
X169715000Y-129050000D01*
X168765000Y-134960000D02*
X175735000Y-134960000D01*
X168765000Y-134510000D02*
X168765000Y-134960000D01*
X168765000Y-130990000D02*
X168765000Y-130540000D01*
X168765000Y-130540000D02*
X169715000Y-130540000D01*
%TO.C,M1*%
X111750000Y-134840000D02*
X111750000Y-130540000D01*
X111750000Y-134840000D02*
X113550000Y-134840000D01*
X113550000Y-130540000D02*
X111750000Y-130540000D01*
X113550000Y-130540000D02*
X113550000Y-134840000D01*
%TO.C,TLM*%
X114750000Y-134840000D02*
X114750000Y-130540000D01*
X114750000Y-134840000D02*
X116550000Y-134840000D01*
X116550000Y-130540000D02*
X114750000Y-130540000D01*
X116550000Y-130540000D02*
X116550000Y-134840000D01*
%TO.C,M3*%
X106950000Y-134840000D02*
X106950000Y-130540000D01*
X106950000Y-134840000D02*
X108750000Y-134840000D01*
X108750000Y-130540000D02*
X106950000Y-130540000D01*
X108750000Y-130540000D02*
X108750000Y-134840000D01*
%TO.C,M4*%
X104550000Y-134840000D02*
X104550000Y-130540000D01*
X104550000Y-134840000D02*
X106350000Y-134840000D01*
X106350000Y-130540000D02*
X104550000Y-130540000D01*
X106350000Y-130540000D02*
X106350000Y-134840000D01*
%TO.C,M2*%
X109350000Y-134840000D02*
X109350000Y-130540000D01*
X109350000Y-134840000D02*
X111150000Y-134840000D01*
X111150000Y-130540000D02*
X109350000Y-130540000D01*
X111150000Y-130540000D02*
X111150000Y-134840000D01*
%TO.C,J1*%
X186580000Y-124200000D02*
X186580000Y-121540000D01*
X128100000Y-124200000D02*
X186580000Y-124200000D01*
X128100000Y-124200000D02*
X128100000Y-121540000D01*
X128100000Y-121540000D02*
X186580000Y-121540000D01*
X125500000Y-122870000D02*
X125500000Y-121540000D01*
X125500000Y-121540000D02*
X126830000Y-121540000D01*
%TO.C,GND*%
X163470000Y-128175000D02*
X163470000Y-128405000D01*
X163900000Y-125745000D02*
X165170000Y-125745000D01*
X164330000Y-128175000D02*
X164330000Y-128405000D01*
X165170000Y-125745000D02*
X165170000Y-127015000D01*
X163470000Y-131165000D02*
X164330000Y-131165000D01*
X164330000Y-137165000D01*
X163470000Y-137165000D01*
X163470000Y-131165000D01*
G36*
X163470000Y-131165000D02*
G01*
X164330000Y-131165000D01*
X164330000Y-137165000D01*
X163470000Y-137165000D01*
X163470000Y-131165000D01*
G37*
X162520000Y-128405000D02*
X165280000Y-128405000D01*
X165280000Y-131165000D01*
X162520000Y-131165000D01*
X162520000Y-128405000D01*
%TO.C,C3*%
X97415000Y-117338748D02*
X97415000Y-117861252D01*
X98885000Y-117338748D02*
X98885000Y-117861252D01*
%TO.C,3V3*%
X156650000Y-134840000D02*
X156650000Y-130540000D01*
X156650000Y-134840000D02*
X158450000Y-134840000D01*
X158450000Y-130540000D02*
X156650000Y-130540000D01*
X158450000Y-130540000D02*
X158450000Y-134840000D01*
%TO.C,D1*%
X136850000Y-133810000D02*
X139535000Y-133810000D01*
X139535000Y-131890000D02*
X136850000Y-131890000D01*
X139535000Y-133810000D02*
X139535000Y-131890000D01*
%TO.C,MPU*%
X97670000Y-120370000D02*
X99000000Y-120370000D01*
X97670000Y-121700000D02*
X97670000Y-120370000D01*
X100270000Y-120370000D02*
X123190000Y-120370000D01*
X100270000Y-123030000D02*
X100270000Y-120370000D01*
X100270000Y-123030000D02*
X123190000Y-123030000D01*
X123190000Y-123030000D02*
X123190000Y-120370000D01*
%TO.C,ESC1*%
X105030000Y-104750000D02*
X105030000Y-103480000D01*
X105870000Y-102320000D02*
X105870000Y-102090000D01*
X106300000Y-104750000D02*
X105030000Y-104750000D01*
X106730000Y-102320000D02*
X106730000Y-102090000D01*
X107570000Y-102090000D02*
X107570000Y-99330000D01*
X108410000Y-93330000D02*
X109270000Y-93330000D01*
X108410000Y-99330000D02*
X108410000Y-93330000D01*
X108410000Y-102402642D02*
X108410000Y-102090000D01*
X109270000Y-93330000D02*
X109270000Y-99330000D01*
X109270000Y-102402642D02*
X109270000Y-102090000D01*
X110110000Y-102090000D02*
X110110000Y-99330000D01*
X110950000Y-93330000D02*
X111810000Y-93330000D01*
X110950000Y-99330000D02*
X110950000Y-93330000D01*
X110950000Y-102402642D02*
X110950000Y-102090000D01*
X111810000Y-93330000D02*
X111810000Y-99330000D01*
X111810000Y-102402642D02*
X111810000Y-102090000D01*
X112650000Y-102090000D02*
X112650000Y-99330000D01*
X113490000Y-93330000D02*
X114350000Y-93330000D01*
X113490000Y-99330000D02*
X113490000Y-93330000D01*
X113490000Y-102402642D02*
X113490000Y-102090000D01*
X114350000Y-93330000D02*
X114350000Y-99330000D01*
X114350000Y-102402642D02*
X114350000Y-102090000D01*
X115190000Y-102090000D02*
X115190000Y-99330000D01*
X116030000Y-93330000D02*
X116890000Y-93330000D01*
X116030000Y-99330000D02*
X116030000Y-93330000D01*
X116030000Y-102402642D02*
X116030000Y-102090000D01*
X116890000Y-93330000D02*
X116890000Y-99330000D01*
X116890000Y-102402642D02*
X116890000Y-102090000D01*
X117730000Y-102090000D02*
X117730000Y-99330000D01*
X118570000Y-93330000D02*
X119430000Y-93330000D01*
X118570000Y-99330000D02*
X118570000Y-93330000D01*
X118570000Y-102402642D02*
X118570000Y-102090000D01*
X119430000Y-93330000D02*
X119430000Y-99330000D01*
X119430000Y-102402642D02*
X119430000Y-102090000D01*
X120270000Y-102090000D02*
X120270000Y-99330000D01*
X121110000Y-93330000D02*
X121970000Y-93330000D01*
X121110000Y-99330000D02*
X121110000Y-93330000D01*
X121110000Y-102402642D02*
X121110000Y-102090000D01*
X121970000Y-93330000D02*
X121970000Y-99330000D01*
X121970000Y-102402642D02*
X121970000Y-102090000D01*
X122810000Y-102090000D02*
X122810000Y-99330000D01*
X123650000Y-93330000D02*
X124510000Y-93330000D01*
X123650000Y-99330000D02*
X123650000Y-93330000D01*
X123650000Y-102402642D02*
X123650000Y-102090000D01*
X124510000Y-93330000D02*
X124510000Y-99330000D01*
X124510000Y-102402642D02*
X124510000Y-102090000D01*
X104920000Y-99330000D02*
X125460000Y-99330000D01*
X125460000Y-102090000D01*
X104920000Y-102090000D01*
X104920000Y-99330000D01*
X105870000Y-93330000D02*
X106730000Y-93330000D01*
X106730000Y-99330000D01*
X105870000Y-99330000D01*
X105870000Y-93330000D01*
G36*
X105870000Y-93330000D02*
G01*
X106730000Y-93330000D01*
X106730000Y-99330000D01*
X105870000Y-99330000D01*
X105870000Y-93330000D01*
G37*
%TO.C,RXSR*%
X166570000Y-104750000D02*
X166570000Y-103480000D01*
X167410000Y-102320000D02*
X167410000Y-102090000D01*
X167840000Y-104750000D02*
X166570000Y-104750000D01*
X168270000Y-102320000D02*
X168270000Y-102090000D01*
X169110000Y-102090000D02*
X169110000Y-99330000D01*
X169950000Y-93330000D02*
X170810000Y-93330000D01*
X169950000Y-99330000D02*
X169950000Y-93330000D01*
X169950000Y-102402642D02*
X169950000Y-102090000D01*
X170810000Y-93330000D02*
X170810000Y-99330000D01*
X170810000Y-102402642D02*
X170810000Y-102090000D01*
X171650000Y-102090000D02*
X171650000Y-99330000D01*
X172490000Y-93330000D02*
X173350000Y-93330000D01*
X172490000Y-99330000D02*
X172490000Y-93330000D01*
X172490000Y-102402642D02*
X172490000Y-102090000D01*
X173350000Y-93330000D02*
X173350000Y-99330000D01*
X173350000Y-102402642D02*
X173350000Y-102090000D01*
X174190000Y-102090000D02*
X174190000Y-99330000D01*
X175030000Y-93330000D02*
X175890000Y-93330000D01*
X175030000Y-99330000D02*
X175030000Y-93330000D01*
X175030000Y-102402642D02*
X175030000Y-102090000D01*
X175890000Y-93330000D02*
X175890000Y-99330000D01*
X175890000Y-102402642D02*
X175890000Y-102090000D01*
X166460000Y-99330000D02*
X176840000Y-99330000D01*
X176840000Y-102090000D01*
X166460000Y-102090000D01*
X166460000Y-99330000D01*
X167410000Y-93330000D02*
X168270000Y-93330000D01*
X168270000Y-99330000D01*
X167410000Y-99330000D01*
X167410000Y-93330000D01*
G36*
X167410000Y-93330000D02*
G01*
X168270000Y-93330000D01*
X168270000Y-99330000D01*
X167410000Y-99330000D01*
X167410000Y-93330000D01*
G37*
%TO.C,R1*%
X136115000Y-128860436D02*
X136115000Y-129314564D01*
X137585000Y-128860436D02*
X137585000Y-129314564D01*
%TO.C,INT*%
X123800000Y-134840000D02*
X123800000Y-130540000D01*
X123800000Y-134840000D02*
X125600000Y-134840000D01*
X125600000Y-130540000D02*
X123800000Y-130540000D01*
X125600000Y-130540000D02*
X125600000Y-134840000D01*
%TO.C,R2*%
X188987500Y-116572258D02*
X188987500Y-116097742D01*
X190032500Y-116572258D02*
X190032500Y-116097742D01*
%TO.C,J2*%
X125500000Y-106300000D02*
X125500000Y-108960000D01*
X183980000Y-106300000D02*
X125500000Y-106300000D01*
X183980000Y-106300000D02*
X183980000Y-108960000D01*
X183980000Y-108960000D02*
X125500000Y-108960000D01*
X186580000Y-107630000D02*
X186580000Y-108960000D01*
X186580000Y-108960000D02*
X185250000Y-108960000D01*
%TO.C,R3*%
X188957500Y-112907258D02*
X188957500Y-112432742D01*
X190002500Y-112907258D02*
X190002500Y-112432742D01*
%TO.C,ESC2*%
X90915000Y-111060000D02*
X90915000Y-118940000D01*
X92885000Y-109890000D02*
X95385000Y-109890000D01*
X92885000Y-120110000D02*
X95385000Y-120110000D01*
X95385000Y-109890000D02*
X95385000Y-110940000D01*
X95385000Y-110940000D02*
X96375000Y-110940000D01*
X95385000Y-120110000D02*
X95385000Y-119060000D01*
%TO.C,SPORT*%
X156600000Y-99970000D02*
X156600000Y-95670000D01*
X156600000Y-99970000D02*
X158400000Y-99970000D01*
X158400000Y-95670000D02*
X156600000Y-95670000D01*
X158400000Y-95670000D02*
X158400000Y-99970000D01*
%TO.C,C2*%
X123068748Y-105195000D02*
X123591252Y-105195000D01*
X123068748Y-106665000D02*
X123591252Y-106665000D01*
%TO.C,SCLK*%
X135100000Y-99970000D02*
X135100000Y-95670000D01*
X135100000Y-99970000D02*
X136900000Y-99970000D01*
X136900000Y-95670000D02*
X135100000Y-95670000D01*
X136900000Y-95670000D02*
X136900000Y-99970000D01*
%TO.C,SD0*%
X121400000Y-134840000D02*
X121400000Y-130540000D01*
X121400000Y-134840000D02*
X123200000Y-134840000D01*
X123200000Y-130540000D02*
X121400000Y-130540000D01*
X123200000Y-130540000D02*
X123200000Y-134840000D01*
%TO.C,5V*%
X159400000Y-134840000D02*
X159400000Y-130540000D01*
X159400000Y-134840000D02*
X161200000Y-134840000D01*
X161200000Y-130540000D02*
X159400000Y-130540000D01*
X161200000Y-130540000D02*
X161200000Y-134840000D01*
%TO.C,SDI*%
X119000000Y-134840000D02*
X119000000Y-130540000D01*
X119000000Y-134840000D02*
X120800000Y-134840000D01*
X120800000Y-130540000D02*
X119000000Y-130540000D01*
X120800000Y-130540000D02*
X120800000Y-134840000D01*
%TO.C,C1*%
X184811252Y-118690000D02*
X183388748Y-118690000D01*
X184811252Y-120510000D02*
X183388748Y-120510000D01*
%TO.C,SBUS*%
X159600000Y-99970000D02*
X159600000Y-95670000D01*
X159600000Y-99970000D02*
X161400000Y-99970000D01*
X161400000Y-95670000D02*
X159600000Y-95670000D01*
X161400000Y-95670000D02*
X161400000Y-99970000D01*
%TO.C,NCS*%
X137650000Y-99970000D02*
X137650000Y-95670000D01*
X137650000Y-99970000D02*
X139450000Y-99970000D01*
X139450000Y-95670000D02*
X137650000Y-95670000D01*
X139450000Y-95670000D02*
X139450000Y-99970000D01*
%TD*%
M02*
