M48
; DRILL file KiCad 10.0.3 date 2026-07-03T15:51:46
; FORMAT={-:-/ absolute / metric / decimal}
; #@! TF.CreationDate,2026-07-03T15:51:46+02:00
; #@! TF.GenerationSoftware,Kicad,Pcbnew,10.0.3
; #@! TF.FileFunction,Plated,1,2,PTH
FMAT,2
METRIC
; #@! TA.AperFunction,Plated,PTH,ViaDrill
T1C0.300
; #@! TA.AperFunction,Plated,PTH,ComponentDrill
T2C0.700
; #@! TA.AperFunction,Plated,PTH,ViaDrill
T3C0.850
; #@! TA.AperFunction,Plated,PTH,ComponentDrill
T4C1.000
%
G90
G05
T1
X92.125Y-114.5
X92.75Y-113.5
X93.5Y-112.5
X94.25Y-111.5
X101.958Y-112.658
X102.0Y-113.5
X103.695Y-102.305
X103.75Y-118.25
X109.0Y-112.25
X109.5Y-125.5
X113.75Y-108.75
X115.75Y-105.25
X118.23Y-120.25
X122.348Y-128.152
X130.334Y-120.25
X134.45Y-114.366
X134.5Y-105.83
X134.917Y-115.667
X136.783Y-112.033
X137.0Y-116.8
X137.0Y-119.5
X137.0Y-121.0
X137.037Y-113.547
X144.0Y-110.25
X144.5Y-109.5
X145.5Y-111.0
X151.5Y-120.0
X154.75Y-111.0
X157.31Y-110.19
X163.875Y-102.475
X169.75Y-113.75
X171.5Y-102.25
X172.5Y-114.5
X173.5Y-115.25
X175.25Y-112.75
X179.75Y-104.0
X183.375Y-114.625
X185.75Y-112.25
X186.0Y-125.75
T2
X105.45Y-131.4
X105.45Y-133.94
X107.85Y-131.4
X107.85Y-133.94
X110.25Y-131.4
X110.25Y-133.94
X112.65Y-131.4
X112.65Y-133.94
X115.65Y-131.4
X115.65Y-133.94
X119.9Y-131.4
X119.9Y-133.94
X122.3Y-131.4
X122.3Y-133.94
X124.7Y-131.4
X124.7Y-133.94
X136.0Y-96.53
X136.0Y-99.07
X138.55Y-96.53
X138.55Y-99.07
X157.5Y-96.53
X157.5Y-99.07
X157.55Y-131.4
X157.55Y-133.94
X160.3Y-131.4
X160.3Y-133.94
X160.5Y-96.53
X160.5Y-99.07
T3
X100.75Y-116.75
X103.7Y-116.8
X123.5Y-118.25
X125.75Y-116.8
X181.0Y-119.5
X185.25Y-117.5
T4
X99.0Y-121.7
X101.54Y-121.7
X104.08Y-121.7
X106.3Y-103.48
X106.62Y-121.7
X108.84Y-103.48
X109.16Y-121.7
X111.38Y-103.48
X111.7Y-121.7
X113.92Y-103.48
X114.24Y-121.7
X116.46Y-103.48
X116.78Y-121.7
X119.0Y-103.48
X119.32Y-121.7
X121.54Y-103.48
X121.86Y-121.7
X124.08Y-103.48
X126.83Y-107.63
X126.83Y-122.87
X129.37Y-107.63
X129.37Y-122.87
X131.91Y-107.63
X131.91Y-122.87
X134.45Y-107.63
X134.45Y-122.87
X136.99Y-107.63
X136.99Y-122.87
X139.53Y-107.63
X139.53Y-122.87
X142.07Y-107.63
X142.07Y-122.87
X144.61Y-107.63
X144.61Y-122.87
X147.15Y-107.63
X147.15Y-122.87
X149.69Y-107.63
X149.69Y-122.87
X152.23Y-107.63
X152.23Y-122.87
X154.77Y-107.63
X154.77Y-122.87
X157.31Y-107.63
X157.31Y-122.87
X159.85Y-107.63
X159.85Y-122.87
X162.39Y-107.63
X162.39Y-122.87
X163.9Y-127.015
X164.93Y-107.63
X164.93Y-122.87
X167.47Y-107.63
X167.47Y-122.87
X167.84Y-103.48
X170.01Y-107.63
X170.01Y-122.87
X170.38Y-103.48
X172.55Y-107.63
X172.55Y-122.87
X172.92Y-103.48
X175.09Y-107.63
X175.09Y-122.87
X175.46Y-103.48
X177.63Y-107.63
X177.63Y-122.87
X180.17Y-107.63
X180.17Y-122.87
X182.71Y-107.63
X182.71Y-122.87
X185.25Y-107.63
X185.25Y-122.87
M30
