%TF.GenerationSoftware,KiCad,Pcbnew,10.0.3*%
%TF.CreationDate,2026-07-03T15:49:38+02:00*%
%TF.ProjectId,Carrier_PCB,43617272-6965-4725-9f50-43422e6b6963,rev?*%
%TF.SameCoordinates,Original*%
%TF.FileFunction,Copper,L2,Bot*%
%TF.FilePolarity,Positive*%
%FSLAX46Y46*%
G04 Gerber Fmt 4.6, Leading zero omitted, Abs format (unit mm)*
G04 Created by KiCad (PCBNEW 10.0.3) date 2026-07-03 15:49:38*
%MOMM*%
%LPD*%
G01*
G04 APERTURE LIST*
%TA.AperFunction,ComponentPad*%
%ADD10C,1.400000*%
%TD*%
%TA.AperFunction,ComponentPad*%
%ADD11C,1.700000*%
%TD*%
%TA.AperFunction,ComponentPad*%
%ADD12R,1.700000X1.700000*%
%TD*%
%TA.AperFunction,ViaPad*%
%ADD13C,1.300000*%
%TD*%
%TA.AperFunction,ViaPad*%
%ADD14C,0.600000*%
%TD*%
%TA.AperFunction,Conductor*%
%ADD15C,0.800000*%
%TD*%
%TA.AperFunction,Conductor*%
%ADD16C,0.250000*%
%TD*%
G04 APERTURE END LIST*
D10*
%TO.P,M1,1,1_1*%
%TO.N,Net-(J2-Pin_7)*%
X112650000Y-133940000D03*
X112650000Y-131400000D03*
%TD*%
%TO.P,TLM,1,1_1*%
%TO.N,Net-(J2-Pin_9)*%
X115650000Y-133940000D03*
X115650000Y-131400000D03*
%TD*%
%TO.P,M3,1,1_1*%
%TO.N,Net-(J2-Pin_5)*%
X107850000Y-133940000D03*
X107850000Y-131400000D03*
%TD*%
%TO.P,M4,1,1_1*%
%TO.N,Net-(J2-Pin_4)*%
X105450000Y-133940000D03*
X105450000Y-131400000D03*
%TD*%
%TO.P,M2,1,1_1*%
%TO.N,Net-(J2-Pin_6)*%
X110250000Y-133940000D03*
X110250000Y-131400000D03*
%TD*%
D11*
%TO.P,J1,24,Pin_24_24*%
%TO.N,+5V*%
X185250000Y-122870000D03*
D12*
%TO.P,J1,23,Pin_23_23*%
%TO.N,GND*%
X182710000Y-122870000D03*
D11*
%TO.P,J1,22,Pin_22_22*%
%TO.N,unconnected-(J1-Pin_22-Pad22)*%
X180170000Y-122870000D03*
%TO.P,J1,21,Pin_21_21*%
%TO.N,unconnected-(J1-Pin_21-Pad21)*%
X177630000Y-122870000D03*
%TO.P,J1,20,Pin_20_20*%
%TO.N,unconnected-(J1-Pin_20-Pad20)*%
X175090000Y-122870000D03*
%TO.P,J1,19,Pin_19_19*%
%TO.N,unconnected-(J1-Pin_19-Pad19)*%
X172550000Y-122870000D03*
%TO.P,J1,18,Pin_18_18*%
%TO.N,unconnected-(J1-Pin_18-Pad18)*%
X170010000Y-122870000D03*
%TO.P,J1,17,Pin_17_17*%
%TO.N,unconnected-(J1-Pin_17-Pad17)*%
X167470000Y-122870000D03*
%TO.P,J1,16,Pin_16_16*%
%TO.N,unconnected-(J1-Pin_16-Pad16)*%
X164930000Y-122870000D03*
%TO.P,J1,15,Pin_15_15*%
%TO.N,unconnected-(J1-Pin_15-Pad15)*%
X162390000Y-122870000D03*
%TO.P,J1,14,Pin_14_14*%
%TO.N,unconnected-(J1-Pin_14-Pad14)*%
X159850000Y-122870000D03*
%TO.P,J1,13,Pin_13_13*%
%TO.N,unconnected-(J1-Pin_13-Pad13)*%
X157310000Y-122870000D03*
%TO.P,J1,12,Pin_12_12*%
%TO.N,unconnected-(J1-Pin_12-Pad12)*%
X154770000Y-122870000D03*
%TO.P,J1,11,Pin_11_11*%
%TO.N,Net-(J1-Pin_11)*%
X152230000Y-122870000D03*
%TO.P,J1,10,Pin_10_10*%
%TO.N,GND*%
X149690000Y-122870000D03*
%TO.P,J1,9,Pin_9_9*%
%TO.N,unconnected-(J1-Pin_9-Pad9)*%
X147150000Y-122870000D03*
%TO.P,J1,8,Pin_8_8*%
%TO.N,unconnected-(J1-Pin_8-Pad8)*%
X144610000Y-122870000D03*
%TO.P,J1,7,Pin_7_7*%
%TO.N,unconnected-(J1-Pin_7-Pad7)*%
X142070000Y-122870000D03*
%TO.P,J1,6,Pin_6_6*%
%TO.N,unconnected-(J1-Pin_6-Pad6)*%
X139530000Y-122870000D03*
%TO.P,J1,5,Pin_5_5*%
%TO.N,unconnected-(J1-Pin_5-Pad5)*%
X136990000Y-122870000D03*
%TO.P,J1,4,Pin_4_4*%
%TO.N,unconnected-(J1-Pin_4-Pad4)*%
X134450000Y-122870000D03*
%TO.P,J1,3,Pin_3_3*%
%TO.N,unconnected-(J1-Pin_3-Pad3)*%
X131910000Y-122870000D03*
%TO.P,J1,2,Pin_2_2*%
%TO.N,unconnected-(J1-Pin_2-Pad2)*%
X129370000Y-122870000D03*
%TO.P,J1,1,Pin_1_1*%
%TO.N,unconnected-(J1-Pin_1-Pad1)*%
X126830000Y-122870000D03*
%TD*%
D12*
%TO.P,GND,1,Pin_1_1*%
%TO.N,GND*%
X163900000Y-127015000D03*
%TD*%
D10*
%TO.P,3V3,1,1_1*%
%TO.N,+3.3V*%
X157550000Y-133940000D03*
X157550000Y-131400000D03*
%TD*%
D11*
%TO.P,MPU,1,Pin_1_1*%
%TO.N,+3.3V*%
X99000000Y-121700000D03*
D12*
%TO.P,MPU,2,Pin_2_2*%
%TO.N,GND*%
X101540000Y-121700000D03*
D11*
%TO.P,MPU,3,Pin_3_3*%
%TO.N,Net-(J1-Pin_11)*%
X104080000Y-121700000D03*
%TO.P,MPU,4,Pin_4_4*%
%TO.N,Net-(J2-Pin_13)*%
X106620000Y-121700000D03*
%TO.P,MPU,5,Pin_5_5*%
%TO.N,unconnected-(J_MPU1-Pin_5-Pad5)*%
X109160000Y-121700000D03*
%TO.P,MPU,6,Pin_6_6*%
%TO.N,unconnected-(J_MPU1-Pin_6-Pad6)*%
X111700000Y-121700000D03*
%TO.P,MPU,7,Pin_7_7*%
%TO.N,Net-(J2-Pin_14)*%
X114240000Y-121700000D03*
%TO.P,MPU,8,Pin_8_8*%
%TO.N,Net-(J2-Pin_21)*%
X116780000Y-121700000D03*
%TO.P,MPU,9,Pin_9_9*%
%TO.N,Net-(J2-Pin_12)*%
X119320000Y-121700000D03*
%TO.P,MPU,10,Pin_10_10*%
%TO.N,Net-(J2-Pin_20)*%
X121860000Y-121700000D03*
%TD*%
%TO.P,ESC1,1,Pin_1_1*%
%TO.N,Net-(J2-Pin_7)*%
X106300000Y-103480000D03*
%TO.P,ESC1,2,Pin_2_2*%
%TO.N,Net-(J2-Pin_6)*%
X108840000Y-103480000D03*
%TO.P,ESC1,3,Pin_3_3*%
%TO.N,Net-(J2-Pin_5)*%
X111380000Y-103480000D03*
%TO.P,ESC1,4,Pin_4_4*%
%TO.N,Net-(J2-Pin_4)*%
X113920000Y-103480000D03*
%TO.P,ESC1,5,Pin_5_5*%
%TO.N,Net-(J2-Pin_18)*%
X116460000Y-103480000D03*
D12*
%TO.P,ESC1,6,Pin_6_6*%
%TO.N,GND*%
X119000000Y-103480000D03*
D11*
%TO.P,ESC1,7,Pin_7_7*%
%TO.N,Net-(J2-Pin_9)*%
X121540000Y-103480000D03*
%TO.P,ESC1,8,Pin_8_8*%
%TO.N,+5V*%
X124080000Y-103480000D03*
%TD*%
D12*
%TO.P,RXSR,1,Pin_1_1*%
%TO.N,GND*%
X167840000Y-103480000D03*
D11*
%TO.P,RXSR,2,Pin_2_2*%
%TO.N,+5V*%
X170380000Y-103480000D03*
%TO.P,RXSR,3,Pin_3_3*%
%TO.N,SPORT_RX*%
X172920000Y-103480000D03*
%TO.P,RXSR,4,Pin_4_4*%
%TO.N,Net-(J2-Pin_2)*%
X175460000Y-103480000D03*
%TD*%
D10*
%TO.P,INT,1,1_1*%
%TO.N,Net-(J2-Pin_21)*%
X124700000Y-133940000D03*
X124700000Y-131400000D03*
%TD*%
D12*
%TO.P,J2,1,Pin_1_1*%
%TO.N,GND*%
X185250000Y-107630000D03*
D11*
%TO.P,J2,2,Pin_2_2*%
%TO.N,Net-(J2-Pin_2)*%
X182710000Y-107630000D03*
%TO.P,J2,3,Pin_3_3*%
%TO.N,SPORT_MCU*%
X180170000Y-107630000D03*
%TO.P,J2,4,Pin_4_4*%
%TO.N,Net-(J2-Pin_4)*%
X177630000Y-107630000D03*
%TO.P,J2,5,Pin_5_5*%
%TO.N,Net-(J2-Pin_5)*%
X175090000Y-107630000D03*
%TO.P,J2,6,Pin_6_6*%
%TO.N,Net-(J2-Pin_6)*%
X172550000Y-107630000D03*
%TO.P,J2,7,Pin_7_7*%
%TO.N,Net-(J2-Pin_7)*%
X170010000Y-107630000D03*
%TO.P,J2,8,Pin_8_8*%
%TO.N,unconnected-(J2-Pin_8-Pad8)*%
X167470000Y-107630000D03*
%TO.P,J2,9,Pin_9_9*%
%TO.N,Net-(J2-Pin_9)*%
X164930000Y-107630000D03*
%TO.P,J2,10,Pin_10_10*%
%TO.N,unconnected-(J2-Pin_10-Pad10)*%
X162390000Y-107630000D03*
%TO.P,J2,11,Pin_11_11*%
%TO.N,unconnected-(J2-Pin_11-Pad11)*%
X159850000Y-107630000D03*
%TO.P,J2,12,Pin_12_12*%
%TO.N,Net-(J2-Pin_12)*%
X157310000Y-107630000D03*
%TO.P,J2,13,Pin_13_13*%
%TO.N,Net-(J2-Pin_13)*%
X154770000Y-107630000D03*
%TO.P,J2,14,Pin_14_14*%
%TO.N,Net-(J2-Pin_14)*%
X152230000Y-107630000D03*
%TO.P,J2,15,Pin_15_15*%
%TO.N,+3.3V*%
X149690000Y-107630000D03*
%TO.P,J2,16,Pin_16_16*%
%TO.N,unconnected-(J2-Pin_16-Pad16)*%
X147150000Y-107630000D03*
%TO.P,J2,17,Pin_17_17*%
%TO.N,unconnected-(J2-Pin_17-Pad17)*%
X144610000Y-107630000D03*
%TO.P,J2,18,Pin_18_18*%
%TO.N,Net-(J2-Pin_18)*%
X142070000Y-107630000D03*
%TO.P,J2,19,Pin_19_19*%
%TO.N,unconnected-(J2-Pin_19-Pad19)*%
X139530000Y-107630000D03*
%TO.P,J2,20,Pin_20_20*%
%TO.N,Net-(J2-Pin_20)*%
X136990000Y-107630000D03*
%TO.P,J2,21,Pin_21_21*%
%TO.N,Net-(J2-Pin_21)*%
X134450000Y-107630000D03*
%TO.P,J2,22,Pin_22_22*%
%TO.N,unconnected-(J2-Pin_22-Pad22)*%
X131910000Y-107630000D03*
%TO.P,J2,23,Pin_23_23*%
%TO.N,unconnected-(J2-Pin_23-Pad23)*%
X129370000Y-107630000D03*
%TO.P,J2,24,Pin_24_24*%
%TO.N,unconnected-(J2-Pin_24-Pad24)*%
X126830000Y-107630000D03*
%TD*%
D10*
%TO.P,SPORT,1,1_1*%
%TO.N,SPORT_MCU*%
X157500000Y-99070000D03*
X157500000Y-96530000D03*
%TD*%
%TO.P,SCLK,1,1_1*%
%TO.N,Net-(J1-Pin_11)*%
X136000000Y-99070000D03*
X136000000Y-96530000D03*
%TD*%
%TO.P,SD0,1,1_1*%
%TO.N,Net-(J2-Pin_14)*%
X122300000Y-133940000D03*
X122300000Y-131400000D03*
%TD*%
%TO.P,5V,1,1_1*%
%TO.N,+5V*%
X160300000Y-133940000D03*
X160300000Y-131400000D03*
%TD*%
%TO.P,SDI,1,1_1*%
%TO.N,Net-(J2-Pin_13)*%
X119900000Y-133940000D03*
X119900000Y-131400000D03*
%TD*%
%TO.P,SBUS,1,1_1*%
%TO.N,Net-(J2-Pin_2)*%
X160500000Y-99070000D03*
X160500000Y-96530000D03*
%TD*%
%TO.P,NCS,1,1_1*%
%TO.N,Net-(J2-Pin_12)*%
X138550000Y-99070000D03*
X138550000Y-96530000D03*
%TD*%
D13*
%TO.N,GND*%
X100750000Y-116750000D03*
D14*
X185750000Y-112250000D03*
X183375000Y-114625000D03*
X103750000Y-118250000D03*
D13*
X123500000Y-118250000D03*
X181000000Y-119500000D03*
D14*
%TO.N,+5V*%
X171500000Y-102250000D03*
D13*
X125750000Y-116800000D03*
X185250000Y-117500000D03*
D14*
X137000000Y-116800000D03*
D13*
X103700000Y-116800000D03*
D14*
%TO.N,+3.3V*%
X137000000Y-121000000D03*
%TO.N,Net-(J1-Pin_11)*%
X109000000Y-112250000D03*
X113750000Y-108750000D03*
X109500000Y-125500000D03*
X115750000Y-105250000D03*
%TO.N,Net-(J2-Pin_13)*%
X137000000Y-119500000D03*
X145500000Y-111000000D03*
X154750000Y-111000000D03*
%TO.N,Net-(J2-Pin_14)*%
X122348058Y-128151942D03*
X151500000Y-120000000D03*
%TO.N,Net-(J2-Pin_21)*%
X130333884Y-120250000D03*
X134916942Y-115666942D03*
X134450000Y-114366116D03*
X118230000Y-120250000D03*
%TO.N,Net-(J2-Pin_12)*%
X144000000Y-110250000D03*
X157310000Y-110190000D03*
%TO.N,Net-(J2-Pin_20)*%
X136783058Y-112033058D03*
X137036942Y-113546942D03*
%TO.N,Net-(J2-Pin_9)*%
X103695000Y-102305000D03*
X144500000Y-109500000D03*
%TO.N,Net-(J2-Pin_7)*%
X169750000Y-113750000D03*
X94250000Y-111500000D03*
%TO.N,Net-(J2-Pin_6)*%
X172500000Y-114500000D03*
X101958059Y-112658056D03*
X93500000Y-112500000D03*
%TO.N,Net-(J2-Pin_5)*%
X102000000Y-113500000D03*
X92750000Y-113500000D03*
X173500000Y-115250000D03*
%TO.N,Net-(J2-Pin_4)*%
X134500000Y-105830000D03*
X92125000Y-114500000D03*
X175250000Y-112750000D03*
%TO.N,Net-(J2-Pin_2)*%
X186000000Y-125750000D03*
X179750000Y-104000000D03*
%TO.N,GND*%
X163875000Y-102475000D03*
%TD*%
%TO.N,GND*%
D15*
X103750000Y-118250000D02*
X102250000Y-118250000D01*
X123500000Y-118250000D02*
X103750000Y-118250000D01*
X181000000Y-119500000D02*
X179750000Y-118250000D01*
X179750000Y-118250000D02*
X123500000Y-118250000D01*
X102250000Y-118250000D02*
X100750000Y-116750000D01*
D16*
X153835000Y-127015000D02*
X163900000Y-127015000D01*
X183375000Y-114625000D02*
X185750000Y-112250000D01*
X149690000Y-122870000D02*
X153835000Y-127015000D01*
%TO.N,+5V*%
X183298299Y-117500000D02*
X185250000Y-117500000D01*
D15*
X125750000Y-116800000D02*
X137000000Y-116800000D01*
X103700000Y-116800000D02*
X124750000Y-116800000D01*
D16*
X171500000Y-104918299D02*
X173725000Y-107143299D01*
D15*
X124750000Y-116800000D02*
X125750000Y-116800000D01*
X137000000Y-116800000D02*
X184550000Y-116800000D01*
D16*
X171500000Y-102250000D02*
X171500000Y-104918299D01*
D15*
X184550000Y-116800000D02*
X185250000Y-117500000D01*
D16*
X173725000Y-107926701D02*
X183298299Y-117500000D01*
X173725000Y-107143299D02*
X173725000Y-107926701D01*
%TO.N,+3.3V*%
X137000000Y-121000000D02*
X136750000Y-121250000D01*
X99500000Y-124500000D02*
X99000000Y-124000000D01*
X126750000Y-121250000D02*
X123500000Y-124500000D01*
X99000000Y-124000000D02*
X99000000Y-121700000D01*
X136750000Y-121250000D02*
X126750000Y-121250000D01*
X123500000Y-124500000D02*
X99500000Y-124500000D01*
%TO.N,Net-(J1-Pin_11)*%
X136000000Y-99070000D02*
X129820000Y-105250000D01*
X141838299Y-121250000D02*
X150125000Y-121250000D01*
X150125000Y-121250000D02*
X150765000Y-121890000D01*
X140705000Y-123356701D02*
X140705000Y-122383299D01*
X150765000Y-121890000D02*
X151250000Y-121890000D01*
X124609454Y-128776942D02*
X128891396Y-124495000D01*
X140705000Y-122383299D02*
X141838299Y-121250000D01*
X129820000Y-105250000D02*
X115750000Y-105250000D01*
X112776942Y-128776942D02*
X124609454Y-128776942D01*
X109500000Y-125500000D02*
X112776942Y-128776942D01*
X113750000Y-108750000D02*
X110250000Y-112250000D01*
X128891396Y-124495000D02*
X139566701Y-124495000D01*
X151250000Y-121890000D02*
X152230000Y-122870000D01*
X139566701Y-124495000D02*
X140705000Y-123356701D01*
X110250000Y-112250000D02*
X109000000Y-112250000D01*
%TO.N,Net-(J2-Pin_13)*%
X108820000Y-119500000D02*
X106620000Y-121700000D01*
X137000000Y-119500000D02*
X108820000Y-119500000D01*
X145500000Y-111000000D02*
X154750000Y-111000000D01*
%TO.N,Net-(J2-Pin_14)*%
X128705000Y-124045000D02*
X137666701Y-124045000D01*
X138355000Y-122383299D02*
X140738299Y-120000000D01*
X122348058Y-128151942D02*
X124598058Y-128151942D01*
X138355000Y-123356701D02*
X138355000Y-122383299D01*
X140738299Y-120000000D02*
X151500000Y-120000000D01*
X137666701Y-124045000D02*
X138355000Y-123356701D01*
X124598058Y-128151942D02*
X128705000Y-124045000D01*
%TO.N,Net-(J2-Pin_21)*%
X134450000Y-115200000D02*
X134916942Y-115666942D01*
X134450000Y-114366116D02*
X134450000Y-115200000D01*
X118230000Y-120250000D02*
X130333884Y-120250000D01*
%TO.N,Net-(J2-Pin_12)*%
X144000000Y-110250000D02*
X157250000Y-110250000D01*
X138355000Y-108116701D02*
X140038299Y-109800000D01*
X140038299Y-109800000D02*
X143550000Y-109800000D01*
X143550000Y-109800000D02*
X144000000Y-110250000D01*
X157250000Y-110250000D02*
X157310000Y-110190000D01*
X138355000Y-99265000D02*
X138355000Y-108116701D01*
X138550000Y-99070000D02*
X138355000Y-99265000D01*
%TO.N,Net-(J2-Pin_20)*%
X137036942Y-112286942D02*
X136783058Y-112033058D01*
X137036942Y-113546942D02*
X136990000Y-113500000D01*
X137036942Y-113546942D02*
X137036942Y-112286942D01*
%TO.N,Net-(J2-Pin_9)*%
X163060000Y-109500000D02*
X164930000Y-107630000D01*
X120310000Y-102250000D02*
X121540000Y-103480000D01*
X103750000Y-102250000D02*
X120310000Y-102250000D01*
X144500000Y-109500000D02*
X163060000Y-109500000D01*
X103695000Y-102305000D02*
X103750000Y-102250000D01*
%TO.N,Net-(J2-Pin_7)*%
X98550000Y-122913604D02*
X98550000Y-125300000D01*
X128946357Y-111408058D02*
X141658058Y-111408058D01*
X141658058Y-111408058D02*
X144000000Y-113750000D01*
X109570000Y-106750000D02*
X124288299Y-106750000D01*
X106300000Y-103480000D02*
X109570000Y-106750000D01*
X124288299Y-106750000D02*
X128946357Y-111408058D01*
X94250000Y-118613604D02*
X98550000Y-122913604D01*
X99250000Y-126000000D02*
X107220000Y-126000000D01*
X94250000Y-111500000D02*
X94250000Y-118613604D01*
X98550000Y-125300000D02*
X99250000Y-126000000D01*
X107220000Y-126000000D02*
X112650000Y-131430000D01*
X144000000Y-113750000D02*
X169750000Y-113750000D01*
%TO.N,Net-(J2-Pin_6)*%
X97950000Y-122950000D02*
X93500000Y-118500000D01*
X93500000Y-118500000D02*
X93500000Y-112500000D01*
X110250000Y-131430000D02*
X105820000Y-127000000D01*
X102041940Y-112658056D02*
X102383884Y-113000000D01*
X105820000Y-127000000D02*
X98750000Y-127000000D01*
X101958059Y-112658056D02*
X102041940Y-112658056D01*
X137106116Y-114500000D02*
X172500000Y-114500000D01*
X135606116Y-113000000D02*
X137106116Y-114500000D01*
X98750000Y-127000000D02*
X97950000Y-126200000D01*
X102383884Y-113000000D02*
X135606116Y-113000000D01*
X97950000Y-126200000D02*
X97950000Y-122950000D01*
%TO.N,Net-(J2-Pin_5)*%
X104170000Y-127750000D02*
X107850000Y-131430000D01*
X92750000Y-113500000D02*
X92750000Y-118500000D01*
X92750000Y-118500000D02*
X97500000Y-123250000D01*
X97500000Y-126608757D02*
X98641243Y-127750000D01*
X97500000Y-123250000D02*
X97500000Y-126608757D01*
X98641243Y-127750000D02*
X104170000Y-127750000D01*
%TO.N,Net-(J2-Pin_4)*%
X137475000Y-108805000D02*
X138920000Y-110250000D01*
X92125000Y-114500000D02*
X92125000Y-118625000D01*
X138920000Y-110250000D02*
X142866116Y-110250000D01*
X92125000Y-118625000D02*
X97000000Y-123500000D01*
X142866116Y-110250000D02*
X145491116Y-112875000D01*
X135815000Y-108116701D02*
X136503299Y-108805000D01*
X136503299Y-108805000D02*
X137475000Y-108805000D01*
X105170000Y-134250000D02*
X105450000Y-133970000D01*
X135815000Y-107145000D02*
X135815000Y-108116701D01*
X134500000Y-105830000D02*
X135815000Y-107145000D01*
X175125000Y-112875000D02*
X175250000Y-112750000D01*
X97000000Y-133250000D02*
X97720000Y-133970000D01*
X97720000Y-133970000D02*
X105450000Y-133970000D01*
X145491116Y-112875000D02*
X175125000Y-112875000D01*
X97000000Y-123500000D02*
X97000000Y-133250000D01*
%TO.N,Net-(J2-Pin_2)*%
X180250000Y-104500000D02*
X180250000Y-105170000D01*
X186000000Y-125750000D02*
X186000000Y-123781701D01*
X180250000Y-105170000D02*
X182710000Y-107630000D01*
X160500000Y-99020000D02*
X171055000Y-99020000D01*
X171055000Y-99020000D02*
X175460000Y-103425000D01*
X179750000Y-104000000D02*
X180250000Y-104500000D01*
X186425000Y-111345000D02*
X182710000Y-107630000D01*
X186425000Y-123356701D02*
X186425000Y-111345000D01*
X186000000Y-123781701D02*
X186425000Y-123356701D01*
%TO.N,SPORT_MCU*%
X174095000Y-102938299D02*
X171756701Y-100600000D01*
X159080000Y-100600000D02*
X157500000Y-99020000D01*
X176638299Y-106455000D02*
X174095000Y-103911701D01*
X171756701Y-100600000D02*
X159080000Y-100600000D01*
X178995000Y-106455000D02*
X176638299Y-106455000D01*
X174095000Y-103911701D02*
X174095000Y-102938299D01*
X180170000Y-107630000D02*
X178995000Y-106455000D01*
%TO.N,Net-(J2-Pin_5)*%
X136750000Y-115250000D02*
X173500000Y-115250000D01*
X135000000Y-113500000D02*
X136750000Y-115250000D01*
X102000000Y-113500000D02*
X135000000Y-113500000D01*
%TD*%
%TA.AperFunction,Conductor*%
%TO.N,GND*%
G36*
X149224075Y-123062993D02*
G01*
X149289901Y-123177007D01*
X149382993Y-123270099D01*
X149497007Y-123335925D01*
X149560590Y-123352962D01*
X148928282Y-123985269D01*
X148928282Y-123985270D01*
X148982449Y-124024624D01*
X149171782Y-124121095D01*
X149373870Y-124186757D01*
X149583754Y-124220000D01*
X149796246Y-124220000D01*
X150006127Y-124186757D01*
X150006130Y-124186757D01*
X150208217Y-124121095D01*
X150397554Y-124024622D01*
X150451716Y-123985270D01*
X150451717Y-123985270D01*
X149819408Y-123352962D01*
X149882993Y-123335925D01*
X149997007Y-123270099D01*
X150090099Y-123177007D01*
X150155925Y-123062993D01*
X150172962Y-122999409D01*
X150805270Y-123631717D01*
X150805270Y-123631716D01*
X150844622Y-123577555D01*
X150849232Y-123568507D01*
X150897205Y-123517709D01*
X150965025Y-123500912D01*
X151031161Y-123523447D01*
X151070204Y-123568504D01*
X151074949Y-123577817D01*
X151199890Y-123749786D01*
X151350213Y-123900109D01*
X151522179Y-124025048D01*
X151522181Y-124025049D01*
X151522184Y-124025051D01*
X151711588Y-124121557D01*
X151913757Y-124187246D01*
X152123713Y-124220500D01*
X152123714Y-124220500D01*
X152336286Y-124220500D01*
X152336287Y-124220500D01*
X152546243Y-124187246D01*
X152748412Y-124121557D01*
X152937816Y-124025051D01*
X153024478Y-123962088D01*
X153109786Y-123900109D01*
X153109788Y-123900106D01*
X153109792Y-123900104D01*
X153260104Y-123749792D01*
X153260106Y-123749788D01*
X153260109Y-123749786D01*
X153385048Y-123577820D01*
X153385047Y-123577820D01*
X153385051Y-123577816D01*
X153389514Y-123569054D01*
X153437488Y-123518259D01*
X153505308Y-123501463D01*
X153571444Y-123523999D01*
X153610486Y-123569056D01*
X153614951Y-123577820D01*
X153739890Y-123749786D01*
X153890213Y-123900109D01*
X154062179Y-124025048D01*
X154062181Y-124025049D01*
X154062184Y-124025051D01*
X154251588Y-124121557D01*
X154453757Y-124187246D01*
X154663713Y-124220500D01*
X154663714Y-124220500D01*
X154876286Y-124220500D01*
X154876287Y-124220500D01*
X155086243Y-124187246D01*
X155288412Y-124121557D01*
X155477816Y-124025051D01*
X155564478Y-123962088D01*
X155649786Y-123900109D01*
X155649788Y-123900106D01*
X155649792Y-123900104D01*
X155800104Y-123749792D01*
X155800106Y-123749788D01*
X155800109Y-123749786D01*
X155925048Y-123577820D01*
X155925047Y-123577820D01*
X155925051Y-123577816D01*
X155929514Y-123569054D01*
X155977488Y-123518259D01*
X156045308Y-123501463D01*
X156111444Y-123523999D01*
X156150486Y-123569056D01*
X156154951Y-123577820D01*
X156279890Y-123749786D01*
X156430213Y-123900109D01*
X156602179Y-124025048D01*
X156602181Y-124025049D01*
X156602184Y-124025051D01*
X156791588Y-124121557D01*
X156993757Y-124187246D01*
X157203713Y-124220500D01*
X157203714Y-124220500D01*
X157416286Y-124220500D01*
X157416287Y-124220500D01*
X157626243Y-124187246D01*
X157828412Y-124121557D01*
X158017816Y-124025051D01*
X158104478Y-123962088D01*
X158189786Y-123900109D01*
X158189788Y-123900106D01*
X158189792Y-123900104D01*
X158340104Y-123749792D01*
X158340106Y-123749788D01*
X158340109Y-123749786D01*
X158465048Y-123577820D01*
X158465047Y-123577820D01*
X158465051Y-123577816D01*
X158469514Y-123569054D01*
X158517488Y-123518259D01*
X158585308Y-123501463D01*
X158651444Y-123523999D01*
X158690486Y-123569056D01*
X158694951Y-123577820D01*
X158819890Y-123749786D01*
X158970213Y-123900109D01*
X159142179Y-124025048D01*
X159142181Y-124025049D01*
X159142184Y-124025051D01*
X159331588Y-124121557D01*
X159533757Y-124187246D01*
X159743713Y-124220500D01*
X159743714Y-124220500D01*
X159956286Y-124220500D01*
X159956287Y-124220500D01*
X160166243Y-124187246D01*
X160368412Y-124121557D01*
X160557816Y-124025051D01*
X160644478Y-123962088D01*
X160729786Y-123900109D01*
X160729788Y-123900106D01*
X160729792Y-123900104D01*
X160880104Y-123749792D01*
X160880106Y-123749788D01*
X160880109Y-123749786D01*
X161005048Y-123577820D01*
X161005047Y-123577820D01*
X161005051Y-123577816D01*
X161009514Y-123569054D01*
X161057488Y-123518259D01*
X161125308Y-123501463D01*
X161191444Y-123523999D01*
X161230486Y-123569056D01*
X161234951Y-123577820D01*
X161359890Y-123749786D01*
X161510213Y-123900109D01*
X161682179Y-124025048D01*
X161682181Y-124025049D01*
X161682184Y-124025051D01*
X161871588Y-124121557D01*
X162073757Y-124187246D01*
X162283713Y-124220500D01*
X162283714Y-124220500D01*
X162496286Y-124220500D01*
X162496287Y-124220500D01*
X162706243Y-124187246D01*
X162908412Y-124121557D01*
X163097816Y-124025051D01*
X163184478Y-123962088D01*
X163269786Y-123900109D01*
X163269788Y-123900106D01*
X163269792Y-123900104D01*
X163420104Y-123749792D01*
X163420106Y-123749788D01*
X163420109Y-123749786D01*
X163545048Y-123577820D01*
X163545047Y-123577820D01*
X163545051Y-123577816D01*
X163549514Y-123569054D01*
X163597488Y-123518259D01*
X163665308Y-123501463D01*
X163731444Y-123523999D01*
X163770486Y-123569056D01*
X163774951Y-123577820D01*
X163899890Y-123749786D01*
X164050213Y-123900109D01*
X164222179Y-124025048D01*
X164222181Y-124025049D01*
X164222184Y-124025051D01*
X164411588Y-124121557D01*
X164613757Y-124187246D01*
X164823713Y-124220500D01*
X164823714Y-124220500D01*
X165036286Y-124220500D01*
X165036287Y-124220500D01*
X165246243Y-124187246D01*
X165448412Y-124121557D01*
X165637816Y-124025051D01*
X165724478Y-123962088D01*
X165809786Y-123900109D01*
X165809788Y-123900106D01*
X165809792Y-123900104D01*
X165960104Y-123749792D01*
X165960106Y-123749788D01*
X165960109Y-123749786D01*
X166085048Y-123577820D01*
X166085047Y-123577820D01*
X166085051Y-123577816D01*
X166089514Y-123569054D01*
X166137488Y-123518259D01*
X166205308Y-123501463D01*
X166271444Y-123523999D01*
X166310486Y-123569056D01*
X166314951Y-123577820D01*
X166439890Y-123749786D01*
X166590213Y-123900109D01*
X166762179Y-124025048D01*
X166762181Y-124025049D01*
X166762184Y-124025051D01*
X166951588Y-124121557D01*
X167153757Y-124187246D01*
X167363713Y-124220500D01*
X167363714Y-124220500D01*
X167576286Y-124220500D01*
X167576287Y-124220500D01*
X167786243Y-124187246D01*
X167988412Y-124121557D01*
X168177816Y-124025051D01*
X168264478Y-123962088D01*
X168349786Y-123900109D01*
X168349788Y-123900106D01*
X168349792Y-123900104D01*
X168500104Y-123749792D01*
X168500106Y-123749788D01*
X168500109Y-123749786D01*
X168625048Y-123577820D01*
X168625047Y-123577820D01*
X168625051Y-123577816D01*
X168629514Y-123569054D01*
X168677488Y-123518259D01*
X168745308Y-123501463D01*
X168811444Y-123523999D01*
X168850486Y-123569056D01*
X168854951Y-123577820D01*
X168979890Y-123749786D01*
X169130213Y-123900109D01*
X169302179Y-124025048D01*
X169302181Y-124025049D01*
X169302184Y-124025051D01*
X169491588Y-124121557D01*
X169693757Y-124187246D01*
X169903713Y-124220500D01*
X169903714Y-124220500D01*
X170116286Y-124220500D01*
X170116287Y-124220500D01*
X170326243Y-124187246D01*
X170528412Y-124121557D01*
X170717816Y-124025051D01*
X170804478Y-123962088D01*
X170889786Y-123900109D01*
X170889788Y-123900106D01*
X170889792Y-123900104D01*
X171040104Y-123749792D01*
X171040106Y-123749788D01*
X171040109Y-123749786D01*
X171165048Y-123577820D01*
X171165047Y-123577820D01*
X171165051Y-123577816D01*
X171169514Y-123569054D01*
X171217488Y-123518259D01*
X171285308Y-123501463D01*
X171351444Y-123523999D01*
X171390486Y-123569056D01*
X171394951Y-123577820D01*
X171519890Y-123749786D01*
X171670213Y-123900109D01*
X171842179Y-124025048D01*
X171842181Y-124025049D01*
X171842184Y-124025051D01*
X172031588Y-124121557D01*
X172233757Y-124187246D01*
X172443713Y-124220500D01*
X172443714Y-124220500D01*
X172656286Y-124220500D01*
X172656287Y-124220500D01*
X172866243Y-124187246D01*
X173068412Y-124121557D01*
X173257816Y-124025051D01*
X173344478Y-123962088D01*
X173429786Y-123900109D01*
X173429788Y-123900106D01*
X173429792Y-123900104D01*
X173580104Y-123749792D01*
X173580106Y-123749788D01*
X173580109Y-123749786D01*
X173705048Y-123577820D01*
X173705047Y-123577820D01*
X173705051Y-123577816D01*
X173709514Y-123569054D01*
X173757488Y-123518259D01*
X173825308Y-123501463D01*
X173891444Y-123523999D01*
X173930486Y-123569056D01*
X173934951Y-123577820D01*
X174059890Y-123749786D01*
X174210213Y-123900109D01*
X174382179Y-124025048D01*
X174382181Y-124025049D01*
X174382184Y-124025051D01*
X174571588Y-124121557D01*
X174773757Y-124187246D01*
X174983713Y-124220500D01*
X174983714Y-124220500D01*
X175196286Y-124220500D01*
X175196287Y-124220500D01*
X175406243Y-124187246D01*
X175608412Y-124121557D01*
X175797816Y-124025051D01*
X175884478Y-123962088D01*
X175969786Y-123900109D01*
X175969788Y-123900106D01*
X175969792Y-123900104D01*
X176120104Y-123749792D01*
X176120106Y-123749788D01*
X176120109Y-123749786D01*
X176245048Y-123577820D01*
X176245047Y-123577820D01*
X176245051Y-123577816D01*
X176249514Y-123569054D01*
X176297488Y-123518259D01*
X176365308Y-123501463D01*
X176431444Y-123523999D01*
X176470486Y-123569056D01*
X176474951Y-123577820D01*
X176599890Y-123749786D01*
X176750213Y-123900109D01*
X176922179Y-124025048D01*
X176922181Y-124025049D01*
X176922184Y-124025051D01*
X177111588Y-124121557D01*
X177313757Y-124187246D01*
X177523713Y-124220500D01*
X177523714Y-124220500D01*
X177736286Y-124220500D01*
X177736287Y-124220500D01*
X177946243Y-124187246D01*
X178148412Y-124121557D01*
X178337816Y-124025051D01*
X178424478Y-123962088D01*
X178509786Y-123900109D01*
X178509788Y-123900106D01*
X178509792Y-123900104D01*
X178660104Y-123749792D01*
X178660106Y-123749788D01*
X178660109Y-123749786D01*
X178785048Y-123577820D01*
X178785047Y-123577820D01*
X178785051Y-123577816D01*
X178789514Y-123569054D01*
X178837488Y-123518259D01*
X178905308Y-123501463D01*
X178971444Y-123523999D01*
X179010486Y-123569056D01*
X179014951Y-123577820D01*
X179139890Y-123749786D01*
X179290213Y-123900109D01*
X179462179Y-124025048D01*
X179462181Y-124025049D01*
X179462184Y-124025051D01*
X179651588Y-124121557D01*
X179853757Y-124187246D01*
X180063713Y-124220500D01*
X180063714Y-124220500D01*
X180276286Y-124220500D01*
X180276287Y-124220500D01*
X180486243Y-124187246D01*
X180688412Y-124121557D01*
X180877816Y-124025051D01*
X180964478Y-123962088D01*
X181049784Y-123900110D01*
X181049784Y-123900109D01*
X181049792Y-123900104D01*
X181163717Y-123786178D01*
X181225036Y-123752696D01*
X181294728Y-123757680D01*
X181350662Y-123799551D01*
X181367577Y-123830528D01*
X181416646Y-123962088D01*
X181416649Y-123962093D01*
X181502809Y-124077187D01*
X181502812Y-124077190D01*
X181617906Y-124163350D01*
X181617913Y-124163354D01*
X181752620Y-124213596D01*
X181752627Y-124213598D01*
X181812155Y-124219999D01*
X181812172Y-124220000D01*
X182460000Y-124220000D01*
X182460000Y-123303012D01*
X182517007Y-123335925D01*
X182644174Y-123370000D01*
X182775826Y-123370000D01*
X182902993Y-123335925D01*
X182960000Y-123303012D01*
X182960000Y-124220000D01*
X183607828Y-124220000D01*
X183607844Y-124219999D01*
X183667372Y-124213598D01*
X183667379Y-124213596D01*
X183802086Y-124163354D01*
X183802093Y-124163350D01*
X183917187Y-124077190D01*
X183917190Y-124077187D01*
X184003350Y-123962093D01*
X184003354Y-123962086D01*
X184052422Y-123830529D01*
X184094293Y-123774595D01*
X184159757Y-123750178D01*
X184228030Y-123765030D01*
X184256285Y-123786181D01*
X184370213Y-123900109D01*
X184542179Y-124025048D01*
X184542181Y-124025049D01*
X184542184Y-124025051D01*
X184731588Y-124121557D01*
X184933757Y-124187246D01*
X185143713Y-124220500D01*
X185143714Y-124220500D01*
X185250500Y-124220500D01*
X185317539Y-124240185D01*
X185363294Y-124292989D01*
X185374500Y-124344500D01*
X185374500Y-125207650D01*
X185354815Y-125274689D01*
X185353602Y-125276541D01*
X185290609Y-125370815D01*
X185290602Y-125370828D01*
X185230264Y-125516498D01*
X185230261Y-125516510D01*
X185199500Y-125671153D01*
X185199500Y-125828846D01*
X185230261Y-125983489D01*
X185230264Y-125983501D01*
X185290602Y-126129172D01*
X185290609Y-126129185D01*
X185378210Y-126260288D01*
X185378213Y-126260292D01*
X185489707Y-126371786D01*
X185489711Y-126371789D01*
X185620814Y-126459390D01*
X185620827Y-126459397D01*
X185729425Y-126504379D01*
X185766503Y-126519737D01*
X185913994Y-126549075D01*
X185921153Y-126550499D01*
X185921156Y-126550500D01*
X185921158Y-126550500D01*
X186078844Y-126550500D01*
X186078845Y-126550499D01*
X186233497Y-126519737D01*
X186328048Y-126480572D01*
X186397517Y-126473104D01*
X186459996Y-126504379D01*
X186495648Y-126564468D01*
X186499500Y-126595134D01*
X186499500Y-134243040D01*
X186498720Y-134256922D01*
X186498720Y-134256923D01*
X186488541Y-134347265D01*
X186482362Y-134374337D01*
X186454649Y-134453535D01*
X186442602Y-134478552D01*
X186397957Y-134549604D01*
X186380644Y-134571313D01*
X186321313Y-134630644D01*
X186299604Y-134647957D01*
X186228552Y-134692602D01*
X186203535Y-134704649D01*
X186124337Y-134732362D01*
X186097265Y-134738541D01*
X186006923Y-134748720D01*
X185993040Y-134749500D01*
X161437242Y-134749500D01*
X161370203Y-134729815D01*
X161324448Y-134677011D01*
X161314504Y-134607853D01*
X161326757Y-134569205D01*
X161412545Y-134400836D01*
X161412545Y-134400835D01*
X161412547Y-134400832D01*
X161470940Y-134221118D01*
X161476802Y-134184108D01*
X161500500Y-134034486D01*
X161500500Y-133845513D01*
X161470940Y-133658881D01*
X161412545Y-133479163D01*
X161333900Y-133324815D01*
X161326760Y-133310801D01*
X161215690Y-133157927D01*
X161082073Y-133024310D01*
X160929199Y-132913240D01*
X160760836Y-132827454D01*
X160686472Y-132803291D01*
X160639195Y-132787930D01*
X160581521Y-132748493D01*
X160554323Y-132684134D01*
X160566238Y-132615288D01*
X160613482Y-132563812D01*
X160639194Y-132552069D01*
X160760832Y-132512547D01*
X160929199Y-132426760D01*
X161082073Y-132315690D01*
X161215690Y-132182073D01*
X161326760Y-132029199D01*
X161412547Y-131860832D01*
X161470940Y-131681118D01*
X161500500Y-131494486D01*
X161500500Y-131305513D01*
X161470940Y-131118881D01*
X161414364Y-130944760D01*
X161412547Y-130939168D01*
X161412545Y-130939165D01*
X161412545Y-130939163D01*
X161326759Y-130770800D01*
X161215690Y-130617927D01*
X161082073Y-130484310D01*
X161079495Y-130482437D01*
X161033156Y-130448768D01*
X161033133Y-130448753D01*
X160929199Y-130373240D01*
X160888467Y-130352486D01*
X180249500Y-130352486D01*
X180249500Y-130647513D01*
X180265732Y-130770800D01*
X180288007Y-130939993D01*
X180335940Y-131118881D01*
X180364361Y-131224951D01*
X180364364Y-131224961D01*
X180477254Y-131497500D01*
X180477258Y-131497510D01*
X180624761Y-131752993D01*
X180804352Y-131987040D01*
X180804358Y-131987047D01*
X181012952Y-132195641D01*
X181012959Y-132195647D01*
X181247006Y-132375238D01*
X181502489Y-132522741D01*
X181502490Y-132522741D01*
X181502493Y-132522743D01*
X181775048Y-132635639D01*
X182060007Y-132711993D01*
X182352494Y-132750500D01*
X182352501Y-132750500D01*
X182647499Y-132750500D01*
X182647506Y-132750500D01*
X182939993Y-132711993D01*
X183224952Y-132635639D01*
X183497507Y-132522743D01*
X183752994Y-132375238D01*
X183987042Y-132195646D01*
X184195646Y-131987042D01*
X184375238Y-131752994D01*
X184522743Y-131497507D01*
X184635639Y-131224952D01*
X184711993Y-130939993D01*
X184750500Y-130647506D01*
X184750500Y-130352494D01*
X184711993Y-130060007D01*
X184635639Y-129775048D01*
X184522743Y-129502493D01*
X184451100Y-129378404D01*
X184375238Y-129247006D01*
X184195647Y-129012959D01*
X184195641Y-129012952D01*
X183987047Y-128804358D01*
X183987040Y-128804352D01*
X183752993Y-128624761D01*
X183497510Y-128477258D01*
X183497500Y-128477254D01*
X183224961Y-128364364D01*
X183224954Y-128364362D01*
X183224952Y-128364361D01*
X182939993Y-128288007D01*
X182891113Y-128281571D01*
X182647513Y-128249500D01*
X182647506Y-128249500D01*
X182352494Y-128249500D01*
X182352486Y-128249500D01*
X182074085Y-128286153D01*
X182060007Y-128288007D01*
X181823192Y-128351461D01*
X181775048Y-128364361D01*
X181775038Y-128364364D01*
X181502499Y-128477254D01*
X181502489Y-128477258D01*
X181247006Y-128624761D01*
X181012959Y-128804352D01*
X181012952Y-128804358D01*
X180804358Y-129012952D01*
X180804352Y-129012959D01*
X180624761Y-129247006D01*
X180477258Y-129502489D01*
X180477254Y-129502499D01*
X180364364Y-129775038D01*
X180364361Y-129775048D01*
X180288008Y-130060004D01*
X180288006Y-130060015D01*
X180249500Y-130352486D01*
X160888467Y-130352486D01*
X160760836Y-130287454D01*
X160581118Y-130229059D01*
X160394486Y-130199500D01*
X160394481Y-130199500D01*
X160205519Y-130199500D01*
X160205514Y-130199500D01*
X160018881Y-130229059D01*
X159839163Y-130287454D01*
X159670800Y-130373240D01*
X159583579Y-130436610D01*
X159517927Y-130484310D01*
X159517925Y-130484312D01*
X159517924Y-130484312D01*
X159384312Y-130617924D01*
X159384312Y-130617925D01*
X159384310Y-130617927D01*
X159336610Y-130683579D01*
X159273240Y-130770800D01*
X159187454Y-130939163D01*
X159129059Y-131118881D01*
X159099500Y-131305513D01*
X159099500Y-131494486D01*
X159129059Y-131681118D01*
X159187454Y-131860836D01*
X159273240Y-132029199D01*
X159384310Y-132182073D01*
X159517927Y-132315690D01*
X159670801Y-132426760D01*
X159750347Y-132467290D01*
X159839163Y-132512545D01*
X159839165Y-132512545D01*
X159839168Y-132512547D01*
X159928734Y-132541649D01*
X159960803Y-132552069D01*
X160018478Y-132591507D01*
X160045676Y-132655866D01*
X160033761Y-132724712D01*
X159986516Y-132776188D01*
X159960803Y-132787931D01*
X159839163Y-132827454D01*
X159670800Y-132913240D01*
X159634591Y-132939548D01*
X159517927Y-133024310D01*
X159517925Y-133024312D01*
X159517924Y-133024312D01*
X159384312Y-133157924D01*
X159384312Y-133157925D01*
X159384310Y-133157927D01*
X159362175Y-133188393D01*
X159273240Y-133310800D01*
X159187454Y-133479163D01*
X159129059Y-133658881D01*
X159099500Y-133845513D01*
X159099500Y-134034486D01*
X159129059Y-134221118D01*
X159187454Y-134400836D01*
X159273243Y-134569205D01*
X159286139Y-134637874D01*
X159259863Y-134702615D01*
X159202756Y-134742872D01*
X159162758Y-134749500D01*
X158687242Y-134749500D01*
X158620203Y-134729815D01*
X158574448Y-134677011D01*
X158564504Y-134607853D01*
X158576757Y-134569205D01*
X158662545Y-134400836D01*
X158662545Y-134400835D01*
X158662547Y-134400832D01*
X158720940Y-134221118D01*
X158726802Y-134184108D01*
X158750500Y-134034486D01*
X158750500Y-133845513D01*
X158720940Y-133658881D01*
X158662545Y-133479163D01*
X158583900Y-133324815D01*
X158576760Y-133310801D01*
X158465690Y-133157927D01*
X158332073Y-133024310D01*
X158179199Y-132913240D01*
X158010836Y-132827454D01*
X157936472Y-132803291D01*
X157889195Y-132787930D01*
X157831521Y-132748493D01*
X157804323Y-132684134D01*
X157816238Y-132615288D01*
X157863482Y-132563812D01*
X157889194Y-132552069D01*
X158010832Y-132512547D01*
X158179199Y-132426760D01*
X158332073Y-132315690D01*
X158465690Y-132182073D01*
X158576760Y-132029199D01*
X158662547Y-131860832D01*
X158720940Y-131681118D01*
X158750500Y-131494486D01*
X158750500Y-131305513D01*
X158720940Y-131118881D01*
X158664364Y-130944760D01*
X158662547Y-130939168D01*
X158662545Y-130939165D01*
X158662545Y-130939163D01*
X158576759Y-130770800D01*
X158465690Y-130617927D01*
X158332073Y-130484310D01*
X158179199Y-130373240D01*
X158010836Y-130287454D01*
X157831118Y-130229059D01*
X157644486Y-130199500D01*
X157644481Y-130199500D01*
X157455519Y-130199500D01*
X157455514Y-130199500D01*
X157268881Y-130229059D01*
X157089163Y-130287454D01*
X156920800Y-130373240D01*
X156833579Y-130436610D01*
X156767927Y-130484310D01*
X156767925Y-130484312D01*
X156767924Y-130484312D01*
X156634312Y-130617924D01*
X156634312Y-130617925D01*
X156634310Y-130617927D01*
X156586610Y-130683579D01*
X156523240Y-130770800D01*
X156437454Y-130939163D01*
X156379059Y-131118881D01*
X156349500Y-131305513D01*
X156349500Y-131494486D01*
X156379059Y-131681118D01*
X156437454Y-131860836D01*
X156523240Y-132029199D01*
X156634310Y-132182073D01*
X156767927Y-132315690D01*
X156920801Y-132426760D01*
X157000347Y-132467290D01*
X157089163Y-132512545D01*
X157089165Y-132512545D01*
X157089168Y-132512547D01*
X157178734Y-132541649D01*
X157210803Y-132552069D01*
X157268478Y-132591507D01*
X157295676Y-132655866D01*
X157283761Y-132724712D01*
X157236516Y-132776188D01*
X157210803Y-132787931D01*
X157089163Y-132827454D01*
X156920800Y-132913240D01*
X156884591Y-132939548D01*
X156767927Y-133024310D01*
X156767925Y-133024312D01*
X156767924Y-133024312D01*
X156634312Y-133157924D01*
X156634312Y-133157925D01*
X156634310Y-133157927D01*
X156612175Y-133188393D01*
X156523240Y-133310800D01*
X156437454Y-133479163D01*
X156379059Y-133658881D01*
X156349500Y-133845513D01*
X156349500Y-134034486D01*
X156379059Y-134221118D01*
X156437454Y-134400836D01*
X156523243Y-134569205D01*
X156536139Y-134637874D01*
X156509863Y-134702615D01*
X156452756Y-134742872D01*
X156412758Y-134749500D01*
X148256960Y-134749500D01*
X148243077Y-134748720D01*
X148152734Y-134738541D01*
X148125662Y-134732362D01*
X148046464Y-134704649D01*
X148021447Y-134692602D01*
X147950395Y-134647957D01*
X147928686Y-134630644D01*
X147869355Y-134571313D01*
X147852042Y-134549604D01*
X147807395Y-134478549D01*
X147795351Y-134453539D01*
X147767636Y-134374333D01*
X147761458Y-134347268D01*
X147751280Y-134256922D01*
X147750500Y-134243040D01*
X147750500Y-130352486D01*
X149749500Y-130352486D01*
X149749500Y-130647513D01*
X149765732Y-130770800D01*
X149788007Y-130939993D01*
X149835940Y-131118881D01*
X149864361Y-131224951D01*
X149864364Y-131224961D01*
X149977254Y-131497500D01*
X149977258Y-131497510D01*
X150124761Y-131752993D01*
X150304352Y-131987040D01*
X150304358Y-131987047D01*
X150512952Y-132195641D01*
X150512959Y-132195647D01*
X150747006Y-132375238D01*
X151002489Y-132522741D01*
X151002490Y-132522741D01*
X151002493Y-132522743D01*
X151275048Y-132635639D01*
X151560007Y-132711993D01*
X151852494Y-132750500D01*
X151852501Y-132750500D01*
X152147499Y-132750500D01*
X152147506Y-132750500D01*
X152439993Y-132711993D01*
X152724952Y-132635639D01*
X152997507Y-132522743D01*
X153252994Y-132375238D01*
X153487042Y-132195646D01*
X153695646Y-131987042D01*
X153875238Y-131752994D01*
X154022743Y-131497507D01*
X154135639Y-131224952D01*
X154211993Y-130939993D01*
X154250500Y-130647506D01*
X154250500Y-130352494D01*
X154211993Y-130060007D01*
X154135639Y-129775048D01*
X154022743Y-129502493D01*
X153951100Y-129378404D01*
X153875238Y-129247006D01*
X153695647Y-129012959D01*
X153695641Y-129012952D01*
X153487047Y-128804358D01*
X153487040Y-128804352D01*
X153252993Y-128624761D01*
X152997510Y-128477258D01*
X152997500Y-128477254D01*
X152724961Y-128364364D01*
X152724954Y-128364362D01*
X152724952Y-128364361D01*
X152439993Y-128288007D01*
X152391113Y-128281571D01*
X152147513Y-128249500D01*
X152147506Y-128249500D01*
X151852494Y-128249500D01*
X151852486Y-128249500D01*
X151574085Y-128286153D01*
X151560007Y-128288007D01*
X151323192Y-128351461D01*
X151275048Y-128364361D01*
X151275038Y-128364364D01*
X151002499Y-128477254D01*
X151002489Y-128477258D01*
X150747006Y-128624761D01*
X150512959Y-128804352D01*
X150512952Y-128804358D01*
X150304358Y-129012952D01*
X150304352Y-129012959D01*
X150124761Y-129247006D01*
X149977258Y-129502489D01*
X149977254Y-129502499D01*
X149864364Y-129775038D01*
X149864361Y-129775048D01*
X149788008Y-130060004D01*
X149788006Y-130060015D01*
X149749500Y-130352486D01*
X147750500Y-130352486D01*
X147750500Y-127559794D01*
X147716575Y-127226183D01*
X147712015Y-127181344D01*
X147712015Y-127181340D01*
X147635439Y-126808720D01*
X147635436Y-126808709D01*
X147521562Y-126445766D01*
X147492909Y-126378997D01*
X147385707Y-126129185D01*
X147380545Y-126117155D01*
X162550000Y-126117155D01*
X162550000Y-126765000D01*
X163466988Y-126765000D01*
X163434075Y-126822007D01*
X163400000Y-126949174D01*
X163400000Y-127080826D01*
X163434075Y-127207993D01*
X163466988Y-127265000D01*
X162550000Y-127265000D01*
X162550000Y-127912844D01*
X162556401Y-127972372D01*
X162556403Y-127972379D01*
X162606645Y-128107086D01*
X162606649Y-128107093D01*
X162692809Y-128222187D01*
X162692812Y-128222190D01*
X162807906Y-128308350D01*
X162807913Y-128308354D01*
X162942620Y-128358596D01*
X162942627Y-128358598D01*
X163002155Y-128364999D01*
X163002172Y-128365000D01*
X163650000Y-128365000D01*
X163650000Y-127448012D01*
X163707007Y-127480925D01*
X163834174Y-127515000D01*
X163965826Y-127515000D01*
X164092993Y-127480925D01*
X164150000Y-127448012D01*
X164150000Y-128365000D01*
X164797828Y-128365000D01*
X164797844Y-128364999D01*
X164857372Y-128358598D01*
X164857379Y-128358596D01*
X164992086Y-128308354D01*
X164992093Y-128308350D01*
X165107187Y-128222190D01*
X165107190Y-128222187D01*
X165193350Y-128107093D01*
X165193354Y-128107086D01*
X165243596Y-127972379D01*
X165243598Y-127972372D01*
X165249999Y-127912844D01*
X165250000Y-127912827D01*
X165250000Y-127265000D01*
X164333012Y-127265000D01*
X164365925Y-127207993D01*
X164400000Y-127080826D01*
X164400000Y-126949174D01*
X164365925Y-126822007D01*
X164333012Y-126765000D01*
X165250000Y-126765000D01*
X165250000Y-126117172D01*
X165249999Y-126117155D01*
X165243598Y-126057627D01*
X165243596Y-126057620D01*
X165193354Y-125922913D01*
X165193350Y-125922906D01*
X165107190Y-125807812D01*
X165107187Y-125807809D01*
X164992093Y-125721649D01*
X164992086Y-125721645D01*
X164857379Y-125671403D01*
X164857372Y-125671401D01*
X164797844Y-125665000D01*
X164150000Y-125665000D01*
X164150000Y-126581988D01*
X164092993Y-126549075D01*
X163965826Y-126515000D01*
X163834174Y-126515000D01*
X163707007Y-126549075D01*
X163650000Y-126581988D01*
X163650000Y-125665000D01*
X163002155Y-125665000D01*
X162942627Y-125671401D01*
X162942620Y-125671403D01*
X162807913Y-125721645D01*
X162807906Y-125721649D01*
X162692812Y-125807809D01*
X162692809Y-125807812D01*
X162606649Y-125922906D01*
X162606645Y-125922913D01*
X162556403Y-126057620D01*
X162556401Y-126057627D01*
X162550000Y-126117155D01*
X147380545Y-126117155D01*
X147371545Y-126096182D01*
X147251102Y-125879185D01*
X147186931Y-125763571D01*
X146969616Y-125451346D01*
X146969614Y-125451343D01*
X146721829Y-125162709D01*
X146682685Y-125125500D01*
X146446112Y-124900620D01*
X146443674Y-124898733D01*
X146145295Y-124667771D01*
X145822472Y-124466553D01*
X145822463Y-124466548D01*
X145480940Y-124299022D01*
X145480925Y-124299016D01*
X145339953Y-124246806D01*
X145283923Y-124205064D01*
X145259356Y-124139656D01*
X145274050Y-124071349D01*
X145314481Y-124028749D01*
X145313875Y-124027915D01*
X145489786Y-123900109D01*
X145489788Y-123900106D01*
X145489792Y-123900104D01*
X145640104Y-123749792D01*
X145640106Y-123749788D01*
X145640109Y-123749786D01*
X145765048Y-123577820D01*
X145765047Y-123577820D01*
X145765051Y-123577816D01*
X145769514Y-123569054D01*
X145817488Y-123518259D01*
X145885308Y-123501463D01*
X145951444Y-123523999D01*
X145990486Y-123569056D01*
X145994951Y-123577820D01*
X146119890Y-123749786D01*
X146270213Y-123900109D01*
X146442179Y-124025048D01*
X146442181Y-124025049D01*
X146442184Y-124025051D01*
X146631588Y-124121557D01*
X146833757Y-124187246D01*
X147043713Y-124220500D01*
X147043714Y-124220500D01*
X147256286Y-124220500D01*
X147256287Y-124220500D01*
X147466243Y-124187246D01*
X147668412Y-124121557D01*
X147857816Y-124025051D01*
X147944478Y-123962088D01*
X148029786Y-123900109D01*
X148029788Y-123900106D01*
X148029792Y-123900104D01*
X148180104Y-123749792D01*
X148180106Y-123749788D01*
X148180109Y-123749786D01*
X148265890Y-123631717D01*
X148305051Y-123577816D01*
X148309793Y-123568508D01*
X148357763Y-123517711D01*
X148425583Y-123500911D01*
X148491719Y-123523445D01*
X148530763Y-123568500D01*
X148535373Y-123577547D01*
X148574728Y-123631716D01*
X149207036Y-122999407D01*
X149224075Y-123062993D01*
G37*
%TD.AperFunction*%
%TA.AperFunction,Conductor*%
G36*
X126007587Y-120895185D02*
G01*
X126053342Y-120947989D01*
X126063286Y-121017147D01*
X126034261Y-121080703D01*
X126028229Y-121087181D01*
X123277229Y-123838181D01*
X123215906Y-123871666D01*
X123189548Y-123874500D01*
X99810452Y-123874500D01*
X99781011Y-123865855D01*
X99751025Y-123859332D01*
X99746009Y-123855577D01*
X99743413Y-123854815D01*
X99722771Y-123838181D01*
X99661819Y-123777229D01*
X99628334Y-123715906D01*
X99625500Y-123689548D01*
X99625500Y-122972980D01*
X99645185Y-122905941D01*
X99693208Y-122862494D01*
X99707818Y-122855050D01*
X99879784Y-122730110D01*
X99879784Y-122730109D01*
X99879792Y-122730104D01*
X99993717Y-122616178D01*
X100055036Y-122582696D01*
X100124728Y-122587680D01*
X100180662Y-122629551D01*
X100197577Y-122660528D01*
X100246646Y-122792088D01*
X100246649Y-122792093D01*
X100332809Y-122907187D01*
X100332812Y-122907190D01*
X100447906Y-122993350D01*
X100447913Y-122993354D01*
X100582620Y-123043596D01*
X100582627Y-123043598D01*
X100642155Y-123049999D01*
X100642172Y-123050000D01*
X101290000Y-123050000D01*
X101290000Y-122133012D01*
X101347007Y-122165925D01*
X101474174Y-122200000D01*
X101605826Y-122200000D01*
X101732993Y-122165925D01*
X101790000Y-122133012D01*
X101790000Y-123050000D01*
X102437828Y-123050000D01*
X102437844Y-123049999D01*
X102497372Y-123043598D01*
X102497379Y-123043596D01*
X102632086Y-122993354D01*
X102632093Y-122993350D01*
X102747187Y-122907190D01*
X102747190Y-122907187D01*
X102833350Y-122792093D01*
X102833354Y-122792086D01*
X102882422Y-122660529D01*
X102924293Y-122604595D01*
X102989757Y-122580178D01*
X103058030Y-122595030D01*
X103086285Y-122616181D01*
X103200213Y-122730109D01*
X103372179Y-122855048D01*
X103372181Y-122855049D01*
X103372184Y-122855051D01*
X103561588Y-122951557D01*
X103763757Y-123017246D01*
X103973713Y-123050500D01*
X103973714Y-123050500D01*
X104186286Y-123050500D01*
X104186287Y-123050500D01*
X104396243Y-123017246D01*
X104598412Y-122951557D01*
X104787816Y-122855051D01*
X104837120Y-122819230D01*
X104959786Y-122730109D01*
X104959788Y-122730106D01*
X104959792Y-122730104D01*
X105110104Y-122579792D01*
X105110106Y-122579788D01*
X105110109Y-122579786D01*
X105235048Y-122407820D01*
X105235047Y-122407820D01*
X105235051Y-122407816D01*
X105239514Y-122399054D01*
X105287488Y-122348259D01*
X105355308Y-122331463D01*
X105421444Y-122353999D01*
X105460486Y-122399056D01*
X105464951Y-122407820D01*
X105589890Y-122579786D01*
X105740213Y-122730109D01*
X105912179Y-122855048D01*
X105912181Y-122855049D01*
X105912184Y-122855051D01*
X106101588Y-122951557D01*
X106303757Y-123017246D01*
X106513713Y-123050500D01*
X106513714Y-123050500D01*
X106726286Y-123050500D01*
X106726287Y-123050500D01*
X106936243Y-123017246D01*
X107138412Y-122951557D01*
X107327816Y-122855051D01*
X107377120Y-122819230D01*
X107499786Y-122730109D01*
X107499788Y-122730106D01*
X107499792Y-122730104D01*
X107650104Y-122579792D01*
X107650106Y-122579788D01*
X107650109Y-122579786D01*
X107775048Y-122407820D01*
X107775047Y-122407820D01*
X107775051Y-122407816D01*
X107779514Y-122399054D01*
X107827488Y-122348259D01*
X107895308Y-122331463D01*
X107961444Y-122353999D01*
X108000486Y-122399056D01*
X108004951Y-122407820D01*
X108129890Y-122579786D01*
X108280213Y-122730109D01*
X108452179Y-122855048D01*
X108452181Y-122855049D01*
X108452184Y-122855051D01*
X108641588Y-122951557D01*
X108843757Y-123017246D01*
X109053713Y-123050500D01*
X109053714Y-123050500D01*
X109266286Y-123050500D01*
X109266287Y-123050500D01*
X109476243Y-123017246D01*
X109678412Y-122951557D01*
X109867816Y-122855051D01*
X109917120Y-122819230D01*
X110039786Y-122730109D01*
X110039788Y-122730106D01*
X110039792Y-122730104D01*
X110190104Y-122579792D01*
X110190106Y-122579788D01*
X110190109Y-122579786D01*
X110315048Y-122407820D01*
X110315047Y-122407820D01*
X110315051Y-122407816D01*
X110319514Y-122399054D01*
X110367488Y-122348259D01*
X110435308Y-122331463D01*
X110501444Y-122353999D01*
X110540486Y-122399056D01*
X110544951Y-122407820D01*
X110669890Y-122579786D01*
X110820213Y-122730109D01*
X110992179Y-122855048D01*
X110992181Y-122855049D01*
X110992184Y-122855051D01*
X111181588Y-122951557D01*
X111383757Y-123017246D01*
X111593713Y-123050500D01*
X111593714Y-123050500D01*
X111806286Y-123050500D01*
X111806287Y-123050500D01*
X112016243Y-123017246D01*
X112218412Y-122951557D01*
X112407816Y-122855051D01*
X112457120Y-122819230D01*
X112579786Y-122730109D01*
X112579788Y-122730106D01*
X112579792Y-122730104D01*
X112730104Y-122579792D01*
X112730106Y-122579788D01*
X112730109Y-122579786D01*
X112855048Y-122407820D01*
X112855047Y-122407820D01*
X112855051Y-122407816D01*
X112859514Y-122399054D01*
X112907488Y-122348259D01*
X112975308Y-122331463D01*
X113041444Y-122353999D01*
X113080486Y-122399056D01*
X113084951Y-122407820D01*
X113209890Y-122579786D01*
X113360213Y-122730109D01*
X113532179Y-122855048D01*
X113532181Y-122855049D01*
X113532184Y-122855051D01*
X113721588Y-122951557D01*
X113923757Y-123017246D01*
X114133713Y-123050500D01*
X114133714Y-123050500D01*
X114346286Y-123050500D01*
X114346287Y-123050500D01*
X114556243Y-123017246D01*
X114758412Y-122951557D01*
X114947816Y-122855051D01*
X114997120Y-122819230D01*
X115119786Y-122730109D01*
X115119788Y-122730106D01*
X115119792Y-122730104D01*
X115270104Y-122579792D01*
X115270106Y-122579788D01*
X115270109Y-122579786D01*
X115395048Y-122407820D01*
X115395047Y-122407820D01*
X115395051Y-122407816D01*
X115399514Y-122399054D01*
X115447488Y-122348259D01*
X115515308Y-122331463D01*
X115581444Y-122353999D01*
X115620486Y-122399056D01*
X115624951Y-122407820D01*
X115749890Y-122579786D01*
X115900213Y-122730109D01*
X116072179Y-122855048D01*
X116072181Y-122855049D01*
X116072184Y-122855051D01*
X116261588Y-122951557D01*
X116463757Y-123017246D01*
X116673713Y-123050500D01*
X116673714Y-123050500D01*
X116886286Y-123050500D01*
X116886287Y-123050500D01*
X117096243Y-123017246D01*
X117298412Y-122951557D01*
X117487816Y-122855051D01*
X117537120Y-122819230D01*
X117659786Y-122730109D01*
X117659788Y-122730106D01*
X117659792Y-122730104D01*
X117810104Y-122579792D01*
X117810106Y-122579788D01*
X117810109Y-122579786D01*
X117935048Y-122407820D01*
X117935047Y-122407820D01*
X117935051Y-122407816D01*
X117939514Y-122399054D01*
X117987488Y-122348259D01*
X118055308Y-122331463D01*
X118121444Y-122353999D01*
X118160486Y-122399056D01*
X118164951Y-122407820D01*
X118289890Y-122579786D01*
X118440213Y-122730109D01*
X118612179Y-122855048D01*
X118612181Y-122855049D01*
X118612184Y-122855051D01*
X118801588Y-122951557D01*
X119003757Y-123017246D01*
X119213713Y-123050500D01*
X119213714Y-123050500D01*
X119426286Y-123050500D01*
X119426287Y-123050500D01*
X119636243Y-123017246D01*
X119838412Y-122951557D01*
X120027816Y-122855051D01*
X120077120Y-122819230D01*
X120199786Y-122730109D01*
X120199788Y-122730106D01*
X120199792Y-122730104D01*
X120350104Y-122579792D01*
X120350106Y-122579788D01*
X120350109Y-122579786D01*
X120475048Y-122407820D01*
X120475047Y-122407820D01*
X120475051Y-122407816D01*
X120479514Y-122399054D01*
X120527488Y-122348259D01*
X120595308Y-122331463D01*
X120661444Y-122353999D01*
X120700486Y-122399056D01*
X120704951Y-122407820D01*
X120829890Y-122579786D01*
X120980213Y-122730109D01*
X121152179Y-122855048D01*
X121152181Y-122855049D01*
X121152184Y-122855051D01*
X121341588Y-122951557D01*
X121543757Y-123017246D01*
X121753713Y-123050500D01*
X121753714Y-123050500D01*
X121966286Y-123050500D01*
X121966287Y-123050500D01*
X122176243Y-123017246D01*
X122378412Y-122951557D01*
X122567816Y-122855051D01*
X122617120Y-122819230D01*
X122739786Y-122730109D01*
X122739788Y-122730106D01*
X122739792Y-122730104D01*
X122890104Y-122579792D01*
X122890106Y-122579788D01*
X122890109Y-122579786D01*
X123015048Y-122407820D01*
X123015047Y-122407820D01*
X123015051Y-122407816D01*
X123111557Y-122218412D01*
X123177246Y-122016243D01*
X123210500Y-121806287D01*
X123210500Y-121593713D01*
X123177246Y-121383757D01*
X123111557Y-121181588D01*
X123047461Y-121055793D01*
X123034566Y-120987126D01*
X123060842Y-120922385D01*
X123117949Y-120882128D01*
X123157947Y-120875500D01*
X125940548Y-120875500D01*
X126007587Y-120895185D01*
G37*
%TD.AperFunction*%
%TA.AperFunction,Conductor*%
G36*
X186805203Y-106775282D02*
G01*
X186837556Y-106819185D01*
X186837596Y-106819276D01*
X186982109Y-107148733D01*
X187003753Y-107198075D01*
X187003759Y-107198089D01*
X187200619Y-107561855D01*
X187200632Y-107561877D01*
X187211715Y-107578840D01*
X187211715Y-107578841D01*
X187224058Y-107597733D01*
X187227473Y-107613101D01*
X187240310Y-107622610D01*
X187252459Y-107641205D01*
X187252460Y-107641207D01*
X187426864Y-107908151D01*
X187426868Y-107908157D01*
X187426870Y-107908159D01*
X187680935Y-108234583D01*
X187680936Y-108234584D01*
X187961088Y-108538911D01*
X188150154Y-108712958D01*
X188265417Y-108819065D01*
X188591841Y-109073130D01*
X188765394Y-109186518D01*
X188938133Y-109299374D01*
X189301910Y-109496240D01*
X189301913Y-109496241D01*
X189301920Y-109496245D01*
X189680724Y-109662404D01*
X190071956Y-109796714D01*
X190472943Y-109898258D01*
X190880946Y-109966341D01*
X190880953Y-109966341D01*
X190880956Y-109966342D01*
X191116478Y-109985858D01*
X191293178Y-110000500D01*
X191434108Y-110000500D01*
X191934108Y-110000500D01*
X191993040Y-110000500D01*
X192006922Y-110001280D01*
X192023878Y-110003190D01*
X192097268Y-110011458D01*
X192124333Y-110017636D01*
X192203539Y-110045351D01*
X192228549Y-110057395D01*
X192299606Y-110102043D01*
X192321313Y-110119355D01*
X192380644Y-110178686D01*
X192397957Y-110200395D01*
X192442602Y-110271447D01*
X192454649Y-110296464D01*
X192482362Y-110375662D01*
X192488541Y-110402734D01*
X192498720Y-110493076D01*
X192499500Y-110506959D01*
X192499500Y-119993040D01*
X192498720Y-120006923D01*
X192488541Y-120097265D01*
X192482362Y-120124337D01*
X192454649Y-120203535D01*
X192442602Y-120228552D01*
X192397957Y-120299604D01*
X192380644Y-120321313D01*
X192321313Y-120380644D01*
X192299604Y-120397957D01*
X192228552Y-120442602D01*
X192203535Y-120454649D01*
X192124337Y-120482362D01*
X192097265Y-120488541D01*
X192006923Y-120498720D01*
X191993040Y-120499500D01*
X191293167Y-120499500D01*
X190880956Y-120533657D01*
X190880950Y-120533658D01*
X190472946Y-120601741D01*
X190472942Y-120601742D01*
X190397578Y-120620827D01*
X190071956Y-120703286D01*
X190071950Y-120703287D01*
X190071942Y-120703290D01*
X189680720Y-120837597D01*
X189301924Y-121003753D01*
X189301910Y-121003759D01*
X188938133Y-121200625D01*
X188591840Y-121426870D01*
X188265415Y-121680936D01*
X187961088Y-121961088D01*
X187680936Y-122265415D01*
X187426864Y-122591848D01*
X187278308Y-122819230D01*
X187225162Y-122864586D01*
X187155931Y-122874010D01*
X187092595Y-122844508D01*
X187055264Y-122785447D01*
X187050500Y-122751408D01*
X187050500Y-111283393D01*
X187050499Y-111283389D01*
X187040575Y-111233497D01*
X187026463Y-111162548D01*
X186979311Y-111048714D01*
X186979310Y-111048713D01*
X186979307Y-111048707D01*
X186910859Y-110946268D01*
X186876410Y-110911819D01*
X186823733Y-110859142D01*
X186823732Y-110859141D01*
X185036319Y-109071728D01*
X185002834Y-109010405D01*
X185000000Y-108984047D01*
X185000000Y-108063012D01*
X185057007Y-108095925D01*
X185184174Y-108130000D01*
X185315826Y-108130000D01*
X185442993Y-108095925D01*
X185500000Y-108063012D01*
X185500000Y-108980000D01*
X186147828Y-108980000D01*
X186147844Y-108979999D01*
X186207372Y-108973598D01*
X186207379Y-108973596D01*
X186342086Y-108923354D01*
X186342093Y-108923350D01*
X186457187Y-108837190D01*
X186457190Y-108837187D01*
X186543350Y-108722093D01*
X186543354Y-108722086D01*
X186593596Y-108587379D01*
X186593598Y-108587372D01*
X186599999Y-108527844D01*
X186600000Y-108527827D01*
X186600000Y-107880000D01*
X185683012Y-107880000D01*
X185715925Y-107822993D01*
X185750000Y-107695826D01*
X185750000Y-107564174D01*
X185715925Y-107437007D01*
X185683012Y-107380000D01*
X186600000Y-107380000D01*
X186600000Y-106868995D01*
X186619685Y-106801956D01*
X186672489Y-106756201D01*
X186741647Y-106746257D01*
X186805203Y-106775282D01*
G37*
%TD.AperFunction*%
%TA.AperFunction,Conductor*%
G36*
X134914511Y-95770185D02*
G01*
X134960266Y-95822989D01*
X134970210Y-95892147D01*
X134957957Y-95930795D01*
X134887454Y-96069163D01*
X134829059Y-96248881D01*
X134799500Y-96435513D01*
X134799500Y-96624486D01*
X134829059Y-96811118D01*
X134887454Y-96990836D01*
X134973240Y-97159199D01*
X135084310Y-97312073D01*
X135217927Y-97445690D01*
X135370801Y-97556760D01*
X135450347Y-97597290D01*
X135539163Y-97642545D01*
X135539165Y-97642545D01*
X135539168Y-97642547D01*
X135628734Y-97671649D01*
X135660803Y-97682069D01*
X135718478Y-97721507D01*
X135745676Y-97785866D01*
X135733761Y-97854712D01*
X135686516Y-97906188D01*
X135660803Y-97917931D01*
X135539163Y-97957454D01*
X135370800Y-98043240D01*
X135283579Y-98106610D01*
X135217927Y-98154310D01*
X135217925Y-98154312D01*
X135217924Y-98154312D01*
X135084312Y-98287924D01*
X135084312Y-98287925D01*
X135084310Y-98287927D01*
X135036610Y-98353579D01*
X134973240Y-98440800D01*
X134887454Y-98609163D01*
X134829059Y-98788881D01*
X134799500Y-98975513D01*
X134799500Y-99164486D01*
X134819891Y-99293230D01*
X134810936Y-99362524D01*
X134785099Y-99400309D01*
X129597229Y-104588181D01*
X129535906Y-104621666D01*
X129509548Y-104624500D01*
X125144758Y-104624500D01*
X125077719Y-104604815D01*
X125031964Y-104552011D01*
X125022020Y-104482853D01*
X125051045Y-104419297D01*
X125057077Y-104412819D01*
X125083566Y-104386330D01*
X125110104Y-104359792D01*
X125110106Y-104359788D01*
X125110109Y-104359786D01*
X125235048Y-104187820D01*
X125235047Y-104187820D01*
X125235051Y-104187816D01*
X125331557Y-103998412D01*
X125397246Y-103796243D01*
X125430500Y-103586287D01*
X125430500Y-103373713D01*
X125397246Y-103163757D01*
X125331557Y-102961588D01*
X125235051Y-102772184D01*
X125235049Y-102772181D01*
X125235048Y-102772179D01*
X125110109Y-102600213D01*
X124959786Y-102449890D01*
X124787820Y-102324951D01*
X124598414Y-102228444D01*
X124598413Y-102228443D01*
X124598412Y-102228443D01*
X124396243Y-102162754D01*
X124396241Y-102162753D01*
X124396240Y-102162753D01*
X124234957Y-102137208D01*
X124186287Y-102129500D01*
X123973713Y-102129500D01*
X123925042Y-102137208D01*
X123763760Y-102162753D01*
X123737892Y-102171158D01*
X123568621Y-102226158D01*
X123561585Y-102228444D01*
X123372179Y-102324951D01*
X123200213Y-102449890D01*
X123049890Y-102600213D01*
X122924949Y-102772182D01*
X122920484Y-102780946D01*
X122872509Y-102831742D01*
X122804688Y-102848536D01*
X122738553Y-102825998D01*
X122699516Y-102780946D01*
X122695050Y-102772182D01*
X122570109Y-102600213D01*
X122419786Y-102449890D01*
X122247820Y-102324951D01*
X122058414Y-102228444D01*
X122058413Y-102228443D01*
X122058412Y-102228443D01*
X121856243Y-102162754D01*
X121856241Y-102162753D01*
X121856240Y-102162753D01*
X121694957Y-102137208D01*
X121646287Y-102129500D01*
X121433713Y-102129500D01*
X121405006Y-102134046D01*
X121223757Y-102162753D01*
X121208158Y-102167822D01*
X121138317Y-102169816D01*
X121082162Y-102137572D01*
X120795859Y-101851269D01*
X120795858Y-101851267D01*
X120708733Y-101764142D01*
X120655443Y-101728535D01*
X120648786Y-101724087D01*
X120648783Y-101724084D01*
X120606290Y-101695690D01*
X120606286Y-101695688D01*
X120576163Y-101683211D01*
X120525792Y-101662347D01*
X120492452Y-101648537D01*
X120432029Y-101636518D01*
X120427306Y-101635578D01*
X120427304Y-101635578D01*
X120371610Y-101624500D01*
X120371607Y-101624500D01*
X120371606Y-101624500D01*
X104155037Y-101624500D01*
X104087998Y-101604815D01*
X104086147Y-101603602D01*
X104074181Y-101595606D01*
X104074177Y-101595604D01*
X103928501Y-101535264D01*
X103928489Y-101535261D01*
X103773845Y-101504500D01*
X103773842Y-101504500D01*
X103616158Y-101504500D01*
X103616155Y-101504500D01*
X103461510Y-101535261D01*
X103461498Y-101535264D01*
X103315827Y-101595602D01*
X103315814Y-101595609D01*
X103184711Y-101683210D01*
X103184707Y-101683213D01*
X103073213Y-101794707D01*
X103073210Y-101794711D01*
X102985609Y-101925814D01*
X102985602Y-101925827D01*
X102925264Y-102071498D01*
X102925261Y-102071510D01*
X102894500Y-102226153D01*
X102894500Y-102383846D01*
X102925261Y-102538489D01*
X102925264Y-102538501D01*
X102985602Y-102684172D01*
X102985609Y-102684185D01*
X103073210Y-102815288D01*
X103073213Y-102815292D01*
X103184707Y-102926786D01*
X103184711Y-102926789D01*
X103315814Y-103014390D01*
X103315827Y-103014397D01*
X103372374Y-103037819D01*
X103461503Y-103074737D01*
X103616153Y-103105499D01*
X103616156Y-103105500D01*
X103616158Y-103105500D01*
X103773844Y-103105500D01*
X103773845Y-103105499D01*
X103928497Y-103074737D01*
X104074179Y-103014394D01*
X104205289Y-102926789D01*
X104205292Y-102926786D01*
X104220260Y-102911819D01*
X104281583Y-102878334D01*
X104307941Y-102875500D01*
X104905744Y-102875500D01*
X104972783Y-102895185D01*
X105018538Y-102947989D01*
X105028482Y-103017147D01*
X105023677Y-103037807D01*
X104982754Y-103163757D01*
X104982753Y-103163760D01*
X104982753Y-103163762D01*
X104949500Y-103373713D01*
X104949500Y-103586286D01*
X104978044Y-103766510D01*
X104982754Y-103796243D01*
X105043751Y-103983973D01*
X105048444Y-103998414D01*
X105144951Y-104187820D01*
X105269890Y-104359786D01*
X105420213Y-104510109D01*
X105592179Y-104635048D01*
X105592181Y-104635049D01*
X105592184Y-104635051D01*
X105781588Y-104731557D01*
X105983757Y-104797246D01*
X106193713Y-104830500D01*
X106193714Y-104830500D01*
X106406286Y-104830500D01*
X106406287Y-104830500D01*
X106616243Y-104797246D01*
X106631837Y-104792178D01*
X106701676Y-104790182D01*
X106757837Y-104822428D01*
X109084141Y-107148732D01*
X109084142Y-107148733D01*
X109133484Y-107198075D01*
X109171268Y-107235859D01*
X109273707Y-107304307D01*
X109273713Y-107304310D01*
X109273714Y-107304311D01*
X109387548Y-107351463D01*
X109447971Y-107363481D01*
X109508393Y-107375500D01*
X109508394Y-107375500D01*
X123977847Y-107375500D01*
X124044886Y-107395185D01*
X124065528Y-107411819D01*
X128460496Y-111806787D01*
X128460499Y-111806791D01*
X128547624Y-111893916D01*
X128619397Y-111941873D01*
X128650072Y-111962370D01*
X128716080Y-111989711D01*
X128763905Y-112009521D01*
X128799007Y-112016503D01*
X128884748Y-112033557D01*
X128884749Y-112033558D01*
X128884750Y-112033558D01*
X128884751Y-112033558D01*
X135865210Y-112033558D01*
X135932249Y-112053243D01*
X135978004Y-112106047D01*
X135986827Y-112133366D01*
X136013319Y-112266549D01*
X136015089Y-112272382D01*
X136012533Y-112273157D01*
X136013666Y-112283689D01*
X136020659Y-112304700D01*
X136017328Y-112317750D01*
X136018768Y-112331143D01*
X136008855Y-112350944D01*
X136003380Y-112372399D01*
X135993522Y-112381576D01*
X135987493Y-112393622D01*
X135968449Y-112404920D01*
X135952243Y-112420010D01*
X135938986Y-112422401D01*
X135927404Y-112429274D01*
X135905277Y-112428483D01*
X135883483Y-112432416D01*
X135862025Y-112426938D01*
X135857578Y-112426780D01*
X135849286Y-112423687D01*
X135821054Y-112411993D01*
X135821052Y-112411992D01*
X135788571Y-112398538D01*
X135788569Y-112398537D01*
X135788568Y-112398537D01*
X135728145Y-112386518D01*
X135667726Y-112374500D01*
X135667723Y-112374500D01*
X135667722Y-112374500D01*
X121627431Y-112374500D01*
X121560392Y-112354815D01*
X121514637Y-112302011D01*
X121504693Y-112232853D01*
X121533718Y-112169297D01*
X121565431Y-112143113D01*
X121632326Y-112104491D01*
X121682994Y-112075238D01*
X121917042Y-111895646D01*
X122125646Y-111687042D01*
X122305238Y-111452994D01*
X122452743Y-111197507D01*
X122565639Y-110924952D01*
X122641993Y-110639993D01*
X122680500Y-110347506D01*
X122680500Y-110052494D01*
X122641993Y-109760007D01*
X122565639Y-109475048D01*
X122562230Y-109466819D01*
X122522866Y-109371786D01*
X122452743Y-109202493D01*
X122450797Y-109199123D01*
X122305238Y-108947006D01*
X122125647Y-108712959D01*
X122125641Y-108712952D01*
X121917047Y-108504358D01*
X121917040Y-108504352D01*
X121682993Y-108324761D01*
X121427510Y-108177258D01*
X121427500Y-108177254D01*
X121154961Y-108064364D01*
X121154954Y-108064362D01*
X121154952Y-108064361D01*
X120869993Y-107988007D01*
X120811157Y-107980261D01*
X120577513Y-107949500D01*
X120577506Y-107949500D01*
X120282494Y-107949500D01*
X120282486Y-107949500D01*
X120004085Y-107986153D01*
X119990007Y-107988007D01*
X119705048Y-108064361D01*
X119705038Y-108064364D01*
X119432499Y-108177254D01*
X119432489Y-108177258D01*
X119177006Y-108324761D01*
X118942959Y-108504352D01*
X118942952Y-108504358D01*
X118734358Y-108712952D01*
X118734352Y-108712959D01*
X118554761Y-108947006D01*
X118407258Y-109202489D01*
X118407254Y-109202499D01*
X118294364Y-109475038D01*
X118294361Y-109475048D01*
X118244160Y-109662404D01*
X118218008Y-109760004D01*
X118218006Y-109760015D01*
X118179500Y-110052486D01*
X118179500Y-110347513D01*
X118208683Y-110569172D01*
X118218007Y-110639993D01*
X118293624Y-110922200D01*
X118294361Y-110924951D01*
X118294364Y-110924961D01*
X118407254Y-111197500D01*
X118407258Y-111197510D01*
X118554761Y-111452993D01*
X118734352Y-111687040D01*
X118734358Y-111687047D01*
X118942952Y-111895641D01*
X118942959Y-111895647D01*
X119177006Y-112075238D01*
X119294569Y-112143113D01*
X119342784Y-112193680D01*
X119356008Y-112262287D01*
X119330040Y-112327151D01*
X119273126Y-112367680D01*
X119232569Y-112374500D01*
X111309452Y-112374500D01*
X111242413Y-112354815D01*
X111196658Y-112302011D01*
X111186714Y-112232853D01*
X111215739Y-112169297D01*
X111221771Y-112162819D01*
X112509090Y-110875500D01*
X113808798Y-109575791D01*
X113870119Y-109542308D01*
X113872114Y-109541892D01*
X113983497Y-109519737D01*
X114129179Y-109459394D01*
X114260289Y-109371789D01*
X114371789Y-109260289D01*
X114459394Y-109129179D01*
X114519737Y-108983497D01*
X114550500Y-108828842D01*
X114550500Y-108671158D01*
X114550500Y-108671155D01*
X114550499Y-108671153D01*
X114550130Y-108669297D01*
X114519737Y-108516503D01*
X114516955Y-108509786D01*
X114459397Y-108370827D01*
X114459390Y-108370814D01*
X114371789Y-108239711D01*
X114371786Y-108239707D01*
X114260292Y-108128213D01*
X114260288Y-108128210D01*
X114129185Y-108040609D01*
X114129172Y-108040602D01*
X113983501Y-107980264D01*
X113983489Y-107980261D01*
X113828845Y-107949500D01*
X113828842Y-107949500D01*
X113671158Y-107949500D01*
X113671155Y-107949500D01*
X113516510Y-107980261D01*
X113516498Y-107980264D01*
X113370827Y-108040602D01*
X113370814Y-108040609D01*
X113239711Y-108128210D01*
X113239707Y-108128213D01*
X113128213Y-108239707D01*
X113128210Y-108239711D01*
X113040609Y-108370814D01*
X113040602Y-108370827D01*
X112980264Y-108516498D01*
X112980261Y-108516508D01*
X112958141Y-108627713D01*
X112925756Y-108689624D01*
X112924205Y-108691202D01*
X110027229Y-111588181D01*
X109965906Y-111621666D01*
X109939548Y-111624500D01*
X109542350Y-111624500D01*
X109475311Y-111604815D01*
X109473459Y-111603602D01*
X109379184Y-111540609D01*
X109379172Y-111540602D01*
X109233501Y-111480264D01*
X109233489Y-111480261D01*
X109078845Y-111449500D01*
X109078842Y-111449500D01*
X108921158Y-111449500D01*
X108921155Y-111449500D01*
X108766510Y-111480261D01*
X108766498Y-111480264D01*
X108620827Y-111540602D01*
X108620814Y-111540609D01*
X108489711Y-111628210D01*
X108489707Y-111628213D01*
X108378213Y-111739707D01*
X108378210Y-111739711D01*
X108290609Y-111870814D01*
X108290602Y-111870827D01*
X108230264Y-112016498D01*
X108230261Y-112016510D01*
X108199500Y-112171153D01*
X108199500Y-112250500D01*
X108179815Y-112317539D01*
X108127011Y-112363294D01*
X108075500Y-112374500D01*
X102789915Y-112374500D01*
X102722876Y-112354815D01*
X102677121Y-112302011D01*
X102675353Y-112297950D01*
X102667454Y-112278880D01*
X102667453Y-112278877D01*
X102667451Y-112278874D01*
X102667449Y-112278870D01*
X102579848Y-112147767D01*
X102579845Y-112147763D01*
X102468351Y-112036269D01*
X102468347Y-112036266D01*
X102337244Y-111948665D01*
X102337231Y-111948658D01*
X102191560Y-111888320D01*
X102185724Y-111886550D01*
X102186418Y-111884259D01*
X102133880Y-111856780D01*
X102099302Y-111796066D01*
X102103038Y-111726297D01*
X102123835Y-111690770D01*
X102123175Y-111690263D01*
X102201505Y-111588181D01*
X102305238Y-111452994D01*
X102452743Y-111197507D01*
X102565639Y-110924952D01*
X102641993Y-110639993D01*
X102680500Y-110347506D01*
X102680500Y-110052494D01*
X102641993Y-109760007D01*
X102565639Y-109475048D01*
X102562230Y-109466819D01*
X102522866Y-109371786D01*
X102452743Y-109202493D01*
X102450797Y-109199123D01*
X102305238Y-108947006D01*
X102125647Y-108712959D01*
X102125641Y-108712952D01*
X101917047Y-108504358D01*
X101917040Y-108504352D01*
X101682993Y-108324761D01*
X101427510Y-108177258D01*
X101427500Y-108177254D01*
X101154961Y-108064364D01*
X101154954Y-108064362D01*
X101154952Y-108064361D01*
X100869993Y-107988007D01*
X100811157Y-107980261D01*
X100577513Y-107949500D01*
X100577506Y-107949500D01*
X100282494Y-107949500D01*
X100282486Y-107949500D01*
X100004085Y-107986153D01*
X99990007Y-107988007D01*
X99705048Y-108064361D01*
X99705038Y-108064364D01*
X99432499Y-108177254D01*
X99432489Y-108177258D01*
X99177006Y-108324761D01*
X98942959Y-108504352D01*
X98942952Y-108504358D01*
X98734358Y-108712952D01*
X98734352Y-108712959D01*
X98554761Y-108947006D01*
X98407258Y-109202489D01*
X98407254Y-109202499D01*
X98294364Y-109475038D01*
X98294361Y-109475048D01*
X98244160Y-109662404D01*
X98218008Y-109760004D01*
X98218006Y-109760015D01*
X98179500Y-110052486D01*
X98179500Y-110347513D01*
X98208683Y-110569172D01*
X98218007Y-110639993D01*
X98293624Y-110922200D01*
X98294361Y-110924951D01*
X98294364Y-110924961D01*
X98407254Y-111197500D01*
X98407258Y-111197510D01*
X98554761Y-111452993D01*
X98734352Y-111687040D01*
X98734358Y-111687047D01*
X98942952Y-111895641D01*
X98942959Y-111895647D01*
X99177006Y-112075238D01*
X99432489Y-112222741D01*
X99432490Y-112222741D01*
X99432493Y-112222743D01*
X99568020Y-112278880D01*
X99694193Y-112331143D01*
X99705048Y-112335639D01*
X99990007Y-112411993D01*
X100282494Y-112450500D01*
X100282501Y-112450500D01*
X100577499Y-112450500D01*
X100577506Y-112450500D01*
X100869993Y-112411993D01*
X101016274Y-112372797D01*
X101086119Y-112374460D01*
X101143982Y-112413622D01*
X101171486Y-112477850D01*
X101169981Y-112516762D01*
X101157559Y-112579214D01*
X101157559Y-112736902D01*
X101188320Y-112891545D01*
X101188323Y-112891557D01*
X101248661Y-113037227D01*
X101248663Y-113037232D01*
X101248665Y-113037235D01*
X101251986Y-113042206D01*
X101259106Y-113052861D01*
X101279983Y-113119539D01*
X101270565Y-113169202D01*
X101230263Y-113266503D01*
X101230261Y-113266510D01*
X101199500Y-113421153D01*
X101199500Y-113578846D01*
X101230261Y-113733489D01*
X101230264Y-113733501D01*
X101290602Y-113879172D01*
X101290609Y-113879185D01*
X101378210Y-114010288D01*
X101378213Y-114010292D01*
X101489707Y-114121786D01*
X101489711Y-114121789D01*
X101620814Y-114209390D01*
X101620827Y-114209397D01*
X101758683Y-114266498D01*
X101766503Y-114269737D01*
X101921153Y-114300499D01*
X101921156Y-114300500D01*
X101921158Y-114300500D01*
X102078844Y-114300500D01*
X102078845Y-114300499D01*
X102233497Y-114269737D01*
X102379179Y-114209394D01*
X102473459Y-114146398D01*
X102540136Y-114125520D01*
X102542350Y-114125500D01*
X133530584Y-114125500D01*
X133597623Y-114145185D01*
X133643378Y-114197989D01*
X133653322Y-114267147D01*
X133652202Y-114273690D01*
X133649500Y-114287274D01*
X133649500Y-114444962D01*
X133680261Y-114599605D01*
X133680264Y-114599617D01*
X133740602Y-114745288D01*
X133740609Y-114745300D01*
X133803602Y-114839575D01*
X133824480Y-114906252D01*
X133824500Y-114908466D01*
X133824500Y-115261605D01*
X133834935Y-115314069D01*
X133834934Y-115314069D01*
X133843834Y-115358813D01*
X133843835Y-115358813D01*
X133843835Y-115358815D01*
X133848537Y-115382451D01*
X133895688Y-115496286D01*
X133895689Y-115496288D01*
X133895690Y-115496289D01*
X133895691Y-115496292D01*
X133924707Y-115539716D01*
X133924710Y-115539720D01*
X133929098Y-115546286D01*
X133964142Y-115598733D01*
X134051267Y-115685858D01*
X134051269Y-115685859D01*
X134056256Y-115690846D01*
X134059078Y-115694088D01*
X134071941Y-115722089D01*
X134086713Y-115749141D01*
X134086397Y-115753555D01*
X134088245Y-115757578D01*
X134083927Y-115788090D01*
X134081729Y-115818833D01*
X134079076Y-115822376D01*
X134078456Y-115826759D01*
X134058328Y-115850092D01*
X134039858Y-115874767D01*
X134035710Y-115876313D01*
X134032820Y-115879665D01*
X134003269Y-115888413D01*
X133974394Y-115899184D01*
X133965863Y-115899488D01*
X133965825Y-115899500D01*
X133965794Y-115899491D01*
X133965547Y-115899500D01*
X126508207Y-115899500D01*
X126441168Y-115879815D01*
X126435322Y-115875818D01*
X126352997Y-115816006D01*
X126352996Y-115816005D01*
X126352994Y-115816004D01*
X126273501Y-115775500D01*
X126191639Y-115733788D01*
X126191636Y-115733787D01*
X126019410Y-115677829D01*
X125840551Y-115649500D01*
X125840546Y-115649500D01*
X125659454Y-115649500D01*
X125659449Y-115649500D01*
X125480589Y-115677829D01*
X125308363Y-115733787D01*
X125308360Y-115733788D01*
X125147002Y-115816006D01*
X125064678Y-115875818D01*
X124998872Y-115899298D01*
X124991793Y-115899500D01*
X104458207Y-115899500D01*
X104391168Y-115879815D01*
X104385322Y-115875818D01*
X104302997Y-115816006D01*
X104302996Y-115816005D01*
X104302994Y-115816004D01*
X104223501Y-115775500D01*
X104141639Y-115733788D01*
X104141636Y-115733787D01*
X103969410Y-115677829D01*
X103790551Y-115649500D01*
X103790546Y-115649500D01*
X103609454Y-115649500D01*
X103609449Y-115649500D01*
X103430589Y-115677829D01*
X103258363Y-115733787D01*
X103258360Y-115733788D01*
X103097002Y-115816006D01*
X102950505Y-115922441D01*
X102950500Y-115922445D01*
X102822447Y-116050499D01*
X102822441Y-116050505D01*
X102716006Y-116197002D01*
X102633788Y-116358360D01*
X102633787Y-116358363D01*
X102577829Y-116530589D01*
X102549500Y-116709448D01*
X102549500Y-116890551D01*
X102577829Y-117069410D01*
X102633787Y-117241636D01*
X102633788Y-117241639D01*
X102716006Y-117402997D01*
X102822441Y-117549494D01*
X102822445Y-117549499D01*
X102950500Y-117677554D01*
X102950505Y-117677558D01*
X103032072Y-117736819D01*
X103097006Y-117783996D01*
X103202484Y-117837740D01*
X103258360Y-117866211D01*
X103258363Y-117866212D01*
X103344476Y-117894191D01*
X103430591Y-117922171D01*
X103513429Y-117935291D01*
X103609449Y-117950500D01*
X103609454Y-117950500D01*
X103790551Y-117950500D01*
X103877259Y-117936765D01*
X103969409Y-117922171D01*
X104141639Y-117866211D01*
X104302994Y-117783996D01*
X104367928Y-117736819D01*
X104385322Y-117724182D01*
X104451128Y-117700702D01*
X104458207Y-117700500D01*
X124661309Y-117700500D01*
X124991793Y-117700500D01*
X125058832Y-117720185D01*
X125064678Y-117724182D01*
X125082072Y-117736819D01*
X125147006Y-117783996D01*
X125252484Y-117837740D01*
X125308360Y-117866211D01*
X125308363Y-117866212D01*
X125394476Y-117894191D01*
X125480591Y-117922171D01*
X125563429Y-117935291D01*
X125659449Y-117950500D01*
X125659454Y-117950500D01*
X125840551Y-117950500D01*
X125927259Y-117936765D01*
X126019409Y-117922171D01*
X126191639Y-117866211D01*
X126352994Y-117783996D01*
X126417928Y-117736819D01*
X126435322Y-117724182D01*
X126501128Y-117700702D01*
X126508207Y-117700500D01*
X136911309Y-117700500D01*
X182562847Y-117700500D01*
X182592287Y-117709144D01*
X182622274Y-117715668D01*
X182627289Y-117719422D01*
X182629886Y-117720185D01*
X182650528Y-117736819D01*
X182809315Y-117895606D01*
X182809344Y-117895637D01*
X182899562Y-117985855D01*
X182899566Y-117985858D01*
X183002006Y-118054307D01*
X183002012Y-118054310D01*
X183002013Y-118054311D01*
X183115847Y-118101463D01*
X183176270Y-118113481D01*
X183236692Y-118125500D01*
X183236693Y-118125500D01*
X184219174Y-118125500D01*
X184286213Y-118145185D01*
X184319490Y-118176612D01*
X184372447Y-118249501D01*
X184372449Y-118249503D01*
X184500500Y-118377554D01*
X184500505Y-118377558D01*
X184518777Y-118390833D01*
X184647006Y-118483996D01*
X184752484Y-118537740D01*
X184808360Y-118566211D01*
X184808363Y-118566212D01*
X184856678Y-118581910D01*
X184980591Y-118622171D01*
X185063429Y-118635291D01*
X185159449Y-118650500D01*
X185159454Y-118650500D01*
X185340551Y-118650500D01*
X185427259Y-118636765D01*
X185519409Y-118622171D01*
X185637182Y-118583905D01*
X185707023Y-118581910D01*
X185766856Y-118617991D01*
X185797684Y-118680692D01*
X185799500Y-118701836D01*
X185799500Y-121457872D01*
X185779815Y-121524911D01*
X185727011Y-121570666D01*
X185657853Y-121580610D01*
X185637183Y-121575803D01*
X185566244Y-121552754D01*
X185566240Y-121552753D01*
X185404957Y-121527208D01*
X185356287Y-121519500D01*
X185143713Y-121519500D01*
X185095042Y-121527208D01*
X184933760Y-121552753D01*
X184731585Y-121618444D01*
X184542179Y-121714951D01*
X184370215Y-121839889D01*
X184256285Y-121953819D01*
X184194962Y-121987303D01*
X184125270Y-121982319D01*
X184069337Y-121940447D01*
X184052422Y-121909470D01*
X184003354Y-121777913D01*
X184003350Y-121777906D01*
X183917190Y-121662812D01*
X183917187Y-121662809D01*
X183802093Y-121576649D01*
X183802086Y-121576645D01*
X183667379Y-121526403D01*
X183667372Y-121526401D01*
X183607844Y-121520000D01*
X182960000Y-121520000D01*
X182960000Y-122436988D01*
X182902993Y-122404075D01*
X182775826Y-122370000D01*
X182644174Y-122370000D01*
X182517007Y-122404075D01*
X182460000Y-122436988D01*
X182460000Y-121520000D01*
X181812155Y-121520000D01*
X181752627Y-121526401D01*
X181752620Y-121526403D01*
X181617913Y-121576645D01*
X181617906Y-121576649D01*
X181502812Y-121662809D01*
X181502809Y-121662812D01*
X181416649Y-121777906D01*
X181416646Y-121777912D01*
X181367577Y-121909471D01*
X181325705Y-121965404D01*
X181260241Y-121989821D01*
X181191968Y-121974969D01*
X181163714Y-121953818D01*
X181049786Y-121839890D01*
X180877820Y-121714951D01*
X180688414Y-121618444D01*
X180688413Y-121618443D01*
X180688412Y-121618443D01*
X180486243Y-121552754D01*
X180486241Y-121552753D01*
X180486240Y-121552753D01*
X180324957Y-121527208D01*
X180276287Y-121519500D01*
X180063713Y-121519500D01*
X180015042Y-121527208D01*
X179853760Y-121552753D01*
X179651585Y-121618444D01*
X179462179Y-121714951D01*
X179290213Y-121839890D01*
X179139890Y-121990213D01*
X179014949Y-122162182D01*
X179010484Y-122170946D01*
X178962509Y-122221742D01*
X178894688Y-122238536D01*
X178828553Y-122215998D01*
X178789516Y-122170946D01*
X178785050Y-122162182D01*
X178660109Y-121990213D01*
X178509786Y-121839890D01*
X178337820Y-121714951D01*
X178148414Y-121618444D01*
X178148413Y-121618443D01*
X178148412Y-121618443D01*
X177946243Y-121552754D01*
X177946241Y-121552753D01*
X177946240Y-121552753D01*
X177784957Y-121527208D01*
X177736287Y-121519500D01*
X177523713Y-121519500D01*
X177475042Y-121527208D01*
X177313760Y-121552753D01*
X177111585Y-121618444D01*
X176922179Y-121714951D01*
X176750213Y-121839890D01*
X176599890Y-121990213D01*
X176474949Y-122162182D01*
X176470484Y-122170946D01*
X176422509Y-122221742D01*
X176354688Y-122238536D01*
X176288553Y-122215998D01*
X176249516Y-122170946D01*
X176245050Y-122162182D01*
X176120109Y-121990213D01*
X175969786Y-121839890D01*
X175797820Y-121714951D01*
X175608414Y-121618444D01*
X175608413Y-121618443D01*
X175608412Y-121618443D01*
X175406243Y-121552754D01*
X175406241Y-121552753D01*
X175406240Y-121552753D01*
X175244957Y-121527208D01*
X175196287Y-121519500D01*
X174983713Y-121519500D01*
X174935042Y-121527208D01*
X174773760Y-121552753D01*
X174571585Y-121618444D01*
X174382179Y-121714951D01*
X174210213Y-121839890D01*
X174059890Y-121990213D01*
X173934949Y-122162182D01*
X173930484Y-122170946D01*
X173882509Y-122221742D01*
X173814688Y-122238536D01*
X173748553Y-122215998D01*
X173709516Y-122170946D01*
X173705050Y-122162182D01*
X173580109Y-121990213D01*
X173429786Y-121839890D01*
X173257820Y-121714951D01*
X173068414Y-121618444D01*
X173068413Y-121618443D01*
X173068412Y-121618443D01*
X172866243Y-121552754D01*
X172866241Y-121552753D01*
X172866240Y-121552753D01*
X172704957Y-121527208D01*
X172656287Y-121519500D01*
X172443713Y-121519500D01*
X172395042Y-121527208D01*
X172233760Y-121552753D01*
X172031585Y-121618444D01*
X171842179Y-121714951D01*
X171670213Y-121839890D01*
X171519890Y-121990213D01*
X171394949Y-122162182D01*
X171390484Y-122170946D01*
X171342509Y-122221742D01*
X171274688Y-122238536D01*
X171208553Y-122215998D01*
X171169516Y-122170946D01*
X171165050Y-122162182D01*
X171040109Y-121990213D01*
X170889786Y-121839890D01*
X170717820Y-121714951D01*
X170528414Y-121618444D01*
X170528413Y-121618443D01*
X170528412Y-121618443D01*
X170326243Y-121552754D01*
X170326241Y-121552753D01*
X170326240Y-121552753D01*
X170164957Y-121527208D01*
X170116287Y-121519500D01*
X169903713Y-121519500D01*
X169855042Y-121527208D01*
X169693760Y-121552753D01*
X169491585Y-121618444D01*
X169302179Y-121714951D01*
X169130213Y-121839890D01*
X168979890Y-121990213D01*
X168854949Y-122162182D01*
X168850484Y-122170946D01*
X168802509Y-122221742D01*
X168734688Y-122238536D01*
X168668553Y-122215998D01*
X168629516Y-122170946D01*
X168625050Y-122162182D01*
X168500109Y-121990213D01*
X168349786Y-121839890D01*
X168177820Y-121714951D01*
X167988414Y-121618444D01*
X167988413Y-121618443D01*
X167988412Y-121618443D01*
X167786243Y-121552754D01*
X167786241Y-121552753D01*
X167786240Y-121552753D01*
X167624957Y-121527208D01*
X167576287Y-121519500D01*
X167363713Y-121519500D01*
X167315042Y-121527208D01*
X167153760Y-121552753D01*
X166951585Y-121618444D01*
X166762179Y-121714951D01*
X166590213Y-121839890D01*
X166439890Y-121990213D01*
X166314949Y-122162182D01*
X166310484Y-122170946D01*
X166262509Y-122221742D01*
X166194688Y-122238536D01*
X166128553Y-122215998D01*
X166089516Y-122170946D01*
X166085050Y-122162182D01*
X165960109Y-121990213D01*
X165809786Y-121839890D01*
X165637820Y-121714951D01*
X165448414Y-121618444D01*
X165448413Y-121618443D01*
X165448412Y-121618443D01*
X165246243Y-121552754D01*
X165246241Y-121552753D01*
X165246240Y-121552753D01*
X165084957Y-121527208D01*
X165036287Y-121519500D01*
X164823713Y-121519500D01*
X164775042Y-121527208D01*
X164613760Y-121552753D01*
X164411585Y-121618444D01*
X164222179Y-121714951D01*
X164050213Y-121839890D01*
X163899890Y-121990213D01*
X163774949Y-122162182D01*
X163770484Y-122170946D01*
X163722509Y-122221742D01*
X163654688Y-122238536D01*
X163588553Y-122215998D01*
X163549516Y-122170946D01*
X163545050Y-122162182D01*
X163420109Y-121990213D01*
X163269786Y-121839890D01*
X163097820Y-121714951D01*
X162908414Y-121618444D01*
X162908413Y-121618443D01*
X162908412Y-121618443D01*
X162706243Y-121552754D01*
X162706241Y-121552753D01*
X162706240Y-121552753D01*
X162544957Y-121527208D01*
X162496287Y-121519500D01*
X162283713Y-121519500D01*
X162235042Y-121527208D01*
X162073760Y-121552753D01*
X161871585Y-121618444D01*
X161682179Y-121714951D01*
X161510213Y-121839890D01*
X161359890Y-121990213D01*
X161234949Y-122162182D01*
X161230484Y-122170946D01*
X161182509Y-122221742D01*
X161114688Y-122238536D01*
X161048553Y-122215998D01*
X161009516Y-122170946D01*
X161005050Y-122162182D01*
X160880109Y-121990213D01*
X160729786Y-121839890D01*
X160557820Y-121714951D01*
X160368414Y-121618444D01*
X160368413Y-121618443D01*
X160368412Y-121618443D01*
X160166243Y-121552754D01*
X160166241Y-121552753D01*
X160166240Y-121552753D01*
X160004957Y-121527208D01*
X159956287Y-121519500D01*
X159743713Y-121519500D01*
X159695042Y-121527208D01*
X159533760Y-121552753D01*
X159331585Y-121618444D01*
X159142179Y-121714951D01*
X158970213Y-121839890D01*
X158819890Y-121990213D01*
X158694949Y-122162182D01*
X158690484Y-122170946D01*
X158642509Y-122221742D01*
X158574688Y-122238536D01*
X158508553Y-122215998D01*
X158469516Y-122170946D01*
X158465050Y-122162182D01*
X158340109Y-121990213D01*
X158189786Y-121839890D01*
X158017820Y-121714951D01*
X157828414Y-121618444D01*
X157828413Y-121618443D01*
X157828412Y-121618443D01*
X157626243Y-121552754D01*
X157626241Y-121552753D01*
X157626240Y-121552753D01*
X157464957Y-121527208D01*
X157416287Y-121519500D01*
X157203713Y-121519500D01*
X157155042Y-121527208D01*
X156993760Y-121552753D01*
X156791585Y-121618444D01*
X156602179Y-121714951D01*
X156430213Y-121839890D01*
X156279890Y-121990213D01*
X156154949Y-122162182D01*
X156150484Y-122170946D01*
X156102509Y-122221742D01*
X156034688Y-122238536D01*
X155968553Y-122215998D01*
X155929516Y-122170946D01*
X155925050Y-122162182D01*
X155800109Y-121990213D01*
X155649786Y-121839890D01*
X155477820Y-121714951D01*
X155288414Y-121618444D01*
X155288413Y-121618443D01*
X155288412Y-121618443D01*
X155086243Y-121552754D01*
X155086241Y-121552753D01*
X155086240Y-121552753D01*
X154924957Y-121527208D01*
X154876287Y-121519500D01*
X154663713Y-121519500D01*
X154615042Y-121527208D01*
X154453760Y-121552753D01*
X154251585Y-121618444D01*
X154062179Y-121714951D01*
X153890213Y-121839890D01*
X153739890Y-121990213D01*
X153614949Y-122162182D01*
X153610484Y-122170946D01*
X153562509Y-122221742D01*
X153494688Y-122238536D01*
X153428553Y-122215998D01*
X153389516Y-122170946D01*
X153385050Y-122162182D01*
X153260109Y-121990213D01*
X153109786Y-121839890D01*
X152937820Y-121714951D01*
X152748414Y-121618444D01*
X152748413Y-121618443D01*
X152748412Y-121618443D01*
X152546243Y-121552754D01*
X152546241Y-121552753D01*
X152546240Y-121552753D01*
X152384957Y-121527208D01*
X152336287Y-121519500D01*
X152123713Y-121519500D01*
X152095006Y-121524046D01*
X151913757Y-121552753D01*
X151898158Y-121557822D01*
X151882945Y-121558256D01*
X151868688Y-121563574D01*
X151848733Y-121559233D01*
X151828317Y-121559816D01*
X151814230Y-121551727D01*
X151800415Y-121548722D01*
X151772161Y-121527571D01*
X151740198Y-121495608D01*
X151740178Y-121495586D01*
X151648735Y-121404143D01*
X151618229Y-121383760D01*
X151592236Y-121366392D01*
X151546286Y-121335688D01*
X151461333Y-121300500D01*
X151456908Y-121298667D01*
X151456904Y-121298665D01*
X151432455Y-121288538D01*
X151432453Y-121288537D01*
X151432452Y-121288537D01*
X151372029Y-121276518D01*
X151311610Y-121264500D01*
X151311607Y-121264500D01*
X151311606Y-121264500D01*
X151075453Y-121264500D01*
X151008414Y-121244815D01*
X150987772Y-121228181D01*
X150617928Y-120858338D01*
X150617926Y-120858336D01*
X150610858Y-120851268D01*
X150610858Y-120851267D01*
X150596770Y-120837179D01*
X150567634Y-120783818D01*
X150563287Y-120775858D01*
X150563287Y-120775856D01*
X150563286Y-120775855D01*
X150566947Y-120724678D01*
X150568271Y-120706166D01*
X150569877Y-120704021D01*
X150597798Y-120666724D01*
X150610143Y-120650233D01*
X150610143Y-120650232D01*
X150610145Y-120650231D01*
X150644740Y-120637328D01*
X150675607Y-120625816D01*
X150684453Y-120625500D01*
X150957650Y-120625500D01*
X151024689Y-120645185D01*
X151026541Y-120646398D01*
X151120821Y-120709394D01*
X151120823Y-120709395D01*
X151120827Y-120709397D01*
X151252995Y-120764142D01*
X151266503Y-120769737D01*
X151395539Y-120795404D01*
X151421153Y-120800499D01*
X151421156Y-120800500D01*
X151421158Y-120800500D01*
X151578844Y-120800500D01*
X151578845Y-120800499D01*
X151733497Y-120769737D01*
X151879179Y-120709394D01*
X152010289Y-120621789D01*
X152121789Y-120510289D01*
X152209394Y-120379179D01*
X152211222Y-120374767D01*
X152230244Y-120328842D01*
X152269737Y-120233497D01*
X152300500Y-120078842D01*
X152300500Y-119921158D01*
X152300500Y-119921155D01*
X152300499Y-119921153D01*
X152269738Y-119766510D01*
X152269737Y-119766503D01*
X152256062Y-119733489D01*
X152209397Y-119620827D01*
X152209390Y-119620814D01*
X152121789Y-119489711D01*
X152121786Y-119489707D01*
X152010292Y-119378213D01*
X152010288Y-119378210D01*
X151879185Y-119290609D01*
X151879172Y-119290602D01*
X151733501Y-119230264D01*
X151733489Y-119230261D01*
X151578845Y-119199500D01*
X151578842Y-119199500D01*
X151421158Y-119199500D01*
X151421155Y-119199500D01*
X151266510Y-119230261D01*
X151266498Y-119230264D01*
X151120827Y-119290602D01*
X151120815Y-119290609D01*
X151026541Y-119353602D01*
X150959864Y-119374480D01*
X150957650Y-119374500D01*
X140676688Y-119374500D01*
X140625834Y-119384615D01*
X140625829Y-119384616D01*
X140616270Y-119386518D01*
X140555847Y-119398537D01*
X140508696Y-119418067D01*
X140442014Y-119445688D01*
X140442013Y-119445689D01*
X140419646Y-119460633D01*
X140419643Y-119460635D01*
X140339567Y-119514140D01*
X140296004Y-119557703D01*
X140252441Y-119601267D01*
X140252438Y-119601270D01*
X138028094Y-121825613D01*
X137966771Y-121859098D01*
X137897079Y-121854114D01*
X137867528Y-121838250D01*
X137697817Y-121714949D01*
X137663123Y-121697271D01*
X137612327Y-121649296D01*
X137595533Y-121581475D01*
X137618071Y-121515340D01*
X137620868Y-121511667D01*
X137631599Y-121495608D01*
X137709394Y-121379179D01*
X137769737Y-121233497D01*
X137800500Y-121078842D01*
X137800500Y-120921158D01*
X137800500Y-120921155D01*
X137800499Y-120921153D01*
X137786598Y-120851267D01*
X137769737Y-120766503D01*
X137752413Y-120724678D01*
X137709397Y-120620827D01*
X137709390Y-120620814D01*
X137621789Y-120489711D01*
X137621786Y-120489707D01*
X137510292Y-120378213D01*
X137510284Y-120378207D01*
X137472712Y-120353102D01*
X137427906Y-120299490D01*
X137419199Y-120230165D01*
X137449353Y-120167138D01*
X137472712Y-120146898D01*
X137504735Y-120125500D01*
X137510289Y-120121789D01*
X137621789Y-120010289D01*
X137709394Y-119879179D01*
X137769737Y-119733497D01*
X137800500Y-119578842D01*
X137800500Y-119421158D01*
X137800500Y-119421155D01*
X137800499Y-119421153D01*
X137774531Y-119290606D01*
X137769737Y-119266503D01*
X137769735Y-119266498D01*
X137709397Y-119120827D01*
X137709390Y-119120814D01*
X137621789Y-118989711D01*
X137621786Y-118989707D01*
X137510292Y-118878213D01*
X137510288Y-118878210D01*
X137379185Y-118790609D01*
X137379172Y-118790602D01*
X137233501Y-118730264D01*
X137233489Y-118730261D01*
X137078845Y-118699500D01*
X137078842Y-118699500D01*
X136921158Y-118699500D01*
X136921155Y-118699500D01*
X136766510Y-118730261D01*
X136766498Y-118730264D01*
X136620827Y-118790602D01*
X136620815Y-118790609D01*
X136526541Y-118853602D01*
X136459864Y-118874480D01*
X136457650Y-118874500D01*
X108758389Y-118874500D01*
X108707525Y-118884617D01*
X108707520Y-118884618D01*
X108697971Y-118886518D01*
X108637548Y-118898537D01*
X108610140Y-118909890D01*
X108523715Y-118945688D01*
X108523714Y-118945689D01*
X108501481Y-118960544D01*
X108501477Y-118960546D01*
X108421271Y-119014138D01*
X108421269Y-119014139D01*
X108377706Y-119057703D01*
X108334142Y-119101267D01*
X108334139Y-119101270D01*
X107077837Y-120357571D01*
X107016514Y-120391056D01*
X106951838Y-120387821D01*
X106944219Y-120385345D01*
X106936241Y-120382753D01*
X106749016Y-120353100D01*
X106726287Y-120349500D01*
X106513713Y-120349500D01*
X106465042Y-120357208D01*
X106303760Y-120382753D01*
X106101585Y-120448444D01*
X105912179Y-120544951D01*
X105740213Y-120669890D01*
X105589890Y-120820213D01*
X105464949Y-120992182D01*
X105460484Y-121000946D01*
X105412509Y-121051742D01*
X105344688Y-121068536D01*
X105278553Y-121045998D01*
X105239516Y-121000946D01*
X105235050Y-120992182D01*
X105110109Y-120820213D01*
X104959786Y-120669890D01*
X104787820Y-120544951D01*
X104598414Y-120448444D01*
X104598413Y-120448443D01*
X104598412Y-120448443D01*
X104396243Y-120382754D01*
X104396241Y-120382753D01*
X104396240Y-120382753D01*
X104234957Y-120357208D01*
X104186287Y-120349500D01*
X103973713Y-120349500D01*
X103925042Y-120357208D01*
X103763760Y-120382753D01*
X103561585Y-120448444D01*
X103372179Y-120544951D01*
X103200215Y-120669889D01*
X103086285Y-120783819D01*
X103024962Y-120817303D01*
X102955270Y-120812319D01*
X102899337Y-120770447D01*
X102882422Y-120739470D01*
X102833354Y-120607913D01*
X102833350Y-120607906D01*
X102747190Y-120492812D01*
X102747187Y-120492809D01*
X102632093Y-120406649D01*
X102632086Y-120406645D01*
X102497379Y-120356403D01*
X102497372Y-120356401D01*
X102437844Y-120350000D01*
X101790000Y-120350000D01*
X101790000Y-121266988D01*
X101732993Y-121234075D01*
X101605826Y-121200000D01*
X101474174Y-121200000D01*
X101347007Y-121234075D01*
X101290000Y-121266988D01*
X101290000Y-120350000D01*
X100642155Y-120350000D01*
X100582627Y-120356401D01*
X100582620Y-120356403D01*
X100447913Y-120406645D01*
X100447906Y-120406649D01*
X100332812Y-120492809D01*
X100332809Y-120492812D01*
X100246649Y-120607906D01*
X100246646Y-120607912D01*
X100197577Y-120739471D01*
X100155705Y-120795404D01*
X100090241Y-120819821D01*
X100021968Y-120804969D01*
X99993714Y-120783818D01*
X99879786Y-120669890D01*
X99707820Y-120544951D01*
X99518414Y-120448444D01*
X99518413Y-120448443D01*
X99518412Y-120448443D01*
X99316243Y-120382754D01*
X99316241Y-120382753D01*
X99316240Y-120382753D01*
X99154957Y-120357208D01*
X99106287Y-120349500D01*
X98893713Y-120349500D01*
X98845042Y-120357208D01*
X98683760Y-120382753D01*
X98481585Y-120448444D01*
X98292179Y-120544951D01*
X98120213Y-120669890D01*
X97969890Y-120820213D01*
X97844949Y-120992182D01*
X97810442Y-121059906D01*
X97762468Y-121110701D01*
X97694647Y-121127496D01*
X97628512Y-121104958D01*
X97612277Y-121091291D01*
X94911819Y-118390833D01*
X94878334Y-118329510D01*
X94875500Y-118303152D01*
X94875500Y-112042350D01*
X94895185Y-111975311D01*
X94896398Y-111973459D01*
X94912407Y-111949500D01*
X94959394Y-111879179D01*
X94962854Y-111870827D01*
X94989378Y-111806791D01*
X95019737Y-111733497D01*
X95050500Y-111578842D01*
X95050500Y-111421158D01*
X95050500Y-111421155D01*
X95050499Y-111421153D01*
X95023097Y-111283394D01*
X95019737Y-111266503D01*
X95004028Y-111228578D01*
X94959397Y-111120827D01*
X94959390Y-111120814D01*
X94871789Y-110989711D01*
X94871786Y-110989707D01*
X94760292Y-110878213D01*
X94760288Y-110878210D01*
X94629185Y-110790609D01*
X94629172Y-110790602D01*
X94483501Y-110730264D01*
X94483489Y-110730261D01*
X94328845Y-110699500D01*
X94328842Y-110699500D01*
X94171158Y-110699500D01*
X94171155Y-110699500D01*
X94016510Y-110730261D01*
X94016498Y-110730264D01*
X93870827Y-110790602D01*
X93870814Y-110790609D01*
X93739711Y-110878210D01*
X93739707Y-110878213D01*
X93628213Y-110989707D01*
X93628210Y-110989711D01*
X93540609Y-111120814D01*
X93540602Y-111120827D01*
X93480264Y-111266498D01*
X93480261Y-111266510D01*
X93449500Y-111421153D01*
X93449500Y-111578846D01*
X93449596Y-111579823D01*
X93449500Y-111580328D01*
X93449500Y-111584934D01*
X93448626Y-111584934D01*
X93436567Y-111648468D01*
X93388495Y-111699171D01*
X93350383Y-111713577D01*
X93266508Y-111730261D01*
X93266498Y-111730264D01*
X93120827Y-111790602D01*
X93120814Y-111790609D01*
X92989711Y-111878210D01*
X92989707Y-111878213D01*
X92878213Y-111989707D01*
X92878212Y-111989709D01*
X92790609Y-112120814D01*
X92790602Y-112120827D01*
X92730264Y-112266498D01*
X92730261Y-112266510D01*
X92699500Y-112421153D01*
X92699500Y-112578846D01*
X92699596Y-112579823D01*
X92699500Y-112580328D01*
X92699500Y-112584934D01*
X92698626Y-112584934D01*
X92686567Y-112648468D01*
X92638495Y-112699171D01*
X92600383Y-112713577D01*
X92516508Y-112730261D01*
X92516498Y-112730264D01*
X92370827Y-112790602D01*
X92370814Y-112790609D01*
X92239711Y-112878210D01*
X92239707Y-112878213D01*
X92128213Y-112989707D01*
X92128210Y-112989711D01*
X92040609Y-113120814D01*
X92040602Y-113120827D01*
X91980264Y-113266498D01*
X91980261Y-113266510D01*
X91949500Y-113421153D01*
X91949500Y-113421158D01*
X91949500Y-113578842D01*
X91953059Y-113596734D01*
X91946830Y-113666326D01*
X91903967Y-113721502D01*
X91878894Y-113735485D01*
X91745824Y-113790604D01*
X91745814Y-113790609D01*
X91614711Y-113878210D01*
X91614707Y-113878213D01*
X91503213Y-113989707D01*
X91503210Y-113989711D01*
X91415609Y-114120814D01*
X91415602Y-114120827D01*
X91355264Y-114266498D01*
X91355261Y-114266510D01*
X91324500Y-114421153D01*
X91324500Y-114578846D01*
X91355261Y-114733489D01*
X91355264Y-114733501D01*
X91415602Y-114879172D01*
X91415609Y-114879184D01*
X91478602Y-114973459D01*
X91499480Y-115040136D01*
X91499500Y-115042350D01*
X91499500Y-118686611D01*
X91523535Y-118807444D01*
X91523540Y-118807461D01*
X91570685Y-118921280D01*
X91570687Y-118921283D01*
X91570688Y-118921286D01*
X91604915Y-118972509D01*
X91639142Y-119023733D01*
X91726267Y-119110858D01*
X91726270Y-119110860D01*
X91733554Y-119118144D01*
X92803229Y-120187819D01*
X92836714Y-120249142D01*
X92831730Y-120318834D01*
X92789858Y-120374767D01*
X92724394Y-120399184D01*
X92715548Y-120399500D01*
X90949500Y-120399500D01*
X90882461Y-120379815D01*
X90836706Y-120327011D01*
X90825500Y-120275500D01*
X90825500Y-109724500D01*
X90845185Y-109657461D01*
X90897989Y-109611706D01*
X90949500Y-109600500D01*
X93107317Y-109600500D01*
X93107318Y-109600500D01*
X93319769Y-109569954D01*
X93430137Y-109537547D01*
X93525701Y-109509488D01*
X93525703Y-109509486D01*
X93525710Y-109509485D01*
X93686016Y-109436276D01*
X93720938Y-109420328D01*
X93720942Y-109420325D01*
X93720950Y-109420322D01*
X93901513Y-109304281D01*
X94062505Y-109164779D01*
X94092790Y-109165027D01*
X94093076Y-109129849D01*
X94204281Y-109001513D01*
X94320322Y-108820950D01*
X94320325Y-108820942D01*
X94320328Y-108820938D01*
X94387255Y-108674386D01*
X94409485Y-108625710D01*
X94469954Y-108419769D01*
X94500500Y-108207318D01*
X94500500Y-108100000D01*
X94500500Y-108034108D01*
X94500500Y-99852486D01*
X97749500Y-99852486D01*
X97749500Y-100147513D01*
X97766152Y-100273989D01*
X97788007Y-100439993D01*
X97788008Y-100439995D01*
X97864361Y-100724951D01*
X97864364Y-100724961D01*
X97977254Y-100997500D01*
X97977258Y-100997510D01*
X98124761Y-101252993D01*
X98304352Y-101487040D01*
X98304358Y-101487047D01*
X98512952Y-101695641D01*
X98512959Y-101695647D01*
X98747006Y-101875238D01*
X99002489Y-102022741D01*
X99002490Y-102022741D01*
X99002493Y-102022743D01*
X99275048Y-102135639D01*
X99560007Y-102211993D01*
X99852494Y-102250500D01*
X99852501Y-102250500D01*
X100147499Y-102250500D01*
X100147506Y-102250500D01*
X100439993Y-102211993D01*
X100724952Y-102135639D01*
X100997507Y-102022743D01*
X101252994Y-101875238D01*
X101487042Y-101695646D01*
X101695646Y-101487042D01*
X101875238Y-101252994D01*
X102022743Y-100997507D01*
X102135639Y-100724952D01*
X102211993Y-100439993D01*
X102250500Y-100147506D01*
X102250500Y-99852494D01*
X102250499Y-99852486D01*
X128249500Y-99852486D01*
X128249500Y-100147513D01*
X128266152Y-100273989D01*
X128288007Y-100439993D01*
X128288008Y-100439995D01*
X128364361Y-100724951D01*
X128364364Y-100724961D01*
X128477254Y-100997500D01*
X128477258Y-100997510D01*
X128624761Y-101252993D01*
X128804352Y-101487040D01*
X128804358Y-101487047D01*
X129012952Y-101695641D01*
X129012959Y-101695647D01*
X129247006Y-101875238D01*
X129502489Y-102022741D01*
X129502490Y-102022741D01*
X129502493Y-102022743D01*
X129775048Y-102135639D01*
X130060007Y-102211993D01*
X130352494Y-102250500D01*
X130352501Y-102250500D01*
X130647499Y-102250500D01*
X130647506Y-102250500D01*
X130939993Y-102211993D01*
X131224952Y-102135639D01*
X131497507Y-102022743D01*
X131752994Y-101875238D01*
X131987042Y-101695646D01*
X132195646Y-101487042D01*
X132375238Y-101252994D01*
X132522743Y-100997507D01*
X132635639Y-100724952D01*
X132711993Y-100439993D01*
X132750500Y-100147506D01*
X132750500Y-99852494D01*
X132711993Y-99560007D01*
X132635639Y-99275048D01*
X132522743Y-99002493D01*
X132399414Y-98788881D01*
X132375238Y-98747006D01*
X132195647Y-98512959D01*
X132195641Y-98512952D01*
X131987047Y-98304358D01*
X131987040Y-98304352D01*
X131752993Y-98124761D01*
X131497510Y-97977258D01*
X131497500Y-97977254D01*
X131224961Y-97864364D01*
X131224954Y-97864362D01*
X131224952Y-97864361D01*
X130939993Y-97788007D01*
X130891113Y-97781571D01*
X130647513Y-97749500D01*
X130647506Y-97749500D01*
X130352494Y-97749500D01*
X130352486Y-97749500D01*
X130076269Y-97785866D01*
X130060007Y-97788007D01*
X129811059Y-97854712D01*
X129775048Y-97864361D01*
X129775038Y-97864364D01*
X129502499Y-97977254D01*
X129502489Y-97977258D01*
X129247006Y-98124761D01*
X129012959Y-98304352D01*
X129012952Y-98304358D01*
X128804358Y-98512952D01*
X128804352Y-98512959D01*
X128624761Y-98747006D01*
X128477258Y-99002489D01*
X128477254Y-99002499D01*
X128364364Y-99275038D01*
X128364361Y-99275048D01*
X128295825Y-99530832D01*
X128288008Y-99560004D01*
X128288006Y-99560015D01*
X128249500Y-99852486D01*
X102250499Y-99852486D01*
X102211993Y-99560007D01*
X102135639Y-99275048D01*
X102022743Y-99002493D01*
X101899414Y-98788881D01*
X101875238Y-98747006D01*
X101695647Y-98512959D01*
X101695641Y-98512952D01*
X101487047Y-98304358D01*
X101487040Y-98304352D01*
X101252993Y-98124761D01*
X100997510Y-97977258D01*
X100997500Y-97977254D01*
X100724961Y-97864364D01*
X100724954Y-97864362D01*
X100724952Y-97864361D01*
X100439993Y-97788007D01*
X100391113Y-97781571D01*
X100147513Y-97749500D01*
X100147506Y-97749500D01*
X99852494Y-97749500D01*
X99852486Y-97749500D01*
X99576269Y-97785866D01*
X99560007Y-97788007D01*
X99311059Y-97854712D01*
X99275048Y-97864361D01*
X99275038Y-97864364D01*
X99002499Y-97977254D01*
X99002489Y-97977258D01*
X98747006Y-98124761D01*
X98512959Y-98304352D01*
X98512952Y-98304358D01*
X98304358Y-98512952D01*
X98304352Y-98512959D01*
X98124761Y-98747006D01*
X97977258Y-99002489D01*
X97977254Y-99002499D01*
X97864364Y-99275038D01*
X97864361Y-99275048D01*
X97795825Y-99530832D01*
X97788008Y-99560004D01*
X97788006Y-99560015D01*
X97749500Y-99852486D01*
X94500500Y-99852486D01*
X94500500Y-96256959D01*
X94501280Y-96243077D01*
X94505436Y-96206191D01*
X94511459Y-96152727D01*
X94517635Y-96125668D01*
X94545353Y-96046457D01*
X94557393Y-96021453D01*
X94602046Y-95950389D01*
X94619351Y-95928690D01*
X94678690Y-95869351D01*
X94700389Y-95852046D01*
X94771453Y-95807393D01*
X94796457Y-95795353D01*
X94875668Y-95767635D01*
X94902729Y-95761459D01*
X94978753Y-95752893D01*
X94993078Y-95751280D01*
X95006960Y-95750500D01*
X95065892Y-95750500D01*
X134847472Y-95750500D01*
X134914511Y-95770185D01*
G37*
%TD.AperFunction*%
%TA.AperFunction,Conductor*%
G36*
X181511444Y-108283999D02*
G01*
X181550486Y-108329056D01*
X181554951Y-108337820D01*
X181679890Y-108509786D01*
X181830213Y-108660109D01*
X182002179Y-108785048D01*
X182002181Y-108785049D01*
X182002184Y-108785051D01*
X182191588Y-108881557D01*
X182393757Y-108947246D01*
X182603713Y-108980500D01*
X182603714Y-108980500D01*
X182816286Y-108980500D01*
X182816287Y-108980500D01*
X183026243Y-108947246D01*
X183041837Y-108942178D01*
X183111676Y-108940182D01*
X183167837Y-108972428D01*
X185763181Y-111567771D01*
X185796666Y-111629094D01*
X185799500Y-111655452D01*
X185799500Y-116298163D01*
X185792779Y-116321050D01*
X185790400Y-116344790D01*
X185783114Y-116353964D01*
X185779815Y-116365202D01*
X185761788Y-116380821D01*
X185746951Y-116399508D01*
X185735861Y-116403287D01*
X185727011Y-116410957D01*
X185703400Y-116414351D01*
X185680818Y-116422049D01*
X185664939Y-116419882D01*
X185657853Y-116420901D01*
X185645700Y-116418529D01*
X185641384Y-116417460D01*
X185519409Y-116377829D01*
X185413656Y-116361079D01*
X185408498Y-116359802D01*
X185382725Y-116344760D01*
X185355765Y-116331979D01*
X185350617Y-116327117D01*
X185124039Y-116100538D01*
X185124038Y-116100537D01*
X185100121Y-116084556D01*
X185049150Y-116050499D01*
X184976547Y-116001987D01*
X184894606Y-115968046D01*
X184812666Y-115934105D01*
X184812658Y-115934103D01*
X184638696Y-115899500D01*
X184638692Y-115899500D01*
X184638691Y-115899500D01*
X182633751Y-115899500D01*
X182566712Y-115879815D01*
X182546070Y-115863181D01*
X175699969Y-109017080D01*
X175666484Y-108955757D01*
X175671468Y-108886065D01*
X175713340Y-108830132D01*
X175731356Y-108818914D01*
X175782831Y-108792686D01*
X175797816Y-108785051D01*
X175884471Y-108722093D01*
X175969786Y-108660109D01*
X175969788Y-108660106D01*
X175969792Y-108660104D01*
X176120104Y-108509792D01*
X176120106Y-108509788D01*
X176120109Y-108509786D01*
X176245048Y-108337820D01*
X176245047Y-108337820D01*
X176245051Y-108337816D01*
X176249514Y-108329054D01*
X176297488Y-108278259D01*
X176365308Y-108261463D01*
X176431444Y-108283999D01*
X176470486Y-108329056D01*
X176474951Y-108337820D01*
X176599890Y-108509786D01*
X176750213Y-108660109D01*
X176922179Y-108785048D01*
X176922181Y-108785049D01*
X176922184Y-108785051D01*
X177111588Y-108881557D01*
X177313757Y-108947246D01*
X177523713Y-108980500D01*
X177523714Y-108980500D01*
X177736286Y-108980500D01*
X177736287Y-108980500D01*
X177946243Y-108947246D01*
X178148412Y-108881557D01*
X178337816Y-108785051D01*
X178424471Y-108722093D01*
X178509786Y-108660109D01*
X178509788Y-108660106D01*
X178509792Y-108660104D01*
X178660104Y-108509792D01*
X178660106Y-108509788D01*
X178660109Y-108509786D01*
X178785048Y-108337820D01*
X178785047Y-108337820D01*
X178785051Y-108337816D01*
X178789514Y-108329054D01*
X178837488Y-108278259D01*
X178905308Y-108261463D01*
X178971444Y-108283999D01*
X179010486Y-108329056D01*
X179014951Y-108337820D01*
X179139890Y-108509786D01*
X179290213Y-108660109D01*
X179462179Y-108785048D01*
X179462181Y-108785049D01*
X179462184Y-108785051D01*
X179651588Y-108881557D01*
X179853757Y-108947246D01*
X180063713Y-108980500D01*
X180063714Y-108980500D01*
X180276286Y-108980500D01*
X180276287Y-108980500D01*
X180486243Y-108947246D01*
X180688412Y-108881557D01*
X180877816Y-108785051D01*
X180964471Y-108722093D01*
X181049786Y-108660109D01*
X181049788Y-108660106D01*
X181049792Y-108660104D01*
X181200104Y-108509792D01*
X181200106Y-108509788D01*
X181200109Y-108509786D01*
X181325048Y-108337820D01*
X181325047Y-108337820D01*
X181325051Y-108337816D01*
X181329514Y-108329054D01*
X181377488Y-108278259D01*
X181445308Y-108261463D01*
X181511444Y-108283999D01*
G37*
%TD.AperFunction*%
%TA.AperFunction,Conductor*%
G36*
X186006922Y-95751280D02*
G01*
X186023878Y-95753190D01*
X186097268Y-95761458D01*
X186124333Y-95767636D01*
X186203539Y-95795351D01*
X186228549Y-95807395D01*
X186299606Y-95852043D01*
X186321313Y-95869355D01*
X186380644Y-95928686D01*
X186397957Y-95950395D01*
X186442602Y-96021447D01*
X186454649Y-96046464D01*
X186482362Y-96125662D01*
X186488541Y-96152734D01*
X186498720Y-96243076D01*
X186499500Y-96256959D01*
X186499500Y-105206832D01*
X186533657Y-105619043D01*
X186533658Y-105619049D01*
X186600520Y-106019737D01*
X186601742Y-106027057D01*
X186665669Y-106279500D01*
X186674807Y-106315583D01*
X186672182Y-106385403D01*
X186632226Y-106442721D01*
X186567624Y-106469337D01*
X186498888Y-106456802D01*
X186464518Y-106428023D01*
X186463460Y-106429082D01*
X186457187Y-106422809D01*
X186342093Y-106336649D01*
X186342086Y-106336645D01*
X186207379Y-106286403D01*
X186207372Y-106286401D01*
X186147844Y-106280000D01*
X185500000Y-106280000D01*
X185500000Y-107196988D01*
X185442993Y-107164075D01*
X185315826Y-107130000D01*
X185184174Y-107130000D01*
X185057007Y-107164075D01*
X185000000Y-107196988D01*
X185000000Y-106280000D01*
X184352155Y-106280000D01*
X184292627Y-106286401D01*
X184292620Y-106286403D01*
X184157913Y-106336645D01*
X184157906Y-106336649D01*
X184042812Y-106422809D01*
X184042809Y-106422812D01*
X183956649Y-106537906D01*
X183956646Y-106537912D01*
X183907577Y-106669471D01*
X183865705Y-106725404D01*
X183800241Y-106749821D01*
X183731968Y-106734969D01*
X183703714Y-106713818D01*
X183589786Y-106599890D01*
X183417820Y-106474951D01*
X183228414Y-106378444D01*
X183228413Y-106378443D01*
X183228412Y-106378443D01*
X183026243Y-106312754D01*
X183026241Y-106312753D01*
X183026240Y-106312753D01*
X182864957Y-106287208D01*
X182816287Y-106279500D01*
X182603713Y-106279500D01*
X182561721Y-106286150D01*
X182393753Y-106312754D01*
X182378160Y-106317821D01*
X182308319Y-106319816D01*
X182252162Y-106287571D01*
X180911819Y-104947228D01*
X180878334Y-104885905D01*
X180875500Y-104859547D01*
X180875500Y-104438393D01*
X180875499Y-104438389D01*
X180868623Y-104403820D01*
X180851463Y-104317548D01*
X180806081Y-104207987D01*
X180804312Y-104203715D01*
X180787256Y-104178190D01*
X180735858Y-104101267D01*
X180735856Y-104101264D01*
X180645637Y-104011045D01*
X180645606Y-104011016D01*
X180575793Y-103941203D01*
X180542308Y-103879880D01*
X180541887Y-103877864D01*
X180519737Y-103766503D01*
X180481004Y-103672993D01*
X180459397Y-103620827D01*
X180459390Y-103620814D01*
X180371789Y-103489711D01*
X180371786Y-103489707D01*
X180260292Y-103378213D01*
X180260288Y-103378210D01*
X180129185Y-103290609D01*
X180129172Y-103290602D01*
X179983501Y-103230264D01*
X179983489Y-103230261D01*
X179828845Y-103199500D01*
X179828842Y-103199500D01*
X179671158Y-103199500D01*
X179671155Y-103199500D01*
X179516510Y-103230261D01*
X179516498Y-103230264D01*
X179370827Y-103290602D01*
X179370814Y-103290609D01*
X179239711Y-103378210D01*
X179239707Y-103378213D01*
X179128213Y-103489707D01*
X179128210Y-103489711D01*
X179040609Y-103620814D01*
X179040602Y-103620827D01*
X178980264Y-103766498D01*
X178980261Y-103766510D01*
X178949500Y-103921153D01*
X178949500Y-104078846D01*
X178980261Y-104233489D01*
X178980264Y-104233501D01*
X179040602Y-104379172D01*
X179040609Y-104379185D01*
X179128210Y-104510288D01*
X179128213Y-104510292D01*
X179239707Y-104621786D01*
X179239711Y-104621789D01*
X179370814Y-104709390D01*
X179370827Y-104709397D01*
X179444013Y-104739711D01*
X179516503Y-104769737D01*
X179524691Y-104771365D01*
X179586601Y-104803750D01*
X179621176Y-104864465D01*
X179624500Y-104892983D01*
X179624500Y-105231606D01*
X179645521Y-105337291D01*
X179645522Y-105337294D01*
X179645521Y-105337294D01*
X179648536Y-105352447D01*
X179648537Y-105352451D01*
X179695688Y-105466286D01*
X179695689Y-105466288D01*
X179695690Y-105466289D01*
X179695690Y-105466290D01*
X179714437Y-105494346D01*
X179714440Y-105494350D01*
X179718550Y-105500500D01*
X179764142Y-105568733D01*
X179851267Y-105655858D01*
X179851269Y-105655859D01*
X179861726Y-105666316D01*
X180263229Y-106067819D01*
X180296714Y-106129142D01*
X180291730Y-106198834D01*
X180249858Y-106254767D01*
X180184394Y-106279184D01*
X180175548Y-106279500D01*
X180063713Y-106279500D01*
X180035006Y-106284046D01*
X179853757Y-106312753D01*
X179838158Y-106317822D01*
X179768317Y-106319816D01*
X179712161Y-106287571D01*
X179488150Y-106063560D01*
X179480860Y-106056270D01*
X179480858Y-106056267D01*
X179393733Y-105969142D01*
X179342509Y-105934915D01*
X179291286Y-105900688D01*
X179291283Y-105900686D01*
X179291280Y-105900685D01*
X179217603Y-105870168D01*
X179217601Y-105870167D01*
X179210792Y-105867347D01*
X179177452Y-105853537D01*
X179117029Y-105841518D01*
X179112306Y-105840578D01*
X179112304Y-105840578D01*
X179056610Y-105829500D01*
X179056607Y-105829500D01*
X179056606Y-105829500D01*
X176948751Y-105829500D01*
X176881712Y-105809815D01*
X176861070Y-105793181D01*
X175980537Y-104912648D01*
X175947052Y-104851325D01*
X175952036Y-104781633D01*
X175993908Y-104725700D01*
X176011920Y-104714483D01*
X176167816Y-104635051D01*
X176216381Y-104599767D01*
X176339786Y-104510109D01*
X176339788Y-104510106D01*
X176339792Y-104510104D01*
X176490104Y-104359792D01*
X176490106Y-104359788D01*
X176490109Y-104359786D01*
X176615048Y-104187820D01*
X176615047Y-104187820D01*
X176615051Y-104187816D01*
X176711557Y-103998412D01*
X176777246Y-103796243D01*
X176810500Y-103586287D01*
X176810500Y-103373713D01*
X176777246Y-103163757D01*
X176711557Y-102961588D01*
X176615051Y-102772184D01*
X176615049Y-102772181D01*
X176615048Y-102772179D01*
X176490109Y-102600213D01*
X176339786Y-102449890D01*
X176167820Y-102324951D01*
X175978414Y-102228444D01*
X175978413Y-102228443D01*
X175978412Y-102228443D01*
X175776243Y-102162754D01*
X175776241Y-102162753D01*
X175776240Y-102162753D01*
X175614957Y-102137208D01*
X175566287Y-102129500D01*
X175353713Y-102129500D01*
X175302755Y-102137571D01*
X175153144Y-102161267D01*
X175083850Y-102152312D01*
X175046065Y-102126475D01*
X172772076Y-99852486D01*
X180249500Y-99852486D01*
X180249500Y-100147513D01*
X180266152Y-100273989D01*
X180288007Y-100439993D01*
X180288008Y-100439995D01*
X180364361Y-100724951D01*
X180364364Y-100724961D01*
X180477254Y-100997500D01*
X180477258Y-100997510D01*
X180624761Y-101252993D01*
X180804352Y-101487040D01*
X180804358Y-101487047D01*
X181012952Y-101695641D01*
X181012959Y-101695647D01*
X181247006Y-101875238D01*
X181502489Y-102022741D01*
X181502490Y-102022741D01*
X181502493Y-102022743D01*
X181775048Y-102135639D01*
X182060007Y-102211993D01*
X182352494Y-102250500D01*
X182352501Y-102250500D01*
X182647499Y-102250500D01*
X182647506Y-102250500D01*
X182939993Y-102211993D01*
X183224952Y-102135639D01*
X183497507Y-102022743D01*
X183752994Y-101875238D01*
X183987042Y-101695646D01*
X184195646Y-101487042D01*
X184375238Y-101252994D01*
X184522743Y-100997507D01*
X184635639Y-100724952D01*
X184711993Y-100439993D01*
X184750500Y-100147506D01*
X184750500Y-99852494D01*
X184711993Y-99560007D01*
X184635639Y-99275048D01*
X184522743Y-99002493D01*
X184399414Y-98788881D01*
X184375238Y-98747006D01*
X184195647Y-98512959D01*
X184195641Y-98512952D01*
X183987047Y-98304358D01*
X183987040Y-98304352D01*
X183752993Y-98124761D01*
X183497510Y-97977258D01*
X183497500Y-97977254D01*
X183224961Y-97864364D01*
X183224954Y-97864362D01*
X183224952Y-97864361D01*
X182939993Y-97788007D01*
X182891113Y-97781571D01*
X182647513Y-97749500D01*
X182647506Y-97749500D01*
X182352494Y-97749500D01*
X182352486Y-97749500D01*
X182076269Y-97785866D01*
X182060007Y-97788007D01*
X181811059Y-97854712D01*
X181775048Y-97864361D01*
X181775038Y-97864364D01*
X181502499Y-97977254D01*
X181502489Y-97977258D01*
X181247006Y-98124761D01*
X181012959Y-98304352D01*
X181012952Y-98304358D01*
X180804358Y-98512952D01*
X180804352Y-98512959D01*
X180624761Y-98747006D01*
X180477258Y-99002489D01*
X180477254Y-99002499D01*
X180364364Y-99275038D01*
X180364361Y-99275048D01*
X180295825Y-99530832D01*
X180288008Y-99560004D01*
X180288006Y-99560015D01*
X180249500Y-99852486D01*
X172772076Y-99852486D01*
X171548150Y-98628560D01*
X171540860Y-98621270D01*
X171540858Y-98621267D01*
X171453733Y-98534142D01*
X171402509Y-98499915D01*
X171351286Y-98465688D01*
X171351283Y-98465686D01*
X171351280Y-98465685D01*
X171277603Y-98435168D01*
X171277601Y-98435167D01*
X171270792Y-98432347D01*
X171237452Y-98418537D01*
X171177029Y-98406518D01*
X171172306Y-98405578D01*
X171172304Y-98405578D01*
X171116610Y-98394500D01*
X171116607Y-98394500D01*
X171116606Y-98394500D01*
X161556301Y-98394500D01*
X161489262Y-98374815D01*
X161455983Y-98343386D01*
X161415690Y-98287927D01*
X161282073Y-98154310D01*
X161129199Y-98043240D01*
X160960836Y-97957454D01*
X160886472Y-97933291D01*
X160839195Y-97917930D01*
X160781521Y-97878493D01*
X160754323Y-97814134D01*
X160766238Y-97745288D01*
X160813482Y-97693812D01*
X160839194Y-97682069D01*
X160960832Y-97642547D01*
X161129199Y-97556760D01*
X161282073Y-97445690D01*
X161415690Y-97312073D01*
X161526760Y-97159199D01*
X161612547Y-96990832D01*
X161670940Y-96811118D01*
X161677621Y-96768935D01*
X161700500Y-96624486D01*
X161700500Y-96435513D01*
X161670940Y-96248881D01*
X161612545Y-96069163D01*
X161542043Y-95930795D01*
X161529147Y-95862125D01*
X161555424Y-95797385D01*
X161612530Y-95757128D01*
X161652528Y-95750500D01*
X185934108Y-95750500D01*
X185993040Y-95750500D01*
X186006922Y-95751280D01*
G37*
%TD.AperFunction*%
%TA.AperFunction,Conductor*%
G36*
X156350111Y-95751275D02*
G01*
X156352782Y-95750614D01*
X156383441Y-95761061D01*
X156414511Y-95770185D01*
X156416311Y-95772263D01*
X156418917Y-95773151D01*
X156439067Y-95798525D01*
X156460266Y-95822989D01*
X156460657Y-95825710D01*
X156462369Y-95827866D01*
X156465602Y-95860100D01*
X156470210Y-95892147D01*
X156469151Y-95895486D01*
X156469342Y-95897387D01*
X156457957Y-95930795D01*
X156387454Y-96069163D01*
X156329059Y-96248881D01*
X156299500Y-96435513D01*
X156299500Y-96624486D01*
X156329059Y-96811118D01*
X156387454Y-96990836D01*
X156473240Y-97159199D01*
X156584310Y-97312073D01*
X156717927Y-97445690D01*
X156870801Y-97556760D01*
X156950347Y-97597290D01*
X157039163Y-97642545D01*
X157039165Y-97642545D01*
X157039168Y-97642547D01*
X157128734Y-97671649D01*
X157160803Y-97682069D01*
X157218478Y-97721507D01*
X157245676Y-97785866D01*
X157233761Y-97854712D01*
X157186516Y-97906188D01*
X157160803Y-97917931D01*
X157039163Y-97957454D01*
X156870800Y-98043240D01*
X156783579Y-98106610D01*
X156717927Y-98154310D01*
X156717925Y-98154312D01*
X156717924Y-98154312D01*
X156584312Y-98287924D01*
X156584312Y-98287925D01*
X156584310Y-98287927D01*
X156536610Y-98353579D01*
X156473240Y-98440800D01*
X156387454Y-98609163D01*
X156329059Y-98788881D01*
X156299500Y-98975513D01*
X156299500Y-99164486D01*
X156329059Y-99351118D01*
X156387454Y-99530836D01*
X156402322Y-99560015D01*
X156473240Y-99699199D01*
X156584310Y-99852073D01*
X156717927Y-99985690D01*
X156870801Y-100096760D01*
X156950347Y-100137290D01*
X157039163Y-100182545D01*
X157039165Y-100182545D01*
X157039168Y-100182547D01*
X157114272Y-100206950D01*
X157218881Y-100240940D01*
X157405514Y-100270500D01*
X157405519Y-100270500D01*
X157594486Y-100270500D01*
X157766394Y-100243272D01*
X157835687Y-100252226D01*
X157873473Y-100278064D01*
X158681262Y-101085854D01*
X158681265Y-101085857D01*
X158749411Y-101131390D01*
X158783714Y-101154311D01*
X158897548Y-101201463D01*
X159018388Y-101225499D01*
X159018392Y-101225500D01*
X159018393Y-101225500D01*
X159018394Y-101225500D01*
X171288289Y-101225500D01*
X171355328Y-101245185D01*
X171401083Y-101297989D01*
X171411027Y-101367147D01*
X171382002Y-101430703D01*
X171323224Y-101468477D01*
X171312480Y-101471117D01*
X171266510Y-101480261D01*
X171266498Y-101480264D01*
X171120827Y-101540602D01*
X171120814Y-101540609D01*
X170989711Y-101628210D01*
X170989707Y-101628213D01*
X170878213Y-101739707D01*
X170878210Y-101739711D01*
X170790609Y-101870814D01*
X170790602Y-101870827D01*
X170730264Y-102016498D01*
X170730262Y-102016507D01*
X170724280Y-102046579D01*
X170691894Y-102108489D01*
X170631178Y-102143063D01*
X170583266Y-102144860D01*
X170486287Y-102129500D01*
X170273713Y-102129500D01*
X170225042Y-102137208D01*
X170063760Y-102162753D01*
X170037892Y-102171158D01*
X169868621Y-102226158D01*
X169861585Y-102228444D01*
X169672179Y-102324951D01*
X169500215Y-102449889D01*
X169386285Y-102563819D01*
X169324962Y-102597303D01*
X169255270Y-102592319D01*
X169199337Y-102550447D01*
X169182422Y-102519470D01*
X169133354Y-102387913D01*
X169133350Y-102387906D01*
X169047190Y-102272812D01*
X169047187Y-102272809D01*
X168932093Y-102186649D01*
X168932086Y-102186645D01*
X168797379Y-102136403D01*
X168797372Y-102136401D01*
X168737844Y-102130000D01*
X168090000Y-102130000D01*
X168090000Y-103046988D01*
X168032993Y-103014075D01*
X167905826Y-102980000D01*
X167774174Y-102980000D01*
X167647007Y-103014075D01*
X167590000Y-103046988D01*
X167590000Y-102130000D01*
X166942155Y-102130000D01*
X166882627Y-102136401D01*
X166882620Y-102136403D01*
X166747913Y-102186645D01*
X166747906Y-102186649D01*
X166632812Y-102272809D01*
X166632809Y-102272812D01*
X166546649Y-102387906D01*
X166546645Y-102387913D01*
X166496403Y-102522620D01*
X166496401Y-102522627D01*
X166490000Y-102582155D01*
X166490000Y-103230000D01*
X167406988Y-103230000D01*
X167374075Y-103287007D01*
X167340000Y-103414174D01*
X167340000Y-103545826D01*
X167374075Y-103672993D01*
X167406988Y-103730000D01*
X166490000Y-103730000D01*
X166490000Y-104377844D01*
X166496401Y-104437372D01*
X166496403Y-104437379D01*
X166546645Y-104572086D01*
X166546649Y-104572093D01*
X166632809Y-104687187D01*
X166632812Y-104687190D01*
X166747906Y-104773350D01*
X166747913Y-104773354D01*
X166882620Y-104823596D01*
X166882627Y-104823598D01*
X166942155Y-104829999D01*
X166942172Y-104830000D01*
X167590000Y-104830000D01*
X167590000Y-103913012D01*
X167647007Y-103945925D01*
X167774174Y-103980000D01*
X167905826Y-103980000D01*
X168032993Y-103945925D01*
X168090000Y-103913012D01*
X168090000Y-104830000D01*
X168737828Y-104830000D01*
X168737844Y-104829999D01*
X168797372Y-104823598D01*
X168797379Y-104823596D01*
X168932086Y-104773354D01*
X168932093Y-104773350D01*
X169047187Y-104687190D01*
X169047190Y-104687187D01*
X169133350Y-104572093D01*
X169133354Y-104572086D01*
X169182422Y-104440529D01*
X169224293Y-104384595D01*
X169289757Y-104360178D01*
X169358030Y-104375030D01*
X169386285Y-104396181D01*
X169500213Y-104510109D01*
X169672179Y-104635048D01*
X169672181Y-104635049D01*
X169672184Y-104635051D01*
X169861588Y-104731557D01*
X170063757Y-104797246D01*
X170273713Y-104830500D01*
X170273714Y-104830500D01*
X170486286Y-104830500D01*
X170486287Y-104830500D01*
X170696243Y-104797246D01*
X170712182Y-104792066D01*
X170735213Y-104791408D01*
X170757660Y-104786204D01*
X170769475Y-104790428D01*
X170782019Y-104790070D01*
X170801753Y-104801969D01*
X170823451Y-104809727D01*
X170831106Y-104819668D01*
X170841853Y-104826148D01*
X170852020Y-104846825D01*
X170866081Y-104865084D01*
X170869212Y-104881790D01*
X170872683Y-104888848D01*
X170874052Y-104899467D01*
X170874500Y-104904723D01*
X170874500Y-104979906D01*
X170884365Y-105029500D01*
X170885710Y-105036267D01*
X170885712Y-105036279D01*
X170898535Y-105100745D01*
X170898540Y-105100762D01*
X170911122Y-105131135D01*
X170911123Y-105131137D01*
X170945685Y-105214580D01*
X170945687Y-105214583D01*
X170945688Y-105214585D01*
X170979915Y-105265808D01*
X171014141Y-105317032D01*
X171105586Y-105408477D01*
X171105608Y-105408497D01*
X171940030Y-106242919D01*
X171973515Y-106304242D01*
X171968531Y-106373934D01*
X171926659Y-106429867D01*
X171908645Y-106441084D01*
X171842182Y-106474949D01*
X171670213Y-106599890D01*
X171519890Y-106750213D01*
X171394949Y-106922182D01*
X171390484Y-106930946D01*
X171342509Y-106981742D01*
X171274688Y-106998536D01*
X171208553Y-106975998D01*
X171169516Y-106930946D01*
X171165050Y-106922182D01*
X171040109Y-106750213D01*
X170889786Y-106599890D01*
X170717820Y-106474951D01*
X170528414Y-106378444D01*
X170528413Y-106378443D01*
X170528412Y-106378443D01*
X170326243Y-106312754D01*
X170326241Y-106312753D01*
X170326240Y-106312753D01*
X170164957Y-106287208D01*
X170116287Y-106279500D01*
X169903713Y-106279500D01*
X169855042Y-106287208D01*
X169693760Y-106312753D01*
X169661288Y-106323304D01*
X169552631Y-106358609D01*
X169491585Y-106378444D01*
X169302179Y-106474951D01*
X169130213Y-106599890D01*
X168979890Y-106750213D01*
X168854949Y-106922182D01*
X168850484Y-106930946D01*
X168802509Y-106981742D01*
X168734688Y-106998536D01*
X168668553Y-106975998D01*
X168629516Y-106930946D01*
X168625050Y-106922182D01*
X168500109Y-106750213D01*
X168349786Y-106599890D01*
X168177820Y-106474951D01*
X167988414Y-106378444D01*
X167988413Y-106378443D01*
X167988412Y-106378443D01*
X167786243Y-106312754D01*
X167786241Y-106312753D01*
X167786240Y-106312753D01*
X167624957Y-106287208D01*
X167576287Y-106279500D01*
X167363713Y-106279500D01*
X167315042Y-106287208D01*
X167153760Y-106312753D01*
X167121288Y-106323304D01*
X167012631Y-106358609D01*
X166951585Y-106378444D01*
X166762179Y-106474951D01*
X166590213Y-106599890D01*
X166439890Y-106750213D01*
X166314949Y-106922182D01*
X166310484Y-106930946D01*
X166262509Y-106981742D01*
X166194688Y-106998536D01*
X166128553Y-106975998D01*
X166089516Y-106930946D01*
X166085050Y-106922182D01*
X165960109Y-106750213D01*
X165809786Y-106599890D01*
X165637820Y-106474951D01*
X165448414Y-106378444D01*
X165448413Y-106378443D01*
X165448412Y-106378443D01*
X165246243Y-106312754D01*
X165246241Y-106312753D01*
X165246240Y-106312753D01*
X165084957Y-106287208D01*
X165036287Y-106279500D01*
X164823713Y-106279500D01*
X164775042Y-106287208D01*
X164613760Y-106312753D01*
X164581288Y-106323304D01*
X164472631Y-106358609D01*
X164411585Y-106378444D01*
X164222179Y-106474951D01*
X164050213Y-106599890D01*
X163899890Y-106750213D01*
X163774949Y-106922182D01*
X163770484Y-106930946D01*
X163722509Y-106981742D01*
X163654688Y-106998536D01*
X163588553Y-106975998D01*
X163549516Y-106930946D01*
X163545050Y-106922182D01*
X163420109Y-106750213D01*
X163269786Y-106599890D01*
X163097820Y-106474951D01*
X162908414Y-106378444D01*
X162908413Y-106378443D01*
X162908412Y-106378443D01*
X162706243Y-106312754D01*
X162706241Y-106312753D01*
X162706240Y-106312753D01*
X162544957Y-106287208D01*
X162496287Y-106279500D01*
X162283713Y-106279500D01*
X162235042Y-106287208D01*
X162073760Y-106312753D01*
X162041288Y-106323304D01*
X161932631Y-106358609D01*
X161871585Y-106378444D01*
X161682179Y-106474951D01*
X161510213Y-106599890D01*
X161359890Y-106750213D01*
X161234949Y-106922182D01*
X161230484Y-106930946D01*
X161182509Y-106981742D01*
X161114688Y-106998536D01*
X161048553Y-106975998D01*
X161009516Y-106930946D01*
X161005050Y-106922182D01*
X160880109Y-106750213D01*
X160729786Y-106599890D01*
X160557820Y-106474951D01*
X160368414Y-106378444D01*
X160368413Y-106378443D01*
X160368412Y-106378443D01*
X160166243Y-106312754D01*
X160166241Y-106312753D01*
X160166240Y-106312753D01*
X160004957Y-106287208D01*
X159956287Y-106279500D01*
X159743713Y-106279500D01*
X159695042Y-106287208D01*
X159533760Y-106312753D01*
X159501288Y-106323304D01*
X159392631Y-106358609D01*
X159331585Y-106378444D01*
X159142179Y-106474951D01*
X158970213Y-106599890D01*
X158819890Y-106750213D01*
X158694949Y-106922182D01*
X158690484Y-106930946D01*
X158642509Y-106981742D01*
X158574688Y-106998536D01*
X158508553Y-106975998D01*
X158469516Y-106930946D01*
X158465050Y-106922182D01*
X158340109Y-106750213D01*
X158189786Y-106599890D01*
X158017820Y-106474951D01*
X157828414Y-106378444D01*
X157828413Y-106378443D01*
X157828412Y-106378443D01*
X157626243Y-106312754D01*
X157626241Y-106312753D01*
X157626240Y-106312753D01*
X157464957Y-106287208D01*
X157416287Y-106279500D01*
X157203713Y-106279500D01*
X157155042Y-106287208D01*
X156993760Y-106312753D01*
X156961288Y-106323304D01*
X156852631Y-106358609D01*
X156791585Y-106378444D01*
X156602179Y-106474951D01*
X156430213Y-106599890D01*
X156279890Y-106750213D01*
X156154949Y-106922182D01*
X156150484Y-106930946D01*
X156102509Y-106981742D01*
X156034688Y-106998536D01*
X155968553Y-106975998D01*
X155929516Y-106930946D01*
X155925050Y-106922182D01*
X155800109Y-106750213D01*
X155649786Y-106599890D01*
X155477820Y-106474951D01*
X155288414Y-106378444D01*
X155288413Y-106378443D01*
X155288412Y-106378443D01*
X155086243Y-106312754D01*
X155086241Y-106312753D01*
X155086240Y-106312753D01*
X154924957Y-106287208D01*
X154876287Y-106279500D01*
X154663713Y-106279500D01*
X154615042Y-106287208D01*
X154453760Y-106312753D01*
X154421288Y-106323304D01*
X154312631Y-106358609D01*
X154251585Y-106378444D01*
X154062179Y-106474951D01*
X153890213Y-106599890D01*
X153739890Y-106750213D01*
X153614949Y-106922182D01*
X153610484Y-106930946D01*
X153562509Y-106981742D01*
X153494688Y-106998536D01*
X153428553Y-106975998D01*
X153389516Y-106930946D01*
X153385050Y-106922182D01*
X153260109Y-106750213D01*
X153109786Y-106599890D01*
X152937820Y-106474951D01*
X152748414Y-106378444D01*
X152748413Y-106378443D01*
X152748412Y-106378443D01*
X152546243Y-106312754D01*
X152546241Y-106312753D01*
X152546240Y-106312753D01*
X152384957Y-106287208D01*
X152336287Y-106279500D01*
X152123713Y-106279500D01*
X152075042Y-106287208D01*
X151913760Y-106312753D01*
X151881288Y-106323304D01*
X151772631Y-106358609D01*
X151711585Y-106378444D01*
X151522179Y-106474951D01*
X151350213Y-106599890D01*
X151199890Y-106750213D01*
X151074949Y-106922182D01*
X151070484Y-106930946D01*
X151022509Y-106981742D01*
X150954688Y-106998536D01*
X150888553Y-106975998D01*
X150849516Y-106930946D01*
X150845050Y-106922182D01*
X150720109Y-106750213D01*
X150569786Y-106599890D01*
X150397820Y-106474951D01*
X150208414Y-106378444D01*
X150208413Y-106378443D01*
X150208412Y-106378443D01*
X150006243Y-106312754D01*
X150006241Y-106312753D01*
X150006240Y-106312753D01*
X149844957Y-106287208D01*
X149796287Y-106279500D01*
X149583713Y-106279500D01*
X149535042Y-106287208D01*
X149373760Y-106312753D01*
X149341288Y-106323304D01*
X149232631Y-106358609D01*
X149171585Y-106378444D01*
X148982179Y-106474951D01*
X148810213Y-106599890D01*
X148659890Y-106750213D01*
X148534949Y-106922182D01*
X148530484Y-106930946D01*
X148482509Y-106981742D01*
X148414688Y-106998536D01*
X148348553Y-106975998D01*
X148309516Y-106930946D01*
X148305050Y-106922182D01*
X148180109Y-106750213D01*
X148029786Y-106599890D01*
X147857820Y-106474951D01*
X147668414Y-106378444D01*
X147668413Y-106378443D01*
X147668412Y-106378443D01*
X147466243Y-106312754D01*
X147466241Y-106312753D01*
X147466240Y-106312753D01*
X147304957Y-106287208D01*
X147256287Y-106279500D01*
X147043713Y-106279500D01*
X146995042Y-106287208D01*
X146833760Y-106312753D01*
X146801288Y-106323304D01*
X146692631Y-106358609D01*
X146631585Y-106378444D01*
X146442179Y-106474951D01*
X146270213Y-106599890D01*
X146119890Y-106750213D01*
X145994949Y-106922182D01*
X145990484Y-106930946D01*
X145942509Y-106981742D01*
X145874688Y-106998536D01*
X145808553Y-106975998D01*
X145769516Y-106930946D01*
X145765050Y-106922182D01*
X145640109Y-106750213D01*
X145489786Y-106599890D01*
X145313875Y-106472085D01*
X145314556Y-106471146D01*
X145271348Y-106423378D01*
X145259933Y-106354448D01*
X145287596Y-106290288D01*
X145339950Y-106253194D01*
X145480932Y-106200981D01*
X145822464Y-106033451D01*
X146145295Y-105832229D01*
X146446112Y-105599380D01*
X146721829Y-105337291D01*
X146969616Y-105048654D01*
X147186931Y-104736429D01*
X147371543Y-104403821D01*
X147521559Y-104054242D01*
X147534141Y-104014142D01*
X147635436Y-103691290D01*
X147635436Y-103691289D01*
X147635439Y-103691280D01*
X147712015Y-103318660D01*
X147746453Y-102980000D01*
X147750500Y-102940205D01*
X147750500Y-99852486D01*
X149749500Y-99852486D01*
X149749500Y-100147513D01*
X149766152Y-100273989D01*
X149788007Y-100439993D01*
X149788008Y-100439995D01*
X149864361Y-100724951D01*
X149864364Y-100724961D01*
X149977254Y-100997500D01*
X149977258Y-100997510D01*
X150124761Y-101252993D01*
X150304352Y-101487040D01*
X150304358Y-101487047D01*
X150512952Y-101695641D01*
X150512959Y-101695647D01*
X150747006Y-101875238D01*
X151002489Y-102022741D01*
X151002490Y-102022741D01*
X151002493Y-102022743D01*
X151275048Y-102135639D01*
X151560007Y-102211993D01*
X151852494Y-102250500D01*
X151852501Y-102250500D01*
X152147499Y-102250500D01*
X152147506Y-102250500D01*
X152439993Y-102211993D01*
X152724952Y-102135639D01*
X152997507Y-102022743D01*
X153252994Y-101875238D01*
X153487042Y-101695646D01*
X153695646Y-101487042D01*
X153875238Y-101252994D01*
X154022743Y-100997507D01*
X154135639Y-100724952D01*
X154211993Y-100439993D01*
X154250500Y-100147506D01*
X154250500Y-99852494D01*
X154211993Y-99560007D01*
X154135639Y-99275048D01*
X154022743Y-99002493D01*
X153899414Y-98788881D01*
X153875238Y-98747006D01*
X153695647Y-98512959D01*
X153695641Y-98512952D01*
X153487047Y-98304358D01*
X153487040Y-98304352D01*
X153252993Y-98124761D01*
X152997510Y-97977258D01*
X152997500Y-97977254D01*
X152724961Y-97864364D01*
X152724954Y-97864362D01*
X152724952Y-97864361D01*
X152439993Y-97788007D01*
X152391113Y-97781571D01*
X152147513Y-97749500D01*
X152147506Y-97749500D01*
X151852494Y-97749500D01*
X151852486Y-97749500D01*
X151576269Y-97785866D01*
X151560007Y-97788007D01*
X151311059Y-97854712D01*
X151275048Y-97864361D01*
X151275038Y-97864364D01*
X151002499Y-97977254D01*
X151002489Y-97977258D01*
X150747006Y-98124761D01*
X150512959Y-98304352D01*
X150512952Y-98304358D01*
X150304358Y-98512952D01*
X150304352Y-98512959D01*
X150124761Y-98747006D01*
X149977258Y-99002489D01*
X149977254Y-99002499D01*
X149864364Y-99275038D01*
X149864361Y-99275048D01*
X149795825Y-99530832D01*
X149788008Y-99560004D01*
X149788006Y-99560015D01*
X149749500Y-99852486D01*
X147750500Y-99852486D01*
X147750500Y-96256959D01*
X147751280Y-96243077D01*
X147755436Y-96206191D01*
X147761459Y-96152727D01*
X147767635Y-96125668D01*
X147795353Y-96046457D01*
X147807393Y-96021453D01*
X147852046Y-95950389D01*
X147869351Y-95928690D01*
X147928690Y-95869351D01*
X147950389Y-95852046D01*
X148021453Y-95807393D01*
X148046457Y-95795353D01*
X148125668Y-95767635D01*
X148152729Y-95761459D01*
X148228753Y-95752893D01*
X148243078Y-95751280D01*
X148256960Y-95750500D01*
X148315892Y-95750500D01*
X156347472Y-95750500D01*
X156350111Y-95751275D01*
G37*
%TD.AperFunction*%
%TD*%
M02*
