%TF.GenerationSoftware,KiCad,Pcbnew,10.0.3*%
%TF.CreationDate,2026-07-03T15:49:38+02:00*%
%TF.ProjectId,Carrier_PCB,43617272-6965-4725-9f50-43422e6b6963,rev?*%
%TF.SameCoordinates,Original*%
%TF.FileFunction,Copper,L1,Top*%
%TF.FilePolarity,Positive*%
%FSLAX46Y46*%
G04 Gerber Fmt 4.6, Leading zero omitted, Abs format (unit mm)*
G04 Created by KiCad (PCBNEW 10.0.3) date 2026-07-03 15:49:38*
%MOMM*%
%LPD*%
G01*
G04 APERTURE LIST*
G04 Aperture macros list*
%AMRoundRect*
0 Rectangle with rounded corners*
0 $1 Rounding radius*
0 $2 $3 $4 $5 $6 $7 $8 $9 X,Y pos of 4 corners*
0 Add a 4 corners polygon primitive as box body*
4,1,4,$2,$3,$4,$5,$6,$7,$8,$9,$2,$3,0*
0 Add four circle primitives for the rounded corners*
1,1,$1+$1,$2,$3*
1,1,$1+$1,$4,$5*
1,1,$1+$1,$6,$7*
1,1,$1+$1,$8,$9*
0 Add four rect primitives between the rounded corners*
20,1,$1+$1,$2,$3,$4,$5,0*
20,1,$1+$1,$4,$5,$6,$7,0*
20,1,$1+$1,$6,$7,$8,$9,0*
20,1,$1+$1,$8,$9,$2,$3,0*%
G04 Aperture macros list end*
%TA.AperFunction,SMDPad,CuDef*%
%ADD10RoundRect,0.250001X-0.799999X-1.249999X0.799999X-1.249999X0.799999X1.249999X-0.799999X1.249999X0*%
%TD*%
%TA.AperFunction,SMDPad,CuDef*%
%ADD11RoundRect,0.200000X-0.200000X-0.600000X0.200000X-0.600000X0.200000X0.600000X-0.200000X0.600000X0*%
%TD*%
%TA.AperFunction,ComponentPad*%
%ADD12C,1.400000*%
%TD*%
%TA.AperFunction,ComponentPad*%
%ADD13C,1.700000*%
%TD*%
%TA.AperFunction,ComponentPad*%
%ADD14R,1.700000X1.700000*%
%TD*%
%TA.AperFunction,SMDPad,CuDef*%
%ADD15RoundRect,0.250000X-0.475000X0.250000X-0.475000X-0.250000X0.475000X-0.250000X0.475000X0.250000X0*%
%TD*%
%TA.AperFunction,SMDPad,CuDef*%
%ADD16RoundRect,0.243750X0.243750X0.456250X-0.243750X0.456250X-0.243750X-0.456250X0.243750X-0.456250X0*%
%TD*%
%TA.AperFunction,SMDPad,CuDef*%
%ADD17RoundRect,0.250000X-0.450000X0.262500X-0.450000X-0.262500X0.450000X-0.262500X0.450000X0.262500X0*%
%TD*%
%TA.AperFunction,SMDPad,CuDef*%
%ADD18RoundRect,0.200000X0.275000X-0.200000X0.275000X0.200000X-0.275000X0.200000X-0.275000X-0.200000X0*%
%TD*%
%TA.AperFunction,SMDPad,CuDef*%
%ADD19RoundRect,0.150000X-0.625000X0.150000X-0.625000X-0.150000X0.625000X-0.150000X0.625000X0.150000X0*%
%TD*%
%TA.AperFunction,SMDPad,CuDef*%
%ADD20RoundRect,0.250000X-0.650000X0.350000X-0.650000X-0.350000X0.650000X-0.350000X0.650000X0.350000X0*%
%TD*%
%TA.AperFunction,SMDPad,CuDef*%
%ADD21RoundRect,0.250000X-0.250000X-0.475000X0.250000X-0.475000X0.250000X0.475000X-0.250000X0.475000X0*%
%TD*%
%TA.AperFunction,SMDPad,CuDef*%
%ADD22RoundRect,0.250000X0.325000X0.650000X-0.325000X0.650000X-0.325000X-0.650000X0.325000X-0.650000X0*%
%TD*%
%TA.AperFunction,ViaPad*%
%ADD23C,1.300000*%
%TD*%
%TA.AperFunction,ViaPad*%
%ADD24C,0.600000*%
%TD*%
%TA.AperFunction,Conductor*%
%ADD25C,0.250000*%
%TD*%
%TA.AperFunction,Conductor*%
%ADD26C,0.800000*%
%TD*%
G04 APERTURE END LIST*
D10*
%TO.P,RXSR,MP*%
%TO.N,N/C*%
X176675000Y-132750000D03*
X167825000Y-132750000D03*
D11*
%TO.P,RXSR,4,Pin_4_4*%
%TO.N,Net-(J2-Pin_2)*%
X174125000Y-129850000D03*
%TO.P,RXSR,3,Pin_3_3*%
%TO.N,SPORT_RX*%
X172875000Y-129850000D03*
%TO.P,RXSR,2,Pin_2_2*%
%TO.N,+5V*%
X171625000Y-129850000D03*
%TO.P,RXSR,1,Pin_1_1*%
%TO.N,GND*%
X170375000Y-129850000D03*
%TD*%
D12*
%TO.P,M1,1,1_1*%
%TO.N,Net-(J2-Pin_7)*%
X112650000Y-133940000D03*
X112650000Y-131400000D03*
%TD*%
%TO.P,TLM,1,1_1*%
%TO.N,Net-(J2-Pin_9)*%
X115650000Y-133940000D03*
X115650000Y-131400000D03*
%TD*%
%TO.P,M3,1,1_1*%
%TO.N,Net-(J2-Pin_5)*%
X107850000Y-133940000D03*
X107850000Y-131400000D03*
%TD*%
%TO.P,M4,1,1_1*%
%TO.N,Net-(J2-Pin_4)*%
X105450000Y-133940000D03*
X105450000Y-131400000D03*
%TD*%
%TO.P,M2,1,1_1*%
%TO.N,Net-(J2-Pin_6)*%
X110250000Y-133940000D03*
X110250000Y-131400000D03*
%TD*%
D13*
%TO.P,J1,24,Pin_24_24*%
%TO.N,+5V*%
X185250000Y-122870000D03*
D14*
%TO.P,J1,23,Pin_23_23*%
%TO.N,GND*%
X182710000Y-122870000D03*
D13*
%TO.P,J1,22,Pin_22_22*%
%TO.N,unconnected-(J1-Pin_22-Pad22)*%
X180170000Y-122870000D03*
%TO.P,J1,21,Pin_21_21*%
%TO.N,unconnected-(J1-Pin_21-Pad21)*%
X177630000Y-122870000D03*
%TO.P,J1,20,Pin_20_20*%
%TO.N,unconnected-(J1-Pin_20-Pad20)*%
X175090000Y-122870000D03*
%TO.P,J1,19,Pin_19_19*%
%TO.N,unconnected-(J1-Pin_19-Pad19)*%
X172550000Y-122870000D03*
%TO.P,J1,18,Pin_18_18*%
%TO.N,unconnected-(J1-Pin_18-Pad18)*%
X170010000Y-122870000D03*
%TO.P,J1,17,Pin_17_17*%
%TO.N,unconnected-(J1-Pin_17-Pad17)*%
X167470000Y-122870000D03*
%TO.P,J1,16,Pin_16_16*%
%TO.N,unconnected-(J1-Pin_16-Pad16)*%
X164930000Y-122870000D03*
%TO.P,J1,15,Pin_15_15*%
%TO.N,unconnected-(J1-Pin_15-Pad15)*%
X162390000Y-122870000D03*
%TO.P,J1,14,Pin_14_14*%
%TO.N,unconnected-(J1-Pin_14-Pad14)*%
X159850000Y-122870000D03*
%TO.P,J1,13,Pin_13_13*%
%TO.N,unconnected-(J1-Pin_13-Pad13)*%
X157310000Y-122870000D03*
%TO.P,J1,12,Pin_12_12*%
%TO.N,unconnected-(J1-Pin_12-Pad12)*%
X154770000Y-122870000D03*
%TO.P,J1,11,Pin_11_11*%
%TO.N,Net-(J1-Pin_11)*%
X152230000Y-122870000D03*
%TO.P,J1,10,Pin_10_10*%
%TO.N,GND*%
X149690000Y-122870000D03*
%TO.P,J1,9,Pin_9_9*%
%TO.N,unconnected-(J1-Pin_9-Pad9)*%
X147150000Y-122870000D03*
%TO.P,J1,8,Pin_8_8*%
%TO.N,unconnected-(J1-Pin_8-Pad8)*%
X144610000Y-122870000D03*
%TO.P,J1,7,Pin_7_7*%
%TO.N,unconnected-(J1-Pin_7-Pad7)*%
X142070000Y-122870000D03*
%TO.P,J1,6,Pin_6_6*%
%TO.N,unconnected-(J1-Pin_6-Pad6)*%
X139530000Y-122870000D03*
%TO.P,J1,5,Pin_5_5*%
%TO.N,unconnected-(J1-Pin_5-Pad5)*%
X136990000Y-122870000D03*
%TO.P,J1,4,Pin_4_4*%
%TO.N,unconnected-(J1-Pin_4-Pad4)*%
X134450000Y-122870000D03*
%TO.P,J1,3,Pin_3_3*%
%TO.N,unconnected-(J1-Pin_3-Pad3)*%
X131910000Y-122870000D03*
%TO.P,J1,2,Pin_2_2*%
%TO.N,unconnected-(J1-Pin_2-Pad2)*%
X129370000Y-122870000D03*
%TO.P,J1,1,Pin_1_1*%
%TO.N,unconnected-(J1-Pin_1-Pad1)*%
X126830000Y-122870000D03*
%TD*%
D14*
%TO.P,GND,1,Pin_1_1*%
%TO.N,GND*%
X163900000Y-127015000D03*
%TD*%
D15*
%TO.P,C3,1*%
%TO.N,GND*%
X98150000Y-116650000D03*
%TO.P,C3,2*%
%TO.N,+5V*%
X98150000Y-118550000D03*
%TD*%
D12*
%TO.P,3V3,1,1_1*%
%TO.N,+3.3V*%
X157550000Y-133940000D03*
X157550000Y-131400000D03*
%TD*%
D16*
%TO.P,D1,1,K_1*%
%TO.N,GND*%
X138787500Y-132850000D03*
%TO.P,D1,2,A_2*%
%TO.N,Net-(D1-A)*%
X136912500Y-132850000D03*
%TD*%
D13*
%TO.P,MPU,1,Pin_1_1*%
%TO.N,+3.3V*%
X99000000Y-121700000D03*
D14*
%TO.P,MPU,2,Pin_2_2*%
%TO.N,GND*%
X101540000Y-121700000D03*
D13*
%TO.P,MPU,3,Pin_3_3*%
%TO.N,Net-(J1-Pin_11)*%
X104080000Y-121700000D03*
%TO.P,MPU,4,Pin_4_4*%
%TO.N,Net-(J2-Pin_13)*%
X106620000Y-121700000D03*
%TO.P,MPU,5,Pin_5_5*%
%TO.N,unconnected-(J_MPU1-Pin_5-Pad5)*%
X109160000Y-121700000D03*
%TO.P,MPU,6,Pin_6_6*%
%TO.N,unconnected-(J_MPU1-Pin_6-Pad6)*%
X111700000Y-121700000D03*
%TO.P,MPU,7,Pin_7_7*%
%TO.N,Net-(J2-Pin_14)*%
X114240000Y-121700000D03*
%TO.P,MPU,8,Pin_8_8*%
%TO.N,Net-(J2-Pin_21)*%
X116780000Y-121700000D03*
%TO.P,MPU,9,Pin_9_9*%
%TO.N,Net-(J2-Pin_12)*%
X119320000Y-121700000D03*
%TO.P,MPU,10,Pin_10_10*%
%TO.N,Net-(J2-Pin_20)*%
X121860000Y-121700000D03*
%TD*%
%TO.P,ESC1,1,Pin_1_1*%
%TO.N,Net-(J2-Pin_7)*%
X106300000Y-103480000D03*
%TO.P,ESC1,2,Pin_2_2*%
%TO.N,Net-(J2-Pin_6)*%
X108840000Y-103480000D03*
%TO.P,ESC1,3,Pin_3_3*%
%TO.N,Net-(J2-Pin_5)*%
X111380000Y-103480000D03*
%TO.P,ESC1,4,Pin_4_4*%
%TO.N,Net-(J2-Pin_4)*%
X113920000Y-103480000D03*
%TO.P,ESC1,5,Pin_5_5*%
%TO.N,Net-(J2-Pin_18)*%
X116460000Y-103480000D03*
D14*
%TO.P,ESC1,6,Pin_6_6*%
%TO.N,GND*%
X119000000Y-103480000D03*
D13*
%TO.P,ESC1,7,Pin_7_7*%
%TO.N,Net-(J2-Pin_9)*%
X121540000Y-103480000D03*
%TO.P,ESC1,8,Pin_8_8*%
%TO.N,+5V*%
X124080000Y-103480000D03*
%TD*%
D14*
%TO.P,RXSR,1,Pin_1_1*%
%TO.N,GND*%
X167840000Y-103480000D03*
D13*
%TO.P,RXSR,2,Pin_2_2*%
%TO.N,+5V*%
X170380000Y-103480000D03*
%TO.P,RXSR,3,Pin_3_3*%
%TO.N,SPORT_RX*%
X172920000Y-103480000D03*
%TO.P,RXSR,4,Pin_4_4*%
%TO.N,Net-(J2-Pin_2)*%
X175460000Y-103480000D03*
%TD*%
D17*
%TO.P,R1,1*%
%TO.N,+5V*%
X136850000Y-128175000D03*
%TO.P,R1,2*%
%TO.N,Net-(D1-A)*%
X136850000Y-130000000D03*
%TD*%
D12*
%TO.P,INT,1,1_1*%
%TO.N,Net-(J2-Pin_21)*%
X124700000Y-133940000D03*
X124700000Y-131400000D03*
%TD*%
D18*
%TO.P,R2,1*%
%TO.N,SPORT_RX*%
X189510000Y-117160000D03*
%TO.P,R2,2*%
%TO.N,SPORT_MCU*%
X189510000Y-115510000D03*
%TD*%
D14*
%TO.P,J2,1,Pin_1_1*%
%TO.N,GND*%
X185250000Y-107630000D03*
D13*
%TO.P,J2,2,Pin_2_2*%
%TO.N,Net-(J2-Pin_2)*%
X182710000Y-107630000D03*
%TO.P,J2,3,Pin_3_3*%
%TO.N,SPORT_MCU*%
X180170000Y-107630000D03*
%TO.P,J2,4,Pin_4_4*%
%TO.N,Net-(J2-Pin_4)*%
X177630000Y-107630000D03*
%TO.P,J2,5,Pin_5_5*%
%TO.N,Net-(J2-Pin_5)*%
X175090000Y-107630000D03*
%TO.P,J2,6,Pin_6_6*%
%TO.N,Net-(J2-Pin_6)*%
X172550000Y-107630000D03*
%TO.P,J2,7,Pin_7_7*%
%TO.N,Net-(J2-Pin_7)*%
X170010000Y-107630000D03*
%TO.P,J2,8,Pin_8_8*%
%TO.N,unconnected-(J2-Pin_8-Pad8)*%
X167470000Y-107630000D03*
%TO.P,J2,9,Pin_9_9*%
%TO.N,Net-(J2-Pin_9)*%
X164930000Y-107630000D03*
%TO.P,J2,10,Pin_10_10*%
%TO.N,unconnected-(J2-Pin_10-Pad10)*%
X162390000Y-107630000D03*
%TO.P,J2,11,Pin_11_11*%
%TO.N,unconnected-(J2-Pin_11-Pad11)*%
X159850000Y-107630000D03*
%TO.P,J2,12,Pin_12_12*%
%TO.N,Net-(J2-Pin_12)*%
X157310000Y-107630000D03*
%TO.P,J2,13,Pin_13_13*%
%TO.N,Net-(J2-Pin_13)*%
X154770000Y-107630000D03*
%TO.P,J2,14,Pin_14_14*%
%TO.N,Net-(J2-Pin_14)*%
X152230000Y-107630000D03*
%TO.P,J2,15,Pin_15_15*%
%TO.N,+3.3V*%
X149690000Y-107630000D03*
%TO.P,J2,16,Pin_16_16*%
%TO.N,unconnected-(J2-Pin_16-Pad16)*%
X147150000Y-107630000D03*
%TO.P,J2,17,Pin_17_17*%
%TO.N,unconnected-(J2-Pin_17-Pad17)*%
X144610000Y-107630000D03*
%TO.P,J2,18,Pin_18_18*%
%TO.N,Net-(J2-Pin_18)*%
X142070000Y-107630000D03*
%TO.P,J2,19,Pin_19_19*%
%TO.N,unconnected-(J2-Pin_19-Pad19)*%
X139530000Y-107630000D03*
%TO.P,J2,20,Pin_20_20*%
%TO.N,Net-(J2-Pin_20)*%
X136990000Y-107630000D03*
%TO.P,J2,21,Pin_21_21*%
%TO.N,Net-(J2-Pin_21)*%
X134450000Y-107630000D03*
%TO.P,J2,22,Pin_22_22*%
%TO.N,unconnected-(J2-Pin_22-Pad22)*%
X131910000Y-107630000D03*
%TO.P,J2,23,Pin_23_23*%
%TO.N,unconnected-(J2-Pin_23-Pad23)*%
X129370000Y-107630000D03*
%TO.P,J2,24,Pin_24_24*%
%TO.N,unconnected-(J2-Pin_24-Pad24)*%
X126830000Y-107630000D03*
%TD*%
D18*
%TO.P,R3,1*%
%TO.N,SPORT_MCU*%
X189480000Y-113495000D03*
%TO.P,R3,2*%
%TO.N,GND*%
X189480000Y-111845000D03*
%TD*%
D19*
%TO.P,ESC2,1,Pin_1_1*%
%TO.N,Net-(J2-Pin_7)*%
X95600000Y-111500000D03*
%TO.P,ESC2,2,Pin_2_2*%
%TO.N,Net-(J2-Pin_6)*%
X95600000Y-112500000D03*
%TO.P,ESC2,3,Pin_3_3*%
%TO.N,Net-(J2-Pin_5)*%
X95600000Y-113500000D03*
%TO.P,ESC2,4,Pin_4_4*%
%TO.N,Net-(J2-Pin_4)*%
X95600000Y-114500000D03*
%TO.P,ESC2,5,Pin_5_5*%
%TO.N,Net-(J2-Pin_18)*%
X95600000Y-115500000D03*
%TO.P,ESC2,6,Pin_6_6*%
%TO.N,GND*%
X95600000Y-116500000D03*
%TO.P,ESC2,7,Pin_7_7*%
%TO.N,Net-(J2-Pin_9)*%
X95600000Y-117500000D03*
%TO.P,ESC2,8,Pin_8_8*%
%TO.N,+5V*%
X95600000Y-118500000D03*
D20*
%TO.P,ESC2,MP*%
%TO.N,N/C*%
X91725000Y-110200000D03*
X91725000Y-119800000D03*
%TD*%
D12*
%TO.P,SPORT,1,1_1*%
%TO.N,SPORT_MCU*%
X157500000Y-99070000D03*
X157500000Y-96530000D03*
%TD*%
D21*
%TO.P,C2,1*%
%TO.N,GND*%
X122380000Y-105930000D03*
%TO.P,C2,2*%
%TO.N,+5V*%
X124280000Y-105930000D03*
%TD*%
D12*
%TO.P,SCLK,1,1_1*%
%TO.N,Net-(J1-Pin_11)*%
X136000000Y-99070000D03*
X136000000Y-96530000D03*
%TD*%
%TO.P,SD0,1,1_1*%
%TO.N,Net-(J2-Pin_14)*%
X122300000Y-133940000D03*
X122300000Y-131400000D03*
%TD*%
%TO.P,5V,1,1_1*%
%TO.N,+5V*%
X160300000Y-133940000D03*
X160300000Y-131400000D03*
%TD*%
%TO.P,SDI,1,1_1*%
%TO.N,Net-(J2-Pin_13)*%
X119900000Y-133940000D03*
X119900000Y-131400000D03*
%TD*%
D22*
%TO.P,C1,1*%
%TO.N,+5V*%
X185575000Y-119600000D03*
%TO.P,C1,2*%
%TO.N,GND*%
X182625000Y-119600000D03*
%TD*%
D12*
%TO.P,SBUS,1,1_1*%
%TO.N,Net-(J2-Pin_2)*%
X160500000Y-99070000D03*
X160500000Y-96530000D03*
%TD*%
%TO.P,NCS,1,1_1*%
%TO.N,Net-(J2-Pin_12)*%
X138550000Y-99070000D03*
X138550000Y-96530000D03*
%TD*%
D23*
%TO.N,GND*%
X100750000Y-116750000D03*
D24*
X185750000Y-112250000D03*
X183375000Y-114625000D03*
X103750000Y-118250000D03*
D23*
X123500000Y-118250000D03*
X181000000Y-119500000D03*
D24*
%TO.N,+5V*%
X171500000Y-102250000D03*
D23*
X125750000Y-116800000D03*
X185250000Y-117500000D03*
D24*
X137000000Y-116800000D03*
D23*
X103700000Y-116800000D03*
D24*
%TO.N,+3.3V*%
X137000000Y-121000000D03*
%TO.N,Net-(J1-Pin_11)*%
X109000000Y-112250000D03*
X113750000Y-108750000D03*
X109500000Y-125500000D03*
X115750000Y-105250000D03*
%TO.N,Net-(J2-Pin_13)*%
X137000000Y-119500000D03*
X145500000Y-111000000D03*
X154750000Y-111000000D03*
%TO.N,Net-(J2-Pin_14)*%
X122348058Y-128151942D03*
X151500000Y-120000000D03*
%TO.N,Net-(J2-Pin_21)*%
X130333884Y-120250000D03*
X134916942Y-115666942D03*
X134450000Y-114366116D03*
X118230000Y-120250000D03*
%TO.N,Net-(J2-Pin_12)*%
X144000000Y-110250000D03*
X157310000Y-110190000D03*
%TO.N,Net-(J2-Pin_20)*%
X136783058Y-112033058D03*
X137036942Y-113546942D03*
%TO.N,Net-(J2-Pin_9)*%
X103695000Y-102305000D03*
X144500000Y-109500000D03*
%TO.N,Net-(J2-Pin_7)*%
X169750000Y-113750000D03*
X94250000Y-111500000D03*
%TO.N,Net-(J2-Pin_6)*%
X172500000Y-114500000D03*
X101958059Y-112658056D03*
X93500000Y-112500000D03*
%TO.N,Net-(J2-Pin_5)*%
X102000000Y-113500000D03*
X92750000Y-113500000D03*
X173500000Y-115250000D03*
%TO.N,Net-(J2-Pin_4)*%
X134500000Y-105830000D03*
X92125000Y-114500000D03*
X175250000Y-112750000D03*
%TO.N,Net-(J2-Pin_2)*%
X186000000Y-125750000D03*
X179750000Y-104000000D03*
%TO.N,GND*%
X163875000Y-102475000D03*
%TD*%
%TO.N,GND*%
D25*
X189465000Y-111845000D02*
X185250000Y-107630000D01*
D26*
X119000000Y-106080000D02*
X119000000Y-103480000D01*
X121770000Y-106540000D02*
X119430000Y-106540000D01*
D25*
X140705000Y-125045000D02*
X138787500Y-126962500D01*
X182625000Y-115375000D02*
X182625000Y-119600000D01*
D26*
X122380000Y-105930000D02*
X121770000Y-106540000D01*
D25*
X138787500Y-126962500D02*
X138787500Y-132850000D01*
X140705000Y-122573299D02*
X140705000Y-125045000D01*
X98300000Y-116500000D02*
X98150000Y-116650000D01*
X149690000Y-122870000D02*
X148320000Y-121500000D01*
X95750000Y-116650000D02*
X95600000Y-116500000D01*
X169165000Y-104750000D02*
X182370000Y-104750000D01*
X101540000Y-121700000D02*
X101540000Y-120460000D01*
D26*
X119430000Y-106540000D02*
X119430000Y-106510000D01*
D25*
X189480000Y-111845000D02*
X189465000Y-111845000D01*
X182370000Y-104750000D02*
X185250000Y-107630000D01*
D26*
X119430000Y-106510000D02*
X119000000Y-106080000D01*
D25*
X101540000Y-120460000D02*
X103750000Y-118250000D01*
D26*
X181100000Y-119600000D02*
X181000000Y-119500000D01*
D25*
X170375000Y-129850000D02*
X170375000Y-129551996D01*
X170375000Y-129551996D02*
X175881996Y-124045000D01*
D26*
X182625000Y-122785000D02*
X182710000Y-122870000D01*
X182625000Y-119600000D02*
X181100000Y-119600000D01*
D25*
X189480000Y-111845000D02*
X186155000Y-111845000D01*
D26*
X100750000Y-116750000D02*
X98250000Y-116750000D01*
X123250000Y-118000000D02*
X123500000Y-118250000D01*
D25*
X183375000Y-114625000D02*
X182625000Y-115375000D01*
X167840000Y-103425000D02*
X169165000Y-104750000D01*
X141778299Y-121500000D02*
X140705000Y-122573299D01*
D26*
X98250000Y-116750000D02*
X98150000Y-116650000D01*
D25*
X167540000Y-127015000D02*
X163900000Y-127015000D01*
D26*
X182625000Y-119600000D02*
X182625000Y-122785000D01*
D25*
X148320000Y-121500000D02*
X141778299Y-121500000D01*
D26*
X123250000Y-106800000D02*
X123250000Y-118000000D01*
D25*
X186155000Y-111845000D02*
X185750000Y-112250000D01*
D26*
X122380000Y-105930000D02*
X123250000Y-106800000D01*
X98000000Y-116500000D02*
X95600000Y-116500000D01*
D25*
X175881996Y-124045000D02*
X181535000Y-124045000D01*
D26*
X98150000Y-116650000D02*
X98000000Y-116500000D01*
D25*
X181535000Y-124045000D02*
X182710000Y-122870000D01*
X170375000Y-129850000D02*
X167540000Y-127015000D01*
%TO.N,+5V*%
X135815000Y-127140000D02*
X135815000Y-117985000D01*
D26*
X125750000Y-116800000D02*
X125750000Y-108750000D01*
D25*
X170380000Y-103370000D02*
X171500000Y-102250000D01*
X136850000Y-128175000D02*
X135815000Y-127140000D01*
D26*
X185575000Y-122545000D02*
X185250000Y-122870000D01*
X125750000Y-108750000D02*
X124280000Y-107280000D01*
X103700000Y-116800000D02*
X102000000Y-118500000D01*
X95650000Y-118550000D02*
X95600000Y-118500000D01*
X98200000Y-118500000D02*
X98150000Y-118550000D01*
D25*
X135815000Y-117985000D02*
X137000000Y-116800000D01*
X171625000Y-129850000D02*
X171625000Y-129050000D01*
D26*
X185575000Y-119600000D02*
X185575000Y-122545000D01*
D25*
X160300000Y-131430000D02*
X160300000Y-133970000D01*
D26*
X124280000Y-107280000D02*
X124280000Y-105930000D01*
X98150000Y-118550000D02*
X95650000Y-118550000D01*
X102000000Y-118500000D02*
X98200000Y-118500000D01*
D25*
X161056996Y-130673004D02*
X169650000Y-130673004D01*
X171625000Y-129050000D02*
X176180000Y-124495000D01*
X176180000Y-124495000D02*
X183625000Y-124495000D01*
X171425000Y-130975000D02*
X171625000Y-130775000D01*
D26*
X185575000Y-119600000D02*
X185575000Y-117825000D01*
D25*
X170380000Y-103425000D02*
X170380000Y-103370000D01*
X169951996Y-130975000D02*
X171425000Y-130975000D01*
X160300000Y-131430000D02*
X161056996Y-130673004D01*
D26*
X185575000Y-117825000D02*
X185250000Y-117500000D01*
D25*
X169650000Y-130673004D02*
X169951996Y-130975000D01*
D26*
X124080000Y-105730000D02*
X124280000Y-105930000D01*
D25*
X183625000Y-124495000D02*
X185250000Y-122870000D01*
X171625000Y-130775000D02*
X171625000Y-129850000D01*
D26*
X124080000Y-103480000D02*
X124080000Y-105730000D01*
%TO.N,+3.3V*%
D25*
X137000000Y-121000000D02*
X146945000Y-111055000D01*
X146945000Y-111055000D02*
X146945000Y-110375000D01*
X157550000Y-131430000D02*
X150875000Y-124755000D01*
X150875000Y-124755000D02*
X150875000Y-108815000D01*
X157550000Y-131430000D02*
X157550000Y-133970000D01*
X146945000Y-110375000D02*
X149690000Y-107630000D01*
X150875000Y-108815000D02*
X149690000Y-107630000D01*
%TO.N,Net-(D1-A)*%
X136850000Y-130000000D02*
X136850000Y-132787500D01*
X136850000Y-132787500D02*
X136912500Y-132850000D01*
%TO.N,Net-(J1-Pin_11)*%
X115750000Y-105250000D02*
X115750000Y-106750000D01*
X115750000Y-106750000D02*
X113750000Y-108750000D01*
X136000000Y-99070000D02*
X136000000Y-96530000D01*
X107880000Y-125500000D02*
X109500000Y-125500000D01*
X109000000Y-112250000D02*
X109000000Y-116780000D01*
X104080000Y-121700000D02*
X107880000Y-125500000D01*
X109000000Y-116780000D02*
X104080000Y-121700000D01*
%TO.N,Net-(J2-Pin_13)*%
X119900000Y-131400000D02*
X119900000Y-133940000D01*
X116550000Y-128050000D02*
X113450000Y-128050000D01*
X107100000Y-121700000D02*
X106620000Y-121700000D01*
X154750000Y-111000000D02*
X154750000Y-110750000D01*
X119900000Y-131400000D02*
X116550000Y-128050000D01*
X113450000Y-128050000D02*
X107100000Y-121700000D01*
X145500000Y-111000000D02*
X137000000Y-119500000D01*
X154750000Y-110750000D02*
X154770000Y-110730000D01*
X154770000Y-110730000D02*
X154770000Y-107630000D01*
%TO.N,Net-(J2-Pin_14)*%
X152250000Y-112000000D02*
X152250000Y-110000000D01*
X151500000Y-112750000D02*
X152000000Y-112250000D01*
X151500000Y-120000000D02*
X151500000Y-112750000D01*
X122300000Y-131400000D02*
X122300000Y-129760000D01*
X152000000Y-112250000D02*
X152250000Y-112000000D01*
X122348058Y-128151942D02*
X122300000Y-128200000D01*
X152250000Y-110000000D02*
X152230000Y-109980000D01*
X152230000Y-109980000D02*
X152230000Y-107630000D01*
X122300000Y-131400000D02*
X122300000Y-133940000D01*
X122300000Y-128200000D02*
X122300000Y-131400000D01*
X122300000Y-129760000D02*
X114240000Y-121700000D01*
%TO.N,Net-(J2-Pin_21)*%
X134450000Y-114366116D02*
X134450000Y-107630000D01*
X124700000Y-131400000D02*
X124700000Y-129620000D01*
X130333884Y-120250000D02*
X134916942Y-115666942D01*
X124700000Y-131400000D02*
X124700000Y-133940000D01*
X124700000Y-129620000D02*
X116780000Y-121700000D01*
X116780000Y-121700000D02*
X118230000Y-120250000D01*
%TO.N,Net-(J2-Pin_12)*%
X122346701Y-122875000D02*
X120495000Y-122875000D01*
X131416116Y-121500000D02*
X123721701Y-121500000D01*
X123721701Y-121500000D02*
X122346701Y-122875000D01*
X120495000Y-122875000D02*
X119320000Y-121700000D01*
X142666116Y-110250000D02*
X131416116Y-121500000D01*
X144000000Y-110250000D02*
X142666116Y-110250000D01*
X157310000Y-107630000D02*
X157310000Y-110190000D01*
X138550000Y-99070000D02*
X138550000Y-96530000D01*
%TO.N,Net-(J2-Pin_20)*%
X136783058Y-112033058D02*
X136990000Y-111826116D01*
X122560000Y-121000000D02*
X121860000Y-121700000D01*
X137036942Y-113546942D02*
X137036942Y-114463058D01*
X136990000Y-111826116D02*
X136990000Y-107630000D01*
X130500000Y-121000000D02*
X122560000Y-121000000D01*
X137036942Y-114463058D02*
X130500000Y-121000000D01*
%TO.N,Net-(J2-Pin_9)*%
X95600000Y-117500000D02*
X95149092Y-117500000D01*
X143435000Y-108435000D02*
X144500000Y-109500000D01*
X121540000Y-103480000D02*
X122715000Y-102305000D01*
X115650000Y-131430000D02*
X115650000Y-133970000D01*
X94500000Y-118149092D02*
X94500000Y-120750000D01*
X110470000Y-126250000D02*
X115650000Y-131430000D01*
X91500000Y-113000000D02*
X91500000Y-116500000D01*
X91500000Y-116500000D02*
X92500000Y-117500000D01*
X122715000Y-102305000D02*
X124566701Y-102305000D01*
X128716701Y-106455000D02*
X142746701Y-106455000D01*
X142746701Y-106455000D02*
X143435000Y-107143299D01*
X124566701Y-102305000D02*
X128716701Y-106455000D01*
X94500000Y-120750000D02*
X100000000Y-126250000D01*
X102195000Y-102305000D02*
X91500000Y-113000000D01*
X95149092Y-117500000D02*
X94500000Y-118149092D01*
X103695000Y-102305000D02*
X102195000Y-102305000D01*
X92500000Y-117500000D02*
X95600000Y-117500000D01*
X100000000Y-126250000D02*
X110470000Y-126250000D01*
X143435000Y-107143299D02*
X143435000Y-108435000D01*
%TO.N,Net-(J2-Pin_7)*%
X95600000Y-111500000D02*
X103620000Y-103480000D01*
X103620000Y-103480000D02*
X106300000Y-103480000D01*
X112650000Y-131430000D02*
X112650000Y-133970000D01*
X170010000Y-113490000D02*
X170010000Y-107630000D01*
X95600000Y-111500000D02*
X94250000Y-111500000D01*
X169750000Y-113750000D02*
X170010000Y-113490000D01*
%TO.N,Net-(J2-Pin_6)*%
X172500000Y-114500000D02*
X172500000Y-107680000D01*
X101000000Y-112799999D02*
X101200001Y-112799999D01*
X172500000Y-107680000D02*
X172550000Y-107630000D01*
X110250000Y-131430000D02*
X110250000Y-133970000D01*
X95899999Y-112799999D02*
X101000000Y-112799999D01*
X101200001Y-112799999D02*
X108840000Y-105160000D01*
X108840000Y-105160000D02*
X108840000Y-103480000D01*
X95600000Y-112500000D02*
X95899999Y-112799999D01*
X101000000Y-112799999D02*
X101816116Y-112799999D01*
X93500000Y-112500000D02*
X95600000Y-112500000D01*
X101816116Y-112799999D02*
X101958059Y-112658056D01*
%TO.N,Net-(J2-Pin_5)*%
X95600000Y-113500000D02*
X101360000Y-113500000D01*
X173500000Y-109220000D02*
X175090000Y-107630000D01*
X101360000Y-113500000D02*
X102000000Y-113500000D01*
X173500000Y-115250000D02*
X173500000Y-109220000D01*
X111380000Y-104120000D02*
X111380000Y-103480000D01*
X95600000Y-113500000D02*
X92750000Y-113500000D01*
X102000000Y-113500000D02*
X111380000Y-104120000D01*
X107850000Y-131430000D02*
X107850000Y-133970000D01*
%TO.N,Net-(J2-Pin_4)*%
X175250000Y-112750000D02*
X175500000Y-112500000D01*
X175500000Y-109760000D02*
X177630000Y-107630000D01*
X102900000Y-114500000D02*
X113920000Y-103480000D01*
X175500000Y-112500000D02*
X175500000Y-109760000D01*
X105450000Y-131430000D02*
X105450000Y-133970000D01*
X115545000Y-101855000D02*
X113920000Y-103480000D01*
X126525000Y-101855000D02*
X115545000Y-101855000D01*
X95600000Y-114500000D02*
X102900000Y-114500000D01*
X134500000Y-105830000D02*
X130500000Y-105830000D01*
X95600000Y-114500000D02*
X92125000Y-114500000D01*
X130500000Y-105830000D02*
X126525000Y-101855000D01*
%TO.N,Net-(J2-Pin_18)*%
X95600000Y-115500000D02*
X104440000Y-115500000D01*
X130475000Y-119225000D02*
X142070000Y-107630000D01*
X110720000Y-109220000D02*
X113091141Y-109220000D01*
X104440000Y-115500000D02*
X116460000Y-103480000D01*
X123096141Y-119225000D02*
X130475000Y-119225000D01*
X113091141Y-109220000D02*
X123096141Y-119225000D01*
%TO.N,SPORT_RX*%
X176980000Y-124945000D02*
X184836701Y-124945000D01*
X184836701Y-124945000D02*
X187000000Y-122781701D01*
X178995000Y-108116701D02*
X188038299Y-117160000D01*
X167290000Y-101625000D02*
X166665000Y-102250000D01*
X172875000Y-129050000D02*
X176980000Y-124945000D01*
X172875000Y-129850000D02*
X172875000Y-129050000D01*
X168520000Y-106455000D02*
X178116701Y-106455000D01*
X172920000Y-103425000D02*
X172920000Y-102786116D01*
X166665000Y-104600000D02*
X168520000Y-106455000D01*
X188038299Y-117160000D02*
X189510000Y-117160000D01*
X171758884Y-101625000D02*
X167290000Y-101625000D01*
X178995000Y-107333299D02*
X178995000Y-108116701D01*
X166665000Y-102250000D02*
X166665000Y-104600000D01*
X178116701Y-106455000D02*
X178995000Y-107333299D01*
X187000000Y-122781701D02*
X187000000Y-119670000D01*
X187000000Y-119670000D02*
X189510000Y-117160000D01*
X172920000Y-102786116D02*
X171758884Y-101625000D01*
%TO.N,Net-(J2-Pin_2)*%
X178225000Y-125750000D02*
X186000000Y-125750000D01*
X174125000Y-129850000D02*
X178225000Y-125750000D01*
X175460000Y-103425000D02*
X179175000Y-103425000D01*
X160500000Y-99020000D02*
X160500000Y-96530000D01*
X179175000Y-103425000D02*
X179750000Y-104000000D01*
%TO.N,SPORT_MCU*%
X189510000Y-113525000D02*
X189480000Y-113495000D01*
X189510000Y-115510000D02*
X189510000Y-113525000D01*
X189480000Y-113495000D02*
X186035000Y-113495000D01*
X186035000Y-113495000D02*
X180170000Y-107630000D01*
X157500000Y-99020000D02*
X157500000Y-96480000D01*
%TD*%
%TA.AperFunction,Conductor*%
%TO.N,GND*%
G36*
X125493931Y-122126275D02*
G01*
X125496602Y-122125614D01*
X125527257Y-122136061D01*
X125558330Y-122145185D01*
X125560131Y-122147264D01*
X125562737Y-122148152D01*
X125582883Y-122173521D01*
X125604085Y-122197989D01*
X125604476Y-122200711D01*
X125606188Y-122202867D01*
X125609419Y-122235087D01*
X125614029Y-122267147D01*
X125612969Y-122270488D01*
X125613160Y-122272388D01*
X125601775Y-122305796D01*
X125578444Y-122351583D01*
X125512753Y-122553760D01*
X125511291Y-122562993D01*
X125479500Y-122763713D01*
X125479500Y-122976287D01*
X125484869Y-123010183D01*
X125504030Y-123131166D01*
X125512754Y-123186243D01*
X125569490Y-123360859D01*
X125578444Y-123388414D01*
X125674951Y-123577820D01*
X125799890Y-123749786D01*
X125950213Y-123900109D01*
X126122179Y-124025048D01*
X126122181Y-124025049D01*
X126122184Y-124025051D01*
X126311588Y-124121557D01*
X126513757Y-124187246D01*
X126723713Y-124220500D01*
X126723714Y-124220500D01*
X126936286Y-124220500D01*
X126936287Y-124220500D01*
X127146243Y-124187246D01*
X127348412Y-124121557D01*
X127537816Y-124025051D01*
X127592572Y-123985269D01*
X127709786Y-123900109D01*
X127709788Y-123900106D01*
X127709792Y-123900104D01*
X127860104Y-123749792D01*
X127860106Y-123749788D01*
X127860109Y-123749786D01*
X127985048Y-123577820D01*
X127985047Y-123577820D01*
X127985051Y-123577816D01*
X127989514Y-123569054D01*
X128037488Y-123518259D01*
X128105308Y-123501463D01*
X128171444Y-123523999D01*
X128210486Y-123569056D01*
X128214951Y-123577820D01*
X128339890Y-123749786D01*
X128490213Y-123900109D01*
X128662179Y-124025048D01*
X128662181Y-124025049D01*
X128662184Y-124025051D01*
X128851588Y-124121557D01*
X129053757Y-124187246D01*
X129263713Y-124220500D01*
X129263714Y-124220500D01*
X129476286Y-124220500D01*
X129476287Y-124220500D01*
X129686243Y-124187246D01*
X129888412Y-124121557D01*
X130077816Y-124025051D01*
X130132572Y-123985269D01*
X130249786Y-123900109D01*
X130249788Y-123900106D01*
X130249792Y-123900104D01*
X130400104Y-123749792D01*
X130400106Y-123749788D01*
X130400109Y-123749786D01*
X130525048Y-123577820D01*
X130525047Y-123577820D01*
X130525051Y-123577816D01*
X130529514Y-123569054D01*
X130577488Y-123518259D01*
X130645308Y-123501463D01*
X130711444Y-123523999D01*
X130750486Y-123569056D01*
X130754951Y-123577820D01*
X130879890Y-123749786D01*
X131030213Y-123900109D01*
X131202179Y-124025048D01*
X131202181Y-124025049D01*
X131202184Y-124025051D01*
X131391588Y-124121557D01*
X131593757Y-124187246D01*
X131803713Y-124220500D01*
X131803714Y-124220500D01*
X132016286Y-124220500D01*
X132016287Y-124220500D01*
X132226243Y-124187246D01*
X132428412Y-124121557D01*
X132617816Y-124025051D01*
X132672572Y-123985269D01*
X132789786Y-123900109D01*
X132789788Y-123900106D01*
X132789792Y-123900104D01*
X132940104Y-123749792D01*
X132940106Y-123749788D01*
X132940109Y-123749786D01*
X133065048Y-123577820D01*
X133065047Y-123577820D01*
X133065051Y-123577816D01*
X133069514Y-123569054D01*
X133117488Y-123518259D01*
X133185308Y-123501463D01*
X133251444Y-123523999D01*
X133290486Y-123569056D01*
X133294951Y-123577820D01*
X133419890Y-123749786D01*
X133570213Y-123900109D01*
X133742179Y-124025048D01*
X133742181Y-124025049D01*
X133742184Y-124025051D01*
X133931588Y-124121557D01*
X134133757Y-124187246D01*
X134343713Y-124220500D01*
X134343714Y-124220500D01*
X134556286Y-124220500D01*
X134556287Y-124220500D01*
X134766243Y-124187246D01*
X134968412Y-124121557D01*
X135009205Y-124100772D01*
X135077874Y-124087876D01*
X135142615Y-124114152D01*
X135182872Y-124171259D01*
X135189500Y-124211257D01*
X135189500Y-127201611D01*
X135213535Y-127322444D01*
X135213540Y-127322461D01*
X135260685Y-127436280D01*
X135260687Y-127436283D01*
X135260688Y-127436286D01*
X135294915Y-127487509D01*
X135329142Y-127538733D01*
X135416267Y-127625858D01*
X135416270Y-127625860D01*
X135423554Y-127633144D01*
X135613181Y-127822771D01*
X135646666Y-127884094D01*
X135649500Y-127910452D01*
X135649500Y-128487501D01*
X135649501Y-128487519D01*
X135660000Y-128590296D01*
X135660001Y-128590299D01*
X135696430Y-128700233D01*
X135715186Y-128756834D01*
X135795584Y-128887181D01*
X135807289Y-128906157D01*
X135900951Y-128999819D01*
X135934436Y-129061142D01*
X135929452Y-129130834D01*
X135900951Y-129175181D01*
X135807289Y-129268842D01*
X135715187Y-129418163D01*
X135715186Y-129418166D01*
X135660001Y-129584703D01*
X135660001Y-129584704D01*
X135660000Y-129584704D01*
X135649500Y-129687483D01*
X135649500Y-130312501D01*
X135649501Y-130312519D01*
X135660000Y-130415296D01*
X135660001Y-130415299D01*
X135682870Y-130484311D01*
X135715186Y-130581834D01*
X135807288Y-130731156D01*
X135931344Y-130855212D01*
X136080666Y-130947314D01*
X136080668Y-130947315D01*
X136101110Y-130954088D01*
X136139502Y-130966810D01*
X136196947Y-131006581D01*
X136223772Y-131071096D01*
X136224500Y-131084516D01*
X136224500Y-131734108D01*
X136204815Y-131801147D01*
X136188182Y-131821789D01*
X136080971Y-131929000D01*
X135989642Y-132077066D01*
X135989637Y-132077077D01*
X135934913Y-132242223D01*
X135924500Y-132344144D01*
X135924500Y-133355855D01*
X135934913Y-133457776D01*
X135989637Y-133622922D01*
X135989642Y-133622933D01*
X136080971Y-133770999D01*
X136080974Y-133771003D01*
X136203996Y-133894025D01*
X136204000Y-133894028D01*
X136352066Y-133985357D01*
X136352069Y-133985358D01*
X136352075Y-133985362D01*
X136517225Y-134040087D01*
X136619152Y-134050500D01*
X136619157Y-134050500D01*
X137205843Y-134050500D01*
X137205848Y-134050500D01*
X137307775Y-134040087D01*
X137472925Y-133985362D01*
X137621003Y-133894026D01*
X137744026Y-133771003D01*
X137744755Y-133769821D01*
X137745466Y-133769181D01*
X137748507Y-133765336D01*
X137749163Y-133765855D01*
X137796701Y-133723097D01*
X137865664Y-133711873D01*
X137929746Y-133739715D01*
X137951761Y-133765123D01*
X137951888Y-133765023D01*
X137954113Y-133767838D01*
X137955833Y-133769822D01*
X137956365Y-133770685D01*
X137956369Y-133770690D01*
X138079308Y-133893629D01*
X138227285Y-133984903D01*
X138227290Y-133984905D01*
X138392326Y-134039592D01*
X138494184Y-134049999D01*
X138494197Y-134050000D01*
X138537500Y-134050000D01*
X139037500Y-134050000D01*
X139080803Y-134050000D01*
X139080815Y-134049999D01*
X139182673Y-134039592D01*
X139347709Y-133984905D01*
X139347714Y-133984903D01*
X139495691Y-133893629D01*
X139618629Y-133770691D01*
X139709903Y-133622714D01*
X139709905Y-133622709D01*
X139764592Y-133457673D01*
X139774999Y-133355815D01*
X139775000Y-133355802D01*
X139775000Y-133100000D01*
X139037500Y-133100000D01*
X139037500Y-134050000D01*
X138537500Y-134050000D01*
X138537500Y-132600000D01*
X139037500Y-132600000D01*
X139775000Y-132600000D01*
X139775000Y-132344197D01*
X139774999Y-132344184D01*
X139764592Y-132242326D01*
X139709905Y-132077290D01*
X139709903Y-132077285D01*
X139618629Y-131929308D01*
X139495691Y-131806370D01*
X139347714Y-131715096D01*
X139347709Y-131715094D01*
X139182673Y-131660407D01*
X139080815Y-131650000D01*
X139037500Y-131650000D01*
X139037500Y-132600000D01*
X138537500Y-132600000D01*
X138537500Y-131650000D01*
X138494184Y-131650000D01*
X138392326Y-131660407D01*
X138227290Y-131715094D01*
X138227285Y-131715096D01*
X138079308Y-131806370D01*
X137956369Y-131929309D01*
X137956364Y-131929315D01*
X137955829Y-131930184D01*
X137955306Y-131930654D01*
X137951888Y-131934977D01*
X137951149Y-131934392D01*
X137903879Y-131976906D01*
X137834916Y-131988125D01*
X137770835Y-131960278D01*
X137748586Y-131934601D01*
X137748507Y-131934664D01*
X137747111Y-131932898D01*
X137744758Y-131930183D01*
X137744028Y-131928999D01*
X137621002Y-131805973D01*
X137534402Y-131752557D01*
X137487678Y-131700609D01*
X137475500Y-131647019D01*
X137475500Y-131084516D01*
X137495185Y-131017477D01*
X137547989Y-130971722D01*
X137560488Y-130966813D01*
X137619334Y-130947314D01*
X137768656Y-130855212D01*
X137892712Y-130731156D01*
X137984814Y-130581834D01*
X138039999Y-130415297D01*
X138050500Y-130312509D01*
X138050499Y-129687492D01*
X138039999Y-129584703D01*
X137984814Y-129418166D01*
X137892712Y-129268844D01*
X137799049Y-129175181D01*
X137765564Y-129113858D01*
X137770548Y-129044166D01*
X137799049Y-128999819D01*
X137838474Y-128960394D01*
X137892712Y-128906156D01*
X137984814Y-128756834D01*
X138039999Y-128590297D01*
X138050500Y-128487509D01*
X138050499Y-127862492D01*
X138046441Y-127822771D01*
X138039999Y-127759703D01*
X138039998Y-127759700D01*
X138014949Y-127684108D01*
X137984814Y-127593166D01*
X137892712Y-127443844D01*
X137768656Y-127319788D01*
X137619334Y-127227686D01*
X137452797Y-127172501D01*
X137452795Y-127172500D01*
X137350016Y-127162000D01*
X137350009Y-127162000D01*
X136772952Y-127162000D01*
X136705913Y-127142315D01*
X136685271Y-127125681D01*
X136476819Y-126917229D01*
X136443334Y-126855906D01*
X136440500Y-126829548D01*
X136440500Y-124282127D01*
X136460185Y-124215088D01*
X136512989Y-124169333D01*
X136582147Y-124159389D01*
X136602813Y-124164194D01*
X136673757Y-124187246D01*
X136883713Y-124220500D01*
X136883714Y-124220500D01*
X137096286Y-124220500D01*
X137096287Y-124220500D01*
X137306243Y-124187246D01*
X137508412Y-124121557D01*
X137697816Y-124025051D01*
X137752572Y-123985269D01*
X137869786Y-123900109D01*
X137869788Y-123900106D01*
X137869792Y-123900104D01*
X138020104Y-123749792D01*
X138020106Y-123749788D01*
X138020109Y-123749786D01*
X138145048Y-123577820D01*
X138145047Y-123577820D01*
X138145051Y-123577816D01*
X138149514Y-123569054D01*
X138197488Y-123518259D01*
X138265308Y-123501463D01*
X138331444Y-123523999D01*
X138370486Y-123569056D01*
X138374951Y-123577820D01*
X138499890Y-123749786D01*
X138650213Y-123900109D01*
X138822179Y-124025048D01*
X138822181Y-124025049D01*
X138822184Y-124025051D01*
X139011588Y-124121557D01*
X139213757Y-124187246D01*
X139423713Y-124220500D01*
X139423714Y-124220500D01*
X139636286Y-124220500D01*
X139636287Y-124220500D01*
X139846243Y-124187246D01*
X140048412Y-124121557D01*
X140237816Y-124025051D01*
X140292572Y-123985269D01*
X140409786Y-123900109D01*
X140409788Y-123900106D01*
X140409792Y-123900104D01*
X140560104Y-123749792D01*
X140560106Y-123749788D01*
X140560109Y-123749786D01*
X140685048Y-123577820D01*
X140685047Y-123577820D01*
X140685051Y-123577816D01*
X140689514Y-123569054D01*
X140737488Y-123518259D01*
X140805308Y-123501463D01*
X140871444Y-123523999D01*
X140910486Y-123569056D01*
X140914951Y-123577820D01*
X141039890Y-123749786D01*
X141190213Y-123900109D01*
X141362179Y-124025048D01*
X141362181Y-124025049D01*
X141362184Y-124025051D01*
X141551588Y-124121557D01*
X141753757Y-124187246D01*
X141963713Y-124220500D01*
X141963714Y-124220500D01*
X142144784Y-124220500D01*
X142211823Y-124240185D01*
X142257578Y-124292989D01*
X142267522Y-124362147D01*
X142238497Y-124425703D01*
X142199392Y-124455828D01*
X142177544Y-124466544D01*
X142177527Y-124466553D01*
X141854704Y-124667771D01*
X141553893Y-124900615D01*
X141278170Y-125162709D01*
X141030385Y-125451343D01*
X140813069Y-125763570D01*
X140813066Y-125763575D01*
X140628456Y-126096179D01*
X140478437Y-126445766D01*
X140364563Y-126808709D01*
X140364562Y-126808715D01*
X140287984Y-127181344D01*
X140249500Y-127559794D01*
X140249500Y-134243040D01*
X140248720Y-134256922D01*
X140248720Y-134256923D01*
X140238541Y-134347265D01*
X140232362Y-134374337D01*
X140204649Y-134453535D01*
X140192602Y-134478552D01*
X140147957Y-134549604D01*
X140130644Y-134571313D01*
X140071313Y-134630644D01*
X140049604Y-134647957D01*
X139978552Y-134692602D01*
X139953535Y-134704649D01*
X139874337Y-134732362D01*
X139847265Y-134738541D01*
X139756923Y-134748720D01*
X139743040Y-134749500D01*
X125837242Y-134749500D01*
X125770203Y-134729815D01*
X125724448Y-134677011D01*
X125714504Y-134607853D01*
X125726757Y-134569205D01*
X125812545Y-134400836D01*
X125812545Y-134400835D01*
X125812547Y-134400832D01*
X125870940Y-134221118D01*
X125881761Y-134152795D01*
X125900500Y-134034486D01*
X125900500Y-133845513D01*
X125870940Y-133658881D01*
X125812545Y-133479163D01*
X125749716Y-133355855D01*
X125726760Y-133310801D01*
X125615690Y-133157927D01*
X125482073Y-133024310D01*
X125376614Y-132947689D01*
X125333949Y-132892358D01*
X125325500Y-132847371D01*
X125325500Y-132492628D01*
X125345185Y-132425589D01*
X125376611Y-132392312D01*
X125482073Y-132315690D01*
X125615690Y-132182073D01*
X125726760Y-132029199D01*
X125812547Y-131860832D01*
X125870940Y-131681118D01*
X125876341Y-131647019D01*
X125900500Y-131494486D01*
X125900500Y-131305513D01*
X125870940Y-131118881D01*
X125834451Y-131006581D01*
X125812547Y-130939168D01*
X125812545Y-130939165D01*
X125812545Y-130939163D01*
X125726759Y-130770800D01*
X125718913Y-130760001D01*
X125615690Y-130617927D01*
X125482073Y-130484310D01*
X125479495Y-130482437D01*
X125433156Y-130448768D01*
X125433133Y-130448753D01*
X125376614Y-130407689D01*
X125334048Y-130352486D01*
X128249500Y-130352486D01*
X128249500Y-130647513D01*
X128271576Y-130815187D01*
X128288007Y-130939993D01*
X128358390Y-131202666D01*
X128364361Y-131224951D01*
X128364364Y-131224961D01*
X128477254Y-131497500D01*
X128477257Y-131497507D01*
X128624761Y-131752993D01*
X128804352Y-131987040D01*
X128804358Y-131987047D01*
X129012952Y-132195641D01*
X129012959Y-132195647D01*
X129247006Y-132375238D01*
X129502489Y-132522741D01*
X129502490Y-132522741D01*
X129502493Y-132522743D01*
X129775048Y-132635639D01*
X130060007Y-132711993D01*
X130352494Y-132750500D01*
X130352501Y-132750500D01*
X130647499Y-132750500D01*
X130647506Y-132750500D01*
X130939993Y-132711993D01*
X131224952Y-132635639D01*
X131497507Y-132522743D01*
X131752994Y-132375238D01*
X131987042Y-132195646D01*
X132195646Y-131987042D01*
X132375238Y-131752994D01*
X132522743Y-131497507D01*
X132635639Y-131224952D01*
X132711993Y-130939993D01*
X132750500Y-130647506D01*
X132750500Y-130352494D01*
X132711993Y-130060007D01*
X132635639Y-129775048D01*
X132522743Y-129502493D01*
X132485245Y-129437545D01*
X132375238Y-129247006D01*
X132195647Y-129012959D01*
X132195641Y-129012952D01*
X131987047Y-128804358D01*
X131987040Y-128804352D01*
X131752993Y-128624761D01*
X131497510Y-128477258D01*
X131497500Y-128477254D01*
X131224961Y-128364364D01*
X131224954Y-128364362D01*
X131224952Y-128364361D01*
X130939993Y-128288007D01*
X130891113Y-128281571D01*
X130647513Y-128249500D01*
X130647506Y-128249500D01*
X130352494Y-128249500D01*
X130352486Y-128249500D01*
X130074085Y-128286153D01*
X130060007Y-128288007D01*
X129796563Y-128358596D01*
X129775048Y-128364361D01*
X129775038Y-128364364D01*
X129502499Y-128477254D01*
X129502489Y-128477258D01*
X129247006Y-128624761D01*
X129012959Y-128804352D01*
X129012952Y-128804358D01*
X128804358Y-129012952D01*
X128804352Y-129012959D01*
X128624761Y-129247006D01*
X128477258Y-129502489D01*
X128477254Y-129502499D01*
X128364364Y-129775038D01*
X128364361Y-129775048D01*
X128310517Y-129976000D01*
X128288008Y-130060004D01*
X128288006Y-130060015D01*
X128249500Y-130352486D01*
X125334048Y-130352486D01*
X125333949Y-130352358D01*
X125325500Y-130307371D01*
X125325500Y-129558393D01*
X125325499Y-129558389D01*
X125301464Y-129437555D01*
X125301463Y-129437548D01*
X125254311Y-129323714D01*
X125254310Y-129323713D01*
X125254307Y-129323707D01*
X125185859Y-129221268D01*
X125157975Y-129193384D01*
X125098733Y-129134142D01*
X125098732Y-129134141D01*
X119226770Y-123262180D01*
X119193286Y-123200858D01*
X119198270Y-123131166D01*
X119240142Y-123075233D01*
X119305606Y-123050816D01*
X119314452Y-123050500D01*
X119426286Y-123050500D01*
X119426287Y-123050500D01*
X119636243Y-123017246D01*
X119651840Y-123012177D01*
X119721679Y-123010183D01*
X119777838Y-123042428D01*
X120009139Y-123273729D01*
X120009142Y-123273733D01*
X120096267Y-123360858D01*
X120146667Y-123394534D01*
X120198715Y-123429312D01*
X120237795Y-123445499D01*
X120237796Y-123445500D01*
X120272388Y-123459828D01*
X120312548Y-123476463D01*
X120372971Y-123488481D01*
X120433393Y-123500500D01*
X122408308Y-123500500D01*
X122468730Y-123488481D01*
X122529153Y-123476463D01*
X122562493Y-123462652D01*
X122642987Y-123429312D01*
X122695034Y-123394534D01*
X122745434Y-123360858D01*
X122832559Y-123273733D01*
X122832559Y-123273731D01*
X122842767Y-123263524D01*
X122842768Y-123263521D01*
X123944473Y-122161819D01*
X124005796Y-122128334D01*
X124032154Y-122125500D01*
X125491291Y-122125500D01*
X125493931Y-122126275D01*
G37*
%TD.AperFunction*%
%TA.AperFunction,Conductor*%
G36*
X149224075Y-123062993D02*
G01*
X149289901Y-123177007D01*
X149382993Y-123270099D01*
X149497007Y-123335925D01*
X149560589Y-123352962D01*
X148928282Y-123985269D01*
X148928282Y-123985270D01*
X148982449Y-124024624D01*
X149171782Y-124121095D01*
X149373870Y-124186757D01*
X149583754Y-124220000D01*
X149796246Y-124220000D01*
X150006126Y-124186758D01*
X150087181Y-124160421D01*
X150157022Y-124158425D01*
X150216855Y-124194505D01*
X150247684Y-124257206D01*
X150249500Y-124278352D01*
X150249500Y-124816610D01*
X150271621Y-124927820D01*
X150273537Y-124937452D01*
X150287347Y-124970792D01*
X150320688Y-125051286D01*
X150343437Y-125085331D01*
X150347849Y-125091934D01*
X150347851Y-125091938D01*
X150389140Y-125153731D01*
X150389141Y-125153732D01*
X150389142Y-125153733D01*
X150476267Y-125240858D01*
X150476268Y-125240858D01*
X150483335Y-125247925D01*
X150483334Y-125247925D01*
X150483338Y-125247928D01*
X156330997Y-131095588D01*
X156364482Y-131156911D01*
X156365789Y-131202666D01*
X156349500Y-131305513D01*
X156349500Y-131494486D01*
X156379059Y-131681118D01*
X156437454Y-131860836D01*
X156502312Y-131988125D01*
X156523240Y-132029199D01*
X156634310Y-132182073D01*
X156767927Y-132315690D01*
X156873387Y-132392311D01*
X156916051Y-132447640D01*
X156924500Y-132492628D01*
X156924500Y-132847371D01*
X156904815Y-132914410D01*
X156873386Y-132947689D01*
X156767925Y-133024311D01*
X156634312Y-133157924D01*
X156634312Y-133157925D01*
X156634310Y-133157927D01*
X156586610Y-133223579D01*
X156523240Y-133310800D01*
X156437454Y-133479163D01*
X156379059Y-133658881D01*
X156349500Y-133845513D01*
X156349500Y-134034486D01*
X156379059Y-134221118D01*
X156437454Y-134400836D01*
X156523243Y-134569205D01*
X156536139Y-134637874D01*
X156509863Y-134702615D01*
X156452756Y-134742872D01*
X156412758Y-134749500D01*
X148256960Y-134749500D01*
X148243077Y-134748720D01*
X148152734Y-134738541D01*
X148125662Y-134732362D01*
X148046464Y-134704649D01*
X148021447Y-134692602D01*
X148009052Y-134684814D01*
X147950395Y-134647957D01*
X147928686Y-134630644D01*
X147869355Y-134571313D01*
X147852042Y-134549604D01*
X147807395Y-134478549D01*
X147795351Y-134453539D01*
X147767636Y-134374333D01*
X147761458Y-134347268D01*
X147751280Y-134256922D01*
X147750500Y-134243040D01*
X147750500Y-130352486D01*
X149749500Y-130352486D01*
X149749500Y-130647513D01*
X149771576Y-130815187D01*
X149788007Y-130939993D01*
X149858390Y-131202666D01*
X149864361Y-131224951D01*
X149864364Y-131224961D01*
X149977254Y-131497500D01*
X149977257Y-131497507D01*
X150124761Y-131752993D01*
X150304352Y-131987040D01*
X150304358Y-131987047D01*
X150512952Y-132195641D01*
X150512959Y-132195647D01*
X150747006Y-132375238D01*
X151002489Y-132522741D01*
X151002490Y-132522741D01*
X151002493Y-132522743D01*
X151275048Y-132635639D01*
X151560007Y-132711993D01*
X151852494Y-132750500D01*
X151852501Y-132750500D01*
X152147499Y-132750500D01*
X152147506Y-132750500D01*
X152439993Y-132711993D01*
X152724952Y-132635639D01*
X152997507Y-132522743D01*
X153252994Y-132375238D01*
X153487042Y-132195646D01*
X153695646Y-131987042D01*
X153875238Y-131752994D01*
X154022743Y-131497507D01*
X154135639Y-131224952D01*
X154211993Y-130939993D01*
X154250500Y-130647506D01*
X154250500Y-130352494D01*
X154211993Y-130060007D01*
X154135639Y-129775048D01*
X154022743Y-129502493D01*
X153985245Y-129437545D01*
X153875238Y-129247006D01*
X153695647Y-129012959D01*
X153695641Y-129012952D01*
X153487047Y-128804358D01*
X153487040Y-128804352D01*
X153252993Y-128624761D01*
X152997510Y-128477258D01*
X152997500Y-128477254D01*
X152724961Y-128364364D01*
X152724954Y-128364362D01*
X152724952Y-128364361D01*
X152439993Y-128288007D01*
X152391113Y-128281571D01*
X152147513Y-128249500D01*
X152147506Y-128249500D01*
X151852494Y-128249500D01*
X151852486Y-128249500D01*
X151574085Y-128286153D01*
X151560007Y-128288007D01*
X151296563Y-128358596D01*
X151275048Y-128364361D01*
X151275038Y-128364364D01*
X151002499Y-128477254D01*
X151002489Y-128477258D01*
X150747006Y-128624761D01*
X150512959Y-128804352D01*
X150512952Y-128804358D01*
X150304358Y-129012952D01*
X150304352Y-129012959D01*
X150124761Y-129247006D01*
X149977258Y-129502489D01*
X149977254Y-129502499D01*
X149864364Y-129775038D01*
X149864361Y-129775048D01*
X149810517Y-129976000D01*
X149788008Y-130060004D01*
X149788006Y-130060015D01*
X149749500Y-130352486D01*
X147750500Y-130352486D01*
X147750500Y-127559794D01*
X147734740Y-127404815D01*
X147712015Y-127181340D01*
X147635439Y-126808720D01*
X147621722Y-126765000D01*
X147521562Y-126445766D01*
X147506994Y-126411819D01*
X147371543Y-126096179D01*
X147186931Y-125763571D01*
X147003480Y-125500000D01*
X146969614Y-125451343D01*
X146721829Y-125162709D01*
X146688442Y-125130972D01*
X146446112Y-124900620D01*
X146420695Y-124880946D01*
X146145295Y-124667771D01*
X145822472Y-124466553D01*
X145822463Y-124466548D01*
X145480940Y-124299022D01*
X145480925Y-124299016D01*
X145339953Y-124246806D01*
X145283923Y-124205064D01*
X145259356Y-124139656D01*
X145274050Y-124071349D01*
X145314481Y-124028749D01*
X145313875Y-124027915D01*
X145489786Y-123900109D01*
X145489788Y-123900106D01*
X145489792Y-123900104D01*
X145640104Y-123749792D01*
X145640106Y-123749788D01*
X145640109Y-123749786D01*
X145765048Y-123577820D01*
X145765047Y-123577820D01*
X145765051Y-123577816D01*
X145769514Y-123569054D01*
X145817488Y-123518259D01*
X145885308Y-123501463D01*
X145951444Y-123523999D01*
X145990486Y-123569056D01*
X145994951Y-123577820D01*
X146119890Y-123749786D01*
X146270213Y-123900109D01*
X146442179Y-124025048D01*
X146442181Y-124025049D01*
X146442184Y-124025051D01*
X146631588Y-124121557D01*
X146833757Y-124187246D01*
X147043713Y-124220500D01*
X147043714Y-124220500D01*
X147256286Y-124220500D01*
X147256287Y-124220500D01*
X147466243Y-124187246D01*
X147668412Y-124121557D01*
X147857816Y-124025051D01*
X147912572Y-123985269D01*
X148029786Y-123900109D01*
X148029788Y-123900106D01*
X148029792Y-123900104D01*
X148180104Y-123749792D01*
X148180106Y-123749788D01*
X148180109Y-123749786D01*
X148247515Y-123657007D01*
X148305051Y-123577816D01*
X148309793Y-123568508D01*
X148357763Y-123517711D01*
X148425583Y-123500911D01*
X148491719Y-123523445D01*
X148530763Y-123568500D01*
X148535373Y-123577547D01*
X148574728Y-123631716D01*
X149207037Y-122999408D01*
X149224075Y-123062993D01*
G37*
%TD.AperFunction*%
%TA.AperFunction,Conductor*%
G36*
X173837226Y-123505524D02*
G01*
X173849810Y-123504985D01*
X173869674Y-123516581D01*
X173891444Y-123523999D01*
X173900719Y-123534703D01*
X173910151Y-123540209D01*
X173930486Y-123569056D01*
X173934951Y-123577820D01*
X174059890Y-123749786D01*
X174210213Y-123900109D01*
X174382179Y-124025048D01*
X174382181Y-124025049D01*
X174382184Y-124025051D01*
X174571588Y-124121557D01*
X174773757Y-124187246D01*
X174983713Y-124220500D01*
X174983714Y-124220500D01*
X175196285Y-124220500D01*
X175196287Y-124220500D01*
X175263291Y-124209887D01*
X175332580Y-124218841D01*
X175386033Y-124263836D01*
X175406673Y-124330588D01*
X175387949Y-124397902D01*
X175370367Y-124420041D01*
X171227449Y-128562959D01*
X171194179Y-128586703D01*
X171185685Y-128590850D01*
X171135394Y-128606522D01*
X171058916Y-128652754D01*
X171053927Y-128655191D01*
X171024734Y-128660161D01*
X170996111Y-128667719D01*
X170990326Y-128666020D01*
X170985049Y-128666919D01*
X170966526Y-128659032D01*
X170935367Y-128649883D01*
X170864400Y-128606982D01*
X170864396Y-128606980D01*
X170702105Y-128556409D01*
X170702106Y-128556409D01*
X170631572Y-128550000D01*
X170625000Y-128550000D01*
X170625000Y-129726000D01*
X170605315Y-129793039D01*
X170552511Y-129838794D01*
X170501000Y-129850000D01*
X170375000Y-129850000D01*
X170375000Y-129976000D01*
X170355315Y-130043039D01*
X170302511Y-130088794D01*
X170251000Y-130100000D01*
X169925824Y-130100000D01*
X169917648Y-130098373D01*
X169912571Y-130099290D01*
X169878373Y-130090562D01*
X169865792Y-130085351D01*
X169865791Y-130085350D01*
X169832455Y-130071542D01*
X169832453Y-130071541D01*
X169832452Y-130071541D01*
X169772029Y-130059522D01*
X169711610Y-130047504D01*
X169711607Y-130047504D01*
X169711606Y-130047504D01*
X161118603Y-130047504D01*
X160995389Y-130047504D01*
X160995385Y-130047504D01*
X160934967Y-130059522D01*
X160897255Y-130067023D01*
X160874546Y-130071540D01*
X160869662Y-130073562D01*
X160841203Y-130085351D01*
X160760714Y-130118689D01*
X160760710Y-130118691D01*
X160720924Y-130145277D01*
X160719414Y-130146286D01*
X160658263Y-130187146D01*
X160648867Y-130196541D01*
X160640409Y-130202559D01*
X160616798Y-130210719D01*
X160594875Y-130222688D01*
X160581023Y-130223083D01*
X160574372Y-130225382D01*
X160566606Y-130223494D01*
X160549128Y-130223993D01*
X160394486Y-130199500D01*
X160394481Y-130199500D01*
X160205519Y-130199500D01*
X160205514Y-130199500D01*
X160018881Y-130229059D01*
X159839163Y-130287454D01*
X159670800Y-130373240D01*
X159612912Y-130415299D01*
X159517927Y-130484310D01*
X159517925Y-130484312D01*
X159517924Y-130484312D01*
X159384312Y-130617924D01*
X159384312Y-130617925D01*
X159384310Y-130617927D01*
X159336610Y-130683579D01*
X159273240Y-130770800D01*
X159187454Y-130939163D01*
X159129059Y-131118881D01*
X159099500Y-131305513D01*
X159099500Y-131494486D01*
X159129059Y-131681118D01*
X159187454Y-131860836D01*
X159252312Y-131988125D01*
X159273240Y-132029199D01*
X159384310Y-132182073D01*
X159517927Y-132315690D01*
X159623387Y-132392311D01*
X159666051Y-132447640D01*
X159674500Y-132492628D01*
X159674500Y-132847371D01*
X159654815Y-132914410D01*
X159623386Y-132947689D01*
X159517925Y-133024311D01*
X159384312Y-133157924D01*
X159384312Y-133157925D01*
X159384310Y-133157927D01*
X159336610Y-133223579D01*
X159273240Y-133310800D01*
X159187454Y-133479163D01*
X159129059Y-133658881D01*
X159099500Y-133845513D01*
X159099500Y-134034486D01*
X159129059Y-134221118D01*
X159187454Y-134400836D01*
X159273243Y-134569205D01*
X159286139Y-134637874D01*
X159259863Y-134702615D01*
X159202756Y-134742872D01*
X159162758Y-134749500D01*
X158687242Y-134749500D01*
X158620203Y-134729815D01*
X158574448Y-134677011D01*
X158564504Y-134607853D01*
X158576757Y-134569205D01*
X158662545Y-134400836D01*
X158662545Y-134400835D01*
X158662547Y-134400832D01*
X158720940Y-134221118D01*
X158731761Y-134152795D01*
X158750500Y-134034486D01*
X158750500Y-133845513D01*
X158720940Y-133658881D01*
X158662545Y-133479163D01*
X158599716Y-133355855D01*
X158576760Y-133310801D01*
X158465690Y-133157927D01*
X158332073Y-133024310D01*
X158226614Y-132947689D01*
X158183949Y-132892358D01*
X158175500Y-132847371D01*
X158175500Y-132492628D01*
X158195185Y-132425589D01*
X158226611Y-132392312D01*
X158332073Y-132315690D01*
X158465690Y-132182073D01*
X158576760Y-132029199D01*
X158662547Y-131860832D01*
X158720940Y-131681118D01*
X158726341Y-131647019D01*
X158750500Y-131494486D01*
X158750500Y-131305513D01*
X158720940Y-131118881D01*
X158684451Y-131006581D01*
X158662547Y-130939168D01*
X158662545Y-130939165D01*
X158662545Y-130939163D01*
X158576759Y-130770800D01*
X158568913Y-130760001D01*
X158465690Y-130617927D01*
X158332073Y-130484310D01*
X158179199Y-130373240D01*
X158010836Y-130287454D01*
X157831118Y-130229059D01*
X157644486Y-130199500D01*
X157644481Y-130199500D01*
X157455519Y-130199500D01*
X157455514Y-130199500D01*
X157300870Y-130223993D01*
X157231576Y-130215038D01*
X157193791Y-130189201D01*
X156282886Y-129278296D01*
X156198017Y-129193427D01*
X169475000Y-129193427D01*
X169475000Y-129600000D01*
X170125000Y-129600000D01*
X170125000Y-128550000D01*
X170124999Y-128549999D01*
X170118436Y-128550000D01*
X170118417Y-128550001D01*
X170047897Y-128556408D01*
X170047892Y-128556409D01*
X169885603Y-128606981D01*
X169740122Y-128694927D01*
X169619927Y-128815122D01*
X169531980Y-128960604D01*
X169481409Y-129122893D01*
X169475000Y-129193427D01*
X156198017Y-129193427D01*
X154305910Y-127301319D01*
X153121746Y-126117155D01*
X162550000Y-126117155D01*
X162550000Y-126765000D01*
X163466988Y-126765000D01*
X163434075Y-126822007D01*
X163400000Y-126949174D01*
X163400000Y-127080826D01*
X163434075Y-127207993D01*
X163466988Y-127265000D01*
X162550000Y-127265000D01*
X162550000Y-127912844D01*
X162556401Y-127972372D01*
X162556403Y-127972379D01*
X162606645Y-128107086D01*
X162606649Y-128107093D01*
X162692809Y-128222187D01*
X162692812Y-128222190D01*
X162807906Y-128308350D01*
X162807913Y-128308354D01*
X162942620Y-128358596D01*
X162942627Y-128358598D01*
X163002155Y-128364999D01*
X163002172Y-128365000D01*
X163650000Y-128365000D01*
X163650000Y-127448012D01*
X163707007Y-127480925D01*
X163834174Y-127515000D01*
X163965826Y-127515000D01*
X164092993Y-127480925D01*
X164150000Y-127448012D01*
X164150000Y-128365000D01*
X164797828Y-128365000D01*
X164797844Y-128364999D01*
X164857372Y-128358598D01*
X164857379Y-128358596D01*
X164992086Y-128308354D01*
X164992093Y-128308350D01*
X165107187Y-128222190D01*
X165107190Y-128222187D01*
X165193350Y-128107093D01*
X165193354Y-128107086D01*
X165243596Y-127972379D01*
X165243598Y-127972372D01*
X165249999Y-127912844D01*
X165250000Y-127912827D01*
X165250000Y-127265000D01*
X164333012Y-127265000D01*
X164365925Y-127207993D01*
X164400000Y-127080826D01*
X164400000Y-126949174D01*
X164365925Y-126822007D01*
X164333012Y-126765000D01*
X165250000Y-126765000D01*
X165250000Y-126117172D01*
X165249999Y-126117155D01*
X165243598Y-126057627D01*
X165243596Y-126057620D01*
X165193354Y-125922913D01*
X165193350Y-125922906D01*
X165107190Y-125807812D01*
X165107187Y-125807809D01*
X164992093Y-125721649D01*
X164992086Y-125721645D01*
X164857379Y-125671403D01*
X164857372Y-125671401D01*
X164797844Y-125665000D01*
X164150000Y-125665000D01*
X164150000Y-126581988D01*
X164092993Y-126549075D01*
X163965826Y-126515000D01*
X163834174Y-126515000D01*
X163707007Y-126549075D01*
X163650000Y-126581988D01*
X163650000Y-125665000D01*
X163002155Y-125665000D01*
X162942627Y-125671401D01*
X162942620Y-125671403D01*
X162807913Y-125721645D01*
X162807906Y-125721649D01*
X162692812Y-125807809D01*
X162692809Y-125807812D01*
X162606649Y-125922906D01*
X162606645Y-125922913D01*
X162556403Y-126057620D01*
X162556401Y-126057627D01*
X162550000Y-126117155D01*
X153121746Y-126117155D01*
X151536819Y-124532228D01*
X151522115Y-124505300D01*
X151505523Y-124479482D01*
X151504631Y-124473281D01*
X151503334Y-124470905D01*
X151500500Y-124444547D01*
X151500500Y-124216352D01*
X151520185Y-124149313D01*
X151572989Y-124103558D01*
X151642147Y-124093614D01*
X151680796Y-124105868D01*
X151711583Y-124121555D01*
X151711585Y-124121555D01*
X151711588Y-124121557D01*
X151913757Y-124187246D01*
X152123713Y-124220500D01*
X152123714Y-124220500D01*
X152336286Y-124220500D01*
X152336287Y-124220500D01*
X152546243Y-124187246D01*
X152748412Y-124121557D01*
X152937816Y-124025051D01*
X152992572Y-123985269D01*
X153109786Y-123900109D01*
X153109788Y-123900106D01*
X153109792Y-123900104D01*
X153260104Y-123749792D01*
X153260106Y-123749788D01*
X153260109Y-123749786D01*
X153385048Y-123577820D01*
X153385047Y-123577820D01*
X153385051Y-123577816D01*
X153389514Y-123569054D01*
X153437488Y-123518259D01*
X153505308Y-123501463D01*
X153571444Y-123523999D01*
X153610486Y-123569056D01*
X153614951Y-123577820D01*
X153739890Y-123749786D01*
X153890213Y-123900109D01*
X154062179Y-124025048D01*
X154062181Y-124025049D01*
X154062184Y-124025051D01*
X154251588Y-124121557D01*
X154453757Y-124187246D01*
X154663713Y-124220500D01*
X154663714Y-124220500D01*
X154876286Y-124220500D01*
X154876287Y-124220500D01*
X155086243Y-124187246D01*
X155288412Y-124121557D01*
X155477816Y-124025051D01*
X155532572Y-123985269D01*
X155649786Y-123900109D01*
X155649788Y-123900106D01*
X155649792Y-123900104D01*
X155800104Y-123749792D01*
X155800106Y-123749788D01*
X155800109Y-123749786D01*
X155925048Y-123577820D01*
X155925047Y-123577820D01*
X155925051Y-123577816D01*
X155929514Y-123569054D01*
X155977488Y-123518259D01*
X156045308Y-123501463D01*
X156111444Y-123523999D01*
X156150486Y-123569056D01*
X156154951Y-123577820D01*
X156279890Y-123749786D01*
X156430213Y-123900109D01*
X156602179Y-124025048D01*
X156602181Y-124025049D01*
X156602184Y-124025051D01*
X156791588Y-124121557D01*
X156993757Y-124187246D01*
X157203713Y-124220500D01*
X157203714Y-124220500D01*
X157416286Y-124220500D01*
X157416287Y-124220500D01*
X157626243Y-124187246D01*
X157828412Y-124121557D01*
X158017816Y-124025051D01*
X158072572Y-123985269D01*
X158189786Y-123900109D01*
X158189788Y-123900106D01*
X158189792Y-123900104D01*
X158340104Y-123749792D01*
X158340106Y-123749788D01*
X158340109Y-123749786D01*
X158465048Y-123577820D01*
X158465047Y-123577820D01*
X158465051Y-123577816D01*
X158469514Y-123569054D01*
X158517488Y-123518259D01*
X158585308Y-123501463D01*
X158651444Y-123523999D01*
X158690486Y-123569056D01*
X158694951Y-123577820D01*
X158819890Y-123749786D01*
X158970213Y-123900109D01*
X159142179Y-124025048D01*
X159142181Y-124025049D01*
X159142184Y-124025051D01*
X159331588Y-124121557D01*
X159533757Y-124187246D01*
X159743713Y-124220500D01*
X159743714Y-124220500D01*
X159956286Y-124220500D01*
X159956287Y-124220500D01*
X160166243Y-124187246D01*
X160368412Y-124121557D01*
X160557816Y-124025051D01*
X160612572Y-123985269D01*
X160729786Y-123900109D01*
X160729788Y-123900106D01*
X160729792Y-123900104D01*
X160880104Y-123749792D01*
X160880106Y-123749788D01*
X160880109Y-123749786D01*
X161005048Y-123577820D01*
X161005047Y-123577820D01*
X161005051Y-123577816D01*
X161009514Y-123569054D01*
X161057488Y-123518259D01*
X161125308Y-123501463D01*
X161191444Y-123523999D01*
X161230486Y-123569056D01*
X161234951Y-123577820D01*
X161359890Y-123749786D01*
X161510213Y-123900109D01*
X161682179Y-124025048D01*
X161682181Y-124025049D01*
X161682184Y-124025051D01*
X161871588Y-124121557D01*
X162073757Y-124187246D01*
X162283713Y-124220500D01*
X162283714Y-124220500D01*
X162496286Y-124220500D01*
X162496287Y-124220500D01*
X162706243Y-124187246D01*
X162908412Y-124121557D01*
X163097816Y-124025051D01*
X163152572Y-123985269D01*
X163269786Y-123900109D01*
X163269788Y-123900106D01*
X163269792Y-123900104D01*
X163420104Y-123749792D01*
X163420106Y-123749788D01*
X163420109Y-123749786D01*
X163545048Y-123577820D01*
X163545047Y-123577820D01*
X163545051Y-123577816D01*
X163549514Y-123569054D01*
X163597488Y-123518259D01*
X163665308Y-123501463D01*
X163731444Y-123523999D01*
X163770486Y-123569056D01*
X163774951Y-123577820D01*
X163899890Y-123749786D01*
X164050213Y-123900109D01*
X164222179Y-124025048D01*
X164222181Y-124025049D01*
X164222184Y-124025051D01*
X164411588Y-124121557D01*
X164613757Y-124187246D01*
X164823713Y-124220500D01*
X164823714Y-124220500D01*
X165036286Y-124220500D01*
X165036287Y-124220500D01*
X165246243Y-124187246D01*
X165448412Y-124121557D01*
X165637816Y-124025051D01*
X165692572Y-123985269D01*
X165809786Y-123900109D01*
X165809788Y-123900106D01*
X165809792Y-123900104D01*
X165960104Y-123749792D01*
X165960106Y-123749788D01*
X165960109Y-123749786D01*
X166085048Y-123577820D01*
X166085047Y-123577820D01*
X166085051Y-123577816D01*
X166089514Y-123569054D01*
X166137488Y-123518259D01*
X166205308Y-123501463D01*
X166271444Y-123523999D01*
X166310486Y-123569056D01*
X166314951Y-123577820D01*
X166439890Y-123749786D01*
X166590213Y-123900109D01*
X166762179Y-124025048D01*
X166762181Y-124025049D01*
X166762184Y-124025051D01*
X166951588Y-124121557D01*
X167153757Y-124187246D01*
X167363713Y-124220500D01*
X167363714Y-124220500D01*
X167576286Y-124220500D01*
X167576287Y-124220500D01*
X167786243Y-124187246D01*
X167988412Y-124121557D01*
X168177816Y-124025051D01*
X168232572Y-123985269D01*
X168349786Y-123900109D01*
X168349788Y-123900106D01*
X168349792Y-123900104D01*
X168500104Y-123749792D01*
X168500106Y-123749788D01*
X168500109Y-123749786D01*
X168625048Y-123577820D01*
X168625047Y-123577820D01*
X168625051Y-123577816D01*
X168629514Y-123569054D01*
X168677488Y-123518259D01*
X168745308Y-123501463D01*
X168811444Y-123523999D01*
X168850486Y-123569056D01*
X168854951Y-123577820D01*
X168979890Y-123749786D01*
X169130213Y-123900109D01*
X169302179Y-124025048D01*
X169302181Y-124025049D01*
X169302184Y-124025051D01*
X169491588Y-124121557D01*
X169693757Y-124187246D01*
X169903713Y-124220500D01*
X169903714Y-124220500D01*
X170116286Y-124220500D01*
X170116287Y-124220500D01*
X170326243Y-124187246D01*
X170528412Y-124121557D01*
X170717816Y-124025051D01*
X170772572Y-123985269D01*
X170889786Y-123900109D01*
X170889788Y-123900106D01*
X170889792Y-123900104D01*
X171040104Y-123749792D01*
X171040106Y-123749788D01*
X171040109Y-123749786D01*
X171165048Y-123577820D01*
X171165047Y-123577820D01*
X171165051Y-123577816D01*
X171169514Y-123569054D01*
X171217488Y-123518259D01*
X171285308Y-123501463D01*
X171351444Y-123523999D01*
X171390486Y-123569056D01*
X171394951Y-123577820D01*
X171519890Y-123749786D01*
X171670213Y-123900109D01*
X171842179Y-124025048D01*
X171842181Y-124025049D01*
X171842184Y-124025051D01*
X172031588Y-124121557D01*
X172233757Y-124187246D01*
X172443713Y-124220500D01*
X172443714Y-124220500D01*
X172656286Y-124220500D01*
X172656287Y-124220500D01*
X172866243Y-124187246D01*
X173068412Y-124121557D01*
X173257816Y-124025051D01*
X173312572Y-123985269D01*
X173429786Y-123900109D01*
X173429788Y-123900106D01*
X173429792Y-123900104D01*
X173580104Y-123749792D01*
X173580106Y-123749788D01*
X173580109Y-123749786D01*
X173705048Y-123577820D01*
X173705047Y-123577820D01*
X173705051Y-123577816D01*
X173709514Y-123569054D01*
X173718160Y-123559900D01*
X173722897Y-123548232D01*
X173741696Y-123534979D01*
X173757488Y-123518259D01*
X173769710Y-123515231D01*
X173780004Y-123507976D01*
X173802985Y-123506991D01*
X173825308Y-123501463D01*
X173837226Y-123505524D01*
G37*
%TD.AperFunction*%
%TA.AperFunction,Conductor*%
G36*
X108276650Y-112650452D02*
G01*
X108332583Y-112692324D01*
X108336416Y-112697740D01*
X108353600Y-112723456D01*
X108374480Y-112790133D01*
X108374500Y-112792350D01*
X108374500Y-116469546D01*
X108354815Y-116536585D01*
X108338181Y-116557227D01*
X104537837Y-120357570D01*
X104476514Y-120391055D01*
X104411842Y-120387821D01*
X104396246Y-120382754D01*
X104237239Y-120357570D01*
X104186287Y-120349500D01*
X103973713Y-120349500D01*
X103925042Y-120357208D01*
X103763760Y-120382753D01*
X103561585Y-120448444D01*
X103372179Y-120544951D01*
X103200215Y-120669889D01*
X103086285Y-120783819D01*
X103024962Y-120817303D01*
X102955270Y-120812319D01*
X102899337Y-120770447D01*
X102882422Y-120739470D01*
X102833354Y-120607913D01*
X102833350Y-120607906D01*
X102747190Y-120492812D01*
X102747187Y-120492809D01*
X102632093Y-120406649D01*
X102632086Y-120406645D01*
X102497379Y-120356403D01*
X102497372Y-120356401D01*
X102437844Y-120350000D01*
X101790000Y-120350000D01*
X101790000Y-121266988D01*
X101732993Y-121234075D01*
X101605826Y-121200000D01*
X101474174Y-121200000D01*
X101347007Y-121234075D01*
X101290000Y-121266988D01*
X101290000Y-120350000D01*
X100642155Y-120350000D01*
X100582627Y-120356401D01*
X100582620Y-120356403D01*
X100447913Y-120406645D01*
X100447906Y-120406649D01*
X100332812Y-120492809D01*
X100332809Y-120492812D01*
X100246649Y-120607906D01*
X100246646Y-120607912D01*
X100197577Y-120739471D01*
X100155705Y-120795404D01*
X100090241Y-120819821D01*
X100021968Y-120804969D01*
X99993714Y-120783818D01*
X99879786Y-120669890D01*
X99707820Y-120544951D01*
X99518414Y-120448444D01*
X99518413Y-120448443D01*
X99518412Y-120448443D01*
X99316243Y-120382754D01*
X99316241Y-120382753D01*
X99316240Y-120382753D01*
X99154957Y-120357208D01*
X99106287Y-120349500D01*
X98893713Y-120349500D01*
X98845042Y-120357208D01*
X98683760Y-120382753D01*
X98481585Y-120448444D01*
X98292179Y-120544951D01*
X98120213Y-120669890D01*
X97969890Y-120820213D01*
X97844951Y-120992179D01*
X97748444Y-121181585D01*
X97748443Y-121181587D01*
X97748443Y-121181588D01*
X97741070Y-121204281D01*
X97682753Y-121383760D01*
X97652552Y-121574441D01*
X97649500Y-121593713D01*
X97649500Y-121806287D01*
X97654822Y-121839889D01*
X97681424Y-122007850D01*
X97682754Y-122016243D01*
X97733020Y-122170946D01*
X97748444Y-122218414D01*
X97844951Y-122407820D01*
X97969890Y-122579786D01*
X98120213Y-122730109D01*
X98292179Y-122855048D01*
X98292181Y-122855049D01*
X98292184Y-122855051D01*
X98481588Y-122951557D01*
X98683757Y-123017246D01*
X98893713Y-123050500D01*
X98893714Y-123050500D01*
X99106286Y-123050500D01*
X99106287Y-123050500D01*
X99316243Y-123017246D01*
X99518412Y-122951557D01*
X99707816Y-122855051D01*
X99794478Y-122792088D01*
X99879784Y-122730110D01*
X99879784Y-122730109D01*
X99879792Y-122730104D01*
X99993717Y-122616178D01*
X100055036Y-122582696D01*
X100124728Y-122587680D01*
X100180662Y-122629551D01*
X100197577Y-122660528D01*
X100246646Y-122792088D01*
X100246649Y-122792093D01*
X100332809Y-122907187D01*
X100332812Y-122907190D01*
X100447906Y-122993350D01*
X100447913Y-122993354D01*
X100582620Y-123043596D01*
X100582627Y-123043598D01*
X100642155Y-123049999D01*
X100642172Y-123050000D01*
X101290000Y-123050000D01*
X101290000Y-122133012D01*
X101347007Y-122165925D01*
X101474174Y-122200000D01*
X101605826Y-122200000D01*
X101732993Y-122165925D01*
X101790000Y-122133012D01*
X101790000Y-123050000D01*
X102437828Y-123050000D01*
X102437844Y-123049999D01*
X102497372Y-123043598D01*
X102497379Y-123043596D01*
X102632086Y-122993354D01*
X102632093Y-122993350D01*
X102747187Y-122907190D01*
X102747190Y-122907187D01*
X102833350Y-122792093D01*
X102833354Y-122792086D01*
X102882422Y-122660529D01*
X102924293Y-122604595D01*
X102989757Y-122580178D01*
X103058030Y-122595030D01*
X103086285Y-122616181D01*
X103200213Y-122730109D01*
X103372179Y-122855048D01*
X103372181Y-122855049D01*
X103372184Y-122855051D01*
X103561588Y-122951557D01*
X103763757Y-123017246D01*
X103973713Y-123050500D01*
X103973714Y-123050500D01*
X104186286Y-123050500D01*
X104186287Y-123050500D01*
X104396243Y-123017246D01*
X104411837Y-123012178D01*
X104481676Y-123010182D01*
X104537837Y-123042428D01*
X106908228Y-125412819D01*
X106941713Y-125474142D01*
X106936729Y-125543834D01*
X106894857Y-125599767D01*
X106829393Y-125624184D01*
X106820547Y-125624500D01*
X100310453Y-125624500D01*
X100243414Y-125604815D01*
X100222772Y-125588181D01*
X95161819Y-120527228D01*
X95128334Y-120465905D01*
X95125500Y-120439547D01*
X95125500Y-119493018D01*
X95145185Y-119425979D01*
X95197989Y-119380224D01*
X95267147Y-119370280D01*
X95296944Y-119378454D01*
X95387334Y-119415895D01*
X95556282Y-119449500D01*
X95561304Y-119450499D01*
X95561308Y-119450500D01*
X95561309Y-119450500D01*
X97264868Y-119450500D01*
X97329963Y-119468960D01*
X97355666Y-119484814D01*
X97522203Y-119539999D01*
X97624991Y-119550500D01*
X98675008Y-119550499D01*
X98675016Y-119550498D01*
X98675019Y-119550498D01*
X98771825Y-119540609D01*
X98777797Y-119539999D01*
X98944334Y-119484814D01*
X99051100Y-119418961D01*
X99116196Y-119400500D01*
X102088693Y-119400500D01*
X102088694Y-119400499D01*
X102262666Y-119365895D01*
X102344606Y-119331953D01*
X102426547Y-119298013D01*
X102514959Y-119238936D01*
X102574036Y-119199464D01*
X103800619Y-117972879D01*
X103861940Y-117939396D01*
X103868852Y-117938097D01*
X103969409Y-117922171D01*
X104141639Y-117866211D01*
X104302994Y-117783996D01*
X104449501Y-117677553D01*
X104577553Y-117549501D01*
X104683996Y-117402994D01*
X104766211Y-117241639D01*
X104822171Y-117069409D01*
X104839111Y-116962452D01*
X104850500Y-116890551D01*
X104850500Y-116709448D01*
X104827083Y-116561606D01*
X104822171Y-116530591D01*
X104790718Y-116433787D01*
X104766212Y-116358363D01*
X104766209Y-116358355D01*
X104693062Y-116214799D01*
X104692765Y-116213217D01*
X104691690Y-116212021D01*
X104686340Y-116179007D01*
X104680165Y-116146129D01*
X104680770Y-116144637D01*
X104680513Y-116143051D01*
X104693857Y-116112393D01*
X104706441Y-116081389D01*
X104707962Y-116079987D01*
X104708398Y-116078987D01*
X104734656Y-116055400D01*
X104736281Y-116054313D01*
X104736286Y-116054312D01*
X104788030Y-116019737D01*
X104838733Y-115985858D01*
X104925858Y-115898733D01*
X104925859Y-115898731D01*
X104932925Y-115891665D01*
X104932928Y-115891661D01*
X108145637Y-112678951D01*
X108206958Y-112645468D01*
X108276650Y-112650452D01*
G37*
%TD.AperFunction*%
%TA.AperFunction,Conductor*%
G36*
X149358162Y-108942179D02*
G01*
X149373757Y-108947246D01*
X149583713Y-108980500D01*
X149583714Y-108980500D01*
X149796286Y-108980500D01*
X149796287Y-108980500D01*
X150006243Y-108947246D01*
X150021840Y-108942177D01*
X150091679Y-108940183D01*
X150147838Y-108972428D01*
X150213181Y-109037771D01*
X150246666Y-109099094D01*
X150249500Y-109125452D01*
X150249500Y-121461647D01*
X150229815Y-121528686D01*
X150177011Y-121574441D01*
X150107853Y-121584385D01*
X150087182Y-121579578D01*
X150006129Y-121553242D01*
X149796246Y-121520000D01*
X149583754Y-121520000D01*
X149373872Y-121553242D01*
X149373869Y-121553242D01*
X149171782Y-121618904D01*
X148982439Y-121715380D01*
X148928282Y-121754727D01*
X148928282Y-121754728D01*
X149560591Y-122387037D01*
X149497007Y-122404075D01*
X149382993Y-122469901D01*
X149289901Y-122562993D01*
X149224075Y-122677007D01*
X149207037Y-122740591D01*
X148574728Y-122108282D01*
X148574727Y-122108282D01*
X148535380Y-122162440D01*
X148535376Y-122162446D01*
X148530760Y-122171505D01*
X148482781Y-122222297D01*
X148414959Y-122239087D01*
X148348826Y-122216543D01*
X148309794Y-122171493D01*
X148305051Y-122162184D01*
X148305049Y-122162181D01*
X148305048Y-122162179D01*
X148180109Y-121990213D01*
X148029786Y-121839890D01*
X147857820Y-121714951D01*
X147668414Y-121618444D01*
X147668413Y-121618443D01*
X147668412Y-121618443D01*
X147466243Y-121552754D01*
X147466241Y-121552753D01*
X147466240Y-121552753D01*
X147304957Y-121527208D01*
X147256287Y-121519500D01*
X147043713Y-121519500D01*
X146995042Y-121527208D01*
X146833760Y-121552753D01*
X146833757Y-121552754D01*
X146634897Y-121617368D01*
X146631585Y-121618444D01*
X146442179Y-121714951D01*
X146270213Y-121839890D01*
X146119890Y-121990213D01*
X145994949Y-122162182D01*
X145990484Y-122170946D01*
X145942509Y-122221742D01*
X145874688Y-122238536D01*
X145808553Y-122215998D01*
X145769516Y-122170946D01*
X145765050Y-122162182D01*
X145640109Y-121990213D01*
X145489786Y-121839890D01*
X145317820Y-121714951D01*
X145128414Y-121618444D01*
X145128413Y-121618443D01*
X145128412Y-121618443D01*
X144926243Y-121552754D01*
X144926241Y-121552753D01*
X144926240Y-121552753D01*
X144764957Y-121527208D01*
X144716287Y-121519500D01*
X144503713Y-121519500D01*
X144455042Y-121527208D01*
X144293760Y-121552753D01*
X144293757Y-121552754D01*
X144094897Y-121617368D01*
X144091585Y-121618444D01*
X143902179Y-121714951D01*
X143730213Y-121839890D01*
X143579890Y-121990213D01*
X143454949Y-122162182D01*
X143450484Y-122170946D01*
X143402509Y-122221742D01*
X143334688Y-122238536D01*
X143268553Y-122215998D01*
X143229516Y-122170946D01*
X143225050Y-122162182D01*
X143100109Y-121990213D01*
X142949786Y-121839890D01*
X142777820Y-121714951D01*
X142588414Y-121618444D01*
X142588413Y-121618443D01*
X142588412Y-121618443D01*
X142386243Y-121552754D01*
X142386241Y-121552753D01*
X142386240Y-121552753D01*
X142224957Y-121527208D01*
X142176287Y-121519500D01*
X141963713Y-121519500D01*
X141915042Y-121527208D01*
X141753760Y-121552753D01*
X141753757Y-121552754D01*
X141554897Y-121617368D01*
X141551585Y-121618444D01*
X141362179Y-121714951D01*
X141190213Y-121839890D01*
X141039890Y-121990213D01*
X140914949Y-122162182D01*
X140910484Y-122170946D01*
X140862509Y-122221742D01*
X140794688Y-122238536D01*
X140728553Y-122215998D01*
X140689516Y-122170946D01*
X140685050Y-122162182D01*
X140560109Y-121990213D01*
X140409786Y-121839890D01*
X140237820Y-121714951D01*
X140048414Y-121618444D01*
X140048413Y-121618443D01*
X140048412Y-121618443D01*
X139846243Y-121552754D01*
X139846241Y-121552753D01*
X139846240Y-121552753D01*
X139684957Y-121527208D01*
X139636287Y-121519500D01*
X139423713Y-121519500D01*
X139375042Y-121527208D01*
X139213760Y-121552753D01*
X139213757Y-121552754D01*
X139014897Y-121617368D01*
X139011585Y-121618444D01*
X138822179Y-121714951D01*
X138650213Y-121839890D01*
X138499890Y-121990213D01*
X138374949Y-122162182D01*
X138370484Y-122170946D01*
X138322509Y-122221742D01*
X138254688Y-122238536D01*
X138188553Y-122215998D01*
X138149516Y-122170946D01*
X138145050Y-122162182D01*
X138020109Y-121990213D01*
X137869786Y-121839890D01*
X137697817Y-121714949D01*
X137663123Y-121697271D01*
X137612327Y-121649296D01*
X137595533Y-121581475D01*
X137618071Y-121515340D01*
X137620868Y-121511667D01*
X137623828Y-121507238D01*
X137709394Y-121379179D01*
X137769737Y-121233497D01*
X137791858Y-121122282D01*
X137824240Y-121060375D01*
X137825735Y-121058853D01*
X147343729Y-111540860D01*
X147343733Y-111540858D01*
X147430858Y-111453733D01*
X147483800Y-111374500D01*
X147499312Y-111351285D01*
X147532233Y-111271805D01*
X147546463Y-111237452D01*
X147570500Y-111116606D01*
X147570500Y-110685451D01*
X147590185Y-110618412D01*
X147606814Y-110597775D01*
X149232162Y-108972426D01*
X149293483Y-108938943D01*
X149358162Y-108942179D01*
G37*
%TD.AperFunction*%
%TA.AperFunction,Conductor*%
G36*
X171297226Y-108265524D02*
G01*
X171309810Y-108264985D01*
X171329674Y-108276581D01*
X171351444Y-108283999D01*
X171360719Y-108294703D01*
X171370151Y-108300209D01*
X171390486Y-108329056D01*
X171394951Y-108337820D01*
X171519890Y-108509786D01*
X171670211Y-108660107D01*
X171724432Y-108699500D01*
X171823385Y-108771393D01*
X171866051Y-108826721D01*
X171874500Y-108871710D01*
X171874500Y-113957650D01*
X171854815Y-114024689D01*
X171853602Y-114026541D01*
X171790609Y-114120815D01*
X171790602Y-114120828D01*
X171730264Y-114266498D01*
X171730261Y-114266510D01*
X171699500Y-114421153D01*
X171699500Y-114578846D01*
X171730261Y-114733489D01*
X171730264Y-114733501D01*
X171790602Y-114879172D01*
X171790609Y-114879185D01*
X171878210Y-115010288D01*
X171878213Y-115010292D01*
X171989707Y-115121786D01*
X171989711Y-115121789D01*
X172120814Y-115209390D01*
X172120827Y-115209397D01*
X172266498Y-115269735D01*
X172266503Y-115269737D01*
X172420680Y-115300405D01*
X172421153Y-115300499D01*
X172421156Y-115300500D01*
X172421158Y-115300500D01*
X172578841Y-115300500D01*
X172578842Y-115300500D01*
X172578842Y-115300499D01*
X172579806Y-115300405D01*
X172580307Y-115300500D01*
X172584934Y-115300500D01*
X172584934Y-115301377D01*
X172648452Y-115313424D01*
X172699162Y-115361489D01*
X172713577Y-115399616D01*
X172730261Y-115483491D01*
X172730264Y-115483501D01*
X172790602Y-115629172D01*
X172790609Y-115629185D01*
X172878210Y-115760288D01*
X172878213Y-115760292D01*
X172989707Y-115871786D01*
X172989711Y-115871789D01*
X173120814Y-115959390D01*
X173120827Y-115959397D01*
X173266498Y-116019735D01*
X173266503Y-116019737D01*
X173412974Y-116048872D01*
X173421153Y-116050499D01*
X173421156Y-116050500D01*
X173421158Y-116050500D01*
X173578844Y-116050500D01*
X173578845Y-116050499D01*
X173733497Y-116019737D01*
X173879179Y-115959394D01*
X174010289Y-115871789D01*
X174121789Y-115760289D01*
X174209394Y-115629179D01*
X174269737Y-115483497D01*
X174300500Y-115328842D01*
X174300500Y-115171158D01*
X174300500Y-115171155D01*
X174300499Y-115171153D01*
X174289661Y-115116666D01*
X174269737Y-115016503D01*
X174231788Y-114924885D01*
X174209397Y-114870828D01*
X174209396Y-114870827D01*
X174209394Y-114870821D01*
X174146397Y-114776539D01*
X174125520Y-114709863D01*
X174125500Y-114707650D01*
X174125500Y-109530452D01*
X174145185Y-109463413D01*
X174161819Y-109442771D01*
X174344302Y-109260288D01*
X174632163Y-108972426D01*
X174693484Y-108938943D01*
X174758159Y-108942178D01*
X174762677Y-108943646D01*
X174773757Y-108947246D01*
X174983713Y-108980500D01*
X174983714Y-108980500D01*
X175095547Y-108980500D01*
X175116792Y-108986738D01*
X175138881Y-108988318D01*
X175149664Y-108996390D01*
X175162586Y-109000185D01*
X175177085Y-109016918D01*
X175194814Y-109030190D01*
X175199521Y-109042810D01*
X175208341Y-109052989D01*
X175211492Y-109074906D01*
X175219231Y-109095654D01*
X175216368Y-109108814D01*
X175218285Y-109122147D01*
X175209085Y-109142290D01*
X175204379Y-109163927D01*
X175191110Y-109181652D01*
X175189260Y-109185703D01*
X175183228Y-109192181D01*
X175101270Y-109274139D01*
X175101267Y-109274142D01*
X175076037Y-109299372D01*
X175014142Y-109361266D01*
X174986623Y-109402452D01*
X174986622Y-109402453D01*
X174945690Y-109463709D01*
X174945685Y-109463718D01*
X174922482Y-109519737D01*
X174918109Y-109530297D01*
X174905142Y-109561604D01*
X174898538Y-109577546D01*
X174898535Y-109577556D01*
X174876220Y-109689745D01*
X174876220Y-109689746D01*
X174874500Y-109698392D01*
X174874500Y-111971868D01*
X174854815Y-112038907D01*
X174819391Y-112074970D01*
X174739711Y-112128210D01*
X174739707Y-112128213D01*
X174628213Y-112239707D01*
X174628210Y-112239711D01*
X174540609Y-112370814D01*
X174540602Y-112370827D01*
X174480264Y-112516498D01*
X174480261Y-112516510D01*
X174449500Y-112671153D01*
X174449500Y-112828846D01*
X174480261Y-112983489D01*
X174480264Y-112983501D01*
X174540602Y-113129172D01*
X174540609Y-113129185D01*
X174628210Y-113260288D01*
X174628213Y-113260292D01*
X174739707Y-113371786D01*
X174739711Y-113371789D01*
X174870814Y-113459390D01*
X174870827Y-113459397D01*
X175004724Y-113514858D01*
X175016503Y-113519737D01*
X175171153Y-113550499D01*
X175171156Y-113550500D01*
X175171158Y-113550500D01*
X175328844Y-113550500D01*
X175328845Y-113550499D01*
X175483497Y-113519737D01*
X175629179Y-113459394D01*
X175760289Y-113371789D01*
X175871789Y-113260289D01*
X175959394Y-113129179D01*
X176019737Y-112983497D01*
X176050500Y-112828842D01*
X176050500Y-112828835D01*
X176051070Y-112823046D01*
X176050785Y-112821754D01*
X176055882Y-112800004D01*
X176058162Y-112787239D01*
X176059004Y-112784955D01*
X176101463Y-112682452D01*
X176105000Y-112664669D01*
X176125500Y-112561607D01*
X176125500Y-112438394D01*
X176125500Y-112438393D01*
X176125500Y-110070451D01*
X176145185Y-110003412D01*
X176161814Y-109982774D01*
X177172162Y-108972426D01*
X177233483Y-108938943D01*
X177298162Y-108942179D01*
X177313757Y-108947246D01*
X177523713Y-108980500D01*
X177523714Y-108980500D01*
X177736286Y-108980500D01*
X177736287Y-108980500D01*
X177946243Y-108947246D01*
X178148412Y-108881557D01*
X178337816Y-108785051D01*
X178424478Y-108722088D01*
X178507529Y-108661749D01*
X178573335Y-108638269D01*
X178641389Y-108654095D01*
X178668095Y-108674386D01*
X187552438Y-117558729D01*
X187552441Y-117558733D01*
X187639566Y-117645858D01*
X187687001Y-117677553D01*
X187693784Y-117682085D01*
X187693787Y-117682088D01*
X187742007Y-117714309D01*
X187742010Y-117714310D01*
X187742013Y-117714312D01*
X187773122Y-117727197D01*
X187795119Y-117736309D01*
X187795122Y-117736310D01*
X187803260Y-117739681D01*
X187857663Y-117783522D01*
X187879727Y-117849817D01*
X187862447Y-117917516D01*
X187843487Y-117941922D01*
X186856792Y-118928616D01*
X186795469Y-118962101D01*
X186725777Y-118957117D01*
X186669844Y-118915245D01*
X186645753Y-118853535D01*
X186642622Y-118822886D01*
X186639999Y-118797203D01*
X186584814Y-118630666D01*
X186557372Y-118586175D01*
X186493961Y-118483368D01*
X186475500Y-118418272D01*
X186475500Y-117736306D01*
X186475499Y-117736304D01*
X186440896Y-117562341D01*
X186440893Y-117562332D01*
X186439927Y-117560001D01*
X186409939Y-117487601D01*
X186400500Y-117440149D01*
X186400500Y-117409448D01*
X186384019Y-117305397D01*
X186372171Y-117230591D01*
X186322035Y-117076285D01*
X186316212Y-117058363D01*
X186316211Y-117058360D01*
X186282871Y-116992928D01*
X186233996Y-116897006D01*
X186193744Y-116841603D01*
X186127558Y-116750505D01*
X186127554Y-116750500D01*
X185999499Y-116622445D01*
X185999494Y-116622441D01*
X185852997Y-116516006D01*
X185852996Y-116516005D01*
X185852994Y-116516004D01*
X185761816Y-116469546D01*
X185691639Y-116433788D01*
X185691636Y-116433787D01*
X185519410Y-116377829D01*
X185340551Y-116349500D01*
X185340546Y-116349500D01*
X185159454Y-116349500D01*
X185159449Y-116349500D01*
X184980589Y-116377829D01*
X184808363Y-116433787D01*
X184808360Y-116433788D01*
X184647002Y-116516006D01*
X184500505Y-116622441D01*
X184500500Y-116622445D01*
X184372445Y-116750500D01*
X184372441Y-116750505D01*
X184266006Y-116897002D01*
X184183788Y-117058360D01*
X184183787Y-117058363D01*
X184127829Y-117230589D01*
X184099500Y-117409448D01*
X184099500Y-117590551D01*
X184127829Y-117769410D01*
X184183787Y-117941636D01*
X184183788Y-117941639D01*
X184266006Y-118102997D01*
X184372441Y-118249494D01*
X184372445Y-118249499D01*
X184372446Y-118249500D01*
X184372447Y-118249501D01*
X184500499Y-118377553D01*
X184559972Y-118420762D01*
X184602638Y-118476092D01*
X184608617Y-118545705D01*
X184592627Y-118586175D01*
X184565187Y-118630663D01*
X184565186Y-118630665D01*
X184548803Y-118680107D01*
X184510001Y-118797203D01*
X184510001Y-118797204D01*
X184510000Y-118797204D01*
X184499500Y-118899983D01*
X184499500Y-120300001D01*
X184499501Y-120300018D01*
X184510000Y-120402796D01*
X184510001Y-120402799D01*
X184565185Y-120569331D01*
X184565187Y-120569336D01*
X184571566Y-120579678D01*
X184656039Y-120716631D01*
X184674500Y-120781727D01*
X184674500Y-121571542D01*
X184654815Y-121638581D01*
X184606796Y-121682026D01*
X184542182Y-121714949D01*
X184370215Y-121839889D01*
X184256285Y-121953819D01*
X184194962Y-121987303D01*
X184125270Y-121982319D01*
X184069337Y-121940447D01*
X184052422Y-121909470D01*
X184003354Y-121777913D01*
X184003350Y-121777906D01*
X183917190Y-121662812D01*
X183917187Y-121662809D01*
X183802093Y-121576649D01*
X183802086Y-121576645D01*
X183667379Y-121526403D01*
X183667372Y-121526401D01*
X183607844Y-121520000D01*
X182960000Y-121520000D01*
X182960000Y-122436988D01*
X182902993Y-122404075D01*
X182775826Y-122370000D01*
X182644174Y-122370000D01*
X182517007Y-122404075D01*
X182460000Y-122436988D01*
X182460000Y-121520000D01*
X181812155Y-121520000D01*
X181752627Y-121526401D01*
X181752620Y-121526403D01*
X181617913Y-121576645D01*
X181617906Y-121576649D01*
X181502812Y-121662809D01*
X181502809Y-121662812D01*
X181416649Y-121777906D01*
X181416646Y-121777912D01*
X181367577Y-121909471D01*
X181325705Y-121965404D01*
X181260241Y-121989821D01*
X181191968Y-121974969D01*
X181163714Y-121953818D01*
X181049786Y-121839890D01*
X180877820Y-121714951D01*
X180688414Y-121618444D01*
X180688413Y-121618443D01*
X180688412Y-121618443D01*
X180486243Y-121552754D01*
X180486241Y-121552753D01*
X180486240Y-121552753D01*
X180324957Y-121527208D01*
X180276287Y-121519500D01*
X180063713Y-121519500D01*
X180015042Y-121527208D01*
X179853760Y-121552753D01*
X179853757Y-121552754D01*
X179654897Y-121617368D01*
X179651585Y-121618444D01*
X179462179Y-121714951D01*
X179290213Y-121839890D01*
X179139890Y-121990213D01*
X179014949Y-122162182D01*
X179010484Y-122170946D01*
X178962509Y-122221742D01*
X178894688Y-122238536D01*
X178828553Y-122215998D01*
X178789516Y-122170946D01*
X178785050Y-122162182D01*
X178660109Y-121990213D01*
X178509786Y-121839890D01*
X178337820Y-121714951D01*
X178148414Y-121618444D01*
X178148413Y-121618443D01*
X178148412Y-121618443D01*
X177946243Y-121552754D01*
X177946241Y-121552753D01*
X177946240Y-121552753D01*
X177784957Y-121527208D01*
X177736287Y-121519500D01*
X177523713Y-121519500D01*
X177475042Y-121527208D01*
X177313760Y-121552753D01*
X177313757Y-121552754D01*
X177114897Y-121617368D01*
X177111585Y-121618444D01*
X176922179Y-121714951D01*
X176750213Y-121839890D01*
X176599890Y-121990213D01*
X176474949Y-122162182D01*
X176470484Y-122170946D01*
X176422509Y-122221742D01*
X176354688Y-122238536D01*
X176288553Y-122215998D01*
X176249516Y-122170946D01*
X176245050Y-122162182D01*
X176120109Y-121990213D01*
X175969786Y-121839890D01*
X175797820Y-121714951D01*
X175608414Y-121618444D01*
X175608413Y-121618443D01*
X175608412Y-121618443D01*
X175406243Y-121552754D01*
X175406241Y-121552753D01*
X175406240Y-121552753D01*
X175244957Y-121527208D01*
X175196287Y-121519500D01*
X174983713Y-121519500D01*
X174935042Y-121527208D01*
X174773760Y-121552753D01*
X174773757Y-121552754D01*
X174574897Y-121617368D01*
X174571585Y-121618444D01*
X174382179Y-121714951D01*
X174210213Y-121839890D01*
X174059890Y-121990213D01*
X173934949Y-122162182D01*
X173930484Y-122170946D01*
X173882509Y-122221742D01*
X173814688Y-122238536D01*
X173748553Y-122215998D01*
X173709516Y-122170946D01*
X173705050Y-122162182D01*
X173580109Y-121990213D01*
X173429786Y-121839890D01*
X173257820Y-121714951D01*
X173068414Y-121618444D01*
X173068413Y-121618443D01*
X173068412Y-121618443D01*
X172866243Y-121552754D01*
X172866241Y-121552753D01*
X172866240Y-121552753D01*
X172704957Y-121527208D01*
X172656287Y-121519500D01*
X172443713Y-121519500D01*
X172395042Y-121527208D01*
X172233760Y-121552753D01*
X172233757Y-121552754D01*
X172034897Y-121617368D01*
X172031585Y-121618444D01*
X171842179Y-121714951D01*
X171670213Y-121839890D01*
X171519890Y-121990213D01*
X171394949Y-122162182D01*
X171390484Y-122170946D01*
X171342509Y-122221742D01*
X171274688Y-122238536D01*
X171208553Y-122215998D01*
X171169516Y-122170946D01*
X171165050Y-122162182D01*
X171040109Y-121990213D01*
X170889786Y-121839890D01*
X170717820Y-121714951D01*
X170528414Y-121618444D01*
X170528413Y-121618443D01*
X170528412Y-121618443D01*
X170326243Y-121552754D01*
X170326241Y-121552753D01*
X170326240Y-121552753D01*
X170164957Y-121527208D01*
X170116287Y-121519500D01*
X169903713Y-121519500D01*
X169855042Y-121527208D01*
X169693760Y-121552753D01*
X169693757Y-121552754D01*
X169494897Y-121617368D01*
X169491585Y-121618444D01*
X169302179Y-121714951D01*
X169130213Y-121839890D01*
X168979890Y-121990213D01*
X168854949Y-122162182D01*
X168850484Y-122170946D01*
X168802509Y-122221742D01*
X168734688Y-122238536D01*
X168668553Y-122215998D01*
X168629516Y-122170946D01*
X168625050Y-122162182D01*
X168500109Y-121990213D01*
X168349786Y-121839890D01*
X168177820Y-121714951D01*
X167988414Y-121618444D01*
X167988413Y-121618443D01*
X167988412Y-121618443D01*
X167786243Y-121552754D01*
X167786241Y-121552753D01*
X167786240Y-121552753D01*
X167624957Y-121527208D01*
X167576287Y-121519500D01*
X167363713Y-121519500D01*
X167315042Y-121527208D01*
X167153760Y-121552753D01*
X167153757Y-121552754D01*
X166954897Y-121617368D01*
X166951585Y-121618444D01*
X166762179Y-121714951D01*
X166590213Y-121839890D01*
X166439890Y-121990213D01*
X166314949Y-122162182D01*
X166310484Y-122170946D01*
X166262509Y-122221742D01*
X166194688Y-122238536D01*
X166128553Y-122215998D01*
X166089516Y-122170946D01*
X166085050Y-122162182D01*
X165960109Y-121990213D01*
X165809786Y-121839890D01*
X165637820Y-121714951D01*
X165448414Y-121618444D01*
X165448413Y-121618443D01*
X165448412Y-121618443D01*
X165246243Y-121552754D01*
X165246241Y-121552753D01*
X165246240Y-121552753D01*
X165084957Y-121527208D01*
X165036287Y-121519500D01*
X164823713Y-121519500D01*
X164775042Y-121527208D01*
X164613760Y-121552753D01*
X164613757Y-121552754D01*
X164414897Y-121617368D01*
X164411585Y-121618444D01*
X164222179Y-121714951D01*
X164050213Y-121839890D01*
X163899890Y-121990213D01*
X163774949Y-122162182D01*
X163770484Y-122170946D01*
X163722509Y-122221742D01*
X163654688Y-122238536D01*
X163588553Y-122215998D01*
X163549516Y-122170946D01*
X163545050Y-122162182D01*
X163420109Y-121990213D01*
X163269786Y-121839890D01*
X163097820Y-121714951D01*
X162908414Y-121618444D01*
X162908413Y-121618443D01*
X162908412Y-121618443D01*
X162706243Y-121552754D01*
X162706241Y-121552753D01*
X162706240Y-121552753D01*
X162544957Y-121527208D01*
X162496287Y-121519500D01*
X162283713Y-121519500D01*
X162235042Y-121527208D01*
X162073760Y-121552753D01*
X162073757Y-121552754D01*
X161874897Y-121617368D01*
X161871585Y-121618444D01*
X161682179Y-121714951D01*
X161510213Y-121839890D01*
X161359890Y-121990213D01*
X161234949Y-122162182D01*
X161230484Y-122170946D01*
X161182509Y-122221742D01*
X161114688Y-122238536D01*
X161048553Y-122215998D01*
X161009516Y-122170946D01*
X161005050Y-122162182D01*
X160880109Y-121990213D01*
X160729786Y-121839890D01*
X160557820Y-121714951D01*
X160368414Y-121618444D01*
X160368413Y-121618443D01*
X160368412Y-121618443D01*
X160166243Y-121552754D01*
X160166241Y-121552753D01*
X160166240Y-121552753D01*
X160004957Y-121527208D01*
X159956287Y-121519500D01*
X159743713Y-121519500D01*
X159695042Y-121527208D01*
X159533760Y-121552753D01*
X159533757Y-121552754D01*
X159334897Y-121617368D01*
X159331585Y-121618444D01*
X159142179Y-121714951D01*
X158970213Y-121839890D01*
X158819890Y-121990213D01*
X158694949Y-122162182D01*
X158690484Y-122170946D01*
X158642509Y-122221742D01*
X158574688Y-122238536D01*
X158508553Y-122215998D01*
X158469516Y-122170946D01*
X158465050Y-122162182D01*
X158340109Y-121990213D01*
X158189786Y-121839890D01*
X158017820Y-121714951D01*
X157828414Y-121618444D01*
X157828413Y-121618443D01*
X157828412Y-121618443D01*
X157626243Y-121552754D01*
X157626241Y-121552753D01*
X157626240Y-121552753D01*
X157464957Y-121527208D01*
X157416287Y-121519500D01*
X157203713Y-121519500D01*
X157155042Y-121527208D01*
X156993760Y-121552753D01*
X156993757Y-121552754D01*
X156794897Y-121617368D01*
X156791585Y-121618444D01*
X156602179Y-121714951D01*
X156430213Y-121839890D01*
X156279890Y-121990213D01*
X156154949Y-122162182D01*
X156150484Y-122170946D01*
X156102509Y-122221742D01*
X156034688Y-122238536D01*
X155968553Y-122215998D01*
X155929516Y-122170946D01*
X155925050Y-122162182D01*
X155800109Y-121990213D01*
X155649786Y-121839890D01*
X155477820Y-121714951D01*
X155288414Y-121618444D01*
X155288413Y-121618443D01*
X155288412Y-121618443D01*
X155086243Y-121552754D01*
X155086241Y-121552753D01*
X155086240Y-121552753D01*
X154924957Y-121527208D01*
X154876287Y-121519500D01*
X154663713Y-121519500D01*
X154615042Y-121527208D01*
X154453760Y-121552753D01*
X154453757Y-121552754D01*
X154254897Y-121617368D01*
X154251585Y-121618444D01*
X154062179Y-121714951D01*
X153890213Y-121839890D01*
X153739890Y-121990213D01*
X153614949Y-122162182D01*
X153610484Y-122170946D01*
X153562509Y-122221742D01*
X153494688Y-122238536D01*
X153428553Y-122215998D01*
X153389516Y-122170946D01*
X153385050Y-122162182D01*
X153260109Y-121990213D01*
X153109786Y-121839890D01*
X152937820Y-121714951D01*
X152748414Y-121618444D01*
X152748413Y-121618443D01*
X152748412Y-121618443D01*
X152546243Y-121552754D01*
X152546241Y-121552753D01*
X152546240Y-121552753D01*
X152384957Y-121527208D01*
X152336287Y-121519500D01*
X152123713Y-121519500D01*
X152075042Y-121527208D01*
X151913760Y-121552753D01*
X151711584Y-121618444D01*
X151680793Y-121634133D01*
X151612124Y-121647028D01*
X151547384Y-121620750D01*
X151507128Y-121563643D01*
X151500500Y-121523647D01*
X151500500Y-120917847D01*
X151520185Y-120850808D01*
X151572989Y-120805053D01*
X151600309Y-120796230D01*
X151616291Y-120793050D01*
X151733497Y-120769737D01*
X151879179Y-120709394D01*
X152010289Y-120621789D01*
X152121789Y-120510289D01*
X152209394Y-120379179D01*
X152242197Y-120299986D01*
X181550001Y-120299986D01*
X181560494Y-120402697D01*
X181615641Y-120569119D01*
X181615643Y-120569124D01*
X181707684Y-120718345D01*
X181831654Y-120842315D01*
X181980875Y-120934356D01*
X181980880Y-120934358D01*
X182147302Y-120989505D01*
X182147309Y-120989506D01*
X182250019Y-120999999D01*
X182374999Y-120999999D01*
X182875000Y-120999999D01*
X182999972Y-120999999D01*
X182999986Y-120999998D01*
X183102697Y-120989505D01*
X183269119Y-120934358D01*
X183269124Y-120934356D01*
X183418345Y-120842315D01*
X183542315Y-120718345D01*
X183634356Y-120569124D01*
X183634358Y-120569119D01*
X183689505Y-120402697D01*
X183689506Y-120402690D01*
X183699999Y-120299986D01*
X183700000Y-120299973D01*
X183700000Y-119850000D01*
X182875000Y-119850000D01*
X182875000Y-120999999D01*
X182374999Y-120999999D01*
X182375000Y-120999998D01*
X182375000Y-119850000D01*
X181550001Y-119850000D01*
X181550001Y-120299986D01*
X152242197Y-120299986D01*
X152269737Y-120233497D01*
X152300500Y-120078842D01*
X152300500Y-119921158D01*
X152300500Y-119921155D01*
X152300499Y-119921153D01*
X152280942Y-119822829D01*
X152269738Y-119766508D01*
X152269737Y-119766507D01*
X152269737Y-119766503D01*
X152269735Y-119766498D01*
X152209397Y-119620828D01*
X152209396Y-119620827D01*
X152209394Y-119620821D01*
X152146397Y-119526539D01*
X152125520Y-119459863D01*
X152125500Y-119457650D01*
X152125500Y-118900013D01*
X181550000Y-118900013D01*
X181550000Y-119350000D01*
X182375000Y-119350000D01*
X182875000Y-119350000D01*
X183699999Y-119350000D01*
X183699999Y-118900028D01*
X183699998Y-118900013D01*
X183689505Y-118797302D01*
X183634358Y-118630880D01*
X183634356Y-118630875D01*
X183542315Y-118481654D01*
X183418345Y-118357684D01*
X183269124Y-118265643D01*
X183269119Y-118265641D01*
X183102697Y-118210494D01*
X183102690Y-118210493D01*
X182999986Y-118200000D01*
X182875000Y-118200000D01*
X182875000Y-119350000D01*
X182375000Y-119350000D01*
X182375000Y-118200000D01*
X182250027Y-118200000D01*
X182250012Y-118200001D01*
X182147302Y-118210494D01*
X181980880Y-118265641D01*
X181980875Y-118265643D01*
X181831654Y-118357684D01*
X181707684Y-118481654D01*
X181615643Y-118630875D01*
X181615641Y-118630880D01*
X181560494Y-118797302D01*
X181560493Y-118797309D01*
X181550000Y-118900013D01*
X152125500Y-118900013D01*
X152125500Y-113060452D01*
X152145185Y-112993413D01*
X152161819Y-112972771D01*
X152544437Y-112590153D01*
X152544438Y-112590150D01*
X152735857Y-112398734D01*
X152748090Y-112380427D01*
X152804311Y-112296286D01*
X152851463Y-112182452D01*
X152853708Y-112171161D01*
X152853709Y-112171161D01*
X152853709Y-112171158D01*
X152875500Y-112061607D01*
X152875500Y-111938394D01*
X152875500Y-109938394D01*
X152871521Y-109918393D01*
X152865703Y-109889143D01*
X152865702Y-109889138D01*
X152863722Y-109879185D01*
X152857882Y-109849819D01*
X152855500Y-109825631D01*
X152855500Y-108902980D01*
X152875185Y-108835941D01*
X152923208Y-108792494D01*
X152937818Y-108785050D01*
X153109786Y-108660109D01*
X153109788Y-108660106D01*
X153109792Y-108660104D01*
X153260104Y-108509792D01*
X153260106Y-108509788D01*
X153260109Y-108509786D01*
X153385048Y-108337820D01*
X153385047Y-108337820D01*
X153385051Y-108337816D01*
X153389514Y-108329054D01*
X153437488Y-108278259D01*
X153505308Y-108261463D01*
X153571444Y-108283999D01*
X153610486Y-108329056D01*
X153614951Y-108337820D01*
X153739890Y-108509786D01*
X153890213Y-108660109D01*
X154062181Y-108785050D01*
X154076792Y-108792494D01*
X154127589Y-108840467D01*
X154144500Y-108902980D01*
X154144500Y-110427717D01*
X154124815Y-110494756D01*
X154123602Y-110496608D01*
X154040609Y-110620814D01*
X154040602Y-110620827D01*
X153980264Y-110766498D01*
X153980261Y-110766510D01*
X153949500Y-110921153D01*
X153949500Y-111078846D01*
X153980261Y-111233489D01*
X153980264Y-111233501D01*
X154040602Y-111379172D01*
X154040609Y-111379185D01*
X154128210Y-111510288D01*
X154128213Y-111510292D01*
X154239707Y-111621786D01*
X154239711Y-111621789D01*
X154370814Y-111709390D01*
X154370827Y-111709397D01*
X154475055Y-111752569D01*
X154516503Y-111769737D01*
X154666412Y-111799556D01*
X154671153Y-111800499D01*
X154671156Y-111800500D01*
X154671158Y-111800500D01*
X154828844Y-111800500D01*
X154828845Y-111800499D01*
X154983497Y-111769737D01*
X155096166Y-111723067D01*
X155129172Y-111709397D01*
X155129172Y-111709396D01*
X155129179Y-111709394D01*
X155260289Y-111621789D01*
X155371789Y-111510289D01*
X155459394Y-111379179D01*
X155470946Y-111351291D01*
X155503873Y-111271797D01*
X155519737Y-111233497D01*
X155550500Y-111078842D01*
X155550500Y-110921158D01*
X155550500Y-110921155D01*
X155550499Y-110921153D01*
X155524531Y-110790606D01*
X155519737Y-110766503D01*
X155492312Y-110700292D01*
X155459397Y-110620828D01*
X155459396Y-110620827D01*
X155459394Y-110620821D01*
X155443992Y-110597770D01*
X155416397Y-110556469D01*
X155395520Y-110489792D01*
X155395500Y-110487580D01*
X155395500Y-108902980D01*
X155415185Y-108835941D01*
X155463208Y-108792494D01*
X155477818Y-108785050D01*
X155649786Y-108660109D01*
X155649788Y-108660106D01*
X155649792Y-108660104D01*
X155800104Y-108509792D01*
X155800106Y-108509788D01*
X155800109Y-108509786D01*
X155925048Y-108337820D01*
X155925047Y-108337820D01*
X155925051Y-108337816D01*
X155929514Y-108329054D01*
X155977488Y-108278259D01*
X156045308Y-108261463D01*
X156111444Y-108283999D01*
X156150486Y-108329056D01*
X156154951Y-108337820D01*
X156279890Y-108509786D01*
X156430213Y-108660109D01*
X156602181Y-108785050D01*
X156616792Y-108792494D01*
X156667589Y-108840467D01*
X156684500Y-108902980D01*
X156684500Y-109647650D01*
X156664815Y-109714689D01*
X156663626Y-109716503D01*
X156652272Y-109733497D01*
X156600609Y-109810815D01*
X156600602Y-109810828D01*
X156540264Y-109956498D01*
X156540261Y-109956510D01*
X156509500Y-110111153D01*
X156509500Y-110268846D01*
X156540261Y-110423489D01*
X156540264Y-110423501D01*
X156600602Y-110569172D01*
X156600609Y-110569185D01*
X156688210Y-110700288D01*
X156688213Y-110700292D01*
X156799707Y-110811786D01*
X156799711Y-110811789D01*
X156930814Y-110899390D01*
X156930827Y-110899397D01*
X157040922Y-110944999D01*
X157076503Y-110959737D01*
X157219736Y-110988228D01*
X157231153Y-110990499D01*
X157231156Y-110990500D01*
X157231158Y-110990500D01*
X157388844Y-110990500D01*
X157388845Y-110990499D01*
X157543497Y-110959737D01*
X157665039Y-110909393D01*
X157689172Y-110899397D01*
X157689172Y-110899396D01*
X157689179Y-110899394D01*
X157820289Y-110811789D01*
X157931789Y-110700289D01*
X158019394Y-110569179D01*
X158079737Y-110423497D01*
X158110500Y-110268842D01*
X158110500Y-110111158D01*
X158110500Y-110111155D01*
X158110499Y-110111153D01*
X158096665Y-110041607D01*
X158079737Y-109956503D01*
X158072235Y-109938392D01*
X158019397Y-109810828D01*
X158019396Y-109810827D01*
X158019394Y-109810821D01*
X157956397Y-109716539D01*
X157935520Y-109649863D01*
X157935500Y-109647650D01*
X157935500Y-108902980D01*
X157955185Y-108835941D01*
X158003208Y-108792494D01*
X158017818Y-108785050D01*
X158189786Y-108660109D01*
X158189788Y-108660106D01*
X158189792Y-108660104D01*
X158340104Y-108509792D01*
X158340106Y-108509788D01*
X158340109Y-108509786D01*
X158465048Y-108337820D01*
X158465047Y-108337820D01*
X158465051Y-108337816D01*
X158469514Y-108329054D01*
X158517488Y-108278259D01*
X158585308Y-108261463D01*
X158651444Y-108283999D01*
X158690486Y-108329056D01*
X158694951Y-108337820D01*
X158819890Y-108509786D01*
X158970213Y-108660109D01*
X159142179Y-108785048D01*
X159142181Y-108785049D01*
X159142184Y-108785051D01*
X159331588Y-108881557D01*
X159533757Y-108947246D01*
X159743713Y-108980500D01*
X159743714Y-108980500D01*
X159956286Y-108980500D01*
X159956287Y-108980500D01*
X160166243Y-108947246D01*
X160368412Y-108881557D01*
X160557816Y-108785051D01*
X160644478Y-108722088D01*
X160729786Y-108660109D01*
X160729788Y-108660106D01*
X160729792Y-108660104D01*
X160880104Y-108509792D01*
X160880106Y-108509788D01*
X160880109Y-108509786D01*
X161005048Y-108337820D01*
X161005047Y-108337820D01*
X161005051Y-108337816D01*
X161009514Y-108329054D01*
X161057488Y-108278259D01*
X161125308Y-108261463D01*
X161191444Y-108283999D01*
X161230486Y-108329056D01*
X161234951Y-108337820D01*
X161359890Y-108509786D01*
X161510213Y-108660109D01*
X161682179Y-108785048D01*
X161682181Y-108785049D01*
X161682184Y-108785051D01*
X161871588Y-108881557D01*
X162073757Y-108947246D01*
X162283713Y-108980500D01*
X162283714Y-108980500D01*
X162496286Y-108980500D01*
X162496287Y-108980500D01*
X162706243Y-108947246D01*
X162908412Y-108881557D01*
X163097816Y-108785051D01*
X163184478Y-108722088D01*
X163269786Y-108660109D01*
X163269788Y-108660106D01*
X163269792Y-108660104D01*
X163420104Y-108509792D01*
X163420106Y-108509788D01*
X163420109Y-108509786D01*
X163545048Y-108337820D01*
X163545047Y-108337820D01*
X163545051Y-108337816D01*
X163549514Y-108329054D01*
X163597488Y-108278259D01*
X163665308Y-108261463D01*
X163731444Y-108283999D01*
X163770486Y-108329056D01*
X163774951Y-108337820D01*
X163899890Y-108509786D01*
X164050213Y-108660109D01*
X164222179Y-108785048D01*
X164222181Y-108785049D01*
X164222184Y-108785051D01*
X164411588Y-108881557D01*
X164613757Y-108947246D01*
X164823713Y-108980500D01*
X164823714Y-108980500D01*
X165036286Y-108980500D01*
X165036287Y-108980500D01*
X165246243Y-108947246D01*
X165448412Y-108881557D01*
X165637816Y-108785051D01*
X165724478Y-108722088D01*
X165809786Y-108660109D01*
X165809788Y-108660106D01*
X165809792Y-108660104D01*
X165960104Y-108509792D01*
X165960106Y-108509788D01*
X165960109Y-108509786D01*
X166085048Y-108337820D01*
X166085047Y-108337820D01*
X166085051Y-108337816D01*
X166089514Y-108329054D01*
X166137488Y-108278259D01*
X166205308Y-108261463D01*
X166271444Y-108283999D01*
X166310486Y-108329056D01*
X166314951Y-108337820D01*
X166439890Y-108509786D01*
X166590213Y-108660109D01*
X166762179Y-108785048D01*
X166762181Y-108785049D01*
X166762184Y-108785051D01*
X166951588Y-108881557D01*
X167153757Y-108947246D01*
X167363713Y-108980500D01*
X167363714Y-108980500D01*
X167576286Y-108980500D01*
X167576287Y-108980500D01*
X167786243Y-108947246D01*
X167988412Y-108881557D01*
X168177816Y-108785051D01*
X168264478Y-108722088D01*
X168349786Y-108660109D01*
X168349788Y-108660106D01*
X168349792Y-108660104D01*
X168500104Y-108509792D01*
X168500106Y-108509788D01*
X168500109Y-108509786D01*
X168625048Y-108337820D01*
X168625047Y-108337820D01*
X168625051Y-108337816D01*
X168629514Y-108329054D01*
X168677488Y-108278259D01*
X168745308Y-108261463D01*
X168811444Y-108283999D01*
X168850486Y-108329056D01*
X168854951Y-108337820D01*
X168979890Y-108509786D01*
X169130213Y-108660109D01*
X169302181Y-108785050D01*
X169316792Y-108792494D01*
X169367589Y-108840467D01*
X169384500Y-108902980D01*
X169384500Y-112965186D01*
X169364815Y-113032225D01*
X169329391Y-113068288D01*
X169239711Y-113128210D01*
X169239707Y-113128213D01*
X169128213Y-113239707D01*
X169128210Y-113239711D01*
X169040609Y-113370814D01*
X169040602Y-113370827D01*
X168980264Y-113516498D01*
X168980261Y-113516510D01*
X168949500Y-113671153D01*
X168949500Y-113828846D01*
X168980261Y-113983489D01*
X168980264Y-113983501D01*
X169040602Y-114129172D01*
X169040609Y-114129185D01*
X169128210Y-114260288D01*
X169128213Y-114260292D01*
X169239707Y-114371786D01*
X169239711Y-114371789D01*
X169370814Y-114459390D01*
X169370827Y-114459397D01*
X169516498Y-114519735D01*
X169516503Y-114519737D01*
X169671153Y-114550499D01*
X169671156Y-114550500D01*
X169671158Y-114550500D01*
X169828844Y-114550500D01*
X169828845Y-114550499D01*
X169983497Y-114519737D01*
X170129179Y-114459394D01*
X170260289Y-114371789D01*
X170371789Y-114260289D01*
X170459394Y-114129179D01*
X170462859Y-114120815D01*
X170518312Y-113986937D01*
X170519737Y-113983497D01*
X170544028Y-113861380D01*
X170551689Y-113822868D01*
X170552258Y-113822981D01*
X170556180Y-113804908D01*
X170560704Y-113791683D01*
X170564312Y-113786285D01*
X170604860Y-113688393D01*
X170611463Y-113672452D01*
X170623684Y-113611011D01*
X170635501Y-113551606D01*
X170635501Y-113428393D01*
X170635501Y-113423283D01*
X170635500Y-113423257D01*
X170635500Y-108902980D01*
X170655185Y-108835941D01*
X170703208Y-108792494D01*
X170717818Y-108785050D01*
X170889786Y-108660109D01*
X170889788Y-108660106D01*
X170889792Y-108660104D01*
X171040104Y-108509792D01*
X171040106Y-108509788D01*
X171040109Y-108509786D01*
X171165048Y-108337820D01*
X171165047Y-108337820D01*
X171165051Y-108337816D01*
X171169514Y-108329054D01*
X171178160Y-108319900D01*
X171182897Y-108308232D01*
X171201696Y-108294979D01*
X171217488Y-108278259D01*
X171229710Y-108275231D01*
X171240004Y-108267976D01*
X171262985Y-108266991D01*
X171285308Y-108261463D01*
X171297226Y-108265524D01*
G37*
%TD.AperFunction*%
%TA.AperFunction,Conductor*%
G36*
X186805203Y-106775282D02*
G01*
X186837556Y-106819185D01*
X186852710Y-106853733D01*
X186984857Y-107154998D01*
X187003753Y-107198075D01*
X187003759Y-107198089D01*
X187200619Y-107561855D01*
X187200632Y-107561877D01*
X187211715Y-107578840D01*
X187211715Y-107578841D01*
X187224058Y-107597733D01*
X187227473Y-107613101D01*
X187240310Y-107622610D01*
X187252459Y-107641205D01*
X187252460Y-107641207D01*
X187426864Y-107908151D01*
X187426868Y-107908157D01*
X187426870Y-107908159D01*
X187680935Y-108234583D01*
X187680936Y-108234584D01*
X187961088Y-108538911D01*
X188213629Y-108771391D01*
X188265417Y-108819065D01*
X188591841Y-109073130D01*
X188730816Y-109163927D01*
X188938133Y-109299374D01*
X189301910Y-109496240D01*
X189301913Y-109496241D01*
X189301920Y-109496245D01*
X189680724Y-109662404D01*
X190071956Y-109796714D01*
X190472943Y-109898258D01*
X190880946Y-109966341D01*
X190880953Y-109966341D01*
X190880956Y-109966342D01*
X191104482Y-109984864D01*
X191293178Y-110000500D01*
X191434108Y-110000500D01*
X191934108Y-110000500D01*
X191993040Y-110000500D01*
X192006922Y-110001280D01*
X192023878Y-110003190D01*
X192097268Y-110011458D01*
X192124333Y-110017636D01*
X192203539Y-110045351D01*
X192228549Y-110057395D01*
X192299606Y-110102043D01*
X192321313Y-110119355D01*
X192380644Y-110178686D01*
X192397957Y-110200395D01*
X192442602Y-110271447D01*
X192454649Y-110296464D01*
X192482362Y-110375662D01*
X192488541Y-110402734D01*
X192498720Y-110493076D01*
X192499500Y-110506959D01*
X192499500Y-119993040D01*
X192498720Y-120006923D01*
X192488541Y-120097265D01*
X192482362Y-120124337D01*
X192454649Y-120203535D01*
X192442602Y-120228552D01*
X192397957Y-120299604D01*
X192380644Y-120321313D01*
X192321313Y-120380644D01*
X192299604Y-120397957D01*
X192228552Y-120442602D01*
X192203535Y-120454649D01*
X192124337Y-120482362D01*
X192097265Y-120488541D01*
X192006923Y-120498720D01*
X191993040Y-120499500D01*
X191293167Y-120499500D01*
X190880956Y-120533657D01*
X190880950Y-120533658D01*
X190472946Y-120601741D01*
X190472942Y-120601742D01*
X190448574Y-120607913D01*
X190071956Y-120703286D01*
X190071950Y-120703287D01*
X190071942Y-120703290D01*
X189680720Y-120837597D01*
X189301924Y-121003753D01*
X189301910Y-121003759D01*
X188938133Y-121200625D01*
X188591840Y-121426870D01*
X188265415Y-121680936D01*
X187961088Y-121961088D01*
X187840730Y-122091833D01*
X187780843Y-122127824D01*
X187711004Y-122125723D01*
X187653388Y-122086199D01*
X187626287Y-122021799D01*
X187625500Y-122007850D01*
X187625500Y-119980452D01*
X187645185Y-119913413D01*
X187661819Y-119892771D01*
X189457771Y-118096819D01*
X189519094Y-118063334D01*
X189545452Y-118060500D01*
X189841613Y-118060500D01*
X189841616Y-118060500D01*
X189912196Y-118054086D01*
X190074606Y-118003478D01*
X190220185Y-117915472D01*
X190340472Y-117795185D01*
X190428478Y-117649606D01*
X190479086Y-117487196D01*
X190485500Y-117416616D01*
X190485500Y-116903384D01*
X190479086Y-116832804D01*
X190428478Y-116670394D01*
X190340472Y-116524815D01*
X190340470Y-116524813D01*
X190340469Y-116524811D01*
X190238339Y-116422681D01*
X190204854Y-116361358D01*
X190209838Y-116291666D01*
X190238339Y-116247319D01*
X190340468Y-116145189D01*
X190340469Y-116145188D01*
X190340472Y-116145185D01*
X190428478Y-115999606D01*
X190479086Y-115837196D01*
X190485500Y-115766616D01*
X190485500Y-115253384D01*
X190479086Y-115182804D01*
X190428478Y-115020394D01*
X190340472Y-114874815D01*
X190340470Y-114874813D01*
X190340469Y-114874811D01*
X190220188Y-114754530D01*
X190220186Y-114754529D01*
X190220185Y-114754528D01*
X190195348Y-114739513D01*
X190148162Y-114687984D01*
X190135500Y-114633397D01*
X190135500Y-114353467D01*
X190155185Y-114286428D01*
X190185620Y-114256817D01*
X190184276Y-114255102D01*
X190190180Y-114250475D01*
X190190179Y-114250475D01*
X190190185Y-114250472D01*
X190310472Y-114130185D01*
X190398478Y-113984606D01*
X190449086Y-113822196D01*
X190455500Y-113751616D01*
X190455500Y-113238384D01*
X190449086Y-113167804D01*
X190398478Y-113005394D01*
X190310472Y-112859815D01*
X190310470Y-112859813D01*
X190310469Y-112859811D01*
X190207984Y-112757326D01*
X190174499Y-112696003D01*
X190179483Y-112626311D01*
X190207985Y-112581963D01*
X190310071Y-112479878D01*
X190310072Y-112479877D01*
X190398019Y-112334395D01*
X190448590Y-112172106D01*
X190455000Y-112101572D01*
X190455000Y-112095000D01*
X188505001Y-112095000D01*
X188505001Y-112101582D01*
X188511408Y-112172102D01*
X188511409Y-112172107D01*
X188561981Y-112334396D01*
X188649927Y-112479877D01*
X188752015Y-112581965D01*
X188756353Y-112589910D01*
X188763601Y-112595336D01*
X188772835Y-112620095D01*
X188785500Y-112643288D01*
X188784854Y-112652317D01*
X188788018Y-112660800D01*
X188782401Y-112686620D01*
X188780516Y-112712980D01*
X188774697Y-112722033D01*
X188773166Y-112729073D01*
X188752015Y-112757327D01*
X188676161Y-112833181D01*
X188614838Y-112866666D01*
X188588480Y-112869500D01*
X186345453Y-112869500D01*
X186278414Y-112849815D01*
X186257772Y-112833181D01*
X185097887Y-111673296D01*
X185013018Y-111588427D01*
X188505000Y-111588427D01*
X188505000Y-111595000D01*
X189230000Y-111595000D01*
X189730000Y-111595000D01*
X190454999Y-111595000D01*
X190454999Y-111588417D01*
X190448591Y-111517897D01*
X190448590Y-111517892D01*
X190398018Y-111355603D01*
X190310072Y-111210122D01*
X190189877Y-111089927D01*
X190044395Y-111001980D01*
X190044396Y-111001980D01*
X189882105Y-110951409D01*
X189882106Y-110951409D01*
X189811572Y-110945000D01*
X189730000Y-110945000D01*
X189730000Y-111595000D01*
X189230000Y-111595000D01*
X189230000Y-110945000D01*
X189229999Y-110944999D01*
X189148417Y-110945000D01*
X189077897Y-110951408D01*
X189077892Y-110951409D01*
X188915603Y-111001981D01*
X188770122Y-111089927D01*
X188649927Y-111210122D01*
X188561980Y-111355604D01*
X188511409Y-111517893D01*
X188505000Y-111588427D01*
X185013018Y-111588427D01*
X182616771Y-109192181D01*
X182583286Y-109130858D01*
X182588270Y-109061166D01*
X182630142Y-109005233D01*
X182695606Y-108980816D01*
X182704452Y-108980500D01*
X182816286Y-108980500D01*
X182816287Y-108980500D01*
X183026243Y-108947246D01*
X183228412Y-108881557D01*
X183417816Y-108785051D01*
X183504478Y-108722088D01*
X183589784Y-108660110D01*
X183589784Y-108660109D01*
X183589792Y-108660104D01*
X183703717Y-108546178D01*
X183765036Y-108512696D01*
X183834728Y-108517680D01*
X183890662Y-108559551D01*
X183907577Y-108590528D01*
X183956646Y-108722088D01*
X183956649Y-108722093D01*
X184042809Y-108837187D01*
X184042812Y-108837190D01*
X184157906Y-108923350D01*
X184157913Y-108923354D01*
X184292620Y-108973596D01*
X184292627Y-108973598D01*
X184352155Y-108979999D01*
X184352172Y-108980000D01*
X185000000Y-108980000D01*
X185000000Y-108063012D01*
X185057007Y-108095925D01*
X185184174Y-108130000D01*
X185315826Y-108130000D01*
X185442993Y-108095925D01*
X185500000Y-108063012D01*
X185500000Y-108980000D01*
X186147828Y-108980000D01*
X186147844Y-108979999D01*
X186207372Y-108973598D01*
X186207379Y-108973596D01*
X186342086Y-108923354D01*
X186342093Y-108923350D01*
X186457187Y-108837190D01*
X186457190Y-108837187D01*
X186543350Y-108722093D01*
X186543354Y-108722086D01*
X186593596Y-108587379D01*
X186593598Y-108587372D01*
X186599999Y-108527844D01*
X186600000Y-108527827D01*
X186600000Y-107880000D01*
X185683012Y-107880000D01*
X185715925Y-107822993D01*
X185750000Y-107695826D01*
X185750000Y-107564174D01*
X185715925Y-107437007D01*
X185683012Y-107380000D01*
X186600000Y-107380000D01*
X186600000Y-106868995D01*
X186619685Y-106801956D01*
X186672489Y-106756201D01*
X186741647Y-106746257D01*
X186805203Y-106775282D01*
G37*
%TD.AperFunction*%
%TA.AperFunction,Conductor*%
G36*
X119250000Y-104830000D02*
G01*
X119897828Y-104830000D01*
X119897844Y-104829999D01*
X119957372Y-104823598D01*
X119957379Y-104823596D01*
X120092086Y-104773354D01*
X120092093Y-104773350D01*
X120207187Y-104687190D01*
X120207190Y-104687187D01*
X120293350Y-104572093D01*
X120293354Y-104572086D01*
X120342422Y-104440529D01*
X120384293Y-104384595D01*
X120449757Y-104360178D01*
X120518030Y-104375030D01*
X120546285Y-104396181D01*
X120660213Y-104510109D01*
X120832179Y-104635048D01*
X120832181Y-104635049D01*
X120832184Y-104635051D01*
X121021588Y-104731557D01*
X121223757Y-104797246D01*
X121432305Y-104830277D01*
X121495437Y-104860205D01*
X121532369Y-104919516D01*
X121531371Y-104989379D01*
X121518444Y-105017845D01*
X121445645Y-105135871D01*
X121445641Y-105135880D01*
X121390494Y-105302302D01*
X121390493Y-105302309D01*
X121380000Y-105405013D01*
X121380000Y-105680000D01*
X122256000Y-105680000D01*
X122323039Y-105699685D01*
X122368794Y-105752489D01*
X122380000Y-105804000D01*
X122380000Y-105930000D01*
X122506000Y-105930000D01*
X122573039Y-105949685D01*
X122618794Y-106002489D01*
X122630000Y-106054000D01*
X122630000Y-107154999D01*
X122679972Y-107154999D01*
X122679986Y-107154998D01*
X122782697Y-107144505D01*
X122949119Y-107089358D01*
X122949124Y-107089356D01*
X123098345Y-106997315D01*
X123167819Y-106927842D01*
X123229142Y-106894357D01*
X123298834Y-106899341D01*
X123354767Y-106941213D01*
X123379184Y-107006677D01*
X123379500Y-107015523D01*
X123379500Y-107368696D01*
X123414103Y-107542658D01*
X123414105Y-107542666D01*
X123436479Y-107596682D01*
X123436484Y-107596694D01*
X123437647Y-107599500D01*
X123481987Y-107706547D01*
X123499016Y-107732032D01*
X123549678Y-107807853D01*
X123580537Y-107854038D01*
X123580538Y-107854039D01*
X124813181Y-109086681D01*
X124846666Y-109148004D01*
X124849500Y-109174362D01*
X124849500Y-116041793D01*
X124829815Y-116108832D01*
X124825818Y-116114678D01*
X124766006Y-116197002D01*
X124683788Y-116358360D01*
X124683787Y-116358363D01*
X124627829Y-116530589D01*
X124599500Y-116709448D01*
X124599500Y-116890551D01*
X124627829Y-117069410D01*
X124683787Y-117241636D01*
X124683788Y-117241639D01*
X124766006Y-117402997D01*
X124872441Y-117549494D01*
X124872445Y-117549499D01*
X125000498Y-117677552D01*
X125000505Y-117677558D01*
X125086011Y-117739681D01*
X125147006Y-117783996D01*
X125252484Y-117837740D01*
X125308360Y-117866211D01*
X125308363Y-117866212D01*
X125394476Y-117894191D01*
X125480591Y-117922171D01*
X125563429Y-117935291D01*
X125659449Y-117950500D01*
X125659454Y-117950500D01*
X125840551Y-117950500D01*
X125927259Y-117936765D01*
X126019409Y-117922171D01*
X126191639Y-117866211D01*
X126352994Y-117783996D01*
X126499501Y-117677553D01*
X126627553Y-117549501D01*
X126733996Y-117402994D01*
X126816211Y-117241639D01*
X126872171Y-117069409D01*
X126889111Y-116962452D01*
X126900500Y-116890551D01*
X126900500Y-116709448D01*
X126877083Y-116561606D01*
X126872171Y-116530591D01*
X126840718Y-116433787D01*
X126816212Y-116358363D01*
X126816211Y-116358360D01*
X126786729Y-116300499D01*
X126733996Y-116197006D01*
X126694413Y-116142524D01*
X126674182Y-116114678D01*
X126650702Y-116048872D01*
X126650500Y-116041793D01*
X126650500Y-109104500D01*
X126670185Y-109037461D01*
X126722989Y-108991706D01*
X126774500Y-108980500D01*
X126936286Y-108980500D01*
X126936287Y-108980500D01*
X127146243Y-108947246D01*
X127348412Y-108881557D01*
X127537816Y-108785051D01*
X127624478Y-108722088D01*
X127709786Y-108660109D01*
X127709788Y-108660106D01*
X127709792Y-108660104D01*
X127860104Y-108509792D01*
X127860106Y-108509788D01*
X127860109Y-108509786D01*
X127985048Y-108337820D01*
X127985047Y-108337820D01*
X127985051Y-108337816D01*
X127989514Y-108329054D01*
X128037488Y-108278259D01*
X128105308Y-108261463D01*
X128171444Y-108283999D01*
X128210486Y-108329056D01*
X128214951Y-108337820D01*
X128339890Y-108509786D01*
X128490213Y-108660109D01*
X128662179Y-108785048D01*
X128662181Y-108785049D01*
X128662184Y-108785051D01*
X128851588Y-108881557D01*
X129053757Y-108947246D01*
X129263713Y-108980500D01*
X129263714Y-108980500D01*
X129476286Y-108980500D01*
X129476287Y-108980500D01*
X129686243Y-108947246D01*
X129888412Y-108881557D01*
X130077816Y-108785051D01*
X130164478Y-108722088D01*
X130249786Y-108660109D01*
X130249788Y-108660106D01*
X130249792Y-108660104D01*
X130400104Y-108509792D01*
X130400106Y-108509788D01*
X130400109Y-108509786D01*
X130525048Y-108337820D01*
X130525047Y-108337820D01*
X130525051Y-108337816D01*
X130529514Y-108329054D01*
X130577488Y-108278259D01*
X130645308Y-108261463D01*
X130711444Y-108283999D01*
X130750486Y-108329056D01*
X130754951Y-108337820D01*
X130879890Y-108509786D01*
X131030213Y-108660109D01*
X131202179Y-108785048D01*
X131202181Y-108785049D01*
X131202184Y-108785051D01*
X131391588Y-108881557D01*
X131593757Y-108947246D01*
X131803713Y-108980500D01*
X131803714Y-108980500D01*
X132016286Y-108980500D01*
X132016287Y-108980500D01*
X132226243Y-108947246D01*
X132428412Y-108881557D01*
X132617816Y-108785051D01*
X132704478Y-108722088D01*
X132789786Y-108660109D01*
X132789788Y-108660106D01*
X132789792Y-108660104D01*
X132940104Y-108509792D01*
X132940106Y-108509788D01*
X132940109Y-108509786D01*
X133065048Y-108337820D01*
X133065047Y-108337820D01*
X133065051Y-108337816D01*
X133069514Y-108329054D01*
X133117488Y-108278259D01*
X133185308Y-108261463D01*
X133251444Y-108283999D01*
X133290486Y-108329056D01*
X133294951Y-108337820D01*
X133419890Y-108509786D01*
X133570213Y-108660109D01*
X133742181Y-108785050D01*
X133756792Y-108792494D01*
X133807589Y-108840467D01*
X133824500Y-108902980D01*
X133824500Y-113823766D01*
X133804815Y-113890805D01*
X133803602Y-113892657D01*
X133740609Y-113986931D01*
X133740602Y-113986944D01*
X133680264Y-114132614D01*
X133680261Y-114132626D01*
X133649500Y-114287269D01*
X133649500Y-114444962D01*
X133680261Y-114599605D01*
X133680264Y-114599617D01*
X133740602Y-114745288D01*
X133740609Y-114745301D01*
X133816051Y-114858207D01*
X133836929Y-114924885D01*
X133818445Y-114992265D01*
X133800630Y-115014779D01*
X130252229Y-118563181D01*
X130190906Y-118596666D01*
X130164548Y-118599500D01*
X123406594Y-118599500D01*
X123339555Y-118579815D01*
X123318913Y-118563181D01*
X119109199Y-114353467D01*
X114808217Y-110052486D01*
X118179500Y-110052486D01*
X118179500Y-110347513D01*
X118207011Y-110556469D01*
X118218007Y-110639993D01*
X118294361Y-110924951D01*
X118294364Y-110924961D01*
X118407254Y-111197500D01*
X118407258Y-111197510D01*
X118554761Y-111452993D01*
X118734352Y-111687040D01*
X118734358Y-111687047D01*
X118942952Y-111895641D01*
X118942959Y-111895647D01*
X119177006Y-112075238D01*
X119432489Y-112222741D01*
X119432490Y-112222741D01*
X119432493Y-112222743D01*
X119610054Y-112296291D01*
X119702044Y-112334395D01*
X119705048Y-112335639D01*
X119990007Y-112411993D01*
X120282494Y-112450500D01*
X120282501Y-112450500D01*
X120577499Y-112450500D01*
X120577506Y-112450500D01*
X120869993Y-112411993D01*
X121154952Y-112335639D01*
X121427507Y-112222743D01*
X121682994Y-112075238D01*
X121917042Y-111895646D01*
X122125646Y-111687042D01*
X122305238Y-111452994D01*
X122452743Y-111197507D01*
X122565639Y-110924952D01*
X122641993Y-110639993D01*
X122680500Y-110347506D01*
X122680500Y-110052494D01*
X122641993Y-109760007D01*
X122565639Y-109475048D01*
X122452743Y-109202493D01*
X122450797Y-109199123D01*
X122305238Y-108947006D01*
X122125647Y-108712959D01*
X122125641Y-108712952D01*
X121917047Y-108504358D01*
X121917040Y-108504352D01*
X121682993Y-108324761D01*
X121427510Y-108177258D01*
X121427500Y-108177254D01*
X121154961Y-108064364D01*
X121154954Y-108064362D01*
X121154952Y-108064361D01*
X120869993Y-107988007D01*
X120811157Y-107980261D01*
X120577513Y-107949500D01*
X120577506Y-107949500D01*
X120282494Y-107949500D01*
X120282486Y-107949500D01*
X120004085Y-107986153D01*
X119990007Y-107988007D01*
X119705048Y-108064361D01*
X119705038Y-108064364D01*
X119432499Y-108177254D01*
X119432489Y-108177258D01*
X119177006Y-108324761D01*
X118942959Y-108504352D01*
X118942952Y-108504358D01*
X118734358Y-108712952D01*
X118734352Y-108712959D01*
X118554761Y-108947006D01*
X118407258Y-109202489D01*
X118407254Y-109202499D01*
X118294364Y-109475038D01*
X118294361Y-109475048D01*
X118225113Y-109733489D01*
X118218008Y-109760004D01*
X118218006Y-109760015D01*
X118179500Y-110052486D01*
X114808217Y-110052486D01*
X114281584Y-109525853D01*
X114248100Y-109464531D01*
X114253084Y-109394839D01*
X114281584Y-109350493D01*
X114371789Y-109260289D01*
X114459394Y-109129179D01*
X114462854Y-109120827D01*
X114469616Y-109104500D01*
X114519737Y-108983497D01*
X114541858Y-108872282D01*
X114574240Y-108810375D01*
X114575735Y-108808853D01*
X116148729Y-107235860D01*
X116148733Y-107235858D01*
X116235858Y-107148733D01*
X116270084Y-107097509D01*
X116304312Y-107046286D01*
X116347981Y-106940858D01*
X116351463Y-106932452D01*
X116371742Y-106830500D01*
X116375500Y-106811607D01*
X116375500Y-106688393D01*
X116375500Y-106454986D01*
X121380001Y-106454986D01*
X121390494Y-106557697D01*
X121445641Y-106724119D01*
X121445643Y-106724124D01*
X121537684Y-106873345D01*
X121661654Y-106997315D01*
X121810875Y-107089356D01*
X121810880Y-107089358D01*
X121977302Y-107144505D01*
X121977309Y-107144506D01*
X122080019Y-107154999D01*
X122129999Y-107154998D01*
X122130000Y-107154998D01*
X122130000Y-106180000D01*
X121380001Y-106180000D01*
X121380001Y-106454986D01*
X116375500Y-106454986D01*
X116375500Y-105792350D01*
X116395185Y-105725311D01*
X116396398Y-105723459D01*
X116425436Y-105680000D01*
X116459394Y-105629179D01*
X116463593Y-105619043D01*
X116519735Y-105483501D01*
X116519737Y-105483497D01*
X116550500Y-105328842D01*
X116550500Y-105171158D01*
X116550500Y-105171155D01*
X116550499Y-105171153D01*
X116543481Y-105135871D01*
X116519737Y-105016503D01*
X116510494Y-104994190D01*
X116503025Y-104924722D01*
X116534299Y-104862242D01*
X116594387Y-104826589D01*
X116605649Y-104824265D01*
X116776243Y-104797246D01*
X116978412Y-104731557D01*
X117167816Y-104635051D01*
X117254478Y-104572088D01*
X117339784Y-104510110D01*
X117339784Y-104510109D01*
X117339792Y-104510104D01*
X117453717Y-104396178D01*
X117515036Y-104362696D01*
X117584728Y-104367680D01*
X117640662Y-104409551D01*
X117657577Y-104440528D01*
X117706646Y-104572088D01*
X117706649Y-104572093D01*
X117792809Y-104687187D01*
X117792812Y-104687190D01*
X117907906Y-104773350D01*
X117907913Y-104773354D01*
X118042620Y-104823596D01*
X118042627Y-104823598D01*
X118102155Y-104829999D01*
X118102172Y-104830000D01*
X118750000Y-104830000D01*
X118750000Y-103913012D01*
X118807007Y-103945925D01*
X118934174Y-103980000D01*
X119065826Y-103980000D01*
X119192993Y-103945925D01*
X119250000Y-103913012D01*
X119250000Y-104830000D01*
G37*
%TD.AperFunction*%
%TA.AperFunction,Conductor*%
G36*
X94269895Y-115145185D02*
G01*
X94315650Y-115197989D01*
X94326473Y-115259227D01*
X94325114Y-115276499D01*
X94324500Y-115284303D01*
X94324500Y-115715701D01*
X94327401Y-115752567D01*
X94327402Y-115752573D01*
X94373254Y-115910393D01*
X94373256Y-115910398D01*
X94389207Y-115937371D01*
X94406388Y-116005095D01*
X94389208Y-116063608D01*
X94373719Y-116089798D01*
X94373716Y-116089806D01*
X94327900Y-116247505D01*
X94327899Y-116247511D01*
X94327704Y-116249998D01*
X94327705Y-116250000D01*
X94690950Y-116250000D01*
X94725545Y-116254924D01*
X94872426Y-116297597D01*
X94872429Y-116297597D01*
X94872431Y-116297598D01*
X94909306Y-116300500D01*
X94909314Y-116300500D01*
X96290686Y-116300500D01*
X96290694Y-116300500D01*
X96327569Y-116297598D01*
X96327571Y-116297597D01*
X96327573Y-116297597D01*
X96474455Y-116254924D01*
X96509050Y-116250000D01*
X96881000Y-116250000D01*
X96948039Y-116269685D01*
X96993794Y-116322489D01*
X97005000Y-116374000D01*
X97005000Y-116400000D01*
X99374999Y-116400000D01*
X99374999Y-116350028D01*
X99374998Y-116350010D01*
X99366018Y-116262101D01*
X99378788Y-116193408D01*
X99426669Y-116142524D01*
X99489376Y-116125500D01*
X102550088Y-116125500D01*
X102617127Y-116145185D01*
X102662882Y-116197989D01*
X102672826Y-116267147D01*
X102660572Y-116305795D01*
X102633793Y-116358350D01*
X102633787Y-116358363D01*
X102577829Y-116530589D01*
X102561909Y-116631099D01*
X102531979Y-116694234D01*
X102527117Y-116699381D01*
X101663319Y-117563181D01*
X101601996Y-117596666D01*
X101575638Y-117599500D01*
X99285523Y-117599500D01*
X99218484Y-117579815D01*
X99172729Y-117527011D01*
X99162785Y-117457853D01*
X99191810Y-117394297D01*
X99197842Y-117387819D01*
X99217315Y-117368345D01*
X99309356Y-117219124D01*
X99309358Y-117219119D01*
X99364505Y-117052697D01*
X99364506Y-117052690D01*
X99374999Y-116949986D01*
X99375000Y-116949973D01*
X99375000Y-116900000D01*
X96919000Y-116900000D01*
X96851961Y-116880315D01*
X96806206Y-116827511D01*
X96795000Y-116776000D01*
X96795000Y-116750000D01*
X96509050Y-116750000D01*
X96474455Y-116745076D01*
X96327573Y-116702402D01*
X96327567Y-116702401D01*
X96290701Y-116699500D01*
X96290694Y-116699500D01*
X94909306Y-116699500D01*
X94909298Y-116699500D01*
X94872432Y-116702401D01*
X94872426Y-116702402D01*
X94725545Y-116745076D01*
X94690950Y-116750000D01*
X94327705Y-116750000D01*
X94324255Y-116753731D01*
X94312612Y-116809151D01*
X94263559Y-116858907D01*
X94203360Y-116874500D01*
X92810453Y-116874500D01*
X92743414Y-116854815D01*
X92722772Y-116838181D01*
X92161819Y-116277228D01*
X92128334Y-116215905D01*
X92125500Y-116189547D01*
X92125500Y-115417847D01*
X92145185Y-115350808D01*
X92197989Y-115305053D01*
X92225309Y-115296230D01*
X92241291Y-115293050D01*
X92358497Y-115269737D01*
X92504179Y-115209394D01*
X92598459Y-115146398D01*
X92665136Y-115125520D01*
X92667350Y-115125500D01*
X94202856Y-115125500D01*
X94269895Y-115145185D01*
G37*
%TD.AperFunction*%
%TA.AperFunction,Conductor*%
G36*
X156350111Y-95751275D02*
G01*
X156352782Y-95750614D01*
X156383441Y-95761061D01*
X156414511Y-95770185D01*
X156416311Y-95772263D01*
X156418917Y-95773151D01*
X156439067Y-95798525D01*
X156460266Y-95822989D01*
X156460657Y-95825710D01*
X156462369Y-95827866D01*
X156465602Y-95860100D01*
X156470210Y-95892147D01*
X156469151Y-95895486D01*
X156469342Y-95897387D01*
X156457957Y-95930795D01*
X156387454Y-96069163D01*
X156329059Y-96248881D01*
X156299500Y-96435513D01*
X156299500Y-96624486D01*
X156329059Y-96811118D01*
X156387454Y-96990836D01*
X156473240Y-97159199D01*
X156584310Y-97312073D01*
X156717927Y-97445690D01*
X156823387Y-97522311D01*
X156866051Y-97577640D01*
X156874500Y-97622628D01*
X156874500Y-97977371D01*
X156854815Y-98044410D01*
X156823386Y-98077689D01*
X156717925Y-98154311D01*
X156584312Y-98287924D01*
X156584312Y-98287925D01*
X156584310Y-98287927D01*
X156536610Y-98353579D01*
X156473240Y-98440800D01*
X156387454Y-98609163D01*
X156329059Y-98788881D01*
X156299500Y-98975513D01*
X156299500Y-99164486D01*
X156329059Y-99351118D01*
X156387454Y-99530836D01*
X156402322Y-99560015D01*
X156473240Y-99699199D01*
X156584310Y-99852073D01*
X156717927Y-99985690D01*
X156870801Y-100096760D01*
X156950347Y-100137290D01*
X157039163Y-100182545D01*
X157039165Y-100182545D01*
X157039168Y-100182547D01*
X157135497Y-100213846D01*
X157218881Y-100240940D01*
X157405514Y-100270500D01*
X157405519Y-100270500D01*
X157594486Y-100270500D01*
X157781118Y-100240940D01*
X157960832Y-100182547D01*
X158129199Y-100096760D01*
X158282073Y-99985690D01*
X158415690Y-99852073D01*
X158526760Y-99699199D01*
X158612547Y-99530832D01*
X158670940Y-99351118D01*
X158682990Y-99275038D01*
X158700500Y-99164486D01*
X158700500Y-98975513D01*
X158670940Y-98788881D01*
X158612545Y-98609163D01*
X158526759Y-98440800D01*
X158415690Y-98287927D01*
X158282073Y-98154310D01*
X158176614Y-98077689D01*
X158133949Y-98022358D01*
X158125500Y-97977371D01*
X158125500Y-97622628D01*
X158145185Y-97555589D01*
X158176611Y-97522312D01*
X158282073Y-97445690D01*
X158415690Y-97312073D01*
X158526760Y-97159199D01*
X158612547Y-96990832D01*
X158670940Y-96811118D01*
X158676770Y-96774311D01*
X158700500Y-96624486D01*
X158700500Y-96435513D01*
X158670940Y-96248881D01*
X158612545Y-96069163D01*
X158542043Y-95930795D01*
X158529147Y-95862125D01*
X158555424Y-95797385D01*
X158612530Y-95757128D01*
X158652528Y-95750500D01*
X159347472Y-95750500D01*
X159414511Y-95770185D01*
X159460266Y-95822989D01*
X159470210Y-95892147D01*
X159457957Y-95930795D01*
X159387454Y-96069163D01*
X159329059Y-96248881D01*
X159299500Y-96435513D01*
X159299500Y-96624486D01*
X159329059Y-96811118D01*
X159387454Y-96990836D01*
X159473240Y-97159199D01*
X159584310Y-97312073D01*
X159717927Y-97445690D01*
X159823387Y-97522311D01*
X159866051Y-97577640D01*
X159874500Y-97622628D01*
X159874500Y-97977371D01*
X159854815Y-98044410D01*
X159823386Y-98077689D01*
X159717925Y-98154311D01*
X159584312Y-98287924D01*
X159584312Y-98287925D01*
X159584310Y-98287927D01*
X159536610Y-98353579D01*
X159473240Y-98440800D01*
X159387454Y-98609163D01*
X159329059Y-98788881D01*
X159299500Y-98975513D01*
X159299500Y-99164486D01*
X159329059Y-99351118D01*
X159387454Y-99530836D01*
X159402322Y-99560015D01*
X159473240Y-99699199D01*
X159584310Y-99852073D01*
X159717927Y-99985690D01*
X159870801Y-100096760D01*
X159950347Y-100137290D01*
X160039163Y-100182545D01*
X160039165Y-100182545D01*
X160039168Y-100182547D01*
X160135497Y-100213846D01*
X160218881Y-100240940D01*
X160405514Y-100270500D01*
X160405519Y-100270500D01*
X160594486Y-100270500D01*
X160781118Y-100240940D01*
X160960832Y-100182547D01*
X161129199Y-100096760D01*
X161282073Y-99985690D01*
X161415277Y-99852486D01*
X180249500Y-99852486D01*
X180249500Y-100147513D01*
X180281571Y-100391113D01*
X180288007Y-100439993D01*
X180288008Y-100439995D01*
X180364361Y-100724951D01*
X180364364Y-100724961D01*
X180477254Y-100997500D01*
X180477258Y-100997510D01*
X180624761Y-101252993D01*
X180804352Y-101487040D01*
X180804358Y-101487047D01*
X181012952Y-101695641D01*
X181012959Y-101695647D01*
X181247006Y-101875238D01*
X181502489Y-102022741D01*
X181502490Y-102022741D01*
X181502493Y-102022743D01*
X181775048Y-102135639D01*
X182060007Y-102211993D01*
X182352494Y-102250500D01*
X182352501Y-102250500D01*
X182647499Y-102250500D01*
X182647506Y-102250500D01*
X182939993Y-102211993D01*
X183224952Y-102135639D01*
X183497507Y-102022743D01*
X183752994Y-101875238D01*
X183987042Y-101695646D01*
X184195646Y-101487042D01*
X184375238Y-101252994D01*
X184522743Y-100997507D01*
X184635639Y-100724952D01*
X184711993Y-100439993D01*
X184750500Y-100147506D01*
X184750500Y-99852494D01*
X184711993Y-99560007D01*
X184635639Y-99275048D01*
X184522743Y-99002493D01*
X184399414Y-98788881D01*
X184375238Y-98747006D01*
X184195647Y-98512959D01*
X184195641Y-98512952D01*
X183987047Y-98304358D01*
X183987040Y-98304352D01*
X183752993Y-98124761D01*
X183497510Y-97977258D01*
X183497500Y-97977254D01*
X183224961Y-97864364D01*
X183224954Y-97864362D01*
X183224952Y-97864361D01*
X182939993Y-97788007D01*
X182891113Y-97781571D01*
X182647513Y-97749500D01*
X182647506Y-97749500D01*
X182352494Y-97749500D01*
X182352486Y-97749500D01*
X182074085Y-97786153D01*
X182060007Y-97788007D01*
X181775048Y-97864361D01*
X181775038Y-97864364D01*
X181502499Y-97977254D01*
X181502489Y-97977258D01*
X181247006Y-98124761D01*
X181012959Y-98304352D01*
X181012952Y-98304358D01*
X180804358Y-98512952D01*
X180804352Y-98512959D01*
X180624761Y-98747006D01*
X180477258Y-99002489D01*
X180477254Y-99002499D01*
X180364364Y-99275038D01*
X180364361Y-99275048D01*
X180295825Y-99530832D01*
X180288008Y-99560004D01*
X180288006Y-99560015D01*
X180249500Y-99852486D01*
X161415277Y-99852486D01*
X161415690Y-99852073D01*
X161526760Y-99699199D01*
X161612547Y-99530832D01*
X161670940Y-99351118D01*
X161682990Y-99275038D01*
X161700500Y-99164486D01*
X161700500Y-98975513D01*
X161670940Y-98788881D01*
X161612545Y-98609163D01*
X161526759Y-98440800D01*
X161415690Y-98287927D01*
X161282073Y-98154310D01*
X161176614Y-98077689D01*
X161133949Y-98022358D01*
X161125500Y-97977371D01*
X161125500Y-97622628D01*
X161145185Y-97555589D01*
X161176611Y-97522312D01*
X161282073Y-97445690D01*
X161415690Y-97312073D01*
X161526760Y-97159199D01*
X161612547Y-96990832D01*
X161670940Y-96811118D01*
X161676770Y-96774311D01*
X161700500Y-96624486D01*
X161700500Y-96435513D01*
X161670940Y-96248881D01*
X161612545Y-96069163D01*
X161542043Y-95930795D01*
X161529147Y-95862125D01*
X161555424Y-95797385D01*
X161612530Y-95757128D01*
X161652528Y-95750500D01*
X185934108Y-95750500D01*
X185993040Y-95750500D01*
X186006922Y-95751280D01*
X186023878Y-95753190D01*
X186097268Y-95761458D01*
X186124333Y-95767636D01*
X186203539Y-95795351D01*
X186228549Y-95807395D01*
X186299606Y-95852043D01*
X186321313Y-95869355D01*
X186380644Y-95928686D01*
X186397957Y-95950395D01*
X186442602Y-96021447D01*
X186454649Y-96046464D01*
X186482362Y-96125662D01*
X186488541Y-96152734D01*
X186498720Y-96243076D01*
X186499500Y-96256959D01*
X186499500Y-105206832D01*
X186533657Y-105619043D01*
X186533658Y-105619049D01*
X186592077Y-105969142D01*
X186601742Y-106027057D01*
X186665669Y-106279500D01*
X186674807Y-106315583D01*
X186672182Y-106385403D01*
X186632226Y-106442721D01*
X186567624Y-106469337D01*
X186498888Y-106456802D01*
X186464518Y-106428023D01*
X186463460Y-106429082D01*
X186457187Y-106422809D01*
X186342093Y-106336649D01*
X186342086Y-106336645D01*
X186207379Y-106286403D01*
X186207372Y-106286401D01*
X186147844Y-106280000D01*
X185500000Y-106280000D01*
X185500000Y-107196988D01*
X185442993Y-107164075D01*
X185315826Y-107130000D01*
X185184174Y-107130000D01*
X185057007Y-107164075D01*
X185000000Y-107196988D01*
X185000000Y-106280000D01*
X184352155Y-106280000D01*
X184292627Y-106286401D01*
X184292620Y-106286403D01*
X184157913Y-106336645D01*
X184157906Y-106336649D01*
X184042812Y-106422809D01*
X184042809Y-106422812D01*
X183956649Y-106537906D01*
X183956646Y-106537912D01*
X183907577Y-106669471D01*
X183865705Y-106725404D01*
X183800241Y-106749821D01*
X183731968Y-106734969D01*
X183703714Y-106713818D01*
X183589786Y-106599890D01*
X183417820Y-106474951D01*
X183228414Y-106378444D01*
X183228413Y-106378443D01*
X183228412Y-106378443D01*
X183026243Y-106312754D01*
X183026241Y-106312753D01*
X183026240Y-106312753D01*
X182864957Y-106287208D01*
X182816287Y-106279500D01*
X182603713Y-106279500D01*
X182555042Y-106287208D01*
X182393760Y-106312753D01*
X182191585Y-106378444D01*
X182002179Y-106474951D01*
X181830213Y-106599890D01*
X181679890Y-106750213D01*
X181554949Y-106922182D01*
X181550484Y-106930946D01*
X181502509Y-106981742D01*
X181434688Y-106998536D01*
X181368553Y-106975998D01*
X181329516Y-106930946D01*
X181325050Y-106922182D01*
X181200109Y-106750213D01*
X181049786Y-106599890D01*
X180877820Y-106474951D01*
X180688414Y-106378444D01*
X180688413Y-106378443D01*
X180688412Y-106378443D01*
X180486243Y-106312754D01*
X180486241Y-106312753D01*
X180486240Y-106312753D01*
X180324957Y-106287208D01*
X180276287Y-106279500D01*
X180063713Y-106279500D01*
X180015042Y-106287208D01*
X179853760Y-106312753D01*
X179651585Y-106378444D01*
X179462180Y-106474951D01*
X179292471Y-106598251D01*
X179226665Y-106621731D01*
X179158611Y-106605905D01*
X179131905Y-106585614D01*
X178612523Y-106066232D01*
X178602560Y-106056269D01*
X178602559Y-106056267D01*
X178515434Y-105969142D01*
X178464210Y-105934915D01*
X178412987Y-105900688D01*
X178412984Y-105900686D01*
X178412981Y-105900685D01*
X178339345Y-105870185D01*
X178339344Y-105870184D01*
X178332493Y-105867347D01*
X178299153Y-105853537D01*
X178237677Y-105841309D01*
X178233005Y-105840379D01*
X178232999Y-105840378D01*
X178192023Y-105832228D01*
X178178308Y-105829500D01*
X178178307Y-105829500D01*
X168830452Y-105829500D01*
X168763413Y-105809815D01*
X168742771Y-105793181D01*
X167991271Y-105041681D01*
X167957786Y-104980358D01*
X167962770Y-104910666D01*
X168004642Y-104854733D01*
X168070106Y-104830316D01*
X168078952Y-104830000D01*
X168737828Y-104830000D01*
X168737844Y-104829999D01*
X168797372Y-104823598D01*
X168797379Y-104823596D01*
X168932086Y-104773354D01*
X168932093Y-104773350D01*
X169047187Y-104687190D01*
X169047190Y-104687187D01*
X169133350Y-104572093D01*
X169133354Y-104572086D01*
X169182422Y-104440529D01*
X169224293Y-104384595D01*
X169289757Y-104360178D01*
X169358030Y-104375030D01*
X169386285Y-104396181D01*
X169500213Y-104510109D01*
X169672179Y-104635048D01*
X169672181Y-104635049D01*
X169672184Y-104635051D01*
X169861588Y-104731557D01*
X170063757Y-104797246D01*
X170273713Y-104830500D01*
X170273714Y-104830500D01*
X170486286Y-104830500D01*
X170486287Y-104830500D01*
X170696243Y-104797246D01*
X170898412Y-104731557D01*
X171087816Y-104635051D01*
X171174478Y-104572088D01*
X171259786Y-104510109D01*
X171259788Y-104510106D01*
X171259792Y-104510104D01*
X171410104Y-104359792D01*
X171410106Y-104359788D01*
X171410109Y-104359786D01*
X171535048Y-104187820D01*
X171535050Y-104187817D01*
X171535051Y-104187816D01*
X171539514Y-104179054D01*
X171587488Y-104128259D01*
X171655308Y-104111463D01*
X171721444Y-104133999D01*
X171760486Y-104179056D01*
X171764951Y-104187820D01*
X171889890Y-104359786D01*
X172040213Y-104510109D01*
X172212179Y-104635048D01*
X172212181Y-104635049D01*
X172212184Y-104635051D01*
X172401588Y-104731557D01*
X172603757Y-104797246D01*
X172813713Y-104830500D01*
X172813714Y-104830500D01*
X173026286Y-104830500D01*
X173026287Y-104830500D01*
X173236243Y-104797246D01*
X173438412Y-104731557D01*
X173627816Y-104635051D01*
X173714478Y-104572088D01*
X173799786Y-104510109D01*
X173799788Y-104510106D01*
X173799792Y-104510104D01*
X173950104Y-104359792D01*
X173950106Y-104359788D01*
X173950109Y-104359786D01*
X174075048Y-104187820D01*
X174075050Y-104187817D01*
X174075051Y-104187816D01*
X174079514Y-104179054D01*
X174127488Y-104128259D01*
X174195308Y-104111463D01*
X174261444Y-104133999D01*
X174300486Y-104179056D01*
X174304951Y-104187820D01*
X174429890Y-104359786D01*
X174580213Y-104510109D01*
X174752179Y-104635048D01*
X174752181Y-104635049D01*
X174752184Y-104635051D01*
X174941588Y-104731557D01*
X175143757Y-104797246D01*
X175353713Y-104830500D01*
X175353714Y-104830500D01*
X175566286Y-104830500D01*
X175566287Y-104830500D01*
X175776243Y-104797246D01*
X175978412Y-104731557D01*
X176167816Y-104635051D01*
X176254478Y-104572088D01*
X176339786Y-104510109D01*
X176339788Y-104510106D01*
X176339792Y-104510104D01*
X176490104Y-104359792D01*
X176490106Y-104359788D01*
X176490109Y-104359786D01*
X176615050Y-104187817D01*
X176622497Y-104173203D01*
X176629330Y-104159792D01*
X176650521Y-104118204D01*
X176698495Y-104067409D01*
X176761005Y-104050500D01*
X178842099Y-104050500D01*
X178909138Y-104070185D01*
X178954893Y-104122989D01*
X178963714Y-104150301D01*
X178977480Y-104219505D01*
X178980263Y-104233497D01*
X178980264Y-104233501D01*
X179040602Y-104379172D01*
X179040609Y-104379185D01*
X179128210Y-104510288D01*
X179128213Y-104510292D01*
X179239707Y-104621786D01*
X179239711Y-104621789D01*
X179370814Y-104709390D01*
X179370827Y-104709397D01*
X179487211Y-104757604D01*
X179516503Y-104769737D01*
X179629321Y-104792178D01*
X179671153Y-104800499D01*
X179671156Y-104800500D01*
X179671158Y-104800500D01*
X179828844Y-104800500D01*
X179828845Y-104800499D01*
X179983497Y-104769737D01*
X180096166Y-104723067D01*
X180129172Y-104709397D01*
X180129172Y-104709396D01*
X180129179Y-104709394D01*
X180260289Y-104621789D01*
X180371789Y-104510289D01*
X180459394Y-104379179D01*
X180519737Y-104233497D01*
X180550500Y-104078842D01*
X180550500Y-103921158D01*
X180550500Y-103921155D01*
X180550499Y-103921153D01*
X180542333Y-103880099D01*
X180519737Y-103766503D01*
X180488208Y-103690384D01*
X180459397Y-103620827D01*
X180459390Y-103620814D01*
X180371789Y-103489711D01*
X180371786Y-103489707D01*
X180260292Y-103378213D01*
X180260288Y-103378210D01*
X180129185Y-103290609D01*
X180129172Y-103290602D01*
X179983501Y-103230264D01*
X179983489Y-103230261D01*
X179872285Y-103208141D01*
X179855528Y-103199376D01*
X179837049Y-103195356D01*
X179812010Y-103176611D01*
X179810374Y-103175756D01*
X179808795Y-103174205D01*
X179665198Y-103030608D01*
X179665178Y-103030586D01*
X179573735Y-102939143D01*
X179552071Y-102924668D01*
X179515901Y-102900500D01*
X179471286Y-102870688D01*
X179390792Y-102837347D01*
X179357452Y-102823537D01*
X179357448Y-102823536D01*
X179357444Y-102823535D01*
X179290781Y-102810275D01*
X179290780Y-102810275D01*
X179236611Y-102799500D01*
X179236607Y-102799500D01*
X179236606Y-102799500D01*
X176698078Y-102799500D01*
X176631039Y-102779815D01*
X176597762Y-102748388D01*
X176490104Y-102600208D01*
X176339792Y-102449896D01*
X176339786Y-102449890D01*
X176167820Y-102324951D01*
X175978414Y-102228444D01*
X175978413Y-102228443D01*
X175978412Y-102228443D01*
X175776243Y-102162754D01*
X175776241Y-102162753D01*
X175776240Y-102162753D01*
X175605047Y-102135639D01*
X175566287Y-102129500D01*
X175353713Y-102129500D01*
X175314953Y-102135639D01*
X175143760Y-102162753D01*
X175092800Y-102179311D01*
X174948621Y-102226158D01*
X174941585Y-102228444D01*
X174752179Y-102324951D01*
X174580213Y-102449890D01*
X174429890Y-102600213D01*
X174304949Y-102772182D01*
X174300484Y-102780946D01*
X174252509Y-102831742D01*
X174184688Y-102848536D01*
X174118553Y-102825998D01*
X174079516Y-102780946D01*
X174075050Y-102772182D01*
X173950109Y-102600213D01*
X173799786Y-102449890D01*
X173627820Y-102324951D01*
X173438414Y-102228444D01*
X173438413Y-102228443D01*
X173438412Y-102228443D01*
X173324104Y-102191302D01*
X173236241Y-102162753D01*
X173210664Y-102158702D01*
X173147530Y-102128771D01*
X173142384Y-102123910D01*
X172252034Y-101233560D01*
X172244744Y-101226270D01*
X172244742Y-101226267D01*
X172157617Y-101139142D01*
X172106393Y-101104915D01*
X172055170Y-101070688D01*
X172055167Y-101070686D01*
X172055164Y-101070685D01*
X171981487Y-101040168D01*
X171981485Y-101040167D01*
X171974676Y-101037347D01*
X171941336Y-101023537D01*
X171880913Y-101011518D01*
X171876190Y-101010578D01*
X171876188Y-101010578D01*
X171820494Y-100999500D01*
X171820491Y-100999500D01*
X171820490Y-100999500D01*
X167351606Y-100999500D01*
X167228393Y-100999500D01*
X167228388Y-100999500D01*
X167107555Y-101023535D01*
X167107547Y-101023537D01*
X166993716Y-101070687D01*
X166891265Y-101139142D01*
X166891262Y-101139145D01*
X166371807Y-101658602D01*
X166266269Y-101764140D01*
X166266267Y-101764142D01*
X166235702Y-101794707D01*
X166179142Y-101851266D01*
X166153040Y-101890331D01*
X166153039Y-101890330D01*
X166110686Y-101953716D01*
X166110685Y-101953718D01*
X166077347Y-102034206D01*
X166077347Y-102034207D01*
X166063537Y-102067548D01*
X166063535Y-102067554D01*
X166054921Y-102110856D01*
X166054922Y-102110857D01*
X166041308Y-102179305D01*
X166039500Y-102188394D01*
X166039500Y-104661611D01*
X166063535Y-104782444D01*
X166063540Y-104782461D01*
X166110685Y-104896280D01*
X166110686Y-104896282D01*
X166110688Y-104896286D01*
X166134544Y-104931988D01*
X166179142Y-104998733D01*
X166266267Y-105085858D01*
X166266270Y-105085860D01*
X166274006Y-105093596D01*
X167274673Y-106094263D01*
X167308158Y-106155586D01*
X167303174Y-106225278D01*
X167261302Y-106281211D01*
X167206391Y-106304417D01*
X167153759Y-106312753D01*
X166951585Y-106378444D01*
X166762179Y-106474951D01*
X166590213Y-106599890D01*
X166439890Y-106750213D01*
X166314949Y-106922182D01*
X166310484Y-106930946D01*
X166262509Y-106981742D01*
X166194688Y-106998536D01*
X166128553Y-106975998D01*
X166089516Y-106930946D01*
X166085050Y-106922182D01*
X165960109Y-106750213D01*
X165809786Y-106599890D01*
X165637820Y-106474951D01*
X165448414Y-106378444D01*
X165448413Y-106378443D01*
X165448412Y-106378443D01*
X165246243Y-106312754D01*
X165246241Y-106312753D01*
X165246240Y-106312753D01*
X165084957Y-106287208D01*
X165036287Y-106279500D01*
X164823713Y-106279500D01*
X164775042Y-106287208D01*
X164613760Y-106312753D01*
X164411585Y-106378444D01*
X164222179Y-106474951D01*
X164050213Y-106599890D01*
X163899890Y-106750213D01*
X163774949Y-106922182D01*
X163770484Y-106930946D01*
X163722509Y-106981742D01*
X163654688Y-106998536D01*
X163588553Y-106975998D01*
X163549516Y-106930946D01*
X163545050Y-106922182D01*
X163420109Y-106750213D01*
X163269786Y-106599890D01*
X163097820Y-106474951D01*
X162908414Y-106378444D01*
X162908413Y-106378443D01*
X162908412Y-106378443D01*
X162706243Y-106312754D01*
X162706241Y-106312753D01*
X162706240Y-106312753D01*
X162544957Y-106287208D01*
X162496287Y-106279500D01*
X162283713Y-106279500D01*
X162235042Y-106287208D01*
X162073760Y-106312753D01*
X161871585Y-106378444D01*
X161682179Y-106474951D01*
X161510213Y-106599890D01*
X161359890Y-106750213D01*
X161234949Y-106922182D01*
X161230484Y-106930946D01*
X161182509Y-106981742D01*
X161114688Y-106998536D01*
X161048553Y-106975998D01*
X161009516Y-106930946D01*
X161005050Y-106922182D01*
X160880109Y-106750213D01*
X160729786Y-106599890D01*
X160557820Y-106474951D01*
X160368414Y-106378444D01*
X160368413Y-106378443D01*
X160368412Y-106378443D01*
X160166243Y-106312754D01*
X160166241Y-106312753D01*
X160166240Y-106312753D01*
X160004957Y-106287208D01*
X159956287Y-106279500D01*
X159743713Y-106279500D01*
X159695042Y-106287208D01*
X159533760Y-106312753D01*
X159331585Y-106378444D01*
X159142179Y-106474951D01*
X158970213Y-106599890D01*
X158819890Y-106750213D01*
X158694949Y-106922182D01*
X158690484Y-106930946D01*
X158642509Y-106981742D01*
X158574688Y-106998536D01*
X158508553Y-106975998D01*
X158469516Y-106930946D01*
X158465050Y-106922182D01*
X158340109Y-106750213D01*
X158189786Y-106599890D01*
X158017820Y-106474951D01*
X157828414Y-106378444D01*
X157828413Y-106378443D01*
X157828412Y-106378443D01*
X157626243Y-106312754D01*
X157626241Y-106312753D01*
X157626240Y-106312753D01*
X157464957Y-106287208D01*
X157416287Y-106279500D01*
X157203713Y-106279500D01*
X157155042Y-106287208D01*
X156993760Y-106312753D01*
X156791585Y-106378444D01*
X156602179Y-106474951D01*
X156430213Y-106599890D01*
X156279890Y-106750213D01*
X156154949Y-106922182D01*
X156150484Y-106930946D01*
X156102509Y-106981742D01*
X156034688Y-106998536D01*
X155968553Y-106975998D01*
X155929516Y-106930946D01*
X155925050Y-106922182D01*
X155800109Y-106750213D01*
X155649786Y-106599890D01*
X155477820Y-106474951D01*
X155288414Y-106378444D01*
X155288413Y-106378443D01*
X155288412Y-106378443D01*
X155086243Y-106312754D01*
X155086241Y-106312753D01*
X155086240Y-106312753D01*
X154924957Y-106287208D01*
X154876287Y-106279500D01*
X154663713Y-106279500D01*
X154615042Y-106287208D01*
X154453760Y-106312753D01*
X154251585Y-106378444D01*
X154062179Y-106474951D01*
X153890213Y-106599890D01*
X153739890Y-106750213D01*
X153614949Y-106922182D01*
X153610484Y-106930946D01*
X153562509Y-106981742D01*
X153494688Y-106998536D01*
X153428553Y-106975998D01*
X153389516Y-106930946D01*
X153385050Y-106922182D01*
X153260109Y-106750213D01*
X153109786Y-106599890D01*
X152937820Y-106474951D01*
X152748414Y-106378444D01*
X152748413Y-106378443D01*
X152748412Y-106378443D01*
X152546243Y-106312754D01*
X152546241Y-106312753D01*
X152546240Y-106312753D01*
X152384957Y-106287208D01*
X152336287Y-106279500D01*
X152123713Y-106279500D01*
X152075042Y-106287208D01*
X151913760Y-106312753D01*
X151711585Y-106378444D01*
X151522179Y-106474951D01*
X151350213Y-106599890D01*
X151199890Y-106750213D01*
X151074949Y-106922182D01*
X151070484Y-106930946D01*
X151022509Y-106981742D01*
X150954688Y-106998536D01*
X150888553Y-106975998D01*
X150849516Y-106930946D01*
X150845050Y-106922182D01*
X150720109Y-106750213D01*
X150569786Y-106599890D01*
X150397820Y-106474951D01*
X150208414Y-106378444D01*
X150208413Y-106378443D01*
X150208412Y-106378443D01*
X150006243Y-106312754D01*
X150006241Y-106312753D01*
X150006240Y-106312753D01*
X149844957Y-106287208D01*
X149796287Y-106279500D01*
X149583713Y-106279500D01*
X149535042Y-106287208D01*
X149373760Y-106312753D01*
X149171585Y-106378444D01*
X148982179Y-106474951D01*
X148810213Y-106599890D01*
X148659890Y-106750213D01*
X148534949Y-106922182D01*
X148530484Y-106930946D01*
X148482509Y-106981742D01*
X148414688Y-106998536D01*
X148348553Y-106975998D01*
X148309516Y-106930946D01*
X148305050Y-106922182D01*
X148180109Y-106750213D01*
X148029786Y-106599890D01*
X147857820Y-106474951D01*
X147668414Y-106378444D01*
X147668413Y-106378443D01*
X147668412Y-106378443D01*
X147466243Y-106312754D01*
X147466241Y-106312753D01*
X147466240Y-106312753D01*
X147304957Y-106287208D01*
X147256287Y-106279500D01*
X147043713Y-106279500D01*
X146995042Y-106287208D01*
X146833760Y-106312753D01*
X146631585Y-106378444D01*
X146442179Y-106474951D01*
X146270213Y-106599890D01*
X146119890Y-106750213D01*
X145994949Y-106922182D01*
X145990484Y-106930946D01*
X145942509Y-106981742D01*
X145874688Y-106998536D01*
X145808553Y-106975998D01*
X145769516Y-106930946D01*
X145765050Y-106922182D01*
X145640109Y-106750213D01*
X145489786Y-106599890D01*
X145313875Y-106472085D01*
X145314556Y-106471146D01*
X145271348Y-106423378D01*
X145259933Y-106354448D01*
X145287596Y-106290288D01*
X145339950Y-106253194D01*
X145480932Y-106200981D01*
X145822464Y-106033451D01*
X146145295Y-105832229D01*
X146446112Y-105599380D01*
X146721829Y-105337291D01*
X146969616Y-105048654D01*
X147186931Y-104736429D01*
X147371543Y-104403821D01*
X147521559Y-104054242D01*
X147563315Y-103921158D01*
X147635436Y-103691290D01*
X147635436Y-103691289D01*
X147635439Y-103691280D01*
X147712015Y-103318660D01*
X147747794Y-102966819D01*
X147750500Y-102940205D01*
X147750500Y-99852486D01*
X149749500Y-99852486D01*
X149749500Y-100147513D01*
X149781571Y-100391113D01*
X149788007Y-100439993D01*
X149788008Y-100439995D01*
X149864361Y-100724951D01*
X149864364Y-100724961D01*
X149977254Y-100997500D01*
X149977258Y-100997510D01*
X150124761Y-101252993D01*
X150304352Y-101487040D01*
X150304358Y-101487047D01*
X150512952Y-101695641D01*
X150512959Y-101695647D01*
X150747006Y-101875238D01*
X151002489Y-102022741D01*
X151002490Y-102022741D01*
X151002493Y-102022743D01*
X151275048Y-102135639D01*
X151560007Y-102211993D01*
X151852494Y-102250500D01*
X151852501Y-102250500D01*
X152147499Y-102250500D01*
X152147506Y-102250500D01*
X152439993Y-102211993D01*
X152724952Y-102135639D01*
X152997507Y-102022743D01*
X153252994Y-101875238D01*
X153487042Y-101695646D01*
X153695646Y-101487042D01*
X153875238Y-101252994D01*
X154022743Y-100997507D01*
X154135639Y-100724952D01*
X154211993Y-100439993D01*
X154250500Y-100147506D01*
X154250500Y-99852494D01*
X154211993Y-99560007D01*
X154135639Y-99275048D01*
X154022743Y-99002493D01*
X153899414Y-98788881D01*
X153875238Y-98747006D01*
X153695647Y-98512959D01*
X153695641Y-98512952D01*
X153487047Y-98304358D01*
X153487040Y-98304352D01*
X153252993Y-98124761D01*
X152997510Y-97977258D01*
X152997500Y-97977254D01*
X152724961Y-97864364D01*
X152724954Y-97864362D01*
X152724952Y-97864361D01*
X152439993Y-97788007D01*
X152391113Y-97781571D01*
X152147513Y-97749500D01*
X152147506Y-97749500D01*
X151852494Y-97749500D01*
X151852486Y-97749500D01*
X151574085Y-97786153D01*
X151560007Y-97788007D01*
X151275048Y-97864361D01*
X151275038Y-97864364D01*
X151002499Y-97977254D01*
X151002489Y-97977258D01*
X150747006Y-98124761D01*
X150512959Y-98304352D01*
X150512952Y-98304358D01*
X150304358Y-98512952D01*
X150304352Y-98512959D01*
X150124761Y-98747006D01*
X149977258Y-99002489D01*
X149977254Y-99002499D01*
X149864364Y-99275038D01*
X149864361Y-99275048D01*
X149795825Y-99530832D01*
X149788008Y-99560004D01*
X149788006Y-99560015D01*
X149749500Y-99852486D01*
X147750500Y-99852486D01*
X147750500Y-96256959D01*
X147751280Y-96243077D01*
X147755436Y-96206191D01*
X147761459Y-96152727D01*
X147767635Y-96125668D01*
X147795353Y-96046457D01*
X147807393Y-96021453D01*
X147852046Y-95950389D01*
X147869351Y-95928690D01*
X147928690Y-95869351D01*
X147950389Y-95852046D01*
X148021453Y-95807393D01*
X148046457Y-95795353D01*
X148125668Y-95767635D01*
X148152729Y-95761459D01*
X148228753Y-95752893D01*
X148243078Y-95751280D01*
X148256960Y-95750500D01*
X148315892Y-95750500D01*
X156347472Y-95750500D01*
X156350111Y-95751275D01*
G37*
%TD.AperFunction*%
%TD*%
M02*
