%TF.GenerationSoftware,KiCad,Pcbnew,10.0.3*%
%TF.CreationDate,2026-07-03T15:49:38+02:00*%
%TF.ProjectId,Carrier_PCB,43617272-6965-4725-9f50-43422e6b6963,rev?*%
%TF.SameCoordinates,Original*%
%TF.FileFunction,Soldermask,Bot*%
%TF.FilePolarity,Negative*%
%FSLAX46Y46*%
G04 Gerber Fmt 4.6, Leading zero omitted, Abs format (unit mm)*
G04 Created by KiCad (PCBNEW 10.0.3) date 2026-07-03 15:49:38*
%MOMM*%
%LPD*%
G01*
G04 APERTURE LIST*
%ADD10C,1.400000*%
%ADD11C,1.700000*%
%ADD12R,1.700000X1.700000*%
%ADD13C,4.000000*%
G04 APERTURE END LIST*
D10*
%TO.C,M1*%
X112650000Y-133940000D03*
X112650000Y-131400000D03*
%TD*%
%TO.C,TLM*%
X115650000Y-133940000D03*
X115650000Y-131400000D03*
%TD*%
%TO.C,M3*%
X107850000Y-133940000D03*
X107850000Y-131400000D03*
%TD*%
%TO.C,M4*%
X105450000Y-133940000D03*
X105450000Y-131400000D03*
%TD*%
%TO.C,M2*%
X110250000Y-133940000D03*
X110250000Y-131400000D03*
%TD*%
D11*
%TO.C,J1*%
X185250000Y-122870000D03*
D12*
X182710000Y-122870000D03*
D11*
X180170000Y-122870000D03*
X177630000Y-122870000D03*
X175090000Y-122870000D03*
X172550000Y-122870000D03*
X170010000Y-122870000D03*
X167470000Y-122870000D03*
X164930000Y-122870000D03*
X162390000Y-122870000D03*
X159850000Y-122870000D03*
X157310000Y-122870000D03*
X154770000Y-122870000D03*
X152230000Y-122870000D03*
X149690000Y-122870000D03*
X147150000Y-122870000D03*
X144610000Y-122870000D03*
X142070000Y-122870000D03*
X139530000Y-122870000D03*
X136990000Y-122870000D03*
X134450000Y-122870000D03*
X131910000Y-122870000D03*
X129370000Y-122870000D03*
X126830000Y-122870000D03*
%TD*%
D12*
%TO.C,GND*%
X163900000Y-127015000D03*
%TD*%
D10*
%TO.C,3V3*%
X157550000Y-133940000D03*
X157550000Y-131400000D03*
%TD*%
D11*
%TO.C,MPU*%
X99000000Y-121700000D03*
D12*
X101540000Y-121700000D03*
D11*
X104080000Y-121700000D03*
X106620000Y-121700000D03*
X109160000Y-121700000D03*
X111700000Y-121700000D03*
X114240000Y-121700000D03*
X116780000Y-121700000D03*
X119320000Y-121700000D03*
X121860000Y-121700000D03*
%TD*%
%TO.C,ESC1*%
X106300000Y-103480000D03*
X108840000Y-103480000D03*
X111380000Y-103480000D03*
X113920000Y-103480000D03*
X116460000Y-103480000D03*
D12*
X119000000Y-103480000D03*
D11*
X121540000Y-103480000D03*
X124080000Y-103480000D03*
%TD*%
D12*
%TO.C,RXSR*%
X167840000Y-103480000D03*
D11*
X170380000Y-103480000D03*
X172920000Y-103480000D03*
X175460000Y-103480000D03*
%TD*%
D10*
%TO.C,INT*%
X124700000Y-133940000D03*
X124700000Y-131400000D03*
%TD*%
D13*
%TO.C,MPU1*%
X100430000Y-110200000D03*
%TD*%
D12*
%TO.C,J2*%
X185250000Y-107630000D03*
D11*
X182710000Y-107630000D03*
X180170000Y-107630000D03*
X177630000Y-107630000D03*
X175090000Y-107630000D03*
X172550000Y-107630000D03*
X170010000Y-107630000D03*
X167470000Y-107630000D03*
X164930000Y-107630000D03*
X162390000Y-107630000D03*
X159850000Y-107630000D03*
X157310000Y-107630000D03*
X154770000Y-107630000D03*
X152230000Y-107630000D03*
X149690000Y-107630000D03*
X147150000Y-107630000D03*
X144610000Y-107630000D03*
X142070000Y-107630000D03*
X139530000Y-107630000D03*
X136990000Y-107630000D03*
X134450000Y-107630000D03*
X131910000Y-107630000D03*
X129370000Y-107630000D03*
X126830000Y-107630000D03*
%TD*%
D13*
%TO.C,H2*%
X130500000Y-130500000D03*
%TD*%
%TO.C,H5*%
X182500000Y-130500000D03*
%TD*%
%TO.C,H8*%
X152000000Y-100000000D03*
%TD*%
%TO.C,H7*%
X130500000Y-100000000D03*
%TD*%
%TO.C,H4*%
X152000000Y-130500000D03*
%TD*%
D10*
%TO.C,SPORT*%
X157500000Y-99070000D03*
X157500000Y-96530000D03*
%TD*%
D13*
%TO.C,MPU2*%
X120430000Y-110200000D03*
%TD*%
%TO.C,H6*%
X100000000Y-100000000D03*
%TD*%
D10*
%TO.C,SCLK*%
X136000000Y-99070000D03*
X136000000Y-96530000D03*
%TD*%
%TO.C,SD0*%
X122300000Y-133940000D03*
X122300000Y-131400000D03*
%TD*%
%TO.C,5V*%
X160300000Y-133940000D03*
X160300000Y-131400000D03*
%TD*%
D13*
%TO.C,H3*%
X182500000Y-100000000D03*
%TD*%
D10*
%TO.C,SDI*%
X119900000Y-133940000D03*
X119900000Y-131400000D03*
%TD*%
D13*
%TO.C,H1*%
X100000000Y-130500000D03*
%TD*%
D10*
%TO.C,SBUS*%
X160500000Y-99070000D03*
X160500000Y-96530000D03*
%TD*%
%TO.C,NCS*%
X138550000Y-99070000D03*
X138550000Y-96530000D03*
%TD*%
M02*
