%TF.GenerationSoftware,KiCad,Pcbnew,10.0.1*%
%TF.CreationDate,2026-07-18T18:51:21+02:00*%
%TF.ProjectId,ismd_fc_sensortest,69736d64-5f66-4635-9f73-656e736f7274,rev?*%
%TF.SameCoordinates,Original*%
%TF.FileFunction,Copper,L2,Bot*%
%TF.FilePolarity,Positive*%
%FSLAX46Y46*%
G04 Gerber Fmt 4.6, Leading zero omitted, Abs format (unit mm)*
G04 Created by KiCad (PCBNEW 10.0.1) date 2026-07-18 18:51:21*
%MOMM*%
%LPD*%
G01*
G04 APERTURE LIST*
%TA.AperFunction,ComponentPad*%
%ADD10C,1.665000*%
%TD*%
G04 APERTURE END LIST*
D10*
%TO.P,U1,1,TX1_1*%
%TO.N,/CS_B6*%
X55260004Y-43020000D03*
%TO.P,U1,2,OUT2_2*%
%TO.N,/CS_I1*%
X57800004Y-43020000D03*
%TO.P,U1,3,LRCLK2_3*%
%TO.N,/CS_I2_GYRO*%
X60340004Y-43020000D03*
%TO.P,U1,4,BCLK2_4*%
%TO.N,/SDO2*%
X62880004Y-43020000D03*
%TO.P,U1,5,IN2_5*%
%TO.N,/CS_I3*%
X65420004Y-43020000D03*
%TO.P,U1,6,OUT1D_6*%
%TO.N,/CS_I4*%
X67960004Y-43020000D03*
%TO.P,U1,7,RX2_7*%
%TO.N,unconnected-(U1-RX2-Pad7)*%
X70500004Y-43020000D03*
%TO.P,U1,8,TX2_8*%
%TO.N,unconnected-(U1-TX2-Pad8)*%
X73040004Y-43020000D03*
%TO.P,U1,9,OUT1C_9*%
%TO.N,unconnected-(U1-OUT1C-Pad9)*%
X75580004Y-43020000D03*
%TO.P,U1,10,CS_1_10*%
%TO.N,unconnected-(U1-CS_1-Pad10)*%
X78120004Y-43020000D03*
%TO.P,U1,11,MOSI_11*%
%TO.N,/SDI1*%
X80660004Y-43020000D03*
%TO.P,U1,12,MISO_12*%
%TO.N,/SDO1*%
X83200004Y-43020000D03*
%TO.P,U1,13,SCK_13*%
%TO.N,/SCK1*%
X83200004Y-27780000D03*
%TO.P,U1,14,A0_14*%
%TO.N,/INT_B1*%
X80660004Y-27780000D03*
%TO.P,U1,15,A1_15*%
%TO.N,/INT_B3*%
X78120004Y-27780000D03*
%TO.P,U1,16,A2_16*%
%TO.N,/INT_B5*%
X75580004Y-27780000D03*
%TO.P,U1,17,A3_17*%
%TO.N,/INT_I1_1*%
X73040004Y-27780000D03*
%TO.P,U1,18,A4_18*%
%TO.N,/INT_I1_2*%
X70500004Y-27780000D03*
%TO.P,U1,19,A5_19*%
%TO.N,/INT_I2_1_ACCEL*%
X67960004Y-27780000D03*
%TO.P,U1,20,A6_20*%
%TO.N,/INT_I2_2_ACCEL*%
X65420004Y-27780000D03*
%TO.P,U1,21,A7_21*%
%TO.N,/INT_I2_3_GYRO*%
X62880004Y-27780000D03*
%TO.P,U1,22,A8_22*%
%TO.N,/INT_I2_4_GYRO*%
X60340004Y-27780000D03*
%TO.P,U1,23,A9_23*%
%TO.N,/INT_I3_1*%
X57800004Y-27780000D03*
%TO.P,U1,24,A10_24*%
%TO.N,/INT_I3_2*%
X88280004Y-43020000D03*
%TO.P,U1,25,A11_25*%
%TO.N,/INT_I4_1*%
X90820004Y-43020000D03*
%TO.P,U1,26,A12_26*%
%TO.N,/SDI2*%
X93360004Y-43020000D03*
%TO.P,U1,27,A13_27*%
%TO.N,/SCK2*%
X95900004Y-43020000D03*
%TO.P,U1,28,RX7_28*%
%TO.N,/CS_B2*%
X98440004Y-43020000D03*
%TO.P,U1,29,TX7_29*%
%TO.N,/CS_B3*%
X100980004Y-43020000D03*
%TO.P,U1,30,CRX3_30*%
%TO.N,unconnected-(U1-CRX3-Pad30)*%
X103520004Y-43020000D03*
%TO.P,U1,31,CTX3_31*%
%TO.N,unconnected-(U1-CTX3-Pad31)*%
X106060004Y-43020000D03*
%TO.P,U1,32,OUT1B_32*%
%TO.N,unconnected-(U1-OUT1B-Pad32)*%
X108600004Y-43020000D03*
%TO.P,U1,33,MCLK2_33*%
%TO.N,unconnected-(U1-MCLK2-Pad33)*%
X108600004Y-27780000D03*
%TO.P,U1,34,RX8_34*%
%TO.N,unconnected-(U1-RX8-Pad34)*%
X106060004Y-27780000D03*
%TO.P,U1,35,TX8_35*%
%TO.N,unconnected-(U1-TX8-Pad35)*%
X103520004Y-27780000D03*
%TO.P,U1,36,CS_2_36*%
%TO.N,unconnected-(U1-CS_2-Pad36)*%
X100980004Y-27780000D03*
%TO.P,U1,37,CS_3_37*%
%TO.N,unconnected-(U1-CS_3-Pad37)*%
X98440004Y-27780000D03*
%TO.P,U1,38,A14_38*%
%TO.N,/INT_I4_2*%
X95900004Y-27780000D03*
%TO.P,U1,39,A15_39*%
%TO.N,/CS_B1*%
X93360004Y-27780000D03*
%TO.P,U1,40,A16_40*%
%TO.N,/CS_B4*%
X90820004Y-27780000D03*
%TO.P,U1,41,A17_41*%
%TO.N,/CS_B5*%
X88280004Y-27780000D03*
%TO.P,U1,42,3.3V_1_42*%
%TO.N,unconnected-(U1-3.3V_1-Pad42)*%
X85740004Y-43020000D03*
%TO.P,U1,53,3.3V_(250_M_A_MAX)_53*%
%TO.N,+3V3*%
X55260004Y-27780000D03*
%TO.P,U1,55,VIN_(3.6_TO_5.5_VOLTS)_55*%
%TO.N,+5V*%
X50180004Y-27780000D03*
%TO.P,U1,57,RX1_57*%
%TO.N,/CS_I2_ACCEL*%
X52720004Y-43020000D03*
%TO.P,U1,69,GND_4_69*%
%TO.N,GND*%
X85740004Y-27780000D03*
%TO.P,U1,70,GND_5_70*%
X52720004Y-27780000D03*
%TO.P,U1,71,GND_6_71*%
X50180004Y-43020000D03*
%TD*%
M02*
