%TF.GenerationSoftware,KiCad,Pcbnew,10.0.1*%
%TF.CreationDate,2026-07-18T18:51:21+02:00*%
%TF.ProjectId,ismd_fc_sensortest,69736d64-5f66-4635-9f73-656e736f7274,rev?*%
%TF.SameCoordinates,Original*%
%TF.FileFunction,Profile,NP*%
%FSLAX46Y46*%
G04 Gerber Fmt 4.6, Leading zero omitted, Abs format (unit mm)*
G04 Created by KiCad (PCBNEW 10.0.1) date 2026-07-18 18:51:21*
%MOMM*%
%LPD*%
G01*
G04 APERTURE LIST*
%TA.AperFunction,Profile*%
%ADD10C,0.049999*%
%TD*%
%ADD11C,0.049999*%
G04 APERTURE END LIST*
D10*
X14400004Y-29249998D02*
X14400004Y-41050002D01*
X14400004Y-29249998D02*
X17075007Y-29249998D01*
X14400004Y-41050002D02*
X17075007Y-41050002D01*
D11*
X17075007Y-29249998D02*
X17083954Y-29249958D01*
X17092898Y-29249838D01*
X17101841Y-29249638D01*
X17110780Y-29249359D01*
X17119715Y-29248999D01*
X17128647Y-29248560D01*
X17137573Y-29248041D01*
X17146494Y-29247442D01*
X17155409Y-29246763D01*
X17164317Y-29246005D01*
X17173218Y-29245167D01*
X17182110Y-29244249D01*
X17190994Y-29243252D01*
X17199868Y-29242176D01*
X17208733Y-29241020D01*
X17217587Y-29239786D01*
X17226429Y-29238471D01*
X17235260Y-29237078D01*
X17244077Y-29235606D01*
X17252882Y-29234055D01*
X17261672Y-29232426D01*
X17270448Y-29230718D01*
X17279208Y-29228931D01*
X17287953Y-29227066D01*
X17296680Y-29225123D01*
X17305390Y-29223102D01*
X17314082Y-29221002D01*
X17322755Y-29218826D01*
X17331409Y-29216571D01*
X17340042Y-29214239D01*
X17348655Y-29211830D01*
X17357245Y-29209345D01*
X17365814Y-29206782D01*
X17374360Y-29204142D01*
X17382882Y-29201427D01*
X17391379Y-29198635D01*
X17399852Y-29195767D01*
X17408298Y-29192823D01*
X17416718Y-29189804D01*
X17425112Y-29186709D01*
X17433477Y-29183540D01*
X17441813Y-29180296D01*
X17450121Y-29176977D01*
X17458399Y-29173585D01*
X17462526Y-29171860D01*
X17466646Y-29170118D01*
X17470757Y-29168357D01*
X17474861Y-29166578D01*
X17478957Y-29164780D01*
X17483045Y-29162964D01*
X17487125Y-29161130D01*
X17491196Y-29159277D01*
X17495259Y-29157407D01*
X17499314Y-29155518D01*
X17503360Y-29153611D01*
X17507398Y-29151686D01*
X17511427Y-29149743D01*
X17515447Y-29147782D01*
X17519459Y-29145803D01*
X17523461Y-29143806D01*
X17527455Y-29141791D01*
X17531439Y-29139758D01*
X17535414Y-29137708D01*
X17539381Y-29135640D01*
X17543337Y-29133554D01*
X17547285Y-29131451D01*
X17551223Y-29129330D01*
X17555151Y-29127191D01*
X17559070Y-29125035D01*
X17562979Y-29122861D01*
X17566878Y-29120670D01*
X17570768Y-29118461D01*
X17574647Y-29116235D01*
X17578517Y-29113992D01*
X17582376Y-29111732D01*
X17586225Y-29109454D01*
X17590064Y-29107159D01*
X17593893Y-29104847D01*
X17597711Y-29102518D01*
X17601519Y-29100171D01*
X17605315Y-29097808D01*
X17609102Y-29095428D01*
X17612877Y-29093031D01*
X17616643Y-29090617D01*
X17620397Y-29088187D01*
X17624140Y-29085739D01*
X17627872Y-29083275D01*
X17631593Y-29080794D01*
X17635303Y-29078297D01*
X17639002Y-29075783D01*
X17642689Y-29073253D01*
X17646365Y-29070706D01*
X17650030Y-29068142D01*
X17653683Y-29065562D01*
X17657324Y-29062967D01*
X17660954Y-29060354D01*
X17664572Y-29057726D01*
X17668179Y-29055081D01*
X17671773Y-29052420D01*
X17675356Y-29049743D01*
X17678926Y-29047051D01*
X17682485Y-29044341D01*
X17686031Y-29041617D01*
X17689566Y-29038876D01*
X17693087Y-29036120D01*
X17696597Y-29033347D01*
X17700094Y-29030560D01*
X17703579Y-29027756D01*
X17707051Y-29024937D01*
X17710511Y-29022102D01*
X17713957Y-29019252D01*
X17717392Y-29016386D01*
X17720813Y-29013505D01*
X17724222Y-29010608D01*
X17727617Y-29007697D01*
X17731001Y-29004769D01*
X17734370Y-29001828D01*
X17737727Y-28998870D01*
X17741070Y-28995898D01*
X17744401Y-28992910D01*
X17747718Y-28989908D01*
X17751022Y-28986890D01*
X17754312Y-28983858D01*
X17757589Y-28980810D01*
X17760852Y-28977749D01*
X17764103Y-28974671D01*
X17767338Y-28971581D01*
X17770561Y-28968474D01*
X17773770Y-28965354D01*
X17776966Y-28962218D01*
X17782115Y-28957106D01*
X17782115Y-28957106D02*
X17788413Y-28950752D01*
X17794653Y-28944342D01*
X17800835Y-28937878D01*
X17806958Y-28931359D01*
X17813022Y-28924786D01*
X17819027Y-28918160D01*
X17824971Y-28911481D01*
X17830856Y-28904750D01*
X17836680Y-28897966D01*
X17842442Y-28891131D01*
X17848143Y-28884245D01*
X17853782Y-28877309D01*
X17859359Y-28870322D01*
X17864873Y-28863286D01*
X17870324Y-28856201D01*
X17875712Y-28849067D01*
X17881035Y-28841885D01*
X17886294Y-28834656D01*
X17891488Y-28827380D01*
X17896617Y-28820058D01*
X17901680Y-28812690D01*
X17906678Y-28805277D01*
X17911609Y-28797819D01*
X17916473Y-28790317D01*
X17921270Y-28782772D01*
X17926000Y-28775184D01*
X17930662Y-28767553D01*
X17935255Y-28759881D01*
X17939780Y-28752168D01*
X17944236Y-28744415D01*
X17948622Y-28736622D01*
X17952939Y-28728789D01*
X17957186Y-28720918D01*
X17961362Y-28713009D01*
X17965468Y-28705063D01*
X17969502Y-28697080D01*
X17973465Y-28689061D01*
X17977356Y-28681007D01*
X17981175Y-28672918D01*
X17984922Y-28664795D01*
X17988596Y-28656639D01*
X17992197Y-28648450D01*
X17995725Y-28640229D01*
X17999179Y-28631977D01*
X18000878Y-28627840D01*
X18002559Y-28623694D01*
X18004221Y-28619542D01*
X18005865Y-28615382D01*
X18007490Y-28611214D01*
X18009096Y-28607039D01*
X18010684Y-28602858D01*
X18012253Y-28598669D01*
X18013803Y-28594473D01*
X18015335Y-28590270D01*
X18016848Y-28586061D01*
X18018341Y-28581844D01*
X18019816Y-28577622D01*
X18021273Y-28573392D01*
X18022710Y-28569156D01*
X18024128Y-28564914D01*
X18025527Y-28560666D01*
X18026907Y-28556411D01*
X18028268Y-28552150D01*
X18029611Y-28547883D01*
X18030933Y-28543610D01*
X18032237Y-28539331D01*
X18033522Y-28535047D01*
X18034788Y-28530757D01*
X18036034Y-28526461D01*
X18037261Y-28522160D01*
X18038469Y-28517854D01*
X18039657Y-28513541D01*
X18040826Y-28509224D01*
X18041976Y-28504902D01*
X18043107Y-28500575D01*
X18044218Y-28496242D01*
X18045310Y-28491905D01*
X18046382Y-28487563D01*
X18047435Y-28483216D01*
X18048468Y-28478864D01*
X18049482Y-28474509D01*
X18050477Y-28470148D01*
X18051452Y-28465783D01*
X18052407Y-28461414D01*
X18053343Y-28457041D01*
X18054259Y-28452663D01*
X18055156Y-28448282D01*
X18056033Y-28443896D01*
X18056890Y-28439507D01*
X18057728Y-28435114D01*
X18058546Y-28430718D01*
X18059344Y-28426317D01*
X18060123Y-28421913D01*
X18060882Y-28417506D01*
X18061621Y-28413095D01*
X18062341Y-28408681D01*
X18063041Y-28404264D01*
X18063721Y-28399844D01*
X18064381Y-28395421D01*
X18065021Y-28390994D01*
X18065642Y-28386566D01*
X18066243Y-28382134D01*
X18066824Y-28377700D01*
X18067385Y-28373262D01*
X18067926Y-28368823D01*
X18068447Y-28364381D01*
X18068949Y-28359937D01*
X18069431Y-28355490D01*
X18069892Y-28351042D01*
X18070334Y-28346590D01*
X18070756Y-28342138D01*
X18071158Y-28337683D01*
X18071540Y-28333227D01*
X18071902Y-28328767D01*
X18072244Y-28324308D01*
X18072567Y-28319845D01*
X18072869Y-28315383D01*
X18073151Y-28310917D01*
X18073414Y-28306452D01*
X18073656Y-28301984D01*
X18073879Y-28297516D01*
X18074081Y-28293045D01*
X18074263Y-28288575D01*
X18074426Y-28284102D01*
X18074568Y-28279630D01*
X18074691Y-28275156D01*
X18074793Y-28270682D01*
X18074876Y-28266206D01*
X18074938Y-28261732D01*
X18074981Y-28257255D01*
X18075007Y-28249998D01*
X17782115Y-41342894D02*
X17775761Y-41336596D01*
X17769351Y-41330356D01*
X17762887Y-41324174D01*
X17756368Y-41318051D01*
X17749795Y-41311987D01*
X17743169Y-41305982D01*
X17736490Y-41300038D01*
X17729759Y-41294153D01*
X17722975Y-41288329D01*
X17716140Y-41282567D01*
X17709254Y-41276866D01*
X17702318Y-41271227D01*
X17695331Y-41265650D01*
X17688295Y-41260136D01*
X17681210Y-41254685D01*
X17674076Y-41249297D01*
X17666894Y-41243974D01*
X17659665Y-41238715D01*
X17652389Y-41233521D01*
X17645067Y-41228392D01*
X17637699Y-41223329D01*
X17630286Y-41218331D01*
X17622828Y-41213400D01*
X17615326Y-41208536D01*
X17607781Y-41203739D01*
X17600193Y-41199009D01*
X17592562Y-41194347D01*
X17584890Y-41189754D01*
X17577177Y-41185229D01*
X17569424Y-41180773D01*
X17561631Y-41176387D01*
X17553798Y-41172070D01*
X17545927Y-41167823D01*
X17538018Y-41163647D01*
X17530072Y-41159541D01*
X17522089Y-41155507D01*
X17514070Y-41151544D01*
X17506016Y-41147653D01*
X17497927Y-41143834D01*
X17489804Y-41140087D01*
X17481648Y-41136413D01*
X17473459Y-41132812D01*
X17465238Y-41129284D01*
X17456986Y-41125830D01*
X17452849Y-41124131D01*
X17448703Y-41122450D01*
X17444551Y-41120788D01*
X17440391Y-41119144D01*
X17436223Y-41117519D01*
X17432048Y-41115913D01*
X17427867Y-41114325D01*
X17423678Y-41112756D01*
X17419482Y-41111206D01*
X17415279Y-41109674D01*
X17411070Y-41108161D01*
X17406853Y-41106668D01*
X17402631Y-41105193D01*
X17398401Y-41103736D01*
X17394165Y-41102299D01*
X17389923Y-41100881D01*
X17385675Y-41099482D01*
X17381420Y-41098102D01*
X17377159Y-41096741D01*
X17372892Y-41095398D01*
X17368619Y-41094076D01*
X17364340Y-41092772D01*
X17360056Y-41091487D01*
X17355766Y-41090221D01*
X17351470Y-41088975D01*
X17347169Y-41087748D01*
X17342863Y-41086540D01*
X17338550Y-41085352D01*
X17334233Y-41084183D01*
X17329911Y-41083033D01*
X17325584Y-41081902D01*
X17321251Y-41080791D01*
X17316914Y-41079699D01*
X17312572Y-41078627D01*
X17308225Y-41077574D01*
X17303873Y-41076541D01*
X17299518Y-41075527D01*
X17295157Y-41074532D01*
X17290792Y-41073557D01*
X17286423Y-41072602D01*
X17282050Y-41071666D01*
X17277672Y-41070750D01*
X17273291Y-41069853D01*
X17268905Y-41068976D01*
X17264516Y-41068119D01*
X17260123Y-41067281D01*
X17255727Y-41066463D01*
X17251326Y-41065665D01*
X17246922Y-41064886D01*
X17242515Y-41064127D01*
X17238104Y-41063388D01*
X17233690Y-41062668D01*
X17229273Y-41061968D01*
X17224853Y-41061288D01*
X17220430Y-41060628D01*
X17216003Y-41059988D01*
X17211575Y-41059367D01*
X17207143Y-41058766D01*
X17202709Y-41058185D01*
X17198271Y-41057624D01*
X17193832Y-41057083D01*
X17189390Y-41056562D01*
X17184946Y-41056060D01*
X17180499Y-41055578D01*
X17176051Y-41055117D01*
X17171599Y-41054675D01*
X17167147Y-41054253D01*
X17162692Y-41053851D01*
X17158236Y-41053469D01*
X17153776Y-41053107D01*
X17149317Y-41052765D01*
X17144854Y-41052442D01*
X17140392Y-41052140D01*
X17135926Y-41051858D01*
X17131461Y-41051595D01*
X17126993Y-41051353D01*
X17122525Y-41051130D01*
X17118054Y-41050928D01*
X17113584Y-41050746D01*
X17109111Y-41050583D01*
X17104639Y-41050441D01*
X17100165Y-41050318D01*
X17095691Y-41050216D01*
X17091215Y-41050133D01*
X17086741Y-41050071D01*
X17082264Y-41050028D01*
X17075007Y-41050002D01*
D10*
X18075007Y-28249998D02*
X18075007Y-16400000D01*
D11*
X18075007Y-42050002D02*
X18074967Y-42041055D01*
X18074847Y-42032111D01*
X18074647Y-42023168D01*
X18074368Y-42014229D01*
X18074008Y-42005294D01*
X18073569Y-41996362D01*
X18073050Y-41987436D01*
X18072451Y-41978515D01*
X18071772Y-41969600D01*
X18071014Y-41960692D01*
X18070176Y-41951791D01*
X18069258Y-41942899D01*
X18068261Y-41934015D01*
X18067185Y-41925141D01*
X18066029Y-41916276D01*
X18064795Y-41907422D01*
X18063480Y-41898580D01*
X18062087Y-41889749D01*
X18060615Y-41880932D01*
X18059064Y-41872127D01*
X18057435Y-41863337D01*
X18055727Y-41854561D01*
X18053940Y-41845801D01*
X18052075Y-41837056D01*
X18050132Y-41828329D01*
X18048111Y-41819619D01*
X18046011Y-41810927D01*
X18043835Y-41802254D01*
X18041580Y-41793600D01*
X18039248Y-41784967D01*
X18036839Y-41776354D01*
X18034354Y-41767764D01*
X18031791Y-41759195D01*
X18029151Y-41750649D01*
X18026436Y-41742127D01*
X18023644Y-41733630D01*
X18020776Y-41725157D01*
X18017832Y-41716711D01*
X18014813Y-41708291D01*
X18011718Y-41699897D01*
X18008549Y-41691532D01*
X18005305Y-41683196D01*
X18001986Y-41674888D01*
X17998594Y-41666610D01*
X17996869Y-41662483D01*
X17995127Y-41658363D01*
X17993366Y-41654252D01*
X17991587Y-41650148D01*
X17989789Y-41646052D01*
X17987973Y-41641964D01*
X17986139Y-41637884D01*
X17984286Y-41633813D01*
X17982416Y-41629750D01*
X17980527Y-41625695D01*
X17978620Y-41621649D01*
X17976695Y-41617611D01*
X17974752Y-41613582D01*
X17972791Y-41609562D01*
X17970812Y-41605550D01*
X17968815Y-41601548D01*
X17966800Y-41597554D01*
X17964767Y-41593570D01*
X17962717Y-41589595D01*
X17960649Y-41585628D01*
X17958563Y-41581672D01*
X17956460Y-41577724D01*
X17954339Y-41573786D01*
X17952200Y-41569858D01*
X17950044Y-41565939D01*
X17947870Y-41562030D01*
X17945679Y-41558131D01*
X17943470Y-41554241D01*
X17941244Y-41550362D01*
X17939001Y-41546492D01*
X17936741Y-41542633D01*
X17934463Y-41538784D01*
X17932168Y-41534945D01*
X17929856Y-41531116D01*
X17927527Y-41527298D01*
X17925180Y-41523490D01*
X17922817Y-41519694D01*
X17920437Y-41515907D01*
X17918040Y-41512132D01*
X17915626Y-41508366D01*
X17913196Y-41504612D01*
X17910748Y-41500869D01*
X17908284Y-41497137D01*
X17905803Y-41493416D01*
X17903306Y-41489706D01*
X17900792Y-41486007D01*
X17898262Y-41482320D01*
X17895715Y-41478644D01*
X17893151Y-41474979D01*
X17890571Y-41471326D01*
X17887976Y-41467685D01*
X17885363Y-41464055D01*
X17882735Y-41460437D01*
X17880090Y-41456830D01*
X17877429Y-41453236D01*
X17874752Y-41449653D01*
X17872060Y-41446083D01*
X17869350Y-41442524D01*
X17866626Y-41438978D01*
X17863885Y-41435443D01*
X17861129Y-41431922D01*
X17858356Y-41428412D01*
X17855569Y-41424915D01*
X17852765Y-41421430D01*
X17849946Y-41417958D01*
X17847111Y-41414498D01*
X17844261Y-41411052D01*
X17841395Y-41407617D01*
X17838514Y-41404196D01*
X17835617Y-41400787D01*
X17832706Y-41397392D01*
X17829778Y-41394008D01*
X17826837Y-41390639D01*
X17823879Y-41387282D01*
X17820907Y-41383939D01*
X17817919Y-41380608D01*
X17814917Y-41377291D01*
X17811899Y-41373987D01*
X17808867Y-41370697D01*
X17805819Y-41367420D01*
X17802758Y-41364157D01*
X17799680Y-41360906D01*
X17796590Y-41357671D01*
X17793483Y-41354448D01*
X17790363Y-41351239D01*
X17787227Y-41348043D01*
X17782115Y-41342894D01*
D10*
X18075007Y-42050002D02*
X18075007Y-54400000D01*
D11*
X18075007Y-54400000D02*
X18075047Y-54408947D01*
X18075167Y-54417891D01*
X18075367Y-54426833D01*
X18075646Y-54435773D01*
X18076006Y-54444708D01*
X18076445Y-54453640D01*
X18076964Y-54462566D01*
X18077563Y-54471487D01*
X18078242Y-54480402D01*
X18079000Y-54489310D01*
X18079838Y-54498211D01*
X18080756Y-54507103D01*
X18081753Y-54515987D01*
X18082829Y-54524862D01*
X18083985Y-54533726D01*
X18085220Y-54542580D01*
X18086534Y-54551422D01*
X18087927Y-54560253D01*
X18089399Y-54569071D01*
X18090950Y-54577875D01*
X18092579Y-54586666D01*
X18094287Y-54595442D01*
X18096074Y-54604202D01*
X18097939Y-54612946D01*
X18099882Y-54621674D01*
X18101903Y-54630384D01*
X18104003Y-54639076D01*
X18106179Y-54647749D01*
X18108434Y-54656403D01*
X18110766Y-54665036D01*
X18113175Y-54673649D01*
X18115661Y-54682240D01*
X18118223Y-54690808D01*
X18120863Y-54699354D01*
X18123579Y-54707876D01*
X18126371Y-54716374D01*
X18129239Y-54724846D01*
X18132182Y-54733293D01*
X18135201Y-54741713D01*
X18138296Y-54750106D01*
X18141465Y-54758471D01*
X18144709Y-54766808D01*
X18148028Y-54775116D01*
X18151421Y-54783393D01*
X18153145Y-54787521D01*
X18154887Y-54791640D01*
X18156648Y-54795752D01*
X18158428Y-54799856D01*
X18160225Y-54803952D01*
X18162041Y-54808040D01*
X18163875Y-54812119D01*
X18165728Y-54816191D01*
X18167599Y-54820254D01*
X18169487Y-54824309D01*
X18171394Y-54828355D01*
X18173319Y-54832393D01*
X18175262Y-54836422D01*
X18177223Y-54840442D01*
X18179202Y-54844453D01*
X18181199Y-54848456D01*
X18183214Y-54852449D01*
X18185246Y-54856434D01*
X18187297Y-54860409D01*
X18189365Y-54864375D01*
X18191451Y-54868332D01*
X18193554Y-54872279D01*
X18195675Y-54876217D01*
X18197814Y-54880146D01*
X18199970Y-54884064D01*
X18202144Y-54887973D01*
X18204335Y-54891872D01*
X18206544Y-54895762D01*
X18208769Y-54899641D01*
X18211013Y-54903511D01*
X18213273Y-54907370D01*
X18215551Y-54911219D01*
X18217845Y-54915058D01*
X18220158Y-54918887D01*
X18222487Y-54922704D01*
X18224833Y-54926512D01*
X18227196Y-54930309D01*
X18229576Y-54934096D01*
X18231973Y-54937871D01*
X18234387Y-54941636D01*
X18236817Y-54945390D01*
X18239265Y-54949133D01*
X18241729Y-54952865D01*
X18244210Y-54956586D01*
X18246707Y-54960296D01*
X18249221Y-54963995D01*
X18251751Y-54967682D01*
X18254298Y-54971358D01*
X18256861Y-54975022D01*
X18259441Y-54978675D01*
X18262037Y-54982316D01*
X18264649Y-54985947D01*
X18267277Y-54989564D01*
X18269922Y-54993171D01*
X18272583Y-54996765D01*
X18275260Y-55000348D01*
X18277952Y-55003918D01*
X18280661Y-55007476D01*
X18283386Y-55011022D01*
X18286127Y-55014557D01*
X18288883Y-55018078D01*
X18291655Y-55021588D01*
X18294443Y-55025084D01*
X18297247Y-55028570D01*
X18300065Y-55032041D01*
X18302900Y-55035501D01*
X18305750Y-55038947D01*
X18308616Y-55042382D01*
X18311497Y-55045803D01*
X18314394Y-55049212D01*
X18317305Y-55052607D01*
X18320232Y-55055990D01*
X18323174Y-55059359D01*
X18326132Y-55062716D01*
X18329103Y-55066059D01*
X18332091Y-55069390D01*
X18335093Y-55072706D01*
X18338111Y-55076010D01*
X18341143Y-55079300D01*
X18344190Y-55082577D01*
X18347252Y-55085840D01*
X18350329Y-55089090D01*
X18353419Y-55092325D01*
X18356526Y-55095548D01*
X18359646Y-55098757D01*
X18362781Y-55101952D01*
X18367900Y-55107108D01*
X18367900Y-15692892D02*
X18361602Y-15699246D01*
X18355362Y-15705656D01*
X18349180Y-15712121D01*
X18343057Y-15718639D01*
X18336993Y-15725212D01*
X18330988Y-15731838D01*
X18325043Y-15738517D01*
X18319159Y-15745249D01*
X18313335Y-15752032D01*
X18307572Y-15758867D01*
X18301871Y-15765754D01*
X18296232Y-15772690D01*
X18290655Y-15779677D01*
X18285141Y-15786713D01*
X18279690Y-15793799D01*
X18274303Y-15800932D01*
X18268979Y-15808114D01*
X18263720Y-15815343D01*
X18258526Y-15822619D01*
X18253397Y-15829942D01*
X18248334Y-15837310D01*
X18243336Y-15844723D01*
X18238405Y-15852181D01*
X18233541Y-15859683D01*
X18228744Y-15867228D01*
X18224014Y-15874816D01*
X18219352Y-15882446D01*
X18214759Y-15890119D01*
X18210234Y-15897832D01*
X18205778Y-15905585D01*
X18201391Y-15913379D01*
X18197075Y-15921211D01*
X18192828Y-15929082D01*
X18188652Y-15936991D01*
X18184546Y-15944937D01*
X18180512Y-15952920D01*
X18176549Y-15960939D01*
X18172658Y-15968993D01*
X18168838Y-15977082D01*
X18165092Y-15985205D01*
X18161418Y-15993361D01*
X18157817Y-16001550D01*
X18154289Y-16009771D01*
X18150835Y-16018023D01*
X18149136Y-16022161D01*
X18147455Y-16026306D01*
X18145793Y-16030459D01*
X18144149Y-16034619D01*
X18142524Y-16038786D01*
X18140917Y-16042961D01*
X18139330Y-16047143D01*
X18137761Y-16051332D01*
X18136210Y-16055527D01*
X18134679Y-16059730D01*
X18133166Y-16063940D01*
X18131672Y-16068156D01*
X18130197Y-16072379D01*
X18128741Y-16076608D01*
X18127304Y-16080844D01*
X18125886Y-16085086D01*
X18124487Y-16089335D01*
X18123106Y-16093590D01*
X18121745Y-16097850D01*
X18120403Y-16102117D01*
X18119080Y-16106390D01*
X18117776Y-16110669D01*
X18116492Y-16114953D01*
X18115226Y-16119243D01*
X18113980Y-16123539D01*
X18112753Y-16127840D01*
X18111545Y-16132147D01*
X18110356Y-16136459D01*
X18109187Y-16140776D01*
X18108037Y-16145098D01*
X18106907Y-16149426D01*
X18105796Y-16153758D01*
X18104704Y-16158095D01*
X18103632Y-16162438D01*
X18102579Y-16166784D01*
X18101545Y-16171136D01*
X18100531Y-16175491D01*
X18099537Y-16179852D01*
X18098562Y-16184217D01*
X18097607Y-16188586D01*
X18096671Y-16192959D01*
X18095755Y-16197337D01*
X18094858Y-16201718D01*
X18093981Y-16206104D01*
X18093124Y-16210493D01*
X18092286Y-16214886D01*
X18091468Y-16219282D01*
X18090669Y-16223683D01*
X18089891Y-16228087D01*
X18089132Y-16232494D01*
X18088392Y-16236905D01*
X18087673Y-16241319D01*
X18086973Y-16245735D01*
X18086293Y-16250156D01*
X18085633Y-16254579D01*
X18084993Y-16259006D01*
X18084372Y-16263434D01*
X18083771Y-16267866D01*
X18083190Y-16272300D01*
X18082629Y-16276738D01*
X18082088Y-16281176D01*
X18081566Y-16285619D01*
X18081065Y-16290063D01*
X18080583Y-16294510D01*
X18080122Y-16298958D01*
X18079680Y-16303409D01*
X18079258Y-16307862D01*
X18078856Y-16312317D01*
X18078474Y-16316773D01*
X18078112Y-16321232D01*
X18077770Y-16325692D01*
X18077447Y-16330154D01*
X18077145Y-16334617D01*
X18076863Y-16339082D01*
X18076600Y-16343548D01*
X18076358Y-16348016D01*
X18076135Y-16352484D01*
X18075933Y-16356954D01*
X18075751Y-16361424D01*
X18075588Y-16365897D01*
X18075446Y-16370369D01*
X18075323Y-16374843D01*
X18075221Y-16379317D01*
X18075138Y-16383793D01*
X18075076Y-16388268D01*
X18075033Y-16392745D01*
X18075007Y-16400000D01*
X18367900Y-55107108D02*
X18374255Y-55113406D01*
X18380665Y-55119646D01*
X18387129Y-55125828D01*
X18393648Y-55131951D01*
X18400221Y-55138015D01*
X18406848Y-55144020D01*
X18413527Y-55149965D01*
X18420259Y-55155850D01*
X18427043Y-55161673D01*
X18433878Y-55167436D01*
X18440765Y-55173137D01*
X18447702Y-55178777D01*
X18454689Y-55184354D01*
X18461725Y-55189868D01*
X18468811Y-55195319D01*
X18475945Y-55200706D01*
X18483127Y-55206030D01*
X18490356Y-55211289D01*
X18497633Y-55216483D01*
X18504955Y-55221612D01*
X18512324Y-55226675D01*
X18519737Y-55231673D01*
X18527195Y-55236604D01*
X18534698Y-55241468D01*
X18542243Y-55246266D01*
X18549832Y-55250995D01*
X18557462Y-55255657D01*
X18565135Y-55260251D01*
X18572848Y-55264776D01*
X18580602Y-55269232D01*
X18588395Y-55273618D01*
X18596228Y-55277935D01*
X18604100Y-55282182D01*
X18612009Y-55286358D01*
X18619955Y-55290463D01*
X18627938Y-55294498D01*
X18635958Y-55298461D01*
X18644012Y-55302352D01*
X18652101Y-55306171D01*
X18660224Y-55309918D01*
X18668381Y-55313592D01*
X18676570Y-55317193D01*
X18684791Y-55320721D01*
X18693043Y-55324175D01*
X18697181Y-55325874D01*
X18701326Y-55327555D01*
X18705479Y-55329217D01*
X18709639Y-55330861D01*
X18713807Y-55332486D01*
X18717981Y-55334092D01*
X18722163Y-55335680D01*
X18726352Y-55337249D01*
X18730548Y-55338799D01*
X18734751Y-55340331D01*
X18738960Y-55341844D01*
X18743177Y-55343338D01*
X18747400Y-55344812D01*
X18751629Y-55346269D01*
X18755865Y-55347706D01*
X18760108Y-55349124D01*
X18764356Y-55350523D01*
X18768611Y-55351903D01*
X18772872Y-55353264D01*
X18777139Y-55354607D01*
X18781411Y-55355929D01*
X18785690Y-55357233D01*
X18789975Y-55358518D01*
X18794265Y-55359783D01*
X18798560Y-55361030D01*
X18802862Y-55362257D01*
X18807168Y-55363464D01*
X18811481Y-55364653D01*
X18815797Y-55365822D01*
X18820120Y-55366972D01*
X18824447Y-55368102D01*
X18828780Y-55369214D01*
X18833117Y-55370305D01*
X18837459Y-55371378D01*
X18841806Y-55372430D01*
X18846158Y-55373464D01*
X18850513Y-55374478D01*
X18854874Y-55375472D01*
X18859238Y-55376447D01*
X18863608Y-55377403D01*
X18867981Y-55378338D01*
X18872359Y-55379254D01*
X18876740Y-55380151D01*
X18881126Y-55381028D01*
X18885514Y-55381885D01*
X18889908Y-55382723D01*
X18894304Y-55383541D01*
X18898705Y-55384340D01*
X18903108Y-55385118D01*
X18907516Y-55385877D01*
X18911926Y-55386616D01*
X18916340Y-55387336D01*
X18920757Y-55388035D01*
X18925178Y-55388715D01*
X18929600Y-55389375D01*
X18934027Y-55390016D01*
X18938455Y-55390636D01*
X18942887Y-55391237D01*
X18947321Y-55391818D01*
X18951759Y-55392379D01*
X18956197Y-55392920D01*
X18960640Y-55393442D01*
X18965083Y-55393943D01*
X18969531Y-55394425D01*
X18973979Y-55394886D01*
X18978430Y-55395328D01*
X18982882Y-55395750D01*
X18987337Y-55396152D01*
X18991793Y-55396534D01*
X18996252Y-55396896D01*
X19000712Y-55397238D01*
X19005174Y-55397561D01*
X19009637Y-55397863D01*
X19014102Y-55398145D01*
X19018567Y-55398407D01*
X19023035Y-55398650D01*
X19027503Y-55398872D01*
X19031974Y-55399075D01*
X19036444Y-55399257D01*
X19040916Y-55399419D01*
X19045388Y-55399562D01*
X19049862Y-55399684D01*
X19054336Y-55399787D01*
X19058811Y-55399869D01*
X19063286Y-55399931D01*
X19067763Y-55399974D01*
X19075007Y-55400000D01*
X19075007Y-15400000D02*
X19066060Y-15400040D01*
X19057116Y-15400160D01*
X19048173Y-15400360D01*
X19039234Y-15400639D01*
X19030299Y-15400999D01*
X19021367Y-15401438D01*
X19012441Y-15401957D01*
X19003520Y-15402556D01*
X18994605Y-15403235D01*
X18985697Y-15403993D01*
X18976796Y-15404831D01*
X18967904Y-15405749D01*
X18959020Y-15406746D01*
X18950146Y-15407822D01*
X18941281Y-15408978D01*
X18932427Y-15410212D01*
X18923585Y-15411527D01*
X18914755Y-15412920D01*
X18905937Y-15414392D01*
X18897132Y-15415943D01*
X18888342Y-15417572D01*
X18879566Y-15419280D01*
X18870806Y-15421067D01*
X18862062Y-15422932D01*
X18853334Y-15424875D01*
X18844624Y-15426896D01*
X18835932Y-15428995D01*
X18827259Y-15431172D01*
X18818606Y-15433427D01*
X18809972Y-15435759D01*
X18801360Y-15438167D01*
X18792769Y-15440653D01*
X18784200Y-15443216D01*
X18775655Y-15445856D01*
X18767133Y-15448571D01*
X18758635Y-15451363D01*
X18750163Y-15454231D01*
X18741716Y-15457175D01*
X18733296Y-15460194D01*
X18724903Y-15463289D01*
X18716538Y-15466458D01*
X18708201Y-15469702D01*
X18699894Y-15473021D01*
X18691616Y-15476413D01*
X18687489Y-15478137D01*
X18683369Y-15479880D01*
X18679257Y-15481641D01*
X18675153Y-15483420D01*
X18671058Y-15485218D01*
X18666970Y-15487034D01*
X18662890Y-15488868D01*
X18658819Y-15490721D01*
X18654755Y-15492591D01*
X18650701Y-15494480D01*
X18646655Y-15496387D01*
X18642617Y-15498312D01*
X18638588Y-15500255D01*
X18634567Y-15502216D01*
X18630556Y-15504195D01*
X18626554Y-15506192D01*
X18622560Y-15508207D01*
X18618575Y-15510239D01*
X18614600Y-15512290D01*
X18610634Y-15514358D01*
X18606677Y-15516444D01*
X18602730Y-15518547D01*
X18598792Y-15520668D01*
X18594863Y-15522807D01*
X18590945Y-15524963D01*
X18587036Y-15527137D01*
X18583137Y-15529328D01*
X18579247Y-15531537D01*
X18575368Y-15533763D01*
X18571498Y-15536006D01*
X18567639Y-15538266D01*
X18563790Y-15540544D01*
X18559951Y-15542839D01*
X18556122Y-15545151D01*
X18552304Y-15547480D01*
X18548496Y-15549827D01*
X18544700Y-15552190D01*
X18540913Y-15554570D01*
X18537137Y-15556967D01*
X18533372Y-15559381D01*
X18529618Y-15561811D01*
X18525875Y-15564259D01*
X18522143Y-15566723D01*
X18518422Y-15569204D01*
X18514712Y-15571701D01*
X18511013Y-15574215D01*
X18507326Y-15576745D01*
X18503649Y-15579293D01*
X18499985Y-15581856D01*
X18496332Y-15584436D01*
X18492691Y-15587031D01*
X18489060Y-15589644D01*
X18485443Y-15592272D01*
X18481836Y-15594917D01*
X18478242Y-15597578D01*
X18474659Y-15600255D01*
X18471089Y-15602947D01*
X18467530Y-15605657D01*
X18463984Y-15608381D01*
X18460449Y-15611122D01*
X18456928Y-15613878D01*
X18453418Y-15616651D01*
X18449921Y-15619438D01*
X18446436Y-15622242D01*
X18442964Y-15625061D01*
X18439504Y-15627896D01*
X18436058Y-15630746D01*
X18432623Y-15633612D01*
X18429202Y-15636493D01*
X18425793Y-15639390D01*
X18422397Y-15642301D01*
X18419014Y-15645229D01*
X18415645Y-15648171D01*
X18412288Y-15651129D01*
X18408945Y-15654101D01*
X18405614Y-15657089D01*
X18402297Y-15660091D01*
X18398993Y-15663109D01*
X18395703Y-15666140D01*
X18392426Y-15669188D01*
X18389163Y-15672250D01*
X18385912Y-15675327D01*
X18382676Y-15678418D01*
X18379453Y-15681524D01*
X18376245Y-15684644D01*
X18373049Y-15687780D01*
X18367900Y-15692892D01*
D10*
X19075007Y-55400000D02*
X63825000Y-55400000D01*
X63825000Y-15400000D02*
X19075007Y-15400000D01*
D11*
X63825000Y-55400000D02*
X63833946Y-55399960D01*
X63842891Y-55399840D01*
X63851833Y-55399640D01*
X63860772Y-55399361D01*
X63869707Y-55399001D01*
X63878638Y-55398562D01*
X63887564Y-55398043D01*
X63896485Y-55397444D01*
X63905400Y-55396765D01*
X63914307Y-55396007D01*
X63923208Y-55395169D01*
X63932100Y-55394251D01*
X63940984Y-55393254D01*
X63949858Y-55392178D01*
X63958723Y-55391022D01*
X63967576Y-55389787D01*
X63976419Y-55388473D01*
X63985249Y-55387080D01*
X63994067Y-55385608D01*
X64002871Y-55384057D01*
X64011662Y-55382428D01*
X64020437Y-55380719D01*
X64029198Y-55378933D01*
X64037942Y-55377068D01*
X64046670Y-55375125D01*
X64055380Y-55373103D01*
X64064072Y-55371004D01*
X64072745Y-55368827D01*
X64081398Y-55366573D01*
X64090032Y-55364241D01*
X64098645Y-55361832D01*
X64107235Y-55359346D01*
X64115804Y-55356783D01*
X64124350Y-55354144D01*
X64132872Y-55351428D01*
X64141370Y-55348636D01*
X64149842Y-55345768D01*
X64158289Y-55342824D01*
X64166709Y-55339805D01*
X64175103Y-55336710D01*
X64183468Y-55333541D01*
X64191805Y-55330297D01*
X64200112Y-55326978D01*
X64208390Y-55323585D01*
X64212518Y-55321861D01*
X64216637Y-55320118D01*
X64220749Y-55318357D01*
X64224853Y-55316578D01*
X64228949Y-55314780D01*
X64233037Y-55312964D01*
X64237117Y-55311130D01*
X64241188Y-55309277D01*
X64245252Y-55307407D01*
X64249306Y-55305518D01*
X64253353Y-55303611D01*
X64257390Y-55301686D01*
X64261419Y-55299743D01*
X64265440Y-55297782D01*
X64269451Y-55295803D01*
X64273454Y-55293806D01*
X64277448Y-55291791D01*
X64281432Y-55289758D01*
X64285407Y-55287708D01*
X64289374Y-55285640D01*
X64293331Y-55283554D01*
X64297278Y-55281450D01*
X64301216Y-55279329D01*
X64305145Y-55277191D01*
X64309063Y-55275034D01*
X64312973Y-55272861D01*
X64316872Y-55270670D01*
X64320761Y-55268461D01*
X64324641Y-55266235D01*
X64328510Y-55263992D01*
X64332370Y-55261731D01*
X64336219Y-55259453D01*
X64340058Y-55257159D01*
X64343887Y-55254846D01*
X64347704Y-55252517D01*
X64351513Y-55250171D01*
X64355309Y-55247808D01*
X64359096Y-55245428D01*
X64362872Y-55243031D01*
X64366637Y-55240617D01*
X64370391Y-55238186D01*
X64374134Y-55235739D01*
X64377866Y-55233275D01*
X64381588Y-55230794D01*
X64385297Y-55228297D01*
X64388996Y-55225782D01*
X64392683Y-55223252D01*
X64396360Y-55220705D01*
X64400024Y-55218142D01*
X64403678Y-55215562D01*
X64407319Y-55212966D01*
X64410949Y-55210354D01*
X64414567Y-55207725D01*
X64418173Y-55205080D01*
X64421767Y-55202420D01*
X64425350Y-55199743D01*
X64428920Y-55197050D01*
X64432479Y-55194341D01*
X64436025Y-55191617D01*
X64439560Y-55188876D01*
X64443081Y-55186120D01*
X64446591Y-55183347D01*
X64450088Y-55180559D01*
X64453573Y-55177755D01*
X64457045Y-55174937D01*
X64460505Y-55172102D01*
X64463951Y-55169252D01*
X64467386Y-55166386D01*
X64470807Y-55163505D01*
X64474216Y-55160608D01*
X64477611Y-55157697D01*
X64480995Y-55154769D01*
X64484364Y-55151828D01*
X64487721Y-55148870D01*
X64491064Y-55145898D01*
X64494395Y-55142910D01*
X64497711Y-55139908D01*
X64501015Y-55136890D01*
X64504305Y-55133858D01*
X64507582Y-55130811D01*
X64510845Y-55127750D01*
X64514096Y-55124672D01*
X64517331Y-55121582D01*
X64520554Y-55118475D01*
X64523763Y-55115355D01*
X64526958Y-55112220D01*
X64532107Y-55107108D01*
X64532107Y-15692892D02*
X64525753Y-15686594D01*
X64519344Y-15680355D01*
X64512880Y-15674173D01*
X64506362Y-15668050D01*
X64499790Y-15661987D01*
X64493165Y-15655982D01*
X64486486Y-15650038D01*
X64479755Y-15644153D01*
X64472972Y-15638330D01*
X64466138Y-15632567D01*
X64459252Y-15626866D01*
X64452316Y-15621227D01*
X64445329Y-15615651D01*
X64438294Y-15610137D01*
X64431209Y-15604686D01*
X64424076Y-15599299D01*
X64416894Y-15593976D01*
X64409666Y-15588717D01*
X64402390Y-15583523D01*
X64395068Y-15578394D01*
X64387700Y-15573331D01*
X64380288Y-15568333D01*
X64372830Y-15563402D01*
X64365328Y-15558538D01*
X64357783Y-15553741D01*
X64350196Y-15549011D01*
X64342565Y-15544350D01*
X64334894Y-15539756D01*
X64327181Y-15535231D01*
X64319428Y-15530776D01*
X64311634Y-15526389D01*
X64303802Y-15522072D01*
X64295931Y-15517826D01*
X64288022Y-15513649D01*
X64280076Y-15509544D01*
X64272094Y-15505509D01*
X64264075Y-15501546D01*
X64256021Y-15497655D01*
X64247932Y-15493836D01*
X64239809Y-15490089D01*
X64231653Y-15486415D01*
X64223464Y-15482814D01*
X64215244Y-15479287D01*
X64206992Y-15475832D01*
X64202854Y-15474133D01*
X64198709Y-15472452D01*
X64194556Y-15470790D01*
X64190396Y-15469146D01*
X64186229Y-15467521D01*
X64182054Y-15465915D01*
X64177872Y-15464327D01*
X64173683Y-15462758D01*
X64169488Y-15461207D01*
X64165285Y-15459676D01*
X64161075Y-15458163D01*
X64156859Y-15456669D01*
X64152636Y-15455194D01*
X64148407Y-15453738D01*
X64144171Y-15452301D01*
X64139928Y-15450883D01*
X64135680Y-15449483D01*
X64131425Y-15448103D01*
X64127164Y-15446742D01*
X64122897Y-15445400D01*
X64118625Y-15444077D01*
X64114346Y-15442773D01*
X64110062Y-15441488D01*
X64105771Y-15440223D01*
X64101476Y-15438976D01*
X64097174Y-15437749D01*
X64092868Y-15436541D01*
X64088556Y-15435353D01*
X64084239Y-15434183D01*
X64079916Y-15433033D01*
X64075589Y-15431903D01*
X64071256Y-15430792D01*
X64066919Y-15429700D01*
X64062577Y-15428627D01*
X64058230Y-15427575D01*
X64053878Y-15426541D01*
X64049523Y-15425527D01*
X64045162Y-15424533D01*
X64040797Y-15423558D01*
X64036428Y-15422602D01*
X64032055Y-15421666D01*
X64027677Y-15420750D01*
X64023296Y-15419853D01*
X64018910Y-15418976D01*
X64014521Y-15418119D01*
X64010128Y-15417281D01*
X64005731Y-15416463D01*
X64001330Y-15415664D01*
X63996927Y-15414886D01*
X63992519Y-15414127D01*
X63988109Y-15413387D01*
X63983695Y-15412668D01*
X63979278Y-15411968D01*
X63974857Y-15411288D01*
X63970435Y-15410628D01*
X63966008Y-15409987D01*
X63961579Y-15409367D01*
X63957147Y-15408766D01*
X63952713Y-15408185D01*
X63948276Y-15407624D01*
X63943837Y-15407082D01*
X63939394Y-15406561D01*
X63934950Y-15406059D01*
X63930503Y-15405578D01*
X63926055Y-15405116D01*
X63921603Y-15404674D01*
X63917151Y-15404252D01*
X63912696Y-15403850D01*
X63908240Y-15403468D01*
X63903780Y-15403106D01*
X63899321Y-15402763D01*
X63894858Y-15402441D01*
X63890396Y-15402139D01*
X63885930Y-15401856D01*
X63881465Y-15401594D01*
X63876997Y-15401351D01*
X63872529Y-15401129D01*
X63868058Y-15400926D01*
X63863588Y-15400744D01*
X63859115Y-15400581D01*
X63854643Y-15400439D01*
X63850169Y-15400316D01*
X63845695Y-15400214D01*
X63841219Y-15400131D01*
X63836744Y-15400069D01*
X63832267Y-15400026D01*
X63825000Y-15400000D01*
X64532107Y-55107108D02*
X64538405Y-55100754D01*
X64544644Y-55094344D01*
X64550826Y-55087880D01*
X64556949Y-55081362D01*
X64563013Y-55074789D01*
X64569018Y-55068163D01*
X64574962Y-55061485D01*
X64580847Y-55054753D01*
X64586670Y-55047970D01*
X64592433Y-55041135D01*
X64598134Y-55034249D01*
X64603773Y-55027312D01*
X64609350Y-55020326D01*
X64614864Y-55013289D01*
X64620314Y-55006204D01*
X64625702Y-54999070D01*
X64631025Y-54991889D01*
X64636284Y-54984660D01*
X64641478Y-54977384D01*
X64646607Y-54970061D01*
X64651671Y-54962693D01*
X64656668Y-54955280D01*
X64661599Y-54947822D01*
X64666463Y-54940320D01*
X64671261Y-54932775D01*
X64675990Y-54925187D01*
X64680652Y-54917556D01*
X64685246Y-54909884D01*
X64689771Y-54902171D01*
X64694226Y-54894417D01*
X64698613Y-54886624D01*
X64702930Y-54878791D01*
X64707177Y-54870920D01*
X64711353Y-54863011D01*
X64715458Y-54855065D01*
X64719493Y-54847082D01*
X64723456Y-54839063D01*
X64727347Y-54831008D01*
X64731166Y-54822919D01*
X64734913Y-54814796D01*
X64738587Y-54806640D01*
X64742188Y-54798451D01*
X64745716Y-54790230D01*
X64749170Y-54781978D01*
X64750870Y-54777840D01*
X64752550Y-54773695D01*
X64754213Y-54769542D01*
X64755856Y-54765382D01*
X64757482Y-54761214D01*
X64759088Y-54757040D01*
X64760676Y-54752858D01*
X64762245Y-54748669D01*
X64763795Y-54744473D01*
X64765327Y-54740270D01*
X64766840Y-54736061D01*
X64768333Y-54731844D01*
X64769808Y-54727621D01*
X64771265Y-54723392D01*
X64772702Y-54719156D01*
X64774120Y-54714913D01*
X64775519Y-54710665D01*
X64776900Y-54706410D01*
X64778261Y-54702149D01*
X64779603Y-54697882D01*
X64780926Y-54693609D01*
X64782230Y-54689330D01*
X64783514Y-54685046D01*
X64784780Y-54680756D01*
X64786026Y-54676460D01*
X64787253Y-54672159D01*
X64788461Y-54667852D01*
X64789650Y-54663540D01*
X64790819Y-54659223D01*
X64791969Y-54654900D01*
X64793099Y-54650573D01*
X64794211Y-54646241D01*
X64795302Y-54641904D01*
X64796375Y-54637561D01*
X64797428Y-54633215D01*
X64798461Y-54628863D01*
X64799475Y-54624507D01*
X64800470Y-54620146D01*
X64801444Y-54615782D01*
X64802400Y-54611412D01*
X64803336Y-54607039D01*
X64804252Y-54602661D01*
X64805149Y-54598280D01*
X64806026Y-54593895D01*
X64806883Y-54589506D01*
X64807721Y-54585112D01*
X64808539Y-54580716D01*
X64809337Y-54576315D01*
X64810116Y-54571912D01*
X64810875Y-54567504D01*
X64811614Y-54563094D01*
X64812334Y-54558679D01*
X64813034Y-54554263D01*
X64813714Y-54549842D01*
X64814374Y-54545420D01*
X64815014Y-54540993D01*
X64815635Y-54536565D01*
X64816236Y-54532132D01*
X64816816Y-54527699D01*
X64817378Y-54523261D01*
X64817919Y-54518822D01*
X64818440Y-54514380D01*
X64818942Y-54509936D01*
X64819423Y-54505489D01*
X64819885Y-54501041D01*
X64820327Y-54496589D01*
X64820749Y-54492137D01*
X64821151Y-54487682D01*
X64821533Y-54483226D01*
X64821895Y-54478767D01*
X64822237Y-54474307D01*
X64822560Y-54469845D01*
X64822862Y-54465383D01*
X64823144Y-54460917D01*
X64823407Y-54456452D01*
X64823649Y-54451984D01*
X64823872Y-54447516D01*
X64824074Y-54443045D01*
X64824256Y-54438576D01*
X64824419Y-54434103D01*
X64824561Y-54429631D01*
X64824684Y-54425157D01*
X64824786Y-54420683D01*
X64824869Y-54416208D01*
X64824931Y-54411733D01*
X64824974Y-54407256D01*
X64825000Y-54400000D01*
X64825000Y-16400000D02*
X64824960Y-16391054D01*
X64824840Y-16382109D01*
X64824640Y-16373167D01*
X64824361Y-16364228D01*
X64824001Y-16355293D01*
X64823562Y-16346362D01*
X64823043Y-16337436D01*
X64822444Y-16328515D01*
X64821765Y-16319601D01*
X64821007Y-16310693D01*
X64820169Y-16301793D01*
X64819251Y-16292900D01*
X64818254Y-16284017D01*
X64817178Y-16275142D01*
X64816022Y-16266278D01*
X64814787Y-16257425D01*
X64813473Y-16248582D01*
X64812080Y-16239752D01*
X64810608Y-16230934D01*
X64809057Y-16222130D01*
X64807428Y-16213340D01*
X64805720Y-16204564D01*
X64803933Y-16195804D01*
X64802068Y-16187060D01*
X64800125Y-16178332D01*
X64798103Y-16169622D01*
X64796004Y-16160930D01*
X64793827Y-16152257D01*
X64791573Y-16143604D01*
X64789241Y-16134970D01*
X64786832Y-16126358D01*
X64784346Y-16117767D01*
X64781783Y-16109199D01*
X64779144Y-16100653D01*
X64776428Y-16092131D01*
X64773636Y-16083633D01*
X64770768Y-16075161D01*
X64767824Y-16066714D01*
X64764805Y-16058294D01*
X64761710Y-16049901D01*
X64758541Y-16041535D01*
X64755297Y-16033198D01*
X64751978Y-16024891D01*
X64748585Y-16016613D01*
X64746861Y-16012486D01*
X64745118Y-16008366D01*
X64743357Y-16004254D01*
X64741578Y-16000150D01*
X64739780Y-15996054D01*
X64737964Y-15991966D01*
X64736130Y-15987886D01*
X64734277Y-15983815D01*
X64732407Y-15979752D01*
X64730518Y-15975697D01*
X64728611Y-15971651D01*
X64726686Y-15967613D01*
X64724743Y-15963584D01*
X64722782Y-15959563D01*
X64720803Y-15955552D01*
X64718806Y-15951549D01*
X64716791Y-15947555D01*
X64714758Y-15943571D01*
X64712708Y-15939595D01*
X64710639Y-15935629D01*
X64708554Y-15931672D01*
X64706450Y-15927724D01*
X64704329Y-15923787D01*
X64702190Y-15919858D01*
X64700034Y-15915939D01*
X64697860Y-15912030D01*
X64695669Y-15908131D01*
X64693460Y-15904241D01*
X64691234Y-15900362D01*
X64688991Y-15896492D01*
X64686730Y-15892633D01*
X64684452Y-15888783D01*
X64682157Y-15884944D01*
X64679845Y-15881115D01*
X64677516Y-15877297D01*
X64675170Y-15873489D01*
X64672807Y-15869692D01*
X64670426Y-15865905D01*
X64668029Y-15862130D01*
X64665615Y-15858364D01*
X64663185Y-15854610D01*
X64660737Y-15850867D01*
X64658273Y-15847135D01*
X64655792Y-15843413D01*
X64653295Y-15839703D01*
X64650780Y-15836004D01*
X64648250Y-15832317D01*
X64645703Y-15828640D01*
X64643140Y-15824976D01*
X64640559Y-15821322D01*
X64637964Y-15817681D01*
X64635351Y-15814051D01*
X64632723Y-15810433D01*
X64630078Y-15806826D01*
X64627417Y-15803232D01*
X64624740Y-15799649D01*
X64622047Y-15796078D01*
X64619338Y-15792519D01*
X64616613Y-15788973D01*
X64613872Y-15785438D01*
X64611116Y-15781917D01*
X64608343Y-15778407D01*
X64605556Y-15774910D01*
X64602751Y-15771424D01*
X64599933Y-15767953D01*
X64597097Y-15764492D01*
X64594247Y-15761046D01*
X64591381Y-15757611D01*
X64588500Y-15754190D01*
X64585603Y-15750780D01*
X64582692Y-15747385D01*
X64579764Y-15744001D01*
X64576822Y-15740632D01*
X64573864Y-15737275D01*
X64570892Y-15733931D01*
X64567904Y-15730600D01*
X64564902Y-15727284D01*
X64561884Y-15723979D01*
X64558852Y-15720689D01*
X64555804Y-15717411D01*
X64552743Y-15714148D01*
X64549665Y-15710898D01*
X64546574Y-15707662D01*
X64543468Y-15704439D01*
X64540348Y-15701230D01*
X64537212Y-15698034D01*
X64532107Y-15692892D01*
D10*
X64825000Y-22900000D02*
X64825000Y-16400000D01*
D11*
X64825000Y-22900000D02*
X64825040Y-22916155D01*
X64825160Y-22932307D01*
X64825360Y-22948455D01*
X64825640Y-22964600D01*
X64825999Y-22980740D01*
X64826439Y-22996876D01*
X64826958Y-23013007D01*
X64827557Y-23029134D01*
X64828236Y-23045255D01*
X64828995Y-23061370D01*
X64829834Y-23077480D01*
X64830752Y-23093583D01*
X64831750Y-23109680D01*
X64832828Y-23125770D01*
X64833985Y-23141853D01*
X64835222Y-23157929D01*
X64836539Y-23173997D01*
X64837935Y-23190057D01*
X64839411Y-23206108D01*
X64840966Y-23222151D01*
X64842601Y-23238185D01*
X64844315Y-23254209D01*
X64846108Y-23270224D01*
X64847981Y-23286229D01*
X64849933Y-23302224D01*
X64851965Y-23318208D01*
X64854075Y-23334181D01*
X64856265Y-23350143D01*
X64858534Y-23366093D01*
X64860882Y-23382031D01*
X64863309Y-23397957D01*
X64865815Y-23413870D01*
X64868400Y-23429771D01*
X64871063Y-23445658D01*
X64873806Y-23461531D01*
X64876627Y-23477391D01*
X64879527Y-23493236D01*
X64882506Y-23509067D01*
X64885563Y-23524882D01*
X64888698Y-23540682D01*
X64891912Y-23556467D01*
X64895205Y-23572235D01*
X64898575Y-23587987D01*
X64902024Y-23603723D01*
X64905551Y-23619441D01*
X64909156Y-23635141D01*
X64912839Y-23650824D01*
X64916599Y-23666489D01*
X64920438Y-23682135D01*
X64924354Y-23697762D01*
X64928348Y-23713370D01*
X64932420Y-23728958D01*
X64936568Y-23744526D01*
X64940795Y-23760074D01*
X64945098Y-23775601D01*
X64949479Y-23791107D01*
X64953936Y-23806592D01*
X64958471Y-23822055D01*
X64963082Y-23837495D01*
X64967770Y-23852913D01*
X64972535Y-23868308D01*
X64977376Y-23883680D01*
X64982294Y-23899028D01*
X64987287Y-23914352D01*
X64992358Y-23929651D01*
X64997504Y-23944926D01*
X65002726Y-23960176D01*
X65008023Y-23975400D01*
X65013397Y-23990598D01*
X65018846Y-24005769D01*
X65024370Y-24020914D01*
X65029970Y-24036032D01*
X65035645Y-24051123D01*
X65041394Y-24066186D01*
X65047219Y-24081220D01*
X65053118Y-24096227D01*
X65059092Y-24111204D01*
X65065141Y-24126151D01*
X65071263Y-24141069D01*
X65077460Y-24155958D01*
X65083731Y-24170815D01*
X65090075Y-24185642D01*
X65096493Y-24200437D01*
X65102985Y-24215201D01*
X65109550Y-24229933D01*
X65116188Y-24244633D01*
X65122899Y-24259300D01*
X65129683Y-24273934D01*
X65136540Y-24288534D01*
X65143469Y-24303101D01*
X65150470Y-24317633D01*
X65157544Y-24332131D01*
X65164689Y-24346594D01*
X65171906Y-24361021D01*
X65179195Y-24375413D01*
X65186556Y-24389769D01*
X65193987Y-24404088D01*
X65201489Y-24418371D01*
X65209063Y-24432616D01*
X65216707Y-24446824D01*
X65224421Y-24460994D01*
X65232206Y-24475125D01*
X65240060Y-24489218D01*
X65247985Y-24503272D01*
X65255979Y-24517286D01*
X65264042Y-24531261D01*
X65268100Y-24538233D01*
X65272175Y-24545195D01*
X65276267Y-24552148D01*
X65280377Y-24559090D01*
X65284504Y-24566021D01*
X65288647Y-24572943D01*
X65292808Y-24579854D01*
X65296987Y-24586755D01*
X65301182Y-24593645D01*
X65305394Y-24600525D01*
X65309623Y-24607395D01*
X65313870Y-24614254D01*
X65318133Y-24621102D01*
X65322413Y-24627940D01*
X65326710Y-24634767D01*
X65331024Y-24641584D01*
X65335355Y-24648390D01*
X65339703Y-24655185D01*
X65344068Y-24661969D01*
X65348449Y-24668742D01*
X65352847Y-24675504D01*
X65357262Y-24682256D01*
X65361694Y-24688996D01*
X65366142Y-24695726D01*
X65370607Y-24702444D01*
X65375089Y-24709151D01*
X65379587Y-24715847D01*
X65384101Y-24722532D01*
X65388632Y-24729205D01*
X65393180Y-24735867D01*
X65397744Y-24742518D01*
X65402325Y-24749157D01*
X65406922Y-24755785D01*
X65411535Y-24762402D01*
X65416165Y-24769007D01*
X65420811Y-24775600D01*
X65425473Y-24782182D01*
X65430152Y-24788752D01*
X65434847Y-24795310D01*
X65439558Y-24801857D01*
X65444285Y-24808392D01*
X65449029Y-24814915D01*
X65453788Y-24821427D01*
X65458564Y-24827926D01*
X65463355Y-24834413D01*
X65468163Y-24840889D01*
X65472986Y-24847352D01*
X65477826Y-24853804D01*
X65482682Y-24860243D01*
X65487553Y-24866670D01*
X65492440Y-24873085D01*
X65497343Y-24879488D01*
X65502262Y-24885878D01*
X65507197Y-24892257D01*
X65512147Y-24898622D01*
X65517114Y-24904976D01*
X65522095Y-24911317D01*
X65527093Y-24917646D01*
X65532106Y-24923961D01*
X65537135Y-24930265D01*
X65542179Y-24936556D01*
X65547239Y-24942834D01*
X65552313Y-24949100D01*
X65557404Y-24955353D01*
X65562510Y-24961593D01*
X65567632Y-24967820D01*
X65572769Y-24974035D01*
X65577921Y-24980237D01*
X65583088Y-24986425D01*
X65588271Y-24992602D01*
X65593469Y-24998764D01*
X65598682Y-25004915D01*
X65603910Y-25011051D01*
X65609154Y-25017175D01*
X65614412Y-25023286D01*
X65619686Y-25029383D01*
X65624975Y-25035467D01*
X65630279Y-25041539D01*
X65635597Y-25047596D01*
X65640931Y-25053641D01*
X65646279Y-25059672D01*
X65651643Y-25065690D01*
X65657020Y-25071694D01*
X65662414Y-25077686D01*
X65667821Y-25083663D01*
X65673244Y-25089627D01*
X65678681Y-25095577D01*
X65684133Y-25101514D01*
X65689599Y-25107437D01*
X65695081Y-25113347D01*
X65700576Y-25119242D01*
X65706087Y-25125124D01*
X65711611Y-25130992D01*
X65717151Y-25136847D01*
X65722704Y-25142687D01*
X65728273Y-25148514D01*
X65733855Y-25154327D01*
X65739452Y-25160126D01*
X65745063Y-25165910D01*
X65750688Y-25171682D01*
X65756328Y-25177438D01*
X65761982Y-25183181D01*
X65767649Y-25188909D01*
X65773332Y-25194624D01*
X65779028Y-25200324D01*
X65784739Y-25206010D01*
X65790463Y-25211682D01*
X65796201Y-25217340D01*
X65801953Y-25222982D01*
X65807720Y-25228612D01*
X65813500Y-25234226D01*
X65819294Y-25239826D01*
X65825102Y-25245411D01*
X65830924Y-25250983D01*
X65836759Y-25256539D01*
X65842609Y-25262081D01*
X65848471Y-25267608D01*
X65854348Y-25273122D01*
X65860238Y-25278619D01*
X65866142Y-25284103D01*
X65872059Y-25289572D01*
X65877991Y-25295026D01*
X65883935Y-25300465D01*
X65889893Y-25305890D01*
X65895864Y-25311299D01*
X65901849Y-25316695D01*
X65907847Y-25322074D01*
X65913859Y-25327440D01*
X65919883Y-25332789D01*
X65925921Y-25338125D01*
X65931972Y-25343444D01*
X65938037Y-25348750D01*
X65944114Y-25354039D01*
X65950205Y-25359315D01*
X65956309Y-25364574D01*
X65962426Y-25369819D01*
X65968556Y-25375048D01*
X65974699Y-25380263D01*
X65980854Y-25385461D01*
X65987024Y-25390646D01*
X65993205Y-25395814D01*
X65999400Y-25400967D01*
X66005607Y-25406104D01*
X66011828Y-25411227D01*
X66018060Y-25416334D01*
X66024307Y-25421426D01*
X66030564Y-25426501D01*
X66036836Y-25431562D01*
X66043119Y-25436607D01*
X66049416Y-25441637D01*
X66055724Y-25446650D01*
X66062046Y-25451649D01*
X66068379Y-25456631D01*
X66074727Y-25461599D01*
X66081085Y-25466550D01*
X66087456Y-25471486D01*
X66093839Y-25476405D01*
X66100236Y-25481310D01*
X66106643Y-25486198D01*
X66113065Y-25491071D01*
X66119496Y-25495927D01*
X66125942Y-25500769D01*
X66132398Y-25505593D01*
X66138868Y-25510403D01*
X66145349Y-25515195D01*
X66151843Y-25519973D01*
X66158348Y-25524734D01*
X66164866Y-25529480D01*
X66171394Y-25534208D01*
X66177936Y-25538922D01*
X66184489Y-25543618D01*
X66191055Y-25548300D01*
X66197631Y-25552964D01*
X66204220Y-25557613D01*
X66210820Y-25562245D01*
X66217433Y-25566862D01*
X66224056Y-25571461D01*
X66230693Y-25576046D01*
X66237339Y-25580612D01*
X66243999Y-25585164D01*
X66250669Y-25589699D01*
X66257352Y-25594218D01*
X66264044Y-25598719D01*
X66270750Y-25603206D01*
X66277466Y-25607674D01*
X66284195Y-25612128D01*
X66290933Y-25616564D01*
X66297685Y-25620984D01*
X66304446Y-25625387D01*
X66311220Y-25629775D01*
X66318004Y-25634145D01*
X66324801Y-25638499D01*
X66331607Y-25642836D01*
X66338426Y-25647157D01*
X66345254Y-25651461D01*
X66352096Y-25655749D01*
X66358946Y-25660019D01*
X66365810Y-25664273D01*
X66372683Y-25668510D01*
X66379568Y-25672731D01*
X66386463Y-25676935D01*
X66393370Y-25681122D01*
X66400287Y-25685292D01*
X66407216Y-25689446D01*
X66414154Y-25693582D01*
X66421105Y-25697702D01*
X66428065Y-25701805D01*
X66435037Y-25705891D01*
X66442018Y-25709960D01*
X66449012Y-25714012D01*
X66450000Y-25714583D01*
D10*
X64825000Y-47900000D02*
X64825000Y-54400000D01*
D11*
X66450000Y-25714583D02*
X66464011Y-25722626D01*
X66478059Y-25730598D01*
X66492143Y-25738499D01*
X66506265Y-25746329D01*
X66520423Y-25754088D01*
X66534617Y-25761775D01*
X66548846Y-25769391D01*
X66563112Y-25776935D01*
X66577413Y-25784408D01*
X66591748Y-25791809D01*
X66606119Y-25799137D01*
X66620524Y-25806394D01*
X66634964Y-25813578D01*
X66649437Y-25820690D01*
X66663944Y-25827729D01*
X66678484Y-25834695D01*
X66693058Y-25841589D01*
X66707664Y-25848410D01*
X66722303Y-25855158D01*
X66736974Y-25861832D01*
X66751677Y-25868434D01*
X66766412Y-25874961D01*
X66781178Y-25881416D01*
X66795975Y-25887796D01*
X66810803Y-25894103D01*
X66825661Y-25900336D01*
X66840549Y-25906494D01*
X66855468Y-25912579D01*
X66870415Y-25918589D01*
X66885392Y-25924525D01*
X66900398Y-25930386D01*
X66915433Y-25936173D01*
X66930495Y-25941884D01*
X66945586Y-25947521D01*
X66960704Y-25953083D01*
X66975849Y-25958569D01*
X66991021Y-25963980D01*
X67006220Y-25969316D01*
X67021446Y-25974577D01*
X67036697Y-25979761D01*
X67051973Y-25984870D01*
X67067275Y-25989903D01*
X67082602Y-25994860D01*
X67097954Y-25999741D01*
X67113329Y-26004546D01*
X67128729Y-26009274D01*
X67144152Y-26013926D01*
X67159598Y-26018501D01*
X67175068Y-26023000D01*
X67190559Y-26027422D01*
X67206073Y-26031767D01*
X67221608Y-26036036D01*
X67237165Y-26040227D01*
X67252743Y-26044341D01*
X67268342Y-26048377D01*
X67283961Y-26052337D01*
X67299599Y-26056219D01*
X67315258Y-26060023D01*
X67330935Y-26063750D01*
X67346632Y-26067399D01*
X67362346Y-26070970D01*
X67378079Y-26074463D01*
X67393830Y-26077879D01*
X67409598Y-26081216D01*
X67425382Y-26084475D01*
X67441184Y-26087655D01*
X67457001Y-26090758D01*
X67472834Y-26093782D01*
X67488683Y-26096727D01*
X67504547Y-26099594D01*
X67520425Y-26102383D01*
X67536317Y-26105092D01*
X67552223Y-26107723D01*
X67568143Y-26110275D01*
X67584075Y-26112748D01*
X67600021Y-26115142D01*
X67615978Y-26117457D01*
X67631947Y-26119693D01*
X67647928Y-26121850D01*
X67663920Y-26123927D01*
X67679922Y-26125925D01*
X67695935Y-26127844D01*
X67711957Y-26129684D01*
X67727989Y-26131444D01*
X67744030Y-26133125D01*
X67760079Y-26134726D01*
X67776136Y-26136247D01*
X67792202Y-26137689D01*
X67808274Y-26139051D01*
X67824354Y-26140334D01*
X67840440Y-26141537D01*
X67856532Y-26142660D01*
X67872630Y-26143703D01*
X67888733Y-26144666D01*
X67904841Y-26145550D01*
X67920954Y-26146354D01*
X67937070Y-26147078D01*
X67953190Y-26147721D01*
X67969314Y-26148285D01*
X67985440Y-26148769D01*
X68001568Y-26149174D01*
X68017699Y-26149498D01*
X68033831Y-26149742D01*
X68049964Y-26149906D01*
X68066098Y-26149990D01*
X68082232Y-26149994D01*
X68090299Y-26149966D01*
X68098366Y-26149918D01*
X68106433Y-26149850D01*
X68114499Y-26149762D01*
X68122566Y-26149655D01*
X68130632Y-26149527D01*
X68138698Y-26149379D01*
X68146763Y-26149211D01*
X68154828Y-26149023D01*
X68162892Y-26148815D01*
X68170956Y-26148587D01*
X68179019Y-26148339D01*
X68187082Y-26148071D01*
X68195144Y-26147783D01*
X68203205Y-26147476D01*
X68211265Y-26147148D01*
X68219325Y-26146800D01*
X68227383Y-26146432D01*
X68235441Y-26146044D01*
X68243497Y-26145637D01*
X68251552Y-26145209D01*
X68259607Y-26144761D01*
X68267660Y-26144293D01*
X68275712Y-26143806D01*
X68283762Y-26143298D01*
X68291812Y-26142771D01*
X68299859Y-26142223D01*
X68307906Y-26141656D01*
X68315951Y-26141068D01*
X68323994Y-26140461D01*
X68332036Y-26139834D01*
X68340076Y-26139187D01*
X68348115Y-26138519D01*
X68356151Y-26137832D01*
X68364186Y-26137125D01*
X68372219Y-26136398D01*
X68380250Y-26135652D01*
X68388280Y-26134885D01*
X68396307Y-26134098D01*
X68404332Y-26133292D01*
X68412355Y-26132465D01*
X68420376Y-26131619D01*
X68428394Y-26130753D01*
X68436411Y-26129867D01*
X68444425Y-26128961D01*
X68452437Y-26128035D01*
X68460446Y-26127089D01*
X68468453Y-26126124D01*
X68476457Y-26125139D01*
X68484459Y-26124133D01*
X68492458Y-26123108D01*
X68500455Y-26122064D01*
X68508448Y-26120999D01*
X68516439Y-26119914D01*
X68524427Y-26118810D01*
X68532413Y-26117686D01*
X68540395Y-26116542D01*
X68548374Y-26115379D01*
X68556350Y-26114195D01*
X68564324Y-26112992D01*
X68572294Y-26111769D01*
X68580261Y-26110526D01*
X68588225Y-26109264D01*
X68596186Y-26107982D01*
X68604142Y-26106680D01*
X68612097Y-26105358D01*
X68620046Y-26104017D01*
X68627994Y-26102656D01*
X68635937Y-26101275D01*
X68643877Y-26099875D01*
X68651813Y-26098455D01*
X68659746Y-26097015D01*
X68667674Y-26095556D01*
X68675600Y-26094076D01*
X68683521Y-26092578D01*
X68691438Y-26091059D01*
X68699351Y-26089522D01*
X68707261Y-26087964D01*
X68715167Y-26086387D01*
X68723068Y-26084790D01*
X68730965Y-26083174D01*
X68738859Y-26081538D01*
X68746748Y-26079883D01*
X68754633Y-26078207D01*
X68762513Y-26076513D01*
X68770389Y-26074799D01*
X68778261Y-26073065D01*
X68786129Y-26071312D01*
X68793991Y-26069540D01*
X68801850Y-26067748D01*
X68809703Y-26065936D01*
X68817552Y-26064105D01*
X68825396Y-26062255D01*
X68833236Y-26060385D01*
X68841071Y-26058495D01*
X68848901Y-26056587D01*
X68856726Y-26054659D01*
X68864547Y-26052711D01*
X68872362Y-26050744D01*
X68880173Y-26048758D01*
X68887977Y-26046752D01*
X68895778Y-26044727D01*
X68903573Y-26042683D01*
X68911363Y-26040619D01*
X68919147Y-26038536D01*
X68926927Y-26036434D01*
X68934701Y-26034312D01*
X68942470Y-26032171D01*
X68950233Y-26030011D01*
X68957991Y-26027832D01*
X68965743Y-26025633D01*
X68973490Y-26023415D01*
X68981231Y-26021179D01*
X68988967Y-26018922D01*
X68996696Y-26016647D01*
X69004421Y-26014352D01*
X69012138Y-26012039D01*
X69019852Y-26009706D01*
X69027558Y-26007354D01*
X69035259Y-26004983D01*
X69042953Y-26002593D01*
X69050643Y-26000183D01*
X69058325Y-25997755D01*
X69066002Y-25995307D01*
X69073672Y-25992841D01*
X69081337Y-25990355D01*
X69088995Y-25987851D01*
X69096647Y-25985327D01*
X69104292Y-25982785D01*
X69111932Y-25980223D01*
X69119565Y-25977643D01*
X69127192Y-25975043D01*
X69134811Y-25972425D01*
X69142425Y-25969788D01*
X69150032Y-25967132D01*
X69157633Y-25964456D01*
X69165226Y-25961763D01*
X69172814Y-25959050D01*
X69180393Y-25956318D01*
X69187968Y-25953567D01*
X69195534Y-25950798D01*
X69203095Y-25948010D01*
X69210647Y-25945203D01*
X69218194Y-25942377D01*
X69225732Y-25939533D01*
X69233265Y-25936670D01*
X69240790Y-25933788D01*
X69248309Y-25930887D01*
X69255819Y-25927968D01*
X69263323Y-25925030D01*
X69270819Y-25922074D01*
X69278309Y-25919098D01*
X69285791Y-25916104D01*
X69293266Y-25913091D01*
X69300733Y-25910061D01*
X69308194Y-25907010D01*
X69315645Y-25903942D01*
X69323091Y-25900855D01*
X69330528Y-25897750D01*
X69337959Y-25894626D01*
X69345380Y-25891484D01*
X69352796Y-25888322D01*
X69360202Y-25885143D01*
X69367602Y-25881945D01*
X69374993Y-25878729D01*
X69382378Y-25875494D01*
X69389753Y-25872241D01*
X69397122Y-25868969D01*
X69404481Y-25865679D01*
X69411834Y-25862370D01*
X69419178Y-25859044D01*
X69426515Y-25855699D01*
X69433842Y-25852336D01*
X69441164Y-25848954D01*
X69448475Y-25845554D01*
X69455779Y-25842135D01*
X69463074Y-25838699D01*
X69470363Y-25835244D01*
X69477641Y-25831771D01*
X69484913Y-25828280D01*
X69492174Y-25824771D01*
X69499429Y-25821243D01*
X69506674Y-25817698D01*
X69513912Y-25814133D01*
X69521140Y-25810552D01*
X69528362Y-25806951D01*
X69535573Y-25803333D01*
X69542777Y-25799697D01*
X69549970Y-25796043D01*
X69557157Y-25792370D01*
X69564333Y-25788680D01*
X69571503Y-25784971D01*
X69578661Y-25781245D01*
X69585813Y-25777500D01*
X69592954Y-25773738D01*
X69600089Y-25769958D01*
X69607212Y-25766160D01*
X69614328Y-25762343D01*
X69621434Y-25758510D01*
X69628532Y-25754657D01*
X69635620Y-25750788D01*
X69642700Y-25746900D01*
X69649769Y-25742995D01*
X69656831Y-25739071D01*
X69663882Y-25735130D01*
X69670926Y-25731171D01*
X69677959Y-25727195D01*
X69684984Y-25723200D01*
X69691998Y-25719188D01*
X69699005Y-25715158D01*
X69700000Y-25714583D01*
X66450000Y-45085417D02*
X66436029Y-45093529D01*
X66422101Y-45101709D01*
X66408216Y-45109956D01*
X66394375Y-45118271D01*
X66380576Y-45126653D01*
X66366822Y-45135101D01*
X66353112Y-45143617D01*
X66339445Y-45152199D01*
X66325824Y-45160848D01*
X66312247Y-45169562D01*
X66298714Y-45178344D01*
X66285228Y-45187191D01*
X66271786Y-45196103D01*
X66258391Y-45205082D01*
X66245041Y-45214126D01*
X66231738Y-45223235D01*
X66218481Y-45232409D01*
X66205270Y-45241648D01*
X66192107Y-45250952D01*
X66178991Y-45260320D01*
X66165923Y-45269753D01*
X66152902Y-45279250D01*
X66139930Y-45288811D01*
X66127006Y-45298435D01*
X66114130Y-45308123D01*
X66101303Y-45317874D01*
X66088525Y-45327689D01*
X66075797Y-45337566D01*
X66063118Y-45347506D01*
X66050489Y-45357509D01*
X66037910Y-45367574D01*
X66025382Y-45377700D01*
X66012904Y-45387889D01*
X66000477Y-45398140D01*
X65988101Y-45408452D01*
X65975777Y-45418825D01*
X65963505Y-45429259D01*
X65951284Y-45439754D01*
X65939116Y-45450309D01*
X65927001Y-45460925D01*
X65914938Y-45471600D01*
X65902928Y-45482336D01*
X65890972Y-45493131D01*
X65879069Y-45503985D01*
X65867220Y-45514899D01*
X65855425Y-45525871D01*
X65843685Y-45536902D01*
X65832000Y-45547991D01*
X65820369Y-45559138D01*
X65808794Y-45570344D01*
X65797274Y-45581606D01*
X65785810Y-45592926D01*
X65774401Y-45604304D01*
X65763050Y-45615737D01*
X65751755Y-45627228D01*
X65740516Y-45638775D01*
X65729335Y-45650377D01*
X65718211Y-45662036D01*
X65707145Y-45673750D01*
X65696137Y-45685519D01*
X65685186Y-45697342D01*
X65674295Y-45709221D01*
X65663462Y-45721154D01*
X65652688Y-45733141D01*
X65641973Y-45745181D01*
X65631318Y-45757275D01*
X65620722Y-45769422D01*
X65610187Y-45781622D01*
X65599711Y-45793875D01*
X65589297Y-45806180D01*
X65578943Y-45818537D01*
X65568650Y-45830945D01*
X65558419Y-45843405D01*
X65548249Y-45855916D01*
X65538141Y-45868477D01*
X65528095Y-45881089D01*
X65518111Y-45893752D01*
X65508190Y-45906463D01*
X65498332Y-45919225D01*
X65488537Y-45932035D01*
X65478805Y-45944895D01*
X65469137Y-45957803D01*
X65459533Y-45970759D01*
X65449993Y-45983763D01*
X65440517Y-45996814D01*
X65431106Y-46009913D01*
X65421759Y-46023058D01*
X65412478Y-46036250D01*
X65403262Y-46049489D01*
X65394112Y-46062773D01*
X65385027Y-46076102D01*
X65376008Y-46089477D01*
X65367056Y-46102897D01*
X65358170Y-46116361D01*
X65349351Y-46129869D01*
X65340598Y-46143421D01*
X65331913Y-46157016D01*
X65323295Y-46170655D01*
X65314745Y-46184336D01*
X65306263Y-46198060D01*
X65297849Y-46211826D01*
X65289503Y-46225633D01*
X65281225Y-46239482D01*
X65273017Y-46253372D01*
X65264877Y-46267302D01*
X65256806Y-46281273D01*
X65252797Y-46288273D01*
X65248805Y-46295283D01*
X65244830Y-46302303D01*
X65240873Y-46309333D01*
X65236933Y-46316373D01*
X65233011Y-46323422D01*
X65229106Y-46330481D01*
X65225219Y-46337550D01*
X65221349Y-46344628D01*
X65217497Y-46351716D01*
X65213663Y-46358814D01*
X65209846Y-46365921D01*
X65206046Y-46373037D01*
X65202265Y-46380163D01*
X65198501Y-46387298D01*
X65194755Y-46394442D01*
X65191026Y-46401596D01*
X65187315Y-46408759D01*
X65183623Y-46415931D01*
X65179947Y-46423112D01*
X65176290Y-46430302D01*
X65172651Y-46437501D01*
X65169029Y-46444709D01*
X65165425Y-46451926D01*
X65161840Y-46459152D01*
X65158272Y-46466386D01*
X65154722Y-46473630D01*
X65151190Y-46480882D01*
X65147677Y-46488143D01*
X65144181Y-46495412D01*
X65140703Y-46502690D01*
X65137244Y-46509977D01*
X65133802Y-46517272D01*
X65130379Y-46524576D01*
X65126974Y-46531888D01*
X65123587Y-46539208D01*
X65120218Y-46546536D01*
X65116867Y-46553874D01*
X65113535Y-46561218D01*
X65110221Y-46568572D01*
X65106925Y-46575933D01*
X65103647Y-46583303D01*
X65100388Y-46590680D01*
X65097147Y-46598066D01*
X65093925Y-46605459D01*
X65090721Y-46612860D01*
X65087535Y-46620269D01*
X65084368Y-46627686D01*
X65081219Y-46635111D01*
X65078089Y-46642543D01*
X65074977Y-46649983D01*
X65071883Y-46657431D01*
X65068809Y-46664886D01*
X65065752Y-46672349D01*
X65062715Y-46679818D01*
X65059695Y-46687296D01*
X65056695Y-46694781D01*
X65053713Y-46702273D01*
X65050750Y-46709772D01*
X65047805Y-46717279D01*
X65044879Y-46724793D01*
X65041972Y-46732314D01*
X65039083Y-46739842D01*
X65036213Y-46747377D01*
X65033362Y-46754919D01*
X65030530Y-46762469D01*
X65027716Y-46770024D01*
X65024921Y-46777587D01*
X65022146Y-46785156D01*
X65019388Y-46792733D01*
X65016650Y-46800316D01*
X65013931Y-46807906D01*
X65011230Y-46815502D01*
X65008548Y-46823105D01*
X65005886Y-46830714D01*
X65003242Y-46838330D01*
X65000617Y-46845952D01*
X64998011Y-46853581D01*
X64995424Y-46861216D01*
X64992856Y-46868857D01*
X64990307Y-46876504D01*
X64987777Y-46884159D01*
X64985267Y-46891818D01*
X64982775Y-46899484D01*
X64980302Y-46907156D01*
X64977848Y-46914834D01*
X64975414Y-46922518D01*
X64972998Y-46930208D01*
X64970602Y-46937903D01*
X64968225Y-46945605D01*
X64965867Y-46953312D01*
X64963528Y-46961026D01*
X64961209Y-46968744D01*
X64958908Y-46976469D01*
X64956627Y-46984198D01*
X64954365Y-46991934D01*
X64952122Y-46999674D01*
X64949899Y-47007421D01*
X64947694Y-47015172D01*
X64945509Y-47022930D01*
X64943344Y-47030692D01*
X64941197Y-47038460D01*
X64939070Y-47046233D01*
X64936962Y-47054011D01*
X64934874Y-47061794D01*
X64932805Y-47069583D01*
X64930755Y-47077376D01*
X64928725Y-47085175D01*
X64926714Y-47092977D01*
X64924722Y-47100786D01*
X64922750Y-47108598D01*
X64920798Y-47116417D01*
X64918864Y-47124239D01*
X64916950Y-47132067D01*
X64915056Y-47139898D01*
X64913181Y-47147735D01*
X64911326Y-47155576D01*
X64909490Y-47163422D01*
X64907674Y-47171271D01*
X64905876Y-47179127D01*
X64904099Y-47186985D01*
X64902341Y-47194849D01*
X64900603Y-47202716D01*
X64898884Y-47210589D01*
X64897185Y-47218464D01*
X64895505Y-47226345D01*
X64893845Y-47234229D01*
X64892204Y-47242118D01*
X64890584Y-47250010D01*
X64888982Y-47257908D01*
X64887401Y-47265807D01*
X64885838Y-47273713D01*
X64884296Y-47281620D01*
X64882773Y-47289533D01*
X64881270Y-47297448D01*
X64879786Y-47305369D01*
X64878323Y-47313291D01*
X64876878Y-47321219D01*
X64875454Y-47329149D01*
X64874049Y-47337084D01*
X64872664Y-47345021D01*
X64871299Y-47352963D01*
X64869953Y-47360907D01*
X64868627Y-47368856D01*
X64867321Y-47376806D01*
X64866034Y-47384762D01*
X64864767Y-47392719D01*
X64863520Y-47400681D01*
X64862293Y-47408644D01*
X64861085Y-47416613D01*
X64859898Y-47424582D01*
X64858730Y-47432557D01*
X64857582Y-47440533D01*
X64856453Y-47448513D01*
X64855345Y-47456495D01*
X64854256Y-47464481D01*
X64853187Y-47472468D01*
X64852138Y-47480460D01*
X64851108Y-47488453D01*
X64850099Y-47496451D01*
X64849109Y-47504449D01*
X64848139Y-47512452D01*
X64847189Y-47520455D01*
X64846259Y-47528463D01*
X64845349Y-47536472D01*
X64844458Y-47544485D01*
X64843588Y-47552498D01*
X64842737Y-47560516D01*
X64841906Y-47568534D01*
X64841095Y-47576557D01*
X64840304Y-47584579D01*
X64839532Y-47592606D01*
X64838781Y-47600634D01*
X64838050Y-47608665D01*
X64837338Y-47616696D01*
X64836646Y-47624732D01*
X64835975Y-47632767D01*
X64835323Y-47640807D01*
X64834691Y-47648846D01*
X64834079Y-47656889D01*
X64833487Y-47664933D01*
X64832915Y-47672980D01*
X64832363Y-47681027D01*
X64831830Y-47689077D01*
X64831318Y-47697128D01*
X64830826Y-47705182D01*
X64830353Y-47713235D01*
X64829901Y-47721293D01*
X64829468Y-47729349D01*
X64829056Y-47737410D01*
X64828663Y-47745469D01*
X64828291Y-47753533D01*
X64827938Y-47761595D01*
X64827605Y-47769662D01*
X64827293Y-47777727D01*
X64827000Y-47785796D01*
X64826727Y-47793864D01*
X64826474Y-47801935D01*
X64826241Y-47810005D01*
X64826029Y-47818079D01*
X64825836Y-47826151D01*
X64825663Y-47834227D01*
X64825510Y-47842302D01*
X64825377Y-47850380D01*
X64825264Y-47858456D01*
X64825172Y-47866536D01*
X64825099Y-47874614D01*
X64825046Y-47882696D01*
X64825013Y-47890776D01*
X64825000Y-47898859D01*
X64825000Y-47900000D01*
X69700000Y-25714583D02*
X69713971Y-25706471D01*
X69727899Y-25698291D01*
X69741784Y-25690044D01*
X69755625Y-25681729D01*
X69769424Y-25673347D01*
X69783178Y-25664899D01*
X69796888Y-25656383D01*
X69810555Y-25647801D01*
X69824176Y-25639152D01*
X69837753Y-25630438D01*
X69851286Y-25621656D01*
X69864772Y-25612809D01*
X69878214Y-25603897D01*
X69891609Y-25594918D01*
X69904959Y-25585874D01*
X69918262Y-25576765D01*
X69931519Y-25567591D01*
X69944730Y-25558352D01*
X69957893Y-25549048D01*
X69971009Y-25539680D01*
X69984077Y-25530247D01*
X69997098Y-25520750D01*
X70010070Y-25511189D01*
X70022994Y-25501565D01*
X70035870Y-25491877D01*
X70048697Y-25482126D01*
X70061475Y-25472311D01*
X70074203Y-25462434D01*
X70086882Y-25452494D01*
X70099511Y-25442491D01*
X70112090Y-25432426D01*
X70124618Y-25422300D01*
X70137096Y-25412111D01*
X70149523Y-25401860D01*
X70161899Y-25391548D01*
X70174223Y-25381175D01*
X70186495Y-25370741D01*
X70198716Y-25360246D01*
X70210884Y-25349691D01*
X70222999Y-25339075D01*
X70235062Y-25328400D01*
X70247072Y-25317664D01*
X70259028Y-25306869D01*
X70270931Y-25296015D01*
X70282780Y-25285101D01*
X70294575Y-25274129D01*
X70306315Y-25263098D01*
X70318000Y-25252009D01*
X70329631Y-25240862D01*
X70341206Y-25229656D01*
X70352726Y-25218394D01*
X70364190Y-25207074D01*
X70375599Y-25195696D01*
X70386950Y-25184263D01*
X70398245Y-25172772D01*
X70409484Y-25161225D01*
X70420665Y-25149623D01*
X70431789Y-25137964D01*
X70442855Y-25126250D01*
X70453863Y-25114481D01*
X70464814Y-25102658D01*
X70475705Y-25090779D01*
X70486538Y-25078846D01*
X70497312Y-25066859D01*
X70508027Y-25054819D01*
X70518682Y-25042725D01*
X70529278Y-25030578D01*
X70539813Y-25018378D01*
X70550289Y-25006125D01*
X70560703Y-24993820D01*
X70571057Y-24981463D01*
X70581350Y-24969055D01*
X70591581Y-24956595D01*
X70601751Y-24944084D01*
X70611859Y-24931523D01*
X70621905Y-24918911D01*
X70631889Y-24906248D01*
X70641810Y-24893537D01*
X70651668Y-24880775D01*
X70661463Y-24867965D01*
X70671195Y-24855105D01*
X70680863Y-24842197D01*
X70690467Y-24829241D01*
X70700007Y-24816237D01*
X70709483Y-24803186D01*
X70718894Y-24790087D01*
X70728241Y-24776942D01*
X70737522Y-24763750D01*
X70746738Y-24750511D01*
X70755888Y-24737227D01*
X70764973Y-24723898D01*
X70773992Y-24710523D01*
X70782944Y-24697103D01*
X70791830Y-24683639D01*
X70800649Y-24670131D01*
X70809402Y-24656579D01*
X70818087Y-24642984D01*
X70826705Y-24629345D01*
X70835255Y-24615664D01*
X70843737Y-24601940D01*
X70852151Y-24588174D01*
X70860497Y-24574367D01*
X70868775Y-24560518D01*
X70876983Y-24546628D01*
X70885123Y-24532698D01*
X70893194Y-24518727D01*
X70897203Y-24511727D01*
X70901195Y-24504717D01*
X70905170Y-24497697D01*
X70909127Y-24490667D01*
X70913067Y-24483627D01*
X70916989Y-24476578D01*
X70920894Y-24469519D01*
X70924781Y-24462450D01*
X70928651Y-24455372D01*
X70932503Y-24448284D01*
X70936337Y-24441186D01*
X70940154Y-24434079D01*
X70943954Y-24426963D01*
X70947735Y-24419837D01*
X70951499Y-24412702D01*
X70955245Y-24405558D01*
X70958974Y-24398404D01*
X70962685Y-24391241D01*
X70966377Y-24384069D01*
X70970053Y-24376888D01*
X70973710Y-24369698D01*
X70977349Y-24362499D01*
X70980971Y-24355291D01*
X70984575Y-24348074D01*
X70988160Y-24340848D01*
X70991728Y-24333614D01*
X70995278Y-24326370D01*
X70998810Y-24319118D01*
X71002323Y-24311857D01*
X71005819Y-24304588D01*
X71009297Y-24297310D01*
X71012756Y-24290023D01*
X71016198Y-24282728D01*
X71019621Y-24275424D01*
X71023026Y-24268112D01*
X71026413Y-24260792D01*
X71029782Y-24253464D01*
X71033133Y-24246126D01*
X71036465Y-24238782D01*
X71039779Y-24231428D01*
X71043075Y-24224067D01*
X71046353Y-24216697D01*
X71049612Y-24209320D01*
X71052853Y-24201934D01*
X71056075Y-24194541D01*
X71059279Y-24187140D01*
X71062465Y-24179731D01*
X71065632Y-24172314D01*
X71068781Y-24164889D01*
X71071911Y-24157457D01*
X71075023Y-24150017D01*
X71078117Y-24142569D01*
X71081191Y-24135114D01*
X71084248Y-24127651D01*
X71087285Y-24120182D01*
X71090305Y-24112704D01*
X71093305Y-24105219D01*
X71096287Y-24097727D01*
X71099250Y-24090228D01*
X71102195Y-24082721D01*
X71105121Y-24075207D01*
X71108028Y-24067686D01*
X71110917Y-24060158D01*
X71113787Y-24052623D01*
X71116638Y-24045081D01*
X71119470Y-24037531D01*
X71122284Y-24029976D01*
X71125079Y-24022413D01*
X71127854Y-24014844D01*
X71130612Y-24007267D01*
X71133350Y-23999684D01*
X71136069Y-23992094D01*
X71138770Y-23984498D01*
X71141452Y-23976895D01*
X71144114Y-23969286D01*
X71146758Y-23961670D01*
X71149383Y-23954048D01*
X71151989Y-23946419D01*
X71154576Y-23938784D01*
X71157144Y-23931143D01*
X71159693Y-23923496D01*
X71162223Y-23915841D01*
X71164733Y-23908182D01*
X71167225Y-23900516D01*
X71169698Y-23892844D01*
X71172152Y-23885166D01*
X71174586Y-23877482D01*
X71177002Y-23869792D01*
X71179398Y-23862097D01*
X71181775Y-23854395D01*
X71184133Y-23846688D01*
X71186472Y-23838974D01*
X71188791Y-23831256D01*
X71191092Y-23823531D01*
X71193373Y-23815802D01*
X71195635Y-23808066D01*
X71197878Y-23800326D01*
X71200101Y-23792579D01*
X71202306Y-23784828D01*
X71204491Y-23777070D01*
X71206656Y-23769308D01*
X71208803Y-23761540D01*
X71210930Y-23753767D01*
X71213038Y-23745989D01*
X71215126Y-23738206D01*
X71217195Y-23730417D01*
X71219245Y-23722624D01*
X71221275Y-23714825D01*
X71223286Y-23707023D01*
X71225278Y-23699214D01*
X71227250Y-23691402D01*
X71229202Y-23683583D01*
X71231136Y-23675761D01*
X71233050Y-23667933D01*
X71234944Y-23660102D01*
X71236819Y-23652265D01*
X71238674Y-23644424D01*
X71240510Y-23636578D01*
X71242326Y-23628729D01*
X71244124Y-23620873D01*
X71245901Y-23613015D01*
X71247659Y-23605151D01*
X71249397Y-23597284D01*
X71251116Y-23589411D01*
X71252815Y-23581536D01*
X71254495Y-23573655D01*
X71256155Y-23565771D01*
X71257796Y-23557882D01*
X71259416Y-23549990D01*
X71261018Y-23542092D01*
X71262599Y-23534193D01*
X71264162Y-23526287D01*
X71265704Y-23518380D01*
X71267227Y-23510467D01*
X71268730Y-23502552D01*
X71270214Y-23494631D01*
X71271677Y-23486709D01*
X71273122Y-23478781D01*
X71274546Y-23470851D01*
X71275951Y-23462916D01*
X71277336Y-23454979D01*
X71278701Y-23447037D01*
X71280047Y-23439093D01*
X71281373Y-23431144D01*
X71282679Y-23423194D01*
X71283966Y-23415238D01*
X71285233Y-23407281D01*
X71286480Y-23399319D01*
X71287707Y-23391356D01*
X71288915Y-23383387D01*
X71290102Y-23375418D01*
X71291270Y-23367443D01*
X71292418Y-23359467D01*
X71293547Y-23351487D01*
X71294655Y-23343505D01*
X71295744Y-23335519D01*
X71296813Y-23327532D01*
X71297862Y-23319540D01*
X71298892Y-23311547D01*
X71299901Y-23303549D01*
X71300891Y-23295551D01*
X71301861Y-23287548D01*
X71302811Y-23279545D01*
X71303741Y-23271537D01*
X71304651Y-23263528D01*
X71305542Y-23255515D01*
X71306412Y-23247502D01*
X71307263Y-23239484D01*
X71308094Y-23231466D01*
X71308905Y-23223443D01*
X71309696Y-23215421D01*
X71310468Y-23207394D01*
X71311219Y-23199366D01*
X71311950Y-23191335D01*
X71312662Y-23183304D01*
X71313354Y-23175268D01*
X71314025Y-23167233D01*
X71314677Y-23159193D01*
X71315309Y-23151154D01*
X71315921Y-23143111D01*
X71316513Y-23135067D01*
X71317085Y-23127020D01*
X71317637Y-23118973D01*
X71318170Y-23110923D01*
X71318682Y-23102872D01*
X71319174Y-23094818D01*
X71319647Y-23086765D01*
X71320099Y-23078707D01*
X71320532Y-23070651D01*
X71320944Y-23062590D01*
X71321337Y-23054531D01*
X71321709Y-23046467D01*
X71322062Y-23038405D01*
X71322395Y-23030338D01*
X71322707Y-23022273D01*
X71323000Y-23014204D01*
X71323273Y-23006136D01*
X71323526Y-22998065D01*
X71323759Y-22989995D01*
X71323971Y-22981921D01*
X71324164Y-22973849D01*
X71324337Y-22965773D01*
X71324490Y-22957698D01*
X71324623Y-22949620D01*
X71324736Y-22941544D01*
X71324828Y-22933464D01*
X71324901Y-22925386D01*
X71324954Y-22917304D01*
X71324987Y-22909224D01*
X71325000Y-22901141D01*
X71325000Y-22900000D01*
X69700000Y-45085417D02*
X69685989Y-45077374D01*
X69671941Y-45069402D01*
X69657857Y-45061501D01*
X69643735Y-45053671D01*
X69629577Y-45045912D01*
X69615383Y-45038225D01*
X69601154Y-45030609D01*
X69586888Y-45023065D01*
X69572587Y-45015592D01*
X69558252Y-45008191D01*
X69543881Y-45000863D01*
X69529476Y-44993606D01*
X69515036Y-44986422D01*
X69500563Y-44979310D01*
X69486056Y-44972271D01*
X69471516Y-44965305D01*
X69456942Y-44958411D01*
X69442336Y-44951590D01*
X69427697Y-44944842D01*
X69413026Y-44938168D01*
X69398323Y-44931566D01*
X69383588Y-44925039D01*
X69368822Y-44918584D01*
X69354025Y-44912204D01*
X69339197Y-44905897D01*
X69324339Y-44899664D01*
X69309451Y-44893506D01*
X69294532Y-44887421D01*
X69279585Y-44881411D01*
X69264608Y-44875475D01*
X69249602Y-44869614D01*
X69234567Y-44863827D01*
X69219505Y-44858116D01*
X69204414Y-44852479D01*
X69189296Y-44846917D01*
X69174151Y-44841431D01*
X69158979Y-44836020D01*
X69143780Y-44830684D01*
X69128554Y-44825423D01*
X69113303Y-44820239D01*
X69098027Y-44815130D01*
X69082725Y-44810097D01*
X69067398Y-44805140D01*
X69052046Y-44800259D01*
X69036671Y-44795454D01*
X69021271Y-44790726D01*
X69005848Y-44786074D01*
X68990402Y-44781499D01*
X68974932Y-44777000D01*
X68959441Y-44772578D01*
X68943927Y-44768233D01*
X68928392Y-44763964D01*
X68912835Y-44759773D01*
X68897257Y-44755659D01*
X68881658Y-44751623D01*
X68866039Y-44747663D01*
X68850401Y-44743781D01*
X68834742Y-44739977D01*
X68819065Y-44736250D01*
X68803368Y-44732601D01*
X68787654Y-44729030D01*
X68771921Y-44725537D01*
X68756170Y-44722121D01*
X68740402Y-44718784D01*
X68724618Y-44715525D01*
X68708816Y-44712345D01*
X68692999Y-44709242D01*
X68677166Y-44706218D01*
X68661317Y-44703273D01*
X68645453Y-44700406D01*
X68629575Y-44697617D01*
X68613683Y-44694908D01*
X68597777Y-44692277D01*
X68581857Y-44689725D01*
X68565925Y-44687252D01*
X68549979Y-44684858D01*
X68534022Y-44682543D01*
X68518053Y-44680307D01*
X68502072Y-44678150D01*
X68486080Y-44676073D01*
X68470078Y-44674075D01*
X68454065Y-44672156D01*
X68438043Y-44670316D01*
X68422011Y-44668556D01*
X68405970Y-44666875D01*
X68389921Y-44665274D01*
X68373864Y-44663753D01*
X68357798Y-44662311D01*
X68341726Y-44660949D01*
X68325646Y-44659666D01*
X68309560Y-44658463D01*
X68293468Y-44657340D01*
X68277370Y-44656297D01*
X68261267Y-44655334D01*
X68245159Y-44654450D01*
X68229046Y-44653646D01*
X68212930Y-44652922D01*
X68196810Y-44652279D01*
X68180686Y-44651715D01*
X68164560Y-44651231D01*
X68148432Y-44650826D01*
X68132301Y-44650502D01*
X68116169Y-44650258D01*
X68100036Y-44650094D01*
X68083902Y-44650010D01*
X68067768Y-44650006D01*
X68059701Y-44650034D01*
X68051634Y-44650082D01*
X68043567Y-44650150D01*
X68035501Y-44650238D01*
X68027434Y-44650345D01*
X68019368Y-44650473D01*
X68011302Y-44650621D01*
X68003237Y-44650789D01*
X67995172Y-44650977D01*
X67987108Y-44651185D01*
X67979044Y-44651413D01*
X67970981Y-44651661D01*
X67962918Y-44651929D01*
X67954856Y-44652217D01*
X67946795Y-44652524D01*
X67938735Y-44652852D01*
X67930675Y-44653200D01*
X67922617Y-44653568D01*
X67914559Y-44653956D01*
X67906503Y-44654363D01*
X67898448Y-44654791D01*
X67890393Y-44655239D01*
X67882340Y-44655707D01*
X67874288Y-44656194D01*
X67866238Y-44656702D01*
X67858188Y-44657229D01*
X67850141Y-44657777D01*
X67842094Y-44658344D01*
X67834049Y-44658932D01*
X67826006Y-44659539D01*
X67817964Y-44660166D01*
X67809924Y-44660813D01*
X67801885Y-44661481D01*
X67793849Y-44662168D01*
X67785814Y-44662875D01*
X67777781Y-44663602D01*
X67769750Y-44664348D01*
X67761720Y-44665115D01*
X67753693Y-44665902D01*
X67745668Y-44666708D01*
X67737645Y-44667535D01*
X67729624Y-44668381D01*
X67721606Y-44669247D01*
X67713589Y-44670133D01*
X67705575Y-44671039D01*
X67697563Y-44671965D01*
X67689554Y-44672911D01*
X67681547Y-44673876D01*
X67673543Y-44674861D01*
X67665541Y-44675867D01*
X67657542Y-44676892D01*
X67649545Y-44677936D01*
X67641552Y-44679001D01*
X67633561Y-44680086D01*
X67625573Y-44681190D01*
X67617587Y-44682314D01*
X67609605Y-44683458D01*
X67601626Y-44684621D01*
X67593650Y-44685805D01*
X67585676Y-44687008D01*
X67577706Y-44688231D01*
X67569739Y-44689474D01*
X67561775Y-44690736D01*
X67553814Y-44692018D01*
X67545858Y-44693320D01*
X67537903Y-44694642D01*
X67529954Y-44695983D01*
X67522006Y-44697344D01*
X67514063Y-44698725D01*
X67506123Y-44700125D01*
X67498187Y-44701545D01*
X67490254Y-44702985D01*
X67482326Y-44704444D01*
X67474400Y-44705924D01*
X67466479Y-44707422D01*
X67458562Y-44708941D01*
X67450649Y-44710478D01*
X67442739Y-44712036D01*
X67434833Y-44713613D01*
X67426932Y-44715210D01*
X67419035Y-44716826D01*
X67411141Y-44718462D01*
X67403252Y-44720117D01*
X67395367Y-44721793D01*
X67387487Y-44723487D01*
X67379611Y-44725201D01*
X67371739Y-44726935D01*
X67363871Y-44728688D01*
X67356009Y-44730460D01*
X67348150Y-44732252D01*
X67340297Y-44734064D01*
X67332448Y-44735895D01*
X67324604Y-44737745D01*
X67316764Y-44739615D01*
X67308929Y-44741505D01*
X67301099Y-44743413D01*
X67293274Y-44745341D01*
X67285453Y-44747289D01*
X67277638Y-44749256D01*
X67269827Y-44751242D01*
X67262023Y-44753248D01*
X67254222Y-44755273D01*
X67246427Y-44757317D01*
X67238637Y-44759381D01*
X67230853Y-44761464D01*
X67223073Y-44763566D01*
X67215299Y-44765688D01*
X67207530Y-44767829D01*
X67199767Y-44769989D01*
X67192009Y-44772168D01*
X67184257Y-44774367D01*
X67176510Y-44776585D01*
X67168769Y-44778821D01*
X67161033Y-44781078D01*
X67153304Y-44783353D01*
X67145579Y-44785648D01*
X67137862Y-44787961D01*
X67130148Y-44790294D01*
X67122442Y-44792646D01*
X67114741Y-44795017D01*
X67107047Y-44797407D01*
X67099357Y-44799817D01*
X67091675Y-44802245D01*
X67083998Y-44804693D01*
X67076328Y-44807159D01*
X67068663Y-44809645D01*
X67061005Y-44812149D01*
X67053353Y-44814673D01*
X67045708Y-44817215D01*
X67038068Y-44819777D01*
X67030435Y-44822357D01*
X67022808Y-44824957D01*
X67015189Y-44827575D01*
X67007575Y-44830212D01*
X66999968Y-44832868D01*
X66992367Y-44835544D01*
X66984774Y-44838237D01*
X66977186Y-44840950D01*
X66969607Y-44843682D01*
X66962032Y-44846433D01*
X66954466Y-44849202D01*
X66946905Y-44851990D01*
X66939353Y-44854797D01*
X66931806Y-44857623D01*
X66924268Y-44860467D01*
X66916735Y-44863330D01*
X66909210Y-44866212D01*
X66901691Y-44869113D01*
X66894181Y-44872032D01*
X66886677Y-44874970D01*
X66879181Y-44877926D01*
X66871691Y-44880902D01*
X66864209Y-44883896D01*
X66856734Y-44886909D01*
X66849267Y-44889939D01*
X66841806Y-44892990D01*
X66834355Y-44896058D01*
X66826909Y-44899145D01*
X66819472Y-44902250D01*
X66812041Y-44905374D01*
X66804620Y-44908516D01*
X66797204Y-44911678D01*
X66789798Y-44914857D01*
X66782398Y-44918055D01*
X66775007Y-44921271D01*
X66767622Y-44924506D01*
X66760247Y-44927759D01*
X66752878Y-44931031D01*
X66745519Y-44934321D01*
X66738166Y-44937630D01*
X66730822Y-44940956D01*
X66723485Y-44944301D01*
X66716158Y-44947664D01*
X66708836Y-44951046D01*
X66701525Y-44954446D01*
X66694221Y-44957865D01*
X66686926Y-44961301D01*
X66679637Y-44964756D01*
X66672359Y-44968229D01*
X66665087Y-44971720D01*
X66657826Y-44975229D01*
X66650571Y-44978757D01*
X66643326Y-44982302D01*
X66636088Y-44985867D01*
X66628860Y-44989448D01*
X66621638Y-44993049D01*
X66614427Y-44996667D01*
X66607223Y-45000303D01*
X66600030Y-45003957D01*
X66592843Y-45007630D01*
X66585667Y-45011320D01*
X66578497Y-45015029D01*
X66571339Y-45018755D01*
X66564187Y-45022500D01*
X66557046Y-45026262D01*
X66549911Y-45030042D01*
X66542788Y-45033840D01*
X66535672Y-45037657D01*
X66528566Y-45041490D01*
X66521468Y-45045343D01*
X66514380Y-45049212D01*
X66507300Y-45053100D01*
X66500231Y-45057005D01*
X66493169Y-45060929D01*
X66486118Y-45064870D01*
X66479074Y-45068829D01*
X66472041Y-45072805D01*
X66465016Y-45076800D01*
X66458002Y-45080812D01*
X66450995Y-45084842D01*
X66450000Y-45085417D01*
D10*
X71325000Y-22900000D02*
X71325000Y-16400000D01*
D11*
X71325000Y-47900000D02*
X71324960Y-47883845D01*
X71324840Y-47867693D01*
X71324640Y-47851545D01*
X71324360Y-47835400D01*
X71324001Y-47819260D01*
X71323561Y-47803124D01*
X71323042Y-47786993D01*
X71322443Y-47770866D01*
X71321764Y-47754745D01*
X71321005Y-47738630D01*
X71320166Y-47722520D01*
X71319248Y-47706417D01*
X71318250Y-47690320D01*
X71317172Y-47674230D01*
X71316015Y-47658147D01*
X71314778Y-47642071D01*
X71313461Y-47626003D01*
X71312065Y-47609943D01*
X71310589Y-47593892D01*
X71309034Y-47577849D01*
X71307399Y-47561815D01*
X71305685Y-47545791D01*
X71303892Y-47529776D01*
X71302019Y-47513771D01*
X71300067Y-47497776D01*
X71298035Y-47481792D01*
X71295925Y-47465819D01*
X71293735Y-47449857D01*
X71291466Y-47433907D01*
X71289118Y-47417969D01*
X71286691Y-47402043D01*
X71284185Y-47386130D01*
X71281600Y-47370229D01*
X71278937Y-47354342D01*
X71276194Y-47338469D01*
X71273373Y-47322609D01*
X71270473Y-47306764D01*
X71267494Y-47290933D01*
X71264437Y-47275118D01*
X71261302Y-47259318D01*
X71258088Y-47243533D01*
X71254795Y-47227765D01*
X71251425Y-47212013D01*
X71247976Y-47196277D01*
X71244449Y-47180559D01*
X71240844Y-47164859D01*
X71237161Y-47149176D01*
X71233401Y-47133511D01*
X71229562Y-47117865D01*
X71225646Y-47102238D01*
X71221652Y-47086630D01*
X71217580Y-47071042D01*
X71213432Y-47055474D01*
X71209205Y-47039926D01*
X71204902Y-47024399D01*
X71200521Y-47008893D01*
X71196064Y-46993408D01*
X71191529Y-46977945D01*
X71186918Y-46962505D01*
X71182230Y-46947087D01*
X71177465Y-46931692D01*
X71172624Y-46916320D01*
X71167706Y-46900972D01*
X71162713Y-46885648D01*
X71157642Y-46870349D01*
X71152496Y-46855074D01*
X71147274Y-46839824D01*
X71141977Y-46824600D01*
X71136603Y-46809402D01*
X71131154Y-46794231D01*
X71125630Y-46779086D01*
X71120030Y-46763968D01*
X71114355Y-46748877D01*
X71108606Y-46733814D01*
X71102781Y-46718780D01*
X71096882Y-46703773D01*
X71090908Y-46688796D01*
X71084859Y-46673849D01*
X71078737Y-46658931D01*
X71072540Y-46644042D01*
X71066269Y-46629185D01*
X71059925Y-46614358D01*
X71053507Y-46599563D01*
X71047015Y-46584799D01*
X71040450Y-46570067D01*
X71033812Y-46555367D01*
X71027101Y-46540700D01*
X71020317Y-46526066D01*
X71013460Y-46511466D01*
X71006531Y-46496899D01*
X70999530Y-46482367D01*
X70992456Y-46467869D01*
X70985311Y-46453406D01*
X70978094Y-46438979D01*
X70970805Y-46424587D01*
X70963444Y-46410231D01*
X70956013Y-46395912D01*
X70948511Y-46381629D01*
X70940937Y-46367384D01*
X70933293Y-46353176D01*
X70925579Y-46339006D01*
X70917794Y-46324875D01*
X70909940Y-46310782D01*
X70902015Y-46296728D01*
X70894021Y-46282714D01*
X70885958Y-46268739D01*
X70881900Y-46261767D01*
X70877825Y-46254805D01*
X70873733Y-46247852D01*
X70869623Y-46240910D01*
X70865496Y-46233979D01*
X70861353Y-46227057D01*
X70857192Y-46220146D01*
X70853013Y-46213245D01*
X70848818Y-46206355D01*
X70844606Y-46199475D01*
X70840377Y-46192605D01*
X70836130Y-46185746D01*
X70831867Y-46178898D01*
X70827587Y-46172060D01*
X70823290Y-46165233D01*
X70818976Y-46158416D01*
X70814645Y-46151610D01*
X70810297Y-46144815D01*
X70805932Y-46138031D01*
X70801551Y-46131258D01*
X70797153Y-46124496D01*
X70792738Y-46117744D01*
X70788306Y-46111004D01*
X70783858Y-46104274D01*
X70779393Y-46097556D01*
X70774911Y-46090849D01*
X70770413Y-46084153D01*
X70765899Y-46077468D01*
X70761368Y-46070795D01*
X70756820Y-46064133D01*
X70752256Y-46057482D01*
X70747675Y-46050843D01*
X70743078Y-46044215D01*
X70738465Y-46037598D01*
X70733835Y-46030993D01*
X70729189Y-46024400D01*
X70724527Y-46017818D01*
X70719848Y-46011248D01*
X70715153Y-46004690D01*
X70710442Y-45998143D01*
X70705715Y-45991608D01*
X70700971Y-45985085D01*
X70696212Y-45978573D01*
X70691436Y-45972074D01*
X70686645Y-45965587D01*
X70681837Y-45959111D01*
X70677014Y-45952648D01*
X70672174Y-45946196D01*
X70667318Y-45939757D01*
X70662447Y-45933330D01*
X70657560Y-45926915D01*
X70652657Y-45920512D01*
X70647738Y-45914122D01*
X70642803Y-45907743D01*
X70637853Y-45901378D01*
X70632886Y-45895024D01*
X70627905Y-45888683D01*
X70622907Y-45882354D01*
X70617894Y-45876039D01*
X70612865Y-45869735D01*
X70607821Y-45863444D01*
X70602761Y-45857166D01*
X70597687Y-45850900D01*
X70592596Y-45844647D01*
X70587490Y-45838407D01*
X70582368Y-45832180D01*
X70577231Y-45825965D01*
X70572079Y-45819763D01*
X70566912Y-45813575D01*
X70561729Y-45807398D01*
X70556531Y-45801236D01*
X70551318Y-45795085D01*
X70546090Y-45788949D01*
X70540846Y-45782825D01*
X70535588Y-45776714D01*
X70530314Y-45770617D01*
X70525025Y-45764533D01*
X70519721Y-45758461D01*
X70514403Y-45752404D01*
X70509069Y-45746359D01*
X70503721Y-45740328D01*
X70498357Y-45734310D01*
X70492980Y-45728306D01*
X70487586Y-45722314D01*
X70482179Y-45716337D01*
X70476756Y-45710373D01*
X70471319Y-45704423D01*
X70465867Y-45698486D01*
X70460401Y-45692563D01*
X70454919Y-45686653D01*
X70449424Y-45680758D01*
X70443913Y-45674876D01*
X70438389Y-45669008D01*
X70432849Y-45663153D01*
X70427296Y-45657313D01*
X70421727Y-45651486D01*
X70416145Y-45645673D01*
X70410548Y-45639874D01*
X70404937Y-45634090D01*
X70399312Y-45628318D01*
X70393672Y-45622562D01*
X70388018Y-45616819D01*
X70382351Y-45611091D01*
X70376668Y-45605376D01*
X70370972Y-45599676D01*
X70365261Y-45593990D01*
X70359537Y-45588318D01*
X70353799Y-45582660D01*
X70348047Y-45577018D01*
X70342280Y-45571388D01*
X70336500Y-45565774D01*
X70330706Y-45560174D01*
X70324898Y-45554589D01*
X70319076Y-45549017D01*
X70313241Y-45543461D01*
X70307391Y-45537919D01*
X70301529Y-45532392D01*
X70295652Y-45526878D01*
X70289762Y-45521381D01*
X70283858Y-45515897D01*
X70277941Y-45510428D01*
X70272009Y-45504974D01*
X70266065Y-45499535D01*
X70260107Y-45494110D01*
X70254136Y-45488701D01*
X70248151Y-45483305D01*
X70242153Y-45477926D01*
X70236141Y-45472560D01*
X70230117Y-45467211D01*
X70224079Y-45461875D01*
X70218028Y-45456556D01*
X70211963Y-45451250D01*
X70205886Y-45445961D01*
X70199795Y-45440685D01*
X70193691Y-45435426D01*
X70187574Y-45430181D01*
X70181444Y-45424952D01*
X70175301Y-45419737D01*
X70169146Y-45414539D01*
X70162976Y-45409354D01*
X70156795Y-45404186D01*
X70150600Y-45399033D01*
X70144393Y-45393896D01*
X70138172Y-45388773D01*
X70131940Y-45383666D01*
X70125693Y-45378574D01*
X70119436Y-45373499D01*
X70113164Y-45368438D01*
X70106881Y-45363393D01*
X70100584Y-45358363D01*
X70094276Y-45353350D01*
X70087954Y-45348351D01*
X70081621Y-45343369D01*
X70075273Y-45338401D01*
X70068915Y-45333450D01*
X70062544Y-45328514D01*
X70056161Y-45323595D01*
X70049764Y-45318690D01*
X70043357Y-45313802D01*
X70036935Y-45308929D01*
X70030504Y-45304073D01*
X70024058Y-45299231D01*
X70017602Y-45294407D01*
X70011132Y-45289597D01*
X70004651Y-45284805D01*
X69998157Y-45280027D01*
X69991652Y-45275266D01*
X69985134Y-45270520D01*
X69978606Y-45265792D01*
X69972064Y-45261078D01*
X69965511Y-45256382D01*
X69958945Y-45251700D01*
X69952369Y-45247036D01*
X69945780Y-45242387D01*
X69939180Y-45237755D01*
X69932567Y-45233138D01*
X69925944Y-45228539D01*
X69919307Y-45223954D01*
X69912661Y-45219388D01*
X69906001Y-45214836D01*
X69899331Y-45210301D01*
X69892648Y-45205782D01*
X69885956Y-45201281D01*
X69879250Y-45196794D01*
X69872534Y-45192326D01*
X69865805Y-45187872D01*
X69859067Y-45183436D01*
X69852315Y-45179016D01*
X69845554Y-45174613D01*
X69838780Y-45170225D01*
X69831996Y-45165855D01*
X69825199Y-45161501D01*
X69818393Y-45157164D01*
X69811574Y-45152843D01*
X69804746Y-45148539D01*
X69797904Y-45144251D01*
X69791054Y-45139981D01*
X69784190Y-45135727D01*
X69777317Y-45131490D01*
X69770432Y-45127269D01*
X69763537Y-45123065D01*
X69756630Y-45118878D01*
X69749713Y-45114708D01*
X69742784Y-45110554D01*
X69735846Y-45106418D01*
X69728895Y-45102298D01*
X69721935Y-45098195D01*
X69714963Y-45094109D01*
X69707982Y-45090040D01*
X69700988Y-45085988D01*
X69700000Y-45085417D01*
D10*
X71325000Y-47900000D02*
X71325000Y-54400000D01*
D11*
X71325000Y-54400000D02*
X71325040Y-54408946D01*
X71325160Y-54417891D01*
X71325360Y-54426833D01*
X71325639Y-54435772D01*
X71325999Y-54444707D01*
X71326438Y-54453638D01*
X71326957Y-54462564D01*
X71327556Y-54471485D01*
X71328235Y-54480400D01*
X71328993Y-54489307D01*
X71329831Y-54498208D01*
X71330749Y-54507100D01*
X71331746Y-54515984D01*
X71332822Y-54524858D01*
X71333978Y-54533723D01*
X71335213Y-54542576D01*
X71336527Y-54551419D01*
X71337920Y-54560249D01*
X71339392Y-54569067D01*
X71340943Y-54577871D01*
X71342572Y-54586662D01*
X71344281Y-54595437D01*
X71346067Y-54604198D01*
X71347932Y-54612942D01*
X71349875Y-54621670D01*
X71351897Y-54630380D01*
X71353996Y-54639072D01*
X71356173Y-54647745D01*
X71358427Y-54656399D01*
X71360759Y-54665032D01*
X71363168Y-54673645D01*
X71365654Y-54682236D01*
X71368217Y-54690804D01*
X71370856Y-54699350D01*
X71373572Y-54707872D01*
X71376364Y-54716370D01*
X71379232Y-54724842D01*
X71382176Y-54733289D01*
X71385195Y-54741710D01*
X71388290Y-54750103D01*
X71391459Y-54758468D01*
X71394703Y-54766805D01*
X71398022Y-54775113D01*
X71401415Y-54783390D01*
X71403139Y-54787518D01*
X71404882Y-54791638D01*
X71406643Y-54795749D01*
X71408422Y-54799853D01*
X71410220Y-54803949D01*
X71412036Y-54808037D01*
X71413870Y-54812117D01*
X71415723Y-54816189D01*
X71417593Y-54820252D01*
X71419482Y-54824307D01*
X71421389Y-54828353D01*
X71423314Y-54832391D01*
X71425257Y-54836420D01*
X71427218Y-54840440D01*
X71429197Y-54844452D01*
X71431194Y-54848454D01*
X71433209Y-54852448D01*
X71435242Y-54856433D01*
X71437292Y-54860408D01*
X71439360Y-54864374D01*
X71441446Y-54868331D01*
X71443550Y-54872279D01*
X71445671Y-54876217D01*
X71447810Y-54880145D01*
X71449966Y-54884064D01*
X71452140Y-54887973D01*
X71454331Y-54891872D01*
X71456539Y-54895762D01*
X71458765Y-54899641D01*
X71461009Y-54903511D01*
X71463269Y-54907370D01*
X71465547Y-54911220D01*
X71467842Y-54915058D01*
X71470154Y-54918887D01*
X71472483Y-54922705D01*
X71474829Y-54926513D01*
X71477192Y-54930310D01*
X71479573Y-54934097D01*
X71481969Y-54937872D01*
X71484383Y-54941638D01*
X71486814Y-54945391D01*
X71489262Y-54949135D01*
X71491725Y-54952867D01*
X71494206Y-54956588D01*
X71496704Y-54960298D01*
X71499218Y-54963997D01*
X71501748Y-54967684D01*
X71504295Y-54971361D01*
X71506858Y-54975025D01*
X71509438Y-54978678D01*
X71512034Y-54982319D01*
X71514647Y-54985950D01*
X71517275Y-54989567D01*
X71519920Y-54993174D01*
X71522580Y-54996768D01*
X71525258Y-55000351D01*
X71527950Y-55003921D01*
X71530659Y-55007480D01*
X71533384Y-55011026D01*
X71536125Y-55014561D01*
X71538881Y-55018082D01*
X71541653Y-55021592D01*
X71544441Y-55025089D01*
X71547245Y-55028574D01*
X71550064Y-55032046D01*
X71552899Y-55035506D01*
X71555749Y-55038953D01*
X71558615Y-55042387D01*
X71561495Y-55045808D01*
X71564392Y-55049217D01*
X71567304Y-55052613D01*
X71570231Y-55055996D01*
X71573173Y-55059365D01*
X71576131Y-55062722D01*
X71579102Y-55066065D01*
X71582090Y-55069396D01*
X71585092Y-55072712D01*
X71588110Y-55076017D01*
X71591142Y-55079306D01*
X71594190Y-55082584D01*
X71597251Y-55085847D01*
X71600328Y-55089097D01*
X71603419Y-55092333D01*
X71606525Y-55095556D01*
X71609645Y-55098764D01*
X71612781Y-55101960D01*
X71617892Y-55107108D01*
X71617892Y-15692892D02*
X71611594Y-15699247D01*
X71605354Y-15705657D01*
X71599172Y-15712122D01*
X71593049Y-15718641D01*
X71586985Y-15725214D01*
X71580980Y-15731840D01*
X71575035Y-15738519D01*
X71569150Y-15745251D01*
X71563326Y-15752035D01*
X71557564Y-15758871D01*
X71551862Y-15765757D01*
X71546223Y-15772694D01*
X71540646Y-15779681D01*
X71535132Y-15786718D01*
X71529681Y-15793804D01*
X71524294Y-15800938D01*
X71518970Y-15808120D01*
X71513711Y-15815349D01*
X71508517Y-15822626D01*
X71503388Y-15829948D01*
X71498324Y-15837317D01*
X71493327Y-15844730D01*
X71488396Y-15852188D01*
X71483531Y-15859691D01*
X71478734Y-15867236D01*
X71474004Y-15874825D01*
X71469343Y-15882455D01*
X71464749Y-15890128D01*
X71460224Y-15897841D01*
X71455768Y-15905595D01*
X71451382Y-15913389D01*
X71447065Y-15921222D01*
X71442818Y-15929093D01*
X71438642Y-15937002D01*
X71434536Y-15944949D01*
X71430502Y-15952932D01*
X71426539Y-15960951D01*
X71422648Y-15969005D01*
X71418828Y-15977095D01*
X71415082Y-15985218D01*
X71411408Y-15993374D01*
X71407807Y-16001563D01*
X71404279Y-16009784D01*
X71400825Y-16018037D01*
X71399126Y-16022174D01*
X71397445Y-16026320D01*
X71395783Y-16030473D01*
X71394139Y-16034633D01*
X71392514Y-16038800D01*
X71390907Y-16042975D01*
X71389320Y-16047157D01*
X71387751Y-16051346D01*
X71386200Y-16055542D01*
X71384669Y-16059745D01*
X71383156Y-16063954D01*
X71381662Y-16068171D01*
X71380187Y-16072393D01*
X71378731Y-16076623D01*
X71377294Y-16080859D01*
X71375876Y-16085101D01*
X71374477Y-16089350D01*
X71373096Y-16093605D01*
X71371735Y-16097865D01*
X71370393Y-16102133D01*
X71369070Y-16106405D01*
X71367766Y-16110684D01*
X71366482Y-16114968D01*
X71365216Y-16119259D01*
X71363970Y-16123554D01*
X71362743Y-16127856D01*
X71361535Y-16132162D01*
X71360347Y-16136474D01*
X71359178Y-16140791D01*
X71358028Y-16145114D01*
X71356897Y-16149441D01*
X71355786Y-16153774D01*
X71354694Y-16158111D01*
X71353622Y-16162453D01*
X71352569Y-16166800D01*
X71351536Y-16171151D01*
X71350522Y-16175507D01*
X71349528Y-16179868D01*
X71348553Y-16184232D01*
X71347597Y-16188602D01*
X71346662Y-16192975D01*
X71345745Y-16197353D01*
X71344849Y-16201734D01*
X71343972Y-16206119D01*
X71343114Y-16210508D01*
X71342277Y-16214902D01*
X71341459Y-16219298D01*
X71340660Y-16223699D01*
X71339882Y-16228102D01*
X71339123Y-16232510D01*
X71338384Y-16236920D01*
X71337664Y-16241334D01*
X71336964Y-16245751D01*
X71336284Y-16250171D01*
X71335624Y-16254594D01*
X71334984Y-16259021D01*
X71334363Y-16263449D01*
X71333763Y-16267881D01*
X71333182Y-16272315D01*
X71332621Y-16276752D01*
X71332080Y-16281191D01*
X71331558Y-16285634D01*
X71331057Y-16290077D01*
X71330575Y-16294524D01*
X71330114Y-16298972D01*
X71329672Y-16303424D01*
X71329250Y-16307876D01*
X71328848Y-16312331D01*
X71328466Y-16316787D01*
X71328104Y-16321246D01*
X71327762Y-16325706D01*
X71327439Y-16330168D01*
X71327137Y-16334630D01*
X71326855Y-16339096D01*
X71326593Y-16343561D01*
X71326350Y-16348029D01*
X71326128Y-16352497D01*
X71325925Y-16356967D01*
X71325743Y-16361437D01*
X71325581Y-16365910D01*
X71325438Y-16370382D01*
X71325316Y-16374856D01*
X71325213Y-16379330D01*
X71325131Y-16383805D01*
X71325069Y-16388280D01*
X71325026Y-16392757D01*
X71325000Y-16400000D01*
X71617892Y-55107108D02*
X71624246Y-55113406D01*
X71630656Y-55119645D01*
X71637120Y-55125827D01*
X71643638Y-55131950D01*
X71650211Y-55138014D01*
X71656837Y-55144018D01*
X71663516Y-55149963D01*
X71670247Y-55155847D01*
X71677030Y-55161671D01*
X71683865Y-55167434D01*
X71690751Y-55173135D01*
X71697688Y-55178774D01*
X71704675Y-55184350D01*
X71711711Y-55189864D01*
X71718796Y-55195315D01*
X71725930Y-55200703D01*
X71733112Y-55206026D01*
X71740341Y-55211285D01*
X71747617Y-55216479D01*
X71754939Y-55221608D01*
X71762307Y-55226671D01*
X71769720Y-55231669D01*
X71777178Y-55236600D01*
X71784680Y-55241464D01*
X71792225Y-55246261D01*
X71799814Y-55250991D01*
X71807444Y-55255653D01*
X71815116Y-55260246D01*
X71822830Y-55264771D01*
X71830583Y-55269227D01*
X71838377Y-55273614D01*
X71846209Y-55277930D01*
X71854081Y-55282177D01*
X71861990Y-55286354D01*
X71869936Y-55290459D01*
X71877919Y-55294494D01*
X71885938Y-55298457D01*
X71893992Y-55302348D01*
X71902081Y-55306167D01*
X71910205Y-55309914D01*
X71918361Y-55313588D01*
X71926550Y-55317189D01*
X71934771Y-55320717D01*
X71943023Y-55324171D01*
X71947161Y-55325870D01*
X71951306Y-55327551D01*
X71955459Y-55329213D01*
X71959619Y-55330857D01*
X71963787Y-55332482D01*
X71967962Y-55334089D01*
X71972143Y-55335676D01*
X71976332Y-55337245D01*
X71980528Y-55338796D01*
X71984731Y-55340327D01*
X71988941Y-55341840D01*
X71993157Y-55343334D01*
X71997380Y-55344809D01*
X72001610Y-55346265D01*
X72005845Y-55347702D01*
X72010088Y-55349121D01*
X72014336Y-55350520D01*
X72018591Y-55351900D01*
X72022852Y-55353261D01*
X72027119Y-55354603D01*
X72031392Y-55355926D01*
X72035671Y-55357230D01*
X72039955Y-55358515D01*
X72044246Y-55359780D01*
X72048541Y-55361027D01*
X72052843Y-55362254D01*
X72057149Y-55363462D01*
X72061461Y-55364650D01*
X72065778Y-55365819D01*
X72070101Y-55366969D01*
X72074428Y-55368100D01*
X72078761Y-55369211D01*
X72083098Y-55370303D01*
X72087440Y-55371375D01*
X72091787Y-55372428D01*
X72096139Y-55373462D01*
X72100494Y-55374475D01*
X72104855Y-55375470D01*
X72109220Y-55376445D01*
X72113589Y-55377400D01*
X72117962Y-55378336D01*
X72122340Y-55379252D01*
X72126721Y-55380149D01*
X72131107Y-55381026D01*
X72135496Y-55381883D01*
X72139889Y-55382721D01*
X72144285Y-55383539D01*
X72148686Y-55384338D01*
X72153090Y-55385116D01*
X72157498Y-55385875D01*
X72161908Y-55386614D01*
X72166322Y-55387334D01*
X72170739Y-55388034D01*
X72175159Y-55388714D01*
X72179582Y-55389374D01*
X72184009Y-55390014D01*
X72188437Y-55390635D01*
X72192869Y-55391236D01*
X72197303Y-55391817D01*
X72201741Y-55392378D01*
X72206179Y-55392919D01*
X72210622Y-55393441D01*
X72215066Y-55393942D01*
X72219513Y-55394424D01*
X72223961Y-55394885D01*
X72228412Y-55395327D01*
X72232864Y-55395749D01*
X72237320Y-55396151D01*
X72241776Y-55396533D01*
X72246235Y-55396895D01*
X72250694Y-55397238D01*
X72255157Y-55397560D01*
X72259619Y-55397862D01*
X72264084Y-55398144D01*
X72268550Y-55398407D01*
X72273018Y-55398649D01*
X72277486Y-55398872D01*
X72281956Y-55399074D01*
X72286426Y-55399256D01*
X72290899Y-55399419D01*
X72295371Y-55399561D01*
X72299845Y-55399684D01*
X72304318Y-55399786D01*
X72308794Y-55399869D01*
X72313269Y-55399931D01*
X72317746Y-55399974D01*
X72325000Y-55400000D01*
X72325000Y-15400000D02*
X72316053Y-15400040D01*
X72307109Y-15400160D01*
X72298166Y-15400360D01*
X72289227Y-15400639D01*
X72280291Y-15400999D01*
X72271360Y-15401438D01*
X72262434Y-15401957D01*
X72253513Y-15402556D01*
X72244598Y-15403235D01*
X72235690Y-15403993D01*
X72226789Y-15404831D01*
X72217896Y-15405749D01*
X72209013Y-15406746D01*
X72200138Y-15407822D01*
X72191273Y-15408978D01*
X72182420Y-15410213D01*
X72173577Y-15411527D01*
X72164746Y-15412920D01*
X72155929Y-15414392D01*
X72147124Y-15415943D01*
X72138334Y-15417572D01*
X72129558Y-15419280D01*
X72120797Y-15421067D01*
X72112053Y-15422932D01*
X72103325Y-15424875D01*
X72094615Y-15426896D01*
X72085923Y-15428996D01*
X72077250Y-15431172D01*
X72068596Y-15433427D01*
X72059963Y-15435759D01*
X72051350Y-15438168D01*
X72042759Y-15440654D01*
X72034191Y-15443216D01*
X72025645Y-15445856D01*
X72017123Y-15448572D01*
X72008626Y-15451364D01*
X72000153Y-15454232D01*
X71991706Y-15457175D01*
X71983286Y-15460194D01*
X71974893Y-15463289D01*
X71966528Y-15466458D01*
X71958191Y-15469702D01*
X71949883Y-15473021D01*
X71941606Y-15476413D01*
X71937478Y-15478138D01*
X71933359Y-15479880D01*
X71929247Y-15481641D01*
X71925143Y-15483420D01*
X71921047Y-15485218D01*
X71916959Y-15487034D01*
X71912880Y-15488868D01*
X71908808Y-15490721D01*
X71904745Y-15492591D01*
X71900690Y-15494480D01*
X71896644Y-15496387D01*
X71892606Y-15498312D01*
X71888578Y-15500255D01*
X71884557Y-15502216D01*
X71880546Y-15504195D01*
X71876543Y-15506192D01*
X71872550Y-15508207D01*
X71868565Y-15510239D01*
X71864590Y-15512289D01*
X71860624Y-15514358D01*
X71856667Y-15516443D01*
X71852720Y-15518547D01*
X71848782Y-15520668D01*
X71844853Y-15522807D01*
X71840935Y-15524963D01*
X71837026Y-15527137D01*
X71833127Y-15529328D01*
X71829237Y-15531536D01*
X71825358Y-15533762D01*
X71821488Y-15536005D01*
X71817629Y-15538266D01*
X71813780Y-15540543D01*
X71809942Y-15542838D01*
X71806113Y-15545150D01*
X71802295Y-15547479D01*
X71798487Y-15549826D01*
X71794690Y-15552188D01*
X71790904Y-15554569D01*
X71787128Y-15556965D01*
X71783363Y-15559379D01*
X71779610Y-15561810D01*
X71775866Y-15564257D01*
X71772134Y-15566721D01*
X71768413Y-15569202D01*
X71764704Y-15571699D01*
X71761005Y-15574213D01*
X71757318Y-15576744D01*
X71753641Y-15579291D01*
X71749977Y-15581854D01*
X71746324Y-15584434D01*
X71742683Y-15587029D01*
X71739053Y-15589642D01*
X71735435Y-15592270D01*
X71731829Y-15594915D01*
X71728235Y-15597575D01*
X71724652Y-15600252D01*
X71721082Y-15602945D01*
X71717523Y-15605654D01*
X71713977Y-15608378D01*
X71710443Y-15611119D01*
X71706922Y-15613875D01*
X71703412Y-15616648D01*
X71699915Y-15619435D01*
X71696430Y-15622239D01*
X71692959Y-15625058D01*
X71689499Y-15627893D01*
X71686052Y-15630742D01*
X71682618Y-15633608D01*
X71679197Y-15636489D01*
X71675788Y-15639386D01*
X71672393Y-15642297D01*
X71669010Y-15645224D01*
X71665641Y-15648166D01*
X71662284Y-15651124D01*
X71658941Y-15654096D01*
X71655610Y-15657084D01*
X71652294Y-15660085D01*
X71648990Y-15663103D01*
X71645700Y-15666135D01*
X71642423Y-15669182D01*
X71639160Y-15672244D01*
X71635910Y-15675321D01*
X71632674Y-15678412D01*
X71629451Y-15681518D01*
X71626243Y-15684638D01*
X71623048Y-15687773D01*
X71617892Y-15692892D01*
D10*
X72325000Y-55400000D02*
X110075000Y-55400000D01*
X110075000Y-15400000D02*
X72325000Y-15400000D01*
D11*
X110075000Y-55400000D02*
X110083946Y-55399960D01*
X110092891Y-55399840D01*
X110101833Y-55399640D01*
X110110772Y-55399361D01*
X110119707Y-55399001D01*
X110128638Y-55398562D01*
X110137564Y-55398043D01*
X110146485Y-55397444D01*
X110155400Y-55396765D01*
X110164307Y-55396007D01*
X110173208Y-55395169D01*
X110182100Y-55394251D01*
X110190984Y-55393254D01*
X110199858Y-55392178D01*
X110208723Y-55391022D01*
X110217576Y-55389787D01*
X110226419Y-55388473D01*
X110235249Y-55387080D01*
X110244067Y-55385608D01*
X110252871Y-55384057D01*
X110261662Y-55382428D01*
X110270437Y-55380719D01*
X110279198Y-55378933D01*
X110287942Y-55377068D01*
X110296670Y-55375125D01*
X110305380Y-55373103D01*
X110314072Y-55371004D01*
X110322745Y-55368827D01*
X110331398Y-55366573D01*
X110340032Y-55364241D01*
X110348645Y-55361832D01*
X110357235Y-55359346D01*
X110365804Y-55356783D01*
X110374350Y-55354144D01*
X110382872Y-55351428D01*
X110391370Y-55348636D01*
X110399842Y-55345768D01*
X110408289Y-55342824D01*
X110416709Y-55339805D01*
X110425103Y-55336710D01*
X110433468Y-55333541D01*
X110441805Y-55330297D01*
X110450112Y-55326978D01*
X110458390Y-55323585D01*
X110462518Y-55321861D01*
X110466637Y-55320118D01*
X110470749Y-55318357D01*
X110474853Y-55316578D01*
X110478949Y-55314780D01*
X110483037Y-55312964D01*
X110487117Y-55311130D01*
X110491188Y-55309277D01*
X110495252Y-55307407D01*
X110499306Y-55305518D01*
X110503353Y-55303611D01*
X110507390Y-55301686D01*
X110511419Y-55299743D01*
X110515440Y-55297782D01*
X110519451Y-55295803D01*
X110523454Y-55293806D01*
X110527448Y-55291791D01*
X110531432Y-55289758D01*
X110535407Y-55287708D01*
X110539374Y-55285640D01*
X110543331Y-55283554D01*
X110547278Y-55281450D01*
X110551216Y-55279329D01*
X110555145Y-55277191D01*
X110559063Y-55275034D01*
X110562973Y-55272861D01*
X110566872Y-55270670D01*
X110570761Y-55268461D01*
X110574641Y-55266235D01*
X110578510Y-55263992D01*
X110582370Y-55261731D01*
X110586219Y-55259453D01*
X110590058Y-55257159D01*
X110593887Y-55254846D01*
X110597704Y-55252517D01*
X110601513Y-55250171D01*
X110605309Y-55247808D01*
X110609096Y-55245428D01*
X110612872Y-55243031D01*
X110616637Y-55240617D01*
X110620391Y-55238186D01*
X110624134Y-55235739D01*
X110627866Y-55233275D01*
X110631588Y-55230794D01*
X110635297Y-55228297D01*
X110638996Y-55225782D01*
X110642683Y-55223252D01*
X110646360Y-55220705D01*
X110650024Y-55218142D01*
X110653678Y-55215562D01*
X110657319Y-55212966D01*
X110660949Y-55210354D01*
X110664567Y-55207725D01*
X110668173Y-55205080D01*
X110671767Y-55202420D01*
X110675350Y-55199743D01*
X110678920Y-55197050D01*
X110682479Y-55194341D01*
X110686025Y-55191617D01*
X110689560Y-55188876D01*
X110693081Y-55186120D01*
X110696591Y-55183347D01*
X110700088Y-55180559D01*
X110703573Y-55177755D01*
X110707045Y-55174937D01*
X110710505Y-55172102D01*
X110713951Y-55169252D01*
X110717386Y-55166386D01*
X110720807Y-55163505D01*
X110724216Y-55160608D01*
X110727611Y-55157697D01*
X110730995Y-55154769D01*
X110734364Y-55151828D01*
X110737721Y-55148870D01*
X110741064Y-55145898D01*
X110744395Y-55142910D01*
X110747711Y-55139908D01*
X110751015Y-55136890D01*
X110754305Y-55133858D01*
X110757582Y-55130811D01*
X110760845Y-55127750D01*
X110764096Y-55124672D01*
X110767331Y-55121582D01*
X110770554Y-55118475D01*
X110773763Y-55115355D01*
X110776958Y-55112220D01*
X110782107Y-55107108D01*
X110782107Y-15692892D02*
X110775753Y-15686594D01*
X110769344Y-15680355D01*
X110762880Y-15674173D01*
X110756362Y-15668050D01*
X110749790Y-15661987D01*
X110743165Y-15655982D01*
X110736486Y-15650038D01*
X110729755Y-15644153D01*
X110722972Y-15638330D01*
X110716138Y-15632567D01*
X110709252Y-15626866D01*
X110702316Y-15621227D01*
X110695329Y-15615651D01*
X110688294Y-15610137D01*
X110681209Y-15604686D01*
X110674076Y-15599299D01*
X110666894Y-15593976D01*
X110659666Y-15588717D01*
X110652390Y-15583523D01*
X110645068Y-15578394D01*
X110637700Y-15573331D01*
X110630288Y-15568333D01*
X110622830Y-15563402D01*
X110615328Y-15558538D01*
X110607783Y-15553741D01*
X110600196Y-15549011D01*
X110592565Y-15544350D01*
X110584894Y-15539756D01*
X110577181Y-15535231D01*
X110569428Y-15530776D01*
X110561634Y-15526389D01*
X110553802Y-15522072D01*
X110545931Y-15517826D01*
X110538022Y-15513649D01*
X110530076Y-15509544D01*
X110522094Y-15505509D01*
X110514075Y-15501546D01*
X110506021Y-15497655D01*
X110497932Y-15493836D01*
X110489809Y-15490089D01*
X110481653Y-15486415D01*
X110473464Y-15482814D01*
X110465244Y-15479287D01*
X110456992Y-15475832D01*
X110452854Y-15474133D01*
X110448709Y-15472452D01*
X110444556Y-15470790D01*
X110440396Y-15469146D01*
X110436229Y-15467521D01*
X110432054Y-15465915D01*
X110427872Y-15464327D01*
X110423683Y-15462758D01*
X110419488Y-15461207D01*
X110415285Y-15459676D01*
X110411075Y-15458163D01*
X110406859Y-15456669D01*
X110402636Y-15455194D01*
X110398407Y-15453738D01*
X110394171Y-15452301D01*
X110389928Y-15450883D01*
X110385680Y-15449483D01*
X110381425Y-15448103D01*
X110377164Y-15446742D01*
X110372897Y-15445400D01*
X110368625Y-15444077D01*
X110364346Y-15442773D01*
X110360062Y-15441488D01*
X110355771Y-15440223D01*
X110351476Y-15438976D01*
X110347174Y-15437749D01*
X110342868Y-15436541D01*
X110338556Y-15435353D01*
X110334239Y-15434183D01*
X110329916Y-15433033D01*
X110325589Y-15431903D01*
X110321256Y-15430792D01*
X110316919Y-15429700D01*
X110312577Y-15428627D01*
X110308230Y-15427575D01*
X110303878Y-15426541D01*
X110299523Y-15425527D01*
X110295162Y-15424533D01*
X110290797Y-15423558D01*
X110286428Y-15422602D01*
X110282055Y-15421666D01*
X110277677Y-15420750D01*
X110273296Y-15419853D01*
X110268910Y-15418976D01*
X110264521Y-15418119D01*
X110260128Y-15417281D01*
X110255731Y-15416463D01*
X110251330Y-15415664D01*
X110246927Y-15414886D01*
X110242519Y-15414127D01*
X110238109Y-15413387D01*
X110233695Y-15412668D01*
X110229278Y-15411968D01*
X110224857Y-15411288D01*
X110220435Y-15410628D01*
X110216008Y-15409987D01*
X110211579Y-15409367D01*
X110207147Y-15408766D01*
X110202713Y-15408185D01*
X110198276Y-15407624D01*
X110193837Y-15407082D01*
X110189394Y-15406561D01*
X110184950Y-15406059D01*
X110180503Y-15405578D01*
X110176055Y-15405116D01*
X110171603Y-15404674D01*
X110167151Y-15404252D01*
X110162696Y-15403850D01*
X110158240Y-15403468D01*
X110153780Y-15403106D01*
X110149321Y-15402763D01*
X110144858Y-15402441D01*
X110140396Y-15402139D01*
X110135930Y-15401856D01*
X110131465Y-15401594D01*
X110126997Y-15401351D01*
X110122529Y-15401129D01*
X110118058Y-15400926D01*
X110113588Y-15400744D01*
X110109115Y-15400581D01*
X110104643Y-15400439D01*
X110100169Y-15400316D01*
X110095695Y-15400214D01*
X110091219Y-15400131D01*
X110086744Y-15400069D01*
X110082267Y-15400026D01*
X110075000Y-15400000D01*
X110782107Y-55107108D02*
X110788405Y-55100754D01*
X110794644Y-55094344D01*
X110800826Y-55087880D01*
X110806949Y-55081362D01*
X110813013Y-55074789D01*
X110819018Y-55068163D01*
X110824962Y-55061485D01*
X110830847Y-55054753D01*
X110836670Y-55047970D01*
X110842433Y-55041135D01*
X110848134Y-55034249D01*
X110853773Y-55027312D01*
X110859350Y-55020326D01*
X110864864Y-55013289D01*
X110870314Y-55006204D01*
X110875702Y-54999070D01*
X110881025Y-54991889D01*
X110886284Y-54984660D01*
X110891478Y-54977384D01*
X110896607Y-54970061D01*
X110901671Y-54962693D01*
X110906668Y-54955280D01*
X110911599Y-54947822D01*
X110916463Y-54940320D01*
X110921261Y-54932775D01*
X110925990Y-54925187D01*
X110930652Y-54917556D01*
X110935246Y-54909884D01*
X110939771Y-54902171D01*
X110944226Y-54894417D01*
X110948613Y-54886624D01*
X110952930Y-54878791D01*
X110957177Y-54870920D01*
X110961353Y-54863011D01*
X110965458Y-54855065D01*
X110969493Y-54847082D01*
X110973456Y-54839063D01*
X110977347Y-54831008D01*
X110981166Y-54822919D01*
X110984913Y-54814796D01*
X110988587Y-54806640D01*
X110992188Y-54798451D01*
X110995716Y-54790230D01*
X110999170Y-54781978D01*
X111000870Y-54777840D01*
X111002550Y-54773695D01*
X111004213Y-54769542D01*
X111005856Y-54765382D01*
X111007482Y-54761214D01*
X111009088Y-54757040D01*
X111010676Y-54752858D01*
X111012245Y-54748669D01*
X111013795Y-54744473D01*
X111015327Y-54740270D01*
X111016840Y-54736061D01*
X111018333Y-54731844D01*
X111019808Y-54727621D01*
X111021265Y-54723392D01*
X111022702Y-54719156D01*
X111024120Y-54714913D01*
X111025519Y-54710665D01*
X111026900Y-54706410D01*
X111028261Y-54702149D01*
X111029603Y-54697882D01*
X111030926Y-54693609D01*
X111032230Y-54689330D01*
X111033514Y-54685046D01*
X111034780Y-54680756D01*
X111036026Y-54676460D01*
X111037253Y-54672159D01*
X111038461Y-54667852D01*
X111039650Y-54663540D01*
X111040819Y-54659223D01*
X111041969Y-54654900D01*
X111043099Y-54650573D01*
X111044211Y-54646241D01*
X111045302Y-54641904D01*
X111046375Y-54637561D01*
X111047428Y-54633215D01*
X111048461Y-54628863D01*
X111049475Y-54624507D01*
X111050470Y-54620146D01*
X111051444Y-54615782D01*
X111052400Y-54611412D01*
X111053336Y-54607039D01*
X111054252Y-54602661D01*
X111055149Y-54598280D01*
X111056026Y-54593895D01*
X111056883Y-54589506D01*
X111057721Y-54585112D01*
X111058539Y-54580716D01*
X111059337Y-54576315D01*
X111060116Y-54571912D01*
X111060875Y-54567504D01*
X111061614Y-54563094D01*
X111062334Y-54558679D01*
X111063034Y-54554263D01*
X111063714Y-54549842D01*
X111064374Y-54545420D01*
X111065014Y-54540993D01*
X111065635Y-54536565D01*
X111066236Y-54532132D01*
X111066816Y-54527699D01*
X111067378Y-54523261D01*
X111067919Y-54518822D01*
X111068440Y-54514380D01*
X111068942Y-54509936D01*
X111069423Y-54505489D01*
X111069885Y-54501041D01*
X111070327Y-54496589D01*
X111070749Y-54492137D01*
X111071151Y-54487682D01*
X111071533Y-54483226D01*
X111071895Y-54478767D01*
X111072237Y-54474307D01*
X111072560Y-54469845D01*
X111072862Y-54465383D01*
X111073144Y-54460917D01*
X111073407Y-54456452D01*
X111073649Y-54451984D01*
X111073872Y-54447516D01*
X111074074Y-54443045D01*
X111074256Y-54438576D01*
X111074419Y-54434103D01*
X111074561Y-54429631D01*
X111074684Y-54425157D01*
X111074786Y-54420683D01*
X111074869Y-54416208D01*
X111074931Y-54411733D01*
X111074974Y-54407256D01*
X111075000Y-54400000D01*
X111075000Y-16400000D02*
X111074960Y-16391054D01*
X111074840Y-16382109D01*
X111074640Y-16373167D01*
X111074361Y-16364228D01*
X111074001Y-16355293D01*
X111073562Y-16346362D01*
X111073043Y-16337436D01*
X111072444Y-16328515D01*
X111071765Y-16319601D01*
X111071007Y-16310693D01*
X111070169Y-16301793D01*
X111069251Y-16292900D01*
X111068254Y-16284017D01*
X111067178Y-16275142D01*
X111066022Y-16266278D01*
X111064787Y-16257425D01*
X111063473Y-16248582D01*
X111062080Y-16239752D01*
X111060608Y-16230934D01*
X111059057Y-16222130D01*
X111057428Y-16213340D01*
X111055720Y-16204564D01*
X111053933Y-16195804D01*
X111052068Y-16187060D01*
X111050125Y-16178332D01*
X111048103Y-16169622D01*
X111046004Y-16160930D01*
X111043827Y-16152257D01*
X111041573Y-16143604D01*
X111039241Y-16134970D01*
X111036832Y-16126358D01*
X111034346Y-16117767D01*
X111031783Y-16109199D01*
X111029144Y-16100653D01*
X111026428Y-16092131D01*
X111023636Y-16083633D01*
X111020768Y-16075161D01*
X111017824Y-16066714D01*
X111014805Y-16058294D01*
X111011710Y-16049901D01*
X111008541Y-16041535D01*
X111005297Y-16033198D01*
X111001978Y-16024891D01*
X110998585Y-16016613D01*
X110996861Y-16012486D01*
X110995118Y-16008366D01*
X110993357Y-16004254D01*
X110991578Y-16000150D01*
X110989780Y-15996054D01*
X110987964Y-15991966D01*
X110986130Y-15987886D01*
X110984277Y-15983815D01*
X110982407Y-15979752D01*
X110980518Y-15975697D01*
X110978611Y-15971651D01*
X110976686Y-15967613D01*
X110974743Y-15963584D01*
X110972782Y-15959563D01*
X110970803Y-15955552D01*
X110968806Y-15951549D01*
X110966791Y-15947555D01*
X110964758Y-15943571D01*
X110962708Y-15939595D01*
X110960639Y-15935629D01*
X110958554Y-15931672D01*
X110956450Y-15927724D01*
X110954329Y-15923787D01*
X110952190Y-15919858D01*
X110950034Y-15915939D01*
X110947860Y-15912030D01*
X110945669Y-15908131D01*
X110943460Y-15904241D01*
X110941234Y-15900362D01*
X110938991Y-15896492D01*
X110936730Y-15892633D01*
X110934452Y-15888783D01*
X110932157Y-15884944D01*
X110929845Y-15881115D01*
X110927516Y-15877297D01*
X110925170Y-15873489D01*
X110922807Y-15869692D01*
X110920426Y-15865905D01*
X110918029Y-15862130D01*
X110915615Y-15858364D01*
X110913185Y-15854610D01*
X110910737Y-15850867D01*
X110908273Y-15847135D01*
X110905792Y-15843413D01*
X110903295Y-15839703D01*
X110900780Y-15836004D01*
X110898250Y-15832317D01*
X110895703Y-15828640D01*
X110893140Y-15824976D01*
X110890559Y-15821322D01*
X110887964Y-15817681D01*
X110885351Y-15814051D01*
X110882723Y-15810433D01*
X110880078Y-15806826D01*
X110877417Y-15803232D01*
X110874740Y-15799649D01*
X110872047Y-15796078D01*
X110869338Y-15792519D01*
X110866613Y-15788973D01*
X110863872Y-15785438D01*
X110861116Y-15781917D01*
X110858343Y-15778407D01*
X110855556Y-15774910D01*
X110852751Y-15771424D01*
X110849933Y-15767953D01*
X110847097Y-15764492D01*
X110844247Y-15761046D01*
X110841381Y-15757611D01*
X110838500Y-15754190D01*
X110835603Y-15750780D01*
X110832692Y-15747385D01*
X110829764Y-15744001D01*
X110826822Y-15740632D01*
X110823864Y-15737275D01*
X110820892Y-15733931D01*
X110817904Y-15730600D01*
X110814902Y-15727284D01*
X110811884Y-15723979D01*
X110808852Y-15720689D01*
X110805804Y-15717411D01*
X110802743Y-15714148D01*
X110799665Y-15710898D01*
X110796574Y-15707662D01*
X110793468Y-15704439D01*
X110790348Y-15701230D01*
X110787212Y-15698034D01*
X110782107Y-15692892D01*
D10*
X111075000Y-25150000D02*
X111075000Y-16400000D01*
D11*
X111075000Y-25150000D02*
X111075040Y-25168983D01*
X111075160Y-25187965D01*
X111075360Y-25206945D01*
X111075640Y-25225923D01*
X111076000Y-25244898D01*
X111076439Y-25263871D01*
X111076959Y-25282840D01*
X111077558Y-25301807D01*
X111078238Y-25320770D01*
X111078997Y-25339729D01*
X111079836Y-25358684D01*
X111080756Y-25377634D01*
X111081754Y-25396580D01*
X111082833Y-25415521D01*
X111083992Y-25434456D01*
X111085230Y-25453386D01*
X111086548Y-25472310D01*
X111087946Y-25491228D01*
X111089423Y-25510140D01*
X111090981Y-25529044D01*
X111092618Y-25547942D01*
X111094334Y-25566832D01*
X111096130Y-25585714D01*
X111098006Y-25604589D01*
X111099961Y-25623455D01*
X111101996Y-25642312D01*
X111104110Y-25661161D01*
X111106304Y-25680000D01*
X111108577Y-25698830D01*
X111110929Y-25717650D01*
X111113361Y-25736460D01*
X111115872Y-25755260D01*
X111118462Y-25774048D01*
X111121132Y-25792826D01*
X111123881Y-25811592D01*
X111126708Y-25830346D01*
X111129615Y-25849089D01*
X111132601Y-25867819D01*
X111135666Y-25886536D01*
X111138810Y-25905240D01*
X111142032Y-25923932D01*
X111145334Y-25942609D01*
X111148714Y-25961273D01*
X111152173Y-25979922D01*
X111155711Y-25998557D01*
X111159327Y-26017176D01*
X111163021Y-26035781D01*
X111166794Y-26054370D01*
X111170646Y-26072943D01*
X111174576Y-26091500D01*
X111178584Y-26110041D01*
X111182670Y-26128564D01*
X111186835Y-26147071D01*
X111191077Y-26165560D01*
X111195398Y-26184031D01*
X111199796Y-26202484D01*
X111204272Y-26220919D01*
X111208826Y-26239335D01*
X111213458Y-26257731D01*
X111218167Y-26276109D01*
X111222954Y-26294466D01*
X111227818Y-26312804D01*
X111232759Y-26331121D01*
X111237778Y-26349417D01*
X111242874Y-26367692D01*
X111248047Y-26385946D01*
X111253297Y-26404178D01*
X111258624Y-26422388D01*
X111264027Y-26440576D01*
X111269508Y-26458741D01*
X111275065Y-26476883D01*
X111280698Y-26495001D01*
X111286408Y-26513096D01*
X111292194Y-26531167D01*
X111298056Y-26549213D01*
X111303995Y-26567235D01*
X111310009Y-26585232D01*
X111316099Y-26603203D01*
X111322266Y-26621149D01*
X111328507Y-26639069D01*
X111334825Y-26656962D01*
X111341217Y-26674829D01*
X111347685Y-26692669D01*
X111354228Y-26710482D01*
X111360847Y-26728267D01*
X111367540Y-26746024D01*
X111374308Y-26763752D01*
X111381151Y-26781453D01*
X111388068Y-26799124D01*
X111395060Y-26816766D01*
X111402126Y-26834378D01*
X111409267Y-26851961D01*
X111416481Y-26869513D01*
X111420116Y-26878278D01*
X111423769Y-26887035D01*
X111427441Y-26895784D01*
X111431132Y-26904526D01*
X111434840Y-26913260D01*
X111438567Y-26921986D01*
X111442313Y-26930704D01*
X111446077Y-26939414D01*
X111449859Y-26948116D01*
X111453660Y-26956811D01*
X111457479Y-26965497D01*
X111461316Y-26974175D01*
X111465171Y-26982845D01*
X111469045Y-26991507D01*
X111472937Y-27000161D01*
X111476847Y-27008806D01*
X111480776Y-27017443D01*
X111484722Y-27026072D01*
X111488687Y-27034693D01*
X111492670Y-27043305D01*
X111496671Y-27051909D01*
X111500691Y-27060504D01*
X111504728Y-27069091D01*
X111508783Y-27077669D01*
X111512857Y-27086239D01*
X111516948Y-27094800D01*
X111521058Y-27103352D01*
X111525185Y-27111896D01*
X111529331Y-27120430D01*
X111533494Y-27128957D01*
X111537676Y-27137474D01*
X111541875Y-27145983D01*
X111546093Y-27154482D01*
X111550328Y-27162973D01*
X111554581Y-27171454D01*
X111558852Y-27179927D01*
X111563141Y-27188390D01*
X111567447Y-27196845D01*
X111571772Y-27205290D01*
X111576114Y-27213727D01*
X111580474Y-27222154D01*
X111584852Y-27230572D01*
X111589247Y-27238980D01*
X111593660Y-27247379D01*
X111598091Y-27255769D01*
X111602539Y-27264150D01*
X111607005Y-27272520D01*
X111611489Y-27280882D01*
X111615990Y-27289234D01*
X111620509Y-27297577D01*
X111625046Y-27305909D01*
X111629600Y-27314233D01*
X111634171Y-27322546D01*
X111638760Y-27330850D01*
X111643367Y-27339144D01*
X111647991Y-27347429D01*
X111652632Y-27355704D01*
X111657291Y-27363969D01*
X111661967Y-27372223D01*
X111666661Y-27380469D01*
X111671371Y-27388703D01*
X111676100Y-27396929D01*
X111680845Y-27405143D01*
X111685608Y-27413349D01*
X111690388Y-27421543D01*
X111695185Y-27429728D01*
X111700000Y-27437903D01*
X111704832Y-27446067D01*
X111709681Y-27454221D01*
X111714547Y-27462365D01*
X111719430Y-27470498D01*
X111724330Y-27478622D01*
X111729248Y-27486734D01*
X111734182Y-27494837D01*
X111739134Y-27502928D01*
X111744103Y-27511010D01*
X111749088Y-27519081D01*
X111754091Y-27527141D01*
X111759110Y-27535191D01*
X111764147Y-27543230D01*
X111769200Y-27551258D01*
X111774270Y-27559276D01*
X111779357Y-27567283D01*
X111784462Y-27575279D01*
X111789582Y-27583264D01*
X111794720Y-27591239D01*
X111799874Y-27599202D01*
X111805046Y-27607155D01*
X111810233Y-27615097D01*
X111815438Y-27623028D01*
X111820659Y-27630947D01*
X111825898Y-27638856D01*
X111831152Y-27646753D01*
X111836424Y-27654640D01*
X111841711Y-27662515D01*
X111847016Y-27670379D01*
X111852337Y-27678232D01*
X111857675Y-27686074D01*
X111863028Y-27693904D01*
X111868399Y-27701723D01*
X111873786Y-27709530D01*
X111879190Y-27717327D01*
X111884609Y-27725111D01*
X111890046Y-27732885D01*
X111895498Y-27740646D01*
X111900967Y-27748397D01*
X111906452Y-27756135D01*
X111911954Y-27763863D01*
X111917472Y-27771578D01*
X111923006Y-27779282D01*
X111928556Y-27786974D01*
X111934123Y-27794655D01*
X111939706Y-27802323D01*
X111945305Y-27809980D01*
X111950920Y-27817625D01*
X111956551Y-27825258D01*
X111962198Y-27832879D01*
X111967862Y-27840489D01*
X111973541Y-27848086D01*
X111979237Y-27855672D01*
X111984948Y-27863245D01*
X111990675Y-27870807D01*
X111996418Y-27878355D01*
X112002178Y-27885893D01*
X112007953Y-27893418D01*
X112013744Y-27900931D01*
X112019550Y-27908431D01*
X112025373Y-27915920D01*
X112031212Y-27923396D01*
X112037066Y-27930860D01*
X112042936Y-27938311D01*
X112048822Y-27945751D01*
X112054723Y-27953177D01*
X112060641Y-27960592D01*
X112066573Y-27967993D01*
X112072522Y-27975383D01*
X112078485Y-27982759D01*
X112084465Y-27990124D01*
X112090460Y-27997476D01*
X112096471Y-28004815D01*
X112102497Y-28012141D01*
X112108539Y-28019456D01*
X112114596Y-28026756D01*
X112120669Y-28034045D01*
X112126757Y-28041320D01*
X112132861Y-28048584D01*
X112138979Y-28055834D01*
X112145113Y-28063071D01*
X112151262Y-28070295D01*
X112157428Y-28077507D01*
X112163607Y-28084705D01*
X112169803Y-28091892D01*
X112176013Y-28099064D01*
X112182239Y-28106224D01*
X112188480Y-28113370D01*
X112194736Y-28120504D01*
X112201007Y-28127624D01*
X112207294Y-28134732D01*
X112213594Y-28141826D01*
X112219911Y-28148907D01*
X112226242Y-28155974D01*
X112232589Y-28163029D01*
X112238950Y-28170070D01*
X112245327Y-28177099D01*
X112251717Y-28184113D01*
X112258124Y-28191115D01*
X112264545Y-28198102D01*
X112270981Y-28205077D01*
X112277431Y-28212038D01*
X112283897Y-28218986D01*
X112290377Y-28225920D01*
X112296873Y-28232841D01*
X112303382Y-28239747D01*
X112309907Y-28246642D01*
X112316446Y-28253521D01*
X112323000Y-28260388D01*
X112329568Y-28267240D01*
X112336152Y-28274080D01*
X112342749Y-28280904D01*
X112349362Y-28287717D01*
X112355988Y-28294514D01*
X112362630Y-28301299D01*
X112369285Y-28308068D01*
X112375956Y-28314825D01*
X112382640Y-28321568D01*
X112389340Y-28328297D01*
X112393023Y-28331984D01*
D10*
X111075000Y-54400000D02*
X111075000Y-45650000D01*
D11*
X112393023Y-28331984D02*
X112406475Y-28345379D01*
X112419982Y-28358717D01*
X112433544Y-28371996D01*
X112447162Y-28385218D01*
X112460834Y-28398381D01*
X112474561Y-28411486D01*
X112488342Y-28424532D01*
X112502178Y-28437520D01*
X112516068Y-28450448D01*
X112530011Y-28463318D01*
X112544008Y-28476127D01*
X112558058Y-28488878D01*
X112572161Y-28501568D01*
X112586317Y-28514199D01*
X112600526Y-28526769D01*
X112614788Y-28539279D01*
X112629101Y-28551729D01*
X112643467Y-28564117D01*
X112657884Y-28576445D01*
X112672353Y-28588711D01*
X112686873Y-28600917D01*
X112701444Y-28613060D01*
X112716067Y-28625142D01*
X112730739Y-28637162D01*
X112745462Y-28649120D01*
X112760236Y-28661016D01*
X112775059Y-28672849D01*
X112789932Y-28684619D01*
X112804854Y-28696327D01*
X112819825Y-28707971D01*
X112834845Y-28719552D01*
X112849914Y-28731070D01*
X112865032Y-28742524D01*
X112880197Y-28753914D01*
X112895410Y-28765240D01*
X112910672Y-28776502D01*
X112925980Y-28787699D01*
X112941336Y-28798832D01*
X112956738Y-28809900D01*
X112972187Y-28820903D01*
X112987683Y-28831841D01*
X113003224Y-28842713D01*
X113018812Y-28853520D01*
X113034445Y-28864261D01*
X113050123Y-28874937D01*
X113065846Y-28885546D01*
X113081614Y-28896089D01*
X113097427Y-28906565D01*
X113113283Y-28916975D01*
X113129184Y-28927318D01*
X113145128Y-28937594D01*
X113161116Y-28947803D01*
X113177147Y-28957944D01*
X113193221Y-28968018D01*
X113209337Y-28978024D01*
X113225495Y-28987962D01*
X113241696Y-28997832D01*
X113257938Y-29007634D01*
X113274222Y-29017367D01*
X113290546Y-29027032D01*
X113306912Y-29036628D01*
X113323318Y-29046155D01*
X113339764Y-29055613D01*
X113356250Y-29065002D01*
X113372776Y-29074321D01*
X113389341Y-29083570D01*
X113405946Y-29092750D01*
X113422589Y-29101860D01*
X113439270Y-29110899D01*
X113455990Y-29119869D01*
X113472748Y-29128768D01*
X113489543Y-29137596D01*
X113506375Y-29146353D01*
X113523245Y-29155040D01*
X113540151Y-29163655D01*
X113557093Y-29172199D01*
X113574072Y-29180672D01*
X113591086Y-29189073D01*
X113608136Y-29197403D01*
X113625220Y-29205660D01*
X113642340Y-29213846D01*
X113659494Y-29221959D01*
X113676682Y-29230000D01*
X113693904Y-29237969D01*
X113711160Y-29245865D01*
X113728449Y-29253688D01*
X113745771Y-29261438D01*
X113763125Y-29269116D01*
X113780512Y-29276720D01*
X113797931Y-29284250D01*
X113815381Y-29291708D01*
X113832863Y-29299091D01*
X113850376Y-29306401D01*
X113859143Y-29310029D01*
X113867919Y-29313637D01*
X113876702Y-29317228D01*
X113885493Y-29320799D01*
X113894291Y-29324353D01*
X113903097Y-29327887D01*
X113911910Y-29331403D01*
X113920730Y-29334901D01*
X113929558Y-29338380D01*
X113938393Y-29341840D01*
X113947236Y-29345282D01*
X113956086Y-29348705D01*
X113964942Y-29352109D01*
X113973806Y-29355495D01*
X113982677Y-29358862D01*
X113991556Y-29362210D01*
X114000441Y-29365540D01*
X114009333Y-29368851D01*
X114018232Y-29372143D01*
X114027138Y-29375416D01*
X114036051Y-29378671D01*
X114044971Y-29381906D01*
X114053898Y-29385123D01*
X114062831Y-29388321D01*
X114071771Y-29391500D01*
X114080718Y-29394661D01*
X114089671Y-29397802D01*
X114098631Y-29400925D01*
X114107597Y-29404029D01*
X114116570Y-29407113D01*
X114125550Y-29410179D01*
X114134536Y-29413226D01*
X114143528Y-29416254D01*
X114152526Y-29419263D01*
X114161531Y-29422253D01*
X114170542Y-29425224D01*
X114179559Y-29428176D01*
X114188583Y-29431109D01*
X114197612Y-29434023D01*
X114206648Y-29436918D01*
X114215690Y-29439794D01*
X114224738Y-29442651D01*
X114233791Y-29445488D01*
X114242851Y-29448307D01*
X114251916Y-29451106D01*
X114260988Y-29453887D01*
X114270065Y-29456648D01*
X114279148Y-29459390D01*
X114288237Y-29462112D01*
X114297331Y-29464816D01*
X114306431Y-29467501D01*
X114315537Y-29470166D01*
X114324648Y-29472812D01*
X114333765Y-29475439D01*
X114342887Y-29478046D01*
X114352014Y-29480635D01*
X114361147Y-29483204D01*
X114370286Y-29485754D01*
X114379429Y-29488284D01*
X114388578Y-29490795D01*
X114397732Y-29493287D01*
X114406892Y-29495760D01*
X114416056Y-29498213D01*
X114425226Y-29500647D01*
X114434400Y-29503062D01*
X114443580Y-29505457D01*
X114452765Y-29507833D01*
X114461955Y-29510189D01*
X114471149Y-29512526D01*
X114480349Y-29514844D01*
X114489553Y-29517142D01*
X114498762Y-29519421D01*
X114507975Y-29521681D01*
X114517194Y-29523921D01*
X114526417Y-29526141D01*
X114535645Y-29528342D01*
X114544877Y-29530524D01*
X114554114Y-29532686D01*
X114563355Y-29534828D01*
X114572601Y-29536952D01*
X114581851Y-29539055D01*
X114591106Y-29541139D01*
X114600365Y-29543204D01*
X114609628Y-29545249D01*
X114618895Y-29547274D01*
X114628168Y-29549280D01*
X114637443Y-29551266D01*
X114646723Y-29553233D01*
X114656007Y-29555180D01*
X114665296Y-29557108D01*
X114674587Y-29559016D01*
X114683884Y-29560904D01*
X114693183Y-29562773D01*
X114702488Y-29564622D01*
X114711795Y-29566452D01*
X114721107Y-29568262D01*
X114730422Y-29570052D01*
X114739742Y-29571823D01*
X114749064Y-29573573D01*
X114758391Y-29575305D01*
X114767720Y-29577016D01*
X114777054Y-29578708D01*
X114786391Y-29580380D01*
X114795732Y-29582033D01*
X114805076Y-29583666D01*
X114814424Y-29585279D01*
X114823774Y-29586872D01*
X114833129Y-29588446D01*
X114842486Y-29590000D01*
X114851847Y-29591534D01*
X114861210Y-29593048D01*
X114870578Y-29594543D01*
X114879947Y-29596018D01*
X114889321Y-29597473D01*
X114898697Y-29598908D01*
X114908077Y-29600324D01*
X114917459Y-29601720D01*
X114926845Y-29603096D01*
X114936232Y-29604452D01*
X114945624Y-29605789D01*
X114955017Y-29607105D01*
X114964414Y-29608402D01*
X114973813Y-29609679D01*
X114983215Y-29610936D01*
X114992620Y-29612174D01*
X115002027Y-29613391D01*
X115011437Y-29614589D01*
X115020850Y-29615767D01*
X115030264Y-29616925D01*
X115039682Y-29618063D01*
X115049101Y-29619181D01*
X115058524Y-29620280D01*
X115067948Y-29621358D01*
X115077375Y-29622417D01*
X115086804Y-29623455D01*
X115096236Y-29624474D01*
X115105669Y-29625473D01*
X115115105Y-29626453D01*
X115124542Y-29627412D01*
X115133983Y-29628351D01*
X115143424Y-29629271D01*
X115152869Y-29630170D01*
X115162314Y-29631050D01*
X115171762Y-29631910D01*
X115181211Y-29632749D01*
X115190664Y-29633569D01*
X115200116Y-29634369D01*
X115209572Y-29635149D01*
X115219028Y-29635909D01*
X115228488Y-29636649D01*
X115237947Y-29637370D01*
X115247410Y-29638070D01*
X115256872Y-29638750D01*
X115266338Y-29639411D01*
X115275804Y-29640051D01*
X115285272Y-29640672D01*
X115294741Y-29641272D01*
X115304213Y-29641853D01*
X115313684Y-29642413D01*
X115323158Y-29642954D01*
X115332632Y-29643475D01*
X115342109Y-29643975D01*
X115351585Y-29644456D01*
X115361065Y-29644917D01*
X115370543Y-29645358D01*
X115380025Y-29645779D01*
X115389506Y-29646179D01*
X115398989Y-29646560D01*
X115408472Y-29646921D01*
X115417958Y-29647262D01*
X115427443Y-29647583D01*
X115436930Y-29647884D01*
X115446416Y-29648165D01*
X115455905Y-29648426D01*
X115465394Y-29648667D01*
X115474884Y-29648888D01*
X115484374Y-29649088D01*
X115493866Y-29649269D01*
X115503356Y-29649430D01*
X115512850Y-29649571D01*
X115522342Y-29649692D01*
X115531836Y-29649793D01*
X115541329Y-29649874D01*
X115550824Y-29649935D01*
X115560318Y-29649976D01*
X115569814Y-29649997D01*
X115575000Y-29650000D01*
X112393023Y-42468016D02*
X112379628Y-42481467D01*
X112366291Y-42494974D01*
X112353012Y-42508536D01*
X112339790Y-42522153D01*
X112326627Y-42535825D01*
X112313522Y-42549551D01*
X112300476Y-42563332D01*
X112287489Y-42577167D01*
X112274561Y-42591056D01*
X112261692Y-42604999D01*
X112248882Y-42618996D01*
X112236132Y-42633045D01*
X112223442Y-42647148D01*
X112210811Y-42661304D01*
X112198241Y-42675512D01*
X112185731Y-42689773D01*
X112173282Y-42704087D01*
X112160894Y-42718452D01*
X112148566Y-42732869D01*
X112136300Y-42747337D01*
X112124095Y-42761857D01*
X112111951Y-42776428D01*
X112099869Y-42791050D01*
X112087849Y-42805722D01*
X112075892Y-42820445D01*
X112063996Y-42835218D01*
X112052163Y-42850040D01*
X112040393Y-42864913D01*
X112028686Y-42879835D01*
X112017041Y-42894806D01*
X112005460Y-42909826D01*
X111993943Y-42924894D01*
X111982489Y-42940011D01*
X111971099Y-42955177D01*
X111959773Y-42970390D01*
X111948511Y-42985651D01*
X111937314Y-43000959D01*
X111926181Y-43016314D01*
X111915113Y-43031716D01*
X111904110Y-43047165D01*
X111893172Y-43062660D01*
X111882300Y-43078202D01*
X111871493Y-43093789D01*
X111860752Y-43109422D01*
X111850076Y-43125100D01*
X111839467Y-43140823D01*
X111828924Y-43156590D01*
X111818448Y-43172403D01*
X111808038Y-43188259D01*
X111797695Y-43204160D01*
X111787419Y-43220104D01*
X111777211Y-43236092D01*
X111767069Y-43252122D01*
X111756995Y-43268196D01*
X111746989Y-43284312D01*
X111737051Y-43300470D01*
X111727181Y-43316670D01*
X111717379Y-43332912D01*
X111707646Y-43349196D01*
X111697981Y-43365520D01*
X111688385Y-43381886D01*
X111678858Y-43398292D01*
X111669400Y-43414738D01*
X111660011Y-43431224D01*
X111650692Y-43447750D01*
X111641443Y-43464315D01*
X111632263Y-43480919D01*
X111623153Y-43497562D01*
X111614113Y-43514244D01*
X111605144Y-43530963D01*
X111596245Y-43547721D01*
X111587417Y-43564516D01*
X111578659Y-43581348D01*
X111569973Y-43598218D01*
X111561357Y-43615124D01*
X111552813Y-43632066D01*
X111544340Y-43649044D01*
X111535939Y-43666058D01*
X111527609Y-43683108D01*
X111519352Y-43700193D01*
X111511166Y-43717312D01*
X111503053Y-43734466D01*
X111495012Y-43751655D01*
X111487043Y-43768877D01*
X111479147Y-43786132D01*
X111471323Y-43803421D01*
X111463573Y-43820743D01*
X111455896Y-43838098D01*
X111448292Y-43855484D01*
X111440761Y-43872903D01*
X111433303Y-43890353D01*
X111425920Y-43907835D01*
X111418610Y-43925348D01*
X111414982Y-43934116D01*
X111411373Y-43942891D01*
X111407783Y-43951675D01*
X111404211Y-43960465D01*
X111400658Y-43969263D01*
X111397123Y-43978069D01*
X111393607Y-43986882D01*
X111390110Y-43995703D01*
X111386631Y-44004531D01*
X111383170Y-44013366D01*
X111379728Y-44022208D01*
X111376305Y-44031058D01*
X111372901Y-44039915D01*
X111369515Y-44048779D01*
X111366148Y-44057650D01*
X111362800Y-44066528D01*
X111359470Y-44075414D01*
X111356159Y-44084306D01*
X111352867Y-44093205D01*
X111349594Y-44102111D01*
X111346339Y-44111024D01*
X111343103Y-44119944D01*
X111339886Y-44128870D01*
X111336688Y-44137804D01*
X111333509Y-44146744D01*
X111330349Y-44155691D01*
X111327207Y-44164644D01*
X111324084Y-44173604D01*
X111320981Y-44182570D01*
X111317896Y-44191543D01*
X111314830Y-44200523D01*
X111311783Y-44209509D01*
X111308755Y-44218501D01*
X111305746Y-44227499D01*
X111302756Y-44236504D01*
X111299785Y-44245515D01*
X111296833Y-44254532D01*
X111293900Y-44263556D01*
X111290986Y-44272586D01*
X111288091Y-44281621D01*
X111285215Y-44290663D01*
X111282358Y-44299711D01*
X111279520Y-44308765D01*
X111276702Y-44317824D01*
X111273902Y-44326890D01*
X111271122Y-44335961D01*
X111268361Y-44345038D01*
X111265618Y-44354122D01*
X111262896Y-44363210D01*
X111260192Y-44372305D01*
X111257507Y-44381405D01*
X111254842Y-44390510D01*
X111252196Y-44399621D01*
X111249569Y-44408738D01*
X111246961Y-44417860D01*
X111244373Y-44426988D01*
X111241804Y-44436121D01*
X111239254Y-44445260D01*
X111236723Y-44454403D01*
X111234212Y-44463552D01*
X111231720Y-44472706D01*
X111229247Y-44481866D01*
X111226794Y-44491030D01*
X111224360Y-44500200D01*
X111221945Y-44509374D01*
X111219550Y-44518555D01*
X111217174Y-44527739D01*
X111214818Y-44536929D01*
X111212480Y-44546123D01*
X111210163Y-44555323D01*
X111207864Y-44564527D01*
X111205585Y-44573736D01*
X111203326Y-44582950D01*
X111201086Y-44592169D01*
X111198865Y-44601391D01*
X111196664Y-44610620D01*
X111194483Y-44619852D01*
X111192320Y-44629089D01*
X111190178Y-44638330D01*
X111188055Y-44647576D01*
X111185951Y-44656826D01*
X111183867Y-44666081D01*
X111181802Y-44675339D01*
X111179757Y-44684603D01*
X111177732Y-44693870D01*
X111175726Y-44703142D01*
X111173739Y-44712418D01*
X111171772Y-44721698D01*
X111169825Y-44730982D01*
X111167897Y-44740271D01*
X111165989Y-44749562D01*
X111164101Y-44758859D01*
X111162232Y-44768158D01*
X111160383Y-44777463D01*
X111158553Y-44786770D01*
X111156743Y-44796082D01*
X111154953Y-44805397D01*
X111153182Y-44814717D01*
X111151431Y-44824039D01*
X111149700Y-44833366D01*
X111147989Y-44842696D01*
X111146296Y-44852030D01*
X111144624Y-44861366D01*
X111142972Y-44870708D01*
X111141339Y-44880051D01*
X111139726Y-44889399D01*
X111138132Y-44898749D01*
X111136558Y-44908104D01*
X111135005Y-44917461D01*
X111133470Y-44926822D01*
X111131956Y-44936186D01*
X111130461Y-44945553D01*
X111128986Y-44954923D01*
X111127531Y-44964297D01*
X111126096Y-44973673D01*
X111124680Y-44983053D01*
X111123284Y-44992434D01*
X111121908Y-45001820D01*
X111120552Y-45011208D01*
X111119215Y-45020599D01*
X111117898Y-45029993D01*
X111116601Y-45039390D01*
X111115324Y-45048789D01*
X111114067Y-45058191D01*
X111112830Y-45067595D01*
X111111612Y-45077003D01*
X111110415Y-45086413D01*
X111109237Y-45095826D01*
X111108079Y-45105240D01*
X111106940Y-45114658D01*
X111105822Y-45124077D01*
X111104723Y-45133500D01*
X111103645Y-45142924D01*
X111102586Y-45152351D01*
X111101547Y-45161780D01*
X111100528Y-45171212D01*
X111099529Y-45180645D01*
X111098550Y-45190081D01*
X111097591Y-45199518D01*
X111096651Y-45208959D01*
X111095732Y-45218400D01*
X111094832Y-45227845D01*
X111093953Y-45237290D01*
X111093093Y-45246738D01*
X111092253Y-45256187D01*
X111091433Y-45265639D01*
X111090633Y-45275092D01*
X111089853Y-45284548D01*
X111089093Y-45294004D01*
X111088353Y-45303463D01*
X111087632Y-45312923D01*
X111086932Y-45322385D01*
X111086252Y-45331848D01*
X111085591Y-45341314D01*
X111084951Y-45350779D01*
X111084330Y-45360248D01*
X111083730Y-45369717D01*
X111083149Y-45379188D01*
X111082588Y-45388660D01*
X111082047Y-45398134D01*
X111081527Y-45407608D01*
X111081026Y-45417085D01*
X111080545Y-45426561D01*
X111080084Y-45436040D01*
X111079644Y-45445519D01*
X111079223Y-45455000D01*
X111078822Y-45464481D01*
X111078441Y-45473965D01*
X111078080Y-45483448D01*
X111077739Y-45492933D01*
X111077418Y-45502418D01*
X111077117Y-45511905D01*
X111076836Y-45521392D01*
X111076575Y-45530881D01*
X111076334Y-45540369D01*
X111076113Y-45549859D01*
X111075912Y-45559349D01*
X111075731Y-45568841D01*
X111075570Y-45578331D01*
X111075429Y-45587824D01*
X111075308Y-45597316D01*
X111075207Y-45606811D01*
X111075126Y-45616304D01*
X111075065Y-45625799D01*
X111075024Y-45635292D01*
X111075003Y-45644788D01*
X111075000Y-45650000D01*
D10*
X115575000Y-29650000D02*
X116075000Y-29650000D01*
D11*
X115575000Y-41150000D02*
X115556017Y-41150040D01*
X115537035Y-41150160D01*
X115518055Y-41150360D01*
X115499077Y-41150640D01*
X115480101Y-41151000D01*
X115461129Y-41151439D01*
X115442159Y-41151959D01*
X115423192Y-41152558D01*
X115404229Y-41153238D01*
X115385270Y-41153997D01*
X115366315Y-41154836D01*
X115347365Y-41155756D01*
X115328419Y-41156754D01*
X115309478Y-41157833D01*
X115290542Y-41158992D01*
X115271612Y-41160230D01*
X115252688Y-41161548D01*
X115233770Y-41162946D01*
X115214859Y-41164423D01*
X115195954Y-41165981D01*
X115177057Y-41167617D01*
X115158167Y-41169334D01*
X115139284Y-41171130D01*
X115120410Y-41173006D01*
X115101544Y-41174961D01*
X115082686Y-41176996D01*
X115063838Y-41179110D01*
X115044998Y-41181304D01*
X115026169Y-41183577D01*
X115007349Y-41185929D01*
X114988539Y-41188361D01*
X114969739Y-41190872D01*
X114950951Y-41193462D01*
X114932173Y-41196132D01*
X114913407Y-41198880D01*
X114894653Y-41201708D01*
X114875911Y-41204615D01*
X114857181Y-41207601D01*
X114838463Y-41210666D01*
X114819759Y-41213809D01*
X114801068Y-41217032D01*
X114782391Y-41220334D01*
X114763727Y-41223714D01*
X114745078Y-41227173D01*
X114726443Y-41230710D01*
X114707823Y-41234326D01*
X114689219Y-41238021D01*
X114670630Y-41241794D01*
X114652057Y-41245646D01*
X114633500Y-41249575D01*
X114614960Y-41253584D01*
X114596436Y-41257670D01*
X114577930Y-41261834D01*
X114559441Y-41266077D01*
X114540969Y-41270397D01*
X114522516Y-41274796D01*
X114504082Y-41279272D01*
X114485666Y-41283826D01*
X114467270Y-41288457D01*
X114448892Y-41293166D01*
X114430535Y-41297953D01*
X114412198Y-41302817D01*
X114393881Y-41307759D01*
X114375584Y-41312777D01*
X114357309Y-41317873D01*
X114339056Y-41323046D01*
X114320824Y-41328296D01*
X114302614Y-41333623D01*
X114284426Y-41339027D01*
X114266261Y-41344507D01*
X114248120Y-41350064D01*
X114230001Y-41355697D01*
X114211906Y-41361407D01*
X114193836Y-41367193D01*
X114175789Y-41373055D01*
X114157768Y-41378994D01*
X114139771Y-41385008D01*
X114121800Y-41391099D01*
X114103854Y-41397265D01*
X114085934Y-41403506D01*
X114068041Y-41409824D01*
X114050174Y-41416216D01*
X114032334Y-41422684D01*
X114014522Y-41429227D01*
X113996737Y-41435846D01*
X113978980Y-41442539D01*
X113961251Y-41449307D01*
X113943551Y-41456150D01*
X113925880Y-41463067D01*
X113908238Y-41470059D01*
X113890626Y-41477125D01*
X113873043Y-41484265D01*
X113855491Y-41491480D01*
X113846726Y-41495115D01*
X113837969Y-41498768D01*
X113829220Y-41502440D01*
X113820478Y-41506130D01*
X113811744Y-41509839D01*
X113803018Y-41513566D01*
X113794300Y-41517312D01*
X113785590Y-41521076D01*
X113776888Y-41524858D01*
X113768194Y-41528659D01*
X113759508Y-41532478D01*
X113750829Y-41536315D01*
X113742159Y-41540170D01*
X113733497Y-41544044D01*
X113724844Y-41547936D01*
X113716198Y-41551846D01*
X113707561Y-41555775D01*
X113698932Y-41559721D01*
X113690312Y-41563686D01*
X113681700Y-41567669D01*
X113673096Y-41571670D01*
X113664501Y-41575689D01*
X113655914Y-41579727D01*
X113647336Y-41583782D01*
X113638766Y-41587856D01*
X113630205Y-41591947D01*
X113621653Y-41596057D01*
X113613109Y-41600184D01*
X113604574Y-41604330D01*
X113596048Y-41608493D01*
X113587531Y-41612675D01*
X113579022Y-41616874D01*
X113570523Y-41621092D01*
X113562032Y-41625327D01*
X113553550Y-41629580D01*
X113545078Y-41633851D01*
X113536614Y-41638140D01*
X113528160Y-41642446D01*
X113519714Y-41646771D01*
X113511278Y-41651113D01*
X113502851Y-41655473D01*
X113494433Y-41659851D01*
X113486025Y-41664246D01*
X113477625Y-41668659D01*
X113469236Y-41673090D01*
X113460855Y-41677539D01*
X113452484Y-41682005D01*
X113444122Y-41686488D01*
X113435771Y-41690990D01*
X113427428Y-41695509D01*
X113419095Y-41700045D01*
X113410772Y-41704599D01*
X113402458Y-41709170D01*
X113394154Y-41713760D01*
X113385860Y-41718366D01*
X113377575Y-41722990D01*
X113369301Y-41727631D01*
X113361036Y-41732290D01*
X113352781Y-41736966D01*
X113344536Y-41741660D01*
X113336301Y-41746371D01*
X113328076Y-41751099D01*
X113319861Y-41755845D01*
X113311656Y-41760608D01*
X113303461Y-41765388D01*
X113295276Y-41770185D01*
X113287102Y-41774999D01*
X113278937Y-41779831D01*
X113270783Y-41784680D01*
X113262639Y-41789547D01*
X113254506Y-41794430D01*
X113246382Y-41799330D01*
X113238270Y-41804247D01*
X113230167Y-41809182D01*
X113222075Y-41814134D01*
X113213993Y-41819102D01*
X113205923Y-41824088D01*
X113197862Y-41829091D01*
X113189813Y-41834110D01*
X113181773Y-41839147D01*
X113173745Y-41844200D01*
X113165727Y-41849271D01*
X113157721Y-41854358D01*
X113149724Y-41859462D01*
X113141739Y-41864583D01*
X113133764Y-41869720D01*
X113125801Y-41874875D01*
X113117848Y-41880046D01*
X113109906Y-41885234D01*
X113101975Y-41890439D01*
X113094056Y-41895660D01*
X113086147Y-41900898D01*
X113078249Y-41906153D01*
X113070363Y-41911424D01*
X113062488Y-41916712D01*
X113054623Y-41922017D01*
X113046771Y-41927338D01*
X113038928Y-41932676D01*
X113031099Y-41938029D01*
X113023279Y-41943400D01*
X113015472Y-41948787D01*
X113007675Y-41954191D01*
X112999891Y-41959611D01*
X112992117Y-41965047D01*
X112984355Y-41970500D01*
X112976605Y-41975969D01*
X112968866Y-41981454D01*
X112961139Y-41986956D01*
X112953423Y-41992474D01*
X112945719Y-41998008D01*
X112938027Y-42003558D01*
X112930346Y-42009125D01*
X112922678Y-42014708D01*
X112915021Y-42020307D01*
X112907376Y-42025922D01*
X112899742Y-42031553D01*
X112892121Y-42037200D01*
X112884511Y-42042864D01*
X112876914Y-42048543D01*
X112869328Y-42054239D01*
X112861755Y-42059950D01*
X112854193Y-42065678D01*
X112846644Y-42071421D01*
X112839107Y-42077181D01*
X112831582Y-42082956D01*
X112824069Y-42088747D01*
X112816568Y-42094554D01*
X112809079Y-42100377D01*
X112801604Y-42106215D01*
X112794139Y-42112070D01*
X112786688Y-42117939D01*
X112779248Y-42123826D01*
X112771822Y-42129727D01*
X112764407Y-42135644D01*
X112757005Y-42141577D01*
X112749615Y-42147526D01*
X112742239Y-42153489D01*
X112734874Y-42159470D01*
X112727522Y-42165464D01*
X112720182Y-42171476D01*
X112712856Y-42177502D01*
X112705542Y-42183544D01*
X112698241Y-42189601D01*
X112690952Y-42195674D01*
X112683676Y-42201762D01*
X112676413Y-42207866D01*
X112669163Y-42213984D01*
X112661925Y-42220119D01*
X112654701Y-42226268D01*
X112647489Y-42232433D01*
X112640291Y-42238613D01*
X112633104Y-42244809D01*
X112625932Y-42251019D01*
X112618772Y-42257245D01*
X112611625Y-42263486D01*
X112604491Y-42269742D01*
X112597371Y-42276013D01*
X112590263Y-42282300D01*
X112583169Y-42288601D01*
X112576087Y-42294918D01*
X112569020Y-42301249D01*
X112561965Y-42307596D01*
X112554924Y-42313957D01*
X112547895Y-42320334D01*
X112540881Y-42326725D01*
X112533879Y-42333132D01*
X112526891Y-42339552D01*
X112519916Y-42345989D01*
X112512955Y-42352439D01*
X112506007Y-42358906D01*
X112499073Y-42365385D01*
X112492151Y-42371881D01*
X112485245Y-42378391D01*
X112478350Y-42384916D01*
X112471471Y-42391455D01*
X112464604Y-42398009D01*
X112457751Y-42404577D01*
X112450911Y-42411161D01*
X112444087Y-42417759D01*
X112437274Y-42424372D01*
X112430477Y-42430998D01*
X112423692Y-42437640D01*
X112416922Y-42444295D01*
X112410164Y-42450966D01*
X112403422Y-42457651D01*
X112396693Y-42464351D01*
X112393023Y-42468016D01*
D10*
X115575000Y-41150000D02*
X116075000Y-41150000D01*
D11*
X116075000Y-41150000D02*
X116083947Y-41149960D01*
X116092891Y-41149840D01*
X116101834Y-41149640D01*
X116110773Y-41149361D01*
X116119709Y-41149001D01*
X116128640Y-41148562D01*
X116137566Y-41148043D01*
X116146487Y-41147444D01*
X116155402Y-41146765D01*
X116164310Y-41146007D01*
X116173211Y-41145169D01*
X116182104Y-41144251D01*
X116190987Y-41143254D01*
X116199862Y-41142178D01*
X116208727Y-41141022D01*
X116217580Y-41139787D01*
X116226423Y-41138473D01*
X116235254Y-41137080D01*
X116244071Y-41135608D01*
X116252876Y-41134057D01*
X116261666Y-41132428D01*
X116270442Y-41130720D01*
X116279203Y-41128933D01*
X116287947Y-41127068D01*
X116296675Y-41125125D01*
X116305385Y-41123104D01*
X116314077Y-41121004D01*
X116322750Y-41118828D01*
X116331404Y-41116573D01*
X116340037Y-41114241D01*
X116348650Y-41111832D01*
X116357240Y-41109346D01*
X116365809Y-41106784D01*
X116374355Y-41104144D01*
X116382877Y-41101428D01*
X116391374Y-41098636D01*
X116399847Y-41095769D01*
X116408294Y-41092825D01*
X116416714Y-41089806D01*
X116425107Y-41086711D01*
X116433472Y-41083542D01*
X116441809Y-41080298D01*
X116450116Y-41076979D01*
X116458394Y-41073587D01*
X116462521Y-41071863D01*
X116466641Y-41070120D01*
X116470753Y-41068359D01*
X116474857Y-41066580D01*
X116478952Y-41064782D01*
X116483040Y-41062966D01*
X116487120Y-41061132D01*
X116491191Y-41059279D01*
X116495255Y-41057409D01*
X116499309Y-41055520D01*
X116503355Y-41053613D01*
X116507393Y-41051688D01*
X116511422Y-41049745D01*
X116515442Y-41047784D01*
X116519454Y-41045805D01*
X116523456Y-41043808D01*
X116527450Y-41041794D01*
X116531434Y-41039761D01*
X116535409Y-41037711D01*
X116539376Y-41035642D01*
X116543332Y-41033557D01*
X116547280Y-41031453D01*
X116551217Y-41029332D01*
X116555146Y-41027193D01*
X116559064Y-41025037D01*
X116562974Y-41022864D01*
X116566873Y-41020673D01*
X116570762Y-41018464D01*
X116574641Y-41016238D01*
X116578511Y-41013995D01*
X116582370Y-41011735D01*
X116586219Y-41009457D01*
X116590058Y-41007162D01*
X116593887Y-41004850D01*
X116597704Y-41002521D01*
X116601512Y-41000175D01*
X116605309Y-40997812D01*
X116609096Y-40995431D01*
X116612871Y-40993035D01*
X116616636Y-40990621D01*
X116620390Y-40988190D01*
X116624133Y-40985743D01*
X116627865Y-40983279D01*
X116631586Y-40980798D01*
X116635296Y-40978301D01*
X116638995Y-40975787D01*
X116642681Y-40973257D01*
X116646358Y-40970710D01*
X116650022Y-40968147D01*
X116653675Y-40965567D01*
X116657316Y-40962971D01*
X116660946Y-40960359D01*
X116664564Y-40957730D01*
X116668170Y-40955085D01*
X116671764Y-40952425D01*
X116675347Y-40949748D01*
X116678917Y-40947056D01*
X116682476Y-40944346D01*
X116686022Y-40941622D01*
X116689556Y-40938881D01*
X116693077Y-40936125D01*
X116696587Y-40933353D01*
X116700084Y-40930565D01*
X116703569Y-40927761D01*
X116707040Y-40924943D01*
X116710500Y-40922108D01*
X116713947Y-40919258D01*
X116717381Y-40916392D01*
X116720802Y-40913511D01*
X116724211Y-40910615D01*
X116727606Y-40907703D01*
X116730989Y-40904776D01*
X116734358Y-40901834D01*
X116737715Y-40898877D01*
X116741058Y-40895905D01*
X116744388Y-40892917D01*
X116747705Y-40889915D01*
X116751009Y-40886897D01*
X116754298Y-40883866D01*
X116757576Y-40880818D01*
X116760838Y-40877757D01*
X116764089Y-40874680D01*
X116767324Y-40871589D01*
X116770547Y-40868483D01*
X116773755Y-40865363D01*
X116776951Y-40862227D01*
X116782107Y-40857108D01*
X116782107Y-29942892D02*
X116775753Y-29936594D01*
X116769344Y-29930355D01*
X116762880Y-29924173D01*
X116756362Y-29918050D01*
X116749790Y-29911987D01*
X116743165Y-29905982D01*
X116736486Y-29900038D01*
X116729755Y-29894153D01*
X116722972Y-29888330D01*
X116716138Y-29882567D01*
X116709252Y-29876866D01*
X116702316Y-29871227D01*
X116695329Y-29865651D01*
X116688294Y-29860137D01*
X116681209Y-29854686D01*
X116674076Y-29849299D01*
X116666894Y-29843976D01*
X116659666Y-29838717D01*
X116652390Y-29833523D01*
X116645068Y-29828394D01*
X116637700Y-29823331D01*
X116630288Y-29818333D01*
X116622830Y-29813402D01*
X116615328Y-29808538D01*
X116607783Y-29803741D01*
X116600196Y-29799011D01*
X116592565Y-29794350D01*
X116584894Y-29789756D01*
X116577181Y-29785231D01*
X116569428Y-29780776D01*
X116561634Y-29776389D01*
X116553802Y-29772072D01*
X116545931Y-29767826D01*
X116538022Y-29763649D01*
X116530076Y-29759544D01*
X116522094Y-29755509D01*
X116514075Y-29751546D01*
X116506021Y-29747655D01*
X116497932Y-29743836D01*
X116489809Y-29740089D01*
X116481653Y-29736415D01*
X116473464Y-29732814D01*
X116465244Y-29729287D01*
X116456992Y-29725832D01*
X116452854Y-29724133D01*
X116448709Y-29722452D01*
X116444556Y-29720790D01*
X116440396Y-29719146D01*
X116436229Y-29717521D01*
X116432054Y-29715915D01*
X116427872Y-29714327D01*
X116423683Y-29712758D01*
X116419488Y-29711207D01*
X116415285Y-29709676D01*
X116411075Y-29708163D01*
X116406859Y-29706669D01*
X116402636Y-29705194D01*
X116398407Y-29703738D01*
X116394171Y-29702301D01*
X116389928Y-29700883D01*
X116385680Y-29699483D01*
X116381425Y-29698103D01*
X116377164Y-29696742D01*
X116372897Y-29695400D01*
X116368625Y-29694077D01*
X116364346Y-29692773D01*
X116360062Y-29691488D01*
X116355771Y-29690223D01*
X116351476Y-29688976D01*
X116347174Y-29687749D01*
X116342868Y-29686541D01*
X116338556Y-29685353D01*
X116334239Y-29684183D01*
X116329916Y-29683033D01*
X116325589Y-29681903D01*
X116321256Y-29680792D01*
X116316919Y-29679700D01*
X116312577Y-29678627D01*
X116308230Y-29677575D01*
X116303878Y-29676541D01*
X116299523Y-29675527D01*
X116295162Y-29674533D01*
X116290797Y-29673558D01*
X116286428Y-29672602D01*
X116282055Y-29671666D01*
X116277677Y-29670750D01*
X116273296Y-29669853D01*
X116268910Y-29668976D01*
X116264521Y-29668119D01*
X116260128Y-29667281D01*
X116255731Y-29666463D01*
X116251330Y-29665664D01*
X116246927Y-29664886D01*
X116242519Y-29664127D01*
X116238109Y-29663387D01*
X116233695Y-29662668D01*
X116229278Y-29661968D01*
X116224857Y-29661288D01*
X116220435Y-29660628D01*
X116216008Y-29659987D01*
X116211579Y-29659367D01*
X116207147Y-29658766D01*
X116202713Y-29658185D01*
X116198276Y-29657624D01*
X116193837Y-29657082D01*
X116189394Y-29656561D01*
X116184950Y-29656059D01*
X116180503Y-29655578D01*
X116176055Y-29655116D01*
X116171603Y-29654674D01*
X116167151Y-29654252D01*
X116162696Y-29653850D01*
X116158240Y-29653468D01*
X116153780Y-29653106D01*
X116149321Y-29652763D01*
X116144858Y-29652441D01*
X116140396Y-29652139D01*
X116135930Y-29651856D01*
X116131465Y-29651594D01*
X116126997Y-29651351D01*
X116122529Y-29651129D01*
X116118058Y-29650926D01*
X116113588Y-29650744D01*
X116109115Y-29650581D01*
X116104643Y-29650439D01*
X116100169Y-29650316D01*
X116095695Y-29650214D01*
X116091219Y-29650131D01*
X116086744Y-29650069D01*
X116082267Y-29650026D01*
X116075000Y-29650000D01*
X116782107Y-40857108D02*
X116788405Y-40850753D01*
X116794645Y-40844343D01*
X116800827Y-40837879D01*
X116806950Y-40831359D01*
X116813015Y-40824786D01*
X116819019Y-40818160D01*
X116824964Y-40811481D01*
X116830849Y-40804749D01*
X116836673Y-40797965D01*
X116842435Y-40791129D01*
X116848137Y-40784243D01*
X116853776Y-40777306D01*
X116859353Y-40770319D01*
X116864867Y-40763282D01*
X116870318Y-40756197D01*
X116875705Y-40749063D01*
X116881029Y-40741881D01*
X116886288Y-40734651D01*
X116891482Y-40727375D01*
X116896611Y-40720052D01*
X116901675Y-40712684D01*
X116906672Y-40705270D01*
X116911604Y-40697812D01*
X116916468Y-40690310D01*
X116921265Y-40682764D01*
X116925995Y-40675176D01*
X116930657Y-40667545D01*
X116935250Y-40659873D01*
X116939775Y-40652159D01*
X116944231Y-40644406D01*
X116948618Y-40636612D01*
X116952935Y-40628779D01*
X116957181Y-40620908D01*
X116961358Y-40612999D01*
X116965463Y-40605052D01*
X116969498Y-40597069D01*
X116973461Y-40589050D01*
X116977352Y-40580995D01*
X116981171Y-40572906D01*
X116984918Y-40564783D01*
X116988592Y-40556627D01*
X116992193Y-40548438D01*
X116995720Y-40540217D01*
X116999174Y-40531964D01*
X117000874Y-40527827D01*
X117002555Y-40523681D01*
X117004217Y-40519529D01*
X117005861Y-40515368D01*
X117007486Y-40511201D01*
X117009092Y-40507026D01*
X117010680Y-40502844D01*
X117012249Y-40498655D01*
X117013799Y-40494459D01*
X117015331Y-40490257D01*
X117016843Y-40486047D01*
X117018337Y-40481831D01*
X117019812Y-40477608D01*
X117021268Y-40473378D01*
X117022705Y-40469142D01*
X117024124Y-40464900D01*
X117025523Y-40460652D01*
X117026903Y-40456397D01*
X117028264Y-40452136D01*
X117029606Y-40447869D01*
X117030929Y-40443596D01*
X117032233Y-40439317D01*
X117033518Y-40435033D01*
X117034783Y-40430743D01*
X117036029Y-40426447D01*
X117037257Y-40422146D01*
X117038464Y-40417839D01*
X117039653Y-40413527D01*
X117040822Y-40409210D01*
X117041972Y-40404887D01*
X117043102Y-40400560D01*
X117044214Y-40396228D01*
X117045305Y-40391891D01*
X117046378Y-40387548D01*
X117047430Y-40383202D01*
X117048464Y-40378850D01*
X117049478Y-40374494D01*
X117050472Y-40370134D01*
X117051447Y-40365769D01*
X117052402Y-40361400D01*
X117053338Y-40357027D01*
X117054254Y-40352649D01*
X117055151Y-40348268D01*
X117056028Y-40343882D01*
X117056885Y-40339493D01*
X117057723Y-40335100D01*
X117058541Y-40330704D01*
X117059339Y-40326303D01*
X117060118Y-40321900D01*
X117060877Y-40317492D01*
X117061616Y-40313082D01*
X117062336Y-40308667D01*
X117063035Y-40304251D01*
X117063715Y-40299830D01*
X117064375Y-40295408D01*
X117065016Y-40290981D01*
X117065636Y-40286553D01*
X117066237Y-40282120D01*
X117066818Y-40277687D01*
X117067379Y-40273249D01*
X117067920Y-40268810D01*
X117068442Y-40264368D01*
X117068943Y-40259924D01*
X117069425Y-40255477D01*
X117069886Y-40251029D01*
X117070328Y-40246578D01*
X117070750Y-40242126D01*
X117071152Y-40237670D01*
X117071534Y-40233214D01*
X117071896Y-40228755D01*
X117072238Y-40224296D01*
X117072561Y-40219834D01*
X117072863Y-40215371D01*
X117073145Y-40210906D01*
X117073407Y-40206440D01*
X117073650Y-40201972D01*
X117073872Y-40197505D01*
X117074074Y-40193034D01*
X117074257Y-40188564D01*
X117074419Y-40184092D01*
X117074562Y-40179620D01*
X117074684Y-40175145D01*
X117074787Y-40170672D01*
X117074869Y-40166196D01*
X117074931Y-40161722D01*
X117074974Y-40157245D01*
X117075000Y-40150000D01*
X117075000Y-30650000D02*
X117074960Y-30641054D01*
X117074840Y-30632109D01*
X117074640Y-30623167D01*
X117074361Y-30614228D01*
X117074001Y-30605293D01*
X117073562Y-30596362D01*
X117073043Y-30587436D01*
X117072444Y-30578515D01*
X117071765Y-30569601D01*
X117071007Y-30560693D01*
X117070169Y-30551793D01*
X117069251Y-30542900D01*
X117068254Y-30534017D01*
X117067178Y-30525142D01*
X117066022Y-30516278D01*
X117064787Y-30507425D01*
X117063473Y-30498582D01*
X117062080Y-30489752D01*
X117060608Y-30480934D01*
X117059057Y-30472130D01*
X117057428Y-30463340D01*
X117055720Y-30454564D01*
X117053933Y-30445804D01*
X117052068Y-30437060D01*
X117050125Y-30428332D01*
X117048103Y-30419622D01*
X117046004Y-30410930D01*
X117043827Y-30402257D01*
X117041573Y-30393604D01*
X117039241Y-30384970D01*
X117036832Y-30376358D01*
X117034346Y-30367767D01*
X117031783Y-30359199D01*
X117029144Y-30350653D01*
X117026428Y-30342131D01*
X117023636Y-30333633D01*
X117020768Y-30325161D01*
X117017824Y-30316714D01*
X117014805Y-30308294D01*
X117011710Y-30299901D01*
X117008541Y-30291535D01*
X117005297Y-30283198D01*
X117001978Y-30274891D01*
X116998585Y-30266613D01*
X116996861Y-30262486D01*
X116995118Y-30258366D01*
X116993357Y-30254254D01*
X116991578Y-30250150D01*
X116989780Y-30246054D01*
X116987964Y-30241966D01*
X116986130Y-30237886D01*
X116984277Y-30233815D01*
X116982407Y-30229752D01*
X116980518Y-30225697D01*
X116978611Y-30221651D01*
X116976686Y-30217613D01*
X116974743Y-30213584D01*
X116972782Y-30209563D01*
X116970803Y-30205552D01*
X116968806Y-30201549D01*
X116966791Y-30197555D01*
X116964758Y-30193571D01*
X116962708Y-30189595D01*
X116960639Y-30185629D01*
X116958554Y-30181672D01*
X116956450Y-30177724D01*
X116954329Y-30173787D01*
X116952190Y-30169858D01*
X116950034Y-30165939D01*
X116947860Y-30162030D01*
X116945669Y-30158131D01*
X116943460Y-30154241D01*
X116941234Y-30150362D01*
X116938991Y-30146492D01*
X116936730Y-30142633D01*
X116934452Y-30138783D01*
X116932157Y-30134944D01*
X116929845Y-30131115D01*
X116927516Y-30127297D01*
X116925170Y-30123489D01*
X116922807Y-30119692D01*
X116920426Y-30115905D01*
X116918029Y-30112130D01*
X116915615Y-30108364D01*
X116913185Y-30104610D01*
X116910737Y-30100867D01*
X116908273Y-30097135D01*
X116905792Y-30093413D01*
X116903295Y-30089703D01*
X116900780Y-30086004D01*
X116898250Y-30082317D01*
X116895703Y-30078640D01*
X116893140Y-30074976D01*
X116890559Y-30071322D01*
X116887964Y-30067681D01*
X116885351Y-30064051D01*
X116882723Y-30060433D01*
X116880078Y-30056826D01*
X116877417Y-30053232D01*
X116874740Y-30049649D01*
X116872047Y-30046078D01*
X116869338Y-30042519D01*
X116866613Y-30038973D01*
X116863872Y-30035438D01*
X116861116Y-30031917D01*
X116858343Y-30028407D01*
X116855556Y-30024910D01*
X116852751Y-30021424D01*
X116849933Y-30017953D01*
X116847097Y-30014492D01*
X116844247Y-30011046D01*
X116841381Y-30007611D01*
X116838500Y-30004190D01*
X116835603Y-30000780D01*
X116832692Y-29997385D01*
X116829764Y-29994001D01*
X116826822Y-29990632D01*
X116823864Y-29987275D01*
X116820892Y-29983931D01*
X116817904Y-29980600D01*
X116814902Y-29977284D01*
X116811884Y-29973979D01*
X116808852Y-29970689D01*
X116805804Y-29967411D01*
X116802743Y-29964148D01*
X116799665Y-29960898D01*
X116796574Y-29957662D01*
X116793468Y-29954439D01*
X116790348Y-29951230D01*
X116787212Y-29948034D01*
X116782107Y-29942892D01*
D10*
X117075000Y-40150000D02*
X117075000Y-30650000D01*
M02*
