%TF.GenerationSoftware,KiCad,Pcbnew,10.0.1*%
%TF.CreationDate,2026-07-18T18:51:21+02:00*%
%TF.ProjectId,ismd_fc_sensortest,69736d64-5f66-4635-9f73-656e736f7274,rev?*%
%TF.SameCoordinates,Original*%
%TF.FileFunction,Legend,Top*%
%TF.FilePolarity,Positive*%
%FSLAX46Y46*%
G04 Gerber Fmt 4.6, Leading zero omitted, Abs format (unit mm)*
G04 Created by KiCad (PCBNEW 10.0.1) date 2026-07-18 18:51:21*
%MOMM*%
%LPD*%
G01*
G04 APERTURE LIST*
%ADD10C,0.200000*%
%ADD11C,0.125000*%
%ADD12C,0.150000*%
%ADD13C,0.080000*%
%ADD14C,0.120000*%
%ADD15C,0.050000*%
%ADD16C,0.127000*%
%ADD17C,0.100000*%
%ADD18C,0.250000*%
%ADD19C,0.175000*%
%ADD20C,0.010000*%
%ADD21C,0.000000*%
G04 APERTURE END LIST*
D10*
X20000000Y-22025000D02*
X29000000Y-22025000D01*
X29000000Y-31025000D01*
X20000000Y-31025000D01*
X20000000Y-22025000D01*
X20000000Y-31025000D02*
X29000000Y-31025000D01*
X29000000Y-40025000D01*
X20000000Y-40025000D01*
X20000000Y-31025000D01*
X20000000Y-40025000D02*
X29000000Y-40025000D01*
X29000000Y-49025000D01*
X20000000Y-49025000D01*
X20000000Y-40025000D01*
X29000000Y-22025000D02*
X38000000Y-22025000D01*
X38000000Y-31025000D01*
X29000000Y-31025000D01*
X29000000Y-22025000D01*
X29000000Y-31025000D02*
X38000000Y-31025000D01*
X38000000Y-40025000D01*
X29000000Y-40025000D01*
X29000000Y-31025000D01*
X29000000Y-40025000D02*
X38000000Y-40025000D01*
X38000000Y-49025000D01*
X29000000Y-49025000D01*
X29000000Y-40025000D01*
X38000000Y-22025000D02*
X47000000Y-22025000D01*
X47000000Y-31025000D01*
X38000000Y-31025000D01*
X38000000Y-22025000D01*
X38000000Y-31025000D02*
X47000000Y-31025000D01*
X47000000Y-40025000D01*
X38000000Y-40025000D01*
X38000000Y-31025000D01*
X38000000Y-40025000D02*
X47000000Y-40025000D01*
X47000000Y-49025000D01*
X38000000Y-49025000D01*
X38000000Y-40025000D01*
D11*
X33316666Y-33277190D02*
X33292857Y-33301000D01*
X33292857Y-33301000D02*
X33221428Y-33324809D01*
X33221428Y-33324809D02*
X33173809Y-33324809D01*
X33173809Y-33324809D02*
X33102381Y-33301000D01*
X33102381Y-33301000D02*
X33054762Y-33253380D01*
X33054762Y-33253380D02*
X33030952Y-33205761D01*
X33030952Y-33205761D02*
X33007143Y-33110523D01*
X33007143Y-33110523D02*
X33007143Y-33039095D01*
X33007143Y-33039095D02*
X33030952Y-32943857D01*
X33030952Y-32943857D02*
X33054762Y-32896238D01*
X33054762Y-32896238D02*
X33102381Y-32848619D01*
X33102381Y-32848619D02*
X33173809Y-32824809D01*
X33173809Y-32824809D02*
X33221428Y-32824809D01*
X33221428Y-32824809D02*
X33292857Y-32848619D01*
X33292857Y-32848619D02*
X33316666Y-32872428D01*
X33602381Y-33039095D02*
X33554762Y-33015285D01*
X33554762Y-33015285D02*
X33530952Y-32991476D01*
X33530952Y-32991476D02*
X33507143Y-32943857D01*
X33507143Y-32943857D02*
X33507143Y-32920047D01*
X33507143Y-32920047D02*
X33530952Y-32872428D01*
X33530952Y-32872428D02*
X33554762Y-32848619D01*
X33554762Y-32848619D02*
X33602381Y-32824809D01*
X33602381Y-32824809D02*
X33697619Y-32824809D01*
X33697619Y-32824809D02*
X33745238Y-32848619D01*
X33745238Y-32848619D02*
X33769047Y-32872428D01*
X33769047Y-32872428D02*
X33792857Y-32920047D01*
X33792857Y-32920047D02*
X33792857Y-32943857D01*
X33792857Y-32943857D02*
X33769047Y-32991476D01*
X33769047Y-32991476D02*
X33745238Y-33015285D01*
X33745238Y-33015285D02*
X33697619Y-33039095D01*
X33697619Y-33039095D02*
X33602381Y-33039095D01*
X33602381Y-33039095D02*
X33554762Y-33062904D01*
X33554762Y-33062904D02*
X33530952Y-33086714D01*
X33530952Y-33086714D02*
X33507143Y-33134333D01*
X33507143Y-33134333D02*
X33507143Y-33229571D01*
X33507143Y-33229571D02*
X33530952Y-33277190D01*
X33530952Y-33277190D02*
X33554762Y-33301000D01*
X33554762Y-33301000D02*
X33602381Y-33324809D01*
X33602381Y-33324809D02*
X33697619Y-33324809D01*
X33697619Y-33324809D02*
X33745238Y-33301000D01*
X33745238Y-33301000D02*
X33769047Y-33277190D01*
X33769047Y-33277190D02*
X33792857Y-33229571D01*
X33792857Y-33229571D02*
X33792857Y-33134333D01*
X33792857Y-33134333D02*
X33769047Y-33086714D01*
X33769047Y-33086714D02*
X33745238Y-33062904D01*
X33745238Y-33062904D02*
X33697619Y-33039095D01*
X33816666Y-29077190D02*
X33792857Y-29101000D01*
X33792857Y-29101000D02*
X33721428Y-29124809D01*
X33721428Y-29124809D02*
X33673809Y-29124809D01*
X33673809Y-29124809D02*
X33602381Y-29101000D01*
X33602381Y-29101000D02*
X33554762Y-29053380D01*
X33554762Y-29053380D02*
X33530952Y-29005761D01*
X33530952Y-29005761D02*
X33507143Y-28910523D01*
X33507143Y-28910523D02*
X33507143Y-28839095D01*
X33507143Y-28839095D02*
X33530952Y-28743857D01*
X33530952Y-28743857D02*
X33554762Y-28696238D01*
X33554762Y-28696238D02*
X33602381Y-28648619D01*
X33602381Y-28648619D02*
X33673809Y-28624809D01*
X33673809Y-28624809D02*
X33721428Y-28624809D01*
X33721428Y-28624809D02*
X33792857Y-28648619D01*
X33792857Y-28648619D02*
X33816666Y-28672428D01*
X33983333Y-28624809D02*
X34316666Y-28624809D01*
X34316666Y-28624809D02*
X34102381Y-29124809D01*
D12*
X33095238Y-22831009D02*
X33238095Y-22878628D01*
X33238095Y-22878628D02*
X33285714Y-22926247D01*
X33285714Y-22926247D02*
X33333333Y-23021485D01*
X33333333Y-23021485D02*
X33333333Y-23164342D01*
X33333333Y-23164342D02*
X33285714Y-23259580D01*
X33285714Y-23259580D02*
X33238095Y-23307200D01*
X33238095Y-23307200D02*
X33142857Y-23354819D01*
X33142857Y-23354819D02*
X32761905Y-23354819D01*
X32761905Y-23354819D02*
X32761905Y-22354819D01*
X32761905Y-22354819D02*
X33095238Y-22354819D01*
X33095238Y-22354819D02*
X33190476Y-22402438D01*
X33190476Y-22402438D02*
X33238095Y-22450057D01*
X33238095Y-22450057D02*
X33285714Y-22545295D01*
X33285714Y-22545295D02*
X33285714Y-22640533D01*
X33285714Y-22640533D02*
X33238095Y-22735771D01*
X33238095Y-22735771D02*
X33190476Y-22783390D01*
X33190476Y-22783390D02*
X33095238Y-22831009D01*
X33095238Y-22831009D02*
X32761905Y-22831009D01*
X34190476Y-22688152D02*
X34190476Y-23354819D01*
X33952381Y-22307200D02*
X33714286Y-23021485D01*
X33714286Y-23021485D02*
X34333333Y-23021485D01*
X30785714Y-30554819D02*
X30785714Y-29554819D01*
X30785714Y-29554819D02*
X31119047Y-30269104D01*
X31119047Y-30269104D02*
X31452380Y-29554819D01*
X31452380Y-29554819D02*
X31452380Y-30554819D01*
X31880952Y-30507200D02*
X32023809Y-30554819D01*
X32023809Y-30554819D02*
X32261904Y-30554819D01*
X32261904Y-30554819D02*
X32357142Y-30507200D01*
X32357142Y-30507200D02*
X32404761Y-30459580D01*
X32404761Y-30459580D02*
X32452380Y-30364342D01*
X32452380Y-30364342D02*
X32452380Y-30269104D01*
X32452380Y-30269104D02*
X32404761Y-30173866D01*
X32404761Y-30173866D02*
X32357142Y-30126247D01*
X32357142Y-30126247D02*
X32261904Y-30078628D01*
X32261904Y-30078628D02*
X32071428Y-30031009D01*
X32071428Y-30031009D02*
X31976190Y-29983390D01*
X31976190Y-29983390D02*
X31928571Y-29935771D01*
X31928571Y-29935771D02*
X31880952Y-29840533D01*
X31880952Y-29840533D02*
X31880952Y-29745295D01*
X31880952Y-29745295D02*
X31928571Y-29650057D01*
X31928571Y-29650057D02*
X31976190Y-29602438D01*
X31976190Y-29602438D02*
X32071428Y-29554819D01*
X32071428Y-29554819D02*
X32309523Y-29554819D01*
X32309523Y-29554819D02*
X32452380Y-29602438D01*
X33357142Y-29554819D02*
X32880952Y-29554819D01*
X32880952Y-29554819D02*
X32833333Y-30031009D01*
X32833333Y-30031009D02*
X32880952Y-29983390D01*
X32880952Y-29983390D02*
X32976190Y-29935771D01*
X32976190Y-29935771D02*
X33214285Y-29935771D01*
X33214285Y-29935771D02*
X33309523Y-29983390D01*
X33309523Y-29983390D02*
X33357142Y-30031009D01*
X33357142Y-30031009D02*
X33404761Y-30126247D01*
X33404761Y-30126247D02*
X33404761Y-30364342D01*
X33404761Y-30364342D02*
X33357142Y-30459580D01*
X33357142Y-30459580D02*
X33309523Y-30507200D01*
X33309523Y-30507200D02*
X33214285Y-30554819D01*
X33214285Y-30554819D02*
X32976190Y-30554819D01*
X32976190Y-30554819D02*
X32880952Y-30507200D01*
X32880952Y-30507200D02*
X32833333Y-30459580D01*
X34261904Y-29554819D02*
X34071428Y-29554819D01*
X34071428Y-29554819D02*
X33976190Y-29602438D01*
X33976190Y-29602438D02*
X33928571Y-29650057D01*
X33928571Y-29650057D02*
X33833333Y-29792914D01*
X33833333Y-29792914D02*
X33785714Y-29983390D01*
X33785714Y-29983390D02*
X33785714Y-30364342D01*
X33785714Y-30364342D02*
X33833333Y-30459580D01*
X33833333Y-30459580D02*
X33880952Y-30507200D01*
X33880952Y-30507200D02*
X33976190Y-30554819D01*
X33976190Y-30554819D02*
X34166666Y-30554819D01*
X34166666Y-30554819D02*
X34261904Y-30507200D01*
X34261904Y-30507200D02*
X34309523Y-30459580D01*
X34309523Y-30459580D02*
X34357142Y-30364342D01*
X34357142Y-30364342D02*
X34357142Y-30126247D01*
X34357142Y-30126247D02*
X34309523Y-30031009D01*
X34309523Y-30031009D02*
X34261904Y-29983390D01*
X34261904Y-29983390D02*
X34166666Y-29935771D01*
X34166666Y-29935771D02*
X33976190Y-29935771D01*
X33976190Y-29935771D02*
X33880952Y-29983390D01*
X33880952Y-29983390D02*
X33833333Y-30031009D01*
X33833333Y-30031009D02*
X33785714Y-30126247D01*
X35309523Y-30554819D02*
X34738095Y-30554819D01*
X35023809Y-30554819D02*
X35023809Y-29554819D01*
X35023809Y-29554819D02*
X34928571Y-29697676D01*
X34928571Y-29697676D02*
X34833333Y-29792914D01*
X34833333Y-29792914D02*
X34738095Y-29840533D01*
X36261904Y-30554819D02*
X35690476Y-30554819D01*
X35976190Y-30554819D02*
X35976190Y-29554819D01*
X35976190Y-29554819D02*
X35880952Y-29697676D01*
X35880952Y-29697676D02*
X35785714Y-29792914D01*
X35785714Y-29792914D02*
X35690476Y-29840533D01*
D11*
X42416666Y-24477190D02*
X42392857Y-24501000D01*
X42392857Y-24501000D02*
X42321428Y-24524809D01*
X42321428Y-24524809D02*
X42273809Y-24524809D01*
X42273809Y-24524809D02*
X42202381Y-24501000D01*
X42202381Y-24501000D02*
X42154762Y-24453380D01*
X42154762Y-24453380D02*
X42130952Y-24405761D01*
X42130952Y-24405761D02*
X42107143Y-24310523D01*
X42107143Y-24310523D02*
X42107143Y-24239095D01*
X42107143Y-24239095D02*
X42130952Y-24143857D01*
X42130952Y-24143857D02*
X42154762Y-24096238D01*
X42154762Y-24096238D02*
X42202381Y-24048619D01*
X42202381Y-24048619D02*
X42273809Y-24024809D01*
X42273809Y-24024809D02*
X42321428Y-24024809D01*
X42321428Y-24024809D02*
X42392857Y-24048619D01*
X42392857Y-24048619D02*
X42416666Y-24072428D01*
X42892857Y-24524809D02*
X42607143Y-24524809D01*
X42750000Y-24524809D02*
X42750000Y-24024809D01*
X42750000Y-24024809D02*
X42702381Y-24096238D01*
X42702381Y-24096238D02*
X42654762Y-24143857D01*
X42654762Y-24143857D02*
X42607143Y-24167666D01*
X31516666Y-34777190D02*
X31492857Y-34801000D01*
X31492857Y-34801000D02*
X31421428Y-34824809D01*
X31421428Y-34824809D02*
X31373809Y-34824809D01*
X31373809Y-34824809D02*
X31302381Y-34801000D01*
X31302381Y-34801000D02*
X31254762Y-34753380D01*
X31254762Y-34753380D02*
X31230952Y-34705761D01*
X31230952Y-34705761D02*
X31207143Y-34610523D01*
X31207143Y-34610523D02*
X31207143Y-34539095D01*
X31207143Y-34539095D02*
X31230952Y-34443857D01*
X31230952Y-34443857D02*
X31254762Y-34396238D01*
X31254762Y-34396238D02*
X31302381Y-34348619D01*
X31302381Y-34348619D02*
X31373809Y-34324809D01*
X31373809Y-34324809D02*
X31421428Y-34324809D01*
X31421428Y-34324809D02*
X31492857Y-34348619D01*
X31492857Y-34348619D02*
X31516666Y-34372428D01*
X31754762Y-34824809D02*
X31850000Y-34824809D01*
X31850000Y-34824809D02*
X31897619Y-34801000D01*
X31897619Y-34801000D02*
X31921428Y-34777190D01*
X31921428Y-34777190D02*
X31969047Y-34705761D01*
X31969047Y-34705761D02*
X31992857Y-34610523D01*
X31992857Y-34610523D02*
X31992857Y-34420047D01*
X31992857Y-34420047D02*
X31969047Y-34372428D01*
X31969047Y-34372428D02*
X31945238Y-34348619D01*
X31945238Y-34348619D02*
X31897619Y-34324809D01*
X31897619Y-34324809D02*
X31802381Y-34324809D01*
X31802381Y-34324809D02*
X31754762Y-34348619D01*
X31754762Y-34348619D02*
X31730952Y-34372428D01*
X31730952Y-34372428D02*
X31707143Y-34420047D01*
X31707143Y-34420047D02*
X31707143Y-34539095D01*
X31707143Y-34539095D02*
X31730952Y-34586714D01*
X31730952Y-34586714D02*
X31754762Y-34610523D01*
X31754762Y-34610523D02*
X31802381Y-34634333D01*
X31802381Y-34634333D02*
X31897619Y-34634333D01*
X31897619Y-34634333D02*
X31945238Y-34610523D01*
X31945238Y-34610523D02*
X31969047Y-34586714D01*
X31969047Y-34586714D02*
X31992857Y-34539095D01*
X31678571Y-46677190D02*
X31654762Y-46701000D01*
X31654762Y-46701000D02*
X31583333Y-46724809D01*
X31583333Y-46724809D02*
X31535714Y-46724809D01*
X31535714Y-46724809D02*
X31464286Y-46701000D01*
X31464286Y-46701000D02*
X31416667Y-46653380D01*
X31416667Y-46653380D02*
X31392857Y-46605761D01*
X31392857Y-46605761D02*
X31369048Y-46510523D01*
X31369048Y-46510523D02*
X31369048Y-46439095D01*
X31369048Y-46439095D02*
X31392857Y-46343857D01*
X31392857Y-46343857D02*
X31416667Y-46296238D01*
X31416667Y-46296238D02*
X31464286Y-46248619D01*
X31464286Y-46248619D02*
X31535714Y-46224809D01*
X31535714Y-46224809D02*
X31583333Y-46224809D01*
X31583333Y-46224809D02*
X31654762Y-46248619D01*
X31654762Y-46248619D02*
X31678571Y-46272428D01*
X32154762Y-46724809D02*
X31869048Y-46724809D01*
X32011905Y-46724809D02*
X32011905Y-46224809D01*
X32011905Y-46224809D02*
X31964286Y-46296238D01*
X31964286Y-46296238D02*
X31916667Y-46343857D01*
X31916667Y-46343857D02*
X31869048Y-46367666D01*
X32345238Y-46272428D02*
X32369047Y-46248619D01*
X32369047Y-46248619D02*
X32416666Y-46224809D01*
X32416666Y-46224809D02*
X32535714Y-46224809D01*
X32535714Y-46224809D02*
X32583333Y-46248619D01*
X32583333Y-46248619D02*
X32607142Y-46272428D01*
X32607142Y-46272428D02*
X32630952Y-46320047D01*
X32630952Y-46320047D02*
X32630952Y-46367666D01*
X32630952Y-46367666D02*
X32607142Y-46439095D01*
X32607142Y-46439095D02*
X32321428Y-46724809D01*
X32321428Y-46724809D02*
X32630952Y-46724809D01*
D12*
X24023810Y-23354819D02*
X24023810Y-22354819D01*
X24452381Y-22450057D02*
X24500000Y-22402438D01*
X24500000Y-22402438D02*
X24595238Y-22354819D01*
X24595238Y-22354819D02*
X24833333Y-22354819D01*
X24833333Y-22354819D02*
X24928571Y-22402438D01*
X24928571Y-22402438D02*
X24976190Y-22450057D01*
X24976190Y-22450057D02*
X25023809Y-22545295D01*
X25023809Y-22545295D02*
X25023809Y-22640533D01*
X25023809Y-22640533D02*
X24976190Y-22783390D01*
X24976190Y-22783390D02*
X24404762Y-23354819D01*
X24404762Y-23354819D02*
X25023809Y-23354819D01*
X22333333Y-30031009D02*
X22476190Y-30078628D01*
X22476190Y-30078628D02*
X22523809Y-30126247D01*
X22523809Y-30126247D02*
X22571428Y-30221485D01*
X22571428Y-30221485D02*
X22571428Y-30364342D01*
X22571428Y-30364342D02*
X22523809Y-30459580D01*
X22523809Y-30459580D02*
X22476190Y-30507200D01*
X22476190Y-30507200D02*
X22380952Y-30554819D01*
X22380952Y-30554819D02*
X22000000Y-30554819D01*
X22000000Y-30554819D02*
X22000000Y-29554819D01*
X22000000Y-29554819D02*
X22333333Y-29554819D01*
X22333333Y-29554819D02*
X22428571Y-29602438D01*
X22428571Y-29602438D02*
X22476190Y-29650057D01*
X22476190Y-29650057D02*
X22523809Y-29745295D01*
X22523809Y-29745295D02*
X22523809Y-29840533D01*
X22523809Y-29840533D02*
X22476190Y-29935771D01*
X22476190Y-29935771D02*
X22428571Y-29983390D01*
X22428571Y-29983390D02*
X22333333Y-30031009D01*
X22333333Y-30031009D02*
X22000000Y-30031009D01*
X23000000Y-30554819D02*
X23000000Y-29554819D01*
X23000000Y-29554819D02*
X23333333Y-30269104D01*
X23333333Y-30269104D02*
X23666666Y-29554819D01*
X23666666Y-29554819D02*
X23666666Y-30554819D01*
X24142857Y-30554819D02*
X24142857Y-29554819D01*
X24809523Y-29554819D02*
X24904761Y-29554819D01*
X24904761Y-29554819D02*
X24999999Y-29602438D01*
X24999999Y-29602438D02*
X25047618Y-29650057D01*
X25047618Y-29650057D02*
X25095237Y-29745295D01*
X25095237Y-29745295D02*
X25142856Y-29935771D01*
X25142856Y-29935771D02*
X25142856Y-30173866D01*
X25142856Y-30173866D02*
X25095237Y-30364342D01*
X25095237Y-30364342D02*
X25047618Y-30459580D01*
X25047618Y-30459580D02*
X24999999Y-30507200D01*
X24999999Y-30507200D02*
X24904761Y-30554819D01*
X24904761Y-30554819D02*
X24809523Y-30554819D01*
X24809523Y-30554819D02*
X24714285Y-30507200D01*
X24714285Y-30507200D02*
X24666666Y-30459580D01*
X24666666Y-30459580D02*
X24619047Y-30364342D01*
X24619047Y-30364342D02*
X24571428Y-30173866D01*
X24571428Y-30173866D02*
X24571428Y-29935771D01*
X24571428Y-29935771D02*
X24619047Y-29745295D01*
X24619047Y-29745295D02*
X24666666Y-29650057D01*
X24666666Y-29650057D02*
X24714285Y-29602438D01*
X24714285Y-29602438D02*
X24809523Y-29554819D01*
X25714285Y-29983390D02*
X25619047Y-29935771D01*
X25619047Y-29935771D02*
X25571428Y-29888152D01*
X25571428Y-29888152D02*
X25523809Y-29792914D01*
X25523809Y-29792914D02*
X25523809Y-29745295D01*
X25523809Y-29745295D02*
X25571428Y-29650057D01*
X25571428Y-29650057D02*
X25619047Y-29602438D01*
X25619047Y-29602438D02*
X25714285Y-29554819D01*
X25714285Y-29554819D02*
X25904761Y-29554819D01*
X25904761Y-29554819D02*
X25999999Y-29602438D01*
X25999999Y-29602438D02*
X26047618Y-29650057D01*
X26047618Y-29650057D02*
X26095237Y-29745295D01*
X26095237Y-29745295D02*
X26095237Y-29792914D01*
X26095237Y-29792914D02*
X26047618Y-29888152D01*
X26047618Y-29888152D02*
X25999999Y-29935771D01*
X25999999Y-29935771D02*
X25904761Y-29983390D01*
X25904761Y-29983390D02*
X25714285Y-29983390D01*
X25714285Y-29983390D02*
X25619047Y-30031009D01*
X25619047Y-30031009D02*
X25571428Y-30078628D01*
X25571428Y-30078628D02*
X25523809Y-30173866D01*
X25523809Y-30173866D02*
X25523809Y-30364342D01*
X25523809Y-30364342D02*
X25571428Y-30459580D01*
X25571428Y-30459580D02*
X25619047Y-30507200D01*
X25619047Y-30507200D02*
X25714285Y-30554819D01*
X25714285Y-30554819D02*
X25904761Y-30554819D01*
X25904761Y-30554819D02*
X25999999Y-30507200D01*
X25999999Y-30507200D02*
X26047618Y-30459580D01*
X26047618Y-30459580D02*
X26095237Y-30364342D01*
X26095237Y-30364342D02*
X26095237Y-30173866D01*
X26095237Y-30173866D02*
X26047618Y-30078628D01*
X26047618Y-30078628D02*
X25999999Y-30031009D01*
X25999999Y-30031009D02*
X25904761Y-29983390D01*
X26666666Y-29983390D02*
X26571428Y-29935771D01*
X26571428Y-29935771D02*
X26523809Y-29888152D01*
X26523809Y-29888152D02*
X26476190Y-29792914D01*
X26476190Y-29792914D02*
X26476190Y-29745295D01*
X26476190Y-29745295D02*
X26523809Y-29650057D01*
X26523809Y-29650057D02*
X26571428Y-29602438D01*
X26571428Y-29602438D02*
X26666666Y-29554819D01*
X26666666Y-29554819D02*
X26857142Y-29554819D01*
X26857142Y-29554819D02*
X26952380Y-29602438D01*
X26952380Y-29602438D02*
X26999999Y-29650057D01*
X26999999Y-29650057D02*
X27047618Y-29745295D01*
X27047618Y-29745295D02*
X27047618Y-29792914D01*
X27047618Y-29792914D02*
X26999999Y-29888152D01*
X26999999Y-29888152D02*
X26952380Y-29935771D01*
X26952380Y-29935771D02*
X26857142Y-29983390D01*
X26857142Y-29983390D02*
X26666666Y-29983390D01*
X26666666Y-29983390D02*
X26571428Y-30031009D01*
X26571428Y-30031009D02*
X26523809Y-30078628D01*
X26523809Y-30078628D02*
X26476190Y-30173866D01*
X26476190Y-30173866D02*
X26476190Y-30364342D01*
X26476190Y-30364342D02*
X26523809Y-30459580D01*
X26523809Y-30459580D02*
X26571428Y-30507200D01*
X26571428Y-30507200D02*
X26666666Y-30554819D01*
X26666666Y-30554819D02*
X26857142Y-30554819D01*
X26857142Y-30554819D02*
X26952380Y-30507200D01*
X26952380Y-30507200D02*
X26999999Y-30459580D01*
X26999999Y-30459580D02*
X27047618Y-30364342D01*
X27047618Y-30364342D02*
X27047618Y-30173866D01*
X27047618Y-30173866D02*
X26999999Y-30078628D01*
X26999999Y-30078628D02*
X26952380Y-30031009D01*
X26952380Y-30031009D02*
X26857142Y-29983390D01*
X42095238Y-31931009D02*
X42238095Y-31978628D01*
X42238095Y-31978628D02*
X42285714Y-32026247D01*
X42285714Y-32026247D02*
X42333333Y-32121485D01*
X42333333Y-32121485D02*
X42333333Y-32264342D01*
X42333333Y-32264342D02*
X42285714Y-32359580D01*
X42285714Y-32359580D02*
X42238095Y-32407200D01*
X42238095Y-32407200D02*
X42142857Y-32454819D01*
X42142857Y-32454819D02*
X41761905Y-32454819D01*
X41761905Y-32454819D02*
X41761905Y-31454819D01*
X41761905Y-31454819D02*
X42095238Y-31454819D01*
X42095238Y-31454819D02*
X42190476Y-31502438D01*
X42190476Y-31502438D02*
X42238095Y-31550057D01*
X42238095Y-31550057D02*
X42285714Y-31645295D01*
X42285714Y-31645295D02*
X42285714Y-31740533D01*
X42285714Y-31740533D02*
X42238095Y-31835771D01*
X42238095Y-31835771D02*
X42190476Y-31883390D01*
X42190476Y-31883390D02*
X42095238Y-31931009D01*
X42095238Y-31931009D02*
X41761905Y-31931009D01*
X42714286Y-31550057D02*
X42761905Y-31502438D01*
X42761905Y-31502438D02*
X42857143Y-31454819D01*
X42857143Y-31454819D02*
X43095238Y-31454819D01*
X43095238Y-31454819D02*
X43190476Y-31502438D01*
X43190476Y-31502438D02*
X43238095Y-31550057D01*
X43238095Y-31550057D02*
X43285714Y-31645295D01*
X43285714Y-31645295D02*
X43285714Y-31740533D01*
X43285714Y-31740533D02*
X43238095Y-31883390D01*
X43238095Y-31883390D02*
X42666667Y-32454819D01*
X42666667Y-32454819D02*
X43285714Y-32454819D01*
X39833333Y-39554819D02*
X39833333Y-38554819D01*
X39833333Y-38554819D02*
X40071428Y-38554819D01*
X40071428Y-38554819D02*
X40214285Y-38602438D01*
X40214285Y-38602438D02*
X40309523Y-38697676D01*
X40309523Y-38697676D02*
X40357142Y-38792914D01*
X40357142Y-38792914D02*
X40404761Y-38983390D01*
X40404761Y-38983390D02*
X40404761Y-39126247D01*
X40404761Y-39126247D02*
X40357142Y-39316723D01*
X40357142Y-39316723D02*
X40309523Y-39411961D01*
X40309523Y-39411961D02*
X40214285Y-39507200D01*
X40214285Y-39507200D02*
X40071428Y-39554819D01*
X40071428Y-39554819D02*
X39833333Y-39554819D01*
X40833333Y-39554819D02*
X40833333Y-38554819D01*
X40833333Y-38554819D02*
X41214285Y-38554819D01*
X41214285Y-38554819D02*
X41309523Y-38602438D01*
X41309523Y-38602438D02*
X41357142Y-38650057D01*
X41357142Y-38650057D02*
X41404761Y-38745295D01*
X41404761Y-38745295D02*
X41404761Y-38888152D01*
X41404761Y-38888152D02*
X41357142Y-38983390D01*
X41357142Y-38983390D02*
X41309523Y-39031009D01*
X41309523Y-39031009D02*
X41214285Y-39078628D01*
X41214285Y-39078628D02*
X40833333Y-39078628D01*
X41785714Y-39507200D02*
X41928571Y-39554819D01*
X41928571Y-39554819D02*
X42166666Y-39554819D01*
X42166666Y-39554819D02*
X42261904Y-39507200D01*
X42261904Y-39507200D02*
X42309523Y-39459580D01*
X42309523Y-39459580D02*
X42357142Y-39364342D01*
X42357142Y-39364342D02*
X42357142Y-39269104D01*
X42357142Y-39269104D02*
X42309523Y-39173866D01*
X42309523Y-39173866D02*
X42261904Y-39126247D01*
X42261904Y-39126247D02*
X42166666Y-39078628D01*
X42166666Y-39078628D02*
X41976190Y-39031009D01*
X41976190Y-39031009D02*
X41880952Y-38983390D01*
X41880952Y-38983390D02*
X41833333Y-38935771D01*
X41833333Y-38935771D02*
X41785714Y-38840533D01*
X41785714Y-38840533D02*
X41785714Y-38745295D01*
X41785714Y-38745295D02*
X41833333Y-38650057D01*
X41833333Y-38650057D02*
X41880952Y-38602438D01*
X41880952Y-38602438D02*
X41976190Y-38554819D01*
X41976190Y-38554819D02*
X42214285Y-38554819D01*
X42214285Y-38554819D02*
X42357142Y-38602438D01*
X42690476Y-38554819D02*
X43309523Y-38554819D01*
X43309523Y-38554819D02*
X42976190Y-38935771D01*
X42976190Y-38935771D02*
X43119047Y-38935771D01*
X43119047Y-38935771D02*
X43214285Y-38983390D01*
X43214285Y-38983390D02*
X43261904Y-39031009D01*
X43261904Y-39031009D02*
X43309523Y-39126247D01*
X43309523Y-39126247D02*
X43309523Y-39364342D01*
X43309523Y-39364342D02*
X43261904Y-39459580D01*
X43261904Y-39459580D02*
X43214285Y-39507200D01*
X43214285Y-39507200D02*
X43119047Y-39554819D01*
X43119047Y-39554819D02*
X42833333Y-39554819D01*
X42833333Y-39554819D02*
X42738095Y-39507200D01*
X42738095Y-39507200D02*
X42690476Y-39459580D01*
X44166666Y-38554819D02*
X43976190Y-38554819D01*
X43976190Y-38554819D02*
X43880952Y-38602438D01*
X43880952Y-38602438D02*
X43833333Y-38650057D01*
X43833333Y-38650057D02*
X43738095Y-38792914D01*
X43738095Y-38792914D02*
X43690476Y-38983390D01*
X43690476Y-38983390D02*
X43690476Y-39364342D01*
X43690476Y-39364342D02*
X43738095Y-39459580D01*
X43738095Y-39459580D02*
X43785714Y-39507200D01*
X43785714Y-39507200D02*
X43880952Y-39554819D01*
X43880952Y-39554819D02*
X44071428Y-39554819D01*
X44071428Y-39554819D02*
X44166666Y-39507200D01*
X44166666Y-39507200D02*
X44214285Y-39459580D01*
X44214285Y-39459580D02*
X44261904Y-39364342D01*
X44261904Y-39364342D02*
X44261904Y-39126247D01*
X44261904Y-39126247D02*
X44214285Y-39031009D01*
X44214285Y-39031009D02*
X44166666Y-38983390D01*
X44166666Y-38983390D02*
X44071428Y-38935771D01*
X44071428Y-38935771D02*
X43880952Y-38935771D01*
X43880952Y-38935771D02*
X43785714Y-38983390D01*
X43785714Y-38983390D02*
X43738095Y-39031009D01*
X43738095Y-39031009D02*
X43690476Y-39126247D01*
X44833333Y-38983390D02*
X44738095Y-38935771D01*
X44738095Y-38935771D02*
X44690476Y-38888152D01*
X44690476Y-38888152D02*
X44642857Y-38792914D01*
X44642857Y-38792914D02*
X44642857Y-38745295D01*
X44642857Y-38745295D02*
X44690476Y-38650057D01*
X44690476Y-38650057D02*
X44738095Y-38602438D01*
X44738095Y-38602438D02*
X44833333Y-38554819D01*
X44833333Y-38554819D02*
X45023809Y-38554819D01*
X45023809Y-38554819D02*
X45119047Y-38602438D01*
X45119047Y-38602438D02*
X45166666Y-38650057D01*
X45166666Y-38650057D02*
X45214285Y-38745295D01*
X45214285Y-38745295D02*
X45214285Y-38792914D01*
X45214285Y-38792914D02*
X45166666Y-38888152D01*
X45166666Y-38888152D02*
X45119047Y-38935771D01*
X45119047Y-38935771D02*
X45023809Y-38983390D01*
X45023809Y-38983390D02*
X44833333Y-38983390D01*
X44833333Y-38983390D02*
X44738095Y-39031009D01*
X44738095Y-39031009D02*
X44690476Y-39078628D01*
X44690476Y-39078628D02*
X44642857Y-39173866D01*
X44642857Y-39173866D02*
X44642857Y-39364342D01*
X44642857Y-39364342D02*
X44690476Y-39459580D01*
X44690476Y-39459580D02*
X44738095Y-39507200D01*
X44738095Y-39507200D02*
X44833333Y-39554819D01*
X44833333Y-39554819D02*
X45023809Y-39554819D01*
X45023809Y-39554819D02*
X45119047Y-39507200D01*
X45119047Y-39507200D02*
X45166666Y-39459580D01*
X45166666Y-39459580D02*
X45214285Y-39364342D01*
X45214285Y-39364342D02*
X45214285Y-39173866D01*
X45214285Y-39173866D02*
X45166666Y-39078628D01*
X45166666Y-39078628D02*
X45119047Y-39031009D01*
X45119047Y-39031009D02*
X45023809Y-38983390D01*
D11*
X39816666Y-38177190D02*
X39792857Y-38201000D01*
X39792857Y-38201000D02*
X39721428Y-38224809D01*
X39721428Y-38224809D02*
X39673809Y-38224809D01*
X39673809Y-38224809D02*
X39602381Y-38201000D01*
X39602381Y-38201000D02*
X39554762Y-38153380D01*
X39554762Y-38153380D02*
X39530952Y-38105761D01*
X39530952Y-38105761D02*
X39507143Y-38010523D01*
X39507143Y-38010523D02*
X39507143Y-37939095D01*
X39507143Y-37939095D02*
X39530952Y-37843857D01*
X39530952Y-37843857D02*
X39554762Y-37796238D01*
X39554762Y-37796238D02*
X39602381Y-37748619D01*
X39602381Y-37748619D02*
X39673809Y-37724809D01*
X39673809Y-37724809D02*
X39721428Y-37724809D01*
X39721428Y-37724809D02*
X39792857Y-37748619D01*
X39792857Y-37748619D02*
X39816666Y-37772428D01*
X40245238Y-37891476D02*
X40245238Y-38224809D01*
X40126190Y-37701000D02*
X40007143Y-38058142D01*
X40007143Y-38058142D02*
X40316666Y-38058142D01*
X41516666Y-46377190D02*
X41492857Y-46401000D01*
X41492857Y-46401000D02*
X41421428Y-46424809D01*
X41421428Y-46424809D02*
X41373809Y-46424809D01*
X41373809Y-46424809D02*
X41302381Y-46401000D01*
X41302381Y-46401000D02*
X41254762Y-46353380D01*
X41254762Y-46353380D02*
X41230952Y-46305761D01*
X41230952Y-46305761D02*
X41207143Y-46210523D01*
X41207143Y-46210523D02*
X41207143Y-46139095D01*
X41207143Y-46139095D02*
X41230952Y-46043857D01*
X41230952Y-46043857D02*
X41254762Y-45996238D01*
X41254762Y-45996238D02*
X41302381Y-45948619D01*
X41302381Y-45948619D02*
X41373809Y-45924809D01*
X41373809Y-45924809D02*
X41421428Y-45924809D01*
X41421428Y-45924809D02*
X41492857Y-45948619D01*
X41492857Y-45948619D02*
X41516666Y-45972428D01*
X41969047Y-45924809D02*
X41730952Y-45924809D01*
X41730952Y-45924809D02*
X41707143Y-46162904D01*
X41707143Y-46162904D02*
X41730952Y-46139095D01*
X41730952Y-46139095D02*
X41778571Y-46115285D01*
X41778571Y-46115285D02*
X41897619Y-46115285D01*
X41897619Y-46115285D02*
X41945238Y-46139095D01*
X41945238Y-46139095D02*
X41969047Y-46162904D01*
X41969047Y-46162904D02*
X41992857Y-46210523D01*
X41992857Y-46210523D02*
X41992857Y-46329571D01*
X41992857Y-46329571D02*
X41969047Y-46377190D01*
X41969047Y-46377190D02*
X41945238Y-46401000D01*
X41945238Y-46401000D02*
X41897619Y-46424809D01*
X41897619Y-46424809D02*
X41778571Y-46424809D01*
X41778571Y-46424809D02*
X41730952Y-46401000D01*
X41730952Y-46401000D02*
X41707143Y-46377190D01*
X26858571Y-35777190D02*
X26834762Y-35801000D01*
X26834762Y-35801000D02*
X26763333Y-35824809D01*
X26763333Y-35824809D02*
X26715714Y-35824809D01*
X26715714Y-35824809D02*
X26644286Y-35801000D01*
X26644286Y-35801000D02*
X26596667Y-35753380D01*
X26596667Y-35753380D02*
X26572857Y-35705761D01*
X26572857Y-35705761D02*
X26549048Y-35610523D01*
X26549048Y-35610523D02*
X26549048Y-35539095D01*
X26549048Y-35539095D02*
X26572857Y-35443857D01*
X26572857Y-35443857D02*
X26596667Y-35396238D01*
X26596667Y-35396238D02*
X26644286Y-35348619D01*
X26644286Y-35348619D02*
X26715714Y-35324809D01*
X26715714Y-35324809D02*
X26763333Y-35324809D01*
X26763333Y-35324809D02*
X26834762Y-35348619D01*
X26834762Y-35348619D02*
X26858571Y-35372428D01*
X27334762Y-35824809D02*
X27049048Y-35824809D01*
X27191905Y-35824809D02*
X27191905Y-35324809D01*
X27191905Y-35324809D02*
X27144286Y-35396238D01*
X27144286Y-35396238D02*
X27096667Y-35443857D01*
X27096667Y-35443857D02*
X27049048Y-35467666D01*
X27787142Y-35324809D02*
X27549047Y-35324809D01*
X27549047Y-35324809D02*
X27525238Y-35562904D01*
X27525238Y-35562904D02*
X27549047Y-35539095D01*
X27549047Y-35539095D02*
X27596666Y-35515285D01*
X27596666Y-35515285D02*
X27715714Y-35515285D01*
X27715714Y-35515285D02*
X27763333Y-35539095D01*
X27763333Y-35539095D02*
X27787142Y-35562904D01*
X27787142Y-35562904D02*
X27810952Y-35610523D01*
X27810952Y-35610523D02*
X27810952Y-35729571D01*
X27810952Y-35729571D02*
X27787142Y-35777190D01*
X27787142Y-35777190D02*
X27763333Y-35801000D01*
X27763333Y-35801000D02*
X27715714Y-35824809D01*
X27715714Y-35824809D02*
X27596666Y-35824809D01*
X27596666Y-35824809D02*
X27549047Y-35801000D01*
X27549047Y-35801000D02*
X27525238Y-35777190D01*
X35978571Y-44677190D02*
X35954762Y-44701000D01*
X35954762Y-44701000D02*
X35883333Y-44724809D01*
X35883333Y-44724809D02*
X35835714Y-44724809D01*
X35835714Y-44724809D02*
X35764286Y-44701000D01*
X35764286Y-44701000D02*
X35716667Y-44653380D01*
X35716667Y-44653380D02*
X35692857Y-44605761D01*
X35692857Y-44605761D02*
X35669048Y-44510523D01*
X35669048Y-44510523D02*
X35669048Y-44439095D01*
X35669048Y-44439095D02*
X35692857Y-44343857D01*
X35692857Y-44343857D02*
X35716667Y-44296238D01*
X35716667Y-44296238D02*
X35764286Y-44248619D01*
X35764286Y-44248619D02*
X35835714Y-44224809D01*
X35835714Y-44224809D02*
X35883333Y-44224809D01*
X35883333Y-44224809D02*
X35954762Y-44248619D01*
X35954762Y-44248619D02*
X35978571Y-44272428D01*
X36454762Y-44724809D02*
X36169048Y-44724809D01*
X36311905Y-44724809D02*
X36311905Y-44224809D01*
X36311905Y-44224809D02*
X36264286Y-44296238D01*
X36264286Y-44296238D02*
X36216667Y-44343857D01*
X36216667Y-44343857D02*
X36169048Y-44367666D01*
X36930952Y-44724809D02*
X36645238Y-44724809D01*
X36788095Y-44724809D02*
X36788095Y-44224809D01*
X36788095Y-44224809D02*
X36740476Y-44296238D01*
X36740476Y-44296238D02*
X36692857Y-44343857D01*
X36692857Y-44343857D02*
X36645238Y-44367666D01*
D12*
X42395238Y-40831009D02*
X42538095Y-40878628D01*
X42538095Y-40878628D02*
X42585714Y-40926247D01*
X42585714Y-40926247D02*
X42633333Y-41021485D01*
X42633333Y-41021485D02*
X42633333Y-41164342D01*
X42633333Y-41164342D02*
X42585714Y-41259580D01*
X42585714Y-41259580D02*
X42538095Y-41307200D01*
X42538095Y-41307200D02*
X42442857Y-41354819D01*
X42442857Y-41354819D02*
X42061905Y-41354819D01*
X42061905Y-41354819D02*
X42061905Y-40354819D01*
X42061905Y-40354819D02*
X42395238Y-40354819D01*
X42395238Y-40354819D02*
X42490476Y-40402438D01*
X42490476Y-40402438D02*
X42538095Y-40450057D01*
X42538095Y-40450057D02*
X42585714Y-40545295D01*
X42585714Y-40545295D02*
X42585714Y-40640533D01*
X42585714Y-40640533D02*
X42538095Y-40735771D01*
X42538095Y-40735771D02*
X42490476Y-40783390D01*
X42490476Y-40783390D02*
X42395238Y-40831009D01*
X42395238Y-40831009D02*
X42061905Y-40831009D01*
X42966667Y-40354819D02*
X43585714Y-40354819D01*
X43585714Y-40354819D02*
X43252381Y-40735771D01*
X43252381Y-40735771D02*
X43395238Y-40735771D01*
X43395238Y-40735771D02*
X43490476Y-40783390D01*
X43490476Y-40783390D02*
X43538095Y-40831009D01*
X43538095Y-40831009D02*
X43585714Y-40926247D01*
X43585714Y-40926247D02*
X43585714Y-41164342D01*
X43585714Y-41164342D02*
X43538095Y-41259580D01*
X43538095Y-41259580D02*
X43490476Y-41307200D01*
X43490476Y-41307200D02*
X43395238Y-41354819D01*
X43395238Y-41354819D02*
X43109524Y-41354819D01*
X43109524Y-41354819D02*
X43014286Y-41307200D01*
X43014286Y-41307200D02*
X42966667Y-41259580D01*
X38500000Y-48554819D02*
X38500000Y-47554819D01*
X39547618Y-48459580D02*
X39499999Y-48507200D01*
X39499999Y-48507200D02*
X39357142Y-48554819D01*
X39357142Y-48554819D02*
X39261904Y-48554819D01*
X39261904Y-48554819D02*
X39119047Y-48507200D01*
X39119047Y-48507200D02*
X39023809Y-48411961D01*
X39023809Y-48411961D02*
X38976190Y-48316723D01*
X38976190Y-48316723D02*
X38928571Y-48126247D01*
X38928571Y-48126247D02*
X38928571Y-47983390D01*
X38928571Y-47983390D02*
X38976190Y-47792914D01*
X38976190Y-47792914D02*
X39023809Y-47697676D01*
X39023809Y-47697676D02*
X39119047Y-47602438D01*
X39119047Y-47602438D02*
X39261904Y-47554819D01*
X39261904Y-47554819D02*
X39357142Y-47554819D01*
X39357142Y-47554819D02*
X39499999Y-47602438D01*
X39499999Y-47602438D02*
X39547618Y-47650057D01*
X39976190Y-48554819D02*
X39976190Y-47554819D01*
X39976190Y-47554819D02*
X40357142Y-47554819D01*
X40357142Y-47554819D02*
X40452380Y-47602438D01*
X40452380Y-47602438D02*
X40499999Y-47650057D01*
X40499999Y-47650057D02*
X40547618Y-47745295D01*
X40547618Y-47745295D02*
X40547618Y-47888152D01*
X40547618Y-47888152D02*
X40499999Y-47983390D01*
X40499999Y-47983390D02*
X40452380Y-48031009D01*
X40452380Y-48031009D02*
X40357142Y-48078628D01*
X40357142Y-48078628D02*
X39976190Y-48078628D01*
X40976190Y-48173866D02*
X41738095Y-48173866D01*
X42166666Y-47650057D02*
X42214285Y-47602438D01*
X42214285Y-47602438D02*
X42309523Y-47554819D01*
X42309523Y-47554819D02*
X42547618Y-47554819D01*
X42547618Y-47554819D02*
X42642856Y-47602438D01*
X42642856Y-47602438D02*
X42690475Y-47650057D01*
X42690475Y-47650057D02*
X42738094Y-47745295D01*
X42738094Y-47745295D02*
X42738094Y-47840533D01*
X42738094Y-47840533D02*
X42690475Y-47983390D01*
X42690475Y-47983390D02*
X42119047Y-48554819D01*
X42119047Y-48554819D02*
X42738094Y-48554819D01*
X43357142Y-47554819D02*
X43452380Y-47554819D01*
X43452380Y-47554819D02*
X43547618Y-47602438D01*
X43547618Y-47602438D02*
X43595237Y-47650057D01*
X43595237Y-47650057D02*
X43642856Y-47745295D01*
X43642856Y-47745295D02*
X43690475Y-47935771D01*
X43690475Y-47935771D02*
X43690475Y-48173866D01*
X43690475Y-48173866D02*
X43642856Y-48364342D01*
X43642856Y-48364342D02*
X43595237Y-48459580D01*
X43595237Y-48459580D02*
X43547618Y-48507200D01*
X43547618Y-48507200D02*
X43452380Y-48554819D01*
X43452380Y-48554819D02*
X43357142Y-48554819D01*
X43357142Y-48554819D02*
X43261904Y-48507200D01*
X43261904Y-48507200D02*
X43214285Y-48459580D01*
X43214285Y-48459580D02*
X43166666Y-48364342D01*
X43166666Y-48364342D02*
X43119047Y-48173866D01*
X43119047Y-48173866D02*
X43119047Y-47935771D01*
X43119047Y-47935771D02*
X43166666Y-47745295D01*
X43166666Y-47745295D02*
X43214285Y-47650057D01*
X43214285Y-47650057D02*
X43261904Y-47602438D01*
X43261904Y-47602438D02*
X43357142Y-47554819D01*
X44642856Y-48554819D02*
X44071428Y-48554819D01*
X44357142Y-48554819D02*
X44357142Y-47554819D01*
X44357142Y-47554819D02*
X44261904Y-47697676D01*
X44261904Y-47697676D02*
X44166666Y-47792914D01*
X44166666Y-47792914D02*
X44071428Y-47840533D01*
X45261904Y-47554819D02*
X45357142Y-47554819D01*
X45357142Y-47554819D02*
X45452380Y-47602438D01*
X45452380Y-47602438D02*
X45499999Y-47650057D01*
X45499999Y-47650057D02*
X45547618Y-47745295D01*
X45547618Y-47745295D02*
X45595237Y-47935771D01*
X45595237Y-47935771D02*
X45595237Y-48173866D01*
X45595237Y-48173866D02*
X45547618Y-48364342D01*
X45547618Y-48364342D02*
X45499999Y-48459580D01*
X45499999Y-48459580D02*
X45452380Y-48507200D01*
X45452380Y-48507200D02*
X45357142Y-48554819D01*
X45357142Y-48554819D02*
X45261904Y-48554819D01*
X45261904Y-48554819D02*
X45166666Y-48507200D01*
X45166666Y-48507200D02*
X45119047Y-48459580D01*
X45119047Y-48459580D02*
X45071428Y-48364342D01*
X45071428Y-48364342D02*
X45023809Y-48173866D01*
X45023809Y-48173866D02*
X45023809Y-47935771D01*
X45023809Y-47935771D02*
X45071428Y-47745295D01*
X45071428Y-47745295D02*
X45119047Y-47650057D01*
X45119047Y-47650057D02*
X45166666Y-47602438D01*
X45166666Y-47602438D02*
X45261904Y-47554819D01*
X46214285Y-47554819D02*
X46309523Y-47554819D01*
X46309523Y-47554819D02*
X46404761Y-47602438D01*
X46404761Y-47602438D02*
X46452380Y-47650057D01*
X46452380Y-47650057D02*
X46499999Y-47745295D01*
X46499999Y-47745295D02*
X46547618Y-47935771D01*
X46547618Y-47935771D02*
X46547618Y-48173866D01*
X46547618Y-48173866D02*
X46499999Y-48364342D01*
X46499999Y-48364342D02*
X46452380Y-48459580D01*
X46452380Y-48459580D02*
X46404761Y-48507200D01*
X46404761Y-48507200D02*
X46309523Y-48554819D01*
X46309523Y-48554819D02*
X46214285Y-48554819D01*
X46214285Y-48554819D02*
X46119047Y-48507200D01*
X46119047Y-48507200D02*
X46071428Y-48459580D01*
X46071428Y-48459580D02*
X46023809Y-48364342D01*
X46023809Y-48364342D02*
X45976190Y-48173866D01*
X45976190Y-48173866D02*
X45976190Y-47935771D01*
X45976190Y-47935771D02*
X46023809Y-47745295D01*
X46023809Y-47745295D02*
X46071428Y-47650057D01*
X46071428Y-47650057D02*
X46119047Y-47602438D01*
X46119047Y-47602438D02*
X46214285Y-47554819D01*
X33223810Y-41354819D02*
X33223810Y-40354819D01*
X34223809Y-41354819D02*
X33652381Y-41354819D01*
X33938095Y-41354819D02*
X33938095Y-40354819D01*
X33938095Y-40354819D02*
X33842857Y-40497676D01*
X33842857Y-40497676D02*
X33747619Y-40592914D01*
X33747619Y-40592914D02*
X33652381Y-40640533D01*
X28309524Y-48554819D02*
X28309524Y-47554819D01*
X29357142Y-48459580D02*
X29309523Y-48507200D01*
X29309523Y-48507200D02*
X29166666Y-48554819D01*
X29166666Y-48554819D02*
X29071428Y-48554819D01*
X29071428Y-48554819D02*
X28928571Y-48507200D01*
X28928571Y-48507200D02*
X28833333Y-48411961D01*
X28833333Y-48411961D02*
X28785714Y-48316723D01*
X28785714Y-48316723D02*
X28738095Y-48126247D01*
X28738095Y-48126247D02*
X28738095Y-47983390D01*
X28738095Y-47983390D02*
X28785714Y-47792914D01*
X28785714Y-47792914D02*
X28833333Y-47697676D01*
X28833333Y-47697676D02*
X28928571Y-47602438D01*
X28928571Y-47602438D02*
X29071428Y-47554819D01*
X29071428Y-47554819D02*
X29166666Y-47554819D01*
X29166666Y-47554819D02*
X29309523Y-47602438D01*
X29309523Y-47602438D02*
X29357142Y-47650057D01*
X29785714Y-48554819D02*
X29785714Y-47554819D01*
X29785714Y-47554819D02*
X30119047Y-48269104D01*
X30119047Y-48269104D02*
X30452380Y-47554819D01*
X30452380Y-47554819D02*
X30452380Y-48554819D01*
X30928571Y-48173866D02*
X31690476Y-48173866D01*
X32595237Y-47888152D02*
X32595237Y-48554819D01*
X32357142Y-47507200D02*
X32119047Y-48221485D01*
X32119047Y-48221485D02*
X32738094Y-48221485D01*
X33071428Y-47650057D02*
X33119047Y-47602438D01*
X33119047Y-47602438D02*
X33214285Y-47554819D01*
X33214285Y-47554819D02*
X33452380Y-47554819D01*
X33452380Y-47554819D02*
X33547618Y-47602438D01*
X33547618Y-47602438D02*
X33595237Y-47650057D01*
X33595237Y-47650057D02*
X33642856Y-47745295D01*
X33642856Y-47745295D02*
X33642856Y-47840533D01*
X33642856Y-47840533D02*
X33595237Y-47983390D01*
X33595237Y-47983390D02*
X33023809Y-48554819D01*
X33023809Y-48554819D02*
X33642856Y-48554819D01*
X34499999Y-47554819D02*
X34309523Y-47554819D01*
X34309523Y-47554819D02*
X34214285Y-47602438D01*
X34214285Y-47602438D02*
X34166666Y-47650057D01*
X34166666Y-47650057D02*
X34071428Y-47792914D01*
X34071428Y-47792914D02*
X34023809Y-47983390D01*
X34023809Y-47983390D02*
X34023809Y-48364342D01*
X34023809Y-48364342D02*
X34071428Y-48459580D01*
X34071428Y-48459580D02*
X34119047Y-48507200D01*
X34119047Y-48507200D02*
X34214285Y-48554819D01*
X34214285Y-48554819D02*
X34404761Y-48554819D01*
X34404761Y-48554819D02*
X34499999Y-48507200D01*
X34499999Y-48507200D02*
X34547618Y-48459580D01*
X34547618Y-48459580D02*
X34595237Y-48364342D01*
X34595237Y-48364342D02*
X34595237Y-48126247D01*
X34595237Y-48126247D02*
X34547618Y-48031009D01*
X34547618Y-48031009D02*
X34499999Y-47983390D01*
X34499999Y-47983390D02*
X34404761Y-47935771D01*
X34404761Y-47935771D02*
X34214285Y-47935771D01*
X34214285Y-47935771D02*
X34119047Y-47983390D01*
X34119047Y-47983390D02*
X34071428Y-48031009D01*
X34071428Y-48031009D02*
X34023809Y-48126247D01*
X35166666Y-47983390D02*
X35071428Y-47935771D01*
X35071428Y-47935771D02*
X35023809Y-47888152D01*
X35023809Y-47888152D02*
X34976190Y-47792914D01*
X34976190Y-47792914D02*
X34976190Y-47745295D01*
X34976190Y-47745295D02*
X35023809Y-47650057D01*
X35023809Y-47650057D02*
X35071428Y-47602438D01*
X35071428Y-47602438D02*
X35166666Y-47554819D01*
X35166666Y-47554819D02*
X35357142Y-47554819D01*
X35357142Y-47554819D02*
X35452380Y-47602438D01*
X35452380Y-47602438D02*
X35499999Y-47650057D01*
X35499999Y-47650057D02*
X35547618Y-47745295D01*
X35547618Y-47745295D02*
X35547618Y-47792914D01*
X35547618Y-47792914D02*
X35499999Y-47888152D01*
X35499999Y-47888152D02*
X35452380Y-47935771D01*
X35452380Y-47935771D02*
X35357142Y-47983390D01*
X35357142Y-47983390D02*
X35166666Y-47983390D01*
X35166666Y-47983390D02*
X35071428Y-48031009D01*
X35071428Y-48031009D02*
X35023809Y-48078628D01*
X35023809Y-48078628D02*
X34976190Y-48173866D01*
X34976190Y-48173866D02*
X34976190Y-48364342D01*
X34976190Y-48364342D02*
X35023809Y-48459580D01*
X35023809Y-48459580D02*
X35071428Y-48507200D01*
X35071428Y-48507200D02*
X35166666Y-48554819D01*
X35166666Y-48554819D02*
X35357142Y-48554819D01*
X35357142Y-48554819D02*
X35452380Y-48507200D01*
X35452380Y-48507200D02*
X35499999Y-48459580D01*
X35499999Y-48459580D02*
X35547618Y-48364342D01*
X35547618Y-48364342D02*
X35547618Y-48173866D01*
X35547618Y-48173866D02*
X35499999Y-48078628D01*
X35499999Y-48078628D02*
X35452380Y-48031009D01*
X35452380Y-48031009D02*
X35357142Y-47983390D01*
X36119047Y-47983390D02*
X36023809Y-47935771D01*
X36023809Y-47935771D02*
X35976190Y-47888152D01*
X35976190Y-47888152D02*
X35928571Y-47792914D01*
X35928571Y-47792914D02*
X35928571Y-47745295D01*
X35928571Y-47745295D02*
X35976190Y-47650057D01*
X35976190Y-47650057D02*
X36023809Y-47602438D01*
X36023809Y-47602438D02*
X36119047Y-47554819D01*
X36119047Y-47554819D02*
X36309523Y-47554819D01*
X36309523Y-47554819D02*
X36404761Y-47602438D01*
X36404761Y-47602438D02*
X36452380Y-47650057D01*
X36452380Y-47650057D02*
X36499999Y-47745295D01*
X36499999Y-47745295D02*
X36499999Y-47792914D01*
X36499999Y-47792914D02*
X36452380Y-47888152D01*
X36452380Y-47888152D02*
X36404761Y-47935771D01*
X36404761Y-47935771D02*
X36309523Y-47983390D01*
X36309523Y-47983390D02*
X36119047Y-47983390D01*
X36119047Y-47983390D02*
X36023809Y-48031009D01*
X36023809Y-48031009D02*
X35976190Y-48078628D01*
X35976190Y-48078628D02*
X35928571Y-48173866D01*
X35928571Y-48173866D02*
X35928571Y-48364342D01*
X35928571Y-48364342D02*
X35976190Y-48459580D01*
X35976190Y-48459580D02*
X36023809Y-48507200D01*
X36023809Y-48507200D02*
X36119047Y-48554819D01*
X36119047Y-48554819D02*
X36309523Y-48554819D01*
X36309523Y-48554819D02*
X36404761Y-48507200D01*
X36404761Y-48507200D02*
X36452380Y-48459580D01*
X36452380Y-48459580D02*
X36499999Y-48364342D01*
X36499999Y-48364342D02*
X36499999Y-48173866D01*
X36499999Y-48173866D02*
X36452380Y-48078628D01*
X36452380Y-48078628D02*
X36404761Y-48031009D01*
X36404761Y-48031009D02*
X36309523Y-47983390D01*
X36928571Y-48173866D02*
X37690476Y-48173866D01*
X38166666Y-48554819D02*
X38166666Y-47554819D01*
X38166666Y-47554819D02*
X38547618Y-47554819D01*
X38547618Y-47554819D02*
X38642856Y-47602438D01*
X38642856Y-47602438D02*
X38690475Y-47650057D01*
X38690475Y-47650057D02*
X38738094Y-47745295D01*
X38738094Y-47745295D02*
X38738094Y-47888152D01*
X38738094Y-47888152D02*
X38690475Y-47983390D01*
X38690475Y-47983390D02*
X38642856Y-48031009D01*
X38642856Y-48031009D02*
X38547618Y-48078628D01*
X38547618Y-48078628D02*
X38166666Y-48078628D01*
X75199528Y-34854819D02*
X75770956Y-34854819D01*
X75485242Y-35854819D02*
X75485242Y-34854819D01*
X76104290Y-35331009D02*
X76437623Y-35331009D01*
X76580480Y-35854819D02*
X76104290Y-35854819D01*
X76104290Y-35854819D02*
X76104290Y-34854819D01*
X76104290Y-34854819D02*
X76580480Y-34854819D01*
X77009052Y-35331009D02*
X77342385Y-35331009D01*
X77485242Y-35854819D02*
X77009052Y-35854819D01*
X77009052Y-35854819D02*
X77009052Y-34854819D01*
X77009052Y-34854819D02*
X77485242Y-34854819D01*
X77913814Y-35854819D02*
X77913814Y-34854819D01*
X77913814Y-34854819D02*
X78485242Y-35854819D01*
X78485242Y-35854819D02*
X78485242Y-34854819D01*
X78913814Y-35807200D02*
X79056671Y-35854819D01*
X79056671Y-35854819D02*
X79294766Y-35854819D01*
X79294766Y-35854819D02*
X79390004Y-35807200D01*
X79390004Y-35807200D02*
X79437623Y-35759580D01*
X79437623Y-35759580D02*
X79485242Y-35664342D01*
X79485242Y-35664342D02*
X79485242Y-35569104D01*
X79485242Y-35569104D02*
X79437623Y-35473866D01*
X79437623Y-35473866D02*
X79390004Y-35426247D01*
X79390004Y-35426247D02*
X79294766Y-35378628D01*
X79294766Y-35378628D02*
X79104290Y-35331009D01*
X79104290Y-35331009D02*
X79009052Y-35283390D01*
X79009052Y-35283390D02*
X78961433Y-35235771D01*
X78961433Y-35235771D02*
X78913814Y-35140533D01*
X78913814Y-35140533D02*
X78913814Y-35045295D01*
X78913814Y-35045295D02*
X78961433Y-34950057D01*
X78961433Y-34950057D02*
X79009052Y-34902438D01*
X79009052Y-34902438D02*
X79104290Y-34854819D01*
X79104290Y-34854819D02*
X79342385Y-34854819D01*
X79342385Y-34854819D02*
X79485242Y-34902438D01*
X80104290Y-35378628D02*
X80104290Y-35854819D01*
X79770957Y-34854819D02*
X80104290Y-35378628D01*
X80104290Y-35378628D02*
X80437623Y-34854819D01*
X80532862Y-35950057D02*
X81294766Y-35950057D01*
X81961433Y-35188152D02*
X81961433Y-35854819D01*
X81723338Y-34807200D02*
X81485243Y-35521485D01*
X81485243Y-35521485D02*
X82104290Y-35521485D01*
X82485243Y-35759580D02*
X82532862Y-35807200D01*
X82532862Y-35807200D02*
X82485243Y-35854819D01*
X82485243Y-35854819D02*
X82437624Y-35807200D01*
X82437624Y-35807200D02*
X82485243Y-35759580D01*
X82485243Y-35759580D02*
X82485243Y-35854819D01*
X83485242Y-35854819D02*
X82913814Y-35854819D01*
X83199528Y-35854819D02*
X83199528Y-34854819D01*
X83199528Y-34854819D02*
X83104290Y-34997676D01*
X83104290Y-34997676D02*
X83009052Y-35092914D01*
X83009052Y-35092914D02*
X82913814Y-35140533D01*
D11*
X22878571Y-29177190D02*
X22854762Y-29201000D01*
X22854762Y-29201000D02*
X22783333Y-29224809D01*
X22783333Y-29224809D02*
X22735714Y-29224809D01*
X22735714Y-29224809D02*
X22664286Y-29201000D01*
X22664286Y-29201000D02*
X22616667Y-29153380D01*
X22616667Y-29153380D02*
X22592857Y-29105761D01*
X22592857Y-29105761D02*
X22569048Y-29010523D01*
X22569048Y-29010523D02*
X22569048Y-28939095D01*
X22569048Y-28939095D02*
X22592857Y-28843857D01*
X22592857Y-28843857D02*
X22616667Y-28796238D01*
X22616667Y-28796238D02*
X22664286Y-28748619D01*
X22664286Y-28748619D02*
X22735714Y-28724809D01*
X22735714Y-28724809D02*
X22783333Y-28724809D01*
X22783333Y-28724809D02*
X22854762Y-28748619D01*
X22854762Y-28748619D02*
X22878571Y-28772428D01*
X23354762Y-29224809D02*
X23069048Y-29224809D01*
X23211905Y-29224809D02*
X23211905Y-28724809D01*
X23211905Y-28724809D02*
X23164286Y-28796238D01*
X23164286Y-28796238D02*
X23116667Y-28843857D01*
X23116667Y-28843857D02*
X23069048Y-28867666D01*
X23783333Y-28891476D02*
X23783333Y-29224809D01*
X23664285Y-28701000D02*
X23545238Y-29058142D01*
X23545238Y-29058142D02*
X23854761Y-29058142D01*
X35978571Y-46977190D02*
X35954762Y-47001000D01*
X35954762Y-47001000D02*
X35883333Y-47024809D01*
X35883333Y-47024809D02*
X35835714Y-47024809D01*
X35835714Y-47024809D02*
X35764286Y-47001000D01*
X35764286Y-47001000D02*
X35716667Y-46953380D01*
X35716667Y-46953380D02*
X35692857Y-46905761D01*
X35692857Y-46905761D02*
X35669048Y-46810523D01*
X35669048Y-46810523D02*
X35669048Y-46739095D01*
X35669048Y-46739095D02*
X35692857Y-46643857D01*
X35692857Y-46643857D02*
X35716667Y-46596238D01*
X35716667Y-46596238D02*
X35764286Y-46548619D01*
X35764286Y-46548619D02*
X35835714Y-46524809D01*
X35835714Y-46524809D02*
X35883333Y-46524809D01*
X35883333Y-46524809D02*
X35954762Y-46548619D01*
X35954762Y-46548619D02*
X35978571Y-46572428D01*
X36454762Y-47024809D02*
X36169048Y-47024809D01*
X36311905Y-47024809D02*
X36311905Y-46524809D01*
X36311905Y-46524809D02*
X36264286Y-46596238D01*
X36264286Y-46596238D02*
X36216667Y-46643857D01*
X36216667Y-46643857D02*
X36169048Y-46667666D01*
X36764285Y-46524809D02*
X36811904Y-46524809D01*
X36811904Y-46524809D02*
X36859523Y-46548619D01*
X36859523Y-46548619D02*
X36883333Y-46572428D01*
X36883333Y-46572428D02*
X36907142Y-46620047D01*
X36907142Y-46620047D02*
X36930952Y-46715285D01*
X36930952Y-46715285D02*
X36930952Y-46834333D01*
X36930952Y-46834333D02*
X36907142Y-46929571D01*
X36907142Y-46929571D02*
X36883333Y-46977190D01*
X36883333Y-46977190D02*
X36859523Y-47001000D01*
X36859523Y-47001000D02*
X36811904Y-47024809D01*
X36811904Y-47024809D02*
X36764285Y-47024809D01*
X36764285Y-47024809D02*
X36716666Y-47001000D01*
X36716666Y-47001000D02*
X36692857Y-46977190D01*
X36692857Y-46977190D02*
X36669047Y-46929571D01*
X36669047Y-46929571D02*
X36645238Y-46834333D01*
X36645238Y-46834333D02*
X36645238Y-46715285D01*
X36645238Y-46715285D02*
X36669047Y-46620047D01*
X36669047Y-46620047D02*
X36692857Y-46572428D01*
X36692857Y-46572428D02*
X36716666Y-46548619D01*
X36716666Y-46548619D02*
X36764285Y-46524809D01*
X25478571Y-24577190D02*
X25454762Y-24601000D01*
X25454762Y-24601000D02*
X25383333Y-24624809D01*
X25383333Y-24624809D02*
X25335714Y-24624809D01*
X25335714Y-24624809D02*
X25264286Y-24601000D01*
X25264286Y-24601000D02*
X25216667Y-24553380D01*
X25216667Y-24553380D02*
X25192857Y-24505761D01*
X25192857Y-24505761D02*
X25169048Y-24410523D01*
X25169048Y-24410523D02*
X25169048Y-24339095D01*
X25169048Y-24339095D02*
X25192857Y-24243857D01*
X25192857Y-24243857D02*
X25216667Y-24196238D01*
X25216667Y-24196238D02*
X25264286Y-24148619D01*
X25264286Y-24148619D02*
X25335714Y-24124809D01*
X25335714Y-24124809D02*
X25383333Y-24124809D01*
X25383333Y-24124809D02*
X25454762Y-24148619D01*
X25454762Y-24148619D02*
X25478571Y-24172428D01*
X25954762Y-24624809D02*
X25669048Y-24624809D01*
X25811905Y-24624809D02*
X25811905Y-24124809D01*
X25811905Y-24124809D02*
X25764286Y-24196238D01*
X25764286Y-24196238D02*
X25716667Y-24243857D01*
X25716667Y-24243857D02*
X25669048Y-24267666D01*
X26121428Y-24124809D02*
X26430952Y-24124809D01*
X26430952Y-24124809D02*
X26264285Y-24315285D01*
X26264285Y-24315285D02*
X26335714Y-24315285D01*
X26335714Y-24315285D02*
X26383333Y-24339095D01*
X26383333Y-24339095D02*
X26407142Y-24362904D01*
X26407142Y-24362904D02*
X26430952Y-24410523D01*
X26430952Y-24410523D02*
X26430952Y-24529571D01*
X26430952Y-24529571D02*
X26407142Y-24577190D01*
X26407142Y-24577190D02*
X26383333Y-24601000D01*
X26383333Y-24601000D02*
X26335714Y-24624809D01*
X26335714Y-24624809D02*
X26192857Y-24624809D01*
X26192857Y-24624809D02*
X26145238Y-24601000D01*
X26145238Y-24601000D02*
X26121428Y-24577190D01*
X42416666Y-42277190D02*
X42392857Y-42301000D01*
X42392857Y-42301000D02*
X42321428Y-42324809D01*
X42321428Y-42324809D02*
X42273809Y-42324809D01*
X42273809Y-42324809D02*
X42202381Y-42301000D01*
X42202381Y-42301000D02*
X42154762Y-42253380D01*
X42154762Y-42253380D02*
X42130952Y-42205761D01*
X42130952Y-42205761D02*
X42107143Y-42110523D01*
X42107143Y-42110523D02*
X42107143Y-42039095D01*
X42107143Y-42039095D02*
X42130952Y-41943857D01*
X42130952Y-41943857D02*
X42154762Y-41896238D01*
X42154762Y-41896238D02*
X42202381Y-41848619D01*
X42202381Y-41848619D02*
X42273809Y-41824809D01*
X42273809Y-41824809D02*
X42321428Y-41824809D01*
X42321428Y-41824809D02*
X42392857Y-41848619D01*
X42392857Y-41848619D02*
X42416666Y-41872428D01*
X42845238Y-41824809D02*
X42750000Y-41824809D01*
X42750000Y-41824809D02*
X42702381Y-41848619D01*
X42702381Y-41848619D02*
X42678571Y-41872428D01*
X42678571Y-41872428D02*
X42630952Y-41943857D01*
X42630952Y-41943857D02*
X42607143Y-42039095D01*
X42607143Y-42039095D02*
X42607143Y-42229571D01*
X42607143Y-42229571D02*
X42630952Y-42277190D01*
X42630952Y-42277190D02*
X42654762Y-42301000D01*
X42654762Y-42301000D02*
X42702381Y-42324809D01*
X42702381Y-42324809D02*
X42797619Y-42324809D01*
X42797619Y-42324809D02*
X42845238Y-42301000D01*
X42845238Y-42301000D02*
X42869047Y-42277190D01*
X42869047Y-42277190D02*
X42892857Y-42229571D01*
X42892857Y-42229571D02*
X42892857Y-42110523D01*
X42892857Y-42110523D02*
X42869047Y-42062904D01*
X42869047Y-42062904D02*
X42845238Y-42039095D01*
X42845238Y-42039095D02*
X42797619Y-42015285D01*
X42797619Y-42015285D02*
X42702381Y-42015285D01*
X42702381Y-42015285D02*
X42654762Y-42039095D01*
X42654762Y-42039095D02*
X42630952Y-42062904D01*
X42630952Y-42062904D02*
X42607143Y-42110523D01*
D12*
X24123810Y-41454819D02*
X24123810Y-40454819D01*
X25028571Y-40788152D02*
X25028571Y-41454819D01*
X24790476Y-40407200D02*
X24552381Y-41121485D01*
X24552381Y-41121485D02*
X25171428Y-41121485D01*
X20719048Y-48554819D02*
X20719048Y-47554819D01*
X21147619Y-48507200D02*
X21290476Y-48554819D01*
X21290476Y-48554819D02*
X21528571Y-48554819D01*
X21528571Y-48554819D02*
X21623809Y-48507200D01*
X21623809Y-48507200D02*
X21671428Y-48459580D01*
X21671428Y-48459580D02*
X21719047Y-48364342D01*
X21719047Y-48364342D02*
X21719047Y-48269104D01*
X21719047Y-48269104D02*
X21671428Y-48173866D01*
X21671428Y-48173866D02*
X21623809Y-48126247D01*
X21623809Y-48126247D02*
X21528571Y-48078628D01*
X21528571Y-48078628D02*
X21338095Y-48031009D01*
X21338095Y-48031009D02*
X21242857Y-47983390D01*
X21242857Y-47983390D02*
X21195238Y-47935771D01*
X21195238Y-47935771D02*
X21147619Y-47840533D01*
X21147619Y-47840533D02*
X21147619Y-47745295D01*
X21147619Y-47745295D02*
X21195238Y-47650057D01*
X21195238Y-47650057D02*
X21242857Y-47602438D01*
X21242857Y-47602438D02*
X21338095Y-47554819D01*
X21338095Y-47554819D02*
X21576190Y-47554819D01*
X21576190Y-47554819D02*
X21719047Y-47602438D01*
X22147619Y-48554819D02*
X22147619Y-47554819D01*
X22147619Y-47554819D02*
X22480952Y-48269104D01*
X22480952Y-48269104D02*
X22814285Y-47554819D01*
X22814285Y-47554819D02*
X22814285Y-48554819D01*
X23195238Y-47554819D02*
X23814285Y-47554819D01*
X23814285Y-47554819D02*
X23480952Y-47935771D01*
X23480952Y-47935771D02*
X23623809Y-47935771D01*
X23623809Y-47935771D02*
X23719047Y-47983390D01*
X23719047Y-47983390D02*
X23766666Y-48031009D01*
X23766666Y-48031009D02*
X23814285Y-48126247D01*
X23814285Y-48126247D02*
X23814285Y-48364342D01*
X23814285Y-48364342D02*
X23766666Y-48459580D01*
X23766666Y-48459580D02*
X23719047Y-48507200D01*
X23719047Y-48507200D02*
X23623809Y-48554819D01*
X23623809Y-48554819D02*
X23338095Y-48554819D01*
X23338095Y-48554819D02*
X23242857Y-48507200D01*
X23242857Y-48507200D02*
X23195238Y-48459580D01*
X24147619Y-47554819D02*
X24766666Y-47554819D01*
X24766666Y-47554819D02*
X24433333Y-47935771D01*
X24433333Y-47935771D02*
X24576190Y-47935771D01*
X24576190Y-47935771D02*
X24671428Y-47983390D01*
X24671428Y-47983390D02*
X24719047Y-48031009D01*
X24719047Y-48031009D02*
X24766666Y-48126247D01*
X24766666Y-48126247D02*
X24766666Y-48364342D01*
X24766666Y-48364342D02*
X24719047Y-48459580D01*
X24719047Y-48459580D02*
X24671428Y-48507200D01*
X24671428Y-48507200D02*
X24576190Y-48554819D01*
X24576190Y-48554819D02*
X24290476Y-48554819D01*
X24290476Y-48554819D02*
X24195238Y-48507200D01*
X24195238Y-48507200D02*
X24147619Y-48459580D01*
X25385714Y-47554819D02*
X25480952Y-47554819D01*
X25480952Y-47554819D02*
X25576190Y-47602438D01*
X25576190Y-47602438D02*
X25623809Y-47650057D01*
X25623809Y-47650057D02*
X25671428Y-47745295D01*
X25671428Y-47745295D02*
X25719047Y-47935771D01*
X25719047Y-47935771D02*
X25719047Y-48173866D01*
X25719047Y-48173866D02*
X25671428Y-48364342D01*
X25671428Y-48364342D02*
X25623809Y-48459580D01*
X25623809Y-48459580D02*
X25576190Y-48507200D01*
X25576190Y-48507200D02*
X25480952Y-48554819D01*
X25480952Y-48554819D02*
X25385714Y-48554819D01*
X25385714Y-48554819D02*
X25290476Y-48507200D01*
X25290476Y-48507200D02*
X25242857Y-48459580D01*
X25242857Y-48459580D02*
X25195238Y-48364342D01*
X25195238Y-48364342D02*
X25147619Y-48173866D01*
X25147619Y-48173866D02*
X25147619Y-47935771D01*
X25147619Y-47935771D02*
X25195238Y-47745295D01*
X25195238Y-47745295D02*
X25242857Y-47650057D01*
X25242857Y-47650057D02*
X25290476Y-47602438D01*
X25290476Y-47602438D02*
X25385714Y-47554819D01*
X26147619Y-48554819D02*
X26147619Y-47554819D01*
X26147619Y-47554819D02*
X26385714Y-47554819D01*
X26385714Y-47554819D02*
X26528571Y-47602438D01*
X26528571Y-47602438D02*
X26623809Y-47697676D01*
X26623809Y-47697676D02*
X26671428Y-47792914D01*
X26671428Y-47792914D02*
X26719047Y-47983390D01*
X26719047Y-47983390D02*
X26719047Y-48126247D01*
X26719047Y-48126247D02*
X26671428Y-48316723D01*
X26671428Y-48316723D02*
X26623809Y-48411961D01*
X26623809Y-48411961D02*
X26528571Y-48507200D01*
X26528571Y-48507200D02*
X26385714Y-48554819D01*
X26385714Y-48554819D02*
X26147619Y-48554819D01*
X27623809Y-48554819D02*
X27147619Y-48554819D01*
X27147619Y-48554819D02*
X27147619Y-47554819D01*
X28528571Y-48459580D02*
X28480952Y-48507200D01*
X28480952Y-48507200D02*
X28338095Y-48554819D01*
X28338095Y-48554819D02*
X28242857Y-48554819D01*
X28242857Y-48554819D02*
X28100000Y-48507200D01*
X28100000Y-48507200D02*
X28004762Y-48411961D01*
X28004762Y-48411961D02*
X27957143Y-48316723D01*
X27957143Y-48316723D02*
X27909524Y-48126247D01*
X27909524Y-48126247D02*
X27909524Y-47983390D01*
X27909524Y-47983390D02*
X27957143Y-47792914D01*
X27957143Y-47792914D02*
X28004762Y-47697676D01*
X28004762Y-47697676D02*
X28100000Y-47602438D01*
X28100000Y-47602438D02*
X28242857Y-47554819D01*
X28242857Y-47554819D02*
X28338095Y-47554819D01*
X28338095Y-47554819D02*
X28480952Y-47602438D01*
X28480952Y-47602438D02*
X28528571Y-47650057D01*
D11*
X22578571Y-46677190D02*
X22554762Y-46701000D01*
X22554762Y-46701000D02*
X22483333Y-46724809D01*
X22483333Y-46724809D02*
X22435714Y-46724809D01*
X22435714Y-46724809D02*
X22364286Y-46701000D01*
X22364286Y-46701000D02*
X22316667Y-46653380D01*
X22316667Y-46653380D02*
X22292857Y-46605761D01*
X22292857Y-46605761D02*
X22269048Y-46510523D01*
X22269048Y-46510523D02*
X22269048Y-46439095D01*
X22269048Y-46439095D02*
X22292857Y-46343857D01*
X22292857Y-46343857D02*
X22316667Y-46296238D01*
X22316667Y-46296238D02*
X22364286Y-46248619D01*
X22364286Y-46248619D02*
X22435714Y-46224809D01*
X22435714Y-46224809D02*
X22483333Y-46224809D01*
X22483333Y-46224809D02*
X22554762Y-46248619D01*
X22554762Y-46248619D02*
X22578571Y-46272428D01*
X23054762Y-46724809D02*
X22769048Y-46724809D01*
X22911905Y-46724809D02*
X22911905Y-46224809D01*
X22911905Y-46224809D02*
X22864286Y-46296238D01*
X22864286Y-46296238D02*
X22816667Y-46343857D01*
X22816667Y-46343857D02*
X22769048Y-46367666D01*
X23340476Y-46439095D02*
X23292857Y-46415285D01*
X23292857Y-46415285D02*
X23269047Y-46391476D01*
X23269047Y-46391476D02*
X23245238Y-46343857D01*
X23245238Y-46343857D02*
X23245238Y-46320047D01*
X23245238Y-46320047D02*
X23269047Y-46272428D01*
X23269047Y-46272428D02*
X23292857Y-46248619D01*
X23292857Y-46248619D02*
X23340476Y-46224809D01*
X23340476Y-46224809D02*
X23435714Y-46224809D01*
X23435714Y-46224809D02*
X23483333Y-46248619D01*
X23483333Y-46248619D02*
X23507142Y-46272428D01*
X23507142Y-46272428D02*
X23530952Y-46320047D01*
X23530952Y-46320047D02*
X23530952Y-46343857D01*
X23530952Y-46343857D02*
X23507142Y-46391476D01*
X23507142Y-46391476D02*
X23483333Y-46415285D01*
X23483333Y-46415285D02*
X23435714Y-46439095D01*
X23435714Y-46439095D02*
X23340476Y-46439095D01*
X23340476Y-46439095D02*
X23292857Y-46462904D01*
X23292857Y-46462904D02*
X23269047Y-46486714D01*
X23269047Y-46486714D02*
X23245238Y-46534333D01*
X23245238Y-46534333D02*
X23245238Y-46629571D01*
X23245238Y-46629571D02*
X23269047Y-46677190D01*
X23269047Y-46677190D02*
X23292857Y-46701000D01*
X23292857Y-46701000D02*
X23340476Y-46724809D01*
X23340476Y-46724809D02*
X23435714Y-46724809D01*
X23435714Y-46724809D02*
X23483333Y-46701000D01*
X23483333Y-46701000D02*
X23507142Y-46677190D01*
X23507142Y-46677190D02*
X23530952Y-46629571D01*
X23530952Y-46629571D02*
X23530952Y-46534333D01*
X23530952Y-46534333D02*
X23507142Y-46486714D01*
X23507142Y-46486714D02*
X23483333Y-46462904D01*
X23483333Y-46462904D02*
X23435714Y-46439095D01*
D12*
X33197738Y-31931009D02*
X33340595Y-31978628D01*
X33340595Y-31978628D02*
X33388214Y-32026247D01*
X33388214Y-32026247D02*
X33435833Y-32121485D01*
X33435833Y-32121485D02*
X33435833Y-32264342D01*
X33435833Y-32264342D02*
X33388214Y-32359580D01*
X33388214Y-32359580D02*
X33340595Y-32407200D01*
X33340595Y-32407200D02*
X33245357Y-32454819D01*
X33245357Y-32454819D02*
X32864405Y-32454819D01*
X32864405Y-32454819D02*
X32864405Y-31454819D01*
X32864405Y-31454819D02*
X33197738Y-31454819D01*
X33197738Y-31454819D02*
X33292976Y-31502438D01*
X33292976Y-31502438D02*
X33340595Y-31550057D01*
X33340595Y-31550057D02*
X33388214Y-31645295D01*
X33388214Y-31645295D02*
X33388214Y-31740533D01*
X33388214Y-31740533D02*
X33340595Y-31835771D01*
X33340595Y-31835771D02*
X33292976Y-31883390D01*
X33292976Y-31883390D02*
X33197738Y-31931009D01*
X33197738Y-31931009D02*
X32864405Y-31931009D01*
X34340595Y-31454819D02*
X33864405Y-31454819D01*
X33864405Y-31454819D02*
X33816786Y-31931009D01*
X33816786Y-31931009D02*
X33864405Y-31883390D01*
X33864405Y-31883390D02*
X33959643Y-31835771D01*
X33959643Y-31835771D02*
X34197738Y-31835771D01*
X34197738Y-31835771D02*
X34292976Y-31883390D01*
X34292976Y-31883390D02*
X34340595Y-31931009D01*
X34340595Y-31931009D02*
X34388214Y-32026247D01*
X34388214Y-32026247D02*
X34388214Y-32264342D01*
X34388214Y-32264342D02*
X34340595Y-32359580D01*
X34340595Y-32359580D02*
X34292976Y-32407200D01*
X34292976Y-32407200D02*
X34197738Y-32454819D01*
X34197738Y-32454819D02*
X33959643Y-32454819D01*
X33959643Y-32454819D02*
X33864405Y-32407200D01*
X33864405Y-32407200D02*
X33816786Y-32359580D01*
X31052380Y-39454819D02*
X30576190Y-39454819D01*
X30576190Y-39454819D02*
X30576190Y-38454819D01*
X31385714Y-39454819D02*
X31385714Y-38454819D01*
X31385714Y-38454819D02*
X31766666Y-38454819D01*
X31766666Y-38454819D02*
X31861904Y-38502438D01*
X31861904Y-38502438D02*
X31909523Y-38550057D01*
X31909523Y-38550057D02*
X31957142Y-38645295D01*
X31957142Y-38645295D02*
X31957142Y-38788152D01*
X31957142Y-38788152D02*
X31909523Y-38883390D01*
X31909523Y-38883390D02*
X31861904Y-38931009D01*
X31861904Y-38931009D02*
X31766666Y-38978628D01*
X31766666Y-38978628D02*
X31385714Y-38978628D01*
X32338095Y-39407200D02*
X32480952Y-39454819D01*
X32480952Y-39454819D02*
X32719047Y-39454819D01*
X32719047Y-39454819D02*
X32814285Y-39407200D01*
X32814285Y-39407200D02*
X32861904Y-39359580D01*
X32861904Y-39359580D02*
X32909523Y-39264342D01*
X32909523Y-39264342D02*
X32909523Y-39169104D01*
X32909523Y-39169104D02*
X32861904Y-39073866D01*
X32861904Y-39073866D02*
X32814285Y-39026247D01*
X32814285Y-39026247D02*
X32719047Y-38978628D01*
X32719047Y-38978628D02*
X32528571Y-38931009D01*
X32528571Y-38931009D02*
X32433333Y-38883390D01*
X32433333Y-38883390D02*
X32385714Y-38835771D01*
X32385714Y-38835771D02*
X32338095Y-38740533D01*
X32338095Y-38740533D02*
X32338095Y-38645295D01*
X32338095Y-38645295D02*
X32385714Y-38550057D01*
X32385714Y-38550057D02*
X32433333Y-38502438D01*
X32433333Y-38502438D02*
X32528571Y-38454819D01*
X32528571Y-38454819D02*
X32766666Y-38454819D01*
X32766666Y-38454819D02*
X32909523Y-38502438D01*
X33290476Y-38550057D02*
X33338095Y-38502438D01*
X33338095Y-38502438D02*
X33433333Y-38454819D01*
X33433333Y-38454819D02*
X33671428Y-38454819D01*
X33671428Y-38454819D02*
X33766666Y-38502438D01*
X33766666Y-38502438D02*
X33814285Y-38550057D01*
X33814285Y-38550057D02*
X33861904Y-38645295D01*
X33861904Y-38645295D02*
X33861904Y-38740533D01*
X33861904Y-38740533D02*
X33814285Y-38883390D01*
X33814285Y-38883390D02*
X33242857Y-39454819D01*
X33242857Y-39454819D02*
X33861904Y-39454819D01*
X34242857Y-38550057D02*
X34290476Y-38502438D01*
X34290476Y-38502438D02*
X34385714Y-38454819D01*
X34385714Y-38454819D02*
X34623809Y-38454819D01*
X34623809Y-38454819D02*
X34719047Y-38502438D01*
X34719047Y-38502438D02*
X34766666Y-38550057D01*
X34766666Y-38550057D02*
X34814285Y-38645295D01*
X34814285Y-38645295D02*
X34814285Y-38740533D01*
X34814285Y-38740533D02*
X34766666Y-38883390D01*
X34766666Y-38883390D02*
X34195238Y-39454819D01*
X34195238Y-39454819D02*
X34814285Y-39454819D01*
X35242857Y-39454819D02*
X35242857Y-38454819D01*
X35242857Y-38454819D02*
X35480952Y-38454819D01*
X35480952Y-38454819D02*
X35623809Y-38502438D01*
X35623809Y-38502438D02*
X35719047Y-38597676D01*
X35719047Y-38597676D02*
X35766666Y-38692914D01*
X35766666Y-38692914D02*
X35814285Y-38883390D01*
X35814285Y-38883390D02*
X35814285Y-39026247D01*
X35814285Y-39026247D02*
X35766666Y-39216723D01*
X35766666Y-39216723D02*
X35719047Y-39311961D01*
X35719047Y-39311961D02*
X35623809Y-39407200D01*
X35623809Y-39407200D02*
X35480952Y-39454819D01*
X35480952Y-39454819D02*
X35242857Y-39454819D01*
X36576190Y-38931009D02*
X36242857Y-38931009D01*
X36242857Y-39454819D02*
X36242857Y-38454819D01*
X36242857Y-38454819D02*
X36719047Y-38454819D01*
D13*
X33197738Y-35459649D02*
X33340595Y-35507268D01*
X33340595Y-35507268D02*
X33388214Y-35554887D01*
X33388214Y-35554887D02*
X33435833Y-35650125D01*
X33435833Y-35650125D02*
X33435833Y-35792982D01*
X33435833Y-35792982D02*
X33388214Y-35888220D01*
X33388214Y-35888220D02*
X33340595Y-35935840D01*
X33340595Y-35935840D02*
X33245357Y-35983459D01*
X33245357Y-35983459D02*
X32864405Y-35983459D01*
X32864405Y-35983459D02*
X32864405Y-34983459D01*
X32864405Y-34983459D02*
X33197738Y-34983459D01*
X33197738Y-34983459D02*
X33292976Y-35031078D01*
X33292976Y-35031078D02*
X33340595Y-35078697D01*
X33340595Y-35078697D02*
X33388214Y-35173935D01*
X33388214Y-35173935D02*
X33388214Y-35269173D01*
X33388214Y-35269173D02*
X33340595Y-35364411D01*
X33340595Y-35364411D02*
X33292976Y-35412030D01*
X33292976Y-35412030D02*
X33197738Y-35459649D01*
X33197738Y-35459649D02*
X32864405Y-35459649D01*
X34340595Y-34983459D02*
X33864405Y-34983459D01*
X33864405Y-34983459D02*
X33816786Y-35459649D01*
X33816786Y-35459649D02*
X33864405Y-35412030D01*
X33864405Y-35412030D02*
X33959643Y-35364411D01*
X33959643Y-35364411D02*
X34197738Y-35364411D01*
X34197738Y-35364411D02*
X34292976Y-35412030D01*
X34292976Y-35412030D02*
X34340595Y-35459649D01*
X34340595Y-35459649D02*
X34388214Y-35554887D01*
X34388214Y-35554887D02*
X34388214Y-35792982D01*
X34388214Y-35792982D02*
X34340595Y-35888220D01*
X34340595Y-35888220D02*
X34292976Y-35935840D01*
X34292976Y-35935840D02*
X34197738Y-35983459D01*
X34197738Y-35983459D02*
X33959643Y-35983459D01*
X33959643Y-35983459D02*
X33864405Y-35935840D01*
X33864405Y-35935840D02*
X33816786Y-35888220D01*
D12*
X24223810Y-32454819D02*
X24223810Y-31454819D01*
X24604762Y-31454819D02*
X25223809Y-31454819D01*
X25223809Y-31454819D02*
X24890476Y-31835771D01*
X24890476Y-31835771D02*
X25033333Y-31835771D01*
X25033333Y-31835771D02*
X25128571Y-31883390D01*
X25128571Y-31883390D02*
X25176190Y-31931009D01*
X25176190Y-31931009D02*
X25223809Y-32026247D01*
X25223809Y-32026247D02*
X25223809Y-32264342D01*
X25223809Y-32264342D02*
X25176190Y-32359580D01*
X25176190Y-32359580D02*
X25128571Y-32407200D01*
X25128571Y-32407200D02*
X25033333Y-32454819D01*
X25033333Y-32454819D02*
X24747619Y-32454819D01*
X24747619Y-32454819D02*
X24652381Y-32407200D01*
X24652381Y-32407200D02*
X24604762Y-32359580D01*
X22533333Y-38931009D02*
X22676190Y-38978628D01*
X22676190Y-38978628D02*
X22723809Y-39026247D01*
X22723809Y-39026247D02*
X22771428Y-39121485D01*
X22771428Y-39121485D02*
X22771428Y-39264342D01*
X22771428Y-39264342D02*
X22723809Y-39359580D01*
X22723809Y-39359580D02*
X22676190Y-39407200D01*
X22676190Y-39407200D02*
X22580952Y-39454819D01*
X22580952Y-39454819D02*
X22200000Y-39454819D01*
X22200000Y-39454819D02*
X22200000Y-38454819D01*
X22200000Y-38454819D02*
X22533333Y-38454819D01*
X22533333Y-38454819D02*
X22628571Y-38502438D01*
X22628571Y-38502438D02*
X22676190Y-38550057D01*
X22676190Y-38550057D02*
X22723809Y-38645295D01*
X22723809Y-38645295D02*
X22723809Y-38740533D01*
X22723809Y-38740533D02*
X22676190Y-38835771D01*
X22676190Y-38835771D02*
X22628571Y-38883390D01*
X22628571Y-38883390D02*
X22533333Y-38931009D01*
X22533333Y-38931009D02*
X22200000Y-38931009D01*
X23200000Y-39454819D02*
X23200000Y-38454819D01*
X23200000Y-38454819D02*
X23533333Y-39169104D01*
X23533333Y-39169104D02*
X23866666Y-38454819D01*
X23866666Y-38454819D02*
X23866666Y-39454819D01*
X24342857Y-39454819D02*
X24342857Y-38454819D01*
X24771428Y-38550057D02*
X24819047Y-38502438D01*
X24819047Y-38502438D02*
X24914285Y-38454819D01*
X24914285Y-38454819D02*
X25152380Y-38454819D01*
X25152380Y-38454819D02*
X25247618Y-38502438D01*
X25247618Y-38502438D02*
X25295237Y-38550057D01*
X25295237Y-38550057D02*
X25342856Y-38645295D01*
X25342856Y-38645295D02*
X25342856Y-38740533D01*
X25342856Y-38740533D02*
X25295237Y-38883390D01*
X25295237Y-38883390D02*
X24723809Y-39454819D01*
X24723809Y-39454819D02*
X25342856Y-39454819D01*
X25676190Y-38454819D02*
X26342856Y-38454819D01*
X26342856Y-38454819D02*
X25914285Y-39454819D01*
X26914285Y-38454819D02*
X27009523Y-38454819D01*
X27009523Y-38454819D02*
X27104761Y-38502438D01*
X27104761Y-38502438D02*
X27152380Y-38550057D01*
X27152380Y-38550057D02*
X27199999Y-38645295D01*
X27199999Y-38645295D02*
X27247618Y-38835771D01*
X27247618Y-38835771D02*
X27247618Y-39073866D01*
X27247618Y-39073866D02*
X27199999Y-39264342D01*
X27199999Y-39264342D02*
X27152380Y-39359580D01*
X27152380Y-39359580D02*
X27104761Y-39407200D01*
X27104761Y-39407200D02*
X27009523Y-39454819D01*
X27009523Y-39454819D02*
X26914285Y-39454819D01*
X26914285Y-39454819D02*
X26819047Y-39407200D01*
X26819047Y-39407200D02*
X26771428Y-39359580D01*
X26771428Y-39359580D02*
X26723809Y-39264342D01*
X26723809Y-39264342D02*
X26676190Y-39073866D01*
X26676190Y-39073866D02*
X26676190Y-38835771D01*
X26676190Y-38835771D02*
X26723809Y-38645295D01*
X26723809Y-38645295D02*
X26771428Y-38550057D01*
X26771428Y-38550057D02*
X26819047Y-38502438D01*
X26819047Y-38502438D02*
X26914285Y-38454819D01*
D11*
X26878571Y-44577190D02*
X26854762Y-44601000D01*
X26854762Y-44601000D02*
X26783333Y-44624809D01*
X26783333Y-44624809D02*
X26735714Y-44624809D01*
X26735714Y-44624809D02*
X26664286Y-44601000D01*
X26664286Y-44601000D02*
X26616667Y-44553380D01*
X26616667Y-44553380D02*
X26592857Y-44505761D01*
X26592857Y-44505761D02*
X26569048Y-44410523D01*
X26569048Y-44410523D02*
X26569048Y-44339095D01*
X26569048Y-44339095D02*
X26592857Y-44243857D01*
X26592857Y-44243857D02*
X26616667Y-44196238D01*
X26616667Y-44196238D02*
X26664286Y-44148619D01*
X26664286Y-44148619D02*
X26735714Y-44124809D01*
X26735714Y-44124809D02*
X26783333Y-44124809D01*
X26783333Y-44124809D02*
X26854762Y-44148619D01*
X26854762Y-44148619D02*
X26878571Y-44172428D01*
X27354762Y-44624809D02*
X27069048Y-44624809D01*
X27211905Y-44624809D02*
X27211905Y-44124809D01*
X27211905Y-44124809D02*
X27164286Y-44196238D01*
X27164286Y-44196238D02*
X27116667Y-44243857D01*
X27116667Y-44243857D02*
X27069048Y-44267666D01*
X27521428Y-44124809D02*
X27854761Y-44124809D01*
X27854761Y-44124809D02*
X27640476Y-44624809D01*
X22678571Y-37677190D02*
X22654762Y-37701000D01*
X22654762Y-37701000D02*
X22583333Y-37724809D01*
X22583333Y-37724809D02*
X22535714Y-37724809D01*
X22535714Y-37724809D02*
X22464286Y-37701000D01*
X22464286Y-37701000D02*
X22416667Y-37653380D01*
X22416667Y-37653380D02*
X22392857Y-37605761D01*
X22392857Y-37605761D02*
X22369048Y-37510523D01*
X22369048Y-37510523D02*
X22369048Y-37439095D01*
X22369048Y-37439095D02*
X22392857Y-37343857D01*
X22392857Y-37343857D02*
X22416667Y-37296238D01*
X22416667Y-37296238D02*
X22464286Y-37248619D01*
X22464286Y-37248619D02*
X22535714Y-37224809D01*
X22535714Y-37224809D02*
X22583333Y-37224809D01*
X22583333Y-37224809D02*
X22654762Y-37248619D01*
X22654762Y-37248619D02*
X22678571Y-37272428D01*
X23154762Y-37724809D02*
X22869048Y-37724809D01*
X23011905Y-37724809D02*
X23011905Y-37224809D01*
X23011905Y-37224809D02*
X22964286Y-37296238D01*
X22964286Y-37296238D02*
X22916667Y-37343857D01*
X22916667Y-37343857D02*
X22869048Y-37367666D01*
X23583333Y-37224809D02*
X23488095Y-37224809D01*
X23488095Y-37224809D02*
X23440476Y-37248619D01*
X23440476Y-37248619D02*
X23416666Y-37272428D01*
X23416666Y-37272428D02*
X23369047Y-37343857D01*
X23369047Y-37343857D02*
X23345238Y-37439095D01*
X23345238Y-37439095D02*
X23345238Y-37629571D01*
X23345238Y-37629571D02*
X23369047Y-37677190D01*
X23369047Y-37677190D02*
X23392857Y-37701000D01*
X23392857Y-37701000D02*
X23440476Y-37724809D01*
X23440476Y-37724809D02*
X23535714Y-37724809D01*
X23535714Y-37724809D02*
X23583333Y-37701000D01*
X23583333Y-37701000D02*
X23607142Y-37677190D01*
X23607142Y-37677190D02*
X23630952Y-37629571D01*
X23630952Y-37629571D02*
X23630952Y-37510523D01*
X23630952Y-37510523D02*
X23607142Y-37462904D01*
X23607142Y-37462904D02*
X23583333Y-37439095D01*
X23583333Y-37439095D02*
X23535714Y-37415285D01*
X23535714Y-37415285D02*
X23440476Y-37415285D01*
X23440476Y-37415285D02*
X23392857Y-37439095D01*
X23392857Y-37439095D02*
X23369047Y-37462904D01*
X23369047Y-37462904D02*
X23345238Y-37510523D01*
X44416666Y-38177190D02*
X44392857Y-38201000D01*
X44392857Y-38201000D02*
X44321428Y-38224809D01*
X44321428Y-38224809D02*
X44273809Y-38224809D01*
X44273809Y-38224809D02*
X44202381Y-38201000D01*
X44202381Y-38201000D02*
X44154762Y-38153380D01*
X44154762Y-38153380D02*
X44130952Y-38105761D01*
X44130952Y-38105761D02*
X44107143Y-38010523D01*
X44107143Y-38010523D02*
X44107143Y-37939095D01*
X44107143Y-37939095D02*
X44130952Y-37843857D01*
X44130952Y-37843857D02*
X44154762Y-37796238D01*
X44154762Y-37796238D02*
X44202381Y-37748619D01*
X44202381Y-37748619D02*
X44273809Y-37724809D01*
X44273809Y-37724809D02*
X44321428Y-37724809D01*
X44321428Y-37724809D02*
X44392857Y-37748619D01*
X44392857Y-37748619D02*
X44416666Y-37772428D01*
X44583333Y-37724809D02*
X44892857Y-37724809D01*
X44892857Y-37724809D02*
X44726190Y-37915285D01*
X44726190Y-37915285D02*
X44797619Y-37915285D01*
X44797619Y-37915285D02*
X44845238Y-37939095D01*
X44845238Y-37939095D02*
X44869047Y-37962904D01*
X44869047Y-37962904D02*
X44892857Y-38010523D01*
X44892857Y-38010523D02*
X44892857Y-38129571D01*
X44892857Y-38129571D02*
X44869047Y-38177190D01*
X44869047Y-38177190D02*
X44845238Y-38201000D01*
X44845238Y-38201000D02*
X44797619Y-38224809D01*
X44797619Y-38224809D02*
X44654762Y-38224809D01*
X44654762Y-38224809D02*
X44607143Y-38201000D01*
X44607143Y-38201000D02*
X44583333Y-38177190D01*
X44316666Y-25577190D02*
X44292857Y-25601000D01*
X44292857Y-25601000D02*
X44221428Y-25624809D01*
X44221428Y-25624809D02*
X44173809Y-25624809D01*
X44173809Y-25624809D02*
X44102381Y-25601000D01*
X44102381Y-25601000D02*
X44054762Y-25553380D01*
X44054762Y-25553380D02*
X44030952Y-25505761D01*
X44030952Y-25505761D02*
X44007143Y-25410523D01*
X44007143Y-25410523D02*
X44007143Y-25339095D01*
X44007143Y-25339095D02*
X44030952Y-25243857D01*
X44030952Y-25243857D02*
X44054762Y-25196238D01*
X44054762Y-25196238D02*
X44102381Y-25148619D01*
X44102381Y-25148619D02*
X44173809Y-25124809D01*
X44173809Y-25124809D02*
X44221428Y-25124809D01*
X44221428Y-25124809D02*
X44292857Y-25148619D01*
X44292857Y-25148619D02*
X44316666Y-25172428D01*
X44507143Y-25172428D02*
X44530952Y-25148619D01*
X44530952Y-25148619D02*
X44578571Y-25124809D01*
X44578571Y-25124809D02*
X44697619Y-25124809D01*
X44697619Y-25124809D02*
X44745238Y-25148619D01*
X44745238Y-25148619D02*
X44769047Y-25172428D01*
X44769047Y-25172428D02*
X44792857Y-25220047D01*
X44792857Y-25220047D02*
X44792857Y-25267666D01*
X44792857Y-25267666D02*
X44769047Y-25339095D01*
X44769047Y-25339095D02*
X44483333Y-25624809D01*
X44483333Y-25624809D02*
X44792857Y-25624809D01*
D14*
X41995238Y-22932569D02*
X42138095Y-22980188D01*
X42138095Y-22980188D02*
X42185714Y-23027807D01*
X42185714Y-23027807D02*
X42233333Y-23123045D01*
X42233333Y-23123045D02*
X42233333Y-23265902D01*
X42233333Y-23265902D02*
X42185714Y-23361140D01*
X42185714Y-23361140D02*
X42138095Y-23408760D01*
X42138095Y-23408760D02*
X42042857Y-23456379D01*
X42042857Y-23456379D02*
X41661905Y-23456379D01*
X41661905Y-23456379D02*
X41661905Y-22456379D01*
X41661905Y-22456379D02*
X41995238Y-22456379D01*
X41995238Y-22456379D02*
X42090476Y-22503998D01*
X42090476Y-22503998D02*
X42138095Y-22551617D01*
X42138095Y-22551617D02*
X42185714Y-22646855D01*
X42185714Y-22646855D02*
X42185714Y-22742093D01*
X42185714Y-22742093D02*
X42138095Y-22837331D01*
X42138095Y-22837331D02*
X42090476Y-22884950D01*
X42090476Y-22884950D02*
X41995238Y-22932569D01*
X41995238Y-22932569D02*
X41661905Y-22932569D01*
X43185714Y-23456379D02*
X42614286Y-23456379D01*
X42900000Y-23456379D02*
X42900000Y-22456379D01*
X42900000Y-22456379D02*
X42804762Y-22599236D01*
X42804762Y-22599236D02*
X42709524Y-22694474D01*
X42709524Y-22694474D02*
X42614286Y-22742093D01*
D12*
X39971428Y-30031009D02*
X40114285Y-30078628D01*
X40114285Y-30078628D02*
X40161904Y-30126247D01*
X40161904Y-30126247D02*
X40209523Y-30221485D01*
X40209523Y-30221485D02*
X40209523Y-30364342D01*
X40209523Y-30364342D02*
X40161904Y-30459580D01*
X40161904Y-30459580D02*
X40114285Y-30507200D01*
X40114285Y-30507200D02*
X40019047Y-30554819D01*
X40019047Y-30554819D02*
X39638095Y-30554819D01*
X39638095Y-30554819D02*
X39638095Y-29554819D01*
X39638095Y-29554819D02*
X39971428Y-29554819D01*
X39971428Y-29554819D02*
X40066666Y-29602438D01*
X40066666Y-29602438D02*
X40114285Y-29650057D01*
X40114285Y-29650057D02*
X40161904Y-29745295D01*
X40161904Y-29745295D02*
X40161904Y-29840533D01*
X40161904Y-29840533D02*
X40114285Y-29935771D01*
X40114285Y-29935771D02*
X40066666Y-29983390D01*
X40066666Y-29983390D02*
X39971428Y-30031009D01*
X39971428Y-30031009D02*
X39638095Y-30031009D01*
X40638095Y-30554819D02*
X40638095Y-29554819D01*
X40638095Y-29554819D02*
X40971428Y-30269104D01*
X40971428Y-30269104D02*
X41304761Y-29554819D01*
X41304761Y-29554819D02*
X41304761Y-30554819D01*
X41780952Y-30554819D02*
X41780952Y-29554819D01*
X41780952Y-29554819D02*
X42161904Y-29554819D01*
X42161904Y-29554819D02*
X42257142Y-29602438D01*
X42257142Y-29602438D02*
X42304761Y-29650057D01*
X42304761Y-29650057D02*
X42352380Y-29745295D01*
X42352380Y-29745295D02*
X42352380Y-29888152D01*
X42352380Y-29888152D02*
X42304761Y-29983390D01*
X42304761Y-29983390D02*
X42257142Y-30031009D01*
X42257142Y-30031009D02*
X42161904Y-30078628D01*
X42161904Y-30078628D02*
X41780952Y-30078628D01*
X43257142Y-29554819D02*
X42780952Y-29554819D01*
X42780952Y-29554819D02*
X42733333Y-30031009D01*
X42733333Y-30031009D02*
X42780952Y-29983390D01*
X42780952Y-29983390D02*
X42876190Y-29935771D01*
X42876190Y-29935771D02*
X43114285Y-29935771D01*
X43114285Y-29935771D02*
X43209523Y-29983390D01*
X43209523Y-29983390D02*
X43257142Y-30031009D01*
X43257142Y-30031009D02*
X43304761Y-30126247D01*
X43304761Y-30126247D02*
X43304761Y-30364342D01*
X43304761Y-30364342D02*
X43257142Y-30459580D01*
X43257142Y-30459580D02*
X43209523Y-30507200D01*
X43209523Y-30507200D02*
X43114285Y-30554819D01*
X43114285Y-30554819D02*
X42876190Y-30554819D01*
X42876190Y-30554819D02*
X42780952Y-30507200D01*
X42780952Y-30507200D02*
X42733333Y-30459580D01*
X43876190Y-29983390D02*
X43780952Y-29935771D01*
X43780952Y-29935771D02*
X43733333Y-29888152D01*
X43733333Y-29888152D02*
X43685714Y-29792914D01*
X43685714Y-29792914D02*
X43685714Y-29745295D01*
X43685714Y-29745295D02*
X43733333Y-29650057D01*
X43733333Y-29650057D02*
X43780952Y-29602438D01*
X43780952Y-29602438D02*
X43876190Y-29554819D01*
X43876190Y-29554819D02*
X44066666Y-29554819D01*
X44066666Y-29554819D02*
X44161904Y-29602438D01*
X44161904Y-29602438D02*
X44209523Y-29650057D01*
X44209523Y-29650057D02*
X44257142Y-29745295D01*
X44257142Y-29745295D02*
X44257142Y-29792914D01*
X44257142Y-29792914D02*
X44209523Y-29888152D01*
X44209523Y-29888152D02*
X44161904Y-29935771D01*
X44161904Y-29935771D02*
X44066666Y-29983390D01*
X44066666Y-29983390D02*
X43876190Y-29983390D01*
X43876190Y-29983390D02*
X43780952Y-30031009D01*
X43780952Y-30031009D02*
X43733333Y-30078628D01*
X43733333Y-30078628D02*
X43685714Y-30173866D01*
X43685714Y-30173866D02*
X43685714Y-30364342D01*
X43685714Y-30364342D02*
X43733333Y-30459580D01*
X43733333Y-30459580D02*
X43780952Y-30507200D01*
X43780952Y-30507200D02*
X43876190Y-30554819D01*
X43876190Y-30554819D02*
X44066666Y-30554819D01*
X44066666Y-30554819D02*
X44161904Y-30507200D01*
X44161904Y-30507200D02*
X44209523Y-30459580D01*
X44209523Y-30459580D02*
X44257142Y-30364342D01*
X44257142Y-30364342D02*
X44257142Y-30173866D01*
X44257142Y-30173866D02*
X44209523Y-30078628D01*
X44209523Y-30078628D02*
X44161904Y-30031009D01*
X44161904Y-30031009D02*
X44066666Y-29983390D01*
X45209523Y-30554819D02*
X44638095Y-30554819D01*
X44923809Y-30554819D02*
X44923809Y-29554819D01*
X44923809Y-29554819D02*
X44828571Y-29697676D01*
X44828571Y-29697676D02*
X44733333Y-29792914D01*
X44733333Y-29792914D02*
X44638095Y-29840533D01*
%TO.C,B4*%
D15*
X30720000Y-24194000D02*
X30720000Y-28414000D01*
X30720000Y-28414000D02*
X36280000Y-28414000D01*
D16*
X31000000Y-24804000D02*
X31000000Y-27804000D01*
X31000000Y-27804000D02*
X31000000Y-24804000D01*
X31000000Y-27804000D02*
X36000000Y-27804000D01*
X36000000Y-24804000D02*
X31000000Y-24804000D01*
X36000000Y-27804000D02*
X36000000Y-24804000D01*
X36000000Y-27804000D02*
X36000000Y-24804000D01*
D15*
X36280000Y-24194000D02*
X30720000Y-24194000D01*
X36280000Y-28414000D02*
X36280000Y-24194000D01*
D10*
X31727000Y-28681000D02*
G75*
G02*
X31527000Y-28681000I-100000J0D01*
G01*
X31527000Y-28681000D02*
G75*
G02*
X31727000Y-28681000I100000J0D01*
G01*
%TO.C,I2*%
D15*
X21900000Y-26332500D02*
X22000000Y-26332500D01*
X21900000Y-27092500D02*
X21900000Y-26332500D01*
X22000000Y-24962500D02*
X22620000Y-24962500D01*
X22000000Y-26332500D02*
X22000000Y-24962500D01*
X22000000Y-27092500D02*
X21900000Y-27092500D01*
X22000000Y-28462500D02*
X22000000Y-27092500D01*
D14*
X22140000Y-25102500D02*
X22615000Y-25102500D01*
X22140000Y-26327500D02*
X22140000Y-25102500D01*
X22140000Y-28322500D02*
X22140000Y-27097500D01*
X22615000Y-28322500D02*
X22140000Y-28322500D01*
D15*
X22620000Y-24862500D02*
X26380000Y-24862500D01*
X22620000Y-24962500D02*
X22620000Y-24862500D01*
X22620000Y-28462500D02*
X22000000Y-28462500D01*
X22620000Y-28562500D02*
X22620000Y-28462500D01*
X26380000Y-24862500D02*
X26380000Y-24962500D01*
X26380000Y-24962500D02*
X27000000Y-24962500D01*
X26380000Y-28462500D02*
X26380000Y-28562500D01*
X26380000Y-28562500D02*
X22620000Y-28562500D01*
D14*
X26385000Y-25102500D02*
X26860000Y-25102500D01*
X26860000Y-25102500D02*
X26860000Y-26327500D01*
X26860000Y-27097500D02*
X26860000Y-28322500D01*
X26860000Y-28322500D02*
X26385000Y-28322500D01*
D15*
X27000000Y-24962500D02*
X27000000Y-26332500D01*
X27000000Y-26332500D02*
X27100000Y-26332500D01*
X27000000Y-27092500D02*
X27000000Y-28462500D01*
X27000000Y-28462500D02*
X26380000Y-28462500D01*
X27100000Y-26332500D02*
X27100000Y-27092500D01*
X27100000Y-27092500D02*
X27000000Y-27092500D01*
D14*
X23000000Y-24852500D02*
X22760000Y-24522500D01*
X23240000Y-24522500D01*
X23000000Y-24852500D01*
G36*
X23000000Y-24852500D02*
G01*
X22760000Y-24522500D01*
X23240000Y-24522500D01*
X23000000Y-24852500D01*
G37*
D17*
X26750000Y-28212500D02*
X22250000Y-28212500D01*
X22250000Y-25962500D01*
X23000000Y-25212500D01*
X26750000Y-25212500D01*
X26750000Y-28212500D01*
%TO.C,B2*%
X40400000Y-33900000D02*
X44600000Y-33900000D01*
X40400000Y-37500000D02*
X40400000Y-33900000D01*
X40400000Y-37500000D02*
X44600000Y-37500000D01*
D10*
X40900000Y-34400000D02*
X44100000Y-34400000D01*
X40900000Y-37000000D02*
X40900000Y-34400000D01*
X40900000Y-37000000D02*
X44100000Y-37000000D01*
D17*
X41250000Y-34700000D02*
X43750000Y-34700000D01*
X41250000Y-36700000D02*
X41250000Y-34700000D01*
X41250000Y-36700000D02*
X43750000Y-36700000D01*
X42000000Y-35700000D02*
X43000000Y-35700000D01*
X42500000Y-36200000D02*
X42500000Y-35200000D01*
X43750000Y-36700000D02*
X43750000Y-34700000D01*
D10*
X44100000Y-37000000D02*
X44100000Y-34400000D01*
D17*
X44600000Y-37500000D02*
X44600000Y-33900000D01*
D18*
X41650000Y-33750000D02*
G75*
G02*
X41400000Y-33750000I-125000J0D01*
G01*
X41400000Y-33750000D02*
G75*
G02*
X41650000Y-33750000I125000J0D01*
G01*
D19*
X41613000Y-34975000D02*
G75*
G02*
X41437000Y-34975000I-88000J0D01*
G01*
X41437000Y-34975000D02*
G75*
G02*
X41613000Y-34975000I88000J0D01*
G01*
X41613000Y-36425000D02*
G75*
G02*
X41437000Y-36425000I-88000J0D01*
G01*
X41437000Y-36425000D02*
G75*
G02*
X41613000Y-36425000I88000J0D01*
G01*
D17*
X41811000Y-35141000D02*
G75*
G02*
X41411000Y-35141000I-200000J0D01*
G01*
X41411000Y-35141000D02*
G75*
G02*
X41811000Y-35141000I200000J0D01*
G01*
D19*
X42263000Y-34975000D02*
G75*
G02*
X42087000Y-34975000I-88000J0D01*
G01*
X42087000Y-34975000D02*
G75*
G02*
X42263000Y-34975000I88000J0D01*
G01*
X42263000Y-36425000D02*
G75*
G02*
X42087000Y-36425000I-88000J0D01*
G01*
X42087000Y-36425000D02*
G75*
G02*
X42263000Y-36425000I88000J0D01*
G01*
X42913000Y-34975000D02*
G75*
G02*
X42737000Y-34975000I-88000J0D01*
G01*
X42737000Y-34975000D02*
G75*
G02*
X42913000Y-34975000I88000J0D01*
G01*
X42913000Y-36425000D02*
G75*
G02*
X42737000Y-36425000I-88000J0D01*
G01*
X42737000Y-36425000D02*
G75*
G02*
X42913000Y-36425000I88000J0D01*
G01*
X43563000Y-34975000D02*
G75*
G02*
X43387000Y-34975000I-88000J0D01*
G01*
X43387000Y-34975000D02*
G75*
G02*
X43563000Y-34975000I88000J0D01*
G01*
X43563000Y-36425000D02*
G75*
G02*
X43387000Y-36425000I-88000J0D01*
G01*
X43387000Y-36425000D02*
G75*
G02*
X43563000Y-36425000I88000J0D01*
G01*
%TO.C,B3*%
D15*
X41510000Y-43275000D02*
X44010000Y-43275000D01*
X41510000Y-45775000D02*
X41510000Y-43275000D01*
X41510000Y-45775000D02*
X44010000Y-45775000D01*
D16*
X41760000Y-43525000D02*
X41760000Y-43780000D01*
X41760000Y-45525000D02*
X41760000Y-43525000D01*
X41760000Y-45525000D02*
X41760000Y-45270000D01*
X43760000Y-43525000D02*
X41760000Y-43525000D01*
X43760000Y-43525000D02*
X43760000Y-43780000D01*
X43760000Y-45525000D02*
X41760000Y-45525000D01*
X43760000Y-45525000D02*
X43760000Y-43525000D01*
X43760000Y-45525000D02*
X43760000Y-45270000D01*
D15*
X44010000Y-45775000D02*
X44010000Y-43275000D01*
D10*
X41265000Y-44275000D02*
G75*
G02*
X41065000Y-44275000I-100000J0D01*
G01*
X41065000Y-44275000D02*
G75*
G02*
X41265000Y-44275000I100000J0D01*
G01*
X41265000Y-44275000D02*
G75*
G02*
X41065000Y-44275000I-100000J0D01*
G01*
X41065000Y-44275000D02*
G75*
G02*
X41265000Y-44275000I100000J0D01*
G01*
%TO.C,I1*%
D15*
X31962500Y-43025000D02*
X35462500Y-43025000D01*
X31962500Y-46025000D02*
X31962500Y-43025000D01*
D16*
X32212500Y-43275000D02*
X32722500Y-43275000D01*
X32212500Y-43275000D02*
X35212500Y-43275000D01*
X32212500Y-45775000D02*
X32212500Y-43275000D01*
X32212500Y-45775000D02*
X32722500Y-45775000D01*
X34702500Y-43275000D02*
X35212500Y-43275000D01*
X35212500Y-43275000D02*
X35212500Y-45775000D01*
X35212500Y-45775000D02*
X32212500Y-45775000D01*
X35212500Y-45775000D02*
X34702500Y-45775000D01*
D15*
X35462500Y-43025000D02*
X35462500Y-46025000D01*
X35462500Y-46025000D02*
X31962500Y-46025000D01*
D10*
X31812500Y-43725000D02*
G75*
G02*
X31612500Y-43725000I-100000J0D01*
G01*
X31612500Y-43725000D02*
G75*
G02*
X31812500Y-43725000I100000J0D01*
G01*
X31812500Y-43725000D02*
G75*
G02*
X31612500Y-43725000I-100000J0D01*
G01*
X31612500Y-43725000D02*
G75*
G02*
X31812500Y-43725000I100000J0D01*
G01*
D20*
X32780500Y-43551000D02*
X32787500Y-43552000D01*
X32793500Y-43553000D01*
X32799500Y-43554000D01*
X32806500Y-43556000D01*
X32812500Y-43558000D01*
X32818500Y-43561000D01*
X32824500Y-43564000D01*
X32830500Y-43567000D01*
X32835500Y-43570000D01*
X32840500Y-43574000D01*
X32846500Y-43578000D01*
X32851500Y-43582000D01*
X32855500Y-43587000D01*
X32860500Y-43591000D01*
X32864500Y-43596000D01*
X32868500Y-43602000D01*
X32872500Y-43607000D01*
X32875500Y-43613000D01*
X32878500Y-43618000D01*
X32881500Y-43624000D01*
X32884500Y-43630000D01*
X32886500Y-43636000D01*
X32888500Y-43643000D01*
X32889500Y-43649000D01*
X32890500Y-43655000D01*
X32891500Y-43662000D01*
X32892500Y-43668000D01*
X32892500Y-43675000D01*
X32892500Y-43875000D01*
X32892500Y-43882000D01*
X32891500Y-43888000D01*
X32890500Y-43895000D01*
X32889500Y-43901000D01*
X32888500Y-43907000D01*
X32886500Y-43914000D01*
X32884500Y-43920000D01*
X32881500Y-43926000D01*
X32878500Y-43932000D01*
X32875500Y-43937000D01*
X32872500Y-43943000D01*
X32868500Y-43948000D01*
X32864500Y-43954000D01*
X32860500Y-43959000D01*
X32855500Y-43963000D01*
X32851500Y-43968000D01*
X32846500Y-43972000D01*
X32840500Y-43976000D01*
X32835500Y-43980000D01*
X32830500Y-43983000D01*
X32824500Y-43986000D01*
X32818500Y-43989000D01*
X32812500Y-43992000D01*
X32806500Y-43994000D01*
X32799500Y-43996000D01*
X32793500Y-43997000D01*
X32787500Y-43998000D01*
X32780500Y-43999000D01*
X32774500Y-44000000D01*
X32767500Y-44000000D01*
X32327500Y-44000000D01*
X32320500Y-44000000D01*
X32314500Y-43999000D01*
X32307500Y-43998000D01*
X32301500Y-43997000D01*
X32295500Y-43996000D01*
X32288500Y-43994000D01*
X32282500Y-43992000D01*
X32276500Y-43989000D01*
X32270500Y-43986000D01*
X32264500Y-43983000D01*
X32259500Y-43980000D01*
X32254500Y-43976000D01*
X32248500Y-43972000D01*
X32243500Y-43968000D01*
X32239500Y-43963000D01*
X32234500Y-43959000D01*
X32230500Y-43954000D01*
X32226500Y-43948000D01*
X32222500Y-43943000D01*
X32219500Y-43937000D01*
X32216500Y-43932000D01*
X32213500Y-43926000D01*
X32210500Y-43920000D01*
X32208500Y-43914000D01*
X32206500Y-43907000D01*
X32205500Y-43901000D01*
X32204500Y-43895000D01*
X32203500Y-43888000D01*
X32202500Y-43882000D01*
X32202500Y-43875000D01*
X32202500Y-43675000D01*
X32202500Y-43668000D01*
X32203500Y-43662000D01*
X32204500Y-43655000D01*
X32205500Y-43649000D01*
X32206500Y-43643000D01*
X32208500Y-43636000D01*
X32210500Y-43630000D01*
X32213500Y-43624000D01*
X32216500Y-43618000D01*
X32219500Y-43613000D01*
X32222500Y-43607000D01*
X32226500Y-43602000D01*
X32230500Y-43596000D01*
X32234500Y-43591000D01*
X32239500Y-43587000D01*
X32243500Y-43582000D01*
X32248500Y-43578000D01*
X32254500Y-43574000D01*
X32259500Y-43570000D01*
X32264500Y-43567000D01*
X32270500Y-43564000D01*
X32276500Y-43561000D01*
X32282500Y-43558000D01*
X32288500Y-43556000D01*
X32295500Y-43554000D01*
X32301500Y-43553000D01*
X32307500Y-43552000D01*
X32314500Y-43551000D01*
X32320500Y-43550000D01*
X32327500Y-43550000D01*
X32767500Y-43550000D01*
X32774500Y-43550000D01*
X32780500Y-43551000D01*
G36*
X32780500Y-43551000D02*
G01*
X32787500Y-43552000D01*
X32793500Y-43553000D01*
X32799500Y-43554000D01*
X32806500Y-43556000D01*
X32812500Y-43558000D01*
X32818500Y-43561000D01*
X32824500Y-43564000D01*
X32830500Y-43567000D01*
X32835500Y-43570000D01*
X32840500Y-43574000D01*
X32846500Y-43578000D01*
X32851500Y-43582000D01*
X32855500Y-43587000D01*
X32860500Y-43591000D01*
X32864500Y-43596000D01*
X32868500Y-43602000D01*
X32872500Y-43607000D01*
X32875500Y-43613000D01*
X32878500Y-43618000D01*
X32881500Y-43624000D01*
X32884500Y-43630000D01*
X32886500Y-43636000D01*
X32888500Y-43643000D01*
X32889500Y-43649000D01*
X32890500Y-43655000D01*
X32891500Y-43662000D01*
X32892500Y-43668000D01*
X32892500Y-43675000D01*
X32892500Y-43875000D01*
X32892500Y-43882000D01*
X32891500Y-43888000D01*
X32890500Y-43895000D01*
X32889500Y-43901000D01*
X32888500Y-43907000D01*
X32886500Y-43914000D01*
X32884500Y-43920000D01*
X32881500Y-43926000D01*
X32878500Y-43932000D01*
X32875500Y-43937000D01*
X32872500Y-43943000D01*
X32868500Y-43948000D01*
X32864500Y-43954000D01*
X32860500Y-43959000D01*
X32855500Y-43963000D01*
X32851500Y-43968000D01*
X32846500Y-43972000D01*
X32840500Y-43976000D01*
X32835500Y-43980000D01*
X32830500Y-43983000D01*
X32824500Y-43986000D01*
X32818500Y-43989000D01*
X32812500Y-43992000D01*
X32806500Y-43994000D01*
X32799500Y-43996000D01*
X32793500Y-43997000D01*
X32787500Y-43998000D01*
X32780500Y-43999000D01*
X32774500Y-44000000D01*
X32767500Y-44000000D01*
X32327500Y-44000000D01*
X32320500Y-44000000D01*
X32314500Y-43999000D01*
X32307500Y-43998000D01*
X32301500Y-43997000D01*
X32295500Y-43996000D01*
X32288500Y-43994000D01*
X32282500Y-43992000D01*
X32276500Y-43989000D01*
X32270500Y-43986000D01*
X32264500Y-43983000D01*
X32259500Y-43980000D01*
X32254500Y-43976000D01*
X32248500Y-43972000D01*
X32243500Y-43968000D01*
X32239500Y-43963000D01*
X32234500Y-43959000D01*
X32230500Y-43954000D01*
X32226500Y-43948000D01*
X32222500Y-43943000D01*
X32219500Y-43937000D01*
X32216500Y-43932000D01*
X32213500Y-43926000D01*
X32210500Y-43920000D01*
X32208500Y-43914000D01*
X32206500Y-43907000D01*
X32205500Y-43901000D01*
X32204500Y-43895000D01*
X32203500Y-43888000D01*
X32202500Y-43882000D01*
X32202500Y-43875000D01*
X32202500Y-43675000D01*
X32202500Y-43668000D01*
X32203500Y-43662000D01*
X32204500Y-43655000D01*
X32205500Y-43649000D01*
X32206500Y-43643000D01*
X32208500Y-43636000D01*
X32210500Y-43630000D01*
X32213500Y-43624000D01*
X32216500Y-43618000D01*
X32219500Y-43613000D01*
X32222500Y-43607000D01*
X32226500Y-43602000D01*
X32230500Y-43596000D01*
X32234500Y-43591000D01*
X32239500Y-43587000D01*
X32243500Y-43582000D01*
X32248500Y-43578000D01*
X32254500Y-43574000D01*
X32259500Y-43570000D01*
X32264500Y-43567000D01*
X32270500Y-43564000D01*
X32276500Y-43561000D01*
X32282500Y-43558000D01*
X32288500Y-43556000D01*
X32295500Y-43554000D01*
X32301500Y-43553000D01*
X32307500Y-43552000D01*
X32314500Y-43551000D01*
X32320500Y-43550000D01*
X32327500Y-43550000D01*
X32767500Y-43550000D01*
X32774500Y-43550000D01*
X32780500Y-43551000D01*
G37*
X32780500Y-44051000D02*
X32787500Y-44052000D01*
X32793500Y-44053000D01*
X32799500Y-44054000D01*
X32806500Y-44056000D01*
X32812500Y-44058000D01*
X32818500Y-44061000D01*
X32824500Y-44064000D01*
X32830500Y-44067000D01*
X32835500Y-44070000D01*
X32840500Y-44074000D01*
X32846500Y-44078000D01*
X32851500Y-44082000D01*
X32855500Y-44087000D01*
X32860500Y-44091000D01*
X32864500Y-44096000D01*
X32868500Y-44102000D01*
X32872500Y-44107000D01*
X32875500Y-44113000D01*
X32878500Y-44118000D01*
X32881500Y-44124000D01*
X32884500Y-44130000D01*
X32886500Y-44136000D01*
X32888500Y-44143000D01*
X32889500Y-44149000D01*
X32890500Y-44155000D01*
X32891500Y-44162000D01*
X32892500Y-44168000D01*
X32892500Y-44175000D01*
X32892500Y-44375000D01*
X32892500Y-44382000D01*
X32891500Y-44388000D01*
X32890500Y-44395000D01*
X32889500Y-44401000D01*
X32888500Y-44407000D01*
X32886500Y-44414000D01*
X32884500Y-44420000D01*
X32881500Y-44426000D01*
X32878500Y-44432000D01*
X32875500Y-44437000D01*
X32872500Y-44443000D01*
X32868500Y-44448000D01*
X32864500Y-44454000D01*
X32860500Y-44459000D01*
X32855500Y-44463000D01*
X32851500Y-44468000D01*
X32846500Y-44472000D01*
X32840500Y-44476000D01*
X32835500Y-44480000D01*
X32830500Y-44483000D01*
X32824500Y-44486000D01*
X32818500Y-44489000D01*
X32812500Y-44492000D01*
X32806500Y-44494000D01*
X32799500Y-44496000D01*
X32793500Y-44497000D01*
X32787500Y-44498000D01*
X32780500Y-44499000D01*
X32774500Y-44500000D01*
X32767500Y-44500000D01*
X32327500Y-44500000D01*
X32320500Y-44500000D01*
X32314500Y-44499000D01*
X32307500Y-44498000D01*
X32301500Y-44497000D01*
X32295500Y-44496000D01*
X32288500Y-44494000D01*
X32282500Y-44492000D01*
X32276500Y-44489000D01*
X32270500Y-44486000D01*
X32264500Y-44483000D01*
X32259500Y-44480000D01*
X32254500Y-44476000D01*
X32248500Y-44472000D01*
X32243500Y-44468000D01*
X32239500Y-44463000D01*
X32234500Y-44459000D01*
X32230500Y-44454000D01*
X32226500Y-44448000D01*
X32222500Y-44443000D01*
X32219500Y-44437000D01*
X32216500Y-44432000D01*
X32213500Y-44426000D01*
X32210500Y-44420000D01*
X32208500Y-44414000D01*
X32206500Y-44407000D01*
X32205500Y-44401000D01*
X32204500Y-44395000D01*
X32203500Y-44388000D01*
X32202500Y-44382000D01*
X32202500Y-44375000D01*
X32202500Y-44175000D01*
X32202500Y-44168000D01*
X32203500Y-44162000D01*
X32204500Y-44155000D01*
X32205500Y-44149000D01*
X32206500Y-44143000D01*
X32208500Y-44136000D01*
X32210500Y-44130000D01*
X32213500Y-44124000D01*
X32216500Y-44118000D01*
X32219500Y-44113000D01*
X32222500Y-44107000D01*
X32226500Y-44102000D01*
X32230500Y-44096000D01*
X32234500Y-44091000D01*
X32239500Y-44087000D01*
X32243500Y-44082000D01*
X32248500Y-44078000D01*
X32254500Y-44074000D01*
X32259500Y-44070000D01*
X32264500Y-44067000D01*
X32270500Y-44064000D01*
X32276500Y-44061000D01*
X32282500Y-44058000D01*
X32288500Y-44056000D01*
X32295500Y-44054000D01*
X32301500Y-44053000D01*
X32307500Y-44052000D01*
X32314500Y-44051000D01*
X32320500Y-44050000D01*
X32327500Y-44050000D01*
X32767500Y-44050000D01*
X32774500Y-44050000D01*
X32780500Y-44051000D01*
G36*
X32780500Y-44051000D02*
G01*
X32787500Y-44052000D01*
X32793500Y-44053000D01*
X32799500Y-44054000D01*
X32806500Y-44056000D01*
X32812500Y-44058000D01*
X32818500Y-44061000D01*
X32824500Y-44064000D01*
X32830500Y-44067000D01*
X32835500Y-44070000D01*
X32840500Y-44074000D01*
X32846500Y-44078000D01*
X32851500Y-44082000D01*
X32855500Y-44087000D01*
X32860500Y-44091000D01*
X32864500Y-44096000D01*
X32868500Y-44102000D01*
X32872500Y-44107000D01*
X32875500Y-44113000D01*
X32878500Y-44118000D01*
X32881500Y-44124000D01*
X32884500Y-44130000D01*
X32886500Y-44136000D01*
X32888500Y-44143000D01*
X32889500Y-44149000D01*
X32890500Y-44155000D01*
X32891500Y-44162000D01*
X32892500Y-44168000D01*
X32892500Y-44175000D01*
X32892500Y-44375000D01*
X32892500Y-44382000D01*
X32891500Y-44388000D01*
X32890500Y-44395000D01*
X32889500Y-44401000D01*
X32888500Y-44407000D01*
X32886500Y-44414000D01*
X32884500Y-44420000D01*
X32881500Y-44426000D01*
X32878500Y-44432000D01*
X32875500Y-44437000D01*
X32872500Y-44443000D01*
X32868500Y-44448000D01*
X32864500Y-44454000D01*
X32860500Y-44459000D01*
X32855500Y-44463000D01*
X32851500Y-44468000D01*
X32846500Y-44472000D01*
X32840500Y-44476000D01*
X32835500Y-44480000D01*
X32830500Y-44483000D01*
X32824500Y-44486000D01*
X32818500Y-44489000D01*
X32812500Y-44492000D01*
X32806500Y-44494000D01*
X32799500Y-44496000D01*
X32793500Y-44497000D01*
X32787500Y-44498000D01*
X32780500Y-44499000D01*
X32774500Y-44500000D01*
X32767500Y-44500000D01*
X32327500Y-44500000D01*
X32320500Y-44500000D01*
X32314500Y-44499000D01*
X32307500Y-44498000D01*
X32301500Y-44497000D01*
X32295500Y-44496000D01*
X32288500Y-44494000D01*
X32282500Y-44492000D01*
X32276500Y-44489000D01*
X32270500Y-44486000D01*
X32264500Y-44483000D01*
X32259500Y-44480000D01*
X32254500Y-44476000D01*
X32248500Y-44472000D01*
X32243500Y-44468000D01*
X32239500Y-44463000D01*
X32234500Y-44459000D01*
X32230500Y-44454000D01*
X32226500Y-44448000D01*
X32222500Y-44443000D01*
X32219500Y-44437000D01*
X32216500Y-44432000D01*
X32213500Y-44426000D01*
X32210500Y-44420000D01*
X32208500Y-44414000D01*
X32206500Y-44407000D01*
X32205500Y-44401000D01*
X32204500Y-44395000D01*
X32203500Y-44388000D01*
X32202500Y-44382000D01*
X32202500Y-44375000D01*
X32202500Y-44175000D01*
X32202500Y-44168000D01*
X32203500Y-44162000D01*
X32204500Y-44155000D01*
X32205500Y-44149000D01*
X32206500Y-44143000D01*
X32208500Y-44136000D01*
X32210500Y-44130000D01*
X32213500Y-44124000D01*
X32216500Y-44118000D01*
X32219500Y-44113000D01*
X32222500Y-44107000D01*
X32226500Y-44102000D01*
X32230500Y-44096000D01*
X32234500Y-44091000D01*
X32239500Y-44087000D01*
X32243500Y-44082000D01*
X32248500Y-44078000D01*
X32254500Y-44074000D01*
X32259500Y-44070000D01*
X32264500Y-44067000D01*
X32270500Y-44064000D01*
X32276500Y-44061000D01*
X32282500Y-44058000D01*
X32288500Y-44056000D01*
X32295500Y-44054000D01*
X32301500Y-44053000D01*
X32307500Y-44052000D01*
X32314500Y-44051000D01*
X32320500Y-44050000D01*
X32327500Y-44050000D01*
X32767500Y-44050000D01*
X32774500Y-44050000D01*
X32780500Y-44051000D01*
G37*
X32780500Y-44551000D02*
X32787500Y-44552000D01*
X32793500Y-44553000D01*
X32799500Y-44554000D01*
X32806500Y-44556000D01*
X32812500Y-44558000D01*
X32818500Y-44561000D01*
X32824500Y-44564000D01*
X32830500Y-44567000D01*
X32835500Y-44570000D01*
X32840500Y-44574000D01*
X32846500Y-44578000D01*
X32851500Y-44582000D01*
X32855500Y-44587000D01*
X32860500Y-44591000D01*
X32864500Y-44596000D01*
X32868500Y-44602000D01*
X32872500Y-44607000D01*
X32875500Y-44613000D01*
X32878500Y-44618000D01*
X32881500Y-44624000D01*
X32884500Y-44630000D01*
X32886500Y-44636000D01*
X32888500Y-44643000D01*
X32889500Y-44649000D01*
X32890500Y-44655000D01*
X32891500Y-44662000D01*
X32892500Y-44668000D01*
X32892500Y-44675000D01*
X32892500Y-44875000D01*
X32892500Y-44882000D01*
X32891500Y-44888000D01*
X32890500Y-44895000D01*
X32889500Y-44901000D01*
X32888500Y-44907000D01*
X32886500Y-44914000D01*
X32884500Y-44920000D01*
X32881500Y-44926000D01*
X32878500Y-44932000D01*
X32875500Y-44937000D01*
X32872500Y-44943000D01*
X32868500Y-44948000D01*
X32864500Y-44954000D01*
X32860500Y-44959000D01*
X32855500Y-44963000D01*
X32851500Y-44968000D01*
X32846500Y-44972000D01*
X32840500Y-44976000D01*
X32835500Y-44980000D01*
X32830500Y-44983000D01*
X32824500Y-44986000D01*
X32818500Y-44989000D01*
X32812500Y-44992000D01*
X32806500Y-44994000D01*
X32799500Y-44996000D01*
X32793500Y-44997000D01*
X32787500Y-44998000D01*
X32780500Y-44999000D01*
X32774500Y-45000000D01*
X32767500Y-45000000D01*
X32327500Y-45000000D01*
X32320500Y-45000000D01*
X32314500Y-44999000D01*
X32307500Y-44998000D01*
X32301500Y-44997000D01*
X32295500Y-44996000D01*
X32288500Y-44994000D01*
X32282500Y-44992000D01*
X32276500Y-44989000D01*
X32270500Y-44986000D01*
X32264500Y-44983000D01*
X32259500Y-44980000D01*
X32254500Y-44976000D01*
X32248500Y-44972000D01*
X32243500Y-44968000D01*
X32239500Y-44963000D01*
X32234500Y-44959000D01*
X32230500Y-44954000D01*
X32226500Y-44948000D01*
X32222500Y-44943000D01*
X32219500Y-44937000D01*
X32216500Y-44932000D01*
X32213500Y-44926000D01*
X32210500Y-44920000D01*
X32208500Y-44914000D01*
X32206500Y-44907000D01*
X32205500Y-44901000D01*
X32204500Y-44895000D01*
X32203500Y-44888000D01*
X32202500Y-44882000D01*
X32202500Y-44875000D01*
X32202500Y-44675000D01*
X32202500Y-44668000D01*
X32203500Y-44662000D01*
X32204500Y-44655000D01*
X32205500Y-44649000D01*
X32206500Y-44643000D01*
X32208500Y-44636000D01*
X32210500Y-44630000D01*
X32213500Y-44624000D01*
X32216500Y-44618000D01*
X32219500Y-44613000D01*
X32222500Y-44607000D01*
X32226500Y-44602000D01*
X32230500Y-44596000D01*
X32234500Y-44591000D01*
X32239500Y-44587000D01*
X32243500Y-44582000D01*
X32248500Y-44578000D01*
X32254500Y-44574000D01*
X32259500Y-44570000D01*
X32264500Y-44567000D01*
X32270500Y-44564000D01*
X32276500Y-44561000D01*
X32282500Y-44558000D01*
X32288500Y-44556000D01*
X32295500Y-44554000D01*
X32301500Y-44553000D01*
X32307500Y-44552000D01*
X32314500Y-44551000D01*
X32320500Y-44550000D01*
X32327500Y-44550000D01*
X32767500Y-44550000D01*
X32774500Y-44550000D01*
X32780500Y-44551000D01*
G36*
X32780500Y-44551000D02*
G01*
X32787500Y-44552000D01*
X32793500Y-44553000D01*
X32799500Y-44554000D01*
X32806500Y-44556000D01*
X32812500Y-44558000D01*
X32818500Y-44561000D01*
X32824500Y-44564000D01*
X32830500Y-44567000D01*
X32835500Y-44570000D01*
X32840500Y-44574000D01*
X32846500Y-44578000D01*
X32851500Y-44582000D01*
X32855500Y-44587000D01*
X32860500Y-44591000D01*
X32864500Y-44596000D01*
X32868500Y-44602000D01*
X32872500Y-44607000D01*
X32875500Y-44613000D01*
X32878500Y-44618000D01*
X32881500Y-44624000D01*
X32884500Y-44630000D01*
X32886500Y-44636000D01*
X32888500Y-44643000D01*
X32889500Y-44649000D01*
X32890500Y-44655000D01*
X32891500Y-44662000D01*
X32892500Y-44668000D01*
X32892500Y-44675000D01*
X32892500Y-44875000D01*
X32892500Y-44882000D01*
X32891500Y-44888000D01*
X32890500Y-44895000D01*
X32889500Y-44901000D01*
X32888500Y-44907000D01*
X32886500Y-44914000D01*
X32884500Y-44920000D01*
X32881500Y-44926000D01*
X32878500Y-44932000D01*
X32875500Y-44937000D01*
X32872500Y-44943000D01*
X32868500Y-44948000D01*
X32864500Y-44954000D01*
X32860500Y-44959000D01*
X32855500Y-44963000D01*
X32851500Y-44968000D01*
X32846500Y-44972000D01*
X32840500Y-44976000D01*
X32835500Y-44980000D01*
X32830500Y-44983000D01*
X32824500Y-44986000D01*
X32818500Y-44989000D01*
X32812500Y-44992000D01*
X32806500Y-44994000D01*
X32799500Y-44996000D01*
X32793500Y-44997000D01*
X32787500Y-44998000D01*
X32780500Y-44999000D01*
X32774500Y-45000000D01*
X32767500Y-45000000D01*
X32327500Y-45000000D01*
X32320500Y-45000000D01*
X32314500Y-44999000D01*
X32307500Y-44998000D01*
X32301500Y-44997000D01*
X32295500Y-44996000D01*
X32288500Y-44994000D01*
X32282500Y-44992000D01*
X32276500Y-44989000D01*
X32270500Y-44986000D01*
X32264500Y-44983000D01*
X32259500Y-44980000D01*
X32254500Y-44976000D01*
X32248500Y-44972000D01*
X32243500Y-44968000D01*
X32239500Y-44963000D01*
X32234500Y-44959000D01*
X32230500Y-44954000D01*
X32226500Y-44948000D01*
X32222500Y-44943000D01*
X32219500Y-44937000D01*
X32216500Y-44932000D01*
X32213500Y-44926000D01*
X32210500Y-44920000D01*
X32208500Y-44914000D01*
X32206500Y-44907000D01*
X32205500Y-44901000D01*
X32204500Y-44895000D01*
X32203500Y-44888000D01*
X32202500Y-44882000D01*
X32202500Y-44875000D01*
X32202500Y-44675000D01*
X32202500Y-44668000D01*
X32203500Y-44662000D01*
X32204500Y-44655000D01*
X32205500Y-44649000D01*
X32206500Y-44643000D01*
X32208500Y-44636000D01*
X32210500Y-44630000D01*
X32213500Y-44624000D01*
X32216500Y-44618000D01*
X32219500Y-44613000D01*
X32222500Y-44607000D01*
X32226500Y-44602000D01*
X32230500Y-44596000D01*
X32234500Y-44591000D01*
X32239500Y-44587000D01*
X32243500Y-44582000D01*
X32248500Y-44578000D01*
X32254500Y-44574000D01*
X32259500Y-44570000D01*
X32264500Y-44567000D01*
X32270500Y-44564000D01*
X32276500Y-44561000D01*
X32282500Y-44558000D01*
X32288500Y-44556000D01*
X32295500Y-44554000D01*
X32301500Y-44553000D01*
X32307500Y-44552000D01*
X32314500Y-44551000D01*
X32320500Y-44550000D01*
X32327500Y-44550000D01*
X32767500Y-44550000D01*
X32774500Y-44550000D01*
X32780500Y-44551000D01*
G37*
X32780500Y-45051000D02*
X32787500Y-45052000D01*
X32793500Y-45053000D01*
X32799500Y-45054000D01*
X32806500Y-45056000D01*
X32812500Y-45058000D01*
X32818500Y-45061000D01*
X32824500Y-45064000D01*
X32830500Y-45067000D01*
X32835500Y-45070000D01*
X32840500Y-45074000D01*
X32846500Y-45078000D01*
X32851500Y-45082000D01*
X32855500Y-45087000D01*
X32860500Y-45091000D01*
X32864500Y-45096000D01*
X32868500Y-45102000D01*
X32872500Y-45107000D01*
X32875500Y-45113000D01*
X32878500Y-45118000D01*
X32881500Y-45124000D01*
X32884500Y-45130000D01*
X32886500Y-45136000D01*
X32888500Y-45143000D01*
X32889500Y-45149000D01*
X32890500Y-45155000D01*
X32891500Y-45162000D01*
X32892500Y-45168000D01*
X32892500Y-45175000D01*
X32892500Y-45375000D01*
X32892500Y-45382000D01*
X32891500Y-45388000D01*
X32890500Y-45395000D01*
X32889500Y-45401000D01*
X32888500Y-45407000D01*
X32886500Y-45414000D01*
X32884500Y-45420000D01*
X32881500Y-45426000D01*
X32878500Y-45432000D01*
X32875500Y-45437000D01*
X32872500Y-45443000D01*
X32868500Y-45448000D01*
X32864500Y-45454000D01*
X32860500Y-45459000D01*
X32855500Y-45463000D01*
X32851500Y-45468000D01*
X32846500Y-45472000D01*
X32840500Y-45476000D01*
X32835500Y-45480000D01*
X32830500Y-45483000D01*
X32824500Y-45486000D01*
X32818500Y-45489000D01*
X32812500Y-45492000D01*
X32806500Y-45494000D01*
X32799500Y-45496000D01*
X32793500Y-45497000D01*
X32787500Y-45498000D01*
X32780500Y-45499000D01*
X32774500Y-45500000D01*
X32767500Y-45500000D01*
X32327500Y-45500000D01*
X32320500Y-45500000D01*
X32314500Y-45499000D01*
X32307500Y-45498000D01*
X32301500Y-45497000D01*
X32295500Y-45496000D01*
X32288500Y-45494000D01*
X32282500Y-45492000D01*
X32276500Y-45489000D01*
X32270500Y-45486000D01*
X32264500Y-45483000D01*
X32259500Y-45480000D01*
X32254500Y-45476000D01*
X32248500Y-45472000D01*
X32243500Y-45468000D01*
X32239500Y-45463000D01*
X32234500Y-45459000D01*
X32230500Y-45454000D01*
X32226500Y-45448000D01*
X32222500Y-45443000D01*
X32219500Y-45437000D01*
X32216500Y-45432000D01*
X32213500Y-45426000D01*
X32210500Y-45420000D01*
X32208500Y-45414000D01*
X32206500Y-45407000D01*
X32205500Y-45401000D01*
X32204500Y-45395000D01*
X32203500Y-45388000D01*
X32202500Y-45382000D01*
X32202500Y-45375000D01*
X32202500Y-45175000D01*
X32202500Y-45168000D01*
X32203500Y-45162000D01*
X32204500Y-45155000D01*
X32205500Y-45149000D01*
X32206500Y-45143000D01*
X32208500Y-45136000D01*
X32210500Y-45130000D01*
X32213500Y-45124000D01*
X32216500Y-45118000D01*
X32219500Y-45113000D01*
X32222500Y-45107000D01*
X32226500Y-45102000D01*
X32230500Y-45096000D01*
X32234500Y-45091000D01*
X32239500Y-45087000D01*
X32243500Y-45082000D01*
X32248500Y-45078000D01*
X32254500Y-45074000D01*
X32259500Y-45070000D01*
X32264500Y-45067000D01*
X32270500Y-45064000D01*
X32276500Y-45061000D01*
X32282500Y-45058000D01*
X32288500Y-45056000D01*
X32295500Y-45054000D01*
X32301500Y-45053000D01*
X32307500Y-45052000D01*
X32314500Y-45051000D01*
X32320500Y-45050000D01*
X32327500Y-45050000D01*
X32767500Y-45050000D01*
X32774500Y-45050000D01*
X32780500Y-45051000D01*
G36*
X32780500Y-45051000D02*
G01*
X32787500Y-45052000D01*
X32793500Y-45053000D01*
X32799500Y-45054000D01*
X32806500Y-45056000D01*
X32812500Y-45058000D01*
X32818500Y-45061000D01*
X32824500Y-45064000D01*
X32830500Y-45067000D01*
X32835500Y-45070000D01*
X32840500Y-45074000D01*
X32846500Y-45078000D01*
X32851500Y-45082000D01*
X32855500Y-45087000D01*
X32860500Y-45091000D01*
X32864500Y-45096000D01*
X32868500Y-45102000D01*
X32872500Y-45107000D01*
X32875500Y-45113000D01*
X32878500Y-45118000D01*
X32881500Y-45124000D01*
X32884500Y-45130000D01*
X32886500Y-45136000D01*
X32888500Y-45143000D01*
X32889500Y-45149000D01*
X32890500Y-45155000D01*
X32891500Y-45162000D01*
X32892500Y-45168000D01*
X32892500Y-45175000D01*
X32892500Y-45375000D01*
X32892500Y-45382000D01*
X32891500Y-45388000D01*
X32890500Y-45395000D01*
X32889500Y-45401000D01*
X32888500Y-45407000D01*
X32886500Y-45414000D01*
X32884500Y-45420000D01*
X32881500Y-45426000D01*
X32878500Y-45432000D01*
X32875500Y-45437000D01*
X32872500Y-45443000D01*
X32868500Y-45448000D01*
X32864500Y-45454000D01*
X32860500Y-45459000D01*
X32855500Y-45463000D01*
X32851500Y-45468000D01*
X32846500Y-45472000D01*
X32840500Y-45476000D01*
X32835500Y-45480000D01*
X32830500Y-45483000D01*
X32824500Y-45486000D01*
X32818500Y-45489000D01*
X32812500Y-45492000D01*
X32806500Y-45494000D01*
X32799500Y-45496000D01*
X32793500Y-45497000D01*
X32787500Y-45498000D01*
X32780500Y-45499000D01*
X32774500Y-45500000D01*
X32767500Y-45500000D01*
X32327500Y-45500000D01*
X32320500Y-45500000D01*
X32314500Y-45499000D01*
X32307500Y-45498000D01*
X32301500Y-45497000D01*
X32295500Y-45496000D01*
X32288500Y-45494000D01*
X32282500Y-45492000D01*
X32276500Y-45489000D01*
X32270500Y-45486000D01*
X32264500Y-45483000D01*
X32259500Y-45480000D01*
X32254500Y-45476000D01*
X32248500Y-45472000D01*
X32243500Y-45468000D01*
X32239500Y-45463000D01*
X32234500Y-45459000D01*
X32230500Y-45454000D01*
X32226500Y-45448000D01*
X32222500Y-45443000D01*
X32219500Y-45437000D01*
X32216500Y-45432000D01*
X32213500Y-45426000D01*
X32210500Y-45420000D01*
X32208500Y-45414000D01*
X32206500Y-45407000D01*
X32205500Y-45401000D01*
X32204500Y-45395000D01*
X32203500Y-45388000D01*
X32202500Y-45382000D01*
X32202500Y-45375000D01*
X32202500Y-45175000D01*
X32202500Y-45168000D01*
X32203500Y-45162000D01*
X32204500Y-45155000D01*
X32205500Y-45149000D01*
X32206500Y-45143000D01*
X32208500Y-45136000D01*
X32210500Y-45130000D01*
X32213500Y-45124000D01*
X32216500Y-45118000D01*
X32219500Y-45113000D01*
X32222500Y-45107000D01*
X32226500Y-45102000D01*
X32230500Y-45096000D01*
X32234500Y-45091000D01*
X32239500Y-45087000D01*
X32243500Y-45082000D01*
X32248500Y-45078000D01*
X32254500Y-45074000D01*
X32259500Y-45070000D01*
X32264500Y-45067000D01*
X32270500Y-45064000D01*
X32276500Y-45061000D01*
X32282500Y-45058000D01*
X32288500Y-45056000D01*
X32295500Y-45054000D01*
X32301500Y-45053000D01*
X32307500Y-45052000D01*
X32314500Y-45051000D01*
X32320500Y-45050000D01*
X32327500Y-45050000D01*
X32767500Y-45050000D01*
X32774500Y-45050000D01*
X32780500Y-45051000D01*
G37*
X33325500Y-43266000D02*
X33332500Y-43267000D01*
X33338500Y-43268000D01*
X33344500Y-43269000D01*
X33351500Y-43271000D01*
X33357500Y-43273000D01*
X33363500Y-43276000D01*
X33369500Y-43279000D01*
X33374500Y-43282000D01*
X33380500Y-43285000D01*
X33385500Y-43289000D01*
X33391500Y-43293000D01*
X33396500Y-43297000D01*
X33400500Y-43302000D01*
X33405500Y-43306000D01*
X33409500Y-43311000D01*
X33413500Y-43317000D01*
X33417500Y-43322000D01*
X33420500Y-43327000D01*
X33423500Y-43333000D01*
X33426500Y-43339000D01*
X33429500Y-43345000D01*
X33431500Y-43351000D01*
X33433500Y-43358000D01*
X33434500Y-43364000D01*
X33435500Y-43370000D01*
X33436500Y-43377000D01*
X33437500Y-43383000D01*
X33437500Y-43390000D01*
X33437500Y-43830000D01*
X33437500Y-43837000D01*
X33436500Y-43843000D01*
X33435500Y-43850000D01*
X33434500Y-43856000D01*
X33433500Y-43862000D01*
X33431500Y-43869000D01*
X33429500Y-43875000D01*
X33426500Y-43881000D01*
X33423500Y-43887000D01*
X33420500Y-43893000D01*
X33417500Y-43898000D01*
X33413500Y-43903000D01*
X33409500Y-43909000D01*
X33405500Y-43914000D01*
X33400500Y-43918000D01*
X33396500Y-43923000D01*
X33391500Y-43927000D01*
X33385500Y-43931000D01*
X33380500Y-43935000D01*
X33374500Y-43938000D01*
X33369500Y-43941000D01*
X33363500Y-43944000D01*
X33357500Y-43947000D01*
X33351500Y-43949000D01*
X33344500Y-43951000D01*
X33338500Y-43952000D01*
X33332500Y-43953000D01*
X33325500Y-43954000D01*
X33319500Y-43955000D01*
X33312500Y-43955000D01*
X33112500Y-43955000D01*
X33105500Y-43955000D01*
X33099500Y-43954000D01*
X33092500Y-43953000D01*
X33086500Y-43952000D01*
X33080500Y-43951000D01*
X33073500Y-43949000D01*
X33067500Y-43947000D01*
X33061500Y-43944000D01*
X33055500Y-43941000D01*
X33049500Y-43938000D01*
X33044500Y-43935000D01*
X33039500Y-43931000D01*
X33033500Y-43927000D01*
X33028500Y-43923000D01*
X33024500Y-43918000D01*
X33019500Y-43914000D01*
X33015500Y-43909000D01*
X33011500Y-43903000D01*
X33007500Y-43898000D01*
X33004500Y-43893000D01*
X33001500Y-43887000D01*
X32998500Y-43881000D01*
X32995500Y-43875000D01*
X32993500Y-43869000D01*
X32991500Y-43862000D01*
X32990500Y-43856000D01*
X32989500Y-43850000D01*
X32988500Y-43843000D01*
X32987500Y-43837000D01*
X32987500Y-43830000D01*
X32987500Y-43390000D01*
X32987500Y-43383000D01*
X32988500Y-43377000D01*
X32989500Y-43370000D01*
X32990500Y-43364000D01*
X32991500Y-43358000D01*
X32993500Y-43351000D01*
X32995500Y-43345000D01*
X32998500Y-43339000D01*
X33001500Y-43333000D01*
X33004500Y-43327000D01*
X33007500Y-43322000D01*
X33011500Y-43317000D01*
X33015500Y-43311000D01*
X33019500Y-43306000D01*
X33024500Y-43302000D01*
X33028500Y-43297000D01*
X33033500Y-43293000D01*
X33039500Y-43289000D01*
X33044500Y-43285000D01*
X33050500Y-43282000D01*
X33055500Y-43279000D01*
X33061500Y-43276000D01*
X33067500Y-43273000D01*
X33073500Y-43271000D01*
X33080500Y-43269000D01*
X33086500Y-43268000D01*
X33092500Y-43267000D01*
X33099500Y-43266000D01*
X33105500Y-43265000D01*
X33112500Y-43265000D01*
X33312500Y-43265000D01*
X33319500Y-43265000D01*
X33325500Y-43266000D01*
G36*
X33325500Y-43266000D02*
G01*
X33332500Y-43267000D01*
X33338500Y-43268000D01*
X33344500Y-43269000D01*
X33351500Y-43271000D01*
X33357500Y-43273000D01*
X33363500Y-43276000D01*
X33369500Y-43279000D01*
X33374500Y-43282000D01*
X33380500Y-43285000D01*
X33385500Y-43289000D01*
X33391500Y-43293000D01*
X33396500Y-43297000D01*
X33400500Y-43302000D01*
X33405500Y-43306000D01*
X33409500Y-43311000D01*
X33413500Y-43317000D01*
X33417500Y-43322000D01*
X33420500Y-43327000D01*
X33423500Y-43333000D01*
X33426500Y-43339000D01*
X33429500Y-43345000D01*
X33431500Y-43351000D01*
X33433500Y-43358000D01*
X33434500Y-43364000D01*
X33435500Y-43370000D01*
X33436500Y-43377000D01*
X33437500Y-43383000D01*
X33437500Y-43390000D01*
X33437500Y-43830000D01*
X33437500Y-43837000D01*
X33436500Y-43843000D01*
X33435500Y-43850000D01*
X33434500Y-43856000D01*
X33433500Y-43862000D01*
X33431500Y-43869000D01*
X33429500Y-43875000D01*
X33426500Y-43881000D01*
X33423500Y-43887000D01*
X33420500Y-43893000D01*
X33417500Y-43898000D01*
X33413500Y-43903000D01*
X33409500Y-43909000D01*
X33405500Y-43914000D01*
X33400500Y-43918000D01*
X33396500Y-43923000D01*
X33391500Y-43927000D01*
X33385500Y-43931000D01*
X33380500Y-43935000D01*
X33374500Y-43938000D01*
X33369500Y-43941000D01*
X33363500Y-43944000D01*
X33357500Y-43947000D01*
X33351500Y-43949000D01*
X33344500Y-43951000D01*
X33338500Y-43952000D01*
X33332500Y-43953000D01*
X33325500Y-43954000D01*
X33319500Y-43955000D01*
X33312500Y-43955000D01*
X33112500Y-43955000D01*
X33105500Y-43955000D01*
X33099500Y-43954000D01*
X33092500Y-43953000D01*
X33086500Y-43952000D01*
X33080500Y-43951000D01*
X33073500Y-43949000D01*
X33067500Y-43947000D01*
X33061500Y-43944000D01*
X33055500Y-43941000D01*
X33049500Y-43938000D01*
X33044500Y-43935000D01*
X33039500Y-43931000D01*
X33033500Y-43927000D01*
X33028500Y-43923000D01*
X33024500Y-43918000D01*
X33019500Y-43914000D01*
X33015500Y-43909000D01*
X33011500Y-43903000D01*
X33007500Y-43898000D01*
X33004500Y-43893000D01*
X33001500Y-43887000D01*
X32998500Y-43881000D01*
X32995500Y-43875000D01*
X32993500Y-43869000D01*
X32991500Y-43862000D01*
X32990500Y-43856000D01*
X32989500Y-43850000D01*
X32988500Y-43843000D01*
X32987500Y-43837000D01*
X32987500Y-43830000D01*
X32987500Y-43390000D01*
X32987500Y-43383000D01*
X32988500Y-43377000D01*
X32989500Y-43370000D01*
X32990500Y-43364000D01*
X32991500Y-43358000D01*
X32993500Y-43351000D01*
X32995500Y-43345000D01*
X32998500Y-43339000D01*
X33001500Y-43333000D01*
X33004500Y-43327000D01*
X33007500Y-43322000D01*
X33011500Y-43317000D01*
X33015500Y-43311000D01*
X33019500Y-43306000D01*
X33024500Y-43302000D01*
X33028500Y-43297000D01*
X33033500Y-43293000D01*
X33039500Y-43289000D01*
X33044500Y-43285000D01*
X33050500Y-43282000D01*
X33055500Y-43279000D01*
X33061500Y-43276000D01*
X33067500Y-43273000D01*
X33073500Y-43271000D01*
X33080500Y-43269000D01*
X33086500Y-43268000D01*
X33092500Y-43267000D01*
X33099500Y-43266000D01*
X33105500Y-43265000D01*
X33112500Y-43265000D01*
X33312500Y-43265000D01*
X33319500Y-43265000D01*
X33325500Y-43266000D01*
G37*
X33325500Y-45096000D02*
X33332500Y-45097000D01*
X33338500Y-45098000D01*
X33344500Y-45099000D01*
X33351500Y-45101000D01*
X33357500Y-45103000D01*
X33363500Y-45106000D01*
X33369500Y-45109000D01*
X33374500Y-45112000D01*
X33380500Y-45115000D01*
X33385500Y-45119000D01*
X33391500Y-45123000D01*
X33396500Y-45127000D01*
X33400500Y-45132000D01*
X33405500Y-45136000D01*
X33409500Y-45141000D01*
X33413500Y-45147000D01*
X33417500Y-45152000D01*
X33420500Y-45157000D01*
X33423500Y-45163000D01*
X33426500Y-45169000D01*
X33429500Y-45175000D01*
X33431500Y-45181000D01*
X33433500Y-45188000D01*
X33434500Y-45194000D01*
X33435500Y-45200000D01*
X33436500Y-45207000D01*
X33437500Y-45213000D01*
X33437500Y-45220000D01*
X33437500Y-45660000D01*
X33437500Y-45667000D01*
X33436500Y-45673000D01*
X33435500Y-45680000D01*
X33434500Y-45686000D01*
X33433500Y-45692000D01*
X33431500Y-45699000D01*
X33429500Y-45705000D01*
X33426500Y-45711000D01*
X33423500Y-45717000D01*
X33420500Y-45723000D01*
X33417500Y-45728000D01*
X33413500Y-45733000D01*
X33409500Y-45739000D01*
X33405500Y-45744000D01*
X33400500Y-45748000D01*
X33396500Y-45753000D01*
X33391500Y-45757000D01*
X33385500Y-45761000D01*
X33380500Y-45765000D01*
X33374500Y-45768000D01*
X33369500Y-45771000D01*
X33363500Y-45774000D01*
X33357500Y-45777000D01*
X33351500Y-45779000D01*
X33344500Y-45781000D01*
X33338500Y-45782000D01*
X33332500Y-45783000D01*
X33325500Y-45784000D01*
X33319500Y-45785000D01*
X33312500Y-45785000D01*
X33112500Y-45785000D01*
X33105500Y-45785000D01*
X33099500Y-45784000D01*
X33092500Y-45783000D01*
X33086500Y-45782000D01*
X33080500Y-45781000D01*
X33073500Y-45779000D01*
X33067500Y-45777000D01*
X33061500Y-45774000D01*
X33055500Y-45771000D01*
X33049500Y-45768000D01*
X33044500Y-45765000D01*
X33039500Y-45761000D01*
X33033500Y-45757000D01*
X33028500Y-45753000D01*
X33024500Y-45748000D01*
X33019500Y-45744000D01*
X33015500Y-45739000D01*
X33011500Y-45733000D01*
X33007500Y-45728000D01*
X33004500Y-45723000D01*
X33001500Y-45717000D01*
X32998500Y-45711000D01*
X32995500Y-45705000D01*
X32993500Y-45699000D01*
X32991500Y-45692000D01*
X32990500Y-45686000D01*
X32989500Y-45680000D01*
X32988500Y-45673000D01*
X32987500Y-45667000D01*
X32987500Y-45660000D01*
X32987500Y-45220000D01*
X32987500Y-45213000D01*
X32988500Y-45207000D01*
X32989500Y-45200000D01*
X32990500Y-45194000D01*
X32991500Y-45188000D01*
X32993500Y-45181000D01*
X32995500Y-45175000D01*
X32998500Y-45169000D01*
X33001500Y-45163000D01*
X33004500Y-45157000D01*
X33007500Y-45152000D01*
X33011500Y-45147000D01*
X33015500Y-45141000D01*
X33019500Y-45136000D01*
X33024500Y-45132000D01*
X33028500Y-45127000D01*
X33033500Y-45123000D01*
X33039500Y-45119000D01*
X33044500Y-45115000D01*
X33050500Y-45112000D01*
X33055500Y-45109000D01*
X33061500Y-45106000D01*
X33067500Y-45103000D01*
X33073500Y-45101000D01*
X33080500Y-45099000D01*
X33086500Y-45098000D01*
X33092500Y-45097000D01*
X33099500Y-45096000D01*
X33105500Y-45095000D01*
X33112500Y-45095000D01*
X33312500Y-45095000D01*
X33319500Y-45095000D01*
X33325500Y-45096000D01*
G36*
X33325500Y-45096000D02*
G01*
X33332500Y-45097000D01*
X33338500Y-45098000D01*
X33344500Y-45099000D01*
X33351500Y-45101000D01*
X33357500Y-45103000D01*
X33363500Y-45106000D01*
X33369500Y-45109000D01*
X33374500Y-45112000D01*
X33380500Y-45115000D01*
X33385500Y-45119000D01*
X33391500Y-45123000D01*
X33396500Y-45127000D01*
X33400500Y-45132000D01*
X33405500Y-45136000D01*
X33409500Y-45141000D01*
X33413500Y-45147000D01*
X33417500Y-45152000D01*
X33420500Y-45157000D01*
X33423500Y-45163000D01*
X33426500Y-45169000D01*
X33429500Y-45175000D01*
X33431500Y-45181000D01*
X33433500Y-45188000D01*
X33434500Y-45194000D01*
X33435500Y-45200000D01*
X33436500Y-45207000D01*
X33437500Y-45213000D01*
X33437500Y-45220000D01*
X33437500Y-45660000D01*
X33437500Y-45667000D01*
X33436500Y-45673000D01*
X33435500Y-45680000D01*
X33434500Y-45686000D01*
X33433500Y-45692000D01*
X33431500Y-45699000D01*
X33429500Y-45705000D01*
X33426500Y-45711000D01*
X33423500Y-45717000D01*
X33420500Y-45723000D01*
X33417500Y-45728000D01*
X33413500Y-45733000D01*
X33409500Y-45739000D01*
X33405500Y-45744000D01*
X33400500Y-45748000D01*
X33396500Y-45753000D01*
X33391500Y-45757000D01*
X33385500Y-45761000D01*
X33380500Y-45765000D01*
X33374500Y-45768000D01*
X33369500Y-45771000D01*
X33363500Y-45774000D01*
X33357500Y-45777000D01*
X33351500Y-45779000D01*
X33344500Y-45781000D01*
X33338500Y-45782000D01*
X33332500Y-45783000D01*
X33325500Y-45784000D01*
X33319500Y-45785000D01*
X33312500Y-45785000D01*
X33112500Y-45785000D01*
X33105500Y-45785000D01*
X33099500Y-45784000D01*
X33092500Y-45783000D01*
X33086500Y-45782000D01*
X33080500Y-45781000D01*
X33073500Y-45779000D01*
X33067500Y-45777000D01*
X33061500Y-45774000D01*
X33055500Y-45771000D01*
X33049500Y-45768000D01*
X33044500Y-45765000D01*
X33039500Y-45761000D01*
X33033500Y-45757000D01*
X33028500Y-45753000D01*
X33024500Y-45748000D01*
X33019500Y-45744000D01*
X33015500Y-45739000D01*
X33011500Y-45733000D01*
X33007500Y-45728000D01*
X33004500Y-45723000D01*
X33001500Y-45717000D01*
X32998500Y-45711000D01*
X32995500Y-45705000D01*
X32993500Y-45699000D01*
X32991500Y-45692000D01*
X32990500Y-45686000D01*
X32989500Y-45680000D01*
X32988500Y-45673000D01*
X32987500Y-45667000D01*
X32987500Y-45660000D01*
X32987500Y-45220000D01*
X32987500Y-45213000D01*
X32988500Y-45207000D01*
X32989500Y-45200000D01*
X32990500Y-45194000D01*
X32991500Y-45188000D01*
X32993500Y-45181000D01*
X32995500Y-45175000D01*
X32998500Y-45169000D01*
X33001500Y-45163000D01*
X33004500Y-45157000D01*
X33007500Y-45152000D01*
X33011500Y-45147000D01*
X33015500Y-45141000D01*
X33019500Y-45136000D01*
X33024500Y-45132000D01*
X33028500Y-45127000D01*
X33033500Y-45123000D01*
X33039500Y-45119000D01*
X33044500Y-45115000D01*
X33050500Y-45112000D01*
X33055500Y-45109000D01*
X33061500Y-45106000D01*
X33067500Y-45103000D01*
X33073500Y-45101000D01*
X33080500Y-45099000D01*
X33086500Y-45098000D01*
X33092500Y-45097000D01*
X33099500Y-45096000D01*
X33105500Y-45095000D01*
X33112500Y-45095000D01*
X33312500Y-45095000D01*
X33319500Y-45095000D01*
X33325500Y-45096000D01*
G37*
X33825500Y-43266000D02*
X33832500Y-43267000D01*
X33838500Y-43268000D01*
X33844500Y-43269000D01*
X33851500Y-43271000D01*
X33857500Y-43273000D01*
X33863500Y-43276000D01*
X33869500Y-43279000D01*
X33875500Y-43282000D01*
X33880500Y-43285000D01*
X33885500Y-43289000D01*
X33891500Y-43293000D01*
X33896500Y-43297000D01*
X33900500Y-43302000D01*
X33905500Y-43306000D01*
X33909500Y-43311000D01*
X33913500Y-43317000D01*
X33917500Y-43322000D01*
X33920500Y-43327000D01*
X33923500Y-43333000D01*
X33926500Y-43339000D01*
X33929500Y-43345000D01*
X33931500Y-43351000D01*
X33933500Y-43358000D01*
X33934500Y-43364000D01*
X33935500Y-43370000D01*
X33936500Y-43377000D01*
X33937500Y-43383000D01*
X33937500Y-43390000D01*
X33937500Y-43830000D01*
X33937500Y-43837000D01*
X33936500Y-43843000D01*
X33935500Y-43850000D01*
X33934500Y-43856000D01*
X33933500Y-43862000D01*
X33931500Y-43869000D01*
X33929500Y-43875000D01*
X33926500Y-43881000D01*
X33923500Y-43887000D01*
X33920500Y-43893000D01*
X33917500Y-43898000D01*
X33913500Y-43903000D01*
X33909500Y-43909000D01*
X33905500Y-43914000D01*
X33900500Y-43918000D01*
X33896500Y-43923000D01*
X33891500Y-43927000D01*
X33885500Y-43931000D01*
X33880500Y-43935000D01*
X33875500Y-43938000D01*
X33869500Y-43941000D01*
X33863500Y-43944000D01*
X33857500Y-43947000D01*
X33851500Y-43949000D01*
X33844500Y-43951000D01*
X33838500Y-43952000D01*
X33832500Y-43953000D01*
X33825500Y-43954000D01*
X33819500Y-43955000D01*
X33812500Y-43955000D01*
X33612500Y-43955000D01*
X33605500Y-43955000D01*
X33599500Y-43954000D01*
X33592500Y-43953000D01*
X33586500Y-43952000D01*
X33580500Y-43951000D01*
X33573500Y-43949000D01*
X33567500Y-43947000D01*
X33561500Y-43944000D01*
X33555500Y-43941000D01*
X33549500Y-43938000D01*
X33544500Y-43935000D01*
X33539500Y-43931000D01*
X33533500Y-43927000D01*
X33528500Y-43923000D01*
X33524500Y-43918000D01*
X33519500Y-43914000D01*
X33515500Y-43909000D01*
X33511500Y-43903000D01*
X33507500Y-43898000D01*
X33504500Y-43893000D01*
X33501500Y-43887000D01*
X33498500Y-43881000D01*
X33495500Y-43875000D01*
X33493500Y-43869000D01*
X33491500Y-43862000D01*
X33490500Y-43856000D01*
X33489500Y-43850000D01*
X33488500Y-43843000D01*
X33487500Y-43837000D01*
X33487500Y-43830000D01*
X33487500Y-43390000D01*
X33487500Y-43383000D01*
X33488500Y-43377000D01*
X33489500Y-43370000D01*
X33490500Y-43364000D01*
X33491500Y-43358000D01*
X33493500Y-43351000D01*
X33495500Y-43345000D01*
X33498500Y-43339000D01*
X33501500Y-43333000D01*
X33504500Y-43327000D01*
X33507500Y-43322000D01*
X33511500Y-43317000D01*
X33515500Y-43311000D01*
X33519500Y-43306000D01*
X33524500Y-43302000D01*
X33528500Y-43297000D01*
X33533500Y-43293000D01*
X33539500Y-43289000D01*
X33544500Y-43285000D01*
X33550500Y-43282000D01*
X33555500Y-43279000D01*
X33561500Y-43276000D01*
X33567500Y-43273000D01*
X33573500Y-43271000D01*
X33580500Y-43269000D01*
X33586500Y-43268000D01*
X33592500Y-43267000D01*
X33599500Y-43266000D01*
X33605500Y-43265000D01*
X33612500Y-43265000D01*
X33812500Y-43265000D01*
X33819500Y-43265000D01*
X33825500Y-43266000D01*
G36*
X33825500Y-43266000D02*
G01*
X33832500Y-43267000D01*
X33838500Y-43268000D01*
X33844500Y-43269000D01*
X33851500Y-43271000D01*
X33857500Y-43273000D01*
X33863500Y-43276000D01*
X33869500Y-43279000D01*
X33875500Y-43282000D01*
X33880500Y-43285000D01*
X33885500Y-43289000D01*
X33891500Y-43293000D01*
X33896500Y-43297000D01*
X33900500Y-43302000D01*
X33905500Y-43306000D01*
X33909500Y-43311000D01*
X33913500Y-43317000D01*
X33917500Y-43322000D01*
X33920500Y-43327000D01*
X33923500Y-43333000D01*
X33926500Y-43339000D01*
X33929500Y-43345000D01*
X33931500Y-43351000D01*
X33933500Y-43358000D01*
X33934500Y-43364000D01*
X33935500Y-43370000D01*
X33936500Y-43377000D01*
X33937500Y-43383000D01*
X33937500Y-43390000D01*
X33937500Y-43830000D01*
X33937500Y-43837000D01*
X33936500Y-43843000D01*
X33935500Y-43850000D01*
X33934500Y-43856000D01*
X33933500Y-43862000D01*
X33931500Y-43869000D01*
X33929500Y-43875000D01*
X33926500Y-43881000D01*
X33923500Y-43887000D01*
X33920500Y-43893000D01*
X33917500Y-43898000D01*
X33913500Y-43903000D01*
X33909500Y-43909000D01*
X33905500Y-43914000D01*
X33900500Y-43918000D01*
X33896500Y-43923000D01*
X33891500Y-43927000D01*
X33885500Y-43931000D01*
X33880500Y-43935000D01*
X33875500Y-43938000D01*
X33869500Y-43941000D01*
X33863500Y-43944000D01*
X33857500Y-43947000D01*
X33851500Y-43949000D01*
X33844500Y-43951000D01*
X33838500Y-43952000D01*
X33832500Y-43953000D01*
X33825500Y-43954000D01*
X33819500Y-43955000D01*
X33812500Y-43955000D01*
X33612500Y-43955000D01*
X33605500Y-43955000D01*
X33599500Y-43954000D01*
X33592500Y-43953000D01*
X33586500Y-43952000D01*
X33580500Y-43951000D01*
X33573500Y-43949000D01*
X33567500Y-43947000D01*
X33561500Y-43944000D01*
X33555500Y-43941000D01*
X33549500Y-43938000D01*
X33544500Y-43935000D01*
X33539500Y-43931000D01*
X33533500Y-43927000D01*
X33528500Y-43923000D01*
X33524500Y-43918000D01*
X33519500Y-43914000D01*
X33515500Y-43909000D01*
X33511500Y-43903000D01*
X33507500Y-43898000D01*
X33504500Y-43893000D01*
X33501500Y-43887000D01*
X33498500Y-43881000D01*
X33495500Y-43875000D01*
X33493500Y-43869000D01*
X33491500Y-43862000D01*
X33490500Y-43856000D01*
X33489500Y-43850000D01*
X33488500Y-43843000D01*
X33487500Y-43837000D01*
X33487500Y-43830000D01*
X33487500Y-43390000D01*
X33487500Y-43383000D01*
X33488500Y-43377000D01*
X33489500Y-43370000D01*
X33490500Y-43364000D01*
X33491500Y-43358000D01*
X33493500Y-43351000D01*
X33495500Y-43345000D01*
X33498500Y-43339000D01*
X33501500Y-43333000D01*
X33504500Y-43327000D01*
X33507500Y-43322000D01*
X33511500Y-43317000D01*
X33515500Y-43311000D01*
X33519500Y-43306000D01*
X33524500Y-43302000D01*
X33528500Y-43297000D01*
X33533500Y-43293000D01*
X33539500Y-43289000D01*
X33544500Y-43285000D01*
X33550500Y-43282000D01*
X33555500Y-43279000D01*
X33561500Y-43276000D01*
X33567500Y-43273000D01*
X33573500Y-43271000D01*
X33580500Y-43269000D01*
X33586500Y-43268000D01*
X33592500Y-43267000D01*
X33599500Y-43266000D01*
X33605500Y-43265000D01*
X33612500Y-43265000D01*
X33812500Y-43265000D01*
X33819500Y-43265000D01*
X33825500Y-43266000D01*
G37*
X33825500Y-45096000D02*
X33832500Y-45097000D01*
X33838500Y-45098000D01*
X33844500Y-45099000D01*
X33851500Y-45101000D01*
X33857500Y-45103000D01*
X33863500Y-45106000D01*
X33869500Y-45109000D01*
X33875500Y-45112000D01*
X33880500Y-45115000D01*
X33885500Y-45119000D01*
X33891500Y-45123000D01*
X33896500Y-45127000D01*
X33900500Y-45132000D01*
X33905500Y-45136000D01*
X33909500Y-45141000D01*
X33913500Y-45147000D01*
X33917500Y-45152000D01*
X33920500Y-45157000D01*
X33923500Y-45163000D01*
X33926500Y-45169000D01*
X33929500Y-45175000D01*
X33931500Y-45181000D01*
X33933500Y-45188000D01*
X33934500Y-45194000D01*
X33935500Y-45200000D01*
X33936500Y-45207000D01*
X33937500Y-45213000D01*
X33937500Y-45220000D01*
X33937500Y-45660000D01*
X33937500Y-45667000D01*
X33936500Y-45673000D01*
X33935500Y-45680000D01*
X33934500Y-45686000D01*
X33933500Y-45692000D01*
X33931500Y-45699000D01*
X33929500Y-45705000D01*
X33926500Y-45711000D01*
X33923500Y-45717000D01*
X33920500Y-45723000D01*
X33917500Y-45728000D01*
X33913500Y-45733000D01*
X33909500Y-45739000D01*
X33905500Y-45744000D01*
X33900500Y-45748000D01*
X33896500Y-45753000D01*
X33891500Y-45757000D01*
X33885500Y-45761000D01*
X33880500Y-45765000D01*
X33875500Y-45768000D01*
X33869500Y-45771000D01*
X33863500Y-45774000D01*
X33857500Y-45777000D01*
X33851500Y-45779000D01*
X33844500Y-45781000D01*
X33838500Y-45782000D01*
X33832500Y-45783000D01*
X33825500Y-45784000D01*
X33819500Y-45785000D01*
X33812500Y-45785000D01*
X33612500Y-45785000D01*
X33605500Y-45785000D01*
X33599500Y-45784000D01*
X33592500Y-45783000D01*
X33586500Y-45782000D01*
X33580500Y-45781000D01*
X33573500Y-45779000D01*
X33567500Y-45777000D01*
X33561500Y-45774000D01*
X33555500Y-45771000D01*
X33549500Y-45768000D01*
X33544500Y-45765000D01*
X33539500Y-45761000D01*
X33533500Y-45757000D01*
X33528500Y-45753000D01*
X33524500Y-45748000D01*
X33519500Y-45744000D01*
X33515500Y-45739000D01*
X33511500Y-45733000D01*
X33507500Y-45728000D01*
X33504500Y-45723000D01*
X33501500Y-45717000D01*
X33498500Y-45711000D01*
X33495500Y-45705000D01*
X33493500Y-45699000D01*
X33491500Y-45692000D01*
X33490500Y-45686000D01*
X33489500Y-45680000D01*
X33488500Y-45673000D01*
X33487500Y-45667000D01*
X33487500Y-45660000D01*
X33487500Y-45220000D01*
X33487500Y-45213000D01*
X33488500Y-45207000D01*
X33489500Y-45200000D01*
X33490500Y-45194000D01*
X33491500Y-45188000D01*
X33493500Y-45181000D01*
X33495500Y-45175000D01*
X33498500Y-45169000D01*
X33501500Y-45163000D01*
X33504500Y-45157000D01*
X33507500Y-45152000D01*
X33511500Y-45147000D01*
X33515500Y-45141000D01*
X33519500Y-45136000D01*
X33524500Y-45132000D01*
X33528500Y-45127000D01*
X33533500Y-45123000D01*
X33539500Y-45119000D01*
X33544500Y-45115000D01*
X33550500Y-45112000D01*
X33555500Y-45109000D01*
X33561500Y-45106000D01*
X33567500Y-45103000D01*
X33573500Y-45101000D01*
X33580500Y-45099000D01*
X33586500Y-45098000D01*
X33592500Y-45097000D01*
X33599500Y-45096000D01*
X33605500Y-45095000D01*
X33612500Y-45095000D01*
X33812500Y-45095000D01*
X33819500Y-45095000D01*
X33825500Y-45096000D01*
G36*
X33825500Y-45096000D02*
G01*
X33832500Y-45097000D01*
X33838500Y-45098000D01*
X33844500Y-45099000D01*
X33851500Y-45101000D01*
X33857500Y-45103000D01*
X33863500Y-45106000D01*
X33869500Y-45109000D01*
X33875500Y-45112000D01*
X33880500Y-45115000D01*
X33885500Y-45119000D01*
X33891500Y-45123000D01*
X33896500Y-45127000D01*
X33900500Y-45132000D01*
X33905500Y-45136000D01*
X33909500Y-45141000D01*
X33913500Y-45147000D01*
X33917500Y-45152000D01*
X33920500Y-45157000D01*
X33923500Y-45163000D01*
X33926500Y-45169000D01*
X33929500Y-45175000D01*
X33931500Y-45181000D01*
X33933500Y-45188000D01*
X33934500Y-45194000D01*
X33935500Y-45200000D01*
X33936500Y-45207000D01*
X33937500Y-45213000D01*
X33937500Y-45220000D01*
X33937500Y-45660000D01*
X33937500Y-45667000D01*
X33936500Y-45673000D01*
X33935500Y-45680000D01*
X33934500Y-45686000D01*
X33933500Y-45692000D01*
X33931500Y-45699000D01*
X33929500Y-45705000D01*
X33926500Y-45711000D01*
X33923500Y-45717000D01*
X33920500Y-45723000D01*
X33917500Y-45728000D01*
X33913500Y-45733000D01*
X33909500Y-45739000D01*
X33905500Y-45744000D01*
X33900500Y-45748000D01*
X33896500Y-45753000D01*
X33891500Y-45757000D01*
X33885500Y-45761000D01*
X33880500Y-45765000D01*
X33875500Y-45768000D01*
X33869500Y-45771000D01*
X33863500Y-45774000D01*
X33857500Y-45777000D01*
X33851500Y-45779000D01*
X33844500Y-45781000D01*
X33838500Y-45782000D01*
X33832500Y-45783000D01*
X33825500Y-45784000D01*
X33819500Y-45785000D01*
X33812500Y-45785000D01*
X33612500Y-45785000D01*
X33605500Y-45785000D01*
X33599500Y-45784000D01*
X33592500Y-45783000D01*
X33586500Y-45782000D01*
X33580500Y-45781000D01*
X33573500Y-45779000D01*
X33567500Y-45777000D01*
X33561500Y-45774000D01*
X33555500Y-45771000D01*
X33549500Y-45768000D01*
X33544500Y-45765000D01*
X33539500Y-45761000D01*
X33533500Y-45757000D01*
X33528500Y-45753000D01*
X33524500Y-45748000D01*
X33519500Y-45744000D01*
X33515500Y-45739000D01*
X33511500Y-45733000D01*
X33507500Y-45728000D01*
X33504500Y-45723000D01*
X33501500Y-45717000D01*
X33498500Y-45711000D01*
X33495500Y-45705000D01*
X33493500Y-45699000D01*
X33491500Y-45692000D01*
X33490500Y-45686000D01*
X33489500Y-45680000D01*
X33488500Y-45673000D01*
X33487500Y-45667000D01*
X33487500Y-45660000D01*
X33487500Y-45220000D01*
X33487500Y-45213000D01*
X33488500Y-45207000D01*
X33489500Y-45200000D01*
X33490500Y-45194000D01*
X33491500Y-45188000D01*
X33493500Y-45181000D01*
X33495500Y-45175000D01*
X33498500Y-45169000D01*
X33501500Y-45163000D01*
X33504500Y-45157000D01*
X33507500Y-45152000D01*
X33511500Y-45147000D01*
X33515500Y-45141000D01*
X33519500Y-45136000D01*
X33524500Y-45132000D01*
X33528500Y-45127000D01*
X33533500Y-45123000D01*
X33539500Y-45119000D01*
X33544500Y-45115000D01*
X33550500Y-45112000D01*
X33555500Y-45109000D01*
X33561500Y-45106000D01*
X33567500Y-45103000D01*
X33573500Y-45101000D01*
X33580500Y-45099000D01*
X33586500Y-45098000D01*
X33592500Y-45097000D01*
X33599500Y-45096000D01*
X33605500Y-45095000D01*
X33612500Y-45095000D01*
X33812500Y-45095000D01*
X33819500Y-45095000D01*
X33825500Y-45096000D01*
G37*
X34325500Y-43266000D02*
X34332500Y-43267000D01*
X34338500Y-43268000D01*
X34344500Y-43269000D01*
X34351500Y-43271000D01*
X34357500Y-43273000D01*
X34363500Y-43276000D01*
X34369500Y-43279000D01*
X34374500Y-43282000D01*
X34380500Y-43285000D01*
X34385500Y-43289000D01*
X34391500Y-43293000D01*
X34396500Y-43297000D01*
X34400500Y-43302000D01*
X34405500Y-43306000D01*
X34409500Y-43311000D01*
X34413500Y-43317000D01*
X34417500Y-43322000D01*
X34420500Y-43327000D01*
X34423500Y-43333000D01*
X34426500Y-43339000D01*
X34429500Y-43345000D01*
X34431500Y-43351000D01*
X34433500Y-43358000D01*
X34434500Y-43364000D01*
X34435500Y-43370000D01*
X34436500Y-43377000D01*
X34437500Y-43383000D01*
X34437500Y-43390000D01*
X34437500Y-43830000D01*
X34437500Y-43837000D01*
X34436500Y-43843000D01*
X34435500Y-43850000D01*
X34434500Y-43856000D01*
X34433500Y-43862000D01*
X34431500Y-43869000D01*
X34429500Y-43875000D01*
X34426500Y-43881000D01*
X34423500Y-43887000D01*
X34420500Y-43893000D01*
X34417500Y-43898000D01*
X34413500Y-43903000D01*
X34409500Y-43909000D01*
X34405500Y-43914000D01*
X34400500Y-43918000D01*
X34396500Y-43923000D01*
X34391500Y-43927000D01*
X34385500Y-43931000D01*
X34380500Y-43935000D01*
X34374500Y-43938000D01*
X34369500Y-43941000D01*
X34363500Y-43944000D01*
X34357500Y-43947000D01*
X34351500Y-43949000D01*
X34344500Y-43951000D01*
X34338500Y-43952000D01*
X34332500Y-43953000D01*
X34325500Y-43954000D01*
X34319500Y-43955000D01*
X34312500Y-43955000D01*
X34112500Y-43955000D01*
X34105500Y-43955000D01*
X34099500Y-43954000D01*
X34092500Y-43953000D01*
X34086500Y-43952000D01*
X34080500Y-43951000D01*
X34073500Y-43949000D01*
X34067500Y-43947000D01*
X34061500Y-43944000D01*
X34055500Y-43941000D01*
X34049500Y-43938000D01*
X34044500Y-43935000D01*
X34039500Y-43931000D01*
X34033500Y-43927000D01*
X34028500Y-43923000D01*
X34024500Y-43918000D01*
X34019500Y-43914000D01*
X34015500Y-43909000D01*
X34011500Y-43903000D01*
X34007500Y-43898000D01*
X34004500Y-43893000D01*
X34001500Y-43887000D01*
X33998500Y-43881000D01*
X33995500Y-43875000D01*
X33993500Y-43869000D01*
X33991500Y-43862000D01*
X33990500Y-43856000D01*
X33989500Y-43850000D01*
X33988500Y-43843000D01*
X33987500Y-43837000D01*
X33987500Y-43830000D01*
X33987500Y-43390000D01*
X33987500Y-43383000D01*
X33988500Y-43377000D01*
X33989500Y-43370000D01*
X33990500Y-43364000D01*
X33991500Y-43358000D01*
X33993500Y-43351000D01*
X33995500Y-43345000D01*
X33998500Y-43339000D01*
X34001500Y-43333000D01*
X34004500Y-43327000D01*
X34007500Y-43322000D01*
X34011500Y-43317000D01*
X34015500Y-43311000D01*
X34019500Y-43306000D01*
X34024500Y-43302000D01*
X34028500Y-43297000D01*
X34033500Y-43293000D01*
X34039500Y-43289000D01*
X34044500Y-43285000D01*
X34050500Y-43282000D01*
X34055500Y-43279000D01*
X34061500Y-43276000D01*
X34067500Y-43273000D01*
X34073500Y-43271000D01*
X34080500Y-43269000D01*
X34086500Y-43268000D01*
X34092500Y-43267000D01*
X34099500Y-43266000D01*
X34105500Y-43265000D01*
X34112500Y-43265000D01*
X34312500Y-43265000D01*
X34319500Y-43265000D01*
X34325500Y-43266000D01*
G36*
X34325500Y-43266000D02*
G01*
X34332500Y-43267000D01*
X34338500Y-43268000D01*
X34344500Y-43269000D01*
X34351500Y-43271000D01*
X34357500Y-43273000D01*
X34363500Y-43276000D01*
X34369500Y-43279000D01*
X34374500Y-43282000D01*
X34380500Y-43285000D01*
X34385500Y-43289000D01*
X34391500Y-43293000D01*
X34396500Y-43297000D01*
X34400500Y-43302000D01*
X34405500Y-43306000D01*
X34409500Y-43311000D01*
X34413500Y-43317000D01*
X34417500Y-43322000D01*
X34420500Y-43327000D01*
X34423500Y-43333000D01*
X34426500Y-43339000D01*
X34429500Y-43345000D01*
X34431500Y-43351000D01*
X34433500Y-43358000D01*
X34434500Y-43364000D01*
X34435500Y-43370000D01*
X34436500Y-43377000D01*
X34437500Y-43383000D01*
X34437500Y-43390000D01*
X34437500Y-43830000D01*
X34437500Y-43837000D01*
X34436500Y-43843000D01*
X34435500Y-43850000D01*
X34434500Y-43856000D01*
X34433500Y-43862000D01*
X34431500Y-43869000D01*
X34429500Y-43875000D01*
X34426500Y-43881000D01*
X34423500Y-43887000D01*
X34420500Y-43893000D01*
X34417500Y-43898000D01*
X34413500Y-43903000D01*
X34409500Y-43909000D01*
X34405500Y-43914000D01*
X34400500Y-43918000D01*
X34396500Y-43923000D01*
X34391500Y-43927000D01*
X34385500Y-43931000D01*
X34380500Y-43935000D01*
X34374500Y-43938000D01*
X34369500Y-43941000D01*
X34363500Y-43944000D01*
X34357500Y-43947000D01*
X34351500Y-43949000D01*
X34344500Y-43951000D01*
X34338500Y-43952000D01*
X34332500Y-43953000D01*
X34325500Y-43954000D01*
X34319500Y-43955000D01*
X34312500Y-43955000D01*
X34112500Y-43955000D01*
X34105500Y-43955000D01*
X34099500Y-43954000D01*
X34092500Y-43953000D01*
X34086500Y-43952000D01*
X34080500Y-43951000D01*
X34073500Y-43949000D01*
X34067500Y-43947000D01*
X34061500Y-43944000D01*
X34055500Y-43941000D01*
X34049500Y-43938000D01*
X34044500Y-43935000D01*
X34039500Y-43931000D01*
X34033500Y-43927000D01*
X34028500Y-43923000D01*
X34024500Y-43918000D01*
X34019500Y-43914000D01*
X34015500Y-43909000D01*
X34011500Y-43903000D01*
X34007500Y-43898000D01*
X34004500Y-43893000D01*
X34001500Y-43887000D01*
X33998500Y-43881000D01*
X33995500Y-43875000D01*
X33993500Y-43869000D01*
X33991500Y-43862000D01*
X33990500Y-43856000D01*
X33989500Y-43850000D01*
X33988500Y-43843000D01*
X33987500Y-43837000D01*
X33987500Y-43830000D01*
X33987500Y-43390000D01*
X33987500Y-43383000D01*
X33988500Y-43377000D01*
X33989500Y-43370000D01*
X33990500Y-43364000D01*
X33991500Y-43358000D01*
X33993500Y-43351000D01*
X33995500Y-43345000D01*
X33998500Y-43339000D01*
X34001500Y-43333000D01*
X34004500Y-43327000D01*
X34007500Y-43322000D01*
X34011500Y-43317000D01*
X34015500Y-43311000D01*
X34019500Y-43306000D01*
X34024500Y-43302000D01*
X34028500Y-43297000D01*
X34033500Y-43293000D01*
X34039500Y-43289000D01*
X34044500Y-43285000D01*
X34050500Y-43282000D01*
X34055500Y-43279000D01*
X34061500Y-43276000D01*
X34067500Y-43273000D01*
X34073500Y-43271000D01*
X34080500Y-43269000D01*
X34086500Y-43268000D01*
X34092500Y-43267000D01*
X34099500Y-43266000D01*
X34105500Y-43265000D01*
X34112500Y-43265000D01*
X34312500Y-43265000D01*
X34319500Y-43265000D01*
X34325500Y-43266000D01*
G37*
X34325500Y-45096000D02*
X34332500Y-45097000D01*
X34338500Y-45098000D01*
X34344500Y-45099000D01*
X34351500Y-45101000D01*
X34357500Y-45103000D01*
X34363500Y-45106000D01*
X34369500Y-45109000D01*
X34374500Y-45112000D01*
X34380500Y-45115000D01*
X34385500Y-45119000D01*
X34391500Y-45123000D01*
X34396500Y-45127000D01*
X34400500Y-45132000D01*
X34405500Y-45136000D01*
X34409500Y-45141000D01*
X34413500Y-45147000D01*
X34417500Y-45152000D01*
X34420500Y-45157000D01*
X34423500Y-45163000D01*
X34426500Y-45169000D01*
X34429500Y-45175000D01*
X34431500Y-45181000D01*
X34433500Y-45188000D01*
X34434500Y-45194000D01*
X34435500Y-45200000D01*
X34436500Y-45207000D01*
X34437500Y-45213000D01*
X34437500Y-45220000D01*
X34437500Y-45660000D01*
X34437500Y-45667000D01*
X34436500Y-45673000D01*
X34435500Y-45680000D01*
X34434500Y-45686000D01*
X34433500Y-45692000D01*
X34431500Y-45699000D01*
X34429500Y-45705000D01*
X34426500Y-45711000D01*
X34423500Y-45717000D01*
X34420500Y-45723000D01*
X34417500Y-45728000D01*
X34413500Y-45733000D01*
X34409500Y-45739000D01*
X34405500Y-45744000D01*
X34400500Y-45748000D01*
X34396500Y-45753000D01*
X34391500Y-45757000D01*
X34385500Y-45761000D01*
X34380500Y-45765000D01*
X34374500Y-45768000D01*
X34369500Y-45771000D01*
X34363500Y-45774000D01*
X34357500Y-45777000D01*
X34351500Y-45779000D01*
X34344500Y-45781000D01*
X34338500Y-45782000D01*
X34332500Y-45783000D01*
X34325500Y-45784000D01*
X34319500Y-45785000D01*
X34312500Y-45785000D01*
X34112500Y-45785000D01*
X34105500Y-45785000D01*
X34099500Y-45784000D01*
X34092500Y-45783000D01*
X34086500Y-45782000D01*
X34080500Y-45781000D01*
X34073500Y-45779000D01*
X34067500Y-45777000D01*
X34061500Y-45774000D01*
X34055500Y-45771000D01*
X34049500Y-45768000D01*
X34044500Y-45765000D01*
X34039500Y-45761000D01*
X34033500Y-45757000D01*
X34028500Y-45753000D01*
X34024500Y-45748000D01*
X34019500Y-45744000D01*
X34015500Y-45739000D01*
X34011500Y-45733000D01*
X34007500Y-45728000D01*
X34004500Y-45723000D01*
X34001500Y-45717000D01*
X33998500Y-45711000D01*
X33995500Y-45705000D01*
X33993500Y-45699000D01*
X33991500Y-45692000D01*
X33990500Y-45686000D01*
X33989500Y-45680000D01*
X33988500Y-45673000D01*
X33987500Y-45667000D01*
X33987500Y-45660000D01*
X33987500Y-45220000D01*
X33987500Y-45213000D01*
X33988500Y-45207000D01*
X33989500Y-45200000D01*
X33990500Y-45194000D01*
X33991500Y-45188000D01*
X33993500Y-45181000D01*
X33995500Y-45175000D01*
X33998500Y-45169000D01*
X34001500Y-45163000D01*
X34004500Y-45157000D01*
X34007500Y-45152000D01*
X34011500Y-45147000D01*
X34015500Y-45141000D01*
X34019500Y-45136000D01*
X34024500Y-45132000D01*
X34028500Y-45127000D01*
X34033500Y-45123000D01*
X34039500Y-45119000D01*
X34044500Y-45115000D01*
X34050500Y-45112000D01*
X34055500Y-45109000D01*
X34061500Y-45106000D01*
X34067500Y-45103000D01*
X34073500Y-45101000D01*
X34080500Y-45099000D01*
X34086500Y-45098000D01*
X34092500Y-45097000D01*
X34099500Y-45096000D01*
X34105500Y-45095000D01*
X34112500Y-45095000D01*
X34312500Y-45095000D01*
X34319500Y-45095000D01*
X34325500Y-45096000D01*
G36*
X34325500Y-45096000D02*
G01*
X34332500Y-45097000D01*
X34338500Y-45098000D01*
X34344500Y-45099000D01*
X34351500Y-45101000D01*
X34357500Y-45103000D01*
X34363500Y-45106000D01*
X34369500Y-45109000D01*
X34374500Y-45112000D01*
X34380500Y-45115000D01*
X34385500Y-45119000D01*
X34391500Y-45123000D01*
X34396500Y-45127000D01*
X34400500Y-45132000D01*
X34405500Y-45136000D01*
X34409500Y-45141000D01*
X34413500Y-45147000D01*
X34417500Y-45152000D01*
X34420500Y-45157000D01*
X34423500Y-45163000D01*
X34426500Y-45169000D01*
X34429500Y-45175000D01*
X34431500Y-45181000D01*
X34433500Y-45188000D01*
X34434500Y-45194000D01*
X34435500Y-45200000D01*
X34436500Y-45207000D01*
X34437500Y-45213000D01*
X34437500Y-45220000D01*
X34437500Y-45660000D01*
X34437500Y-45667000D01*
X34436500Y-45673000D01*
X34435500Y-45680000D01*
X34434500Y-45686000D01*
X34433500Y-45692000D01*
X34431500Y-45699000D01*
X34429500Y-45705000D01*
X34426500Y-45711000D01*
X34423500Y-45717000D01*
X34420500Y-45723000D01*
X34417500Y-45728000D01*
X34413500Y-45733000D01*
X34409500Y-45739000D01*
X34405500Y-45744000D01*
X34400500Y-45748000D01*
X34396500Y-45753000D01*
X34391500Y-45757000D01*
X34385500Y-45761000D01*
X34380500Y-45765000D01*
X34374500Y-45768000D01*
X34369500Y-45771000D01*
X34363500Y-45774000D01*
X34357500Y-45777000D01*
X34351500Y-45779000D01*
X34344500Y-45781000D01*
X34338500Y-45782000D01*
X34332500Y-45783000D01*
X34325500Y-45784000D01*
X34319500Y-45785000D01*
X34312500Y-45785000D01*
X34112500Y-45785000D01*
X34105500Y-45785000D01*
X34099500Y-45784000D01*
X34092500Y-45783000D01*
X34086500Y-45782000D01*
X34080500Y-45781000D01*
X34073500Y-45779000D01*
X34067500Y-45777000D01*
X34061500Y-45774000D01*
X34055500Y-45771000D01*
X34049500Y-45768000D01*
X34044500Y-45765000D01*
X34039500Y-45761000D01*
X34033500Y-45757000D01*
X34028500Y-45753000D01*
X34024500Y-45748000D01*
X34019500Y-45744000D01*
X34015500Y-45739000D01*
X34011500Y-45733000D01*
X34007500Y-45728000D01*
X34004500Y-45723000D01*
X34001500Y-45717000D01*
X33998500Y-45711000D01*
X33995500Y-45705000D01*
X33993500Y-45699000D01*
X33991500Y-45692000D01*
X33990500Y-45686000D01*
X33989500Y-45680000D01*
X33988500Y-45673000D01*
X33987500Y-45667000D01*
X33987500Y-45660000D01*
X33987500Y-45220000D01*
X33987500Y-45213000D01*
X33988500Y-45207000D01*
X33989500Y-45200000D01*
X33990500Y-45194000D01*
X33991500Y-45188000D01*
X33993500Y-45181000D01*
X33995500Y-45175000D01*
X33998500Y-45169000D01*
X34001500Y-45163000D01*
X34004500Y-45157000D01*
X34007500Y-45152000D01*
X34011500Y-45147000D01*
X34015500Y-45141000D01*
X34019500Y-45136000D01*
X34024500Y-45132000D01*
X34028500Y-45127000D01*
X34033500Y-45123000D01*
X34039500Y-45119000D01*
X34044500Y-45115000D01*
X34050500Y-45112000D01*
X34055500Y-45109000D01*
X34061500Y-45106000D01*
X34067500Y-45103000D01*
X34073500Y-45101000D01*
X34080500Y-45099000D01*
X34086500Y-45098000D01*
X34092500Y-45097000D01*
X34099500Y-45096000D01*
X34105500Y-45095000D01*
X34112500Y-45095000D01*
X34312500Y-45095000D01*
X34319500Y-45095000D01*
X34325500Y-45096000D01*
G37*
X35110500Y-43551000D02*
X35117500Y-43552000D01*
X35123500Y-43553000D01*
X35129500Y-43554000D01*
X35136500Y-43556000D01*
X35142500Y-43558000D01*
X35148500Y-43561000D01*
X35154500Y-43564000D01*
X35160500Y-43567000D01*
X35165500Y-43570000D01*
X35170500Y-43574000D01*
X35176500Y-43578000D01*
X35181500Y-43582000D01*
X35185500Y-43587000D01*
X35190500Y-43591000D01*
X35194500Y-43596000D01*
X35198500Y-43602000D01*
X35202500Y-43607000D01*
X35205500Y-43613000D01*
X35208500Y-43618000D01*
X35211500Y-43624000D01*
X35214500Y-43630000D01*
X35216500Y-43636000D01*
X35218500Y-43643000D01*
X35219500Y-43649000D01*
X35220500Y-43655000D01*
X35221500Y-43662000D01*
X35222500Y-43668000D01*
X35222500Y-43675000D01*
X35222500Y-43875000D01*
X35222500Y-43882000D01*
X35221500Y-43888000D01*
X35220500Y-43895000D01*
X35219500Y-43901000D01*
X35218500Y-43907000D01*
X35216500Y-43914000D01*
X35214500Y-43920000D01*
X35211500Y-43926000D01*
X35208500Y-43932000D01*
X35205500Y-43937000D01*
X35202500Y-43943000D01*
X35198500Y-43948000D01*
X35194500Y-43954000D01*
X35190500Y-43959000D01*
X35185500Y-43963000D01*
X35181500Y-43968000D01*
X35176500Y-43972000D01*
X35170500Y-43976000D01*
X35165500Y-43980000D01*
X35160500Y-43983000D01*
X35154500Y-43986000D01*
X35148500Y-43989000D01*
X35142500Y-43992000D01*
X35136500Y-43994000D01*
X35129500Y-43996000D01*
X35123500Y-43997000D01*
X35117500Y-43998000D01*
X35110500Y-43999000D01*
X35104500Y-44000000D01*
X35097500Y-44000000D01*
X34657500Y-44000000D01*
X34650500Y-44000000D01*
X34644500Y-43999000D01*
X34637500Y-43998000D01*
X34631500Y-43997000D01*
X34625500Y-43996000D01*
X34618500Y-43994000D01*
X34612500Y-43992000D01*
X34606500Y-43989000D01*
X34600500Y-43986000D01*
X34594500Y-43983000D01*
X34589500Y-43980000D01*
X34584500Y-43976000D01*
X34578500Y-43972000D01*
X34573500Y-43968000D01*
X34569500Y-43963000D01*
X34564500Y-43959000D01*
X34560500Y-43954000D01*
X34556500Y-43948000D01*
X34552500Y-43943000D01*
X34549500Y-43937000D01*
X34546500Y-43932000D01*
X34543500Y-43926000D01*
X34540500Y-43920000D01*
X34538500Y-43914000D01*
X34536500Y-43907000D01*
X34535500Y-43901000D01*
X34534500Y-43895000D01*
X34533500Y-43888000D01*
X34532500Y-43882000D01*
X34532500Y-43875000D01*
X34532500Y-43675000D01*
X34532500Y-43668000D01*
X34533500Y-43662000D01*
X34534500Y-43655000D01*
X34535500Y-43649000D01*
X34536500Y-43643000D01*
X34538500Y-43636000D01*
X34540500Y-43630000D01*
X34543500Y-43624000D01*
X34546500Y-43618000D01*
X34549500Y-43613000D01*
X34552500Y-43607000D01*
X34556500Y-43602000D01*
X34560500Y-43596000D01*
X34564500Y-43591000D01*
X34569500Y-43587000D01*
X34573500Y-43582000D01*
X34578500Y-43578000D01*
X34584500Y-43574000D01*
X34589500Y-43570000D01*
X34594500Y-43567000D01*
X34600500Y-43564000D01*
X34606500Y-43561000D01*
X34612500Y-43558000D01*
X34618500Y-43556000D01*
X34625500Y-43554000D01*
X34631500Y-43553000D01*
X34637500Y-43552000D01*
X34644500Y-43551000D01*
X34650500Y-43550000D01*
X34657500Y-43550000D01*
X35097500Y-43550000D01*
X35104500Y-43550000D01*
X35110500Y-43551000D01*
G36*
X35110500Y-43551000D02*
G01*
X35117500Y-43552000D01*
X35123500Y-43553000D01*
X35129500Y-43554000D01*
X35136500Y-43556000D01*
X35142500Y-43558000D01*
X35148500Y-43561000D01*
X35154500Y-43564000D01*
X35160500Y-43567000D01*
X35165500Y-43570000D01*
X35170500Y-43574000D01*
X35176500Y-43578000D01*
X35181500Y-43582000D01*
X35185500Y-43587000D01*
X35190500Y-43591000D01*
X35194500Y-43596000D01*
X35198500Y-43602000D01*
X35202500Y-43607000D01*
X35205500Y-43613000D01*
X35208500Y-43618000D01*
X35211500Y-43624000D01*
X35214500Y-43630000D01*
X35216500Y-43636000D01*
X35218500Y-43643000D01*
X35219500Y-43649000D01*
X35220500Y-43655000D01*
X35221500Y-43662000D01*
X35222500Y-43668000D01*
X35222500Y-43675000D01*
X35222500Y-43875000D01*
X35222500Y-43882000D01*
X35221500Y-43888000D01*
X35220500Y-43895000D01*
X35219500Y-43901000D01*
X35218500Y-43907000D01*
X35216500Y-43914000D01*
X35214500Y-43920000D01*
X35211500Y-43926000D01*
X35208500Y-43932000D01*
X35205500Y-43937000D01*
X35202500Y-43943000D01*
X35198500Y-43948000D01*
X35194500Y-43954000D01*
X35190500Y-43959000D01*
X35185500Y-43963000D01*
X35181500Y-43968000D01*
X35176500Y-43972000D01*
X35170500Y-43976000D01*
X35165500Y-43980000D01*
X35160500Y-43983000D01*
X35154500Y-43986000D01*
X35148500Y-43989000D01*
X35142500Y-43992000D01*
X35136500Y-43994000D01*
X35129500Y-43996000D01*
X35123500Y-43997000D01*
X35117500Y-43998000D01*
X35110500Y-43999000D01*
X35104500Y-44000000D01*
X35097500Y-44000000D01*
X34657500Y-44000000D01*
X34650500Y-44000000D01*
X34644500Y-43999000D01*
X34637500Y-43998000D01*
X34631500Y-43997000D01*
X34625500Y-43996000D01*
X34618500Y-43994000D01*
X34612500Y-43992000D01*
X34606500Y-43989000D01*
X34600500Y-43986000D01*
X34594500Y-43983000D01*
X34589500Y-43980000D01*
X34584500Y-43976000D01*
X34578500Y-43972000D01*
X34573500Y-43968000D01*
X34569500Y-43963000D01*
X34564500Y-43959000D01*
X34560500Y-43954000D01*
X34556500Y-43948000D01*
X34552500Y-43943000D01*
X34549500Y-43937000D01*
X34546500Y-43932000D01*
X34543500Y-43926000D01*
X34540500Y-43920000D01*
X34538500Y-43914000D01*
X34536500Y-43907000D01*
X34535500Y-43901000D01*
X34534500Y-43895000D01*
X34533500Y-43888000D01*
X34532500Y-43882000D01*
X34532500Y-43875000D01*
X34532500Y-43675000D01*
X34532500Y-43668000D01*
X34533500Y-43662000D01*
X34534500Y-43655000D01*
X34535500Y-43649000D01*
X34536500Y-43643000D01*
X34538500Y-43636000D01*
X34540500Y-43630000D01*
X34543500Y-43624000D01*
X34546500Y-43618000D01*
X34549500Y-43613000D01*
X34552500Y-43607000D01*
X34556500Y-43602000D01*
X34560500Y-43596000D01*
X34564500Y-43591000D01*
X34569500Y-43587000D01*
X34573500Y-43582000D01*
X34578500Y-43578000D01*
X34584500Y-43574000D01*
X34589500Y-43570000D01*
X34594500Y-43567000D01*
X34600500Y-43564000D01*
X34606500Y-43561000D01*
X34612500Y-43558000D01*
X34618500Y-43556000D01*
X34625500Y-43554000D01*
X34631500Y-43553000D01*
X34637500Y-43552000D01*
X34644500Y-43551000D01*
X34650500Y-43550000D01*
X34657500Y-43550000D01*
X35097500Y-43550000D01*
X35104500Y-43550000D01*
X35110500Y-43551000D01*
G37*
X35110500Y-44051000D02*
X35117500Y-44052000D01*
X35123500Y-44053000D01*
X35129500Y-44054000D01*
X35136500Y-44056000D01*
X35142500Y-44058000D01*
X35148500Y-44061000D01*
X35154500Y-44064000D01*
X35160500Y-44067000D01*
X35165500Y-44070000D01*
X35170500Y-44074000D01*
X35176500Y-44078000D01*
X35181500Y-44082000D01*
X35185500Y-44087000D01*
X35190500Y-44091000D01*
X35194500Y-44096000D01*
X35198500Y-44102000D01*
X35202500Y-44107000D01*
X35205500Y-44113000D01*
X35208500Y-44118000D01*
X35211500Y-44124000D01*
X35214500Y-44130000D01*
X35216500Y-44136000D01*
X35218500Y-44143000D01*
X35219500Y-44149000D01*
X35220500Y-44155000D01*
X35221500Y-44162000D01*
X35222500Y-44168000D01*
X35222500Y-44175000D01*
X35222500Y-44375000D01*
X35222500Y-44382000D01*
X35221500Y-44388000D01*
X35220500Y-44395000D01*
X35219500Y-44401000D01*
X35218500Y-44407000D01*
X35216500Y-44414000D01*
X35214500Y-44420000D01*
X35211500Y-44426000D01*
X35208500Y-44432000D01*
X35205500Y-44437000D01*
X35202500Y-44443000D01*
X35198500Y-44448000D01*
X35194500Y-44454000D01*
X35190500Y-44459000D01*
X35185500Y-44463000D01*
X35181500Y-44468000D01*
X35176500Y-44472000D01*
X35170500Y-44476000D01*
X35165500Y-44480000D01*
X35160500Y-44483000D01*
X35154500Y-44486000D01*
X35148500Y-44489000D01*
X35142500Y-44492000D01*
X35136500Y-44494000D01*
X35129500Y-44496000D01*
X35123500Y-44497000D01*
X35117500Y-44498000D01*
X35110500Y-44499000D01*
X35104500Y-44500000D01*
X35097500Y-44500000D01*
X34657500Y-44500000D01*
X34650500Y-44500000D01*
X34644500Y-44499000D01*
X34637500Y-44498000D01*
X34631500Y-44497000D01*
X34625500Y-44496000D01*
X34618500Y-44494000D01*
X34612500Y-44492000D01*
X34606500Y-44489000D01*
X34600500Y-44486000D01*
X34594500Y-44483000D01*
X34589500Y-44480000D01*
X34584500Y-44476000D01*
X34578500Y-44472000D01*
X34573500Y-44468000D01*
X34569500Y-44463000D01*
X34564500Y-44459000D01*
X34560500Y-44454000D01*
X34556500Y-44448000D01*
X34552500Y-44443000D01*
X34549500Y-44437000D01*
X34546500Y-44432000D01*
X34543500Y-44426000D01*
X34540500Y-44420000D01*
X34538500Y-44414000D01*
X34536500Y-44407000D01*
X34535500Y-44401000D01*
X34534500Y-44395000D01*
X34533500Y-44388000D01*
X34532500Y-44382000D01*
X34532500Y-44375000D01*
X34532500Y-44175000D01*
X34532500Y-44168000D01*
X34533500Y-44162000D01*
X34534500Y-44155000D01*
X34535500Y-44149000D01*
X34536500Y-44143000D01*
X34538500Y-44136000D01*
X34540500Y-44130000D01*
X34543500Y-44124000D01*
X34546500Y-44118000D01*
X34549500Y-44113000D01*
X34552500Y-44107000D01*
X34556500Y-44102000D01*
X34560500Y-44096000D01*
X34564500Y-44091000D01*
X34569500Y-44087000D01*
X34573500Y-44082000D01*
X34578500Y-44078000D01*
X34584500Y-44074000D01*
X34589500Y-44070000D01*
X34594500Y-44067000D01*
X34600500Y-44064000D01*
X34606500Y-44061000D01*
X34612500Y-44058000D01*
X34618500Y-44056000D01*
X34625500Y-44054000D01*
X34631500Y-44053000D01*
X34637500Y-44052000D01*
X34644500Y-44051000D01*
X34650500Y-44050000D01*
X34657500Y-44050000D01*
X35097500Y-44050000D01*
X35104500Y-44050000D01*
X35110500Y-44051000D01*
G36*
X35110500Y-44051000D02*
G01*
X35117500Y-44052000D01*
X35123500Y-44053000D01*
X35129500Y-44054000D01*
X35136500Y-44056000D01*
X35142500Y-44058000D01*
X35148500Y-44061000D01*
X35154500Y-44064000D01*
X35160500Y-44067000D01*
X35165500Y-44070000D01*
X35170500Y-44074000D01*
X35176500Y-44078000D01*
X35181500Y-44082000D01*
X35185500Y-44087000D01*
X35190500Y-44091000D01*
X35194500Y-44096000D01*
X35198500Y-44102000D01*
X35202500Y-44107000D01*
X35205500Y-44113000D01*
X35208500Y-44118000D01*
X35211500Y-44124000D01*
X35214500Y-44130000D01*
X35216500Y-44136000D01*
X35218500Y-44143000D01*
X35219500Y-44149000D01*
X35220500Y-44155000D01*
X35221500Y-44162000D01*
X35222500Y-44168000D01*
X35222500Y-44175000D01*
X35222500Y-44375000D01*
X35222500Y-44382000D01*
X35221500Y-44388000D01*
X35220500Y-44395000D01*
X35219500Y-44401000D01*
X35218500Y-44407000D01*
X35216500Y-44414000D01*
X35214500Y-44420000D01*
X35211500Y-44426000D01*
X35208500Y-44432000D01*
X35205500Y-44437000D01*
X35202500Y-44443000D01*
X35198500Y-44448000D01*
X35194500Y-44454000D01*
X35190500Y-44459000D01*
X35185500Y-44463000D01*
X35181500Y-44468000D01*
X35176500Y-44472000D01*
X35170500Y-44476000D01*
X35165500Y-44480000D01*
X35160500Y-44483000D01*
X35154500Y-44486000D01*
X35148500Y-44489000D01*
X35142500Y-44492000D01*
X35136500Y-44494000D01*
X35129500Y-44496000D01*
X35123500Y-44497000D01*
X35117500Y-44498000D01*
X35110500Y-44499000D01*
X35104500Y-44500000D01*
X35097500Y-44500000D01*
X34657500Y-44500000D01*
X34650500Y-44500000D01*
X34644500Y-44499000D01*
X34637500Y-44498000D01*
X34631500Y-44497000D01*
X34625500Y-44496000D01*
X34618500Y-44494000D01*
X34612500Y-44492000D01*
X34606500Y-44489000D01*
X34600500Y-44486000D01*
X34594500Y-44483000D01*
X34589500Y-44480000D01*
X34584500Y-44476000D01*
X34578500Y-44472000D01*
X34573500Y-44468000D01*
X34569500Y-44463000D01*
X34564500Y-44459000D01*
X34560500Y-44454000D01*
X34556500Y-44448000D01*
X34552500Y-44443000D01*
X34549500Y-44437000D01*
X34546500Y-44432000D01*
X34543500Y-44426000D01*
X34540500Y-44420000D01*
X34538500Y-44414000D01*
X34536500Y-44407000D01*
X34535500Y-44401000D01*
X34534500Y-44395000D01*
X34533500Y-44388000D01*
X34532500Y-44382000D01*
X34532500Y-44375000D01*
X34532500Y-44175000D01*
X34532500Y-44168000D01*
X34533500Y-44162000D01*
X34534500Y-44155000D01*
X34535500Y-44149000D01*
X34536500Y-44143000D01*
X34538500Y-44136000D01*
X34540500Y-44130000D01*
X34543500Y-44124000D01*
X34546500Y-44118000D01*
X34549500Y-44113000D01*
X34552500Y-44107000D01*
X34556500Y-44102000D01*
X34560500Y-44096000D01*
X34564500Y-44091000D01*
X34569500Y-44087000D01*
X34573500Y-44082000D01*
X34578500Y-44078000D01*
X34584500Y-44074000D01*
X34589500Y-44070000D01*
X34594500Y-44067000D01*
X34600500Y-44064000D01*
X34606500Y-44061000D01*
X34612500Y-44058000D01*
X34618500Y-44056000D01*
X34625500Y-44054000D01*
X34631500Y-44053000D01*
X34637500Y-44052000D01*
X34644500Y-44051000D01*
X34650500Y-44050000D01*
X34657500Y-44050000D01*
X35097500Y-44050000D01*
X35104500Y-44050000D01*
X35110500Y-44051000D01*
G37*
X35110500Y-44551000D02*
X35117500Y-44552000D01*
X35123500Y-44553000D01*
X35129500Y-44554000D01*
X35136500Y-44556000D01*
X35142500Y-44558000D01*
X35148500Y-44561000D01*
X35154500Y-44564000D01*
X35160500Y-44567000D01*
X35165500Y-44570000D01*
X35170500Y-44574000D01*
X35176500Y-44578000D01*
X35181500Y-44582000D01*
X35185500Y-44587000D01*
X35190500Y-44591000D01*
X35194500Y-44596000D01*
X35198500Y-44602000D01*
X35202500Y-44607000D01*
X35205500Y-44613000D01*
X35208500Y-44618000D01*
X35211500Y-44624000D01*
X35214500Y-44630000D01*
X35216500Y-44636000D01*
X35218500Y-44643000D01*
X35219500Y-44649000D01*
X35220500Y-44655000D01*
X35221500Y-44662000D01*
X35222500Y-44668000D01*
X35222500Y-44675000D01*
X35222500Y-44875000D01*
X35222500Y-44882000D01*
X35221500Y-44888000D01*
X35220500Y-44895000D01*
X35219500Y-44901000D01*
X35218500Y-44907000D01*
X35216500Y-44914000D01*
X35214500Y-44920000D01*
X35211500Y-44926000D01*
X35208500Y-44932000D01*
X35205500Y-44937000D01*
X35202500Y-44943000D01*
X35198500Y-44948000D01*
X35194500Y-44954000D01*
X35190500Y-44959000D01*
X35185500Y-44963000D01*
X35181500Y-44968000D01*
X35176500Y-44972000D01*
X35170500Y-44976000D01*
X35165500Y-44980000D01*
X35160500Y-44983000D01*
X35154500Y-44986000D01*
X35148500Y-44989000D01*
X35142500Y-44992000D01*
X35136500Y-44994000D01*
X35129500Y-44996000D01*
X35123500Y-44997000D01*
X35117500Y-44998000D01*
X35110500Y-44999000D01*
X35104500Y-45000000D01*
X35097500Y-45000000D01*
X34657500Y-45000000D01*
X34650500Y-45000000D01*
X34644500Y-44999000D01*
X34637500Y-44998000D01*
X34631500Y-44997000D01*
X34625500Y-44996000D01*
X34618500Y-44994000D01*
X34612500Y-44992000D01*
X34606500Y-44989000D01*
X34600500Y-44986000D01*
X34594500Y-44983000D01*
X34589500Y-44980000D01*
X34584500Y-44976000D01*
X34578500Y-44972000D01*
X34573500Y-44968000D01*
X34569500Y-44963000D01*
X34564500Y-44959000D01*
X34560500Y-44954000D01*
X34556500Y-44948000D01*
X34552500Y-44943000D01*
X34549500Y-44937000D01*
X34546500Y-44932000D01*
X34543500Y-44926000D01*
X34540500Y-44920000D01*
X34538500Y-44914000D01*
X34536500Y-44907000D01*
X34535500Y-44901000D01*
X34534500Y-44895000D01*
X34533500Y-44888000D01*
X34532500Y-44882000D01*
X34532500Y-44875000D01*
X34532500Y-44675000D01*
X34532500Y-44668000D01*
X34533500Y-44662000D01*
X34534500Y-44655000D01*
X34535500Y-44649000D01*
X34536500Y-44643000D01*
X34538500Y-44636000D01*
X34540500Y-44630000D01*
X34543500Y-44624000D01*
X34546500Y-44618000D01*
X34549500Y-44613000D01*
X34552500Y-44607000D01*
X34556500Y-44602000D01*
X34560500Y-44596000D01*
X34564500Y-44591000D01*
X34569500Y-44587000D01*
X34573500Y-44582000D01*
X34578500Y-44578000D01*
X34584500Y-44574000D01*
X34589500Y-44570000D01*
X34594500Y-44567000D01*
X34600500Y-44564000D01*
X34606500Y-44561000D01*
X34612500Y-44558000D01*
X34618500Y-44556000D01*
X34625500Y-44554000D01*
X34631500Y-44553000D01*
X34637500Y-44552000D01*
X34644500Y-44551000D01*
X34650500Y-44550000D01*
X34657500Y-44550000D01*
X35097500Y-44550000D01*
X35104500Y-44550000D01*
X35110500Y-44551000D01*
G36*
X35110500Y-44551000D02*
G01*
X35117500Y-44552000D01*
X35123500Y-44553000D01*
X35129500Y-44554000D01*
X35136500Y-44556000D01*
X35142500Y-44558000D01*
X35148500Y-44561000D01*
X35154500Y-44564000D01*
X35160500Y-44567000D01*
X35165500Y-44570000D01*
X35170500Y-44574000D01*
X35176500Y-44578000D01*
X35181500Y-44582000D01*
X35185500Y-44587000D01*
X35190500Y-44591000D01*
X35194500Y-44596000D01*
X35198500Y-44602000D01*
X35202500Y-44607000D01*
X35205500Y-44613000D01*
X35208500Y-44618000D01*
X35211500Y-44624000D01*
X35214500Y-44630000D01*
X35216500Y-44636000D01*
X35218500Y-44643000D01*
X35219500Y-44649000D01*
X35220500Y-44655000D01*
X35221500Y-44662000D01*
X35222500Y-44668000D01*
X35222500Y-44675000D01*
X35222500Y-44875000D01*
X35222500Y-44882000D01*
X35221500Y-44888000D01*
X35220500Y-44895000D01*
X35219500Y-44901000D01*
X35218500Y-44907000D01*
X35216500Y-44914000D01*
X35214500Y-44920000D01*
X35211500Y-44926000D01*
X35208500Y-44932000D01*
X35205500Y-44937000D01*
X35202500Y-44943000D01*
X35198500Y-44948000D01*
X35194500Y-44954000D01*
X35190500Y-44959000D01*
X35185500Y-44963000D01*
X35181500Y-44968000D01*
X35176500Y-44972000D01*
X35170500Y-44976000D01*
X35165500Y-44980000D01*
X35160500Y-44983000D01*
X35154500Y-44986000D01*
X35148500Y-44989000D01*
X35142500Y-44992000D01*
X35136500Y-44994000D01*
X35129500Y-44996000D01*
X35123500Y-44997000D01*
X35117500Y-44998000D01*
X35110500Y-44999000D01*
X35104500Y-45000000D01*
X35097500Y-45000000D01*
X34657500Y-45000000D01*
X34650500Y-45000000D01*
X34644500Y-44999000D01*
X34637500Y-44998000D01*
X34631500Y-44997000D01*
X34625500Y-44996000D01*
X34618500Y-44994000D01*
X34612500Y-44992000D01*
X34606500Y-44989000D01*
X34600500Y-44986000D01*
X34594500Y-44983000D01*
X34589500Y-44980000D01*
X34584500Y-44976000D01*
X34578500Y-44972000D01*
X34573500Y-44968000D01*
X34569500Y-44963000D01*
X34564500Y-44959000D01*
X34560500Y-44954000D01*
X34556500Y-44948000D01*
X34552500Y-44943000D01*
X34549500Y-44937000D01*
X34546500Y-44932000D01*
X34543500Y-44926000D01*
X34540500Y-44920000D01*
X34538500Y-44914000D01*
X34536500Y-44907000D01*
X34535500Y-44901000D01*
X34534500Y-44895000D01*
X34533500Y-44888000D01*
X34532500Y-44882000D01*
X34532500Y-44875000D01*
X34532500Y-44675000D01*
X34532500Y-44668000D01*
X34533500Y-44662000D01*
X34534500Y-44655000D01*
X34535500Y-44649000D01*
X34536500Y-44643000D01*
X34538500Y-44636000D01*
X34540500Y-44630000D01*
X34543500Y-44624000D01*
X34546500Y-44618000D01*
X34549500Y-44613000D01*
X34552500Y-44607000D01*
X34556500Y-44602000D01*
X34560500Y-44596000D01*
X34564500Y-44591000D01*
X34569500Y-44587000D01*
X34573500Y-44582000D01*
X34578500Y-44578000D01*
X34584500Y-44574000D01*
X34589500Y-44570000D01*
X34594500Y-44567000D01*
X34600500Y-44564000D01*
X34606500Y-44561000D01*
X34612500Y-44558000D01*
X34618500Y-44556000D01*
X34625500Y-44554000D01*
X34631500Y-44553000D01*
X34637500Y-44552000D01*
X34644500Y-44551000D01*
X34650500Y-44550000D01*
X34657500Y-44550000D01*
X35097500Y-44550000D01*
X35104500Y-44550000D01*
X35110500Y-44551000D01*
G37*
X35110500Y-45051000D02*
X35117500Y-45052000D01*
X35123500Y-45053000D01*
X35129500Y-45054000D01*
X35136500Y-45056000D01*
X35142500Y-45058000D01*
X35148500Y-45061000D01*
X35154500Y-45064000D01*
X35160500Y-45067000D01*
X35165500Y-45070000D01*
X35170500Y-45074000D01*
X35176500Y-45078000D01*
X35181500Y-45082000D01*
X35185500Y-45087000D01*
X35190500Y-45091000D01*
X35194500Y-45096000D01*
X35198500Y-45102000D01*
X35202500Y-45107000D01*
X35205500Y-45113000D01*
X35208500Y-45118000D01*
X35211500Y-45124000D01*
X35214500Y-45130000D01*
X35216500Y-45136000D01*
X35218500Y-45143000D01*
X35219500Y-45149000D01*
X35220500Y-45155000D01*
X35221500Y-45162000D01*
X35222500Y-45168000D01*
X35222500Y-45175000D01*
X35222500Y-45375000D01*
X35222500Y-45382000D01*
X35221500Y-45388000D01*
X35220500Y-45395000D01*
X35219500Y-45401000D01*
X35218500Y-45407000D01*
X35216500Y-45414000D01*
X35214500Y-45420000D01*
X35211500Y-45426000D01*
X35208500Y-45432000D01*
X35205500Y-45437000D01*
X35202500Y-45443000D01*
X35198500Y-45448000D01*
X35194500Y-45454000D01*
X35190500Y-45459000D01*
X35185500Y-45463000D01*
X35181500Y-45468000D01*
X35176500Y-45472000D01*
X35170500Y-45476000D01*
X35165500Y-45480000D01*
X35160500Y-45483000D01*
X35154500Y-45486000D01*
X35148500Y-45489000D01*
X35142500Y-45492000D01*
X35136500Y-45494000D01*
X35129500Y-45496000D01*
X35123500Y-45497000D01*
X35117500Y-45498000D01*
X35110500Y-45499000D01*
X35104500Y-45500000D01*
X35097500Y-45500000D01*
X34657500Y-45500000D01*
X34650500Y-45500000D01*
X34644500Y-45499000D01*
X34637500Y-45498000D01*
X34631500Y-45497000D01*
X34625500Y-45496000D01*
X34618500Y-45494000D01*
X34612500Y-45492000D01*
X34606500Y-45489000D01*
X34600500Y-45486000D01*
X34594500Y-45483000D01*
X34589500Y-45480000D01*
X34584500Y-45476000D01*
X34578500Y-45472000D01*
X34573500Y-45468000D01*
X34569500Y-45463000D01*
X34564500Y-45459000D01*
X34560500Y-45454000D01*
X34556500Y-45448000D01*
X34552500Y-45443000D01*
X34549500Y-45437000D01*
X34546500Y-45432000D01*
X34543500Y-45426000D01*
X34540500Y-45420000D01*
X34538500Y-45414000D01*
X34536500Y-45407000D01*
X34535500Y-45401000D01*
X34534500Y-45395000D01*
X34533500Y-45388000D01*
X34532500Y-45382000D01*
X34532500Y-45375000D01*
X34532500Y-45175000D01*
X34532500Y-45168000D01*
X34533500Y-45162000D01*
X34534500Y-45155000D01*
X34535500Y-45149000D01*
X34536500Y-45143000D01*
X34538500Y-45136000D01*
X34540500Y-45130000D01*
X34543500Y-45124000D01*
X34546500Y-45118000D01*
X34549500Y-45113000D01*
X34552500Y-45107000D01*
X34556500Y-45102000D01*
X34560500Y-45096000D01*
X34564500Y-45091000D01*
X34569500Y-45087000D01*
X34573500Y-45082000D01*
X34578500Y-45078000D01*
X34584500Y-45074000D01*
X34589500Y-45070000D01*
X34594500Y-45067000D01*
X34600500Y-45064000D01*
X34606500Y-45061000D01*
X34612500Y-45058000D01*
X34618500Y-45056000D01*
X34625500Y-45054000D01*
X34631500Y-45053000D01*
X34637500Y-45052000D01*
X34644500Y-45051000D01*
X34650500Y-45050000D01*
X34657500Y-45050000D01*
X35097500Y-45050000D01*
X35104500Y-45050000D01*
X35110500Y-45051000D01*
G36*
X35110500Y-45051000D02*
G01*
X35117500Y-45052000D01*
X35123500Y-45053000D01*
X35129500Y-45054000D01*
X35136500Y-45056000D01*
X35142500Y-45058000D01*
X35148500Y-45061000D01*
X35154500Y-45064000D01*
X35160500Y-45067000D01*
X35165500Y-45070000D01*
X35170500Y-45074000D01*
X35176500Y-45078000D01*
X35181500Y-45082000D01*
X35185500Y-45087000D01*
X35190500Y-45091000D01*
X35194500Y-45096000D01*
X35198500Y-45102000D01*
X35202500Y-45107000D01*
X35205500Y-45113000D01*
X35208500Y-45118000D01*
X35211500Y-45124000D01*
X35214500Y-45130000D01*
X35216500Y-45136000D01*
X35218500Y-45143000D01*
X35219500Y-45149000D01*
X35220500Y-45155000D01*
X35221500Y-45162000D01*
X35222500Y-45168000D01*
X35222500Y-45175000D01*
X35222500Y-45375000D01*
X35222500Y-45382000D01*
X35221500Y-45388000D01*
X35220500Y-45395000D01*
X35219500Y-45401000D01*
X35218500Y-45407000D01*
X35216500Y-45414000D01*
X35214500Y-45420000D01*
X35211500Y-45426000D01*
X35208500Y-45432000D01*
X35205500Y-45437000D01*
X35202500Y-45443000D01*
X35198500Y-45448000D01*
X35194500Y-45454000D01*
X35190500Y-45459000D01*
X35185500Y-45463000D01*
X35181500Y-45468000D01*
X35176500Y-45472000D01*
X35170500Y-45476000D01*
X35165500Y-45480000D01*
X35160500Y-45483000D01*
X35154500Y-45486000D01*
X35148500Y-45489000D01*
X35142500Y-45492000D01*
X35136500Y-45494000D01*
X35129500Y-45496000D01*
X35123500Y-45497000D01*
X35117500Y-45498000D01*
X35110500Y-45499000D01*
X35104500Y-45500000D01*
X35097500Y-45500000D01*
X34657500Y-45500000D01*
X34650500Y-45500000D01*
X34644500Y-45499000D01*
X34637500Y-45498000D01*
X34631500Y-45497000D01*
X34625500Y-45496000D01*
X34618500Y-45494000D01*
X34612500Y-45492000D01*
X34606500Y-45489000D01*
X34600500Y-45486000D01*
X34594500Y-45483000D01*
X34589500Y-45480000D01*
X34584500Y-45476000D01*
X34578500Y-45472000D01*
X34573500Y-45468000D01*
X34569500Y-45463000D01*
X34564500Y-45459000D01*
X34560500Y-45454000D01*
X34556500Y-45448000D01*
X34552500Y-45443000D01*
X34549500Y-45437000D01*
X34546500Y-45432000D01*
X34543500Y-45426000D01*
X34540500Y-45420000D01*
X34538500Y-45414000D01*
X34536500Y-45407000D01*
X34535500Y-45401000D01*
X34534500Y-45395000D01*
X34533500Y-45388000D01*
X34532500Y-45382000D01*
X34532500Y-45375000D01*
X34532500Y-45175000D01*
X34532500Y-45168000D01*
X34533500Y-45162000D01*
X34534500Y-45155000D01*
X34535500Y-45149000D01*
X34536500Y-45143000D01*
X34538500Y-45136000D01*
X34540500Y-45130000D01*
X34543500Y-45124000D01*
X34546500Y-45118000D01*
X34549500Y-45113000D01*
X34552500Y-45107000D01*
X34556500Y-45102000D01*
X34560500Y-45096000D01*
X34564500Y-45091000D01*
X34569500Y-45087000D01*
X34573500Y-45082000D01*
X34578500Y-45078000D01*
X34584500Y-45074000D01*
X34589500Y-45070000D01*
X34594500Y-45067000D01*
X34600500Y-45064000D01*
X34606500Y-45061000D01*
X34612500Y-45058000D01*
X34618500Y-45056000D01*
X34625500Y-45054000D01*
X34631500Y-45053000D01*
X34637500Y-45052000D01*
X34644500Y-45051000D01*
X34650500Y-45050000D01*
X34657500Y-45050000D01*
X35097500Y-45050000D01*
X35104500Y-45050000D01*
X35110500Y-45051000D01*
G37*
%TO.C,U1*%
D17*
X47910004Y-25510000D02*
X110870004Y-25510000D01*
X47910004Y-45290000D02*
X47910004Y-25510000D01*
X48910004Y-26510000D02*
X48910004Y-44290000D01*
D10*
X48910004Y-26510000D02*
X48910004Y-44290000D01*
D17*
X48910004Y-44290000D02*
X109870004Y-44290000D01*
D10*
X48910004Y-44290000D02*
X109870004Y-44290000D01*
D21*
X55260004Y-44920000D02*
X55260003Y-44920000D01*
X55260003Y-44920000D01*
X55260003Y-44920000D01*
X55260003Y-44920000D01*
X55260003Y-44920000D01*
X55260003Y-44920000D01*
X55260003Y-44920000D01*
X55260003Y-44919999D01*
X55260003Y-44919999D01*
X55260003Y-44919999D01*
X55260003Y-44919999D01*
X55260003Y-44919999D01*
X55260004Y-44919999D01*
X55260004Y-44919999D01*
X55260004Y-44919999D01*
X55260004Y-44919999D01*
X55260004Y-44919999D01*
X55260004Y-44919999D01*
X55260004Y-44919999D01*
X55260004Y-44919999D01*
X55260004Y-44919999D01*
X55260004Y-44919999D01*
X55260004Y-44919999D01*
X55260004Y-44919999D01*
X55260005Y-44919999D01*
X55260005Y-44919999D01*
X55260005Y-44919999D01*
X55260005Y-44919999D01*
X55260005Y-44919999D01*
X55260005Y-44919999D01*
X55260005Y-44920000D01*
X55260005Y-44920000D01*
X55260005Y-44920000D01*
X55260005Y-44920000D01*
X55260005Y-44920000D01*
X55260005Y-44920000D01*
X55260005Y-44920000D01*
X55260004Y-44920000D01*
X55260004Y-44920000D02*
X55260005Y-44920000D01*
X55260005Y-44920000D01*
X55260005Y-44920000D01*
X55260005Y-44920000D01*
X55260005Y-44920000D01*
X55260005Y-44920000D01*
X55260005Y-44920001D01*
X55260005Y-44920001D01*
X55260005Y-44920001D01*
X55260005Y-44920001D01*
X55260005Y-44920001D01*
X55260005Y-44920001D01*
X55260005Y-44920001D01*
X55260004Y-44920001D01*
X55260004Y-44920001D01*
X55260004Y-44920001D01*
X55260004Y-44920001D01*
X55260004Y-44920001D01*
X55260004Y-44920001D01*
X55260004Y-44920001D01*
X55260004Y-44920001D01*
X55260004Y-44920001D01*
X55260004Y-44920001D01*
X55260004Y-44920001D01*
X55260004Y-44920001D01*
X55260003Y-44920001D01*
X55260003Y-44920001D01*
X55260003Y-44920001D01*
X55260003Y-44920001D01*
X55260003Y-44920001D01*
X55260003Y-44920001D01*
X55260003Y-44920000D01*
X55260003Y-44920000D01*
X55260003Y-44920000D01*
X55260003Y-44920000D01*
X55260003Y-44920000D01*
X55260003Y-44920000D01*
X55260004Y-44920000D01*
D10*
D21*
X55260004Y-44920000D02*
X55260003Y-44920000D01*
X55260003Y-44920000D01*
X55260003Y-44920000D01*
X55260003Y-44920000D01*
X55260003Y-44920000D01*
X55260003Y-44920000D01*
X55260003Y-44920000D01*
X55260003Y-44919999D01*
X55260003Y-44919999D01*
X55260003Y-44919999D01*
X55260003Y-44919999D01*
X55260003Y-44919999D01*
X55260004Y-44919999D01*
X55260004Y-44919999D01*
X55260004Y-44919999D01*
X55260004Y-44919999D01*
X55260004Y-44919999D01*
X55260004Y-44919999D01*
X55260004Y-44919999D01*
X55260004Y-44919999D01*
X55260004Y-44919999D01*
X55260004Y-44919999D01*
X55260004Y-44919999D01*
X55260004Y-44919999D01*
X55260005Y-44919999D01*
X55260005Y-44919999D01*
X55260005Y-44919999D01*
X55260005Y-44919999D01*
X55260005Y-44919999D01*
X55260005Y-44919999D01*
X55260005Y-44920000D01*
X55260005Y-44920000D01*
X55260005Y-44920000D01*
X55260005Y-44920000D01*
X55260005Y-44920000D01*
X55260005Y-44920000D01*
X55260005Y-44920000D01*
X55260004Y-44920000D01*
X55260004Y-44920000D02*
X55260005Y-44920000D01*
X55260005Y-44920000D01*
X55260005Y-44920000D01*
X55260005Y-44920000D01*
X55260005Y-44920000D01*
X55260005Y-44920000D01*
X55260005Y-44920001D01*
X55260005Y-44920001D01*
X55260005Y-44920001D01*
X55260005Y-44920001D01*
X55260005Y-44920001D01*
X55260005Y-44920001D01*
X55260005Y-44920001D01*
X55260004Y-44920001D01*
X55260004Y-44920001D01*
X55260004Y-44920001D01*
X55260004Y-44920001D01*
X55260004Y-44920001D01*
X55260004Y-44920001D01*
X55260004Y-44920001D01*
X55260004Y-44920001D01*
X55260004Y-44920001D01*
X55260004Y-44920001D01*
X55260004Y-44920001D01*
X55260004Y-44920001D01*
X55260003Y-44920001D01*
X55260003Y-44920001D01*
X55260003Y-44920001D01*
X55260003Y-44920001D01*
X55260003Y-44920001D01*
X55260003Y-44920001D01*
X55260003Y-44920000D01*
X55260003Y-44920000D01*
X55260003Y-44920000D01*
X55260003Y-44920000D01*
X55260003Y-44920000D01*
X55260003Y-44920000D01*
X55260004Y-44920000D01*
D10*
D21*
X55360004Y-44920000D02*
X55360003Y-44920000D01*
X55360003Y-44920000D01*
X55360003Y-44920000D01*
X55360003Y-44920000D01*
X55360003Y-44920000D01*
X55360003Y-44920000D01*
X55360003Y-44920000D01*
X55360003Y-44919999D01*
X55360003Y-44919999D01*
X55360003Y-44919999D01*
X55360003Y-44919999D01*
X55360003Y-44919999D01*
X55360004Y-44919999D01*
X55360004Y-44919999D01*
X55360004Y-44919999D01*
X55360004Y-44919999D01*
X55360004Y-44919999D01*
X55360004Y-44919999D01*
X55360004Y-44919999D01*
X55360004Y-44919999D01*
X55360004Y-44919999D01*
X55360004Y-44919999D01*
X55360004Y-44919999D01*
X55360004Y-44919999D01*
X55360005Y-44919999D01*
X55360005Y-44919999D01*
X55360005Y-44919999D01*
X55360005Y-44919999D01*
X55360005Y-44919999D01*
X55360005Y-44919999D01*
X55360005Y-44920000D01*
X55360005Y-44920000D01*
X55360005Y-44920000D01*
X55360005Y-44920000D01*
X55360005Y-44920000D01*
X55360005Y-44920000D01*
X55360005Y-44920000D01*
X55360004Y-44920000D01*
X55360004Y-44920000D02*
X55360005Y-44920000D01*
X55360005Y-44920000D01*
X55360005Y-44920000D01*
X55360005Y-44920000D01*
X55360005Y-44920000D01*
X55360005Y-44920000D01*
X55360005Y-44920001D01*
X55360005Y-44920001D01*
X55360005Y-44920001D01*
X55360005Y-44920001D01*
X55360005Y-44920001D01*
X55360005Y-44920001D01*
X55360005Y-44920001D01*
X55360004Y-44920001D01*
X55360004Y-44920001D01*
X55360004Y-44920001D01*
X55360004Y-44920001D01*
X55360004Y-44920001D01*
X55360004Y-44920001D01*
X55360004Y-44920001D01*
X55360004Y-44920001D01*
X55360004Y-44920001D01*
X55360004Y-44920001D01*
X55360004Y-44920001D01*
X55360004Y-44920001D01*
X55360003Y-44920001D01*
X55360003Y-44920001D01*
X55360003Y-44920001D01*
X55360003Y-44920001D01*
X55360003Y-44920001D01*
X55360003Y-44920001D01*
X55360003Y-44920000D01*
X55360003Y-44920000D01*
X55360003Y-44920000D01*
X55360003Y-44920000D01*
X55360003Y-44920000D01*
X55360003Y-44920000D01*
X55360004Y-44920000D01*
D17*
X109870004Y-26510000D02*
X48910004Y-26510000D01*
D10*
X109870004Y-26510000D02*
X48910004Y-26510000D01*
D17*
X109870004Y-44290000D02*
X109870004Y-26510000D01*
D10*
X109870004Y-44290000D02*
X109870004Y-26510000D01*
D17*
X110870004Y-25510000D02*
X110870004Y-45290000D01*
X110870004Y-45290000D02*
X47910004Y-45290000D01*
D10*
X55260004Y-44920000D02*
G75*
G02*
X55360004Y-44920000I50000J0D01*
G01*
X55360004Y-44920000D02*
G75*
G02*
X55260004Y-44920000I-50000J0D01*
G01*
X55360004Y-44920000D02*
G75*
G02*
X55260004Y-44920000I-50000J0D01*
G01*
%TO.C,I4*%
D15*
X22862500Y-43025000D02*
X26362500Y-43025000D01*
X22862500Y-46025000D02*
X22862500Y-43025000D01*
D16*
X23112500Y-43275000D02*
X23753500Y-43275000D01*
X23112500Y-43275000D02*
X26112500Y-43275000D01*
X23112500Y-43416000D02*
X23112500Y-43275000D01*
X23112500Y-45634000D02*
X23112500Y-45775000D01*
X23112500Y-45775000D02*
X23112500Y-43275000D01*
X23112500Y-45775000D02*
X23753500Y-45775000D01*
X23112500Y-45775000D02*
X26112500Y-45775000D01*
X26112500Y-43275000D02*
X25471500Y-43275000D01*
X26112500Y-43275000D02*
X26112500Y-45775000D01*
X26112500Y-43416000D02*
X26112500Y-43275000D01*
X26112500Y-45634000D02*
X26112500Y-45775000D01*
X26112500Y-45775000D02*
X25471500Y-45775000D01*
D15*
X26362500Y-43025000D02*
X26362500Y-46025000D01*
X26362500Y-46025000D02*
X22862500Y-46025000D01*
D17*
X22762500Y-43775000D02*
G75*
G02*
X22662500Y-43775000I-50000J0D01*
G01*
X22662500Y-43775000D02*
G75*
G02*
X22762500Y-43775000I50000J0D01*
G01*
X23347500Y-43775000D02*
G75*
G02*
X23247500Y-43775000I-50000J0D01*
G01*
X23247500Y-43775000D02*
G75*
G02*
X23347500Y-43775000I50000J0D01*
G01*
%TO.C,B5*%
D14*
X32492500Y-36635000D02*
X32492500Y-36210000D01*
X32510239Y-34415000D02*
X32667500Y-34415000D01*
X32667500Y-36635000D02*
X32492500Y-36635000D01*
X34537500Y-34415000D02*
X34712500Y-34415000D01*
X34712500Y-34415000D02*
X34712500Y-34840000D01*
X34712500Y-36210000D02*
X34712500Y-36635000D01*
X34712500Y-36635000D02*
X34537500Y-36635000D01*
D15*
X32352500Y-34275000D02*
X34852500Y-34275000D01*
X34852500Y-36775000D01*
X32352500Y-36775000D01*
X32352500Y-34275000D01*
D14*
X32462500Y-34935000D02*
X32182500Y-34935000D01*
X32462500Y-34655000D01*
X32462500Y-34935000D01*
G36*
X32462500Y-34935000D02*
G01*
X32182500Y-34935000D01*
X32462500Y-34655000D01*
X32462500Y-34935000D01*
G37*
D17*
X34602500Y-36525000D02*
X32602500Y-36525000D01*
X32602500Y-35025000D01*
X33102500Y-34525000D01*
X34602500Y-34525000D01*
X34602500Y-36525000D01*
%TO.C,I3*%
D15*
X22937500Y-34025000D02*
X26437500Y-34025000D01*
X22937500Y-37025000D02*
X22937500Y-34025000D01*
D16*
X23187500Y-34275000D02*
X23187500Y-34330000D01*
X23187500Y-34275000D02*
X23187500Y-36775000D01*
X23187500Y-34275000D02*
X23742500Y-34275000D01*
X23187500Y-36720000D02*
X23187500Y-36775000D01*
X23187500Y-36775000D02*
X23742500Y-36775000D01*
X23187500Y-36775000D02*
X26187500Y-36775000D01*
X25632500Y-34275000D02*
X26187500Y-34275000D01*
X25632500Y-36775000D02*
X26187500Y-36775000D01*
X26187500Y-34275000D02*
X23187500Y-34275000D01*
X26187500Y-34275000D02*
X26187500Y-34330000D01*
X26187500Y-36720000D02*
X26187500Y-36775000D01*
X26187500Y-36775000D02*
X26187500Y-34275000D01*
D15*
X26437500Y-34025000D02*
X26437500Y-37025000D01*
X26437500Y-37025000D02*
X22937500Y-37025000D01*
D12*
X22762500Y-34625000D02*
G75*
G02*
X22612500Y-34625000I-75000J0D01*
G01*
X22612500Y-34625000D02*
G75*
G02*
X22762500Y-34625000I75000J0D01*
G01*
X22762500Y-34625000D02*
G75*
G02*
X22612500Y-34625000I-75000J0D01*
G01*
X22612500Y-34625000D02*
G75*
G02*
X22762500Y-34625000I75000J0D01*
G01*
%TO.C,B1*%
D16*
X41295124Y-25517877D02*
X43495124Y-25517877D01*
X41295124Y-27717877D02*
X41295124Y-25517877D01*
X41345124Y-25567877D02*
X43445124Y-25567877D01*
X41345124Y-27667877D02*
X41345124Y-25567877D01*
X43445124Y-25567877D02*
X43445124Y-27667877D01*
X43445124Y-27667877D02*
X41345124Y-27667877D01*
X43495124Y-25517877D02*
X43495124Y-27717877D01*
X43495124Y-27717877D02*
X41295124Y-27717877D01*
D19*
X43722377Y-25359877D02*
G75*
G02*
X43631871Y-25359877I-45253J0D01*
G01*
X43631871Y-25359877D02*
G75*
G02*
X43722377Y-25359877I45253J0D01*
G01*
D20*
X43595124Y-27817877D02*
X41195124Y-27817877D01*
X41195124Y-25417877D01*
X43595124Y-25417877D01*
X43595124Y-27817877D01*
G36*
X43595124Y-27817877D02*
G01*
X41195124Y-27817877D01*
X41195124Y-25417877D01*
X43595124Y-25417877D01*
X43595124Y-27817877D01*
G37*
X41745124Y-26217877D02*
X41520124Y-26217877D01*
X41520124Y-26017877D01*
X41745124Y-26017877D01*
X41745124Y-26217877D01*
G36*
X41745124Y-26217877D02*
G01*
X41520124Y-26217877D01*
X41520124Y-26017877D01*
X41745124Y-26017877D01*
X41745124Y-26217877D01*
G37*
X41745124Y-26717877D02*
X41520124Y-26717877D01*
X41520124Y-26517877D01*
X41745124Y-26517877D01*
X41745124Y-26717877D01*
G36*
X41745124Y-26717877D02*
G01*
X41520124Y-26717877D01*
X41520124Y-26517877D01*
X41745124Y-26517877D01*
X41745124Y-26717877D01*
G37*
X41745124Y-27217877D02*
X41520124Y-27217877D01*
X41520124Y-27017877D01*
X41745124Y-27017877D01*
X41745124Y-27217877D01*
G36*
X41745124Y-27217877D02*
G01*
X41520124Y-27217877D01*
X41520124Y-27017877D01*
X41745124Y-27017877D01*
X41745124Y-27217877D01*
G37*
X42245124Y-25967877D02*
X42045124Y-25967877D01*
X42045124Y-25742877D01*
X42245124Y-25742877D01*
X42245124Y-25967877D01*
G36*
X42245124Y-25967877D02*
G01*
X42045124Y-25967877D01*
X42045124Y-25742877D01*
X42245124Y-25742877D01*
X42245124Y-25967877D01*
G37*
X42245124Y-27492877D02*
X42045124Y-27492877D01*
X42045124Y-27267877D01*
X42245124Y-27267877D01*
X42245124Y-27492877D01*
G36*
X42245124Y-27492877D02*
G01*
X42045124Y-27492877D01*
X42045124Y-27267877D01*
X42245124Y-27267877D01*
X42245124Y-27492877D01*
G37*
X42745124Y-25967877D02*
X42545124Y-25967877D01*
X42545124Y-25742877D01*
X42745124Y-25742877D01*
X42745124Y-25967877D01*
G36*
X42745124Y-25967877D02*
G01*
X42545124Y-25967877D01*
X42545124Y-25742877D01*
X42745124Y-25742877D01*
X42745124Y-25967877D01*
G37*
X42745124Y-27492877D02*
X42545124Y-27492877D01*
X42545124Y-27267877D01*
X42745124Y-27267877D01*
X42745124Y-27492877D01*
G36*
X42745124Y-27492877D02*
G01*
X42545124Y-27492877D01*
X42545124Y-27267877D01*
X42745124Y-27267877D01*
X42745124Y-27492877D01*
G37*
X43270124Y-26217877D02*
X43045124Y-26217877D01*
X43045124Y-26017877D01*
X43270124Y-26017877D01*
X43270124Y-26217877D01*
G36*
X43270124Y-26217877D02*
G01*
X43045124Y-26217877D01*
X43045124Y-26017877D01*
X43270124Y-26017877D01*
X43270124Y-26217877D01*
G37*
X43270124Y-26717877D02*
X43045124Y-26717877D01*
X43045124Y-26517877D01*
X43270124Y-26517877D01*
X43270124Y-26717877D01*
G36*
X43270124Y-26717877D02*
G01*
X43045124Y-26717877D01*
X43045124Y-26517877D01*
X43270124Y-26517877D01*
X43270124Y-26717877D01*
G37*
X43270124Y-27217877D02*
X43045124Y-27217877D01*
X43045124Y-27017877D01*
X43270124Y-27017877D01*
X43270124Y-27217877D01*
G36*
X43270124Y-27217877D02*
G01*
X43045124Y-27217877D01*
X43045124Y-27017877D01*
X43270124Y-27017877D01*
X43270124Y-27217877D01*
G37*
%TD*%
M02*
